<?xml version="1.0" encoding="utf-8"?>
<!-- Generator: Adobe Illustrator 19.0.0, SVG Export Plug-In . SVG Version: 6.00 Build 0)  -->
<svg version="1.1" id="Layer_1" xmlns="http://www.w3.org/2000/svg" xmlns:xlink="http://www.w3.org/1999/xlink" x="0px" y="0px"
	 viewBox="-54 379 850 204" style="enable-background:new -54 379 850 204;" xml:space="preserve">
<style type="text/css">
	.st0{fill:#ED1B4C;stroke:#FFFFFF;stroke-width:0.8;stroke-miterlimit:10;}
	.st1{fill:#00A1CC;stroke:#FFFFFF;stroke-width:0.8;stroke-miterlimit:10;}
	.st2{fill:#46D3AA;stroke:#FFFFFF;stroke-width:0.8;stroke-miterlimit:10;}
	.st3{fill:#F6D76B;stroke:#FFFFFF;stroke-width:0.8;stroke-miterlimit:10;}
	.st4{fill:#E842A5;stroke:#FFFFFF;stroke-width:0.8;stroke-miterlimit:10;}
	.st5{fill:#00CCCC;stroke:#FFFFFF;stroke-width:0.8;stroke-miterlimit:10;}
	.st6{fill:#161C38;stroke:#FFFFFF;stroke-width:0.8;stroke-miterlimit:10;}
	.st7{fill:#1A2142;stroke:#FFFFFF;stroke-width:0.8;stroke-miterlimit:10;}
</style>
<g>
	<circle class="st0" cx="181.3" cy="451" r="2.9"/>
	<circle class="st1" cx="159.8" cy="472.5" r="2.9"/>
	<circle class="st2" cx="165.2" cy="456.3" r="2.9"/>
	<circle class="st3" cx="452.1" cy="461.4" r="26.3"/>
	<circle class="st4" cx="616.3" cy="460.4" r="26.3"/>
	<circle class="st5" cx="32.9" cy="470.2" r="30.3"/>
	<path class="st6" d="M200.9,481.8c-0.4-0.3-0.8-0.5-1.1-0.9c-2.4-2.5-11.4-13.6,0.5-31.5c0.1-0.1,0-0.2,0-0.4
		c0-0.3-0.1-0.5-0.1-0.6c-2.9-5.7-11.2-10.3-21.8-10.2c-17.8,0.1-32.2,14.7-32.1,32.6c0.1,6.7,2.1,12.8,5.6,17.9
		c0.5,0.7,1.1,1.6,1.8,2.5c10.3,12.1,24.3,11.9,28.5,11.5l0,0c0.1,0,0.2,0,0.4,0c0.6-0.1,0.9-0.1,0.9-0.1l0,0
		C196.3,500.5,209.2,487.4,200.9,481.8z M181.3,445.6c3,0,5.4,2.4,5.4,5.3c0,3-2.4,5.4-5.3,5.4c-3,0-5.4-2.4-5.4-5.3
		C175.9,448,178.3,445.6,181.3,445.6z M165.1,451c3,0,5.4,2.4,5.4,5.3c0,3-2.4,5.4-5.3,5.4c-3,0-5.4-2.4-5.4-5.4
		C159.8,453.4,162.2,451,165.1,451z M159.8,467.1c3,0,5.4,2.4,5.4,5.3c0,3-2.4,5.4-5.3,5.4c-3,0-5.4-2.4-5.4-5.3
		C154.4,469.6,156.8,467.1,159.8,467.1z"/>
	<g>
		<path class="st7" d="M656.6,568.5c0,5-1.8,7-5.8,7c-1.4,0-4.7-0.3-4.7-0.3v-18.4h2.8v6.6c0,0,1.6-1.5,3.4-1.5
			C655.5,562,656.6,564.4,656.6,568.5z M653.7,568.5c0-2.2-0.3-4.2-2.1-4.2c-1.4,0-2.7,1.4-2.7,1.4v7.2c0,0,1.5,0.2,2,0.2
			C653.2,573.2,653.7,571.7,653.7,568.5z"/>
		<path class="st7" d="M659.9,562.3l2.4,10.7h0.6l2.4-10.7h2.7l-4.6,18.6h-2.7l1.5-5.6h-2.1l-3.1-13H659.9z"/>
		<path class="st7" d="M681.9,575.3v-7.1c0-2.8-0.5-3.8-1.9-3.8s-2.7,1.9-2.7,1.9v9h-2.8v-13h2.8v1.6c0,0,1.4-1.8,3.4-1.8
			c2.6,0,3.4,2,3.4,2s1.7-2,3.7-2c2.9,0,4.1,2.3,4.1,5.6v7.7h-2.8v-7.3c0-2.5-0.5-3.6-2-3.6c-1.4,0-2.5,1.7-2.5,1.7s0.1,0.9,0.1,1.7
			v7.4L681.9,575.3L681.9,575.3z"/>
		<path class="st7" d="M694.2,557.3h2.9v3h-2.9V557.3z M694.3,562.3h2.8v13h-2.8V562.3z"/>
		<path class="st7" d="M707.8,564.8c0,0-2.5-0.4-4.2-0.4c-0.9,0-1.8,0.4-1.8,1.4s0.5,1.3,2.3,1.7c2.7,0.7,4.3,1.1,4.3,3.9
			c0,3.2-1.9,4.2-4.9,4.2c-2.1,0-4.5-0.7-4.5-0.7l0.2-2.2c0,0,2.9,0.4,4.1,0.4c1.7,0,2.3-0.4,2.3-1.5s-0.7-1.3-2.3-1.6
			c-2.7-0.6-4.3-1.4-4.3-4c0-2.9,2.2-4.1,4.4-4.1c2.4,0,4.5,0.6,4.5,0.6L707.8,564.8z"/>
		<path class="st7" d="M713.4,564.7v6.6c0,1.1,0.2,1.9,1.2,1.9c0.8,0,2-0.2,2-0.2l0.1,2.2c0,0-1.6,0.4-2.5,0.4
			c-2.9,0-3.6-1.5-3.6-4.1v-6.7h-1.5v-2.4h1.5v-3.6h2.8v3.6h3.2v2.4h-3.2V564.7z"/>
		<path class="st7" d="M727,572.7l0.1,2c0,0-1.9,0.8-4.4,0.8c-3.7,0-5.3-2-5.3-6.4c0-4.1,1.5-7.1,5.4-7.1c3,0,4.8,1.1,4.8,3.9
			c0,3.3-2.2,4-6.3,4h-1.1v0.4c0,1.7,0.9,2.9,2.7,2.9C724.7,573.1,727,572.7,727,572.7z M721.3,567.7c2.4,0,3.5-0.3,3.5-1.8
			c0-1.2-0.7-1.6-2-1.6c-1.8,0-2.5,1.4-2.5,3.4L721.3,567.7L721.3,567.7z"/>
		<path class="st7" d="M729.3,562.3h2.8v1.9c0,0,1.6-1.7,3.7-2.2v2.9c-1.7,0.4-3.6,1.6-3.6,1.6v8.7h-2.8v-12.9H729.3z"/>
		<path class="st7" d="M742.1,562.3h2.8v1.5c0,0,1.3-1.7,3.3-1.7c3.3,0,4.5,2.4,4.5,6.6c0,4.5-1.4,6.9-5.1,6.9
			c-1.2,0-2.6-0.3-2.6-0.3v5.7h-2.8v-18.7H742.1z M744.9,566.3v6.6c0,0,1.3,0.2,2.3,0.2c2,0,2.6-1.6,2.6-4.5c0-2.6-0.4-4.2-2.1-4.2
			C746.2,564.4,744.9,566.3,744.9,566.3z"/>
		<path class="st7" d="M754,569c0-4,1-7,5.3-7c1.7,0,5.3,0.5,5.3,0.5v9.3c0,0.9,0.1,3.5,0.1,3.5l-2.8,0.1c0,0-0.1-1-0.1-1.9
			c0,0-1.2,2.1-3.4,2.1C755.2,575.6,754,573.3,754,569z M756.9,569c0,2.5,0.4,4.2,2.1,4.2c1.6,0,2.8-2.2,2.8-2.2v-6.4
			c0,0-1.6-0.2-2.2-0.2C757.4,564.4,756.9,565.9,756.9,569z"/>
		<path class="st7" d="M767,562.3h2.8v1.5c0,0,1.3-1.7,3.3-1.7c3.3,0,4.5,2.4,4.5,6.6c0,4.5-1.4,6.9-5.1,6.9c-1.2,0-2.6-0.3-2.6-0.3
			v5.7H767V562.3z M769.8,566.3v6.6c0,0,1.3,0.2,2.3,0.2c2,0,2.6-1.6,2.6-4.5c0-2.6-0.4-4.2-2.1-4.2
			C771.1,564.4,769.8,566.3,769.8,566.3z"/>
		<path class="st7" d="M787.7,564.8c0,0-2.5-0.4-4.2-0.4c-0.9,0-1.8,0.4-1.8,1.4s0.5,1.3,2.3,1.7c2.7,0.7,4.3,1.1,4.3,3.9
			c0,3.2-1.9,4.2-4.9,4.2c-2.1,0-4.5-0.7-4.5-0.7l0.2-2.2c0,0,2.9,0.4,4.1,0.4c1.7,0,2.3-0.4,2.3-1.5s-0.7-1.3-2.3-1.6
			c-2.7-0.6-4.3-1.4-4.3-4c0-2.9,2.2-4.1,4.4-4.1c2.4,0,4.5,0.6,4.5,0.6L787.7,564.8z"/>
	</g>
	<path class="st7" d="M357.1,511.4c-15-1-29.8-3.2-44.3-7.2c-9.9-2.7-19.6-5.9-26.1-14.8c-1.3-1.8-2.9-3.3-4.1-5.2
		c-7.6-12.3-15.2-24.5-22.5-36.9c-5.2-9-10.4-18.1-17.4-25.8c-12.1-13.4-26.5-22.5-43.4-26.5c-2.3-0.5-4.6-1-7-1.3
		c-2.3-0.3-4.7-0.6-7.1-0.8c-0.4,0-0.9,0-1.3-0.1c-2.4-0.1-4.7-0.2-7-0.1c-3.1,0.1-6.2,0.3-9.2,0.7c-2.4,0.3-4.7,0.7-7,1.2
		c-2.9,0.6-5.7,1.4-8.5,2.4c-2.4,0.8-4.7,1.7-7,2.8c-10.2,4.7-19.4,11.6-27.7,21c-7.2,8.1-11.7,17.7-16.8,27.1
		c-10.4,19.2-22.4,37.3-39.4,51.5c-9.8,8.2-20.8,12-33.6,10.2c-22.9-3.2-38.9-26.3-33.6-48.9c7.1-30.2,43.7-42,67-21.6
		c0.5,0.4,1.1,0.8,1.5,1.2c9.3-9.3,18.5-18.6,27.7-27.9c-0.1-0.2-0.4-0.5-0.7-0.8C69,392.4,44.6,385.1,17,391
		c-42.2,9.1-69.1,49.4-62.2,91.9c7.8,48.4,58.8,78.6,105.2,62.4c12.1-4.3,22.9-10.7,31.4-20.6c4.2-4.9,8.8-9.4,13.3-14.1
		c1.1-1.1,2-2.3,3-3.4c0.3,0.2,0.4,0.2,0.4,0.3c0.6,1,1.1,2,1.7,2.9c15.1,23.9,36.7,37.7,65,39c30.3,1.3,54-11.6,71.3-36.5
		c1.1-1.6,1.1-2.7-0.1-4.2c-1.3-1.5-2.3-3.2-3.3-4.9c-6.9-11.6-13.7-23.2-20.6-34.8c-0.9-1.5-1.9-2.9-2.9-4.4
		c-0.2,0.1-0.5,0.1-0.7,0.2c0,3.4,0.5,6.9-0.1,10.3c-3.8,22.9-23.4,37.2-46.4,34.1c-21.3-2.9-37.2-24.8-33.5-46
		c1.1-6.2,3.4-11.4,6.8-15.8c0.7-0.9,1.4-1.7,2.1-2.5c0.4-0.4,0.9-0.9,1.4-1.4c0.1-0.1,0.1-0.1,0.2-0.2c1-1,2.1-1.9,3.3-2.8
		c2.4-1.8,5-3.5,7.8-5c0.3-0.2,0.6-0.3,1-0.5l4.9-1.9c0.3-0.1,0.6-0.2,0.9-0.3c0.3-0.1,0.6-0.2,0.9-0.2c2.9-0.8,6-1.3,9.2-1.4
		c0.2,0,0.4,0,0.6,0c0.8,0,1.7,0,2.6,0c0.4,0,0.7,0,1.1,0l2.2,0.2c0.1,0,0.3,0,0.5,0c2.8,0.3,5.7,0.9,8.5,1.7c2.4,0.7,4.7,1.6,7,2.8
		c4.8,2.4,9.3,5.8,13.4,10.3c5.7,6.4,9.9,13.9,14.2,21.2c7.3,12.3,14.4,24.8,22.3,36.7c11.1,16.8,25.8,29.2,45.6,35.1
		c15.7,4.6,31.7,7.9,48,9.7c5.4,0.6,10.8,0.8,16.2,1.2v-38.8C358,511.1,357.6,511.1,357.1,511.4z"/>
	<path class="st7" d="M436.2,390.6c-33.1,7.8-55.9,36.7-56,71c-0.1,28.3,0,56.6,0,84.9c0,0.9,0.1,1.8,0.1,2.7h39.5v-23.8
		c1.4,0.7,2.2,1,3.1,1.3c15.4,6.7,31.4,8.2,47.7,3.9c36.8-9.8,59-45.2,52.2-83.1C515.7,407.7,475.6,381.3,436.2,390.6z M452.2,493.7
		c-17.9,0-32.4-14.6-32.4-32.6c0-18.3,14.3-32.7,32.7-32.5c17.8,0,32,14.5,32,32.6C484.4,479.1,469.9,493.7,452.2,493.7z"/>
	<path class="st7" d="M687.2,466.9c0-1.8,0-3.5,0-5.3c-0.1-34.3-22.9-63.2-56-71c-39.4-9.3-79.5,17.1-86.6,56.9
		c-3.6,20.3,1,39.8,11.8,55.2c9.3,13.3,23.3,23.4,40.4,28c2.8,0.7,5.5,1.3,8.3,1.7l42.5-38.8l-0.3,32.1c0.1,0,0.2-0.1,0.3-0.2v23.8
		h39.5c0-0.9,0.1-1.8,0.1-2.7C687.2,519.9,687.3,493.4,687.2,466.9z M615.2,493.7c-12.7,0-23.7-7.5-29-18.3
		c-2.1-4.3-3.3-9.1-3.3-14.2c0-18.1,14.2-32.6,32-32.6c18.4-0.2,32.7,14.2,32.7,32.5c0,15.2,0,32.3,0,32.3S620.2,493.7,615.2,493.7z
		"/>
	<path class="st7" d="M773.6,509.6c-1.3,0-2.6-0.1-3.8-0.5c-10.2-3.1-18.1-13.8-18.1-24.4c0-35.9,0-95.6,0-95.6h-39.5
		c0,0,0,73.2,0.1,96.9c0,3.3,0.2,6.5,0.7,9.7c2.6,16.1,11.1,28.9,23.4,39.3c15,12.8,32.6,16.2,51.7,13.9c0-12.9,0-26,0-39.3
		C783.1,509.6,778.4,509.7,773.6,509.6z"/>
	<path class="st7" d="M284.3,467.2c-0.1,4.4-0.6,12.4,10.4,22.3c7.9,7.1,16.1,10,20.2,11.3c5.4,1.7,11.2,2.6,17.4,2.6
		c-0.4-0.5-0.9-1-1.3-1.5c-4.9-5.1-7.2-10.9-7.2-18.2c0.2-31.5,0.1-94.6,0.1-94.6s-37.7,0-39.5,0C283.9,428.6,284.4,458,284.3,467.2
		z"/>
</g>
</svg>
