<?xml version="1.0" encoding="utf-8"?>
<!-- Generator: Adobe Illustrator 19.0.0, SVG Export Plug-In . SVG Version: 6.00 Build 0)  -->
<svg version="1.1" id="Layer_1" xmlns="http://www.w3.org/2000/svg" xmlns:xlink="http://www.w3.org/1999/xlink" x="0px" y="0px"
	 viewBox="-54 379 850 204" style="enable-background:new -54 379 850 204;" xml:space="preserve">
<g>
	<circle cx="185.3" cy="451.6" r="2.9"/>
	<circle cx="163.8" cy="473.1" r="2.9"/>
	<circle cx="169.2" cy="456.9" r="2.9"/>
	<circle cx="456.1" cy="462" r="26.3"/>
	<circle cx="620.3" cy="461" r="26.3"/>
	<circle cx="36.9" cy="470.8" r="30.3"/>
	<path d="M204.9,482.4c-0.4-0.3-0.8-0.5-1.1-0.9c-2.4-2.5-11.4-13.6,0.5-31.5c0.1-0.1,0-0.2,0-0.4c0-0.3-0.1-0.5-0.1-0.6
		c-2.9-5.7-11.2-10.3-21.8-10.2c-17.8,0.1-32.2,14.7-32.1,32.6c0.1,6.7,2.1,12.8,5.6,17.9c0.5,0.7,1.1,1.6,1.8,2.5
		c10.3,12.1,24.3,11.9,28.5,11.5l0,0c0.1,0,0.2,0,0.4,0c0.6-0.1,0.9-0.1,0.9-0.1l0,0C200.3,501.1,213.2,488,204.9,482.4z
		 M185.3,446.2c3,0,5.4,2.4,5.4,5.3c0,3-2.4,5.4-5.3,5.4c-3,0-5.4-2.4-5.4-5.3C179.9,448.6,182.3,446.2,185.3,446.2z M169.1,451.6
		c3,0,5.4,2.4,5.4,5.3c0,3-2.4,5.4-5.3,5.4c-3,0-5.4-2.4-5.4-5.4C163.8,454,166.2,451.6,169.1,451.6z M163.8,467.7
		c3,0,5.4,2.4,5.4,5.3c0,3-2.4,5.4-5.3,5.4c-3,0-5.4-2.4-5.4-5.3C158.4,470.2,160.8,467.7,163.8,467.7z"/>
	<g>
		<path d="M660.6,569.1c0,5-1.8,7-5.8,7c-1.4,0-4.7-0.3-4.7-0.3v-18.4h2.8v6.6c0,0,1.6-1.5,3.4-1.5
			C659.5,562.6,660.6,565,660.6,569.1z M657.7,569.1c0-2.2-0.3-4.2-2.1-4.2c-1.4,0-2.7,1.4-2.7,1.4v7.2c0,0,1.5,0.2,2,0.2
			C657.2,573.8,657.7,572.3,657.7,569.1z"/>
		<path d="M663.9,562.9l2.4,10.7h0.6l2.4-10.7h2.7l-4.6,18.6h-2.7l1.5-5.6h-2.1l-3.1-13H663.9z"/>
		<path d="M685.9,575.9v-7.1c0-2.8-0.5-3.8-1.9-3.8s-2.7,1.9-2.7,1.9v9h-2.8v-13h2.8v1.6c0,0,1.4-1.8,3.4-1.8c2.6,0,3.4,2,3.4,2
			s1.7-2,3.7-2c2.9,0,4.1,2.3,4.1,5.6v7.7h-2.8v-7.3c0-2.5-0.5-3.6-2-3.6c-1.4,0-2.5,1.7-2.5,1.7s0.1,0.9,0.1,1.7v7.4L685.9,575.9
			L685.9,575.9z"/>
		<path d="M698.2,557.9h2.9v3h-2.9V557.9z M698.3,562.9h2.8v13h-2.8V562.9z"/>
		<path d="M711.8,565.4c0,0-2.5-0.4-4.2-0.4c-0.9,0-1.8,0.4-1.8,1.4s0.5,1.3,2.3,1.7c2.7,0.7,4.3,1.1,4.3,3.9c0,3.2-1.9,4.2-4.9,4.2
			c-2.1,0-4.5-0.7-4.5-0.7l0.2-2.2c0,0,2.9,0.4,4.1,0.4c1.7,0,2.3-0.4,2.3-1.5c0-1.1-0.7-1.3-2.3-1.6c-2.7-0.6-4.3-1.4-4.3-4
			c0-2.9,2.2-4.1,4.4-4.1c2.4,0,4.5,0.6,4.5,0.6L711.8,565.4z"/>
		<path d="M717.4,565.3v6.6c0,1.1,0.2,1.9,1.2,1.9c0.8,0,2-0.2,2-0.2l0.1,2.2c0,0-1.6,0.4-2.5,0.4c-2.9,0-3.6-1.5-3.6-4.1v-6.7h-1.5
			V563h1.5v-3.6h2.8v3.6h3.2v2.4h-3.2V565.3z"/>
		<path d="M731,573.3l0.1,2c0,0-1.9,0.8-4.4,0.8c-3.7,0-5.3-2-5.3-6.4c0-4.1,1.5-7.1,5.4-7.1c3,0,4.8,1.1,4.8,3.9c0,3.3-2.2,4-6.3,4
			h-1.1v0.4c0,1.7,0.9,2.9,2.7,2.9C728.7,573.7,731,573.3,731,573.3z M725.3,568.3c2.4,0,3.5-0.3,3.5-1.8c0-1.2-0.7-1.6-2-1.6
			c-1.8,0-2.5,1.4-2.5,3.4H725.3L725.3,568.3z"/>
		<path d="M733.3,562.9h2.8v1.9c0,0,1.6-1.7,3.7-2.2v2.9c-1.7,0.4-3.6,1.6-3.6,1.6v8.7h-2.8v-12.9H733.3z"/>
		<path d="M746.1,562.9h2.8v1.5c0,0,1.3-1.7,3.3-1.7c3.3,0,4.5,2.4,4.5,6.6c0,4.5-1.4,6.9-5.1,6.9c-1.2,0-2.6-0.3-2.6-0.3v5.7h-2.8
			v-18.7H746.1z M748.9,566.9v6.6c0,0,1.3,0.2,2.3,0.2c2,0,2.6-1.6,2.6-4.5c0-2.6-0.4-4.2-2.1-4.2
			C750.2,565,748.9,566.9,748.9,566.9z"/>
		<path d="M758,569.6c0-4,1-7,5.3-7c1.7,0,5.3,0.5,5.3,0.5v9.3c0,0.9,0.1,3.5,0.1,3.5l-2.8,0.1c0,0-0.1-1-0.1-1.9
			c0,0-1.2,2.1-3.4,2.1C759.2,576.2,758,573.9,758,569.6z M760.9,569.6c0,2.5,0.4,4.2,2.1,4.2c1.6,0,2.8-2.2,2.8-2.2v-6.4
			c0,0-1.6-0.2-2.2-0.2C761.4,565,760.9,566.5,760.9,569.6z"/>
		<path d="M771,562.9h2.8v1.5c0,0,1.3-1.7,3.3-1.7c3.3,0,4.5,2.4,4.5,6.6c0,4.5-1.4,6.9-5.1,6.9c-1.2,0-2.6-0.3-2.6-0.3v5.7H771
			V562.9z M773.8,566.9v6.6c0,0,1.3,0.2,2.3,0.2c2,0,2.6-1.6,2.6-4.5c0-2.6-0.4-4.2-2.1-4.2C775.1,565,773.8,566.9,773.8,566.9z"/>
		<path d="M791.7,565.4c0,0-2.5-0.4-4.2-0.4c-0.9,0-1.8,0.4-1.8,1.4s0.5,1.3,2.3,1.7c2.7,0.7,4.3,1.1,4.3,3.9c0,3.2-1.9,4.2-4.9,4.2
			c-2.1,0-4.5-0.7-4.5-0.7l0.2-2.2c0,0,2.9,0.4,4.1,0.4c1.7,0,2.3-0.4,2.3-1.5c0-1.1-0.7-1.3-2.3-1.6c-2.7-0.6-4.3-1.4-4.3-4
			c0-2.9,2.2-4.1,4.4-4.1c2.4,0,4.5,0.6,4.5,0.6L791.7,565.4z"/>
	</g>
	<path d="M361.1,512c-15-1-29.8-3.2-44.3-7.2c-9.9-2.7-19.6-5.9-26.1-14.8c-1.3-1.8-2.9-3.3-4.1-5.2c-7.6-12.3-15.2-24.5-22.5-36.9
		c-5.2-9-10.4-18.1-17.4-25.8c-12.1-13.4-26.5-22.5-43.4-26.5c-2.3-0.5-4.6-1-7-1.3c-2.3-0.3-4.7-0.6-7.1-0.8c-0.4,0-0.9,0-1.3-0.1
		c-2.4-0.1-4.7-0.2-7-0.1c-3.1,0.1-6.2,0.3-9.2,0.7c-2.4,0.3-4.7,0.7-7,1.2c-2.9,0.6-5.7,1.4-8.5,2.4c-2.4,0.8-4.7,1.7-7,2.8
		c-10.2,4.7-19.4,11.6-27.7,21c-7.2,8.1-11.7,17.7-16.8,27.1c-10.4,19.2-22.4,37.3-39.4,51.5c-9.8,8.2-20.8,12-33.6,10.2
		C8.8,507-7.2,483.9-1.9,461.3c7.1-30.2,43.7-42,67-21.6c0.5,0.4,1.1,0.8,1.5,1.2c9.3-9.3,18.5-18.6,27.7-27.9
		c-0.1-0.2-0.4-0.5-0.7-0.8C73,393,48.6,385.7,21,391.6c-42.2,9.1-69.1,49.4-62.2,91.9c7.8,48.4,58.8,78.6,105.2,62.4
		c12.1-4.3,22.9-10.7,31.4-20.6c4.2-4.9,8.8-9.4,13.3-14.1c1.1-1.1,2-2.3,3-3.4c0.3,0.2,0.4,0.2,0.4,0.3c0.6,1,1.1,2,1.7,2.9
		c15.1,23.9,36.7,37.7,65,39c30.3,1.3,54-11.6,71.3-36.5c1.1-1.6,1.1-2.7-0.1-4.2c-1.3-1.5-2.3-3.2-3.3-4.9
		c-6.9-11.6-13.7-23.2-20.6-34.8c-0.9-1.5-1.9-2.9-2.9-4.4c-0.2,0.1-0.5,0.1-0.7,0.2c0,3.4,0.5,6.9-0.1,10.3
		c-3.8,22.9-23.4,37.2-46.4,34.1c-21.3-2.9-37.2-24.8-33.5-46c1.1-6.2,3.4-11.4,6.8-15.8c0.7-0.9,1.4-1.7,2.1-2.5
		c0.4-0.4,0.9-0.9,1.4-1.4c0.1-0.1,0.1-0.1,0.2-0.2c1-1,2.1-1.9,3.3-2.8c2.4-1.8,5-3.5,7.8-5c0.3-0.2,0.6-0.3,1-0.5l4.9-1.9
		c0.3-0.1,0.6-0.2,0.9-0.3c0.3-0.1,0.6-0.2,0.9-0.2c2.9-0.8,6-1.3,9.2-1.4c0.2,0,0.4,0,0.6,0c0.8,0,1.7,0,2.6,0c0.4,0,0.7,0,1.1,0
		l2.2,0.2c0.1,0,0.3,0,0.5,0c2.8,0.3,5.7,0.9,8.5,1.7c2.4,0.7,4.7,1.6,7,2.8c4.8,2.4,9.3,5.8,13.4,10.3c5.7,6.4,9.9,13.9,14.2,21.2
		c7.3,12.3,14.4,24.8,22.3,36.7c11.1,16.8,25.8,29.2,45.6,35.1c15.7,4.6,31.7,7.9,48,9.7c5.4,0.6,10.8,0.8,16.2,1.2v-38.8
		C362,511.7,361.6,511.7,361.1,512z"/>
	<path d="M440.2,391.2c-33.1,7.8-55.9,36.7-56,71c-0.1,28.3,0,56.6,0,84.9c0,0.9,0.1,1.8,0.1,2.7h39.5V526c1.4,0.7,2.2,1,3.1,1.3
		c15.4,6.7,31.4,8.2,47.7,3.9c36.8-9.8,59-45.2,52.2-83.1C519.7,408.3,479.6,381.9,440.2,391.2z M456.2,494.3
		c-17.9,0-32.4-14.6-32.4-32.6c0-18.3,14.3-32.7,32.7-32.5c17.8,0,32,14.5,32,32.6C488.4,479.7,473.9,494.3,456.2,494.3z"/>
	<path d="M691.2,467.5c0-1.8,0-3.5,0-5.3c-0.1-34.3-22.9-63.2-56-71c-39.4-9.3-79.5,17.1-86.6,56.9c-3.6,20.3,1,39.8,11.8,55.2
		c9.3,13.3,23.3,23.4,40.4,28c2.8,0.7,5.5,1.3,8.3,1.7l42.5-38.8l-0.3,32.1c0.1,0,0.2-0.1,0.3-0.2v23.8h39.5c0-0.9,0.1-1.8,0.1-2.7
		C691.2,520.5,691.3,494,691.2,467.5z M619.2,494.3c-12.7,0-23.7-7.5-29-18.3c-2.1-4.3-3.3-9.1-3.3-14.2c0-18.1,14.2-32.6,32-32.6
		c18.4-0.2,32.7,14.2,32.7,32.5c0,15.2,0,32.3,0,32.3S624.2,494.3,619.2,494.3z"/>
	<path d="M777.6,510.2c-1.3,0-2.6-0.1-3.8-0.5c-10.2-3.1-18.1-13.8-18.1-24.4c0-35.9,0-95.6,0-95.6h-39.5c0,0,0,73.2,0.1,96.9
		c0,3.3,0.2,6.5,0.7,9.7c2.6,16.1,11.1,28.9,23.4,39.3c15,12.8,32.6,16.2,51.7,13.9c0-12.9,0-26,0-39.3
		C787.1,510.2,782.4,510.3,777.6,510.2z"/>
	<path d="M288.3,467.8c-0.1,4.4-0.6,12.4,10.4,22.3c7.9,7.1,16.1,10,20.2,11.3c5.4,1.7,11.2,2.6,17.4,2.6c-0.4-0.5-0.9-1-1.3-1.5
		c-4.9-5.1-7.2-10.9-7.2-18.2c0.2-31.5,0.1-94.6,0.1-94.6s-37.7,0-39.5,0C287.9,429.2,288.4,458.6,288.3,467.8z"/>
</g>
</svg>
