<?xml version="1.0" encoding="utf-8"?>
<!-- Generator: Adobe Illustrator 19.0.0, SVG Export Plug-In . SVG Version: 6.00 Build 0)  -->
<svg version="1.1" id="Layer_1" xmlns="http://www.w3.org/2000/svg" xmlns:xlink="http://www.w3.org/1999/xlink" x="0px" y="0px"
	 viewBox="0 0 942.8 829.5" style="enable-background:new 0 0 942.8 829.5;" xml:space="preserve">
<g>
	<circle id="XMLID_35_" cx="180.2" cy="548.6" r="56.9"/>
	<circle id="XMLID_34_" cx="533.8" cy="548.6" r="56.9"/>
	<g>
		<path d="M621.2,780.9c0,10.9-4,15.2-12.6,15.2c-2.9,0-10.2-0.7-10.2-0.7v-39.8h6.1v14.3c0,0,3.5-3.2,7.3-3.2
			C618.9,766.7,621.2,771.8,621.2,780.9z M615,780.9c0-4.8-0.7-9-4.6-9c-3.1,0-5.9,3-5.9,3v15.7c0,0,3.3,0.3,4.3,0.3
			C613.8,790.9,615,787.8,615,780.9z"/>
		<path d="M628.5,767.3l5.2,23.1h1.2l5.3-23.1h5.9l-9.9,40.3h-5.8l3.3-12.1h-4.5l-6.8-28.2H628.5z"/>
		<path d="M676.1,795.5v-15.3c0-6.1-1-8.3-4.2-8.3c-2.9,0-5.8,4.2-5.8,4.2v19.5H660v-28.2h6l0.1,3.4c0,0,3-4,7.4-4
			c5.6,0,7.3,4.4,7.3,4.4s3.7-4.4,8.1-4.4c6.4,0,9,4.9,9,12.1v16.8h-6.1v-15.9c0-5.5-1.1-7.7-4.3-7.7c-3,0-5.4,3.7-5.4,3.7
			s0.2,2,0.2,3.8v16.1H676.1z"/>
		<path d="M702.9,756.5h6.2v6.5h-6.2V756.5z M702.9,767.3h6.1v28.2h-6.1V767.3z"/>
		<path d="M732.3,772.7c0,0-5.4-0.8-9.1-0.8c-2,0-3.9,0.9-3.9,3.1c0,2.2,1.2,2.8,4.9,3.7c5.9,1.4,9.3,2.4,9.3,8.4c0,7-4.1,9-10.6,9
			c-4.5,0-9.8-1.4-9.8-1.4l0.3-4.7c0,0,6.2,0.9,8.9,0.9c3.6,0,5-0.8,5-3.3c0-2.3-1.4-2.8-4.9-3.5c-5.9-1.3-9.3-2.9-9.3-8.6
			c0-6.4,4.8-8.8,9.6-8.8c5.2,0,9.8,1.3,9.8,1.3L732.3,772.7z"/>
		<path d="M744.4,772.6v14.3c0,2.5,0.5,4.1,2.6,4.1c1.8,0,4.2-0.3,4.2-0.3l0.3,4.7c0,0-3.4,0.8-5.4,0.8c-6.3,0-7.8-3.2-7.8-9v-14.6
			h-3.2v-5.2h3.2v-7.7h6.1v7.7h6.9v5.2H744.4z"/>
		<path d="M773.8,790l0.2,4.4c0,0-4.2,1.7-9.5,1.7c-8,0-11.5-4.3-11.5-13.9c0-8.9,3.2-15.5,11.7-15.5c6.6,0,10.4,2.4,10.4,8.4
			c0,7.1-4.7,8.6-13.6,8.6h-2.3v0.9c0,3.8,1.9,6.3,5.8,6.3C768.9,790.8,773.8,790,773.8,790z M761.5,779.1c5.2,0,7.6-0.6,7.6-4
			c0-2.7-1.5-3.5-4.3-3.5c-4,0-5.4,3-5.5,7.4H761.5z"/>
		<path d="M778.8,767.3h6v4.1c0,0,3.6-3.7,8-4.7v6.4c-3.7,0.9-7.9,3.5-7.9,3.5v19h-6.1V767.3z"/>
		<path d="M806.7,767.3h6l0.1,3.2c0,0,2.8-3.8,7.1-3.8c7.2,0,9.7,5.2,9.7,14.4c0,9.6-3,15-11.1,15c-2.6,0-5.7-0.7-5.7-0.7v12.3h-6.1
			V767.3z M812.8,776.1v14.3c0,0,2.8,0.5,5,0.5c4.3,0,5.6-3.4,5.6-9.8c0-5.5-0.8-9.2-4.6-9.2C815.5,771.9,812.8,776.1,812.8,776.1z"
			/>
		<path d="M832.5,781.9c0-8.7,2.2-15.2,11.4-15.2c3.8,0,11.5,1,11.5,1V788c0,2,0.3,7.5,0.3,7.5l-6.1,0.2c0,0-0.3-2.3-0.3-4.1
			c0,0-2.6,4.6-7.4,4.6C834.9,796.1,832.5,791.3,832.5,781.9z M838.7,781.9c0,5.4,0.8,9.1,4.5,9.1c3.6,0,6-4.8,6-4.8v-13.8
			c0,0-3.4-0.5-4.8-0.5C839.9,771.9,838.7,775.3,838.7,781.9z"/>
		<path d="M860.7,767.3h6l0.1,3.2c0,0,2.8-3.8,7.1-3.8c7.2,0,9.7,5.2,9.7,14.4c0,9.6-3,15-11.1,15c-2.6,0-5.7-0.7-5.7-0.7v12.3h-6.1
			V767.3z M866.8,776.1v14.3c0,0,2.8,0.5,5,0.5c4.3,0,5.6-3.4,5.6-9.8c0-5.5-0.8-9.2-4.6-9.2C869.5,771.9,866.8,776.1,866.8,776.1z"
			/>
		<path d="M905.5,772.7c0,0-5.4-0.8-9.1-0.8c-2,0-3.9,0.9-3.9,3.1c0,2.2,1.2,2.8,4.9,3.7c5.9,1.4,9.3,2.4,9.3,8.4c0,7-4.1,9-10.6,9
			c-4.5,0-9.8-1.4-9.8-1.4l0.3-4.7c0,0,6.2,0.9,8.9,0.9c3.6,0,5-0.8,5-3.3c0-2.3-1.4-2.8-4.9-3.5c-5.9-1.3-9.3-2.9-9.3-8.6
			c0-6.4,4.8-8.8,9.6-8.8c5.2,0,9.8,1.3,9.8,1.3L905.5,772.7z"/>
	</g>
	<path id="XMLID_77_" d="M145.6,395.1C73.8,412,24.4,474.7,24.2,549c-0.2,61.4,0,122.7,0,184.1c0,2,0.2,3.9,0.2,5.9H110v-51.6
		c3,1.5,4.8,2.2,6.7,2.8c33.4,14.5,68.1,17.8,103.4,8.5c79.8-21.2,127.9-98,113.2-180.2C317.9,432.2,231,374.9,145.6,395.1z
		 M180.3,618.6c-38.8,0-70.2-31.7-70.2-70.7c0-39.7,31-70.9,70.9-70.5c38.6,0,69.4,31.4,69.4,70.7
		C250.1,587,218.6,618.6,180.3,618.6z"/>
	<path id="XMLID_76_" d="M685.5,560.5c0-3.8,0-7.6,0-11.4c-0.2-74.4-49.6-137-121.4-153.9c-85.4-20.2-172.3,37.1-187.7,123.4
		c-7.9,44,2.2,86.4,25.6,119.6c20.3,28.8,50.5,50.7,87.6,60.6c6,1.6,12,2.8,17.9,3.6l92.2-84.2l-0.7,69.6c0.2-0.1,0.5-0.2,0.7-0.4
		v51.6h85.6c0-2,0.2-3.9,0.2-5.9C685.5,675.5,685.7,618,685.5,560.5z M529.4,618.6c-27.5,0-51.4-16.2-62.8-39.7
		c-4.6-9.3-7.1-19.8-7.2-30.8c0-39.2,30.8-70.7,69.4-70.7c39.9-0.4,70.9,30.8,70.9,70.5c0,32.9-0.1,70.1-0.1,70.1
		S540.2,618.6,529.4,618.6z"/>
	<path id="XMLID_11_" d="M872.7,653.1c-2.8,0-5.6-0.2-8.2-1.1c-22.1-6.7-39.2-29.9-39.2-52.9c0-77.8,0-208.1,0-208.1h-85.6
		c0,0,0,159.5,0.2,210.9c0,7.2,0.4,14.1,1.5,21c5.6,34.9,24.1,62.7,50.7,85.2c32.5,27.7,70.7,35.1,112.1,30.1c0-28,0-56.4,0-85.2
		C893.3,653.1,883.1,653.3,872.7,653.1z"/>
</g>
<g>
	<circle id="XMLID_10_" cx="521.3" cy="154.1" r="6.2"/>
	<circle id="XMLID_9_" cx="474.6" cy="200.8" r="6.2"/>
	<circle id="XMLID_8_" cx="486.3" cy="165.7" r="6.2"/>
	<circle id="XMLID_7_" cx="199.5" cy="195.8" r="65.6"/>
	<path id="XMLID_75_" d="M563.6,220.9c-0.9-0.6-1.7-1.2-2.4-1.9c-5.2-5.4-24.7-29.5,1-68.3c0.1-0.2,0.1-0.5,0-0.9
		c-0.1-0.6-0.2-1.1-0.3-1.4c-6.3-12.4-24.4-22.3-47.3-22.1c-38.7,0.3-69.8,31.9-69.5,70.6c0.1,14.4,4.6,27.8,12.1,38.9
		c1,1.6,2.3,3.4,3.9,5.3c22.3,26.3,52.7,25.7,61.7,24.9l0,0c0.3,0,0.5-0.1,0.8-0.1c1.2-0.1,1.9-0.2,1.9-0.2l0,0
		C553.7,261.4,581.6,233,563.6,220.9z M521.2,142.4c6.4,0,11.7,5.1,11.8,11.6c0,6.4-5.1,11.7-11.6,11.8c-6.5,0.1-11.7-5.1-11.8-11.6
		C509.5,147.7,514.7,142.4,521.2,142.4z M486.2,154.1c6.4-0.1,11.7,5.1,11.7,11.6c0.1,6.5-5.1,11.7-11.6,11.8
		c-6.5,0-11.7-5.1-11.8-11.6C474.5,159.4,479.7,154.1,486.2,154.1z M474.5,189.1c6.5,0,11.7,5.1,11.8,11.6
		c0.1,6.4-5.1,11.7-11.6,11.8c-6.5,0-11.7-5.1-11.7-11.6C462.9,194.4,468.1,189.1,474.5,189.1z"/>
	<path id="XMLID_2_" d="M902.3,285.1c-32.5-2.2-64.6-6.9-96-15.6c-21.5-5.9-42.5-12.8-56.6-32.1c-2.8-3.9-6.3-7.2-8.9-11.3
		c-16.5-26.7-33-53.1-48.8-80c-11.3-19.5-22.5-39.2-37.7-55.9c-26.3-29.1-57.4-48.8-94-57.5c-4.9-1.2-10-2.1-15.2-2.9
		c-5.1-0.8-10.2-1.3-15.5-1.6c-1-0.1-1.9-0.1-2.9-0.2c-5.1-0.2-10.2-0.3-15.2-0.2c-6.8,0.1-13.4,0.6-19.9,1.5
		c-5.1,0.7-10.2,1.5-15.2,2.6c-6.2,1.3-12.4,3.1-18.3,5.1c-5.2,1.8-10.2,3.8-15.2,6c-22.1,10.1-42,25.2-60,45.4
		c-15.6,17.6-25.4,38.4-36.4,58.7c-22.5,41.6-48.6,80.9-85.4,111.6c-21.2,17.8-45.1,26-72.8,22.1c-49.6-6.9-84.3-57-72.8-106
		c15.4-65.5,94.7-91.1,145.2-46.8c1.1,0.9,2.4,1.7,3.3,2.6c20.2-20.2,40.1-40.3,60.1-60.5c-0.2-0.4-0.9-1.1-1.5-1.7
		C277.7,27.1,224.8,11.3,165,24C73.5,43.8,15.2,131.1,30.1,223.3C47,328.2,157.6,393.7,258.2,358.5c26.2-9.3,49.6-23.2,68.1-44.7
		c9.1-10.6,19.1-20.4,28.8-30.6c2.4-2.4,4.3-5,6.5-7.4c0.7,0.4,0.9,0.4,0.9,0.7c1.3,2.2,2.4,4.3,3.7,6.3
		c32.7,51.8,79.6,81.7,140.9,84.5c65.7,2.8,117.1-25.1,154.6-79.1c2.4-3.5,2.4-5.9-0.2-9.1c-2.8-3.3-5-6.9-7.2-10.6
		c-15-25.1-29.7-50.3-44.7-75.4c-2-3.3-4.1-6.3-6.3-9.5c-0.4,0.2-1.1,0.2-1.5,0.4c0,7.4,1.1,15-0.2,22.3
		C593.3,256,550.8,287,501,280.3c-46.2-6.3-80.6-53.8-72.6-99.7c2.3-13.4,7.4-24.7,14.7-34.1c1.4-1.9,2.9-3.7,4.6-5.4
		c0.9-0.9,1.9-2,3-3.1c0.2-0.2,0.3-0.3,0.5-0.5c2.2-2.2,4.6-4.2,7.1-6.2c5.2-4,10.9-7.6,17-10.8c0.7-0.3,1.4-0.7,2.1-1l10.7-4.2
		c0.6-0.2,1.2-0.4,1.9-0.6c0.6-0.2,1.2-0.3,1.9-0.5c6.3-1.7,12.9-2.7,19.9-3c0.5,0,0.9,0,1.4,0c1.8,0,3.7-0.1,5.7-0.1
		c0.8,0,1.6,0,2.4,0.1l4.7,0.3c0.3,0,0.7,0.1,1,0.1c6.1,0.6,12.3,1.9,18.4,3.7c5.1,1.6,10.2,3.6,15.2,6.1
		c10.4,5.2,20.2,12.5,29,22.3c12.4,13.9,21.5,30.1,30.8,46c15.8,26.7,31.2,53.8,48.3,79.6c24.1,36.4,55.9,63.3,98.9,76.1
		c34,10,68.7,17.1,104.1,21c11.7,1.3,23.4,1.7,35.1,2.6v-84.1C904.2,284.4,903.3,284.4,902.3,285.1z"/>
	<path id="XMLID_1_" d="M744.4,189.2c-0.1,9.6-1.4,27,22.5,48.3c17.2,15.4,34.9,21.7,43.7,24.5c11.7,3.7,24.3,5.7,37.8,5.7
		c-0.9-1.1-1.9-2.2-2.8-3.3c-10.6-11.1-15.6-23.6-15.6-39.5c0.4-68.2,0.2-205.2,0.2-205.2s-81.7,0-85.7,0
		C743.7,105.6,744.7,169.4,744.4,189.2z"/>
</g>
</svg>
