<svg id="Layer_1" data-name="Layer 1" xmlns="http://www.w3.org/2000/svg" viewBox="0 0 679.56 457.99"><defs><style>.cls-1{fill:#2f3774;}.cls-2{fill:#96ebba;}.cls-3{fill:#fc8f79;}.cls-4{fill:#fba47f;}.cls-5{fill:#fb9b7d;}.cls-6{fill:#d3d38f;}.cls-7{fill:#b8dca1;}.cls-8{fill:#f9c187;}.cls-9{fill:#f8de8e;}.cls-10{fill:#f8ee92;}.cls-11{fill:#b0e1a8;}.cls-12{fill:#fc8376;}.cls-13{fill:#efc77a;}.cls-14{fill:#e6cc82;}.cls-15{fill:#fab183;}</style></defs><title>mr-paps</title><path class="cls-1" d="M567.7,123c13.29-2.41,26.72-1.56,40.1-1.58q69-.1,138,0c71.83,0.2,134.7,49.58,151.65,118.9a147.91,147.91,0,0,1,4.32,35.58c-0.09,49.49.61,99-.2,148.48-1,61.37-29.85,106.72-82.9,136.7-22.63,12.79-47.36,18.24-73.44,18.21-123.86-.13-247.72.1-371.58-0.25-15.63,0-31.39.62-47-1.92q-57-9.3-87-58.61a115.89,115.89,0,0,1-16.45-52c-0.55-7.09-.64-14.15-0.65-21.23q0-82.17,0-164.33c0-11.08-.28-22.17-0.05-33.25,1.31-63.52,49.7-117.26,112.77-125.35,13.26-1.7,26.49-1,39.69.7,0.85,0.25,1.69.55,2.55,0.75,42.05,9.64,72.71,33.65,91.62,72.53,4.93,10.13,8,20.88,10.43,31.81,0.5,5.23,1.2,10.45,1.48,15.69a129.63,129.63,0,0,1-14.17,67,135.54,135.54,0,0,1-26.69,35.05c-8,7.47-17.15,13.44-26.47,19.13-9.07,4.46-18.35,8.42-28.17,10.9-30,7.59-59.16,5.26-87.46-7.35-3.91-1.74-3.94-1.72-3.94,2.51q0,35.91,0,71.81a30.83,30.83,0,0,0,.37,3.4c0,7.76-1.07,15.6,1.65,23.16,2.91,17.87,22.76,36,42.23,37,27.4,1.5,54.86.87,82.3,1,2.65,0,2.21-1.11,1.54-2.82-4.5-11.59-7.76-23.5-8.79-35.95,0-10.58.36-21.16-.22-31.73a7.79,7.79,0,0,0,.27-1.89c-1.38-13.14,3.48-24.76,8.92-36.21a114.89,114.89,0,0,1,22.19-31.19c0.69-.57,1.41-1.1,2.08-1.7A109.18,109.18,0,0,1,479.35,345a116,116,0,0,1,44.45-8.15c42.77,0.18,85.54-.15,128.31.25,8.11,0.08,16.39-7.38,17.29-14.22,0.55-4.19,1-8.46-2.82-11.62-0.06-2.24-1.29-3.81-2.91-5.19a19.42,19.42,0,0,0-13.09-4.79c-21.62.06-43.24,0.2-64.86,0-24.57-.28-45.63-9.33-63-26.64-13.25-13.18-21.06-29.32-24.94-47.48-0.21-2.44-.46-4.87-0.64-7.31-2.57-34,10.19-61,37.18-81.44C544.27,130.84,555.67,126.17,567.7,123ZM485.88,464.71a42.53,42.53,0,0,0,8.87,21.74,45.65,45.65,0,0,0,28,19.38,12.83,12.83,0,0,0,5.48,1.48l48.69-.14c8.86,0,17.72.15,26.57,0.14q36.21,0,72.42-.14,35,0.07,69.93.15a71.48,71.48,0,0,0,17.61-2c29.52-7.38,50.45-24.86,60.94-53.68,2.61-7.16,5.38-14.58,5.13-22.53,0.83-16.49.37-33,.26-49.49V317.77q0-14.31,0-28.62c0.39-11.14.3-22.16-3.07-33-3.16-10.2-6.65-20.11-13.73-28.36a110.2,110.2,0,0,0-14.17-15c-7.67-6.68-16.61-11.08-26.3-14.49a79.93,79.93,0,0,0-30.87-4.69,4.76,4.76,0,0,0-.76-0.12q-77.64,0-155.29,0a17.54,17.54,0,0,0-17.47,17.92,18.16,18.16,0,0,0,17.54,18.42c3.6,0.11,7.21-.06,10.82.05,24.93,0.77,50-1.92,74.8,2,0.71,0.25,1.41.56,2.14,0.75a91.66,91.66,0,0,1,38.87,21.3c6.12,5.64,10.88,12.3,16,18.73,2,4.27,4.14,8.51,6.07,12.83,6.49,14.5,7.41,29.8,6.38,45.37A105.81,105.81,0,0,1,728,367.14c-0.76,1-1.56,2-2.29,3.08-12.83,18.68-30.29,30.82-52.08,36.84-10.41,2.88-21.1,2.72-31.77,2.89h-49.5c-24.69,0-49.38-.42-74.05,0-15.23.29-29.68,12.72-32.39,27.45A85,85,0,0,0,485.88,464.71Zm-192-213.78c-0.06,32.21,25.92,58.55,57.92,58.72,31.56,0.17,58-26.27,58.09-58.16,0.13-32.55-25.58-58.86-57.53-58.89A57.94,57.94,0,0,0,293.85,250.94Z" transform="translate(-222.46 -121.25)"/><path class="cls-2" d="M479.6,228.08c-2.48-10.93-5.5-21.67-10.43-31.81-18.91-38.88-49.56-62.9-91.62-72.53-0.86-.2-1.7-0.5-2.55-0.75,2.18,0,4.37-.11,6.55-0.11l185,0a9.74,9.74,0,0,1,1.15.13c-12,3.21-23.43,7.87-33.41,15.43-27,20.44-39.75,47.46-37.18,81.44,0.18,2.44.43,4.87,0.64,7.31a9.64,9.64,0,0,1-4.42,1C488.76,228,484.18,228.08,479.6,228.08Z" transform="translate(-222.46 -121.25)"/><path class="cls-3" d="M829.82,379.65c0.11,16.5.57,33-.26,49.49-2.14.86-4.36,1.57-6.41,2.61-10.89,5.57-21.91,10.86-32.71,16.63-15.56,8.31-31.54,15.81-47.19,24-21.93,11.42-44.13,22.3-66.23,33.38a1.77,1.77,0,0,0-1.07,1.44q-36.21.08-72.42,0.14c-8.86,0-17.72-.09-26.57-0.14a1.63,1.63,0,0,1,1.07-1.44c11.14-4.43,21.57-10.3,32.16-15.84,15.28-8,30.9-15.32,46.14-23.41,16.82-8.93,34.13-16.92,50.95-25.88,14.76-7.87,29.91-15,44.75-22.72,24.2-12.61,48.67-24.69,73-37A8.3,8.3,0,0,1,829.82,379.65Z" transform="translate(-222.46 -121.25)"/><path class="cls-4" d="M829.82,317.77q0,15.47,0,30.94c-1.3.53-2.66,1-3.9,1.6-9.95,5.13-20,10-29.92,15.25-16.25,8.64-33,16.34-49.22,25-15.44,8.23-31.35,15.55-46.8,23.79-15.67,8.36-31.82,15.77-47.49,24.13-15.44,8.23-31.3,15.66-46.81,23.77-22.12,11.57-44.52,22.62-66.8,33.88-4.37,2.21-8.76,4.36-13.13,6.56-1.35.68-3,1.15-3,3.14a45.65,45.65,0,0,1-28-19.38c8.45-3.48,16.41-7.94,24.5-12.16,16.77-8.74,33.82-16.95,50.61-25.68,22.84-11.88,45.91-23.29,68.89-34.9,1.6-.81,3.47-1.37,3.17-3.77,10.66-.17,21.35,0,31.77-2.89,21.79-6,39.24-18.16,52.08-36.84,0.72-1.05,1.52-2.05,2.29-3.08a7.62,7.62,0,0,0,5.18-1c7.63-4,15.35-7.86,23-11.82,22.87-11.84,45.92-23.32,68.91-34.92C826.61,318.62,828,317.6,829.82,317.77Z" transform="translate(-222.46 -121.25)"/><path class="cls-5" d="M522.78,505.84c0-2,1.61-2.46,3-3.14,4.37-2.2,8.76-4.36,13.13-6.56,22.28-11.26,44.68-22.31,66.8-33.88,15.51-8.11,31.37-15.54,46.81-23.77,15.68-8.36,31.83-15.78,47.49-24.13,15.45-8.24,31.36-15.55,46.8-23.79,16.24-8.66,33-16.37,49.22-25,9.89-5.26,20-10.12,29.92-15.25,1.24-.64,2.6-1.07,3.9-1.6q0,15.47,0,30.94a8.3,8.3,0,0,0-4.77,1.23c-24.35,12.32-48.83,24.4-73,37-14.84,7.74-30,14.86-44.75,22.72-16.82,9-34.13,16.95-50.95,25.88-15.24,8.09-30.86,15.42-46.14,23.41-10.6,5.54-21,11.42-32.16,15.84a1.63,1.63,0,0,0-1.07,1.44l-48.69.14A12.83,12.83,0,0,1,522.78,505.84Z" transform="translate(-222.46 -121.25)"/><path class="cls-6" d="M294.55,446.2a30.85,30.85,0,0,1-.37-3.4q0-35.91,0-71.81c0-4.23,0-4.25,3.94-2.51,28.3,12.61,57.48,14.93,87.46,7.35,9.81-2.48,19.1-6.45,28.17-10.9,0.35,2.15,2.05,1.55,3.34,1.56,7.45,0,14.9.06,22.35,0a10.36,10.36,0,0,1,5.19,1.11,114.89,114.89,0,0,0-22.19,31.19c-5.44,11.45-10.3,23.06-8.92,36.21a7.82,7.82,0,0,1-.27,1.89H301.53c-1,0-2.06,0-3.09,0-2.11-.07-2.92,1-3.06,3S296.27,444.3,294.55,446.2Z" transform="translate(-222.46 -121.25)"/><path class="cls-7" d="M444.64,367.59a10.36,10.36,0,0,0-5.19-1.11c-7.45.06-14.9,0-22.35,0-1.29,0-3,.59-3.34-1.56,9.32-5.69,18.43-11.66,26.47-19.13a135.54,135.54,0,0,0,26.69-35.05,21.39,21.39,0,0,0,6.45.88q93.91,0,187.82,0c1.79,0,3.59-.2,5.38-0.31,3.84,3.17,3.37,7.43,2.82,11.62-0.89,6.83-9.17,14.29-17.29,14.22-42.77-.4-85.54-0.07-128.31-0.25A116,116,0,0,0,479.35,345a109.18,109.18,0,0,0-32.63,20.87C446.05,366.48,445.33,367,444.64,367.59Z" transform="translate(-222.46 -121.25)"/><path class="cls-8" d="M813,227.77c7.07,8.25,10.56,18.16,13.73,28.36,3.37,10.87,3.47,21.89,3.07,33-1.8-.17-3.2.85-4.68,1.6Q786,310.48,746.89,330.26c-2,1-3.91,2.09-6.12.61,1-15.57.11-30.87-6.38-45.37-1.93-4.32-4-8.55-6.07-12.83,0.46-1.22,1.61-1.58,2.63-2.11,9.47-4.87,18.91-9.79,28.41-14.59,13.29-6.71,26.73-13.14,39.89-20.1C803.93,233.4,809.2,231.77,813,227.77Z" transform="translate(-222.46 -121.25)"/><path class="cls-9" d="M813,227.77c-3.82,4-9.09,5.62-13.77,8.1-13.16,7-26.6,13.39-39.89,20.1-9.5,4.8-18.94,9.72-28.41,14.59-1,.52-2.17.89-2.63,2.11-5.1-6.43-9.86-13.09-16-18.72a91.66,91.66,0,0,0-38.87-21.3c-0.73-.2-1.43-0.5-2.14-0.75a7.9,7.9,0,0,1,1.18-.94c9.52-5,19-10.16,28.6-15.06,12.36-6.31,24.81-12.43,37.22-18.65,1.56-.78,3.53-1.23,3.37-3.64a79.93,79.93,0,0,1,30.87,4.69c9.69,3.41,18.63,7.81,26.3,14.49A110.2,110.2,0,0,1,813,227.77Z" transform="translate(-222.46 -121.25)"/><path class="cls-10" d="M741.68,193.61c0.17,2.4-1.8,2.85-3.37,3.64-12.41,6.22-24.86,12.34-37.22,18.65-9.6,4.9-19.08,10-28.6,15.06a7.9,7.9,0,0,0-1.18.94c-24.84-3.94-49.87-1.25-74.8-2-3.6-.11-7.21.05-10.82-0.05a18.16,18.16,0,0,1-17.54-18.42,17.54,17.54,0,0,1,17.47-17.92q77.64-.13,155.29,0A4.76,4.76,0,0,1,741.68,193.61Z" transform="translate(-222.46 -121.25)"/><path class="cls-11" d="M666.57,311.27c-1.79.11-3.59,0.3-5.38,0.31q-93.91,0-187.82,0a21.39,21.39,0,0,1-6.45-.88,129.63,129.63,0,0,0,14.17-67c-0.28-5.24-1-10.46-1.48-15.69,4.58,0,9.16,0,13.73,0a9.64,9.64,0,0,0,4.42-1c3.88,18.16,11.69,34.29,24.94,47.48,17.4,17.31,38.45,26.36,63,26.64,21.62,0.24,43.24.1,64.86,0a19.42,19.42,0,0,1,13.09,4.79C665.28,307.46,666.52,309,666.57,311.27Z" transform="translate(-222.46 -121.25)"/><path class="cls-12" d="M675.94,507.18a1.77,1.77,0,0,1,1.07-1.44c22.1-11.08,44.31-22,66.23-33.38,15.65-8.15,31.63-15.65,47.19-24,10.8-5.77,21.82-11.06,32.71-16.63,2-1,4.27-1.75,6.41-2.61,0.25,7.95-2.52,15.37-5.13,22.53C813.93,480.49,793,498,763.48,505.35a71.48,71.48,0,0,1-17.61,2Q710.91,507.21,675.94,507.18Z" transform="translate(-222.46 -121.25)"/><path class="cls-13" d="M413.48,468.6c1,12.45,4.29,24.35,8.79,35.95,0.67,1.72,1.11,2.83-1.54,2.82-27.44-.12-54.9.52-82.3-1-19.48-1.07-39.33-19.15-42.23-37,2.17-.1,4.23-0.83,6.46-0.82Q358.07,468.65,413.48,468.6Z" transform="translate(-222.46 -121.25)"/><path class="cls-14" d="M413.48,468.6q-55.41,0-110.82-.06c-2.23,0-4.29.72-6.46,0.82-2.72-7.57-1.7-15.4-1.65-23.16,1.72-1.89.68-4.19,0.82-6.28s0.95-3.11,3.06-3c1,0,2.06,0,3.09,0H413.26C413.84,447.44,413.48,458,413.48,468.6Z" transform="translate(-222.46 -121.25)"/><path class="cls-15" d="M641.91,409.95c0.3,2.4-1.57,3-3.17,3.77-23,11.61-46,23-68.89,34.9-16.79,8.73-33.84,16.94-50.61,25.68-8.09,4.22-16.05,8.67-24.5,12.16a42.52,42.52,0,0,1-8.87-21.74,9.57,9.57,0,0,0,5.52-1.28q17.11-8.83,34.28-17.53,31.77-16.12,63.57-32.19c1.59-.81,3.46-1.36,3.16-3.76h49.5Z" transform="translate(-222.46 -121.25)"/><path class="cls-8" d="M592.41,410c0.3,2.39-1.57,3-3.16,3.76q-31.79,16.09-63.57,32.19-17.17,8.71-34.28,17.53a9.57,9.57,0,0,1-5.52,1.28,85,85,0,0,1,.08-27.27c2.72-14.73,17.16-27.16,32.39-27.45C543,409.53,567.72,409.92,592.41,410Z" transform="translate(-222.46 -121.25)"/><path class="cls-15" d="M740.77,330.87c2.21,1.48,4.12.4,6.12-.61q39.11-19.79,78.25-39.51c1.48-.74,2.88-1.77,4.68-1.6v28.62c-1.8-.18-3.21.85-4.68,1.6-23,11.6-46,23.09-68.91,34.92-7.66,4-15.37,7.81-23,11.82a7.62,7.62,0,0,1-5.18,1A105.84,105.84,0,0,0,740.77,330.87Z" transform="translate(-222.46 -121.25)"/></svg>