<svg version="1.1" id="Layer_1" xmlns="http://www.w3.org/2000/svg" x="0" y="0" viewBox="-398 266.6 162 28.4" xml:space="preserve"><style>.st0{fill:#fff}</style><g id="XMLID_54_"><path class="st0" d="M-246.4 277c0-.5-.1-1.1-.2-1.6-.3-1.2-.9-2.2-1.7-3.1-.6-.6-1.2-1.1-1.9-1.5-1-.5-2.1-.8-3.3-.8H-261.1c-.2 0-.4 0-.5.1-.4.1-.8.3-1.2.5-.1.1-.2.2-.4.2h-.1c-1.2.9-1.8 2.1-1.6 3.7v.3c.2.8.5 1.6 1.1 2.2.8.8 1.7 1.2 2.9 1.2h3c.2 0 .4.1.6.2.1.1.1.1.1.2.2.1.2.3.1.5 0 .3-.4.7-.8.6h-5.8c-.7 0-1.4.1-2 .4l-.6.3c-.3.2-.6.4-.9.7l-.1.1c-.4.4-.8.9-1 1.4s-.5 1.1-.4 1.6v1.5c0 .6.2 1.1.4 1.6 0 .1.1.1-.1.1h-3.7c-.9 0-1.8-.9-1.9-1.7-.1-.3-.1-.7-.1-1.1v-3.5c0-.2 0-.2.2-.1 1.3.6 2.6.7 4 .3.4-.1.9-.3 1.3-.5.4-.3.8-.5 1.2-.9.5-.5.9-1 1.2-1.6.5-.9.7-2 .6-3 0-.2 0-.5-.1-.7-.1-.5-.3-1-.5-1.4 0-.1-.1-.1-.1-.2-.7-1.2-1.6-2.1-2.8-2.7-.4-.2-.8-.3-1.3-.4h-.4c-.5-.1-1-.1-1.5 0-.6.1-1.2.3-1.7.5-.7.3-1.3.7-1.8 1.3-1 1-1.6 2.4-1.6 3.9v10c.1.8.3 1.6.8 2.4.9 1.5 2.2 2.4 4 2.7.7.1 1.4.1 2.1.1h16.9c1.2 0 2.3-.2 3.3-.8.7-.4 1.3-.9 1.9-1.4l.1-.1c1.2-1.2 1.8-2.8 1.9-4.8V277zm-25-3.8c1.5 0 2.6 1.2 2.6 2.7s-1.2 2.7-2.6 2.6c-1.5 0-2.6-1.2-2.6-2.7 0-1.4 1.2-2.6 2.6-2.6zm21.5 11.8c-.5 1.3-1.4 2.1-2.8 2.4-.3.1-.5.1-.8.1h-9.9c-.1 0-.2 0-.3-.1-.5-.1-1-.4-1.3-.9-.2-.3-.4-.6-.4-1-.1-.4-.1-.8 0-1.2.1-.7.8-1.2 1.5-1.3H-258.2c.5 0 1 0 1.4-.1l.9-.3c.6-.3 1.1-.8 1.5-1.3 0-.1.1-.1.1-.1.3-.5.5-1.1.6-1.7 0-.7 0-1.4-.3-2.1l-.3-.6c-.2-.3-.5-.6-.7-.9-.3-.3-.6-.5-.9-.6-.3-.1-.6-.3-.9-.3h-.1c-1.1-.2-2.3-.1-3.4-.1h-.5c-.5 0-.8-.4-.8-.8s.4-.8.8-.8h7.1c.5 0 1 .1 1.4.2.4.2.8.4 1.2.7.2.2.5.4.6.7.3.4.5.8.6 1.3.2.5.2 1 .1 1.5V284.1c.1.3 0 .6-.1.9z" id="XMLID_56_"/></g><path class="st0" d="M-283.8 267.7s0 .4.1 1.2c0 .7.1 1.8.2 3.1 0 1.3.1 2.7.2 4.3 0 1.6 0 3.3.1 5 0 1.7 0 3.4-.1 5 0 1.6-.1 3.1-.2 4.3 0 1.3-.1 2.3-.2 3.1-.1.7-.1 1.2-.1 1.2s0-.4-.1-1.2c0-.7-.1-1.8-.2-3.1 0-1.3-.1-2.7-.2-4.3 0-1.6 0-3.3-.1-5 0-1.7 0-3.4.1-5 0-1.6.1-3.1.2-4.3 0-1.3.1-2.3.2-3.1 0-.8.1-1.2.1-1.2z" id="XMLID_63_"/><circle class="st0" cx="-332.1" cy="280.2" r="2.5"/><circle class="st0" cx="-311.2" cy="280" r="2.8"/><circle class="st0" cx="-385.5" cy="281.3" r="2.7"/><path class="st0" d="M-364.1 282.8l-.1-.1c-.3-.3-1.5-1.7.1-4v-.1-.1c-.4-.7-1.4-1.3-2.8-1.3-2.3 0-4.1 1.9-4.1 4.1 0 .8.3 1.6.7 2.3.1.1.1.2.2.3 1.3 1.5 3.1 1.5 3.6 1.5h.1c1.7-.3 3.3-1.9 2.3-2.6zm-2.5-4.7c.4 0 .7.3.7.7 0 .4-.3.7-.7.7-.4 0-.7-.3-.7-.7 0-.3.3-.7.7-.7zm-2.1.7c.4 0 .7.3.7.7 0 .4-.3.7-.7.7-.4 0-.7-.3-.7-.7.1-.4.4-.7.7-.7zm-.6 2.1c.4 0 .7.3.7.7 0 .4-.3.7-.7.7-.4 0-.7-.3-.7-.7 0-.4.3-.7.7-.7z"/><path class="st0" d="M-344.2 286.5c-1.9-.1-3.8-.4-5.6-.9-1.3-.3-2.5-.8-3.3-1.9-.2-.2-.4-.4-.5-.7-1-1.6-1.9-3.1-2.9-4.7-.7-1.1-1.3-2.3-2.2-3.3-1.5-1.7-3.4-2.9-5.5-3.4-.3-.1-.6-.1-.9-.2-.3 0-.6-.1-.9-.1h-1.1c-.4 0-.8 0-1.2.1-.3 0-.6.1-.9.2-.4.1-.7.2-1.1.3-.3.1-.6.2-.9.4-1.3.6-2.5 1.5-3.5 2.7-.9 1-1.5 2.3-2.1 3.4-1.3 2.4-2.9 4.7-5 6.6-1.2 1-2.6 1.5-4.3 1.3-2.9-.4-5-3.3-4.3-6.2.9-3.8 5.6-5.3 8.5-2.7l.2.2c1.2-1.2 2.4-2.4 3.5-3.6l-.1-.1c-2.6-2.4-5.7-3.4-9.3-2.6-5.4 1.2-8.8 6.3-7.9 11.7 1 6.2 7.5 10 13.4 7.9 1.5-.5 2.9-1.4 4-2.6.5-.6 1.1-1.2 1.7-1.8l.4-.4h.1c.1.1.1.3.2.4 1.9 3 4.7 4.8 8.3 5 3.9.2 6.9-1.5 9.1-4.6.1-.2.1-.3 0-.5-.2-.2-.3-.4-.4-.6-.9-1.5-1.7-3-2.6-4.4-.1-.2-.2-.4-.4-.6h-.1c0 .4.1.9 0 1.3-.5 2.9-3 4.7-5.9 4.3-2.7-.4-4.7-3.2-4.3-5.9.1-.8.4-1.4.9-2l.3-.3.2-.2c.1-.1.3-.2.4-.4.3-.2.6-.4 1-.6 0 0 .1 0 .1-.1l.6-.2h.2c.4-.1.8-.2 1.2-.2h.9c.4 0 .7.1 1.1.2.3.1.6.2.9.4.6.3 1.2.7 1.7 1.3.7.8 1.3 1.8 1.8 2.7.9 1.6 1.8 3.2 2.8 4.7 1.4 2.1 3.3 3.7 5.8 4.5 2 .6 4 1 6.1 1.2.7.1 1.4.1 2.1.2v-4.9c-.2-.3-.3-.3-.3-.3zM-334.2 271.1c-4.2 1-7.1 4.7-7.1 9V291.2h5v-3c.2.1.3.1.4.2 2 .9 4 1 6.1.5 4.7-1.2 7.5-5.8 6.6-10.6-.8-5-5.9-8.3-11-7.2zm2.1 13.2c-2.3 0-4.1-1.9-4.1-4.1 0-2.3 1.8-4.2 4.2-4.1 2.3 0 4.1 1.8 4.1 4.1-.1 2.2-2 4.1-4.2 4.1zM-302.2 280.9v-.7c0-4.4-2.9-8-7.1-9-5-1.2-10.1 2.2-11 7.2-.5 2.6.1 5.1 1.5 7 1.2 1.7 3 3 5.1 3.6.4.1.7.2 1.1.2l5.4-4.9v7.1h5v-.3-10.2zm-9.2 3.4c-1.6 0-3-1-3.7-2.3-.3-.5-.4-1.2-.4-1.8 0-2.3 1.8-4.1 4.1-4.1s4.2 1.8 4.2 4.1v4.1h-4.2zM-291.2 286.3c-.2 0-.3 0-.5-.1-1.3-.4-2.3-1.8-2.3-3.1v-12.2h-5v12.3c0 .4 0 .8.1 1.2.3 2 1.4 3.7 3 5 1.9 1.6 4.1 2.1 6.6 1.8v-5c-.7.1-1.3.1-1.9.1z"/><path class="st0" d="M-353.5 280.9c0 .6-.1 1.6 1.3 2.8 1 .9 2 1.3 2.6 1.4.7.2 1.4.3 2.2.3l-.2-.2c-.6-.6-.9-1.4-.9-2.3v-12h-5v10z"/></svg>