<?xml version="1.0" encoding="utf-8"?>
<!-- Generator: Adobe Illustrator 19.0.0, SVG Export Plug-In . SVG Version: 6.00 Build 0)  -->
<svg version="1.1" id="Layer_1" xmlns="http://www.w3.org/2000/svg" xmlns:xlink="http://www.w3.org/1999/xlink" x="0px" y="0px"
	 viewBox="-398 266.6 162 28.4" style="enable-background:new -398 266.6 162 28.4;" xml:space="preserve">
<style type="text/css">
	.st0{fill:#FFFFFF;}
</style>
<g id="XMLID_54_">
	<g id="XMLID_56_">
		<path class="st0" d="M-246.4,277c0-0.5-0.1-1.1-0.2-1.6c-0.3-1.2-0.9-2.2-1.7-3.1c-0.6-0.6-1.2-1.1-1.9-1.5
			c-1-0.5-2.1-0.8-3.3-0.8c-0.8,0-1.6,0-2.4,0h-1.3c-0.9,0-1.7,0-2.6,0c-0.4,0-0.9,0-1.3,0c-0.2,0-0.4,0-0.5,0.1
			c-0.4,0.1-0.8,0.3-1.2,0.5c-0.1,0.1-0.2,0.2-0.4,0.2c0,0,0,0-0.1,0c-1.2,0.9-1.8,2.1-1.6,3.7c0,0.1,0,0.2,0,0.3
			c0.2,0.8,0.5,1.6,1.1,2.2c0.8,0.8,1.7,1.2,2.9,1.2c1,0,2,0,3,0c0.2,0,0.4,0.1,0.6,0.2c0.1,0.1,0.1,0.1,0.1,0.2
			c0.2,0.1,0.2,0.3,0.1,0.5c0,0.3-0.4,0.7-0.8,0.6c-1.9,0-3.9,0-5.8,0c-0.7,0-1.4,0.1-2,0.4c-0.2,0.1-0.4,0.2-0.6,0.3
			c-0.3,0.2-0.6,0.4-0.9,0.7l-0.1,0.1c-0.4,0.4-0.8,0.9-1,1.4s-0.5,1.1-0.4,1.6v0.1c0,0.5,0,1,0,1.4c0,0.6,0.2,1.1,0.4,1.6
			c0,0.1,0.1,0.1-0.1,0.1c-1.2,0-2.5,0-3.7,0c-0.9,0-1.8-0.9-1.9-1.7c-0.1-0.3-0.1-0.7-0.1-1.1c0-0.1,0-0.1,0-0.2v-3.3
			c0-0.2,0-0.2,0.2-0.1c1.3,0.6,2.6,0.7,4,0.3c0.4-0.1,0.9-0.3,1.3-0.5c0.4-0.3,0.8-0.5,1.2-0.9c0.5-0.5,0.9-1,1.2-1.6l0,0
			c0.5-0.9,0.7-2,0.6-3c0-0.2,0-0.5-0.1-0.7c-0.1-0.5-0.3-1-0.5-1.4c0-0.1-0.1-0.1-0.1-0.2c-0.7-1.2-1.6-2.1-2.8-2.7
			c-0.4-0.2-0.8-0.3-1.3-0.4h-0.1c-0.1,0-0.2,0-0.3,0c-0.5-0.1-1-0.1-1.5,0c-0.6,0.1-1.2,0.3-1.7,0.5c-0.7,0.3-1.3,0.7-1.8,1.3l0,0
			c-1,1-1.6,2.4-1.6,3.9c0,0.5,0,1,0,1.5v7.5c0,0.3,0,0.6,0,1c0.1,0.8,0.3,1.6,0.8,2.4c0.9,1.5,2.2,2.4,4,2.7
			c0.7,0.1,1.4,0.1,2.1,0.1c5.6,0,11.3,0,16.9,0c1.2,0,2.3-0.2,3.3-0.8c0.7-0.4,1.3-0.9,1.9-1.4c0,0,0,0,0.1-0.1
			c1.2-1.2,1.8-2.8,1.9-4.8C-246.4,281.5-246.4,279.3-246.4,277z M-271.4,273.2c1.5,0,2.6,1.2,2.6,2.7s-1.2,2.7-2.6,2.6
			c-1.5,0-2.6-1.2-2.6-2.7l0,0l0,0C-274,274.4-272.8,273.2-271.4,273.2z M-249.9,285c-0.5,1.3-1.4,2.1-2.8,2.4
			c-0.3,0.1-0.5,0.1-0.8,0.1c-0.8,0-1.6,0-2.4,0c-0.3,0-0.5,0-0.8,0c-1.1,0-2.2,0-3.3,0c-0.4,0-0.8,0-1.2,0h-2.2
			c-0.1,0-0.2,0-0.3-0.1c-0.5-0.1-1-0.4-1.3-0.9c-0.2-0.3-0.4-0.6-0.4-1c-0.1-0.4-0.1-0.8,0-1.2c0.1-0.7,0.8-1.2,1.5-1.3
			c1.1,0,2.2,0,3.4,0h2.3c0.5,0,1,0,1.4-0.1c0.3-0.1,0.6-0.2,0.9-0.3c0.6-0.3,1.1-0.8,1.5-1.3c0-0.1,0.1-0.1,0.1-0.1
			c0.3-0.5,0.5-1.1,0.6-1.7c0-0.7,0-1.4-0.3-2.1c-0.1-0.2-0.2-0.4-0.3-0.6c-0.2-0.3-0.5-0.6-0.7-0.9c-0.3-0.3-0.6-0.5-0.9-0.6
			c-0.3-0.1-0.6-0.3-0.9-0.3h-0.1c-1.1-0.2-2.3-0.1-3.4-0.1c-0.2,0-0.3,0-0.5,0c-0.5,0-0.8-0.4-0.8-0.8l0,0c0-0.4,0.4-0.8,0.8-0.8
			h7.1l0,0c0.5,0,1,0.1,1.4,0.2c0.4,0.2,0.8,0.4,1.2,0.7c0.2,0.2,0.5,0.4,0.6,0.7c0.3,0.4,0.5,0.8,0.6,1.3c0.2,0.5,0.2,1,0.1,1.5
			v4.1c0,0.8,0,1.5,0,2.3C-249.7,284.4-249.8,284.7-249.9,285z"/>
	</g>
</g>
<g id="XMLID_63_">
	<path class="st0" d="M-283.8,267.7c0,0,0,0.4,0.1,1.2c0,0.7,0.1,1.8,0.2,3.1c0,1.3,0.1,2.7,0.2,4.3c0,1.6,0,3.3,0.1,5
		c0,1.7,0,3.4-0.1,5c0,1.6-0.1,3.1-0.2,4.3c0,1.3-0.1,2.3-0.2,3.1c-0.1,0.7-0.1,1.2-0.1,1.2s0-0.4-0.1-1.2c0-0.7-0.1-1.8-0.2-3.1
		c0-1.3-0.1-2.7-0.2-4.3c0-1.6,0-3.3-0.1-5c0-1.7,0-3.4,0.1-5c0-1.6,0.1-3.1,0.2-4.3c0-1.3,0.1-2.3,0.2-3.1
		C-283.9,268.1-283.8,267.7-283.8,267.7z"/>
</g>
<g>
	<g>
		<circle class="st0" cx="-332.1" cy="280.2" r="2.5"/>
	</g>
	<g>
		<circle class="st0" cx="-311.2" cy="280" r="2.8"/>
	</g>
	<g>
		<circle class="st0" cx="-385.5" cy="281.3" r="2.7"/>
	</g>
	<g>
		<path class="st0" d="M-364.1,282.8c0,0-0.1-0.1-0.1-0.1c-0.3-0.3-1.5-1.7,0.1-4c0,0,0,0,0-0.1c0,0,0-0.1,0-0.1
			c-0.4-0.7-1.4-1.3-2.8-1.3c-2.3,0-4.1,1.9-4.1,4.1c0,0.8,0.3,1.6,0.7,2.3c0.1,0.1,0.1,0.2,0.2,0.3c1.3,1.5,3.1,1.5,3.6,1.5l0,0
			c0,0,0,0,0,0c0.1,0,0.1,0,0.1,0s0,0,0,0C-364.7,285.1-363.1,283.5-364.1,282.8z M-366.6,278.1c0.4,0,0.7,0.3,0.7,0.7
			c0,0.4-0.3,0.7-0.7,0.7c-0.4,0-0.7-0.3-0.7-0.7C-367.3,278.5-367,278.1-366.6,278.1z M-368.7,278.8c0.4,0,0.7,0.3,0.7,0.7
			c0,0.4-0.3,0.7-0.7,0.7c-0.4,0-0.7-0.3-0.7-0.7C-369.3,279.1-369,278.8-368.7,278.8z M-369.3,280.9c0.4,0,0.7,0.3,0.7,0.7
			c0,0.4-0.3,0.7-0.7,0.7c-0.4,0-0.7-0.3-0.7-0.7C-370,281.2-369.7,280.9-369.3,280.9z"/>
	</g>
	<g>
		<path class="st0" d="M-344.2,286.5c-1.9-0.1-3.8-0.4-5.6-0.9c-1.3-0.3-2.5-0.8-3.3-1.9c-0.2-0.2-0.4-0.4-0.5-0.7
			c-1-1.6-1.9-3.1-2.9-4.7c-0.7-1.1-1.3-2.3-2.2-3.3c-1.5-1.7-3.4-2.9-5.5-3.4c-0.3-0.1-0.6-0.1-0.9-0.2c-0.3,0-0.6-0.1-0.9-0.1
			c-0.1,0-0.1,0-0.2,0c-0.3,0-0.6,0-0.9,0c-0.4,0-0.8,0-1.2,0.1c-0.3,0-0.6,0.1-0.9,0.2c-0.4,0.1-0.7,0.2-1.1,0.3
			c-0.3,0.1-0.6,0.2-0.9,0.4c-1.3,0.6-2.5,1.5-3.5,2.7c-0.9,1-1.5,2.3-2.1,3.4c-1.3,2.4-2.9,4.7-5,6.6c-1.2,1-2.6,1.5-4.3,1.3
			c-2.9-0.4-5-3.3-4.3-6.2c0.9-3.8,5.6-5.3,8.5-2.7c0.1,0.1,0.1,0.1,0.2,0.2c1.2-1.2,2.4-2.4,3.5-3.6c0,0-0.1-0.1-0.1-0.1
			c-2.6-2.4-5.7-3.4-9.3-2.6c-5.4,1.2-8.8,6.3-7.9,11.7c1,6.2,7.5,10,13.4,7.9c1.5-0.5,2.9-1.4,4-2.6c0.5-0.6,1.1-1.2,1.7-1.8
			c0.1-0.1,0.3-0.3,0.4-0.4c0,0,0.1,0,0.1,0c0.1,0.1,0.1,0.3,0.2,0.4c1.9,3,4.7,4.8,8.3,5c3.9,0.2,6.9-1.5,9.1-4.6
			c0.1-0.2,0.1-0.3,0-0.5c-0.2-0.2-0.3-0.4-0.4-0.6c-0.9-1.5-1.7-3-2.6-4.4c-0.1-0.2-0.2-0.4-0.4-0.6c0,0-0.1,0-0.1,0
			c0,0.4,0.1,0.9,0,1.3c-0.5,2.9-3,4.7-5.9,4.3c-2.7-0.4-4.7-3.2-4.3-5.9c0.1-0.8,0.4-1.4,0.9-2c0.1-0.1,0.2-0.2,0.3-0.3
			c0.1-0.1,0.1-0.1,0.2-0.2c0,0,0,0,0,0c0.1-0.1,0.3-0.2,0.4-0.4c0.3-0.2,0.6-0.4,1-0.6c0,0,0.1,0,0.1-0.1l0.6-0.2c0,0,0.1,0,0.1,0
			c0,0,0.1,0,0.1,0c0.4-0.1,0.8-0.2,1.2-0.2c0,0,0.1,0,0.1,0c0.1,0,0.2,0,0.3,0c0,0,0.1,0,0.1,0l0.3,0c0,0,0,0,0.1,0
			c0.4,0,0.7,0.1,1.1,0.2c0.3,0.1,0.6,0.2,0.9,0.4c0.6,0.3,1.2,0.7,1.7,1.3c0.7,0.8,1.3,1.8,1.8,2.7c0.9,1.6,1.8,3.2,2.8,4.7
			c1.4,2.1,3.3,3.7,5.8,4.5c2,0.6,4,1,6.1,1.2c0.7,0.1,1.4,0.1,2.1,0.2v-4.9C-344.1,286.5-344.2,286.5-344.2,286.5z"/>
	</g>
	<g>
		<path class="st0" d="M-334.2,271.1c-4.2,1-7.1,4.7-7.1,9c0,3.6,0,7.2,0,10.8c0,0.1,0,0.2,0,0.3h5v-3c0.2,0.1,0.3,0.1,0.4,0.2
			c2,0.9,4,1,6.1,0.5c4.7-1.2,7.5-5.8,6.6-10.6C-324,273.3-329.1,270-334.2,271.1z M-332.1,284.3c-2.3,0-4.1-1.9-4.1-4.1
			c0-2.3,1.8-4.2,4.2-4.1c2.3,0,4.1,1.8,4.1,4.1C-328,282.4-329.9,284.3-332.1,284.3z"/>
	</g>
	<g>
		<path class="st0" d="M-302.2,280.9c0-0.2,0-0.4,0-0.7c0-4.4-2.9-8-7.1-9c-5-1.2-10.1,2.2-11,7.2c-0.5,2.6,0.1,5.1,1.5,7
			c1.2,1.7,3,3,5.1,3.6c0.4,0.1,0.7,0.2,1.1,0.2l5.4-4.9l0,4.1c0,0,0,0,0,0v3h5c0-0.1,0-0.2,0-0.3
			C-302.2,287.6-302.2,284.2-302.2,280.9z M-311.4,284.3c-1.6,0-3-1-3.7-2.3c-0.3-0.5-0.4-1.2-0.4-1.8c0-2.3,1.8-4.1,4.1-4.1
			c2.3,0,4.2,1.8,4.2,4.1c0,1.9,0,4.1,0,4.1S-310.7,284.3-311.4,284.3z"/>
	</g>
	<g>
		<path class="st0" d="M-291.2,286.3c-0.2,0-0.3,0-0.5-0.1c-1.3-0.4-2.3-1.8-2.3-3.1c0-4.6,0-12.2,0-12.2h-5c0,0,0,9.3,0,12.3
			c0,0.4,0,0.8,0.1,1.2c0.3,2,1.4,3.7,3,5c1.9,1.6,4.1,2.1,6.6,1.8c0-1.6,0-3.3,0-5C-290,286.3-290.6,286.3-291.2,286.3z"/>
	</g>
	<g>
		<path class="st0" d="M-353.5,280.9c0,0.6-0.1,1.6,1.3,2.8c1,0.9,2,1.3,2.6,1.4c0.7,0.2,1.4,0.3,2.2,0.3c-0.1-0.1-0.1-0.1-0.2-0.2
			c-0.6-0.6-0.9-1.4-0.9-2.3c0-4,0-12,0-12s-4.8,0-5,0C-353.5,276-353.5,279.7-353.5,280.9z"/>
	</g>
</g>
</svg>
