<?xml version="1.0" encoding="utf-8"?>
<!-- Generator: Adobe Illustrator 19.0.0, SVG Export Plug-In . SVG Version: 6.00 Build 0)  -->
<svg version="1.1" id="Layer_1" xmlns="http://www.w3.org/2000/svg" xmlns:xlink="http://www.w3.org/1999/xlink" x="0px" y="0px"
	 viewBox="0 0 162 28.4" enable-background="new 0 0 162 28.4" xml:space="preserve">
<g id="XMLID_1_">
	<g id="XMLID_46_">
		<path id="XMLID_53_" fill="#FFFFFF" d="M49.6,19.3c0,1.5,0,3,0,4.5c-0.6,0-1.2-0.1-1.9-0.1c-1.9-0.2-3.7-0.6-5.5-1.1
			c-2.3-0.7-4-2.1-5.3-4c-0.9-1.4-1.7-2.8-2.6-4.2c-0.5-0.8-1-1.7-1.6-2.4c-1.8-2-4.4-2.1-6.1-1.2c-1.3,0.7-2.2,1.7-2.5,3.2
			c-0.4,2.4,1.4,5,3.9,5.3c2.6,0.4,4.9-1.3,5.3-3.9c0.1-0.4,0-0.8,0-1.2c0,0,0.1,0,0.1,0c0.1,0.2,0.2,0.3,0.3,0.5
			c0.8,1.3,1.6,2.7,2.4,4c0.1,0.2,0.2,0.4,0.4,0.6c0.1,0.2,0.1,0.3,0,0.5c-2,2.9-4.7,4.4-8.2,4.2c-3.3-0.1-5.7-1.7-7.5-4.5
			c-0.1-0.1-0.1-0.2-0.2-0.3c0,0,0,0,0,0c-0.1,0.1-0.2,0.3-0.3,0.4c-0.5,0.5-1,1.1-1.5,1.6c-1,1.1-2.2,1.9-3.6,2.4
			C9.8,25.1,3.9,21.6,3,16c-0.8-4.9,2.3-9.5,7.2-10.6c3.2-0.7,6,0.2,8.4,2.4c0,0,0.1,0.1,0.1,0.1c-1.1,1.1-2.1,2.1-3.2,3.2
			c0,0-0.1-0.1-0.2-0.1c-2.7-2.3-6.9-1-7.7,2.5c-0.6,2.6,1.2,5.3,3.9,5.6c1.5,0.2,2.7-0.2,3.9-1.2c2-1.6,3.3-3.7,4.5-5.9
			c0.6-1.1,1.1-2.2,1.9-3.1c2.1-2.3,4.7-3.4,7.8-3.2C32.2,5.8,34.4,7,36.2,9c0.8,0.9,1.4,1.9,2,3c0.8,1.4,1.7,2.8,2.6,4.3
			c0.1,0.2,0.3,0.4,0.5,0.6c0.7,1,1.9,1.4,3,1.7c1.7,0.5,3.4,0.7,5.1,0.8C49.4,19.3,49.5,19.3,49.6,19.3z"/>
		<path id="XMLID_52_" fill="#FFFFFF" d="M85,22.8c0-0.1,0-0.2,0-0.4c0-2.9,0-5.8,0-8.8c0-2.3-1.5-4.2-3.8-4.6
			c-2.6-0.6-5.3,1.4-5.5,4c-0.3,2.8,1.9,5.1,4.6,5.1c1.4,0,2.8,0,4.2,0c0.1,0,0.2,0,0.3,0c-0.1,0.1-0.1,0.1-0.2,0.2
			c-1.4,1.4-2.8,2.8-4.2,4.2c-0.1,0.1-0.3,0.2-0.4,0.2c-4.4-0.1-8.2-3.5-8.8-7.9c-0.7-4.9,2.6-9.5,7.5-10.4
			c5.3-0.9,9.8,2.7,10.7,7.5c0.1,0.5,0.1,1,0.1,1.6c0,3,0,5.9,0,8.9c0,0.1,0,0.2,0,0.3C88,22.8,86.5,22.8,85,22.8z"/>
		<path id="XMLID_49_" fill="#FFFFFF" d="M57.2,20.9c0,0.9,0,1.8,0,2.7c-1.5,0-3,0-4.5,0c0-0.1,0-0.2,0-0.3c0-3.3,0-6.5,0-9.8
			c0-4,2.6-7.3,6.5-8.2c4.5-1.1,9.2,2,10,6.6c0.8,4.4-1.8,8.4-6,9.6c-1.9,0.5-3.7,0.3-5.5-0.4C57.4,21,57.3,21,57.2,20.9z
			 M57.2,13.5c0,2.1,1.7,3.8,3.7,3.8c2,0,3.7-1.7,3.7-3.7c0-2.1-1.6-3.8-3.7-3.8C58.8,9.8,57.2,11.4,57.2,13.5z"/>
		<path id="XMLID_48_" fill="#FFFFFF" d="M97,3.4c0,0.2,0,0.3,0,0.4c0,4.1,0,8.3,0,12.4c0,1.2,0.9,2.5,2.1,2.8
			c0.1,0,0.3,0.1,0.4,0.1c0.6,0,1.1,0,1.7,0c0,1.5,0,3,0,4.5c-2.2,0.3-4.2-0.1-6-1.6c-1.4-1.2-2.4-2.7-2.7-4.5
			c-0.1-0.4-0.1-0.7-0.1-1.1c0-2.7,0-5.5,0-8.2c0-0.2,0.1-0.3,0.2-0.5C94,6.4,95.4,5,96.8,3.6C96.8,3.6,96.9,3.5,97,3.4z"/>
		<path id="XMLID_47_" fill="#FFFFFF" d="M46.5,18.4c-1.7,0-3.1-0.6-4.3-1.6c-1.2-1-1.2-1-1.2-2.6c0-2,0-4,0-6
			c0-0.1,0.1-0.3,0.1-0.4c1.4-1.4,2.8-2.8,4.2-4.2c0.1-0.1,0.1-0.1,0.2-0.2c0,0.2,0,0.3,0,0.4c0,4.1,0,8.2,0,12.3
			c0,0.8,0.3,1.5,0.8,2.1C46.4,18.3,46.4,18.3,46.5,18.4z"/>
	</g>
	<g id="XMLID_2_" enable-background="new    ">
		<path id="XMLID_43_" fill="#FFFFFF" d="M80.5,26.7C80.4,26.7,80.4,26.7,80.5,26.7c-0.1,0-0.1-0.1-0.2-0.1c0,0,0,0,0-0.1s0,0,0-0.1
			c0,0,0,0,0,0V25c0-0.1,0-0.2,0.1-0.3c0.1-0.1,0.2-0.1,0.3-0.1h0.5c0.1,0,0.2,0,0.3,0.1s0.1,0.2,0.1,0.3h0v0.5c0,0.1,0,0.2-0.1,0.3
			s-0.2,0.1-0.3,0.1h-0.5v-0.1h0.5c0.1,0,0.1,0,0.2-0.1c0.1-0.1,0.1-0.1,0.1-0.2V25h0c0-0.1,0-0.1-0.1-0.2s-0.1-0.1-0.2-0.1h-0.5
			c-0.1,0-0.1,0-0.2,0.1s-0.1,0.1-0.1,0.2v1.4c0,0,0,0,0,0c0,0,0,0,0,0c0,0,0,0,0,0c0,0,0,0,0,0c0,0,0,0,0,0c0,0,0,0,0,0
			c0,0,0,0,0,0c0,0,0,0,0,0c0,0,0,0,0-0.1c0,0,0,0,0-0.1V25c0,0,0-0.1,0.1-0.1c0,0,0.1-0.1,0.1-0.1h0.5l0,0c0,0,0.1,0,0.1,0.1
			c0,0,0.1,0.1,0.1,0.1h0v0.5c0,0,0,0.1-0.1,0.1s-0.1,0.1-0.1,0.1h-0.5v-0.1h0.5c0,0,0,0,0,0c0,0,0,0,0,0V25h0c0,0,0,0,0,0
			c0,0,0,0,0,0h-0.5c0,0,0,0,0,0s0,0,0,0v1.4c0,0,0,0.1,0,0.1c0,0,0,0.1,0,0.1C80.6,26.6,80.6,26.7,80.5,26.7
			C80.5,26.7,80.5,26.7,80.5,26.7z M81,26.8c0,0-0.1,0-0.1-0.1c0,0-0.1-0.1-0.1-0.1s0-0.1,0.1-0.1c0,0,0.1-0.1,0.1-0.1h0.2
			c0,0,0,0,0,0c0,0,0,0,0,0v-0.5h0.1v0.5c0,0,0,0.1-0.1,0.1c0,0-0.1,0.1-0.1,0.1H81c0,0,0,0,0,0c0,0,0,0,0,0c0,0,0,0,0,0
			c0,0,0,0,0,0h0.2c0.1,0,0.1,0,0.2-0.1s0.1-0.1,0.1-0.2v-0.5c0,0,0,0,0,0c0,0,0.1-0.1,0.1-0.1c0,0,0,0,0,0.1s0,0,0,0.1v0.5
			c0,0.1,0,0.2-0.1,0.3c-0.1,0.1-0.2,0.1-0.3,0.1L81,26.8L81,26.8z"/>
		<path id="XMLID_39_" fill="#FFFFFF" d="M82.6,26.8c0,0-0.1,0-0.1-0.1c0,0-0.1-0.1-0.1-0.1v-0.7c0,0,0,0,0,0c0,0,0,0,0,0
			c-0.1,0-0.2,0-0.3-0.1c-0.1-0.1-0.1-0.2-0.1-0.3v-0.7c0,0,0-0.1,0.1-0.1s0.1-0.1,0.1-0.1c0,0,0.1,0,0.1,0.1c0,0,0.1,0.1,0.1,0.1
			v0.7c0,0,0,0,0,0c0,0,0,0,0,0c0.1,0,0.2,0,0.3,0.1s0.1,0.2,0.1,0.3v0.7c0,0,0,0.1-0.1,0.1C82.7,26.8,82.6,26.8,82.6,26.8z
			 M82.6,26.7C82.6,26.7,82.6,26.7,82.6,26.7C82.7,26.7,82.7,26.6,82.6,26.7l0.1-0.8c0-0.1,0-0.1-0.1-0.2s-0.1-0.1-0.2-0.1
			c0,0-0.1,0-0.1-0.1c0,0-0.1-0.1-0.1-0.1v-0.7c0,0,0,0,0,0c0,0,0,0,0,0c0,0,0,0,0,0c0,0,0,0,0,0v0.7c0,0.1,0,0.1,0.1,0.2
			c0.1,0.1,0.1,0.1,0.2,0.1c0,0,0.1,0,0.1,0.1c0,0,0.1,0.1,0.1,0.1L82.6,26.7C82.5,26.6,82.5,26.7,82.6,26.7
			C82.6,26.7,82.6,26.7,82.6,26.7z M82.8,25.7c0.1,0,0.1,0,0.2-0.1c0.1-0.1,0.1-0.1,0.1-0.2v-0.7c0,0,0,0,0,0c0,0,0,0,0,0
			c0,0,0,0,0,0c0,0,0,0,0,0v0.7c0,0,0,0.1-0.1,0.1c0,0-0.1,0.1-0.1,0.1c0,0,0,0,0,0c0,0-0.1-0.1-0.1-0.1c0,0,0,0,0.1,0
			c0,0,0,0,0.1,0c0,0,0,0,0,0c0,0,0,0,0,0v-0.7c0,0,0-0.1,0.1-0.1c0,0,0.1-0.1,0.1-0.1s0.1,0,0.1,0.1c0,0,0.1,0.1,0.1,0.1v0.7
			c0,0.1,0,0.2-0.1,0.3c-0.1,0.1-0.2,0.1-0.3,0.1L82.8,25.7L82.8,25.7L82.8,25.7z"/>
		<path id="XMLID_35_" fill="#FFFFFF" d="M84.3,26.8c0,0-0.1,0-0.1-0.1c0,0-0.1-0.1-0.1-0.1V25c0-0.1,0-0.2,0.1-0.3
			c0.1-0.1,0.2-0.1,0.3-0.1H85c0.1,0,0.2,0,0.3,0.1c0.1,0.1,0.1,0.2,0.1,0.3v1.2c0,0,0,0.1-0.1,0.1c0,0-0.1,0.1-0.1,0.1
			c0,0-0.1,0-0.1-0.1c0,0-0.1-0.1-0.1-0.1V25c0,0,0,0,0,0c0,0,0,0,0,0h-0.5c0,0,0,0,0,0c0,0,0,0,0,0v1.7c0,0,0,0.1-0.1,0.1
			C84.4,26.8,84.3,26.8,84.3,26.8z M84.3,26.7C84.3,26.7,84.3,26.7,84.3,26.7C84.3,26.7,84.4,26.6,84.3,26.7l0.1-1.8
			c0,0,0-0.1,0.1-0.1c0,0,0.1-0.1,0.1-0.1H85c0,0,0.1,0,0.1,0.1c0,0,0.1,0.1,0.1,0.1v1.2c0,0,0,0,0,0c0,0,0,0,0,0c0,0,0,0,0,0
			c0,0,0,0,0,0v-1.2c0-0.1,0-0.1-0.1-0.2c-0.1-0.1-0.1-0.1-0.2-0.1h-0.5c-0.1,0-0.1,0-0.2,0.1s-0.1,0.1-0.1,0.2L84.3,26.7
			C84.3,26.6,84.3,26.7,84.3,26.7C84.3,26.7,84.3,26.7,84.3,26.7z M86.2,26.8c0,0-0.1,0-0.1-0.1c0,0-0.1-0.1-0.1-0.1V25h0
			c0,0,0,0,0,0c0,0,0,0,0,0h-0.5v-0.1H86l0,0c0,0,0.1,0,0.1,0.1c0,0,0.1,0.1,0.1,0.1h0v1.7c0,0,0,0,0,0c0,0,0,0,0,0c0,0,0,0,0,0
			c0,0,0,0,0,0V25h0c0-0.1,0-0.1-0.1-0.2s-0.1-0.1-0.2-0.1h-0.5c0,0,0,0,0,0c0,0-0.1-0.1-0.1-0.1c0,0,0,0,0.1,0s0,0,0.1,0H86
			c0.1,0,0.2,0,0.3,0.1c0.1,0.1,0.1,0.2,0.1,0.3h0v1.7c0,0,0,0.1-0.1,0.1S86.3,26.8,86.2,26.8z"/>
		<path id="XMLID_32_" fill="#FFFFFF" d="M87.1,26.8c0,0-0.1,0-0.1-0.1c0,0-0.1-0.1-0.1-0.1v-1.9c0,0,0-0.1,0.1-0.1s0.1-0.1,0.1-0.1
			s0.1,0,0.1,0.1s0.1,0.1,0.1,0.1v1.9c0,0,0,0.1-0.1,0.1C87.2,26.8,87.1,26.8,87.1,26.8z M87.1,26.7C87.1,26.7,87.1,26.7,87.1,26.7
			C87.1,26.7,87.1,26.6,87.1,26.7l0.1-2c0,0,0,0,0,0c0,0,0,0,0,0c0,0,0,0,0,0c0,0,0,0,0,0L87.1,26.7C87,26.6,87,26.7,87.1,26.7
			C87,26.7,87,26.7,87.1,26.7z"/>
		<path id="XMLID_29_" fill="#FFFFFF" d="M87.8,26.8c0,0-0.1,0-0.1-0.1c0,0-0.1-0.1-0.1-0.1s0-0.1,0.1-0.1s0.1-0.1,0.1-0.1h0.7
			c0,0,0,0,0,0c0,0,0,0,0,0v-0.5h0c0,0,0,0,0,0c0,0,0,0,0,0H88c-0.1,0-0.2,0-0.3-0.1s-0.1-0.2-0.1-0.3v-0.5c0-0.1,0-0.2,0.1-0.3
			c0.1-0.1,0.2-0.1,0.3-0.1h0.5c0,0,0.1,0,0.1,0c0,0,0.1,0,0.1,0c0,0,0.1,0,0.1,0.1c0,0,0,0,0,0.1c0,0,0,0,0,0.1
			c0,0-0.1,0.1-0.1,0.1c0,0,0,0-0.1,0c0,0,0,0-0.1,0c0,0,0,0,0,0H88c0,0,0,0,0,0c0,0,0,0,0,0v0.5c0,0,0,0,0,0c0,0,0,0,0,0h0.5
			c0.1,0,0.2,0,0.3,0.1c0.1,0.1,0.1,0.2,0.1,0.3h0v0.5c0,0.1,0,0.2-0.1,0.3c-0.1,0.1-0.2,0.1-0.3,0.1L87.8,26.8L87.8,26.8L87.8,26.8
			z M88.5,26.7c0.1,0,0.1,0,0.2-0.1c0.1-0.1,0.1-0.1,0.1-0.2v-0.5h0c0-0.1,0-0.1-0.1-0.2s-0.1-0.1-0.2-0.1H88c0,0-0.1,0-0.1-0.1
			c0,0-0.1-0.1-0.1-0.1v-0.5c0,0,0-0.1,0.1-0.1c0,0,0.1-0.1,0.1-0.1h0.5c0,0,0,0,0,0s0,0,0,0c0,0,0,0,0,0c0,0,0,0,0,0c0,0,0,0,0,0
			c0,0,0,0,0,0c0,0,0,0,0,0c0,0,0,0,0,0c0,0,0,0-0.1,0c0,0,0,0-0.1,0H88c-0.1,0-0.1,0-0.2,0.1s-0.1,0.1-0.1,0.2v0.5
			c0,0.1,0,0.1,0.1,0.2c0.1,0.1,0.1,0.1,0.2,0.1h0.5c0,0,0.1,0,0.1,0.1s0.1,0.1,0.1,0.1h0v0.5c0,0,0,0.1-0.1,0.1s-0.1,0.1-0.1,0.1
			h-0.7c0,0,0,0,0,0c0,0,0,0,0,0c0,0,0,0,0,0c0,0,0,0,0,0L88.5,26.7L88.5,26.7L88.5,26.7z"/>
		<path id="XMLID_25_" fill="#FFFFFF" d="M89.1,24.9c0,0-0.1,0-0.1-0.1s-0.1-0.1-0.1-0.1c0,0,0-0.1,0.1-0.1s0.1-0.1,0.1-0.1h0.4
			c0,0-0.1,0.1-0.1,0.1h-0.3c0,0,0,0,0,0c0,0,0,0,0,0c0,0,0,0,0,0c0,0,0,0,0,0h0.2v0.1H89.1z M89.6,26.8c0,0-0.1,0-0.1-0.1
			c0,0-0.1-0.1-0.1-0.1V25c0-0.1,0-0.2,0.1-0.3c0.1-0.1,0.2-0.1,0.3-0.1h0.2c0,0,0.1,0,0.1,0.1s0.1,0.1,0.1,0.1c0,0,0,0.1-0.1,0.1
			c0,0-0.1,0.1-0.1,0.1h-0.2c0,0,0,0,0,0c0,0,0,0,0,0v1.7c0,0,0,0.1-0.1,0.1C89.7,26.8,89.7,26.8,89.6,26.8z M89.6,26.7
			C89.6,26.7,89.6,26.7,89.6,26.7C89.7,26.7,89.7,26.6,89.6,26.7l0.1-1.8c0,0,0-0.1,0.1-0.1c0,0,0.1-0.1,0.1-0.1h0.2c0,0,0,0,0,0
			c0,0,0,0,0,0c0,0,0,0,0,0c0,0,0,0,0,0h-0.2c-0.1,0-0.1,0-0.2,0.1s-0.1,0.1-0.1,0.2L89.6,26.7C89.6,26.6,89.6,26.6,89.6,26.7
			C89.6,26.7,89.6,26.7,89.6,26.7z"/>
		<path id="XMLID_21_" fill="#FFFFFF" d="M90.8,26.8c-0.1,0-0.2,0-0.3-0.1c-0.1-0.1-0.1-0.2-0.1-0.3V25c0-0.1,0-0.2,0.1-0.3
			c0.1-0.1,0.2-0.1,0.3-0.1h0.5c0,0,0,0,0,0c0,0,0,0,0.1,0c0,0,0,0,0.1,0c0,0,0.1,0,0.1,0.1c0,0,0,0,0,0.1c0,0,0,0,0,0.1
			c0,0-0.1,0.1-0.1,0.1c0,0,0,0-0.1,0c0,0-0.1,0-0.1,0h-0.5c0,0,0,0,0,0c0,0,0,0,0,0v1.4c0,0,0,0,0,0c0,0,0,0,0,0h0.7
			c0,0,0.1,0,0.1,0.1s0.1,0.1,0.1,0.1c0,0,0,0.1-0.1,0.1c0,0-0.1,0.1-0.1,0.1L90.8,26.8L90.8,26.8L90.8,26.8z M91.5,26.7
			C91.5,26.7,91.6,26.7,91.5,26.7C91.6,26.7,91.6,26.6,91.5,26.7c0.1-0.1,0.1-0.1,0-0.1c0,0,0,0,0,0h-0.7c0,0-0.1,0-0.1-0.1
			c0,0-0.1-0.1-0.1-0.1v-1.4c0,0,0-0.1,0.1-0.1c0,0,0.1-0.1,0.1-0.1h0.5c0,0,0,0,0.1,0c0,0,0,0,0.1,0c0,0,0,0,0,0c0,0,0,0,0,0
			c0,0,0,0,0,0c0,0,0,0,0,0c0,0,0,0,0,0c0,0,0,0,0,0s0,0,0,0c0,0,0,0,0,0h-0.5c-0.1,0-0.1,0-0.2,0.1c-0.1,0.1-0.1,0.1-0.1,0.2v1.4
			c0,0.1,0,0.1,0.1,0.2c0.1,0.1,0.1,0.1,0.2,0.1L91.5,26.7L91.5,26.7z M90.8,25.9v-0.1h0.5c0,0,0,0,0,0c0,0,0,0,0,0c0,0,0,0,0,0
			c0,0,0,0,0,0h-0.5v-0.1h0.5c0,0,0.1,0,0.1,0.1c0,0,0.1,0.1,0.1,0.1s0,0.1-0.1,0.1c0,0-0.1,0.1-0.1,0.1H90.8z"/>
		<path id="XMLID_17_" fill="#FFFFFF" d="M92,26.8c0,0-0.1,0-0.1-0.1c0,0-0.1-0.1-0.1-0.1V25c0-0.1,0-0.2,0.1-0.3
			c0.1-0.1,0.2-0.1,0.3-0.1h0.5c0.1,0,0.2,0,0.3,0.1c0.1,0.1,0.1,0.2,0.1,0.3h0v0.5c0,0.1,0,0.2-0.1,0.3c-0.1,0.1-0.2,0.1-0.3,0.1
			h-0.2c0,0-0.1,0-0.1-0.1s-0.1-0.1-0.1-0.1c0,0,0-0.1,0.1-0.1c0,0,0.1-0.1,0.1-0.1h0.2c0,0,0,0,0,0c0,0,0,0,0,0v-0.5h0c0,0,0,0,0,0
			c0,0,0,0,0,0h-0.5c0,0,0,0,0,0c0,0,0,0,0,0v1.7c0,0,0,0.1-0.1,0.1S92.1,26.8,92,26.8z M92,26.7C92,26.7,92.1,26.7,92,26.7
			C92.1,26.7,92.1,26.6,92,26.7l0.1-1.8c0,0,0-0.1,0.1-0.1c0,0,0.1-0.1,0.1-0.1h0.5l0,0c0,0,0.1,0,0.1,0.1c0,0,0.1,0.1,0.1,0.1h0
			v0.5c0,0,0,0.1-0.1,0.1s-0.1,0.1-0.1,0.1h-0.2c0,0,0,0,0,0c0,0,0,0,0,0c0,0,0,0,0,0s0,0,0,0h0.2c0.1,0,0.1,0,0.2-0.1
			c0.1-0.1,0.1-0.1,0.1-0.2V25h0c0-0.1,0-0.1-0.1-0.2s-0.1-0.1-0.2-0.1h-0.5c-0.1,0-0.1,0-0.2,0.1S92,24.9,92,25L92,26.7
			C92,26.7,92,26.7,92,26.7C92,26.7,92,26.7,92,26.7z M93,26.8c0,0-0.1,0-0.1-0.1c0,0-0.1-0.1-0.1-0.1v-0.7h0.1v0.7c0,0,0,0,0,0
			c0,0,0,0,0,0c0,0,0,0,0,0c0,0,0,0,0,0v-0.7c0,0,0,0,0,0c0,0,0.1-0.1,0.1-0.1c0,0,0,0,0,0.1s0,0,0,0.1v0.7c0,0,0,0.1-0.1,0.1
			C93.1,26.8,93,26.8,93,26.8z"/>
		<path id="XMLID_14_" fill="#FFFFFF" d="M94.2,26.8c0,0-0.1,0-0.1-0.1c0,0-0.1-0.1-0.1-0.1V25c0-0.1,0-0.2,0.1-0.3
			c0.1-0.1,0.2-0.1,0.3-0.1h0.5c0.1,0,0.2,0,0.3,0.1c0.1,0.1,0.1,0.2,0.1,0.3h0v1c0,0.1,0,0.2-0.1,0.3c-0.1,0.1-0.2,0.1-0.3,0.1
			h-0.2c0,0-0.1,0-0.1-0.1c0,0-0.1-0.1-0.1-0.1s0-0.1,0.1-0.1c0,0,0.1-0.1,0.1-0.1h0.2c0,0,0,0,0,0c0,0,0,0,0,0v-1h0c0,0,0,0,0,0
			c0,0,0,0,0,0h-0.5c0,0,0,0,0,0c0,0,0,0,0,0v1.7c0,0,0,0.1-0.1,0.1S94.2,26.8,94.2,26.8z M94.2,26.7C94.2,26.7,94.2,26.7,94.2,26.7
			C94.2,26.7,94.3,26.6,94.2,26.7l0.1-1.8c0,0,0-0.1,0.1-0.1c0,0,0.1-0.1,0.1-0.1h0.5l0,0c0,0,0.1,0,0.1,0.1s0.1,0.1,0.1,0.1h0v1
			c0,0,0,0.1-0.1,0.1s-0.1,0.1-0.1,0.1h-0.2c0,0,0,0,0,0c0,0,0,0,0,0c0,0,0,0,0,0c0,0,0,0,0,0h0.2c0.1,0,0.1,0,0.2-0.1
			c0.1-0.1,0.1-0.1,0.1-0.2v-1h0c0-0.1,0-0.1-0.1-0.2c-0.1-0.1-0.1-0.1-0.2-0.1h-0.5c-0.1,0-0.1,0-0.2,0.1s-0.1,0.1-0.1,0.2
			L94.2,26.7C94.1,26.7,94.1,26.7,94.2,26.7C94.2,26.7,94.2,26.7,94.2,26.7z"/>
		<path id="XMLID_9_" fill="#FFFFFF" d="M96.9,26.8c0,0-0.1,0-0.1-0.1c0,0-0.1-0.1-0.1-0.1V25h0c0,0,0,0,0,0c0,0,0,0,0,0h-0.5
			c0,0,0,0,0,0c0,0,0,0,0,0v1.4c0,0,0,0.1,0,0.1c0,0,0,0.1,0,0.1c0,0,0,0.1-0.1,0.1c0,0,0,0-0.1,0c0,0,0,0-0.1,0c0,0-0.1,0-0.1-0.1
			c0,0,0,0,0-0.1c0,0,0,0,0-0.1c0,0,0,0,0,0V25c0-0.1,0-0.2,0.1-0.3c0.1-0.1,0.2-0.1,0.3-0.1h0.5c0.1,0,0.2,0,0.3,0.1
			C97,24.7,97,24.8,97,25h0v1.7c0,0,0,0.1-0.1,0.1C97,26.8,96.9,26.8,96.9,26.8z M96.9,26.7C96.9,26.7,96.9,26.7,96.9,26.7
			C96.9,26.7,96.9,26.6,96.9,26.7l0.1-1.8h0c0-0.1,0-0.1-0.1-0.2s-0.1-0.1-0.2-0.1h-0.5c-0.1,0-0.1,0-0.2,0.1s-0.1,0.1-0.1,0.2v1.4
			c0,0,0,0,0,0c0,0,0,0,0,0c0,0,0,0,0,0c0,0,0,0,0,0c0,0,0,0,0,0c0,0,0,0,0,0s0,0,0,0c0,0,0,0,0,0c0,0,0,0,0-0.1s0,0,0-0.1v-1.4
			c0,0,0-0.1,0.1-0.1c0,0,0.1-0.1,0.1-0.1h0.5l0,0c0,0,0.1,0,0.1,0.1s0.1,0.1,0.1,0.1h0L96.9,26.7C96.9,26.6,96.9,26.7,96.9,26.7
			C96.8,26.7,96.9,26.7,96.9,26.7z M96.1,25.6v-0.1h0.5v0.1H96.1z M96.1,25.9v-0.1h0.5v0.1H96.1z"/>
		<path id="XMLID_6_" fill="#FFFFFF" d="M97.7,26.8c0,0-0.1,0-0.1-0.1c0,0-0.1-0.1-0.1-0.1V25c0-0.1,0-0.2,0.1-0.3
			c0.1-0.1,0.2-0.1,0.3-0.1h0.5c0.1,0,0.2,0,0.3,0.1c0.1,0.1,0.1,0.2,0.1,0.3h0v1c0,0.1,0,0.2-0.1,0.3s-0.2,0.1-0.3,0.1h-0.2
			c0,0-0.1,0-0.1-0.1c0,0-0.1-0.1-0.1-0.1s0-0.1,0.1-0.1c0,0,0.1-0.1,0.1-0.1h0.2c0,0,0,0,0,0s0,0,0,0v-1h0c0,0,0,0,0,0c0,0,0,0,0,0
			H98c0,0,0,0,0,0s0,0,0,0v1.7c0,0,0,0.1-0.1,0.1S97.8,26.8,97.7,26.8z M97.7,26.7C97.7,26.7,97.7,26.7,97.7,26.7
			C97.8,26.7,97.8,26.6,97.7,26.7l0.1-1.8c0,0,0-0.1,0.1-0.1c0,0,0.1-0.1,0.1-0.1h0.5l0,0c0,0,0.1,0,0.1,0.1s0.1,0.1,0.1,0.1h0v1
			c0,0,0,0.1-0.1,0.1c0,0-0.1,0.1-0.1,0.1h-0.3c0,0,0,0,0,0c0,0,0,0,0,0c0,0,0,0,0,0c0,0,0,0,0,0h0.2c0.1,0,0.1,0,0.2-0.1
			s0.1-0.1,0.1-0.2v-1h0c0-0.1,0-0.1-0.1-0.2s-0.1-0.1-0.2-0.1H98c-0.1,0-0.1,0-0.2,0.1c-0.1,0.1-0.1,0.1-0.1,0.2L97.7,26.7
			C97.7,26.7,97.7,26.7,97.7,26.7C97.7,26.7,97.7,26.7,97.7,26.7z"/>
		<path id="XMLID_3_" fill="#FFFFFF" d="M99.4,26.8c0,0-0.1,0-0.1-0.1c0,0-0.1-0.1-0.1-0.1s0-0.1,0.1-0.1s0.1-0.1,0.1-0.1h0.7
			c0,0,0,0,0,0c0,0,0,0,0,0v-0.5h0c0,0,0,0,0,0c0,0,0,0,0,0h-0.5c-0.1,0-0.2,0-0.3-0.1s-0.1-0.2-0.1-0.3v-0.5c0-0.1,0-0.2,0.1-0.3
			c0.1-0.1,0.2-0.1,0.3-0.1h0.5c0,0,0.1,0,0.1,0c0,0,0.1,0,0.1,0c0,0,0.1,0,0.1,0.1c0,0,0,0,0,0.1c0,0,0,0,0,0.1
			c0,0-0.1,0.1-0.1,0.1c0,0,0,0-0.1,0c0,0,0,0-0.1,0c0,0,0,0,0,0h-0.5c0,0,0,0,0,0c0,0,0,0,0,0v0.5c0,0,0,0,0,0c0,0,0,0,0,0h0.5
			c0.1,0,0.2,0,0.3,0.1c0.1,0.1,0.1,0.2,0.1,0.3h0v0.5c0,0.1,0,0.2-0.1,0.3c-0.1,0.1-0.2,0.1-0.3,0.1L99.4,26.8L99.4,26.8z
			 M100.1,26.7c0.1,0,0.1,0,0.2-0.1s0.1-0.1,0.1-0.2v-0.5h0c0-0.1,0-0.1-0.1-0.2c-0.1-0.1-0.1-0.1-0.2-0.1h-0.5c0,0-0.1,0-0.1-0.1
			c0,0-0.1-0.1-0.1-0.1v-0.5c0,0,0-0.1,0.1-0.1c0,0,0.1-0.1,0.1-0.1h0.5c0,0,0,0,0,0c0,0,0,0,0,0c0,0,0,0,0,0s0,0,0,0c0,0,0,0,0,0
			c0,0,0,0,0,0c0,0,0,0,0,0c0,0,0,0,0,0c0,0,0,0-0.1,0s0,0-0.1,0h-0.5c-0.1,0-0.1,0-0.2,0.1c-0.1,0.1-0.1,0.1-0.1,0.2v0.5
			c0,0.1,0,0.1,0.1,0.2c0.1,0.1,0.1,0.1,0.2,0.1h0.5c0,0,0.1,0,0.1,0.1s0.1,0.1,0.1,0.1h0v0.5c0,0,0,0.1-0.1,0.1s-0.1,0.1-0.1,0.1
			h-0.7c0,0,0,0,0,0c0,0,0,0,0,0c0,0,0,0,0,0c0,0,0,0,0,0L100.1,26.7L100.1,26.7L100.1,26.7z"/>
	</g>
</g>
<g id="XMLID_54_">
	<path id="XMLID_56_" fill="#FFFFFF" d="M151.6,10.4c0-0.5-0.1-1.1-0.2-1.6c-0.3-1.2-0.9-2.2-1.7-3.1c-0.6-0.6-1.2-1.1-1.9-1.5
		c-1-0.5-2.1-0.8-3.3-0.8c-0.8,0-1.6,0-2.4,0h-1.3c-0.9,0-1.7,0-2.6,0c-0.4,0-0.9,0-1.3,0c-0.2,0-0.4,0-0.5,0.1
		c-0.4,0.1-0.8,0.3-1.2,0.5c-0.1,0.1-0.2,0.2-0.4,0.2c0,0,0,0-0.1,0c-1.2,0.9-1.8,2.1-1.6,3.7c0,0.1,0,0.2,0,0.3
		c0.2,0.8,0.5,1.6,1.1,2.2c0.8,0.8,1.7,1.2,2.9,1.2c1,0,2,0,3,0c0.2,0,0.4,0.1,0.6,0.2c0.1,0.1,0.1,0.1,0.1,0.2
		c0.2,0.1,0.2,0.3,0.1,0.5c0,0.3-0.4,0.7-0.8,0.6c-1.9,0-3.9,0-5.8,0c-0.7,0-1.4,0.1-2,0.4c-0.2,0.1-0.4,0.2-0.6,0.3
		c-0.3,0.2-0.6,0.4-0.9,0.7c0,0-0.1,0.1-0.1,0.1c-0.4,0.4-0.8,0.9-1,1.4c-0.2,0.5-0.5,1.1-0.4,1.6c0,0,0,0.1,0,0.1c0,0.5,0,1,0,1.4
		c0,0.6,0.2,1.1,0.4,1.6c0,0.1,0.1,0.1-0.1,0.1c-1.2,0-2.5,0-3.7,0c-0.9,0-1.8-0.9-1.9-1.7c-0.1-0.3-0.1-0.7-0.1-1.1
		c0-0.1,0-0.1,0-0.2v-3.3c0-0.2,0-0.2,0.2-0.1c1.3,0.6,2.6,0.7,4,0.3c0.4-0.1,0.9-0.3,1.3-0.5c0.4-0.3,0.8-0.5,1.2-0.9
		c0.5-0.5,0.9-1,1.2-1.6c0,0,0,0,0,0c0.5-0.9,0.7-2,0.6-3c0-0.2,0-0.5-0.1-0.7c-0.1-0.5-0.3-1-0.5-1.4c0-0.1-0.1-0.1-0.1-0.2
		c-0.7-1.2-1.6-2.1-2.8-2.7c-0.4-0.2-0.8-0.3-1.3-0.4c0,0-0.1,0-0.1,0c-0.1,0-0.2,0-0.3,0c-0.5-0.1-1-0.1-1.5,0
		c-0.6,0.1-1.2,0.3-1.7,0.5c-0.7,0.3-1.3,0.7-1.8,1.3c0,0,0,0,0,0c-1,1-1.6,2.4-1.6,3.9c0,0.5,0,1,0,1.5v7.5c0,0.3,0,0.6,0,1
		c0.1,0.8,0.3,1.6,0.8,2.4c0.9,1.5,2.2,2.4,4,2.7c0.7,0.1,1.4,0.1,2.1,0.1c5.6,0,11.3,0,16.9,0c1.2,0,2.3-0.2,3.3-0.8
		c0.7-0.4,1.3-0.9,1.9-1.4c0,0,0,0,0.1-0.1c1.2-1.2,1.8-2.8,1.9-4.8C151.6,14.9,151.6,12.7,151.6,10.4z M126.6,6.6
		c1.5,0,2.6,1.2,2.6,2.7c0,1.5-1.2,2.7-2.6,2.6c-1.5,0-2.6-1.2-2.6-2.7l0,0v0C124,7.8,125.2,6.6,126.6,6.6z M148.1,18.4
		c-0.5,1.3-1.4,2.1-2.8,2.4c-0.3,0.1-0.5,0.1-0.8,0.1c-0.8,0-1.6,0-2.4,0c-0.3,0-0.5,0-0.8,0c-1.1,0-2.2,0-3.3,0c-0.4,0-0.8,0-1.2,0
		l-2.2,0c-0.1,0-0.2,0-0.3-0.1c-0.5-0.1-1-0.4-1.3-0.9c-0.2-0.3-0.4-0.6-0.4-1c-0.1-0.4-0.1-0.8,0-1.2c0.1-0.7,0.8-1.2,1.5-1.3
		c1.1,0,2.2,0,3.4,0h2.3c0.5,0,1,0,1.4-0.1c0.3-0.1,0.6-0.2,0.9-0.3c0.6-0.3,1.1-0.8,1.5-1.3c0-0.1,0.1-0.1,0.1-0.1
		c0.3-0.5,0.5-1.1,0.6-1.7c0-0.7,0-1.4-0.3-2.1c-0.1-0.2-0.2-0.4-0.3-0.6c-0.2-0.3-0.5-0.6-0.7-0.9c-0.3-0.3-0.6-0.5-0.9-0.6
		c-0.3-0.1-0.6-0.3-0.9-0.3c0,0-0.1,0-0.1,0c-1.1-0.2-2.3-0.1-3.4-0.1c-0.2,0-0.3,0-0.5,0c-0.5,0-0.8-0.4-0.8-0.8v0
		c0-0.4,0.4-0.8,0.8-0.8h7.1c0,0,0,0,0,0c0.5,0,1,0.1,1.4,0.2c0.4,0.2,0.8,0.4,1.2,0.7c0.2,0.2,0.5,0.4,0.6,0.7
		c0.3,0.4,0.5,0.8,0.6,1.3c0.2,0.5,0.2,1,0.1,1.5v4.1c0,0.8,0,1.5,0,2.3C148.3,17.8,148.2,18.1,148.1,18.4z"/>
</g>
<line id="XMLID_63_" fill="none" stroke="#FFFFFF" stroke-miterlimit="10" x1="110.5" y1="1.1" x2="110.5" y2="28.1"/>
</svg>
