<svg xmlns="http://www.w3.org/2000/svg" viewBox="-471 273 16 16" height="16pt"><path d="M-459.5 288.2h-8.3c-1 0-1.8-.8-1.8-1.8v-9c0-1 .8-1.8 1.8-1.8h.3c.3 0 .5.2.5.5s-.2.5-.5.5h-.3c-.5 0-.8.4-.8.8v9c0 .5.4.8.8.8h8.3c.5 0 .8-.4.8-.8v-.3c0-.3.2-.5.5-.5s.5.2.5.5v.3c0 .9-.8 1.8-1.8 1.8z" fill="#fff"/><g fill="#fff"><path d="M-461.7 279.1l-.1 1.1h1c.3 0 .6-.2.6-.5l.1-1.1h-1c-.3 0-.6.2-.6.5z"/><path d="M-457.4 273.4h-7c-1 0-1.8.8-1.8 1.8v8.3c0 1 .8 1.8 1.8 1.8h7c1 0 1.9-.9 1.8-1.8v-8.3c0-1-.8-1.8-1.8-1.8zm-.1 5.1h-.9c-.3 0-.6.2-.6.5l-.1 1.1h1.3v1.1h-.9c-.3 0-.6.2-.6.5l-.1 1.1h-1.2l.2-1.6h-1c-.3 0-.6.2-.6.5l-.1 1.1h-1.1l.2-1.6h-1.3v-1.1h.9c.3 0 .6-.2.6-.5l.1-1.1h-1.3v-1.1h.6c.5 0 1-.4 1-.9l.1-.7h1.1l-.2 1.6h1c.3 0 .6-.2.6-.5l.1-1.1h1.1l-.2 1.6h1.3v1.1z"/></g></svg>