<?xml version="1.0" encoding="utf-8"?>
<svg version="1.1" id="Layer_1" xmlns="http://www.w3.org/2000/svg" xmlns:xlink="http://www.w3.org/1999/xlink" x="0px" y="0px"
	 viewBox="-471 273 16 16" style="enable-background:new -471 273 16 16;" xml:space="preserve" height="16pt">

<path style="fill:#FFFFFF;" d="M-459.5,288.2h-8.3c-1,0-1.8-0.8-1.8-1.8v-9c0-1,0.8-1.8,1.8-1.8h0.3c0.3,0,0.5,0.2,0.5,0.5
	s-0.2,0.5-0.5,0.5h-0.3c-0.5,0-0.8,0.4-0.8,0.8v9c0,0.5,0.4,0.8,0.8,0.8h8.3c0.5,0,0.8-0.4,0.8-0.8v-0.3c0-0.3,0.2-0.5,0.5-0.5
	s0.5,0.2,0.5,0.5v0.3C-457.7,287.3-458.5,288.2-459.5,288.2z"/>
<g>
	<path style="fill:#FFFFFF;" d="M-461.7,279.1l-0.1,1.1h1c0.3,0,0.6-0.2,0.6-0.5l0.1-1.1h-1C-461.4,278.6-461.7,278.8-461.7,279.1z"
		/>
	<path style="fill:#FFFFFF;" d="M-457.4,273.4h-7c-1,0-1.8,0.8-1.8,1.8v8.3c0,1,0.8,1.8,1.8,1.8h7c1,0,1.9-0.9,1.8-1.8v-8.3
		C-455.6,274.2-456.4,273.4-457.4,273.4z M-457.5,278.5h-0.9c-0.3,0-0.6,0.2-0.6,0.5l-0.1,1.1h1.3v1.1h-0.9c-0.3,0-0.6,0.2-0.6,0.5
		l-0.1,1.1h-1.2l0.2-1.6h-1c-0.3,0-0.6,0.2-0.6,0.5l-0.1,1.1h-1.1l0.2-1.6h-1.3v-1.1h0.9c0.3,0,0.6-0.2,0.6-0.5l0.1-1.1h-1.3v-1.1
		h0.6c0.5,0,1-0.4,1-0.9l0.1-0.7h1.1l-0.2,1.6h1c0.3,0,0.6-0.2,0.6-0.5l0.1-1.1h1.1l-0.2,1.6h1.3V278.5z"/>
</g>
</svg>
