<svg version="1.1" id="Layer_1" xmlns="http://www.w3.org/2000/svg" x="0" y="0" viewBox="-114.4 163.5 655.9 235" xml:space="preserve"><style>.st1{fill:#fff}</style><path id="XMLID_47_" d="M-56.9 163.5H484c31.8 0 57.5 25.7 57.5 57.5v120c0 31.8-25.7 57.5-57.5 57.5H-56.9c-31.8 0-57.5-25.7-57.5-57.5V221c0-31.7 25.7-57.5 57.5-57.5z" fill="#0f0d0e"/><g id="XMLID_36_"><g id="XMLID_2_"><path id="XMLID_44_" class="st1" d="M170.8 273.6h-32c-.8 0-1.5.7-1.5 1.5v15.7c0 .8.7 1.5 1.5 1.5h12.5v19.4s-2.8 1-10.6 1c-9.1 0-21.9-3.3-21.9-31.4s13.3-31.8 25.8-31.8c10.8 0 15.5 1.9 18.4 2.8.9.3 1.8-.6 1.8-1.5l3.6-15.1c0-.4-.1-.9-.6-1.2-1.2-.9-8.5-5-27.1-5-21.4 0-43.3 9.1-43.3 52.8s25.1 50.2 46.3 50.2c17.5 0 28.1-7.5 28.1-7.5.4-.2.5-.9.5-1.1v-48.8c0-.8-.7-1.5-1.5-1.5z"/><path id="XMLID_41_" class="st1" d="M335.8 234.7c0-.8-.7-1.5-1.5-1.5h-18c-.8 0-1.5.7-1.5 1.5v34.8h-28.1v-34.8c0-.8-.7-1.5-1.5-1.5h-18c-.8 0-1.5.7-1.5 1.5V329c0 .8.7 1.5 1.5 1.5h18c.8 0 1.5-.7 1.5-1.5v-40.4h28.1V329c0 .8.7 1.5 1.5 1.5h18.1c.8 0 1.5-.7 1.5-1.5v-94.3h-.1z"/><g id="XMLID_27_"><g id="XMLID_330_"><path id="XMLID_332_" class="st1" d="M204.8 247.1c0-6.5-5.2-11.7-11.6-11.7s-11.6 5.2-11.6 11.7 5.2 11.7 11.6 11.7c6.4 0 11.6-5.2 11.6-11.7z"/><path id="XMLID_331_" class="st1" d="M203.5 309.2v-43.5c0-.8-.7-1.5-1.5-1.5h-18c-.8 0-1.6.9-1.6 1.7v62.4c0 1.8 1.1 2.4 2.6 2.4h16.2c1.8 0 2.2-.9 2.2-2.4.1-3.5.1-16.6.1-19.1z"/></g></g><path id="XMLID_22_" class="st1" d="M404.3 264.2h-17.9c-.8 0-1.5.7-1.5 1.5V312s-4.5 3.3-11 3.3-8.2-2.9-8.2-9.2v-40.3c0-.8-.7-1.5-1.5-1.5H346c-.8 0-1.5.7-1.5 1.5v43.4c0 18.8 10.5 23.4 24.8 23.4 11.8 0 21.3-6.5 21.3-6.5s.5 3.4.7 3.8c.2.4.7.8 1.3.8l11.6-.1c.8 0 1.5-.7 1.5-1.5v-63.3c.1-.9-.6-1.6-1.4-1.6z"/><path id="XMLID_6_" class="st1" d="M453.2 262.1c-10.2 0-17.1 4.5-17.1 4.5v-31.9c0-.8-.7-1.5-1.5-1.5h-18.1c-.8 0-1.5.7-1.5 1.5V329c0 .8.7 1.5 1.5 1.5H429c.6 0 1-.3 1.3-.8s.8-4.3.8-4.3 7.4 7 21.4 7c16.4 0 25.9-8.3 25.9-37.4 0-29.1-15-32.9-25.2-32.9zm-7.1 53.2c-6.2-.2-10.4-3-10.4-3v-29.9s4.2-2.5 9.2-3c6.4-.6 12.7 1.4 12.7 16.7 0 16.2-2.8 19.4-11.5 19.2z"/><path id="XMLID_3_" class="st1" d="M255.3 264.1h-13.5v-17.9c0-.7-.3-1-1.1-1h-18.4c-.7 0-1.1.3-1.1 1v18.5s-9.2 2.2-9.9 2.4c-.6.2-1.1.8-1.1 1.4v11.6c0 .8.7 1.5 1.5 1.5h9.4v27.9c0 20.7 14.5 22.8 24.4 22.8 4.5 0 9.8-1.4 10.7-1.8.5-.2.8-.8.8-1.4v-12.8c0-.8-.7-1.5-1.5-1.5s-2.8.3-4.9.3c-6.6 0-8.9-3.1-8.9-7.1v-26.5h13.5c.8 0 1.5-.7 1.5-1.5v-14.5c.1-.7-.6-1.4-1.4-1.4z"/></g><g id="XMLID_292_"><path id="XMLID_291_" class="st1" d="M9 218.1c-33.3 0-60.4 27-60.4 60.4 0 26.7 17.3 49.3 41.3 57.3 3 .6 4.1-1.3 4.1-2.9 0-1.4-.1-6.2-.1-11.2-16.8 3.7-20.3-7.1-20.3-7.1-2.7-7-6.7-8.8-6.7-8.8-5.5-3.7.4-3.7.4-3.7 6.1.4 9.3 6.2 9.3 6.2 5.4 9.2 14.1 6.6 17.6 5 .5-3.9 2.1-6.6 3.8-8.1-13.4-1.5-27.5-6.7-27.5-29.8 0-6.6 2.4-12 6.2-16.2-.6-1.5-2.7-7.7.6-16 0 0 5.1-1.6 16.6 6.2 4.8-1.3 10-2 15.1-2s10.3.7 15.1 2c11.5-7.8 16.6-6.2 16.6-6.2 3.3 8.3 1.2 14.5.6 16 3.9 4.2 6.2 9.6 6.2 16.2 0 23.2-14.1 28.3-27.6 29.8 2.2 1.9 4.1 5.5 4.1 11.2 0 8.1-.1 14.6-.1 16.6 0 1.6 1.1 3.5 4.1 2.9 24-8 41.3-30.6 41.3-57.3.1-33.5-27-60.5-60.3-60.5z"/><path id="XMLID_311_" class="st1" d="M-28.5 331.1c-.1.3-.6.4-1 .2s-.7-.6-.5-.9c.1-.3.6-.4 1-.2s.6.6.5.9z"/><path id="XMLID_308_" class="st1" d="M-26.1 333.8c-.3.3-.9.1-1.2-.3-.4-.4-.5-1-.2-1.3.3-.3.8-.1 1.2.3.4.5.5 1.1.2 1.3z"/><path id="XMLID_305_" class="st1" d="M-23.7 337.3c-.4.3-1 0-1.3-.5-.4-.5-.4-1.2 0-1.4.4-.3 1 0 1.3.5.4.5.4 1.2 0 1.4z"/><path id="XMLID_302_" class="st1" d="M-20.4 340.7c-.3.4-1 .3-1.6-.2-.5-.5-.7-1.2-.3-1.5.3-.4 1-.3 1.6.2.4.4.6 1.1.3 1.5z"/><path id="XMLID_299_" class="st1" d="M-15.9 342.6c-.1.5-.8.7-1.5.5s-1.1-.8-1-1.2c.1-.5.8-.7 1.5-.5.6.2 1.1.8 1 1.2z"/><path id="XMLID_296_" class="st1" d="M-11 343c0 .5-.6.9-1.3.9-.7 0-1.3-.4-1.3-.9s.6-.9 1.3-.9 1.3.4 1.3.9z"/><path id="XMLID_293_" class="st1" d="M-6.4 342.2c.1.5-.4 1-1.1 1.1-.7.1-1.3-.2-1.4-.7s.4-1 1.1-1.1c.7-.1 1.3.2 1.4.7z"/></g></g></svg>