<?xml version="1.0" encoding="utf-8"?>
<!-- Generator: Adobe Illustrator 19.0.0, SVG Export Plug-In . SVG Version: 6.00 Build 0)  -->
<svg version="1.1" id="Layer_1" xmlns="http://www.w3.org/2000/svg" xmlns:xlink="http://www.w3.org/1999/xlink" x="0px" y="0px"
	 viewBox="-114.4 163.5 655.9 235" style="enable-background:new -114.4 163.5 655.9 235;" xml:space="preserve">
<style type="text/css">
	.st0{fill:#0F0D0E;}
	.st1{fill:#FFFFFF;}
</style>
<path id="XMLID_47_" class="st0" d="M-56.9,163.5H484c31.8,0,57.5,25.7,57.5,57.5v120c0,31.8-25.7,57.5-57.5,57.5H-56.9
	c-31.8,0-57.5-25.7-57.5-57.5V221C-114.4,189.3-88.7,163.5-56.9,163.5z"/>
<g id="XMLID_36_">
	<g id="XMLID_2_">
		<path id="XMLID_44_" class="st1" d="M170.8,273.6h-32c-0.8,0-1.5,0.7-1.5,1.5v15.7c0,0.8,0.7,1.5,1.5,1.5h12.5v19.4
			c0,0-2.8,1-10.6,1c-9.1,0-21.9-3.3-21.9-31.4s13.3-31.8,25.8-31.8c10.8,0,15.5,1.9,18.4,2.8c0.9,0.3,1.8-0.6,1.8-1.5l3.6-15.1
			c0-0.4-0.1-0.9-0.6-1.2c-1.2-0.9-8.5-5-27.1-5c-21.4,0-43.3,9.1-43.3,52.8s25.1,50.2,46.3,50.2c17.5,0,28.1-7.5,28.1-7.5
			c0.4-0.2,0.5-0.9,0.5-1.1v-48.8C172.3,274.3,171.6,273.6,170.8,273.6z"/>
		<path id="XMLID_41_" class="st1" d="M335.8,234.7c0-0.8-0.7-1.5-1.5-1.5h-18c-0.8,0-1.5,0.7-1.5,1.5v34.8h-28.1v-34.8
			c0-0.8-0.7-1.5-1.5-1.5h-18c-0.8,0-1.5,0.7-1.5,1.5V329c0,0.8,0.7,1.5,1.5,1.5h18c0.8,0,1.5-0.7,1.5-1.5v-40.4h28.1
			c0,0,0,40.3,0,40.4c0,0.8,0.7,1.5,1.5,1.5h18.1c0.8,0,1.5-0.7,1.5-1.5v-94.3H335.8z"/>
		<g id="XMLID_27_">
			<g id="XMLID_330_">
				<path id="XMLID_332_" class="st1" d="M204.8,247.1c0-6.5-5.2-11.7-11.6-11.7s-11.6,5.2-11.6,11.7s5.2,11.7,11.6,11.7
					C199.6,258.8,204.8,253.6,204.8,247.1z"/>
				<path id="XMLID_331_" class="st1" d="M203.5,309.2c0-2.4,0-43.5,0-43.5c0-0.8-0.7-1.5-1.5-1.5h-18c-0.8,0-1.6,0.9-1.6,1.7
					c0,0,0,52.4,0,62.4c0,1.8,1.1,2.4,2.6,2.4c0,0,7.7,0,16.2,0c1.8,0,2.2-0.9,2.2-2.4C203.5,324.8,203.5,311.7,203.5,309.2z"/>
			</g>
		</g>
		<path id="XMLID_22_" class="st1" d="M404.3,264.2h-17.9c-0.8,0-1.5,0.7-1.5,1.5V312c0,0-4.5,3.3-11,3.3s-8.2-2.9-8.2-9.2
			s0-40.3,0-40.3c0-0.8-0.7-1.5-1.5-1.5H346c-0.8,0-1.5,0.7-1.5,1.5c0,0,0,24.6,0,43.4s10.5,23.4,24.8,23.4
			c11.8,0,21.3-6.5,21.3-6.5s0.5,3.4,0.7,3.8c0.2,0.4,0.7,0.8,1.3,0.8l11.6-0.1c0.8,0,1.5-0.7,1.5-1.5v-63.3
			C405.8,264.9,405.1,264.2,404.3,264.2z"/>
		<path id="XMLID_6_" class="st1" d="M453.2,262.1c-10.2,0-17.1,4.5-17.1,4.5v-31.9c0-0.8-0.7-1.5-1.5-1.5h-18.1
			c-0.8,0-1.5,0.7-1.5,1.5V329c0,0.8,0.7,1.5,1.5,1.5H429c0.6,0,1-0.3,1.3-0.8s0.8-4.3,0.8-4.3s7.4,7,21.4,7
			c16.4,0,25.9-8.3,25.9-37.4C478.4,265.9,463.4,262.1,453.2,262.1z M446.1,315.3c-6.2-0.2-10.4-3-10.4-3v-29.9c0,0,4.2-2.5,9.2-3
			c6.4-0.6,12.7,1.4,12.7,16.7C457.6,312.3,454.8,315.5,446.1,315.3z"/>
		<path id="XMLID_3_" class="st1" d="M255.3,264.1h-13.5v-17.9c0-0.7-0.3-1-1.1-1h-18.4c-0.7,0-1.1,0.3-1.1,1v18.5
			c0,0-9.2,2.2-9.9,2.4c-0.6,0.2-1.1,0.8-1.1,1.4v11.6c0,0.8,0.7,1.5,1.5,1.5h9.4c0,0,0,12.1,0,27.9c0,20.7,14.5,22.8,24.4,22.8
			c4.5,0,9.8-1.4,10.7-1.8c0.5-0.2,0.8-0.8,0.8-1.4v-12.8c0-0.8-0.7-1.5-1.5-1.5s-2.8,0.3-4.9,0.3c-6.6,0-8.9-3.1-8.9-7.1
			s0-26.5,0-26.5h13.5c0.8,0,1.5-0.7,1.5-1.5v-14.5C256.8,264.8,256.1,264.1,255.3,264.1z"/>
	</g>
	<g id="XMLID_292_">
		<path id="XMLID_291_" class="st1" d="M9,218.1c-33.3,0-60.4,27-60.4,60.4c0,26.7,17.3,49.3,41.3,57.3c3,0.6,4.1-1.3,4.1-2.9
			c0-1.4-0.1-6.2-0.1-11.2c-16.8,3.7-20.3-7.1-20.3-7.1c-2.7-7-6.7-8.8-6.7-8.8c-5.5-3.7,0.4-3.7,0.4-3.7c6.1,0.4,9.3,6.2,9.3,6.2
			c5.4,9.2,14.1,6.6,17.6,5c0.5-3.9,2.1-6.6,3.8-8.1c-13.4-1.5-27.5-6.7-27.5-29.8c0-6.6,2.4-12,6.2-16.2c-0.6-1.5-2.7-7.7,0.6-16
			c0,0,5.1-1.6,16.6,6.2c4.8-1.3,10-2,15.1-2s10.3,0.7,15.1,2c11.5-7.8,16.6-6.2,16.6-6.2c3.3,8.3,1.2,14.5,0.6,16
			c3.9,4.2,6.2,9.6,6.2,16.2c0,23.2-14.1,28.3-27.6,29.8c2.2,1.9,4.1,5.5,4.1,11.2c0,8.1-0.1,14.6-0.1,16.6c0,1.6,1.1,3.5,4.1,2.9
			c24-8,41.3-30.6,41.3-57.3C69.4,245.1,42.3,218.1,9,218.1z"/>
		<path id="XMLID_311_" class="st1" d="M-28.5,331.1c-0.1,0.3-0.6,0.4-1,0.2c-0.4-0.2-0.7-0.6-0.5-0.9c0.1-0.3,0.6-0.4,1-0.2
			C-28.6,330.4-28.4,330.8-28.5,331.1L-28.5,331.1z"/>
		<path id="XMLID_308_" class="st1" d="M-26.1,333.8c-0.3,0.3-0.9,0.1-1.2-0.3c-0.4-0.4-0.5-1-0.2-1.3c0.3-0.3,0.8-0.1,1.2,0.3
			C-25.9,333-25.8,333.6-26.1,333.8L-26.1,333.8z"/>
		<path id="XMLID_305_" class="st1" d="M-23.7,337.3c-0.4,0.3-1,0-1.3-0.5c-0.4-0.5-0.4-1.2,0-1.4c0.4-0.3,1,0,1.3,0.5
			C-23.3,336.4-23.3,337.1-23.7,337.3L-23.7,337.3z"/>
		<path id="XMLID_302_" class="st1" d="M-20.4,340.7c-0.3,0.4-1,0.3-1.6-0.2c-0.5-0.5-0.7-1.2-0.3-1.5c0.3-0.4,1-0.3,1.6,0.2
			C-20.3,339.6-20.1,340.3-20.4,340.7L-20.4,340.7z"/>
		<path id="XMLID_299_" class="st1" d="M-15.9,342.6c-0.1,0.5-0.8,0.7-1.5,0.5s-1.1-0.8-1-1.2c0.1-0.5,0.8-0.7,1.5-0.5
			C-16.3,341.6-15.8,342.2-15.9,342.6L-15.9,342.6z"/>
		<path id="XMLID_296_" class="st1" d="M-11,343c0,0.5-0.6,0.9-1.3,0.9c-0.7,0-1.3-0.4-1.3-0.9s0.6-0.9,1.3-0.9S-11,342.5-11,343
			L-11,343z"/>
		<path id="XMLID_293_" class="st1" d="M-6.4,342.2c0.1,0.5-0.4,1-1.1,1.1c-0.7,0.1-1.3-0.2-1.4-0.7s0.4-1,1.1-1.1
			C-7.1,341.4-6.5,341.7-6.4,342.2L-6.4,342.2z"/>
	</g>
</g>
</svg>
