<?xml version="1.0" encoding="utf-8"?>
<!-- Generator: Adobe Illustrator 19.0.0, SVG Export Plug-In . SVG Version: 6.00 Build 0)  -->
<svg version="1.1" id="Layer_1" xmlns="http://www.w3.org/2000/svg" xmlns:xlink="http://www.w3.org/1999/xlink" x="0px" y="0px"
	 viewBox="44 -187 1048.1 934" enable-background="new 44 -187 1048.1 934" xml:space="preserve">
<g id="XMLID_1_">
	<g id="XMLID_990_">
		<g>
			<defs>
				<path id="SVGID_1_" d="M793.9-129.5c-62.5-19.4-127.9-39-192.4-27.9c-64.5,11.1-126.9,63.6-125.8,129c0.3,15.7,4,31.8-0.3,46.9
					c-10,34.4-52.9,43.6-84.8,60.1c-43.3,22.4-72.4,66.3-87.3,112.8c-14.9,46.4-17.4,95.8-19.8,144.5
					c-3.5,70.7-5.7,146.6,32.1,206.5c24.1,38.1,61.9,65.3,99.9,89.6c151,96.4,320.9,162.9,497.2,194.6c70,12.6,144.9,19.2,210.1-9.4
					c77.8-34,128.1-113.8,147-196.6s10.6-169.1-0.5-253.3c-11.2-85.3-25.5-171-55.5-251.6c-30-80.7-76.7-156.8-144-210.6
					c-67.3-53.7-118.4-87-203-71.3C847.6-161.9,804.7-139.4,793.9-129.5z"/>
			</defs>
			<clipPath id="SVGID_2_">
				<use xlink:href="#SVGID_1_"  overflow="visible"/>
			</clipPath>
			
				<linearGradient id="XMLID_3_" gradientUnits="userSpaceOnUse" x1="508.05" y1="894.8531" x2="508.05" y2="378.608" gradientTransform="matrix(1 0 0 -1 0 560)">
				<stop  offset="0" style="stop-color:#FF009B"/>
				<stop  offset="0.6794" style="stop-color:#EB758D"/>
				<stop  offset="1" style="stop-color:#E2A887"/>
			</linearGradient>
			<rect id="XMLID_379_" x="-339.6" y="-676.1" clip-path="url(#SVGID_2_)" fill="url(#XMLID_3_)" width="1695.3" height="1475.5"/>
		</g>
	</g>
	
		<linearGradient id="XMLID_4_" gradientUnits="userSpaceOnUse" x1="563.0422" y1="425.341" x2="701.89" y2="122.1104" gradientTransform="matrix(1 0 0 -1 0 560)">
		<stop  offset="0" style="stop-color:#3C4CF3"/>
		<stop  offset="1" style="stop-color:#8CF6EF"/>
	</linearGradient>
	<path id="XMLID_377_" fill="url(#XMLID_4_)" d="M1089.9,40.8c-28.6-38.7-89.8-39-130.8-13.6c-40.9,25.4-66.5,69-90.3,110.8
		c-29.1,50.9-58.2,101.9-87.3,152.8c-13.6,23.8-30.3,50-57.2,55.4c-33.1,6.7-62.7-21.7-80.1-50.6c-16.7-27.7-28.6-58-45-85.9
		c-16.4-27.8-38.6-54-68.6-66.1c-39.7-16.1-86.7-4.3-121.5,20.7s-59.5,61.5-81.2,98.5C266,368.4,222.7,484.7,200.6,605
		c39.5,49.5,97.2,79.6,158,96.9c158.1,45,328.3,46.8,487.4,5.2c41.1-10.7,82.4-24.8,115.4-51.5c41.6-33.7,65.9-84,85.2-133.9
		c51.4-132.9,76.9-275.8,74.6-418.3C1120.7,78.9,1104.4,60.4,1089.9,40.8z"/>
	
		<linearGradient id="XMLID_5_" gradientUnits="userSpaceOnUse" x1="539.0637" y1="503.2408" x2="630.1075" y2="-7.2576" gradientTransform="matrix(1 0 0 -1 0 560)">
		<stop  offset="0" style="stop-color:#3C4CF3"/>
		<stop  offset="1" style="stop-color:#8CF6EF"/>
	</linearGradient>
	<path id="XMLID_376_" fill="url(#XMLID_5_)" d="M1122.6,133c-19.1,29.3-52.1,49-86.9,52c-34.8,3-70.7-10.9-94.4-36.5
		c-40.5-43.7-44.4-114.8-90.8-152.2C810.4-36,749.2-31,705.8-3.3s-72.1,73.4-94.1,120s-39,95.8-66.6,139.3
		c-12.2,19.4-26.9,37.8-46.3,50s-44.2,17.3-65.6,9.2c-47.4-18-57.4-88.4-104.9-106.2c-23.3-8.7-50.3-1.6-70.6,12.9
		s-35,35.3-48.2,56.4C150.9,371.6,61.7,646.2,47,755.3c82.6,98.1,252.9,17.8,377.9,46.3s254.2,4,381.1-14.4
		c64.5-9.4,280.9-23.3,340.3-50.1c59.4-26.9,38.8-110.9,38.8-176.1c0-81.8-0.5-67,6.7-130.2c6.1-53.2,10.3-107.2,2-160.1
		C1185.5,217.7,1162,169.2,1122.6,133z"/>
	
		<linearGradient id="XMLID_6_" gradientUnits="userSpaceOnUse" x1="625.0653" y1="314.3651" x2="756.1915" y2="-119.3605" gradientTransform="matrix(1 0 0 -1 0 560)">
		<stop  offset="0" style="stop-color:#3C4CF3"/>
		<stop  offset="1" style="stop-color:#8CF6EF"/>
	</linearGradient>
	<path id="XMLID_375_" fill="url(#XMLID_6_)" d="M1115.6,216.1c-26.9-13.1-59.9-3.9-85,12.5s-45.2,39.4-69.2,57.3
		s-54.7,31.1-83.7,23.2c-22.2-6-39.3-23.2-55.8-39.1c-25.6-24.6-52.9-48-84.3-64.4c-31.5-16.4-67.7-25.5-102.8-20
		c-64,10-110.8,64.7-146,119c-58.8,90.8-176.9,403.8-193,504c36,17.3,135-76.3,172.6-62.6c159.9,58.5,345.1-45.4,495.9-124.6
		c21.4-11.2,42.4-24,58.6-41.9c15.6-17.3,26-38.6,35.3-60C1098.8,425.8,1111.6,318.1,1115.6,216.1z"/>
	
		<linearGradient id="XMLID_7_" gradientUnits="userSpaceOnUse" x1="725.5775" y1="165.0106" x2="896.835" y2="-202.9614" gradientTransform="matrix(1 0 0 -1 0 560)">
		<stop  offset="0" style="stop-color:#3C4CF3"/>
		<stop  offset="1" style="stop-color:#8CF6EF"/>
	</linearGradient>
	<path id="XMLID_374_" fill="url(#XMLID_7_)" d="M1107.9,263.8c-18.4-30.5-84.4-37.3-118.6-27.2c-34.1,10.1-61.1,36.8-81.1,66.2
		c-20,29.5-34.3,62.4-52.6,93c-12.8,21.5-31.3,43.9-56.4,44.6c-36.4,1-60.1-44-96.4-46.9c-23.3-1.9-44,14.3-59.9,31.4
		c-40,43-146.5,354.4-154.8,412.5c9.9,16.6,154.6-28.9,172.8-22.8c18.3,6.1,125.8-28.2,145.1-27.4c102,4.3,75.1-153.8,170.8-194.9
		c12-5.2,102.1-20.7,111.5-29.8c12.4-12,4.7-52.1,7.7-69.1C1111.5,406.9,1087,347.3,1107.9,263.8z"/>
</g>
</svg>
