<?xml version="1.0" encoding="utf-8"?>
<!-- Generator: Adobe Illustrator 19.0.0, SVG Export Plug-In . SVG Version: 6.00 Build 0)  -->
<svg version="1.1" id="Layer_1" xmlns="http://www.w3.org/2000/svg" xmlns:xlink="http://www.w3.org/1999/xlink" x="0px" y="0px"
	 viewBox="0 0 355 382" style="enable-background:new 0 0 355 382;" xml:space="preserve">
<style type="text/css">
	.st0{fill:#27305A;}
	.st1{fill:#05246C;}
	.st2{fill:#B0C0FF;}
	.st3{fill:#688AFF;}
	.st4{fill:#FF0099;}
	.st5{fill:#CC0066;}
	.st6{fill:#E1B37F;}
	.st7{fill:#F1C489;}
	.st8{fill:#EFA400;}
</style>
<g id="XMLID_107_">
	<path id="XMLID_100_" class="st0" d="M291,156.5c2.7-2.5,4.5-6.3,3.4-9.8c-1.8-5.7-9.5-6.5-15.5-6.1c-1.8,0.1-3.6,0.3-5.4,0.5
		c4.2,6.2,7.4,13,9,20.2C285.6,160.1,288.6,158.7,291,156.5z"/>
	<path id="XMLID_99_" class="st0" d="M264.9,166.8c-3.5,1.1-7.1,2.2-10.6,3.2C257.8,169,261.4,167.9,264.9,166.8z"/>
	<path id="XMLID_98_" class="st0" d="M203.4,182.9c17-3.2,33.8-7.8,50.5-12.8c-14.6,4.3-29.2,8.4-44,11.5
		C207.7,182.1,205.5,182.5,203.4,182.9z"/>
	<path id="XMLID_97_" class="st0" d="M195.7,184.3c-0.8,0.1-1.6,0.3-2.4,0.4C194.1,184.5,194.9,184.4,195.7,184.3z"/>
	<path id="XMLID_96_" class="st0" d="M269.4,165.4c-0.8,0.3-1.6,0.5-2.5,0.8C267.8,165.9,268.6,165.7,269.4,165.4z"/>
	<path id="XMLID_95_" class="st0" d="M189.1,185.3c-0.5,0.1-1,0.1-1.5,0.2C188.1,185.4,188.6,185.4,189.1,185.3z"/>
	<path id="XMLID_94_" class="st0" d="M202.7,183c-1.6,0.3-3.3,0.6-4.9,0.9C199.4,183.7,201,183.4,202.7,183z"/>
	<path id="XMLID_93_" class="st0" d="M171.7,166.3c-3.1,1.3-6.2,2.5-9.3,3.9c-5.3,2.3-10.7,4.9-14,9.5c-1.1,1.5-1.9,3.4-1.3,5.1
		c0.9,2.4,4.1,2.9,6.7,2.9c6.5,0.1,13-0.2,19.5-0.7c-1.2-4.6-1.8-9.4-1.8-14.2C171.5,170.7,171.5,168.5,171.7,166.3z"/>
	<path id="XMLID_166_" class="st1" d="M252.5,216.2c-14.3,6.1-30.6,6-45.5,1.3c-2.1-0.7-4.2-1.4-6.2-2.3c-2.7-1.1-5.4-2.4-8-3.9
		c-19,4-38.2,7.1-57.6,7.1c-6.4,0-13-0.4-18.8-3.2c-5.8-2.8-10.6-8.5-10.5-14.9c0-4.6,2.5-8.8,5.3-12.5c5.9-7.8,13.6-13.9,22.1-18.8
		c2.3-1.3,4.6-2.5,7-3.7c10.2-4.9,20.9-7.9,31.8-10.9c0.5-0.2,1.1-0.3,1.6-0.5c2.1-8.1,5.7-15.8,11.2-22.2
		c15.1-17.9,46.3-20.1,66.9-10.6c2.2,1,4.2,2.2,6.2,3.6c2,1.4,3.8,2.9,5.6,4.6c3.9-0.6,7.8-1.2,11.6-1.8c12.2-1.9,24.5-3.7,36.8-3.8
		c1.9-5.1,2.9-10.3,2.4-15.8c-0.6-6.4-3.2-12.1-7.1-17.1c0,0.1,0,0.1,0,0.2c-0.9,4.3-3.7,8.2-7.3,10.7c-4.2,2.9-9.5,3.9-14.6,3.4
		c-4.4-0.5-8.9-2.4-11.4-6.1c-2-2.9-2.4-6.6-2.4-10.1c0-2.1,0.3-4.3,0.8-6.4c0.8-3.3,2.2-6.4,4.5-8.9c1.1-1.2,2.4-2.3,3.9-3.1
		c-0.1-0.1-0.3-0.1-0.4-0.2c-3.3-1.7-6.7-3.4-10.4-3.5c-2.8-0.1-5.4,0.8-8.2,1.2c-11.8,1.7-22.9-4.8-33.7-9.8
		C205,47.4,179.1,43.3,154,46.2c-16.5,1.9-34.7,8.6-40.8,24.1c-1.7,4.2-2.3,8.8-3.7,13.1c1.3,0.8,2.5,1.7,3.6,2.8
		c5.5,5,9.1,11.9,11.3,19c1.7,5.3,2.6,10.9,2.2,16.4c-0.1,1.5-0.3,3-0.6,4.4c-2,9.4-8,17.8-15.9,23.2c-9.2,6.3-20.8,8.6-31.8,7.3
		c-9.7-1.1-19.5-5.2-24.9-13.3c-4.3-6.3-5.3-14.3-5.2-22c0.1-3.4,0.4-6.8,1-10.2c-13.8,6.2-26,20.7-21.8,35.2
		c1.6,5.4,5.2,9.9,7.7,14.9c2.5,5,3.9,11.3,1,16.1c-1,1.7-2.6,3.1-3.8,4.7c-6.3,7.9-5.1,19.7-0.1,28.5c1.6,2.9,3.6,5.5,5.7,8
		c0.5-0.8,1.1-1.5,1.7-2.2c3.2-3.6,8.2-5.8,13-5.2c1.6,0.2,3.2,0.4,4.8,0.6c-0.1-0.5,0-1.1,0.3-1.6c0.2-0.3,0.4-0.6,0.7-0.9
		c0.8-0.9,2.3-0.9,3.2-0.2c1,0.8,1.2,2,0.6,3.2c-0.1,0.2-0.3,0.4-0.4,0.6c1.5,0.6,2.9,1.4,4.2,2.6c2.7,2.5,4.5,5.8,5.6,9.3
		c0.8,2.6,1.3,5.4,1.1,8.1c-0.1,0.7-0.2,1.5-0.3,2.2c-1,4.5-3.7,8.5-7.4,11.2c2.2,3.3,4,6.9,5.1,10.8c0.5,2,0.8,4.3-0.2,6.1
		c-1.2,2.1-3.8,2.9-5.7,4.4c-5.7,4.6-3.4,14.4,2.3,19.1c5.6,4.7,13.2,6,20.1,8.7c0.5,0.2,1.1,0.4,1.6,0.7c0,0,0,0,0-0.1
		c0.9-3.8,2.2-7.6,3.9-11.1c2.5-5.2,5.9-10,10.5-13.5c4.2-3.3,25.7-11.3,18.3,0.3c-6.2,9.7-11.1,17.7-9.6,29.8
		c0.9,7.5,4.6,15.1,11.4,18.3c5.7,2.7,12.5,1.8,18.1-0.9c0.7-0.3,1.4-0.7,2-1c4.8-2.7,8.9-6.4,13-10.1c1.3,8.1-2.3,16.6-8.3,22.3
		c-5.9,5.7-13.9,9-22,10.6c-1.6,0.3-3.3,0.6-5,0.7c1.8,2.6,3.1,5.6,4.8,8.2c5.7,9.1,16.6,14.7,27.3,13.9c2.6-0.2,5.4-0.8,7.3-2.6
		c2.3-2.1,3.4-5.8,6.3-6.9c2.8-1.1,5.9,0.5,8.8,0.2c4.4-0.5,6.6-4.9,7.4-9.5c0.3-1.5,0.4-3.1,0.3-4.5c-0.1-5.9-0.5-12.9,4.3-16.3
		c2.7-2,6.5-2.2,9-4.5c4.5-4.3,2.4-13.8,9.8-15.7c1.4-0.3,2.8-0.4,4.2-0.1c6.1,0.9,12.9,5.7,19.3,4.9c1.9-0.2,3.7-0.8,5.4-1.7
		c3.8-2,6.9-5.4,7.9-9.2c0.8-3.2,3.4-5.6,6.6-6.2c3.4-0.6,6.7-1.8,9.2-4c2.2-1.9,3.7-4.5,5.5-6.9c6.6-8.3,17.2-12.4,25.3-19.3
		c1.8-1.5,3.4-3.4,4.8-5.4c-2-0.4-4-1.4-5.1-3.2c-1.1-1.6-1.3-3.6-1.3-5.6c0-1.2,0.2-2.4,0.5-3.5c0.4-1.8,1.2-3.5,2.5-4.9
		c1.6-1.8,4.1-2.9,6.5-2.7c-0.5-0.9-1.1-1.8-1.9-2.6c-3.1-3.2-7.8-4.7-10.2-8.6c-1.1-1.7-1.5-3.8-0.8-5.7c1.1-2.8,3.7-3.1,6-3.8
		c10.7-3,16.3-15.5,15.9-26.6c-0.1-3.1-0.6-6.2-1.3-9.2c-8,3.6-16.1,6.7-24.4,9.5C275.1,200.9,264.8,211,252.5,216.2z M280.4,106.1
		c2,0,2,3.1,0,3.1C278.4,109.1,278.4,106.1,280.4,106.1z M253.4,89.2c2,0,2,3.1,0,3.1C251.3,92.3,251.3,89.2,253.4,89.2z
		 M243.2,72.2c1.4,0,1.4,2.2,0,2.2C241.8,74.4,241.8,72.2,243.2,72.2z M227.5,96.6c1.8,0,1.8,2.8,0,2.8
		C225.7,99.4,225.7,96.6,227.5,96.6z M164.3,126.5c-1,1.9-4.2,1.9-5.1,0c-0.3-0.6-0.5-1.1-0.5-1.8c0-0.7,0.2-1.2,0.5-1.8
		c0.4-0.9,1.6-1.5,2.6-1.5c1,0,2.2,0.6,2.6,1.5c0.3,0.6,0.5,1.1,0.5,1.8C164.7,125.4,164.6,125.9,164.3,126.5z M182.5,127
		c-1.9,0-1.9-2.9,0-2.9C184.4,124.1,184.4,127,182.5,127z M214.9,73.3c0.2-0.2,0.4-0.3,0.6-0.5c0.6-0.5,1.2-0.8,2-0.8
		c0.7,0,1.4,0.3,2,0.8c0.5,0.5,0.8,1.3,0.8,2c0,0.8-0.3,1.4-0.8,2c-0.2,0.2-0.3,0.4-0.5,0.6c-0.5,0.6-1.3,0.8-2,0.8
		c-0.8,0-1.5-0.3-2-0.8c-0.5-0.5-0.8-1.3-0.8-2C214,74.7,214.3,73.7,214.9,73.3z M156.8,80.9c0.1-2.7,0.4-5.4,1-8
		c1-4.1,2.8-7.9,5.6-11c3.7-4.1,9.4-6.7,15-6.1c5.4,0.6,11.2,1.2,15.4,5.1c3.1,2.9,5.2,6.8,6.4,10.8c0.9,3,1.5,6.2,1.3,9.3
		c-0.1,0.8-0.2,1.7-0.4,2.5c-1.1,5.3-4.5,10.2-9.1,13.2c-5.2,3.6-11.8,4.9-18.1,4.2c-5.5-0.6-11.1-3-14.2-7.6
		C157.3,89.8,156.7,85.2,156.8,80.9z M145.4,99.2c-1.5,0-1.5-2.4,0-2.4C146.9,96.8,146.9,99.2,145.4,99.2z M142.8,65.8
		c0.1-0.4,0.2-0.7,0.5-0.9c0.3-0.7,1.2-1.3,1.9-1c0.1,0,0.2,0.1,0.4,0.1c1.2,0.4,1.6,1.8,0.7,2.7c-0.7,0.7-1.6,0.9-2.5,0.7
		C143.1,67.3,142.7,66.5,142.8,65.8z M120.1,158c1.7,0,1.7,2.7,0,2.7C118.4,160.7,118.4,158,120.1,158z M38,143.4
		C38,143.4,38,143.5,38,143.4c-0.5,0.4-1.2,0.4-1.7,0.3c-0.4-0.1-0.6-0.3-0.9-0.5c-1-0.6-1-2.4,0-2.9c0.2-0.2,0.5-0.4,0.8-0.5
		c0.4-0.1,1.2-0.1,1.6,0.2c0,0,0.1,0,0.1,0.1c0.6,0.4,1,0.9,1,1.7C39,142.5,38.6,143,38,143.4z M53.2,185.2c-1.5,0-1.5-2.3,0-2.3
		C54.7,182.9,54.7,185.2,53.2,185.2z M76.9,277.2c-0.2,0-0.4-0.1-0.5-0.1c-0.6-0.1-1-0.8-1.1-1.4c0-0.6,0.5-1.3,1.1-1.4
		c0.2,0,0.4-0.1,0.5-0.1c1-0.2,2,0.4,2,1.5C78.9,276.8,77.9,277.4,76.9,277.2z M81.4,167.3c-0.5,0.7-1.4,1.1-2.3,0.9
		c-0.5-0.1-1-0.5-1.3-1c-0.3-0.5-0.3-1.1-0.2-1.7c0-0.2,0-0.3,0.1-0.5c0.1-0.7,0.9-1.4,1.5-1.5c0.3-0.1,0.7-0.1,1-0.1
		c1,0,1.8,0.7,2,1.6C82.5,165.8,82.1,166.8,81.4,167.3z M87.5,187.1c1.9,0,1.9,3,0,3C85.6,190.1,85.6,187.1,87.5,187.1z M88.6,243.1
		c-1.4,0-1.4-2.2,0-2.2C90,240.9,90,243.1,88.6,243.1z M103.8,216c-2,0-2-3.1,0-3.1C105.8,212.9,105.8,216,103.8,216z M110.5,229.4
		c-1.8,0-1.8-2.9,0-2.9C112.4,226.5,112.4,229.4,110.5,229.4z M128.7,240.8c-0.5,0.6-1.1,1.1-1.9,1.1c-0.8,0-1.4-0.4-1.9-1.1
		c-0.3-0.4-0.4-1-0.4-1.5c0-0.7,0.3-1.3,0.7-1.8c0.8-0.8,2.3-0.8,3.1,0c0.4,0.5,0.7,1.1,0.7,1.8C129.1,239.9,129,240.4,128.7,240.8z
		 M142.1,295.7c0,0-0.1,0-0.1,0.1c-0.9,0.5-2,0.4-2.8-0.4c-0.8-0.7-0.8-1.9-0.4-2.8l0.1-0.1c0.7-1.3,2.6-1.5,3.7-0.5
		C143.6,293.1,143.4,295,142.1,295.7z M152.4,252.9c-0.1,0.1-0.1,0.2-0.2,0.2c0,0,0,0,0,0c-0.1,0.1-0.1,0.1-0.2,0.2
		c-0.1,0.1-0.1,0.1-0.2,0.2c-0.1,0.1-0.2,0.1-0.3,0.1c-0.1,0-0.1,0.1-0.2,0.1c-0.1,0-0.2,0-0.3,0.1c-0.1,0-0.2,0-0.3,0.1
		c-0.1,0-0.2,0-0.2,0c-0.1,0-0.2,0-0.3,0c-0.1,0-0.1,0-0.2,0c-0.1,0-0.2,0-0.4-0.1c-0.1,0-0.1-0.1-0.2-0.1c-0.1,0-0.2-0.1-0.3-0.2
		c-0.1,0-0.1-0.1-0.2-0.1c-0.1-0.1-0.2-0.1-0.2-0.2c0,0,0,0,0,0c-0.1-0.1-0.1-0.1-0.2-0.2c-0.6-0.7-0.8-1.6-0.7-2.5
		c0.1-0.7,0.3-1.3,0.8-1.9c0.5-0.5,1.2-0.7,1.9-0.8c0.7,0,1.4,0.3,1.9,0.8c0.5,0.5,0.7,1.2,0.8,1.9
		C153.2,251.3,153,252.2,152.4,252.9z M166.8,275.7c1.5,0,1.5,2.3,0,2.3C165.3,278,165.3,275.7,166.8,275.7z M166.8,304.1
		c-1.7,0-1.7-2.7,0-2.7C168.5,301.4,168.5,304.1,166.8,304.1z M201.6,241.5c2,0,2,3.1,0,3.1C199.6,244.7,199.6,241.5,201.6,241.5z
		 M174.1,230.7c1.6,0,1.5,2.4,0,2.4C172.5,233.1,172.5,230.7,174.1,230.7z M170.1,337.5c-2.1,0-2.1-3.2,0-3.2
		C172.2,334.3,172.2,337.5,170.1,337.5z M208.6,278.9c-0.1,0.7-0.2,1.5-0.3,2.2c-1,4.6-3.9,8.8-7.9,11.4c-4.5,3.1-10.2,4.2-15.7,3.6
		c-4.8-0.5-9.6-2.6-12.3-6.5c-2.1-3.1-2.6-7.1-2.5-10.8c0-2.3,0.3-4.6,0.9-6.9c0.9-3.5,2.4-6.9,4.8-9.6c3.2-3.6,8.2-5.8,13-5.2
		c0.3,0,0.7,0.1,1,0.1c0.2-0.2,0.5-0.3,0.8-0.3c0.5,0,0.8,0.2,1.1,0.5c3.8,0.5,7.6,1.4,10.5,4c2.7,2.5,4.5,5.8,5.6,9.3
		C208.3,273.4,208.8,276.2,208.6,278.9z M213.6,227.9c-0.3,1.3-2.2,1.9-3.2,0.8c0,0,0,0,0,0c-0.9-0.4-1.4-1.1-1.3-2.2
		c0.2-1.1,1.4-2.2,2.6-1.8c0.1,0.1,0.3,0.1,0.4,0.2c0.9,0.4,1.4,1,1.5,2C213.7,227.2,213.7,227.6,213.6,227.9z M239.2,277.1
		c-0.1,0.2-0.2,0.3-0.3,0.5c-0.5,0.7-1.4,1-2.1,0.4c-0.6-0.5-0.7-1.2-0.4-1.8c0.1-0.5,0.5-0.9,0.9-1.1c0.2-0.1,0.4-0.1,0.7-0.1
		c0.5,0.1,0.9,0.2,1.2,0.7C239.4,276.1,239.5,276.7,239.2,277.1z M242.2,238.1c-0.3,1.2-1.5,1.9-2.7,1.7c-1.2-0.2-2.1-1.2-2.1-2.4
		c0,0,0,0,0,0c0-0.3,0-0.6,0.1-0.9c0,0,0,0,0-0.1c0,0,0,0,0,0c0,0,0,0,0,0c0.4-1.1,1.4-1.9,2.6-1.7c1.2,0.2,2.1,1.2,2.1,2.4
		C242.4,237.5,242.3,237.8,242.2,238.1z M263.2,238.6c-1.6,0-1.6-2.5,0-2.5C264.8,236.1,264.8,238.6,263.2,238.6z M266.9,261.3
		c-1.8,0-1.8-2.7,0-2.7C268.6,258.6,268.6,261.3,266.9,261.3z"/>
	<path id="XMLID_58_" class="st2" d="M207.1,217.5c0.1-0.1,0.1-0.1,0.2-0.2c4.9-5.2,15.3-4.7,17.4-11.6c0.2-0.6,0.3-1.2,0.3-1.8
		c-1.9,0.5-3.8,0.9-5.7,1.4c-8.7,2.1-17.5,4.1-26.3,6c2.6,1.5,5.2,2.8,8,3.9C202.9,216.1,205,216.8,207.1,217.5z"/>
	<path id="XMLID_57_" class="st3" d="M207.3,217.3c-0.1,0.1-0.1,0.1-0.2,0.2c14.8,4.7,31.2,4.7,45.5-1.3
		c12.2-5.2,22.6-15.3,27.7-27.4c-1.2,0.4-2.4,0.8-3.6,1.2c-0.4,0.1-0.8,0.3-1.2,0.4c-0.8,0.3-1.6,0.5-2.4,0.8
		c-0.5,0.2-1,0.3-1.5,0.5c-0.7,0.2-1.4,0.4-2.1,0.7c-0.5,0.2-1.1,0.3-1.6,0.5c-0.7,0.2-1.3,0.4-2,0.6c-0.6,0.2-1.1,0.3-1.7,0.5
		c-0.6,0.2-1.3,0.4-1.9,0.6c-0.6,0.2-1.2,0.3-1.8,0.5c-0.6,0.2-1.2,0.3-1.8,0.5c-0.6,0.2-1.2,0.3-1.8,0.5c-0.6,0.2-1.2,0.3-1.7,0.5
		c-0.7,0.2-1.3,0.4-2,0.5c-0.5,0.1-1,0.3-1.5,0.4c-0.7,0.2-1.5,0.4-2.2,0.6c-0.3,0.1-0.6,0.2-1,0.2c-7.8,2-15.7,3.9-23.5,5.8
		c0,0.6-0.1,1.2-0.3,1.8C222.6,212.6,212.2,212.1,207.3,217.3z"/>
	<path id="XMLID_56_" class="st3" d="M252.4,136.9c-3.6,2.3-8.1,2.6-12,4.1s-7.8,5.6-6.4,9.6c1.2,3.4,5.3,4.7,8.4,6.5
		c3.2,1.8,5.7,6.5,2.9,8.8c-0.8,0.6-1.8,0.9-2.8,1c-6.9,1.2-14.1,0.2-20.9,2c-6,1.6-11.8,6.9-11.8,12.8c14.8-3.1,29.5-7.1,44-11.5
		c0.1,0,0.3-0.1,0.4-0.1c3.5-1.1,7.1-2.1,10.6-3.2c0.7-0.2,1.4-0.4,2-0.6c0.8-0.3,1.6-0.5,2.5-0.8c1.5-0.5,3-0.9,4.5-1.4
		c0.1,0,0.2-0.1,0.3-0.1c1.4-0.4,2.7-0.8,4.1-1.3c1.4-0.4,2.8-0.9,4.2-1.4c-1.6-7.2-4.8-14-9-20.2c-2.3-3.3-4.8-6.5-7.6-9.4
		c-0.8-0.8-1.6-1.6-2.5-2.4c-1.8-1.6-3.6-3.2-5.6-4.6C258.1,129.5,256.4,134.3,252.4,136.9z"/>
	<path id="XMLID_55_" class="st2" d="M221.6,168.9c6.8-1.8,14-0.8,20.9-2c1-0.2,2-0.4,2.8-1c2.8-2.3,0.3-7-2.9-8.8
		c-3.2-1.8-7.3-3-8.4-6.5c-1.4-4,2.4-8.1,6.4-9.6s8.5-1.8,12-4.1c4-2.6,5.7-7.4,5.5-12.2c-2-1.4-4-2.6-6.2-3.6
		c-20.5-9.5-51.8-7.3-66.9,10.6c-5.4,6.4-9.1,14.1-11.2,22.2c-1,4.1-1.7,8.3-2,12.5c-0.2,2.2-0.2,4.4-0.2,6.6
		c0.1,4.8,0.6,9.6,1.8,14.2c1.4-0.1,2.8-0.2,4.2-0.4c0.3,0,0.7-0.1,1-0.1c1.2-0.1,2.5-0.3,3.7-0.4c0.1,0,0.3,0,0.4-0.1
		c1.6-0.2,3.3-0.4,4.9-0.6c0.5-0.1,1-0.1,1.5-0.2c1.4-0.2,2.8-0.4,4.2-0.6c0.8-0.1,1.6-0.3,2.4-0.4c0.7-0.1,1.4-0.2,2.1-0.4
		c1.6-0.3,3.3-0.6,4.9-0.9c0.2,0,0.5-0.1,0.7-0.1c2.2-0.4,4.3-0.8,6.5-1.3C209.8,175.7,215.6,170.5,221.6,168.9z"/>
	<path id="XMLID_54_" class="st4" d="M347.9,134.3c-2.5-5.2-8.5-7.5-14.1-8.7c-7.2-1.5-14.5-2.1-21.9-2c-12.3,0.1-24.6,1.9-36.8,3.8
		c-3.8,0.6-7.7,1.2-11.6,1.8c0.8,0.8,1.7,1.6,2.5,2.4c2.8,2.9,5.4,6,7.6,9.4c1.8-0.2,3.6-0.3,5.4-0.5c6-0.4,13.6,0.4,15.5,6.1
		c1.1,3.5-0.7,7.3-3.4,9.8c-2.4,2.2-5.4,3.6-8.5,4.8c-1.4,0.5-2.8,1-4.2,1.4c-1.4,0.4-2.7,0.8-4.1,1.3c-0.1,0-0.2,0.1-0.3,0.1
		c-1.5,0.5-3,0.9-4.5,1.4c-0.8,0.3-1.6,0.5-2.5,0.8c-0.7,0.2-1.4,0.4-2,0.6c-3.5,1.1-7.1,2.2-10.6,3.2c-0.1,0-0.3,0.1-0.4,0.1
		c-16.7,5-33.5,9.5-50.5,12.8c-0.2,0-0.5,0.1-0.7,0.1c-1.6,0.3-3.3,0.6-4.9,0.9c-0.7,0.1-1.4,0.2-2.1,0.4c-0.8,0.1-1.6,0.3-2.4,0.4
		c-1.4,0.2-2.8,0.4-4.2,0.6c-0.5,0.1-1,0.1-1.5,0.2c-1.6,0.2-3.3,0.4-4.9,0.6c-0.1,0-0.3,0-0.4,0.1c-1.2,0.1-2.5,0.3-3.7,0.4
		c-0.3,0-0.7,0.1-1,0.1c-1.4,0.1-2.8,0.3-4.2,0.4c-6.5,0.5-13,0.8-19.5,0.7c-2.6,0-5.8-0.5-6.7-2.9c-0.7-1.7,0.2-3.6,1.3-5.1
		c3.3-4.6,8.8-7.2,14-9.5c3.1-1.3,6.2-2.6,9.3-3.9c0.3-4.2,0.9-8.4,2-12.5c-0.5,0.2-1.1,0.3-1.6,0.5c-10.8,3.1-21.6,6.1-31.8,10.9
		c-2.4,1.1-4.7,2.3-7,3.7c-2.9,4.8-4.6,10.3-4.6,15.9c0,4,0.8,8.2-0.3,12c-0.6,2.1-1.7,4.2-1.3,6.3c0.5,2,2.3,3.4,4.3,4
		c9.6,3,17.6-9.2,27.6-9.9c6-0.4,11.5,3.4,17.5,4.3c12.2,1.9,22.9-8.4,35.1-10.4c9.3-1.5,19,1.8,28.1-0.6
		c9.6-2.5,16.9-11.1,26.7-12.6c3.4-0.5,6.9-0.2,10.3-0.5c6.5-0.7,12.3-4.1,18.2-6.9c12.1-5.8,26.1-9.3,39.1-7.6
		c7.2-5.3,13.4-12,14.6-20.7C349.2,139.6,349,136.8,347.9,134.3z"/>
	<path id="XMLID_53_" class="st5" d="M295,170.5c-5.9,2.8-11.7,6.2-18.2,6.9c-3.4,0.4-6.9,0-10.3,0.5c-9.8,1.5-17.1,10.1-26.7,12.6
		c-9.1,2.4-18.8-0.9-28.1,0.6c-12.2,2-22.9,12.3-35.1,10.4c-6-0.9-11.5-4.7-17.5-4.3c-10,0.7-18.1,12.9-27.6,9.9
		c-1.9-0.6-3.8-2-4.3-4c-0.5-2.1,0.7-4.2,1.3-6.3c1.1-3.9,0.3-8,0.3-12c0-5.6,1.7-11.1,4.6-15.9c-8.4,4.9-16.1,11-22.1,18.8
		c-2.8,3.7-5.3,7.9-5.3,12.5c-0.1,6.4,4.7,12.1,10.5,14.9c5.8,2.8,12.4,3.2,18.8,3.2c19.4,0,38.6-3,57.6-7.1
		c8.8-1.9,17.6-3.9,26.3-6c1.9-0.5,3.8-0.9,5.7-1.4c7.8-1.9,15.7-3.8,23.5-5.8c0.3-0.1,0.6-0.2,1-0.2c0.7-0.2,1.5-0.4,2.2-0.6
		c0.5-0.1,1-0.3,1.5-0.4c0.7-0.2,1.3-0.4,2-0.5c0.6-0.2,1.2-0.3,1.7-0.5c0.6-0.2,1.2-0.3,1.8-0.5c0.6-0.2,1.2-0.3,1.8-0.5
		c0.6-0.2,1.2-0.3,1.8-0.5c0.6-0.2,1.3-0.4,1.9-0.6c0.6-0.2,1.1-0.3,1.7-0.5c0.7-0.2,1.3-0.4,2-0.6c0.5-0.2,1.1-0.3,1.6-0.5
		c0.7-0.2,1.4-0.4,2.1-0.7c0.5-0.2,1-0.3,1.5-0.5c0.8-0.2,1.6-0.5,2.4-0.8c0.4-0.1,0.8-0.3,1.2-0.4c1.2-0.4,2.4-0.8,3.6-1.2
		c8.3-2.8,16.4-5.9,24.4-9.5c8-3.6,15.8-7.6,23.4-12.2c2.1-1.3,4.2-2.7,6.2-4.1C321.1,161.2,307.2,164.8,295,170.5z"/>
	<path id="XMLID_52_" class="st3" d="M93.6,302.5c-0.1-1.8-1.7-3.3-1.7-5.1c0-1.9,1.5-3.3,2.3-5c0.9-1.9,0.6-4.4-0.6-6.1
		c-0.5-0.7-1.1-1.2-1.8-1.7c-1.7,3.6-3,7.3-3.9,11.1c0,0,0,0,0,0.1c-0.7,3.1-1.3,6.3-1.5,9.4c0.5,0.4,1,0.8,1.7,1
		C90.5,307.2,93.8,305.2,93.6,302.5z"/>
	<path id="XMLID_51_" class="st3" d="M147.2,329.9c5.9-5.7,9.6-14.2,8.3-22.3c-4.1,3.7-8.2,7.4-13,10.1c0,0.9,0.1,1.8,0.3,2.6
		c0.3,1.4,0.9,2.7,0.7,4.1c-0.3,1.5-1.4,2.7-2.7,3.7c-5.5,4.3-13.3,5.5-19.9,3.1c-1.5-0.6-3-1.3-4.7-1.4c-2.9-0.1-5.5,1.9-8.4,2.1
		c-5.2,0.5-9-4.6-13.9-6.4c-1.5-0.6-3.1-0.8-4.6-0.8c2.5,5.5,6.5,10.3,11.8,13.2c5.7,3.2,12.5,3.9,19,3.3c1.7-0.2,3.3-0.4,5-0.7
		C133.3,338.9,141.3,335.7,147.2,329.9z"/>
	<path id="XMLID_50_" class="st2" d="M108,331.9c2.9-0.3,5.5-2.3,8.4-2.1c1.6,0.1,3.1,0.8,4.7,1.4c6.6,2.4,14.3,1.2,19.9-3.1
		c1.2-0.9,2.4-2.1,2.7-3.7c0.2-1.4-0.4-2.8-0.7-4.1c-0.2-0.9-0.3-1.7-0.3-2.6c-0.7,0.4-1.3,0.7-2,1c-5.6,2.7-12.5,3.6-18.1,0.9
		c-6.8-3.2-10.5-10.9-11.4-18.3c-1.5-12.1,3.4-20.1,9.6-29.8c7.4-11.7-14.1-3.6-18.3-0.3c-4.5,3.6-8,8.3-10.5,13.5
		c0.7,0.4,1.3,1,1.8,1.7c1.2,1.7,1.5,4.1,0.6,6.1c-0.8,1.7-2.3,3.1-2.3,5c0,1.8,1.5,3.3,1.7,5.1c0.2,2.7-3.1,4.6-5.6,3.8
		c-0.6-0.2-1.2-0.5-1.7-1c-0.3,4.7-0.1,9.4,1.1,14c0.5,1.8,1.1,3.7,1.9,5.4c1.6-0.1,3.2,0.2,4.6,0.8
		C98.9,327.4,102.8,332.4,108,331.9z"/>
	<path id="XMLID_49_" class="st5" d="M53.3,143.3c5.4,8.1,15.3,12.2,24.9,13.3c11,1.2,22.6-1.1,31.8-7.3c8-5.4,13.9-13.9,15.9-23.2
		c-5.4,0.8-8.4,11.5-14.2,9.8v0c-0.2-3.8-4.5-5.9-7.6-3.7c-1.3,0.9-2.6,1.8-3.9,2.7c-0.9,0.6-1.8,1.2-3.1,0.5
		c-1.3-0.7-2-2.2-1.8-3.7c0.7-5.1,4.8-8.4,8.1-11.9c3-3.2,5.6-7.5,4.2-11.7c-5.6-0.5-11.1,2.1-15.5,5.7c-4.4,3.6-8,8-12,11.9
		c-1.6,1.5-3.9,3-5.7,1.5c-1-0.9-1.4-2.3-1-3.6c1.5-5.3,9.6-6.4,4.3-16.4c-6-1.2-8.8,11-14.7,9.2c0.8-4.9,2.9-9.6,5.9-13.5
		c1.7-2.2,3.9-4.6,3-7.5c-0.7-2.3-3-3.6-5.4-3.5c-4.5,0.2-7.3,3.7-9.8,6.9c-2.3,2.9-4.6,5.9-6.9,8.8c-0.3,1.3-0.6,2.5-0.8,3.8
		c-0.6,3.4-0.9,6.8-1,10.2C48,129,49.1,136.9,53.3,143.3z"/>
	<path id="XMLID_48_" class="st4" d="M66.6,91.6c2.4-0.1,4.7,1.2,5.4,3.5c0.9,2.9-1.3,5.3-3,7.5c-3.1,3.9-5.1,8.6-5.9,13.5
		c5.9,1.8,8.6-10.4,14.7-9.2c5.3,10-2.8,11-4.3,16.4c-0.4,1.3,0,2.7,1,3.6c1.8,1.5,4.2,0,5.7-1.5c4.1-3.9,7.6-8.4,12-11.9
		c4.4-3.6,9.9-6.2,15.5-5.7c1.3,4.1-1.3,8.5-4.2,11.7c-3.3,3.6-7.4,6.9-8.1,11.9c-0.2,1.5,0.5,3,1.8,3.7c1.3,0.7,2.2,0.1,3.1-0.5
		c1.3-0.9,2.6-1.8,3.9-2.7c3.1-2.1,7.4,0,7.6,3.7v0c5.8,1.7,8.7-9,14.2-9.8c0.3-1.4,0.5-2.9,0.6-4.4c0.4-5.5-0.5-11.1-2.2-16.4
		c-2.2-7.1-5.8-13.9-11.3-19c-1.1-1.1-2.4-2-3.6-2.8c-6.9-4.3-15.4-5.2-23.5-6.1c-9.8-1.2-19.9,3.4-26.3,10.6
		c-4.9,5.5-8,12.2-9.8,19.4c2.3-2.9,4.6-5.9,6.9-8.8C59.4,95.3,62.2,91.8,66.6,91.6z"/>
	<path id="XMLID_47_" class="st3" d="M216.9,78.3c0.7,0,1.6-0.3,2-0.8c0.2-0.2,0.3-0.4,0.5-0.6c0.5-0.6,0.8-1.2,0.8-2
		c0-0.7-0.3-1.5-0.8-2c-0.5-0.5-1.2-0.9-2-0.8c-0.8,0-1.4,0.3-2,0.8c-0.2,0.2-0.4,0.3-0.6,0.5c-0.5,0.4-0.8,1.4-0.8,2
		c0,0.7,0.3,1.6,0.8,2C215.4,77.9,216.1,78.3,216.9,78.3z"/>
	<path id="XMLID_46_" class="st3" d="M253.4,92.3c2,0,2-3.1,0-3.1C251.3,89.2,251.3,92.3,253.4,92.3z"/>
	<path id="XMLID_45_" class="st3" d="M280.4,109.1c2,0,2-3.1,0-3.1C278.4,106.1,278.4,109.1,280.4,109.1z"/>
	<path id="XMLID_44_" class="st3" d="M80.2,163.4c-0.4,0-0.7,0-1,0.1c-0.7,0.2-1.4,0.8-1.5,1.5c0,0.2,0,0.3-0.1,0.5
		c-0.1,0.6-0.1,1.1,0.2,1.7c0.3,0.4,0.8,0.9,1.3,1c0.9,0.2,1.8-0.1,2.3-0.9c0.7-0.5,1.1-1.5,0.9-2.3
		C81.9,164.1,81.1,163.4,80.2,163.4z"/>
	<path id="XMLID_43_" class="st3" d="M87.5,187.1c-1.9,0-1.9,3,0,3C89.4,190.1,89.4,187.1,87.5,187.1z"/>
	<path id="XMLID_42_" class="st3" d="M120.1,160.7c1.7,0,1.7-2.7,0-2.7C118.4,158,118.4,160.7,120.1,160.7z"/>
	<path id="XMLID_41_" class="st3" d="M152.3,248.5c-0.5-0.5-1.2-0.8-1.9-0.8c-0.7,0-1.4,0.3-1.9,0.8c-0.5,0.5-0.7,1.1-0.8,1.9
		c-0.1,0.9,0.1,1.8,0.7,2.5c0.1,0.1,0.1,0.1,0.2,0.2c0,0,0,0,0,0c0.1,0.1,0.2,0.1,0.2,0.2c0.1,0,0.1,0.1,0.2,0.1
		c0.1,0.1,0.2,0.1,0.3,0.2c0.1,0,0.1,0.1,0.2,0.1c0.1,0,0.2,0.1,0.4,0.1c0.1,0,0.1,0,0.2,0c0.1,0,0.2,0,0.3,0c0.1,0,0.2,0,0.2,0
		c0.1,0,0.2,0,0.3-0.1c0.1,0,0.2,0,0.3-0.1c0.1,0,0.2-0.1,0.2-0.1c0.1,0,0.2-0.1,0.3-0.1c0.1,0,0.1-0.1,0.2-0.2
		c0.1-0.1,0.2-0.1,0.2-0.2c0,0,0,0,0,0c0.1-0.1,0.1-0.2,0.2-0.2c0.6-0.7,0.8-1.6,0.7-2.4C153.1,249.7,152.9,249.1,152.3,248.5z"/>
	<path id="XMLID_40_" class="st3" d="M166.8,278c1.5,0,1.5-2.3,0-2.3C165.3,275.7,165.3,278,166.8,278z"/>
	<path id="XMLID_39_" class="st3" d="M166.8,301.4c-1.7,0-1.7,2.7,0,2.7C168.5,304.1,168.5,301.4,166.8,301.4z"/>
	<path id="XMLID_38_" class="st3" d="M201.6,244.7c2,0,2-3.1,0-3.1C199.6,241.5,199.6,244.7,201.6,244.7z"/>
	<path id="XMLID_37_" class="st3" d="M263.2,236.1c-1.6,0-1.6,2.5,0,2.5C264.8,238.6,264.8,236.1,263.2,236.1z"/>
	<path id="XMLID_36_" class="st3" d="M238,275c-0.2,0-0.5,0-0.7,0.1c-0.4,0.2-0.8,0.6-0.9,1.1c-0.3,0.6-0.2,1.3,0.4,1.8
		c0.7,0.5,1.6,0.3,2.1-0.4c0.1-0.2,0.2-0.3,0.3-0.5c0.3-0.4,0.2-1,0-1.4C238.9,275.2,238.5,275,238,275z"/>
	<path id="XMLID_35_" class="st3" d="M62,212.3c0.5-1.1,0.4-2.4-0.6-3.2c-0.9-0.7-2.4-0.7-3.2,0.2c-0.2,0.3-0.5,0.5-0.7,0.9
		c-0.3,0.5-0.3,1.1-0.3,1.6c1.5,0.3,3,0.6,4.4,1.2C61.8,212.7,61.9,212.5,62,212.3z"/>
	<path id="XMLID_34_" class="st3" d="M88.6,240.9c-1.4,0-1.4,2.2,0,2.2C90,243.1,90,240.9,88.6,240.9z"/>
	<path id="XMLID_33_" class="st2" d="M161.7,121.5c-1,0-2.2,0.6-2.6,1.5c-0.3,0.6-0.5,1.1-0.5,1.8c0,0.7,0.2,1.2,0.5,1.8
		c1,1.9,4.2,1.9,5.1,0c0.3-0.6,0.5-1.1,0.5-1.8c0-0.7-0.2-1.2-0.5-1.8C163.9,122,162.7,121.5,161.7,121.5z"/>
	<path id="XMLID_32_" class="st2" d="M182.5,124.1c-1.9,0-1.9,2.9,0,2.9C184.4,127,184.4,124.1,182.5,124.1z"/>
	<path id="XMLID_31_" class="st2" d="M145.4,96.8c-1.5,0-1.5,2.4,0,2.4C146.9,99.2,146.9,96.8,145.4,96.8z"/>
	<path id="XMLID_30_" class="st2" d="M103.8,212.9c-2,0-2,3.1,0,3.1C105.8,216,105.8,212.9,103.8,212.9z"/>
	<path id="XMLID_29_" class="st2" d="M110.5,226.5c-1.8,0-1.8,2.9,0,2.9C112.4,229.4,112.4,226.5,110.5,226.5z"/>
	<path id="XMLID_28_" class="st2" d="M125.3,237.6c-0.4,0.5-0.7,1.1-0.7,1.8c0,0.5,0.1,1,0.4,1.5c0.5,0.6,1.1,1.1,1.9,1.1
		c0.8,0,1.4-0.4,1.9-1.1c0.3-0.4,0.4-1,0.4-1.5c0-0.7-0.3-1.3-0.7-1.8C127.6,236.8,126,236.8,125.3,237.6z"/>
	<path id="XMLID_27_" class="st2" d="M38,140C38,140,38,140,38,140c-0.5-0.4-1.2-0.4-1.7-0.3c-0.3,0.1-0.6,0.3-0.8,0.5
		c-1,0.6-1.1,2.3,0,2.9c0.2,0.2,0.5,0.4,0.9,0.5c0.5,0.1,1.2,0.1,1.6-0.2c0,0,0.1,0,0.1-0.1c0.6-0.4,1-0.9,1-1.7
		C39,140.9,38.6,140.4,38,140z"/>
	<path id="XMLID_26_" class="st2" d="M53.2,182.9c-1.5,0-1.5,2.3,0,2.3C54.7,185.2,54.7,182.9,53.2,182.9z"/>
	<path id="XMLID_25_" class="st2" d="M212.2,224.9c-0.1-0.1-0.3-0.1-0.4-0.2c-1.2-0.5-2.5,0.6-2.6,1.8c-0.1,1,0.4,1.8,1.3,2.2
		c0,0,0,0,0,0c0.9,1.1,2.9,0.5,3.2-0.8c0.1-0.3,0.1-0.6,0.1-1C213.6,225.9,213.1,225.3,212.2,224.9z"/>
	<path id="XMLID_24_" class="st2" d="M174.1,233.1c1.5,0,1.6-2.4,0-2.4C172.5,230.7,172.5,233.1,174.1,233.1z"/>
	<path id="XMLID_23_" class="st2" d="M190.4,256.9c-0.4,0-0.6,0.1-0.8,0.3c0.6,0.1,1.3,0.2,1.9,0.2
		C191.2,257.2,190.9,256.9,190.4,256.9z"/>
	<path id="XMLID_22_" class="st2" d="M138.9,292.5l-0.1,0.1c-0.5,0.9-0.4,2.1,0.4,2.8c0.8,0.7,1.8,0.8,2.8,0.4c0,0,0.1,0,0.1-0.1
		c1.3-0.7,1.5-2.6,0.5-3.7C141.5,291,139.6,291.2,138.9,292.5z"/>
	<path id="XMLID_21_" class="st2" d="M170.1,334.3c-2.1,0-2.1,3.2,0,3.2C172.2,337.5,172.2,334.3,170.1,334.3z"/>
	<path id="XMLID_20_" class="st2" d="M76.9,274.2c-0.2,0-0.4,0.1-0.5,0.1c-0.6,0.1-1.1,0.8-1.1,1.4c0,0.6,0.4,1.3,1.1,1.4
		c0.2,0,0.4,0.1,0.5,0.1c1,0.2,2-0.4,2-1.5C78.9,274.7,77.9,274.1,76.9,274.2z"/>
	<path id="XMLID_19_" class="st2" d="M240.3,234.8c-1.2-0.2-2.2,0.6-2.6,1.7c0,0,0,0,0,0c0,0,0,0,0,0c0,0,0,0,0,0.1
		c-0.1,0.3-0.1,0.6-0.1,0.9c0,0,0,0,0,0c0,1.2,0.9,2.2,2.1,2.4c1.2,0.2,2.4-0.6,2.7-1.7c0.1-0.3,0.1-0.6,0.1-1
		C242.3,235.9,241.5,234.9,240.3,234.8z"/>
	<path id="XMLID_18_" class="st2" d="M266.9,258.6c-1.8,0-1.8,2.7,0,2.7C268.6,261.3,268.6,258.6,266.9,258.6z"/>
	<path id="XMLID_17_" class="st2" d="M243.2,74.4c1.4,0,1.4-2.2,0-2.2C241.8,72.2,241.8,74.4,243.2,74.4z"/>
	<path id="XMLID_16_" class="st2" d="M227.5,99.4c1.8,0,1.8-2.8,0-2.8C225.7,96.6,225.7,99.4,227.5,99.4z"/>
	<path id="XMLID_15_" class="st2" d="M143.9,67.4c0.9,0.2,1.8,0,2.5-0.7c0.9-0.9,0.5-2.3-0.7-2.7c-0.1,0-0.2-0.1-0.4-0.1
		c-0.8-0.3-1.7,0.3-1.9,1c-0.3,0.2-0.5,0.5-0.5,0.9C142.7,66.5,143.1,67.3,143.9,67.4z"/>
	<path id="XMLID_14_" class="st5" d="M201.3,285.9c-0.1-1.9-2.2-2.9-3.8-1.8c-0.6,0.4-1.3,0.9-1.9,1.3c-0.4,0.3-0.9,0.6-1.5,0.3
		c-0.6-0.3-1-1.1-0.9-1.8c0.3-2.5,2.3-4.1,4-5.9c1.5-1.6,2.8-3.7,2.1-5.8c-2.8-0.3-5.5,1-7.6,2.8c-2.2,1.8-3.9,3.9-5.9,5.9
		c-0.8,0.7-1.9,1.5-2.8,0.7c-0.5-0.4-0.7-1.1-0.5-1.8c0.7-2.6,4.7-3.1,2.1-8.1c-3-0.6-4.3,5.4-7.2,4.5c0.4-2.4,1.4-4.7,2.9-6.7
		c0.9-1.1,1.9-2.3,1.5-3.7c-0.4-1.1-1.5-1.8-2.6-1.7c-2.2,0.1-3.6,1.8-4.8,3.4c-1.1,1.4-2.3,2.9-3.4,4.3c-0.5,2.3-0.8,4.6-0.9,6.9
		c-0.1,3.8,0.4,7.7,2.5,10.8c2.7,4,7.5,6,12.3,6.5c5.4,0.6,11.1-0.5,15.7-3.6c3.9-2.7,6.9-6.8,7.9-11.4
		C205.6,281.5,204.1,286.7,201.3,285.9z"/>
	<path id="XMLID_13_" class="st4" d="M201.9,261.5c-2.9-2.7-6.7-3.5-10.5-4c-0.6-0.1-1.3-0.2-1.9-0.2c-0.3,0-0.7-0.1-1-0.1
		c-4.8-0.6-9.8,1.7-13,5.2c-2.4,2.7-4,6-4.8,9.6c1.1-1.4,2.3-2.9,3.4-4.3c1.2-1.6,2.6-3.3,4.8-3.4c1.2-0.1,2.3,0.6,2.6,1.7
		c0.5,1.4-0.6,2.6-1.5,3.7c-1.5,1.9-2.5,4.2-2.9,6.7c2.9,0.9,4.3-5.1,7.2-4.5c2.6,4.9-1.4,5.4-2.1,8.1c-0.2,0.6,0,1.4,0.5,1.8
		c0.9,0.7,2,0,2.8-0.7c2-1.9,3.8-4.1,5.9-5.9c2.2-1.8,4.9-3.1,7.6-2.8c0.7,2-0.6,4.2-2.1,5.8c-1.6,1.8-3.7,3.4-4,5.9
		c-0.1,0.7,0.3,1.5,0.9,1.8c0.6,0.3,1.1,0,1.5-0.3c0.6-0.4,1.3-0.9,1.9-1.3c1.5-1.1,3.7,0,3.8,1.8c2.8,0.8,4.3-4.4,7-4.8
		c0.2-0.7,0.3-1.4,0.3-2.2c0.2-2.7-0.3-5.5-1.1-8.1C206.4,267.3,204.6,264,201.9,261.5z"/>
	<path id="XMLID_12_" class="st6" d="M303.7,250.6c-0.1-1-1.1-1.5-1.9-0.9c-0.3,0.2-0.7,0.4-1,0.7c-0.2,0.1-0.5,0.3-0.8,0.1
		c-0.3-0.2-0.5-0.6-0.5-0.9c0.2-1.3,1.2-2.1,2.1-3c0.8-0.8,1.4-1.9,1.1-3c-1.4-0.1-2.8,0.5-3.9,1.4c-1.1,0.9-2,2-3,3
		c-0.4,0.4-1,0.8-1.5,0.4c-0.3-0.2-0.3-0.6-0.3-0.9c0.4-1.4,2.4-1.6,1.1-4.1c-1.5-0.3-2.2,2.8-3.7,2.3c0.2-1.2,0.7-2.4,1.5-3.4
		c0.4-0.6,1-1.2,0.8-1.9c-0.2-0.6-0.8-0.9-1.4-0.9c-1.1,0.1-1.8,0.9-2.5,1.7c-0.6,0.7-1.2,1.5-1.7,2.2c-0.3,1.2-0.4,2.4-0.5,3.5
		c0,1.9,0.2,4,1.3,5.6c1.2,1.7,3.1,2.7,5.1,3.2c0.4,0.1,0.8,0.2,1.2,0.2c2.8,0.3,5.7-0.3,8.1-1.9c2-1.4,3.5-3.5,4-5.9
		C305.9,248.4,305.1,251.1,303.7,250.6z"/>
	<path id="XMLID_11_" class="st7" d="M290.5,238.5c-1.2,1.4-2,3.1-2.5,4.9c0.6-0.7,1.2-1.5,1.7-2.2c0.6-0.8,1.4-1.7,2.5-1.7
		c0.6,0,1.2,0.3,1.4,0.9c0.2,0.7-0.3,1.3-0.8,1.9c-0.8,1-1.3,2.2-1.5,3.4c1.5,0.5,2.2-2.6,3.7-2.3c1.3,2.5-0.7,2.8-1.1,4.1
		c-0.1,0.3,0,0.7,0.3,0.9c0.5,0.4,1.1,0,1.5-0.4c1-1,1.9-2.1,3-3c1.1-0.9,2.5-1.6,3.9-1.4c0.3,1-0.3,2.2-1.1,3
		c-0.8,0.9-1.9,1.7-2.1,3c0,0.4,0.1,0.8,0.5,0.9c0.3,0.2,0.6,0,0.8-0.1c0.3-0.2,0.7-0.4,1-0.7c0.8-0.5,1.9,0,1.9,0.9
		c1.5,0.4,2.2-2.3,3.6-2.5c0.1-0.4,0.1-0.7,0.2-1.1c0.1-1.4-0.1-2.8-0.6-4.2c-0.6-1.8-1.5-3.5-2.9-4.8c-1.9-1.7-4.5-2-6.9-2.3
		c0,0-0.1,0-0.1,0C294.6,235.6,292.1,236.7,290.5,238.5z"/>
	<path id="XMLID_10_" class="st8" d="M300.6,95.3L300.6,95.3c-0.1-1.7-2.1-2.7-3.5-1.7c-0.6,0.4-1.2,0.8-1.8,1.2
		c-0.4,0.3-0.8,0.6-1.4,0.2c-0.6-0.3-0.9-1-0.8-1.7c0.3-2.3,2.2-3.8,3.7-5.5c1.4-1.5,2.6-3.5,1.9-5.4c-2.6-0.2-5.1,1-7.1,2.6
		c-2,1.6-3.6,3.7-5.5,5.5c-0.7,0.7-1.8,1.4-2.6,0.7c-0.5-0.4-0.6-1.1-0.5-1.7c0.7-2.5,4.4-2.9,2-7.5c-2.8-0.6-4,5-6.7,4.2
		c0.4-2.3,1.3-4.4,2.7-6.2c0.8-1,1.8-2.1,1.4-3.5c-0.3-1-1.4-1.7-2.5-1.6c-2,0.1-3.3,1.7-4.5,3.2c-1.1,1.3-2.1,2.7-3.2,4
		c-0.5,2.1-0.8,4.3-0.8,6.4c-0.1,3.5,0.4,7.2,2.4,10.1c2.5,3.7,7,5.6,11.4,6.1c5.1,0.6,10.4-0.5,14.6-3.4c3.7-2.5,6.4-6.4,7.3-10.7
		C304.6,91.2,303.3,96.1,300.6,95.3z"/>
	<path id="XMLID_9_" class="st7" d="M276.7,73.4c-2.2,2.5-3.7,5.6-4.5,8.9c1.1-1.3,2.1-2.7,3.2-4c1.2-1.5,2.4-3.1,4.5-3.2
		c1.1-0.1,2.1,0.6,2.5,1.6c0.4,1.3-0.6,2.4-1.4,3.5c-1.4,1.8-2.3,4-2.7,6.2c2.7,0.8,4-4.8,6.7-4.2c2.4,4.6-1.3,5.1-2,7.5
		c-0.2,0.6,0,1.3,0.5,1.7c0.8,0.7,1.9,0,2.6-0.7c1.9-1.8,3.5-3.8,5.5-5.5c2-1.6,4.5-2.8,7.1-2.6c0.6,1.9-0.6,3.9-1.9,5.4
		c-1.5,1.6-3.4,3.1-3.7,5.5c-0.1,0.7,0.2,1.4,0.8,1.7c0.6,0.3,1,0,1.4-0.2c0.6-0.4,1.2-0.8,1.8-1.2c1.4-1,3.4,0,3.5,1.7l0,0
		c2.6,0.8,4-4.1,6.5-4.5c0-0.1,0-0.1,0-0.2c0.1-0.6,0.2-1.2,0.3-1.9c0.2-2.5-0.2-5.1-1-7.5c-1-3.3-2.7-6.4-5.2-8.7
		c-3.4-3.1-8.1-3.6-12.4-4.1c-2.8-0.3-5.7,0.4-8.2,1.8C279.2,71.1,277.8,72.2,276.7,73.4z"/>
	<path id="XMLID_8_" class="st8" d="M72.2,235.1c-2.7,0.4-4.1,5.6-7,4.8c-0.1-1.9-2.2-2.9-3.8-1.8c-0.6,0.4-1.3,0.9-1.9,1.3
		c-0.4,0.3-0.9,0.6-1.5,0.3c-0.6-0.3-1-1.1-0.9-1.8c0.3-2.5,2.3-4.1,4-5.9c1.5-1.6,2.8-3.7,2.1-5.8c-2.8-0.3-5.5,1-7.6,2.8
		c-2.2,1.8-3.9,3.9-5.9,5.9c-0.8,0.7-1.9,1.5-2.8,0.7c-0.5-0.4-0.7-1.1-0.5-1.8c0.7-2.6,4.7-3.1,2.1-8.1c-3-0.6-4.3,5.4-7.2,4.5
		c0.4-2.4,1.4-4.7,2.9-6.7c0.9-1.1,1.9-2.3,1.5-3.7c-0.4-1.1-1.5-1.8-2.6-1.7c-2.2,0.1-3.6,1.8-4.8,3.4c-1.1,1.4-2.3,2.9-3.4,4.3
		c-0.5,2.3-0.8,4.6-0.9,6.9c-0.1,3.8,0.4,7.7,2.5,10.8c2.7,4,7.5,6,12.3,6.5c5.4,0.6,11.1-0.5,15.7-3.6c0.1-0.1,0.3-0.2,0.4-0.3
		C68.4,243.6,71.2,239.5,72.2,235.1z"/>
	<path id="XMLID_7_" class="st7" d="M42.9,218.2c1.2-0.1,2.3,0.6,2.6,1.7c0.5,1.4-0.6,2.6-1.5,3.7c-1.5,1.9-2.5,4.2-2.9,6.7
		c2.9,0.9,4.3-5.1,7.2-4.5c2.6,4.9-1.4,5.4-2.1,8.1c-0.2,0.6,0,1.4,0.5,1.8c0.9,0.7,2,0,2.8-0.7c2-1.9,3.8-4.1,5.9-5.9
		c2.2-1.7,4.9-3.1,7.6-2.8c0.7,2-0.6,4.2-2.1,5.8c-1.6,1.8-3.7,3.4-4,5.9c-0.1,0.7,0.3,1.5,0.9,1.8c0.6,0.3,1.1,0,1.5-0.3
		c0.6-0.4,1.3-0.9,1.9-1.3c1.5-1.1,3.7,0,3.8,1.8c2.8,0.8,4.3-4.4,7-4.8c0.2-0.7,0.3-1.4,0.3-2.2c0.2-2.7-0.3-5.5-1.1-8.1
		c-1.1-3.5-2.9-6.9-5.6-9.3c-1.3-1.2-2.7-2-4.2-2.6c-1.4-0.5-2.9-0.9-4.4-1.2c-1.6-0.3-3.2-0.5-4.8-0.6c-4.8-0.6-9.8,1.7-13,5.2
		c-0.6,0.7-1.2,1.4-1.7,2.2c-1.5,2.2-2.5,4.8-3.1,7.4c1.1-1.4,2.3-2.9,3.4-4.3C39.3,220,40.7,218.3,42.9,218.2z"/>
	<path id="XMLID_6_" class="st3" d="M173.9,100.9c6.3,0.7,12.9-0.6,18.1-4.2c4.5-3.1,7.9-7.9,9.1-13.2c-3.1,0.5-4.8,6.5-8.1,5.6v0
		c-0.1-2.2-2.6-3.4-4.4-2.1c-0.7,0.5-1.5,1-2.2,1.5c-0.5,0.3-1,0.7-1.8,0.3c-0.8-0.4-1.2-1.2-1-2.1c0.4-2.9,2.7-4.8,4.6-6.8
		c1.7-1.8,3.2-4.3,2.4-6.7c-3.2-0.3-6.3,1.2-8.8,3.2c-2.5,2-4.5,4.6-6.9,6.8c-0.9,0.9-2.2,1.7-3.3,0.9c-0.6-0.5-0.8-1.3-0.6-2.1
		c0.9-3,5.5-3.6,2.4-9.3c-3.4-0.7-5,6.3-8.4,5.2c0.5-2.8,1.6-5.5,3.4-7.7c1-1.3,2.2-2.6,1.7-4.3c-0.4-1.3-1.7-2-3.1-2
		c-2.5,0.1-4.1,2.1-5.6,3.9c-1.3,1.7-2.6,3.3-3.9,5c-0.6,2.6-1,5.3-1,8c-0.1,4.4,0.5,8.9,2.9,12.5C162.8,98,168.4,100.3,173.9,100.9
		z"/>
	<path id="XMLID_5_" class="st2" d="M167.3,64c1.3-0.1,2.7,0.7,3.1,2c0.5,1.7-0.7,3-1.7,4.3c-1.7,2.2-2.9,4.9-3.4,7.7
		c3.3,1,4.9-5.9,8.4-5.2c3,5.7-1.6,6.3-2.4,9.3c-0.2,0.7,0,1.6,0.6,2.1c1,0.9,2.4,0,3.3-0.9c2.3-2.2,4.4-4.8,6.9-6.8
		c2.5-2,5.6-3.5,8.8-3.2c0.8,2.4-0.7,4.8-2.4,6.7c-1.9,2-4.2,3.9-4.6,6.8c-0.1,0.8,0.3,1.7,1,2.1c0.7,0.4,1.3,0,1.8-0.3
		c0.7-0.5,1.5-1,2.2-1.5c1.8-1.2,4.2,0,4.4,2.1v0c3.3,1,5-5.1,8.1-5.6c0.2-0.8,0.3-1.7,0.4-2.5c0.2-3.2-0.3-6.3-1.3-9.3
		c-1.3-4-3.3-7.9-6.4-10.8c-4.2-3.9-10-4.4-15.4-5.1c-5.6-0.7-11.3,2-15,6.1c-2.8,3.1-4.6,7-5.6,11c1.3-1.7,2.6-3.3,3.9-5
		C163.2,66,164.8,64.1,167.3,64z"/>
</g>
</svg>
