<?xml version="1.0" encoding="utf-8"?>
<!-- Generator: Adobe Illustrator 19.0.0, SVG Export Plug-In . SVG Version: 6.00 Build 0)  -->
<svg version="1.1" id="Layer_1" xmlns="http://www.w3.org/2000/svg" xmlns:xlink="http://www.w3.org/1999/xlink" x="0px" y="0px"
	 viewBox="205 -24.5 1204.2 604.6" style="enable-background:new 205 -24.5 1204.2 604.6;" xml:space="preserve">
<style type="text/css">
	.st0{fill:#C0C4E3;}
	.st1{fill:#F1C40F;}
	.st2{fill:#EFA9AF;}
	.st3{fill:#F39C12;}
	.st4{fill:#9B59B6;}
	.st5{fill:#FFFFFF;}
	.st6{fill:#465DC1;}
	.st7{fill:#5E72EB;}
	.st8{fill:#E1E3F0;}
	.st9{fill:#E74C3C;}
	.st10{fill:#3E3E5C;}
	.st11{fill:#CC8372;}
	.st12{fill:#F7A01A;}
	.st13{fill:#3D3E5C;}
	.st14{fill:#303152;}
	.st15{fill:#E8ECF6;}
	.st16{fill:#1ABC9C;}
	.st17{fill:#C1C5E3;}
	.st18{fill:#1D1D46;}
	.st19{fill:#29294F;}
	.st20{fill:#F6A988;}
	.st21{fill:#34495E;}
	.st22{fill:#16A085;}
	.st23{fill:#ECF0F1;}
	.st24{fill:#8E44AD;}
	.st25{fill:#2ECC71;}
	.st26{fill:#808BB4;}
</style>
<g id="Master_blank_background">
</g>
<g id="Layer_1_1_">
	<g>
		<g>
			<path class="st0" d="M800.5,56.9L741.2,29c-0.2-0.2-0.6-0.1-0.7,0.2L730.8,49L601.3,312.9c-8,16.3-1,35.9,15.7,43.7
				c16.7,7.9,36.7,1,44.7-15.3L791.1,77.4l9.7-19.8C800.9,57.3,800.8,57,800.5,56.9z M656.7,337c-6.5,13.2-22.7,18.8-36.1,12.4
				c-13.5-6.3-19.2-22.2-12.7-35.4L736.1,52.7l48.8,23L656.7,337z"/>
		</g>
		<g>
			<polygon class="st0" points="813.3,62.8 728.6,22.9 718.6,43.3 803.3,83.2 			"/>
		</g>
	</g>
	<g>
		<g>
			<path class="st0" d="M759.2,480.8L759.2,480.8c-16.9-7.2-24.7-26.5-17.3-43.1L870,149c0.1-0.3,0.4-0.4,0.7-0.3l60.4,25.7
				c0.3,0.1,0.4,0.4,0.3,0.7L803.2,463.8C795.9,480.4,776.2,488,759.2,480.8z"/>
		</g>
		<g>
			<polygon class="st0" points="944,180 857.8,143.2 848.6,164 934.8,200.7 			"/>
		</g>
		<path class="st1" d="M762.5,473.5L762.5,473.5c-13.7-5.8-20-21.5-14-34.9l118-265.9l49.7,21.2l-118,265.9
			C792.1,473.2,776.2,479.3,762.5,473.5z"/>
	</g>
	<g>
		<g>
			<path class="st0" d="M902.2,489.3c-17,7.1-36.7-0.7-43.9-17.3L732.6,182.2c-0.1-0.3,0-0.6,0.3-0.7l60.6-25.2
				c0.3-0.1,0.6,0,0.7,0.3l125.7,289.7C927.1,462.9,919.2,482.2,902.2,489.3z"/>
		</g>
		<g>
			<polygon class="st0" points="807.4,152.2 720.9,188.2 730,209.1 816.5,173 			"/>
		</g>
		<g>
			<path class="st2" d="M898.8,479.5l-0.7,0.3c-13.8,5.7-29.7-0.6-35.6-14.1L749.9,206.1l50.6-21.1l112.6,259.6
				C919,458.1,912.6,473.7,898.8,479.5z"/>
		</g>
	</g>
	<g>
		<g>
			<path class="st0" d="M382.1,449.3c-17.3,6.5-36.6-2-43.2-18.9L223.8,136.5c-0.1-0.3,0-0.6,0.3-0.7l61.5-23.1
				c0.3-0.1,0.6,0,0.7,0.3l115.1,293.9C408,423.9,399.4,442.8,382.1,449.3z"/>
		</g>
		<g>
			<polygon class="st0" points="298.8,107.8 211,140.8 219.3,161.9 307,128.9 			"/>
		</g>
		<path class="st3" d="M379.2,441.9c-14,5.2-29.6-1.6-35-15.3l-106-270.7l50.6-19l106,270.7C400.1,421.3,393.1,436.6,379.2,441.9z"
			/>
	</g>
	<g>
		<g>
			<path class="st0" d="M1236.1,476.1c-17.3-6.3-26.2-25.1-19.8-42.1L1328,138.8c0.1-0.3,0.4-0.4,0.7-0.3l61.7,22.4
				c0.3,0.1,0.4,0.4,0.3,0.7l-111.6,295.2C1272.7,473.7,1253.4,482.4,1236.1,476.1z"/>
		</g>
		<g>
			<polygon class="st0" points="1403.6,165.6 1315.5,133.6 1307.4,154.9 1395.6,186.9 			"/>
		</g>
		<g>
			<path class="st4" d="M1238.9,468.6c-14-5.1-21.2-20.4-16-34.1l102.8-271.8l50.8,18.4l-102.8,271.8
				C1268.6,466.6,1253,473.7,1238.9,468.6z"/>
		</g>
	</g>
	<g>
		<path class="st5" d="M474.1,337.9c2.5-0.5,5-1,7.4-1.5C479,336.9,476.6,337.4,474.1,337.9c0,0-0.1,0-0.2,0.1c0,0,0,0-0.1,0
			c-0.1,0-0.2,0-0.3,0c-19-3-37.9-5.2-56.7-5.9c18.9,0.7,37.9,3,56.9,5.9C473.9,337.9,474,337.9,474.1,337.9z"/>
		<path class="st5" d="M596.9,319.7c-1.5,0-3,0-4.5,0.1l-26-60.7c-2.5-5.8-4.2-11.9-5.2-18.2l-35.6-233h19.8V-7.9H441.3V7.9h19.8
			l-35.6,233c-1,6.2-2.7,12.3-5.2,18.2l-31.3,73c-1.5,0.1-3,0.2-4.6,0.3l32.1-74.9c2.3-5.5,4-11.3,4.9-17.2l35-228.3h-19.2v-24
			h112.5v24h-19.2l34.9,228.4c0.9,5.9,2.5,11.7,4.9,17.2L596.9,319.7z"/>
		<g>
			<path class="st6" d="M614.1,359.7c-1.6-0.1-3.1-0.2-4.7-0.3c-44.2-3.4-89.9-14.3-135.6-21.4c0,0,0,0,0,0c0.1,0,0.1,0,0.2,0
				c2.5-0.5,5-1,7.4-1.5c0.1,0,0.3-0.1,0.4-0.1c36.8-7.7,73.7-15.5,110.5-16.5c1.5,0,3-0.1,4.5-0.1l17.2,39.9L614.1,359.7z"/>
		</g>
		<g>
			<path class="st6" d="M473.8,337.9c-0.1,0-0.2,0-0.2,0.1c-31,6.5-61.9,12.3-92.9,13.5c-1.5,0.1-3,0.1-4.6,0.1l8.3-19.2
				c1.5-0.1,3-0.2,4.6-0.3c9.3-0.5,18.6-0.5,27.9-0.1C435.8,332.8,454.8,335,473.8,337.9z"/>
		</g>
		<g>
			<path class="st7" d="M665.2,537.8c-9.6,14.3-26,22.9-43.5,22.9H365.1c-17.5,0-33.8-8.6-43.5-22.9c-9.7-14.3-11.5-32.4-4.7-48.2
				l59.2-138c1.5,0,3.1-0.1,4.6-0.1c31-1.2,61.9-7,92.9-13.5c0.1,0,0.2,0,0.2-0.1c0.1,0,0.2,0,0.3,0c0,0,0,0,0.1,0
				c45.6,7,91.2,18,135.3,21.3c1.6,0.1,3.1,0.2,4.7,0.3h0l55.8,130.1C676.6,505.5,674.9,523.6,665.2,537.8z"/>
		</g>
		<path class="st8" d="M673.8,488.1L574.2,256c-2.2-5.2-3.8-10.7-4.6-16.2L535.4,16.2h18.5V-16H433v32.2h18.5l-34.2,223.6
			c-0.8,5.6-2.4,11-4.6,16.2l-99.6,232.1c-7.4,17.1-5.5,36.5,5,52s28.1,24.7,47,24.7h256.6c18.9,0,36.5-9.2,47.1-24.7
			C679.3,524.7,681.1,505.2,673.8,488.1z M320.7,491.2l60-139.8l8.3-19.3l31.3-73c2.5-5.9,4.2-12,5.2-18.2l35.6-233h-19.8V-7.9
			h104.1V7.9h-19.8l35.6,233c1,6.3,2.7,12.4,5.2,18.2l26,60.7v0l16.9,39.5l0,0.1L666,491.2c6.2,14.5,4.6,31.1-4.3,44.3
			c-9,13.2-24,21.1-40.1,21.1H365.1c-16.2,0-31.2-7.9-40.1-21.1C316,522.4,314.4,505.8,320.7,491.2z"/>
	</g>
	<g>
		<g>
			<path class="st0" d="M1170.7,428.2c0,74.1-61.3,134.2-136.9,134.2s-136.9-60.1-136.9-134.2c0-61.5,42.2-113.4,99.8-129.2
				c2.6-0.7,5.2-1.3,7.8-1.9v8.3c-2.6,0.6-5.2,1.3-7.8,2c-31.3,9.2-57.5,29.9-73.8,56.9c24.6,3.8,49.3,7.3,73.8,10.2
				c8.5,1,17,1.9,25.5,2.6c43.7,4.1,87.2,5.5,130.2,2.2c-14.8-34.4-44.6-61.1-81.5-71.9c-2.5-0.7-5.1-1.4-7.7-2v-8.3
				c2.6,0.6,5.2,1.2,7.7,1.9C1128.5,314.8,1170.7,366.7,1170.7,428.2z"/>
		</g>
		<g>
			<path class="st0" d="M1004.5,305.4c-2.6,0.6-5.2,1.3-7.8,2V-8.9h7.8V305.4z"/>
			<path class="st0" d="M996.7,374.5c8.5,1,17,1.9,25.5,2.6h-25.5V374.5z"/>
			<path class="st0" d="M1070.9-8.9v316.3c-2.5-0.7-5.1-1.4-7.7-2V-8.9H1070.9z"/>
		</g>
		<g>
			<path class="st9" d="M922.8,364.3C911.5,383,905,404.8,905,428.2c0,69.7,57.6,126.2,128.8,126.2c71.1,0,128.8-56.5,128.8-126.2
				c0-17.4-3.7-33.9-10.2-48.9C1076.9,385.1,1000,376.3,922.8,364.3z"/>
		</g>
		<g>
			<rect x="981.6" y="-19.8" class="st0" width="104.2" height="25.1"/>
		</g>
	</g>
	<g>
		<path class="st10" d="M497.8,382.6c-4.8,0.1-9.8-0.8-13.9-3.3c-6.7-4-10.2-11.6-12.3-19c-1.6-5.8-2.5-11.9-1.1-17.8
			c2-8.7,8.7-15.4,14-22.6s5.4-12.8,2.2-21.1c-7.6-20.3,21.7-29.4,25-28.9c10.8,1.6,13.3,4.1,17.6,7.7c7,5.9,9.7,15.8,10.8,24.7
			c0.6,4.5-0.5,9.1,0.4,13.6c0.9,4.2,3.5,7.8,4.5,12c0.9,3.9,0.3,8-0.7,11.8c-3.1,11.3-10,19.2-17.8,27.8
			C518.9,376,509.8,382.3,497.8,382.6z"/>
		<path class="st11" d="M584.1,322.9c0,0.3,0,0.5,0.1,0.8c0.1,0.8,0.3,1.6,0.8,2.4c1.5,2.4,4.7,3.1,7.2,1.6c0.9-0.6,1.6-1.4,2-2.3
			c0.2-0.3,0.3-0.7,0.4-1.1l0,0c3.1-2.5,5.4-8.7,5.8-12c0.4-3.3-0.6-3.8-2.4-5.5c-0.1-1.8-0.6-3.6-2.8-3.9c-0.2-2.9-2-4.2-4.8-4.6
			c-0.9-1.2-1.5-3.8-4-1.6c-2.5,2.2-3.3,9.4-3.4,13.1c-2.8-4.7-11.3-6-9.5-1.6c3.6,1.5,4.6,4.9,5.2,8.2c0.6,3.3,2.8,4.1,5.5,5
			C584.2,321.9,584.1,322.4,584.1,322.9z"/>
		<g>
			<path d="M553.5,348.4c-9.1-0.6-38.3-20.1-45.5-18c-13.4,3.9-2,18-2,18s24.6,21.3,49.2,18.6l-1.5-18.6
				C553.6,348.3,553.5,348.4,553.5,348.4z"/>
		</g>
		<path class="st12" d="M584,321.2c-5.9,7.9-13,16-38,29.4l9.1,16.4c0.9-0.5,1.8-1.1,2.7-1.7c14.2-9.2,23.6-18.6,33.4-35.4
			C592.3,326.4,584,321.2,584,321.2z"/>
		<polygon class="st11" points="465,525.8 466.7,538.8 454.3,557.2 447.3,548.4 455.7,534.5 		"/>
		<polygon class="st11" points="513.7,478.9 494.3,469.6 494.2,470.4 453.1,537.8 459.4,549.6 		"/>
		<path class="st13" d="M446.4,547.6c0,0,3.7-0.6,5.7,2c2,2.7,7.3-0.1,7.3-0.1s1.8-0.3,7.3,5.1c6.1,5.4,13.8,2.5,13.8,2.5
			s2.8,2.9,0.8,6c-2,3-30.1,0.8-37.4-1.5C443.8,557,446.4,547.6,446.4,547.6z"/>
		<polygon class="st11" points="531.5,532.9 539.5,543.4 538,565.4 526.6,562.6 527.4,545 		"/>
		<polygon class="st11" points="555.9,469.2 538.8,464.2 533.1,476.2 527.2,549.7 538.8,554.4 		"/>
		<path class="st11" d="M514.8,331.8h-4.3c-2.3,0-4.1-1.8-4.1-4V308h12.5v19.8C518.9,330,517.1,331.8,514.8,331.8z"/>
		<path class="st11" d="M494.2,281.8l2.4,20c-0.1,2.2,2.5,4.5,3.4,6.3c2.2,4.6,7,7.9,12.5,7.9c8.1,0.1,14.6-6.4,14.3-14.4l-0.9-21
			L494.2,281.8z"/>
		<path class="st12" d="M505.6,320.3c0,0,7.6,8,14.2,6.1c21.6,39.5,10.9,58.5,28.7,89l-52.9-0.8
			C507.4,372.5,471.5,335.3,505.6,320.3z"/>
		<path class="st14" d="M526.8,558.7c0,0,3.7-0.6,5.7,2.1c2,2.7,5.8-0.3,5.8-0.3s3.3,0,8.7,5.6c6,5.5,13.7,2.7,13.7,2.7s2.7,3,0.7,6
			s-30.2,0.4-37.4-2C524,568.1,526.8,558.7,526.8,558.7z"/>
		<path class="st11" d="M423.4,374.3c0.3,0,0.5,0.1,0.8,0.3c0.8,0.3,1.5,0.7,2.2,1.3c2,2,1.9,5.3-0.1,7.2c-0.8,0.8-1.8,1.2-2.8,1.4
			c-0.4,0.1-0.8,0.2-1.2,0.1l0,0c-3.2,2.4-9.9,3-13.3,2.6c-3.3-0.4-3.6-1.5-4.8-3.6c-1.8-0.5-3.4-1.5-3.2-3.6
			c-2.9-0.9-3.6-2.9-3.3-5.7c-0.9-1.2-3.4-2.3-0.6-4.2c2.8-1.8,10.1-0.8,13.8,0c-4-3.8-3.2-12.2,0.7-9.4c0.6,3.8,3.7,5.6,6.8,6.9
			s3.3,3.7,3.6,6.5C422.3,374.1,422.8,374.2,423.4,374.3z"/>
		<path class="st12" d="M513.1,345.9c0,0,4.3-17.5-9.5-15.5c-7.4,1-25.6,30.7-33.7,35c-26.8,9.7-37.8,9.6-47.7,8.8c0,0-1.5,9.5,2,11
			c19.3,3.9,32.7,3.1,49.1-1.3C498.6,377.8,513.1,345.9,513.1,345.9z"/>
		<path class="st10" d="M509.8,294.5c0,0,15.1-0.9,20.3-1.7c3-9.9-5-19.1-11.9-21c-7-1.8-22.4,7.9-22.7,7.9c-3.9,0-3.1,9.7-3.1,9.7
			S492.3,297.4,509.8,294.5z"/>
		<path class="st10" d="M509.3,290.7c0,0-11.1,7.7-3.2,47c-9.7,4.1-19,25.5-19,25.5s5.8-50,4.1-64.4
			C489.5,284.5,500.6,279.9,509.3,290.7z"/>
		<path class="st14" d="M548.5,415.4c0,0,30.3,38.7,32.5,55.6c-6.2,15.5-71.9,26.5-90.6,14.1s3.5-36.4,5.2-70.5L548.5,415.4z"/>
		<g>
			<path class="st15" d="M577.1,324c0,0,11.1,9.7,14,16.7c-5.3,11-28.7,32.4-33.1,32.9c-7.2-0.5-18.4-2-18.4-2s0.1,17.6,9.6,38.6
				c12.8,28.2,44.3,53.9,33.6,80.2c-4.2,5.2-43.6,10.8-43.6,10.8l-19.4-174.8l35.3,17.6L577.1,324z"/>
		</g>
		<g>
			<path class="st15" d="M506.2,322.7l6.4,179.1c0,0-36.1,2.1-49.7-2.4c-1.7-26,18.9-84.3,19.1-111.8c-13.3,6.2-35.8,8.9-49.5,5.6
				c-6.4-10-1.6-22-1.6-22s40.9-8.3,44.7-15.6C479.4,348.1,487.2,322.1,506.2,322.7z"/>
		</g>
	</g>
	<g>
		<polygon class="st11" points="902.9,517.3 910.1,528.3 906.9,550.1 896.7,545.1 898.3,529 		"/>
		<path class="st13" d="M936.3,457.3l8.4-59.7L918.4,354c-16.6,14-23.2,36.4-16.7,56.9l3,43.2L936.3,457.3L936.3,457.3z"/>
		<polygon class="st13" points="936.4,455.9 904.7,454.2 905,454.9 897.3,533.1 911.9,537.1 		"/>
		<path class="st13" d="M896.2,542.5c0,0,3.7-0.5,5.6,2.3c1.9,2.7,7.3,0.2,7.3,0.2s1.9-0.3,7.1,5.4c5.8,5.7,13.6,3.1,13.6,3.1
			s2.6,3,0.5,6c-2.1,2.9-30.2-0.5-37.3-3.2C893.1,551.9,896.2,542.5,896.2,542.5z"/>
		<polygon class="st11" points="956,514.3 963.9,524.9 962.1,546.8 950.8,544 951.8,526.3 		"/>
		<path class="st11" d="M992.6,310.6c-0.3,0.1-0.5,0.2-0.7,0.3c-0.8,0.3-1.5,0.8-2.1,1.4c-1.9,2.1-1.6,5.4,0.6,7.2
			c0.8,0.7,1.9,1.1,2.9,1.2c0.4,0.1,0.8,0.1,1.2,0l0,0c3.4,2.2,10.1,2.4,13.4,1.8c3.3-0.6,3.5-1.7,4.6-3.9c1.7-0.6,3.3-1.7,3-3.8
			c2.8-1.1,3.5-3.1,3-5.9c0.9-1.2,3.3-2.5,0.4-4.2c-2.9-1.7-10.2-0.3-13.8,0.8c3.8-4,2.5-12.4-1.3-9.4c-0.4,3.8-3.4,5.8-6.4,7.3
			s-3.1,3.9-3.2,6.7C993.6,310.3,993.1,310.5,992.6,310.6z"/>
		<path class="st14" d="M981.2,450.9l-29.3-68.6l-49.5-8.3c-5.5,20.8,2.2,42.8,19.5,56l31.6,36L981.2,450.9L981.2,450.9z"/>
		<polygon class="st14" points="981.2,450.9 947.2,440.4 950,454.9 951.5,531.1 966.6,532.7 		"/>
		<rect x="989.4" y="276.6" class="st16" width="36.7" height="56.8"/>
		<g>
			<path class="st8" d="M901.3,287.4c0,0-5.4-17.2,8.6-16c7.5,0.6,27.4,29.2,35.7,33c27.3,8.1,38.3,7.4,48.2,6c0,0,2,9.4-1.3,11.1
				c-19,5-32.5,5-49.1,1.5C917.7,318.4,901.3,287.4,901.3,287.4z"/>
		</g>
		<path class="st11" d="M918.1,276.6h-4.3c-2.3,0-4.1-1.8-4.1-4v-19.8h12.5v19.8C922.3,274.7,920.4,276.6,918.1,276.6z"/>
		<path class="st11" d="M897.5,226.6l2.4,20c-0.1,2.2,2.5,4.5,3.4,6.3c2.2,4.6,7,7.9,12.5,7.9c8.1,0.1,14.6-6.4,14.3-14.4l-0.9-21
			L897.5,226.6z"/>
		<g>
			<path class="st8" d="M909,265.1c0,0,7.6,8,14.2,6.1c16,36.6,33.4,71.6,28.7,111l-52.9-0.8C910.7,339.4,874.9,280.1,909,265.1z"/>
		</g>
		<g>
			<path class="st11" d="M982.3,317.4c-0.2,0.2-0.4,0.4-0.5,0.6c-0.6,0.6-1,1.3-1.2,2.2c-0.7,2.7,1.1,5.5,3.9,6.1
				c1.1,0.3,2.2,0.1,3.1-0.2c0.4-0.1,0.7-0.2,1-0.5l0,0c4,0.4,10.1-2.4,12.8-4.4c2.6-2,2.3-3,2.3-5.5c1.2-1.3,2.2-3,0.9-4.7
				c2-2.2,1.6-4.3-0.1-6.6c0.2-1.5,1.7-3.7-1.6-3.9c-3.4-0.2-9.2,4.3-11.9,6.9c1.5-5.2-3.6-12.1-5.5-7.8c1.4,3.6-0.3,6.7-2.3,9.4
				c-2,2.7-1,4.8,0.3,7.4C983.1,316.7,982.7,317.1,982.3,317.4z"/>
			<g>
				<path class="st8" d="M939.8,311.6c-7.2-5.4-20.4-37.6-27.6-39.7c-13.4-4.1-11.9,13.9-11.9,13.9s8.4,31.1,30.3,42.2l9.3-16.3
					C939.9,311.6,939.9,311.6,939.8,311.6z"/>
			</g>
			<g>
				<path class="st8" d="M983.5,316.1c-9.9,1.5-20.8,2.2-48-5.7l-5.4,17.9c1,0.3,2,0.5,3.1,0.7c16.7,3.4,30.1,3.3,49.1-1.7
					C985.6,325.5,983.5,316.1,983.5,316.1z"/>
			</g>
		</g>
		<path class="st13" d="M898,252.6c-0.8-1.7-3.4-2.1-4-3.8c-0.5-1.3,0.3-2.8,0.1-4.2c-0.3-1.6-1.9-2.8-2.2-4.4
			c-0.5-2.2,1.4-4.1,1.8-6.3c0.3-1.9-0.5-3.9-0.6-5.8c-0.1-2.3,1-4.7,3.1-5.8c0.6-0.3,1.3-0.6,1.9-1c1.4-1,2.1-3.3,3.8-3.1
			c0.5,0.1,1,0.3,1.5,0.5c1.7,0.5,3.3-0.8,4.5-1.9c1.3-1.2,2.8-2.4,4.5-2c0.9,0.2,1.6,1,2.6,1.3c1.6,0.5,3.2-0.4,4.6-1.2
			c1.4-0.8,3.3-1.5,4.7-0.6c1.4,1,1.5,3.2,3,4.1c0.6,0.4,1.4,0.5,2.1,0.4c2.5-0.1,4.8-1.4,7.2-1.9c0.6-0.1,1.2-0.2,1.7,0
			c1.3,0.6,0.9,2.4,0.2,3.6s-1.7,2.5-1.2,3.7c0.6,1.4,2.8,1.9,2.8,3.4s-2.2,2.1-2.8,3.4c-0.7,1.4,0.5,3,0.5,4.6c0,1-0.6,2-1.4,2.7
			c-1.6,1.4-4.1,1.8-6.1,0.9c-2.4-1.1-3.7-3.8-6.1-4.9c-1.8-0.9-4.2-0.8-5.9,0.4c-1.5,1-2.4,2.6-3.9,3.5c-1.9,1.2-4.4,1.2-6.3,2.3
			c0.9-0.3,1.8-0.5,2.7-0.3s1.8,0.8,2,1.7c0.1,0.5,0,1,0,1.5c0,1.3,0.5,2.5,0.7,3.7c0.3,1.2,0.3,2.6-0.6,3.6
			c-0.7,0.8-1.9,1.2-2.2,2.2c-0.3,0.7,0,1.5,0.1,2.2c0.3,3.2-3.5,5.4-6.3,4.3c-1.4-0.5-2.9-1.6-4.1-2.5
			C898.8,255.6,898.8,254.3,898,252.6z"/>
		<g>
			<path class="st5" d="M909,265.1c0,0,10.5,3.8,14.2,6.1c-0.5,5.8-1.7,8.4-1.7,8.4S917.7,271.4,909,265.1z"/>
		</g>
		<path class="st14" d="M951,540c0,0,3.7-0.5,5.7,2.2c1.9,2.7,5.8-0.3,5.8-0.3s3.3,0.1,8.6,5.7c5.9,5.6,13.7,2.8,13.7,2.8
			s2.7,3,0.6,6c-2.1,3-30.2,0.1-37.4-2.5C948.1,549.4,951,540,951,540z"/>
		<g>
			<path class="st8" d="M894,298.3c0,0-2.6,142.4,0,151.3c15.3,8.4,70.2-1.9,70.2-1.9l-19.5-126.8L894,298.3z"/>
		</g>
	</g>
	<g>
		<path class="st17" d="M1186.9,498.2c1.5-0.9,42.9,1.8,42.9,1.8l5.2-60.3l-29.5-29.5l-13.8,9.4L1186.9,498.2z"/>
		<polygon class="st11" points="1242.6,536.7 1235.4,547.8 1238.6,569.5 1248.8,564.5 1247.3,548.4 		"/>
		<path class="st13" d="M1249.4,562c0,0-3.7-0.5-5.6,2.3c-1.9,2.7-7.3,0.2-7.3,0.2s-1.9-0.3-7.1,5.4c-5.8,5.7-13.6,3.1-13.6,3.1
			s-2.6,3-0.5,6c2.1,2.9,30.2-0.5,37.3-3.2C1252.4,571.3,1249.4,562,1249.4,562z"/>
		<polygon class="st11" points="1184.6,537.5 1175.1,546.7 1173.5,568.7 1185.2,567.6 1186.9,550 		"/>
		<path class="st14" d="M1185.6,563.6c0,0-3.6-1.1-5.9,1.3c-2.3,2.4-5.7-1.1-5.7-1.1s-3.3-0.4-9.4,4.3c-6.7,4.6-14,0.8-14,0.8
			s-3.1,2.6-1.6,5.8c1.6,3.2,29.8,4.5,37.3,3.1C1187,573.3,1185.6,563.6,1185.6,563.6z"/>
		<g>
			<path class="st18" d="M1190.7,395.9c6.9,12.4,40,7.6,42.7,22l-29.3,71.6l-26.5-5.8L1190.7,395.9z"/>
			<polygon class="st18" points="1204.2,489.5 1187.9,557.8 1172.9,558.4 1177.7,483.7 			"/>
			<path class="st19" d="M1245.3,398.1l4.4,159.8h-13.8c0,0-22.8-88.1-31.4-117.2c-0.8-22.6-12.6-42.2-12.6-42.2L1245.3,398.1z"/>
		</g>
		<g>
			<g>
				<path class="st18" d="M1187.5,313.4c10.5-7.9,26.8-15.4,38.7-13.9c12.2,12.6-0.4,22.3-0.4,22.3s-9.1,9.4-23.6,13.3
					C1196.9,329.8,1190.8,320.1,1187.5,313.4z"/>
				<path class="st20" d="M1176.3,325.1c3.1-0.8,5.7-7.6,11.2-11.8c3.2,6.7,9.4,16.4,14.7,21.7c-2.3,12.6-29.5,23.1-45.9,12.4
					l19.7-22.6C1176.1,325,1176.2,325.1,1176.3,325.1z"/>
				<path class="st20" d="M1173,298.9c-4.2,13,10.5,33.9,2.7,47.6l-19.4,1.2l0,0c-5.9-7-1.3-29.9,5.2-48.3
					C1163.4,296.1,1173,298.9,1173,298.9z"/>
				<path class="st20" d="M1172.3,302.1c-0.1,0.3-0.2,0.5-0.4,0.7c-0.4,0.8-0.9,1.5-1.7,2c-2.4,1.7-5.8,1.2-7.6-1.1
					c-0.7-0.9-1-2-1-3c-0.1-0.4-0.1-0.8,0.1-1.2l0,0c-2-3.6-1.8-10.5-0.9-13.8s2-3.4,4.5-4.4c0.8-1.7,2-3.3,4.2-2.7
					c1.3-2.8,3.5-3.3,6.5-2.6c1.3-0.8,2.9-3.1,4.5-0.1c1.5,3.1-0.5,10.4-1.9,13.9c4.5-3.5,13.3-1.5,9.8,2c-4.1,0.1-6.4,3-8.2,5.9
					c-1.8,2.9-4.3,2.9-7.3,2.7C1172.6,301.1,1172.4,301.6,1172.3,302.1z"/>
			</g>
			<path class="st20" d="M1176.5,284.2c0,0,3.8,3,3.6,5.2c-0.2,2.3-3.6,0.9-3.6,0.9s2.9,2.3,0.8,4.3c-1,1-4-0.8-4-0.8s2.4,2,1.4,3.6
				c-1,1.5-3.3,0.2-3.3,0.2s0.9,3.1-0.7,3.4c-1.7,0.3-4-1.7-4-1.7s-5.9-2.6-5.5-6.3c0,0,1.1-6.9,1.2-7.1
				C1163.7,283.4,1168.7,279.9,1176.5,284.2z"/>
		</g>
		<g>
			<path class="st13" d="M1214,254.6c0,0-1.6,15.6,1.7,22.2c10.1-4.4,5.9-17.7,5.9-17.7L1214,254.6z"/>
			<path class="st11" d="M1248.3,260l-2.4,20.2c0.1,2.3-2.5,4.5-3.4,6.4c-2.2,4.7-7,7.9-12.6,8c-8.2,0.1-14.7-6.5-14.4-14.5
				l0.9-21.2L1248.3,260z"/>
			<path class="st13" d="M1241.3,252c13,0.8,14.1,27.2,4.4,31.2c0,0-4.8,9.1-4.6,4c-0.1-0.8-0.1-1.5-0.2-2.2
				c4.4-0.4,5.7-11,4.2-11.6c-3.7-1.4-3.8,3.5-3.8,6.2c0.1-0.7-1.6-0.9-1.5-1.6c4.2-25.3-14.6-3.8-17.4-7.1
				C1217.4,266.8,1210.2,247,1241.3,252z"/>
			<path class="st11" d="M1227.7,309.5h4.4c2.3,0,4.1-1.8,4.1-4v-20h-12.6v20C1223.6,307.6,1225.4,309.5,1227.7,309.5z"/>
			<path class="st13" d="M1248.3,272.4c0.4-3.1-8.6-8.2-10.5-8.6c-2-0.4-8.6,7.8-14.3,7.6c-15.4-0.5-15-24.1-5.4-21.6
				s31.1-6,33.7,14.5s-9.6,24.2-9.6,24.2S1247.3,280.8,1248.3,272.4z"/>
			<path class="st13" d="M1215.6,249.4c2-1.4,4.5-1.8,7-2s4.9-0.2,7.3-0.8c1.7-0.4,3.2-1.2,4.9-1.5c3.3-0.7,6.8,0.1,9.5,2.1
				c1.4,1,2.5,2.4,3.9,3.3c1.2,0.7,2.5,1.1,3.8,1.8c3.8,2.1,5.6,7,4.2,11.1c-0.3,0.9-0.8,1.7-1,2.7c-0.8,3.5,2.1,7,1.2,10.5
				c-0.5,2.1-2.4,3.6-3.4,5.5c-0.8,1.5-1.1,3.2-1.9,4.7c-0.8,1.6-2.2,2.9-3.9,3.7c-1,0.5-2.2,0.7-3.2,0.5c-1.1-0.3-2-1.2-2.1-2.3
				c-0.1-1.3,1.1-2.3,2-3.2c3.1-2.9,5.2-6.9,5.4-11.1c0.2-4.2-1.9-8.6-5.6-10.7c-1.5-0.8-3.2-1.4-4.1-2.8c-0.6-1-0.7-2.2-1.3-3.1
				c-1.1-1.7-3.5-1.8-5.5-1.6c-2.8,0.3-5.5,0.9-8.1,2c-1.6,0.6-3.2,1.4-5,1.8C1212.5,261.3,1210.2,253.1,1215.6,249.4z"/>
		</g>
		<path class="st18" d="M1237,297.8c0,0-7.7,8-14.4,6.2c-47,13.5-23.8,55.4-32.2,112l56.6-0.8C1236.2,341,1287.2,319.4,1237,297.8z"
			/>
		<path class="st19" d="M1240.4,299.3c0,0-15.3,2.7-15.3,38.2c-1.6,16.7,0.5,77.4,2.6,80.6c5.5,3.2,23.9-3.1,23.9-3.1
			s-7.5-45,3-71.3C1254.6,343.7,1270.7,308.2,1240.4,299.3z"/>
		<path class="st19" d="M1223.6,299.3c0,0-21.3,9.3-23.2,44.4c-1.3,25.1-2.4,74-2.4,74l-12.6,1.9c0,0,4.9-39.3,6.1-83.2
			C1195.8,322.7,1204.7,298.7,1223.6,299.3z"/>
		<path class="st8" d="M1156.3,307.4c0,0,13.8-0.3,20.2,0c2.9,3.1-0.1,17.8-0.1,17.8s14.1-25.8,47.2-25.8
			c-28.6,11.7-24.7,212.7-24.7,212.7H1169l18.7-157.3c0,0-25.5,2.6-35.4-2.8C1146.4,339.4,1156.3,307.4,1156.3,307.4z"/>
		<path class="st8" d="M1237,297.8c0,0-24.9,96.5-21.5,214.3c31.3,8,42.2-9.4,42.2-9.4s-10.2-141.8,1.8-160.1
			C1271.6,324.2,1260.4,297.8,1237,297.8z"/>
		<g>
			<path class="st18" d="M1256.8,347.8c-9.1-9.5-30.4-23.9-17.8-36.4c9.3-12.9,22.9,0.5,22.9,0.5s6.1,7.8,15.5,19.4
				C1272.5,337.1,1263.3,344,1256.8,347.8z"/>
			<path class="st11" d="M1260.7,396.9c0.2-0.2,0.4-0.4,0.6-0.6c0.6-0.6,1.3-1.1,2.2-1.4c2.8-1,5.9,0.5,6.9,3.2
				c0.4,1.1,0.4,2.2,0.1,3.2c0,0.4-0.2,0.8-0.4,1.1l0,0c0.9,4-1.3,10.5-3.2,13.4c-1.9,2.9-2.9,2.7-5.6,2.9c-1.3,1.4-2.9,2.6-4.9,1.4
				c-2.1,2.3-4.4,2.2-6.9,0.7c-1.5,0.4-4,2.2-4.6-1.2c-0.6-3.4,3.8-9.8,6.2-12.8c-5.4,2.1-13.2-2.3-8.8-4.7c3.9,1.1,7-1.1,9.6-3.4
				s5-1.5,7.8-0.6C1260.1,397.8,1260.4,397.4,1260.7,396.9z"/>
			<path class="st11" d="M1270.6,353.1c-12,10.8-3.7,35.3-11.6,46.6c0,0,8.3,5.3,11.1,2.8c11.6-15.8,22.8-36.4,19.2-44.8
				c0-0.1-0.2-1.2-0.2-1.3L1270.6,353.1L1270.6,353.1z"/>
			<path class="st11" d="M1256.9,347.7c4.7,4.9,11.8,6.8,13,9.7l19.2-1c-1-9.6-5.9-18.2-11.6-25.2
				C1272.6,337,1263.4,343.9,1256.9,347.7z"/>
		</g>
		<path class="st8" d="M1256.2,392.2c0,0,16.9,8.2,22.7,8.5c12.7-11.6,14.8-41.5,14.8-41.5s-20.8-53.8-47.5-56.7
			c-12.4,6.6-28.4,24.3,16.8,54.3C1260.4,378,1256.2,392.2,1256.2,392.2z"/>
	</g>
	<g>
		<path class="st17" d="M714.9,481.4c1.5-0.9,42.9,1.8,42.9,1.8l5.2-60.3l-29.5-29.5l-13.8,9.4L714.9,481.4z"/>
		<polygon class="st11" points="770.6,519.9 763.4,530.9 766.6,552.7 776.7,547.7 775.2,531.6 		"/>
		<path class="st13" d="M777.3,545.2c0,0-3.7-0.5-5.6,2.3c-1.9,2.7-7.3,0.2-7.3,0.2s-1.9-0.3-7.1,5.4c-5.8,5.7-13.6,3.1-13.6,3.1
			s-2.6,3-0.5,6c2.1,2.9,30.2-0.5,37.3-3.2C780.4,554.5,777.3,545.2,777.3,545.2z"/>
		<polygon class="st11" points="712.5,520.7 703.1,529.9 701.5,551.9 713.1,550.7 714.9,533.2 		"/>
		<path class="st14" d="M713.5,546.8c0,0-3.6-1.1-5.9,1.3c-2.3,2.4-5.7-1.1-5.7-1.1s-3.3-0.4-9.4,4.3c-6.7,4.6-14,0.8-14,0.8
			s-3.1,2.6-1.6,5.8c1.6,3.2,29.8,4.5,37.3,3.1C714.9,556.5,713.5,546.8,713.5,546.8z"/>
		<g>
			<path class="st18" d="M718.7,379c6.9,12.4,40,7.6,42.7,22l-29.3,71.6l-26.5-5.8L718.7,379z"/>
			<polygon class="st18" points="732.1,472.7 715.8,541 700.9,541.6 705.7,466.9 			"/>
			<path class="st19" d="M773.2,381.3l4.4,159.8h-13.8c0,0-22.8-88.1-31.4-117.2c-0.8-22.6-12.6-42.2-12.6-42.2L773.2,381.3z"/>
		</g>
		<path class="st18" d="M693.8,319.7c8.8-9.7,23.4-20,35.4-20.7c14.3,10.2,3.9,22,3.9,22s-7.1,10.8-20.7,17.3
			C706.1,334.1,698.3,325.7,693.8,319.7z"/>
		<path class="st20" d="M680.7,329.5c2.9-1.3,8.5-4.7,13.1-9.8c4.5,6,12.3,14.4,18.6,18.7c-20.5,14.8-20.5,14.8-42.8,20.5l0.3-22.8
			C670,336.1,680.5,329.5,680.7,329.5z"/>
		<path class="st20" d="M635.3,355.7c13.8-1.2,27.7-22.7,43.6-21l8.8,17l0,0c-4.2,8.1-27.6,12.9-47.4,14.2
			C636.5,365.4,635.3,355.7,635.3,355.7z"/>
		<path class="st20" d="M638.7,355.1c0.3,0,0.6,0,0.8,0.1c0.9,0,1.7,0.3,2.5,0.7c2.6,1.5,3.4,4.8,1.9,7.3c-0.6,1-1.5,1.7-2.4,2.1
			c-0.3,0.2-0.7,0.4-1.1,0.4l0,0c-2.6,3.3-9.1,5.7-12.6,6.2s-4-0.5-5.9-2.3c-1.9-0.1-3.9-0.5-4.2-2.7c-3.1-0.1-4.5-1.9-5-4.8
			c-1.3-0.9-4.1-1.4-1.8-4s9.9-3.6,13.9-3.7c-5.1-2.7-6.6-11.4-1.9-9.7c1.7,3.6,5.3,4.6,8.8,5.1s4.4,2.8,5.4,5.5
			C637.6,355.2,638.1,355.2,638.7,355.1z"/>
		<g>
			<path class="st13" d="M741.9,237.8c0,0-1.6,15.6,1.7,22.2c10.1-4.4,5.9-17.7,5.9-17.7L741.9,237.8z"/>
			<path class="st11" d="M776.3,243.2l-2.4,20.2c0.1,2.3-2.5,4.5-3.4,6.4c-2.2,4.7-7,7.9-12.6,8l0,0c-8.2,0.1-14.7-6.5-14.4-14.5
				l0.9-21.2L776.3,243.2z"/>
			<path class="st13" d="M769.3,235.2c13,0.8,14.1,27.2,4.4,31.2c0,0-4.8,9.1-4.6,4c-0.1-0.8-0.1-1.5-0.2-2.2
				c4.4-0.4,5.7-11,4.2-11.6c-3.7-1.4-3.8,3.4-3.8,6.2c0.1-0.7-1.6-0.9-1.5-1.6c4.2-25.3-14.6-3.8-17.4-7.1
				C745.4,250,738.1,230.2,769.3,235.2z"/>
			<path class="st11" d="M755.6,292.6h4.4c2.3,0,4.1-1.8,4.1-4v-20h-12.6v20C751.5,290.8,753.3,292.6,755.6,292.6z"/>
			<path class="st13" d="M776.3,255.6c0.4-3.1-8.6-8.2-10.5-8.6c-2-0.4-8.6,7.8-14.3,7.6c-15.4-0.5-15-24.1-5.4-21.6
				s31.1-6,33.7,14.5c2.6,20.5-9.6,24.2-9.6,24.2S775.3,264,776.3,255.6z"/>
		</g>
		<path class="st18" d="M764.9,280.9c0,0-6.7,3.5-13.4,1.6c-47,13.5-24.7,59.9-33.2,116.6l56.7-0.8
			C764.1,324.2,815.2,302.6,764.9,280.9z"/>
		<path class="st19" d="M751.5,282.5c0,0-21.3,9.3-23.2,44.4c-1.3,25.1-2.4,74-2.4,74l-12.6,1.9c0,0,4.9-39.3,6.1-83.2
			C723.8,305.9,732.6,281.8,751.5,282.5z"/>
		<path class="st8" d="M645.7,368.4c0,0-4.6-28,1.8-27.7c2.9,3.1,56.8-32.3,56.8-32.3s14.1-25.8,47.2-25.8
			c-28.6,11.7-24.7,212.7-24.7,212.7h-29.9L715.6,338c0,0-14.6,12.7-31,19.2C663.3,368.9,645.7,368.4,645.7,368.4z"/>
		<path class="st8" d="M764.9,280.9c0,0-24.9,96.5-21.5,214.3c31.3,8,42.2-9.4,42.2-9.4s-10.2-141.8,1.8-160.1
			C799.5,307.4,788.4,281,764.9,280.9z"/>
		<g>
			<g>
				<path class="st18" d="M754.9,327.4c3-12.7,3.3-38,20.9-34.8c16.1,0.4,12.4,18.9,12.4,18.9s-3.3,9.3-7.8,23.5
					C772.8,334.2,761.8,330.6,754.9,327.4z"/>
				<path class="st11" d="M715.5,357.9c0.3,0,0.6,0.1,0.8,0.1c0.9,0.1,1.7,0.4,2.4,1c2.4,1.8,2.9,5.1,1.1,7.4
					c-0.7,0.9-1.6,1.5-2.7,1.9c-0.4,0.2-0.7,0.3-1.2,0.3l0,0c-2.9,3-9.7,4.8-13.2,4.9s-3.9-0.9-5.6-2.9c-1.9-0.2-3.8-0.9-3.9-3.2
					c-3.1-0.4-4.2-2.3-4.4-5.3c-1.2-1-4.1-2.1-1.6-4.4c2.5-2.4,10.4-2.3,14.4-2.1c-4.8-3.2-5.4-12-0.9-9.8c1.3,3.8,4.8,5.1,8.2,6
					s4.1,3.2,4.8,6.1C714.4,357.9,715,357.9,715.5,357.9z"/>
				<path class="st11" d="M758.1,341.6c-15.8-3.7-32,16.7-46,16.5c0,0,0.2,9.7,3.8,10.6c19.9,0.7,43.6-1.7,48.6-9.4
					c0.1-0.1,0.9-0.8,1-0.9L758.1,341.6C758.2,341.6,758.1,341.6,758.1,341.6z"/>
				<path class="st11" d="M755.1,327.4c-1.6,6.6,0.8,13.4-1,16l11.5,15.1c7.6-6.1,12.1-14.9,14.9-23.5
					C772.9,334.2,761.9,330.6,755.1,327.4z"/>
			</g>
			<path class="st8" d="M717.1,351.7c0,0,2.4,18.3,5.4,23.2c16.9,3.9,43.4-11.1,43.4-11.1s34-46.9,21.6-70.2
				c-12.5-6.4-36.4-9.5-36.7,43.9C731.4,347.2,717.1,351.7,717.1,351.7z"/>
		</g>
	</g>
	<g>
		<path class="st13" d="M648.2,349.7l-5.9-38.4h3.2v-4h-11.1h-7.8v4h3.2l-5.9,38.4c-0.2,1-0.4,2-0.8,2.9l-17.6,41.1
			c-0.6,1.4-0.4,3,0.4,4.2l2.5,3.7c0.9,1.3,2.3,2,3.8,2h22.2h25.5c1.5,0,3-0.8,3.8-2l2.5-3.7c0.9-1.3,1-2.8,0.4-4.2L649,352.6
			C648.6,351.7,648.3,350.7,648.2,349.7z"/>
		<path class="st5" d="M652.5,364.9l-5-12.1c-0.5-1.2-0.8-2.5-1-3.8l-5.7-37.8h-9.5l-5.8,38.7c-0.2,1.3-0.5,2.6-1,3.8l-5.4,12.7
			C630,364,641.3,363.7,652.5,364.9z"/>
		<g>
			<path class="st21" d="M652.5,364.9c-11.2-1.3-22.5-0.9-33.4,1.5L607.4,394c-1.3,3.3,2.5,7.8,4.7,7.5h22.3h25.3
				c1.8,0,6.2-4.1,4.7-7.5L652.5,364.9z"/>
		</g>
	</g>
	<g>
		<path class="st13" d="M1157.5,363.1l-4.4-28.5h2.4v-3h-8.3h-5.8v3h2.4l-4.4,28.5c-0.1,0.7-0.3,1.5-0.6,2.1l-13.1,30.5
			c-0.4,1-0.3,2.2,0.3,3.1l1.9,2.7c0.6,0.9,1.7,1.5,2.8,1.5h16.5h18.9c1.1,0,2.2-0.6,2.8-1.5l1.9-2.7c0.6-0.9,0.7-2.1,0.3-3.1
			l-13.1-30.5C1157.8,364.5,1157.6,363.8,1157.5,363.1z"/>
		<g>
			<path class="st12" d="M1141.1,360.4l-0.4,2.8c-0.1,1-0.4,1.9-0.7,2.8l-12.7,30c-1,2.4,1.8,5.8,3.5,5.6h16.6h18.8
				c1.3,0,4.6-3.1,3.5-5.6l-12.7-30.6c-0.4-0.9-0.6-1.8-0.7-2.8l-0.1-0.5c-0.1,0-0.2,0-0.3-0.1C1151,359.6,1146,359.1,1141.1,360.4z
				"/>
		</g>
		<g>
			<path class="st5" d="M1145,334.5l-3.9,26c4.9-1.3,9.9-0.8,14.8,1.6c0.1,0,0.2,0,0.3,0.1l-4.2-27.6h-7V334.5z"/>
		</g>
	</g>
	<g>
		<g>
			<ellipse class="st13" cx="753.8" cy="372.6" rx="23" ry="22.6"/>
			<rect x="747.5" y="299" class="st13" width="12.5" height="65"/>
			<path class="st5" d="M773.7,364.4c-2.7-6.2-8.2-10.9-15-12.4v-52.9h-9.9V352c-5.8,1.3-10.8,5-13.7,9.9
				C748.1,363.9,761,365.4,773.7,364.4z"/>
			<g>
				<path class="st0" d="M735.1,361.9c-1.9,3.2-3,6.8-3,10.7c0,11.7,9.7,21.2,21.7,21.2s21.7-9.5,21.7-21.2c0-2.9-0.6-5.7-1.7-8.2
					C761,365.4,748.1,363.9,735.1,361.9z"/>
			</g>
			<rect x="745" y="299" class="st13" width="17.5" height="4.2"/>
		</g>
		<rect x="716.7" y="397.2" class="st13" width="68.4" height="6.4"/>
		<rect x="722.6" y="309.4" class="st13" width="3.5" height="91"/>
		<rect x="718.3" y="317.9" class="st13" width="48.4" height="3.1"/>
	</g>
	<g>
		<g>
			<ellipse class="st13" cx="1057.7" cy="362.2" rx="30.6" ry="30"/>
			<rect x="1049.4" y="264.5" class="st13" width="16.6" height="86.3"/>
			<g>
				<path class="st16" d="M1052.6,351.1c-0.3-0.1-0.6-0.2-0.8-0.3c-3.5,0.8-6.9,1.5-10.3,1.8c3.4-0.3,6.8-1,10.3-1.8
					c-5.7-1.9-11.9-4.8-18-4.3c-3,4.5-4.8,9.8-4.8,15.6c0,15.6,12.9,28.2,28.8,28.2c15.9,0,28.8-12.6,28.8-28.2
					c0-2.2-0.3-4.4-0.8-6.4C1074.5,356.2,1062.8,353.7,1052.6,351.1z"/>
			</g>
			<path class="st5" d="M1064.3,334.8v-70.2h-13.1v70.2c-7.2,1.7-13.4,6-17.4,11.8c6.1-0.5,12.3,2.3,18,4.3
				c9.5-2.3,19.4-5.5,28.9-5.7C1076.7,340,1070.9,336.3,1064.3,334.8z"/>
			<g>
				<path class="st22" d="M1051.8,350.9c0.3,0.1,0.6,0.2,0.8,0.3c10.2,2.5,21.8,5,33.1,4.6c-0.9-3.9-2.7-7.5-5.1-10.6
					C1071.1,345.3,1061.3,348.6,1051.8,350.9z"/>
			</g>
			<rect x="1046.1" y="264.5" class="st13" width="23.3" height="5.6"/>
		</g>
		<rect x="1016.1" y="394.9" class="st13" width="90.8" height="8.5"/>
		<rect x="1094.4" y="278.3" class="st13" width="4.7" height="120.8"/>
		<rect x="1040.6" y="289.6" class="st13" width="64.2" height="4.1"/>
	</g>
	<g>
		<g>
			<path class="st13" d="M834.5,392.2h-1.4c-2,0-3.7-1.6-3.7-3.6V347c0-0.3,0.2-0.5,0.5-0.5h7.7c0.3,0,0.5,0.2,0.5,0.5v41.6
				C838.2,390.6,836.6,392.2,834.5,392.2z"/>
			<rect x="827.6" y="346.4" class="st13" width="12.4" height="3"/>
			<path class="st23" d="M834.4,391.1h-1.2c-1.6,0-3-1.3-3-2.9v-38.7h7.1v38.7C837.4,389.8,836,391.1,834.4,391.1z"/>
		</g>
		<g>
			<path class="st13" d="M855.9,392.2h-1.4c-2,0-3.7-1.6-3.7-3.6V347c0-0.3,0.2-0.5,0.5-0.5h7.7c0.3,0,0.5,0.2,0.5,0.5v41.6
				C859.5,390.6,857.9,392.2,855.9,392.2z"/>
			<rect x="849" y="346.4" class="st13" width="12.4" height="3"/>
			<g>
				<path class="st7" d="M855.7,391.1h-1.2c-1.6,0-3-1.3-3-2.9v-38.7h7.1v38.7C858.7,389.8,857.4,391.1,855.7,391.1z"/>
			</g>
		</g>
		<g>
			<path class="st13" d="M877.2,392.2h-1.4c-2,0-3.7-1.6-3.7-3.6V347c0-0.3,0.2-0.5,0.5-0.5h7.7c0.3,0,0.5,0.2,0.5,0.5v41.6
				C880.9,390.6,879.2,392.2,877.2,392.2z"/>
			<rect x="870.3" y="346.4" class="st13" width="12.4" height="3"/>
			<path class="st12" d="M877.1,391.1h-1.2c-1.6,0-3-1.3-3-2.9v-38.7h7.1v38.7C880,389.8,878.7,391.1,877.1,391.1z"/>
		</g>
		<g>
			<path class="st13" d="M898.5,392.2h-1.4c-2,0-3.7-1.6-3.7-3.6V347c0-0.3,0.2-0.5,0.5-0.5h7.7c0.3,0,0.5,0.2,0.5,0.5v41.6
				C902.2,390.6,900.5,392.2,898.5,392.2z"/>
			<rect x="891.6" y="346.4" class="st13" width="12.4" height="3"/>
			<g>
				<path class="st24" d="M898.4,390.6h-1.2c-1.7,0-3-1.3-3-3V350h7.2v37.6C901.4,389.3,900.1,390.6,898.4,390.6z"/>
			</g>
		</g>
		<g>
			<path class="st13" d="M919.8,392.2h-1.4c-2,0-3.7-1.6-3.7-3.6V347c0-0.3,0.2-0.5,0.5-0.5h7.7c0.3,0,0.5,0.2,0.5,0.5v41.6
				C923.5,390.6,921.9,392.2,919.8,392.2z"/>
			<rect x="912.9" y="346.4" class="st13" width="12.4" height="3"/>
			<path class="st25" d="M919.7,391.1h-1.2c-1.6,0-3-1.3-3-2.9v-38.7h7.1v38.7C922.7,389.8,921.3,391.1,919.7,391.1z"/>
		</g>
		<rect x="814.2" y="397.7" class="st13" width="123" height="5.9"/>
		<rect x="819" y="351.1" class="st13" width="3.2" height="49.5"/>
		<rect x="929.5" y="351.1" class="st13" width="3.2" height="49.5"/>
		<rect x="820.6" y="357.3" class="st13" width="110.5" height="1.4"/>
	</g>
	<g>
		<g>
			<rect x="525.3" y="403.5" class="st26" width="830.9" height="33.9"/>
		</g>
		<rect x="548.3" y="437.4" class="st0" width="784.9" height="13.4"/>
		<g>
			<rect x="574.3" y="450.8" class="st0" width="38.2" height="125.2"/>
			<rect x="1269" y="450.8" class="st0" width="38.2" height="125.2"/>
		</g>
	</g>
</g>
</svg>
