<?xml version="1.0" encoding="utf-8"?>
<!-- Generator: Adobe Illustrator 19.0.0, SVG Export Plug-In . SVG Version: 6.00 Build 0)  -->
<svg version="1.1" id="Layer_1" xmlns="http://www.w3.org/2000/svg" xmlns:xlink="http://www.w3.org/1999/xlink" x="0px" y="0px"
	 viewBox="44 -187 1048.1 934" style="enable-background:new 44 -187 1048.1 934;" xml:space="preserve">
<style type="text/css">
	.st0{clip-path:url(#SVGID_2_);}
	.st1{clip-path:url(#SVGID_4_);fill:url(#SVGID_5_);}
	.st2{clip-path:url(#SVGID_2_);fill:url(#SVGID_6_);}
	.st3{clip-path:url(#SVGID_2_);fill:url(#SVGID_7_);}
	.st4{clip-path:url(#SVGID_2_);fill:url(#SVGID_8_);}
	.st5{clip-path:url(#SVGID_2_);fill:url(#SVGID_9_);}
</style>
<g>
	<defs>
		<polygon id="SVGID_1_" points="-273.9,-198.4 -273.9,-98.3 -273.9,-58.6 -273.9,106 -273.9,268.2 -273.9,423.2 -273.9,459.4 
			-273.9,490.4 -273.9,750.2 -265.2,750.2 -186.7,750.2 -39.3,750.2 25,750.2 46.5,750.2 70.8,750.2 80.5,750.2 168.8,750.2 
			237.7,750.2 297.9,750.2 319.6,750.2 342.6,750.2 701.9,750.2 893.9,750.2 903.6,750.2 1013.8,750.2 1043.3,750.2 1163.8,750.2 
			1244,750.2 1244,738.5 1244,470.7 1244,450.3 1244,418.7 1244,321.4 1244,-198.4 		"/>
	</defs>
	<clipPath id="SVGID_2_">
		<use xlink:href="#SVGID_1_"  style="overflow:visible;"/>
	</clipPath>
	<g class="st0">
		<defs>
			<path id="SVGID_3_" d="M1032.5-235.5c-86.7-26.9-177.5-54.1-266.9-38.7C676.1-258.8,589.5-186,591-95.2
				c0.4,21.8,5.6,44.1-0.4,65.1c-13.8,47.8-73.5,60.5-117.7,83.3c-60.2,31-100.4,92-121.1,156.5c-20.7,64.4-24.2,133-27.5,200.6
				c-4.8,98.2-7.9,203.4,44.5,286.5c33.4,52.9,85.9,90.6,138.7,124.3c209.5,133.8,445.3,226.1,690,270.1
				c97.2,17.5,201.1,26.6,291.5-13c107.9-47.2,177.8-157.9,204-272.8c26.2-114.8,14.7-234.7-0.7-351.4
				c-15.6-118.4-35.4-237.2-77-349.2c-41.6-112-106.5-217.7-199.8-292.2c-93.3-74.5-217.3-115.1-334.7-93.3
				C1065.7-266.9,1047.6-249.4,1032.5-235.5z"/>
		</defs>
		<clipPath id="SVGID_4_">
			<use xlink:href="#SVGID_3_"  style="overflow:visible;"/>
		</clipPath>
		<linearGradient id="SVGID_5_" gradientUnits="userSpaceOnUse" x1="318.9652" y1="-106.7179" x2="548.022" y2="394.6139">
			<stop  offset="0" style="stop-color:#FF01A0"/>
			<stop  offset="1" style="stop-color:#E2A887"/>
		</linearGradient>
		<rect x="-338.4" y="-206.9" class="st1" width="1666.7" height="970.5"/>
	</g>
	<linearGradient id="SVGID_6_" gradientUnits="userSpaceOnUse" x1="712.2106" y1="130.9629" x2="904.8897" y2="551.7563">
		<stop  offset="5.376344e-003" style="stop-color:#3C3CF3"/>
		<stop  offset="1" style="stop-color:#66FFFF"/>
	</linearGradient>
	<path class="st2" d="M1443.3,0.7c-39.8-53.8-124.7-54.1-181.5-18.8c-56.8,35.3-92.2,95.7-125.4,153.8
		c-40.4,70.7-80.7,141.4-121.1,212.1c-18.9,33-42.1,69.4-79.4,76.9c-45.9,9.2-87-30.2-111.2-70.2c-23.2-38.4-39.7-80.5-62.5-119.2
		c-22.8-38.6-53.6-74.9-95.2-91.7c-55.1-22.4-120.3-6-168.6,28.8c-48.3,34.7-82.6,85.4-112.7,136.7C300,455.3,240,616.8,209.3,783.7
		c54.8,68.7,134.8,110.4,219.3,134.5c219.4,62.4,455.6,64.9,676.3,7.2c57-14.9,114.3-34.5,160.1-71.5
		c57.7-46.7,91.4-116.5,118.2-185.8c71.3-184.4,106.7-382.7,103.5-580.5C1486.1,53.6,1463.5,28,1443.3,0.7z"/>
	<linearGradient id="SVGID_7_" gradientUnits="userSpaceOnUse" x1="733.2383" y1="12.1215" x2="857.2611" y2="707.5383">
		<stop  offset="5.376344e-003" style="stop-color:#3C3CF3"/>
		<stop  offset="1" style="stop-color:#66FFFF"/>
	</linearGradient>
	<path class="st3" d="M1488.7,128.6c-26.5,40.6-72.3,68-120.6,72.1c-48.3,4.1-98.1-15.1-131.1-50.6c-56.3-60.6-61.6-159.3-126-211.2
		c-55.7-44.9-140.5-37.8-200.8,0.6C850-22,810.2,41.4,779.7,106c-30.6,64.6-54.2,132.9-92.4,193.4c-17,26.9-37.3,52.5-64.2,69.4
		c-26.9,16.9-61.4,24.1-91.1,12.8c-65.7-25-79.7-122.7-145.5-147.3c-32.4-12.1-69.8-2.2-98,17.9c-28.1,20.1-48.5,49-66.9,78.3
		C140.3,459.7,87.1,606.6,66.6,757.9C181.3,894,345.2,988.2,518.7,1027.6c173.5,39.5,354.6,34.3,530.7,8.8
		c89.5-13,179.2-31.4,261.6-68.7c82.4-37.3,157.8-94.8,204-172.6c45.1-75.9,59.8-165.6,69.9-253.3c8.5-73.8,14.3-148.8,2.7-222.2
		C1576,246.2,1543.3,179,1488.7,128.6z"/>
	<linearGradient id="SVGID_8_" gradientUnits="userSpaceOnUse" x1="878.105" y1="256.7265" x2="1050.8516" y2="828.1191">
		<stop  offset="5.376344e-003" style="stop-color:#3C3CF3"/>
		<stop  offset="1" style="stop-color:#66FFFF"/>
	</linearGradient>
	<path class="st4" d="M1479,244c-37.4-18.2-83.2-5.5-118,17.3c-34.8,22.8-62.7,54.6-96,79.6s-75.9,43.1-116.1,32.2
		c-30.8-8.4-54.5-32.1-77.5-54.2c-35.5-34.1-73.4-66.6-117-89.4c-43.7-22.8-94-35.4-142.6-27.8c-88.8,13.9-153.7,89.8-202.6,165.2
		c-83,128.2-142.8,268.7-178.2,411.6c50,24.1,98.7,54.6,150.8,73.7c222,81.2,477.9,64.2,687.2-45.7c29.7-15.6,58.9-33.3,81.4-58.2
		c21.7-24,36.1-53.6,49-83.3C1455.7,535,1473.4,385.5,1479,244z"/>
	<linearGradient id="SVGID_9_" gradientUnits="userSpaceOnUse" x1="1031.7554" y1="435.7052" x2="1210.1342" y2="818.9783">
		<stop  offset="5.376344e-003" style="stop-color:#3C3CF3"/>
		<stop  offset="1" style="stop-color:#66FFFF"/>
	</linearGradient>
	<path class="st5" d="M1434.8,315.2c-25.6-42.3-83.6-56.8-131-42.7c-47.4,14.1-84.8,51-112.6,91.9c-27.7,40.9-47.6,86.6-73,129
		c-17.8,29.8-43.5,60.9-78.2,61.9c-50.5,1.4-83.4-61-133.8-65.2c-32.3-2.6-61.1,19.8-83.2,43.6c-55.4,59.7-92.2,136.6-103.8,217.3
		c13.7,23,39.7,39.8,65.1,48.3c25.4,8.5,52.4,10.6,79.2,11.8c141.6,6,284.2-14.3,418.5-59.4c17.2-5.8,61.2,2.3,74.3-10.3
		c17.2-16.7-2.6-55.8,3.2-79.1C1388.6,546.4,1405.8,431,1434.8,315.2z"/>
</g>
</svg>
