<?xml version="1.0" encoding="utf-8"?>
<!-- Generator: Adobe Illustrator 19.0.0, SVG Export Plug-In . SVG Version: 6.00 Build 0)  -->
<svg version="1.1" xmlns="http://www.w3.org/2000/svg" xmlns:xlink="http://www.w3.org/1999/xlink" x="0px" y="0px"
	 viewBox="0 0 1289.9 701.7" style="enable-background:new 0 0 1289.9 701.7;" xml:space="preserve">
<style type="text/css">
	.st0{fill-rule:evenodd;clip-rule:evenodd;fill:#C0C4E3;}
	.st1{fill-rule:evenodd;clip-rule:evenodd;fill:#FFFFFF;}
	.st2{fill-rule:evenodd;clip-rule:evenodd;fill:#F7A01A;}
	.st3{fill-rule:evenodd;clip-rule:evenodd;fill:#EFA9AF;}
	.st4{fill-rule:evenodd;clip-rule:evenodd;fill:#5E72EB;}
	.st5{fill-rule:evenodd;clip-rule:evenodd;fill:#465DC1;}
	.st6{fill-rule:evenodd;clip-rule:evenodd;fill:#E1E3F0;}
	.st7{fill-rule:evenodd;clip-rule:evenodd;fill:#3E3E5C;}
	.st8{fill-rule:evenodd;clip-rule:evenodd;fill:#CC8372;}
	.st9{fill-rule:evenodd;clip-rule:evenodd;}
	.st10{fill-rule:evenodd;clip-rule:evenodd;fill:#3D3E5C;}
	.st11{fill-rule:evenodd;clip-rule:evenodd;fill:#303152;}
	.st12{fill-rule:evenodd;clip-rule:evenodd;fill:#E8ECF6;}
	.st13{fill-rule:evenodd;clip-rule:evenodd;fill:#C1C5E3;}
	.st14{fill-rule:evenodd;clip-rule:evenodd;fill:#1D1D46;}
	.st15{fill-rule:evenodd;clip-rule:evenodd;fill:#29294F;}
	.st16{fill-rule:evenodd;clip-rule:evenodd;fill:#F6A988;}
	.st17{fill-rule:evenodd;clip-rule:evenodd;fill:#FCCC07;}
	.st18{fill-rule:evenodd;clip-rule:evenodd;fill:#808BB4;}
</style>
<g id="Master_blank_background">
</g>
<g id="Layer_1">
	<g>
		<g>
			<path class="st0" d="M452,427.3c-16.7-7.8-23.7-27.4-15.7-43.7L575.5,99.9c0.1-0.3,0.5-0.4,0.7-0.2l59.3,27.9
				c0.3,0.1,0.4,0.4,0.3,0.7L496.7,412C488.7,428.3,468.7,435.2,452,427.3z"/>
		</g>
		<g>
			<polygon class="st0" points="648.3,133.5 563.6,93.6 553.6,114 638.3,153.9 			"/>
		</g>
		<path class="st1" d="M455.6,420.1c-13.5-6.3-19.2-22.2-12.7-35.4l128.2-261.3l48.8,23L491.7,407.7
			C485.2,420.9,469,426.5,455.6,420.1z"/>
	</g>
	<g>
		<g>
			<path class="st0" d="M594.2,551.5L594.2,551.5c-16.9-7.2-24.7-26.5-17.3-43.1L705,219.7c0.1-0.3,0.4-0.4,0.7-0.3l60.4,25.7
				c0.3,0.1,0.4,0.4,0.3,0.7L638.2,534.5C630.9,551.1,611.2,558.7,594.2,551.5z"/>
		</g>
		<g>
			<polygon class="st0" points="779,250.7 692.8,213.9 683.6,234.7 769.8,271.4 			"/>
		</g>
		<path class="st2" d="M597.5,544.2L597.5,544.2c-13.7-5.8-20-21.5-14-34.9l118-265.9l49.7,21.2l-118,265.9
			C627.1,543.9,611.2,550,597.5,544.2z"/>
	</g>
	<g>
		<g>
			<path class="st0" d="M738.2,561.3c-17,7.1-36.7-0.7-43.9-17.3L568.6,254.2c-0.1-0.3,0-0.6,0.3-0.7l60.6-25.2
				c0.3-0.1,0.6,0,0.7,0.3l125.7,289.7C763.1,534.9,755.2,554.2,738.2,561.3z"/>
		</g>
		<g>
			<polygon class="st0" points="642.4,222.9 555.9,258.9 565,279.8 651.5,243.7 			"/>
		</g>
		<g>
			<path class="st3" d="M733.8,550.2l-0.7,0.3c-13.8,5.7-29.7-0.6-35.6-14.1L584.9,276.8l50.6-21.1l112.6,259.6
				C754,528.8,747.6,544.4,733.8,550.2z"/>
		</g>
	</g>
	<g>
		<g>
			<path class="st0" d="M217.1,520c-17.3,6.5-36.6-2-43.2-18.9L58.8,207.2c-0.1-0.3,0-0.6,0.3-0.7l61.5-23.1c0.3-0.1,0.6,0,0.7,0.3
				l115.1,293.9C243,494.6,234.4,513.5,217.1,520z"/>
		</g>
		<g>
			<polygon class="st0" points="133.8,178.5 46,211.5 54.3,232.6 142,199.6 			"/>
		</g>
		<path class="st2" d="M214.2,512.6c-14,5.2-29.6-1.6-35-15.3l-106-270.7l50.6-19l106,270.7C235.1,492,228.1,507.3,214.2,512.6z"/>
	</g>
	<g>
		<g>
			<path class="st0" d="M1071.1,546.8c-17.3-6.3-26.2-25.1-19.8-42.1L1163,209.5c0.1-0.3,0.4-0.4,0.7-0.3l61.7,22.4
				c0.3,0.1,0.4,0.4,0.3,0.7l-111.6,295.2C1107.7,544.4,1088.4,553.1,1071.1,546.8z"/>
		</g>
		<g>
			<polygon class="st0" points="1238.6,236.3 1150.5,204.3 1142.4,225.6 1230.6,257.6 			"/>
		</g>
		<g>
			<path class="st4" d="M1073.9,539.3c-14-5.1-21.2-20.4-16-34.1l102.8-271.8l50.8,18.4l-102.8,271.8
				C1103.6,537.3,1088,544.4,1073.9,539.3z"/>
		</g>
	</g>
	<g>
		<path class="st1" d="M431.9,390.4l-26.6-62.1c-2.4-5.5-4-11.3-4.9-17.2L365.5,82.7h19.2v-24h-66h-46.5v24h19.2L256.4,311
			c-0.9,5.9-2.6,11.7-4.9,17.2l-32.1,74.9c29.4-2,59.4,0.9,89.5,5.6C349.9,400.1,390.9,390.8,431.9,390.4z"/>
		<g>
			<path class="st5" d="M431.9,390.4c-41,0.5-82.1,9.8-123.1,18.3c47.3,7.3,94.7,18.7,140.3,21.7L431.9,390.4z"/>
		</g>
		<g>
			<path class="st5" d="M219.4,403.1l-8.3,19.2c32.6-0.8,65.1-6.9,97.7-13.7C278.8,404,248.8,401.1,219.4,403.1z"/>
		</g>
		<g>
			<path class="st4" d="M504.9,560.4l-55.8-130.1c-45.6-2.9-93-14.4-140.3-21.7c-32.6,6.8-65.1,12.9-97.7,13.7l-59.2,138
				c-6.8,15.8-5,33.9,4.7,48.2c9.7,14.3,26,22.9,43.5,22.9h118.5h138.1c17.5,0,33.9-8.6,43.5-22.9
				C509.9,594.3,511.6,576.2,504.9,560.4z"/>
		</g>
		<path class="st6" d="M456.7,635.5H200.1c-18.9,0-36.5-9.2-47-24.7c-10.5-15.5-12.4-34.9-5-52l99.6-232.1
			c2.2-5.2,3.8-10.6,4.6-16.2l34.2-223.6H268V54.7h120.9v32.2h-18.5l34.2,223.6c0.8,5.5,2.4,11,4.6,16.2l99.6,232.1
			c7.3,17.1,5.5,36.6-5,52C493.2,626.3,475.6,635.5,456.7,635.5L456.7,635.5z M276.3,78.6L276.3,78.6h19.8l-35.6,233
			c-1,6.2-2.7,12.3-5.2,18.2l-99.6,232.1c-6.3,14.6-4.7,31.2,4.3,44.3c8.9,13.2,23.9,21.1,40.1,21.1h256.5
			c16.1,0,31.1-7.9,40.1-21.1c8.9-13.2,10.5-29.8,4.3-44.3l-99.6-232.1c-2.5-5.8-4.2-11.9-5.2-18.2l-35.6-233h19.8V62.8H276.3V78.6z
			"/>
	</g>
	<g>
		<g>
			<ellipse class="st0" cx="868.8" cy="498.9" rx="136.9" ry="134.2"/>
		</g>
		<g>
			<rect x="831.7" y="61.8" class="st0" width="74.2" height="386"/>
		</g>
		<path class="st1" d="M987.4,450c-15.8-36.8-48.8-64.7-89.2-73.9V61.8h-58.7v314.3c-34.7,7.9-64,29.7-81.6,58.9
			C835,447,911.9,455.8,987.4,450z"/>
		<g>
			<path class="st4" d="M757.8,435c-11.3,18.7-17.8,40.5-17.8,63.9c0,69.7,57.6,126.2,128.8,126.2c71.1,0,128.8-56.5,128.8-126.2
				c0-17.4-3.7-33.9-10.2-48.9C911.9,455.8,835,447,757.8,435z"/>
		</g>
		<g>
			<rect x="816.6" y="50.9" class="st0" width="104.2" height="25.1"/>
		</g>
	</g>
	<g>
		<path class="st7" d="M332.8,453.3c-4.8,0.1-9.8-0.8-13.9-3.3c-6.7-4-10.2-11.6-12.3-19c-1.6-5.8-2.5-11.9-1.1-17.8
			c2-8.7,8.7-15.4,14-22.6c5.3-7.2,5.4-12.8,2.2-21.1c-7.6-20.3,21.7-29.4,25-28.9c10.8,1.6,13.3,4.1,17.6,7.7
			c7,5.9,9.7,15.8,10.8,24.7c0.6,4.5-0.5,9.1,0.4,13.6c0.9,4.2,3.5,7.8,4.5,12c0.9,3.9,0.3,8-0.7,11.8c-3.1,11.3-10,19.2-17.8,27.8
			C353.9,446.7,344.8,453,332.8,453.3z"/>
		<path class="st8" d="M419.1,393.6c0,0.3,0,0.5,0.1,0.8c0.1,0.8,0.3,1.6,0.8,2.4c1.5,2.4,4.7,3.1,7.2,1.6c0.9-0.6,1.6-1.4,2-2.3
			c0.2-0.3,0.3-0.7,0.4-1.1l0,0c3.1-2.5,5.4-8.7,5.8-12c0.4-3.3-0.6-3.8-2.4-5.5c-0.1-1.8-0.6-3.6-2.8-3.9c-0.2-2.9-2-4.2-4.8-4.6
			c-0.9-1.2-1.5-3.8-4-1.6c-2.5,2.2-3.3,9.4-3.4,13.1c-2.8-4.7-11.3-6-9.5-1.6c3.6,1.5,4.6,4.9,5.2,8.2c0.6,3.3,2.8,4.1,5.5,5
			C419.2,392.6,419.1,393.1,419.1,393.6z"/>
		<g>
			<path class="st9" d="M388.5,419.1c-9.1-0.6-38.3-20.1-45.5-18c-13.4,3.9-2,18-2,18s24.6,21.3,49.2,18.6l-1.5-18.6
				C388.6,419,388.5,419.1,388.5,419.1z"/>
		</g>
		<path class="st2" d="M419,391.9c-5.9,7.9-13,16-38,29.4l9.1,16.4c0.9-0.5,1.8-1.1,2.7-1.7c14.2-9.2,23.6-18.6,33.4-35.4
			C427.3,397.1,419,391.9,419,391.9z"/>
		<polygon class="st8" points="300,596.5 301.7,609.5 289.3,627.9 282.3,619.1 290.7,605.2 		"/>
		<polygon class="st8" points="348.7,549.6 329.3,540.3 329.2,541.1 288.1,608.5 294.4,620.3 		"/>
		<path class="st10" d="M281.4,618.3c0,0,3.7-0.6,5.7,2c2,2.7,7.3-0.1,7.3-0.1s1.8-0.3,7.3,5.1c6.1,5.4,13.8,2.5,13.8,2.5
			s2.8,2.9,0.8,6c-2,3-30.1,0.8-37.4-1.5C278.8,627.7,281.4,618.3,281.4,618.3z"/>
		<polygon class="st8" points="366.5,603.6 374.5,614.1 373,636.1 361.6,633.3 362.4,615.7 		"/>
		<polygon class="st8" points="390.9,539.9 373.8,534.9 368.1,546.9 362.2,620.4 373.8,625.1 		"/>
		<path class="st8" d="M349.8,402.5h-4.3c-2.3,0-4.1-1.8-4.1-4v-19.8h12.5v19.8C353.9,400.7,352.1,402.5,349.8,402.5z"/>
		<path class="st8" d="M329.2,352.5l2.4,20c-0.1,2.2,2.5,4.5,3.4,6.3c2.2,4.6,7,7.9,12.5,7.9c8.1,0.1,14.6-6.4,14.3-14.4l-0.9-21
			L329.2,352.5z"/>
		<path class="st2" d="M340.6,391c0,0,7.6,8,14.2,6.1c21.6,39.5,10.9,58.5,28.7,89l-52.9-0.8C342.4,443.2,306.5,406,340.6,391z"/>
		<path class="st11" d="M361.8,629.4c0,0,3.7-0.6,5.7,2.1c2,2.7,5.8-0.3,5.8-0.3s3.3,0,8.7,5.6c6,5.5,13.7,2.7,13.7,2.7s2.7,3,0.7,6
			c-2,3-30.2,0.4-37.4-2C359,638.8,361.8,629.4,361.8,629.4z"/>
		<path class="st8" d="M258.4,445c0.3,0,0.5,0.1,0.8,0.3c0.8,0.3,1.5,0.7,2.2,1.3c2,2,1.9,5.3-0.1,7.2c-0.8,0.8-1.8,1.2-2.8,1.4
			c-0.4,0.1-0.8,0.2-1.2,0.1l0,0c-3.2,2.4-9.9,3-13.3,2.6c-3.3-0.4-3.6-1.5-4.8-3.6c-1.8-0.5-3.4-1.5-3.2-3.6
			c-2.9-0.9-3.6-2.9-3.3-5.7c-0.9-1.2-3.4-2.3-0.6-4.2c2.8-1.8,10.1-0.8,13.8,0c-4-3.8-3.2-12.2,0.7-9.4c0.6,3.8,3.7,5.6,6.8,6.9
			c3.1,1.3,3.3,3.7,3.6,6.5C257.3,444.8,257.8,444.9,258.4,445z"/>
		<path class="st2" d="M348.1,416.6c0,0,4.3-17.5-9.5-15.5c-7.4,1-25.6,30.7-33.7,35c-26.8,9.7-37.8,9.6-47.7,8.8c0,0-1.5,9.5,2,11
			c19.3,3.9,32.7,3.1,49.1-1.3C333.6,448.5,348.1,416.6,348.1,416.6z"/>
		<path class="st7" d="M344.8,365.2c0,0,15.1-0.9,20.3-1.7c3-9.9-5-19.1-11.9-21c-7-1.8-22.4,7.9-22.7,7.9c-3.9,0-3.1,9.7-3.1,9.7
			S327.3,368.1,344.8,365.2z"/>
		<path class="st7" d="M344.3,361.4c0,0-11.1,7.7-3.2,47c-9.7,4.1-19,25.5-19,25.5s5.8-50,4.1-64.4
			C324.5,355.2,335.6,350.6,344.3,361.4z"/>
		<path class="st11" d="M383.5,486.1c0,0,30.3,38.7,32.5,55.6c-6.2,15.5-71.9,26.5-90.6,14.1c-18.7-12.4,3.5-36.4,5.2-70.5
			L383.5,486.1z"/>
		<g>
			<path class="st12" d="M412.1,394.7c0,0,11.1,9.7,14,16.7c-5.3,11-28.7,32.4-33.1,32.9c-7.2-0.5-18.4-2-18.4-2s0.1,17.6,9.6,38.6
				c12.8,28.2,44.3,53.9,33.6,80.2c-4.2,5.2-43.6,10.8-43.6,10.8l-19.4-174.8l35.3,17.6L412.1,394.7z"/>
		</g>
		<g>
			<path class="st12" d="M341.2,393.4l6.4,179.1c0,0-36.1,2.1-49.7-2.4c-1.7-26,18.9-84.3,19.1-111.8c-13.3,6.2-35.8,8.9-49.5,5.6
				c-6.4-10-1.6-22-1.6-22s40.9-8.3,44.7-15.6C314.4,418.8,322.2,392.8,341.2,393.4z"/>
		</g>
	</g>
	<g>
		<polygon class="st8" points="737.9,588 745.1,599 741.9,620.8 731.7,615.8 733.3,599.7 		"/>
		<path class="st10" d="M771.3,528l8.4-59.7l-26.3-43.6c-16.6,14-23.2,36.4-16.7,56.9l3,43.2L771.3,528L771.3,528z"/>
		<polygon class="st10" points="771.4,526.6 739.7,524.9 740,525.6 732.3,603.8 746.9,607.8 		"/>
		<path class="st10" d="M731.2,613.2c0,0,3.7-0.5,5.6,2.3c1.9,2.7,7.3,0.2,7.3,0.2s1.9-0.3,7.1,5.4c5.8,5.7,13.6,3.1,13.6,3.1
			s2.6,3,0.5,6c-2.1,2.9-30.2-0.5-37.3-3.2C728.1,622.6,731.2,613.2,731.2,613.2z"/>
		<polygon class="st8" points="791,585 798.9,595.6 797.1,617.5 785.8,614.7 786.8,597 		"/>
		<path class="st8" d="M827.6,381.3c-0.3,0.1-0.5,0.2-0.7,0.3c-0.8,0.3-1.5,0.8-2.1,1.4c-1.9,2.1-1.6,5.4,0.6,7.2
			c0.8,0.7,1.9,1.1,2.9,1.2c0.4,0.1,0.8,0.1,1.2,0l0,0c3.4,2.2,10.1,2.4,13.4,1.8c3.3-0.6,3.5-1.7,4.6-3.9c1.7-0.6,3.3-1.7,3-3.8
			c2.8-1.1,3.5-3.1,3-5.9c0.9-1.2,3.3-2.5,0.4-4.2c-2.9-1.7-10.2-0.3-13.8,0.8c3.8-4,2.5-12.4-1.3-9.4c-0.4,3.8-3.4,5.8-6.4,7.3
			c-3,1.5-3.1,3.9-3.2,6.7C828.6,381,828.1,381.2,827.6,381.3z"/>
		<path class="st11" d="M816.2,521.6l-29.3-68.6l-49.5-8.3c-5.5,20.8,2.2,42.8,19.5,56l31.6,36L816.2,521.6L816.2,521.6z"/>
		<polygon class="st11" points="816.2,521.6 782.2,511.1 785,525.6 786.5,601.8 801.6,603.4 		"/>
		<rect x="824.4" y="347.3" class="st2" width="36.7" height="56.8"/>
		<g>
			<path class="st6" d="M736.3,358.1c0,0-5.4-17.2,8.6-16c7.5,0.6,27.4,29.2,35.7,33c27.3,8.1,38.3,7.4,48.2,6c0,0,2,9.4-1.3,11.1
				c-19,5-32.5,5-49.1,1.5C752.7,389.1,736.3,358.1,736.3,358.1z"/>
		</g>
		<path class="st8" d="M753.1,347.3h-4.3c-2.3,0-4.1-1.8-4.1-4v-19.8h12.5v19.8C757.3,345.4,755.4,347.3,753.1,347.3z"/>
		<path class="st8" d="M732.5,297.3l2.4,20c-0.1,2.2,2.5,4.5,3.4,6.3c2.2,4.6,7,7.9,12.5,7.9c8.1,0.1,14.6-6.4,14.3-14.4l-0.9-21
			L732.5,297.3z"/>
		<g>
			<path class="st6" d="M744,335.8c0,0,7.6,8,14.2,6.1c16,36.6,33.4,71.6,28.7,111l-52.9-0.8C745.7,410.1,709.9,350.8,744,335.8z"/>
		</g>
		<g>
			<path class="st8" d="M817.3,388.1c-0.2,0.2-0.4,0.4-0.5,0.6c-0.6,0.6-1,1.3-1.2,2.2c-0.7,2.7,1.1,5.5,3.9,6.1
				c1.1,0.3,2.2,0.1,3.1-0.2c0.4-0.1,0.7-0.2,1-0.5l0,0c4,0.4,10.1-2.4,12.8-4.4c2.6-2,2.3-3,2.3-5.5c1.2-1.3,2.2-3,0.9-4.7
				c2-2.2,1.6-4.3-0.1-6.6c0.2-1.5,1.7-3.7-1.6-3.9c-3.4-0.2-9.2,4.3-11.9,6.9c1.5-5.2-3.6-12.1-5.5-7.8c1.4,3.6-0.3,6.7-2.3,9.4
				c-2,2.7-1,4.8,0.3,7.4C818.1,387.4,817.7,387.8,817.3,388.1z"/>
			<g>
				<path class="st6" d="M774.8,382.3c-7.2-5.4-20.4-37.6-27.6-39.7c-13.4-4.1-11.9,13.9-11.9,13.9s8.4,31.1,30.3,42.2l9.3-16.3
					C774.9,382.3,774.9,382.3,774.8,382.3z"/>
			</g>
			<g>
				<path class="st6" d="M818.5,386.8c-9.9,1.5-20.8,2.2-48-5.7l-5.4,17.9c1,0.3,2,0.5,3.1,0.7c16.7,3.4,30.1,3.3,49.1-1.7
					C820.6,396.2,818.5,386.8,818.5,386.8z"/>
			</g>
		</g>
		<path class="st10" d="M733,323.3c-0.8-1.7-3.4-2.1-4-3.8c-0.5-1.3,0.3-2.8,0.1-4.2c-0.3-1.6-1.9-2.8-2.2-4.4
			c-0.5-2.2,1.4-4.1,1.8-6.3c0.3-1.9-0.5-3.9-0.6-5.8c-0.1-2.3,1-4.7,3.1-5.8c0.6-0.3,1.3-0.6,1.9-1c1.4-1,2.1-3.3,3.8-3.1
			c0.5,0.1,1,0.3,1.5,0.5c1.7,0.5,3.3-0.8,4.5-1.9c1.3-1.2,2.8-2.4,4.5-2c0.9,0.2,1.6,1,2.6,1.3c1.6,0.5,3.2-0.4,4.6-1.2
			c1.4-0.8,3.3-1.5,4.7-0.6c1.4,1,1.5,3.2,3,4.1c0.6,0.4,1.4,0.5,2.1,0.4c2.5-0.1,4.8-1.4,7.2-1.9c0.6-0.1,1.2-0.2,1.7,0
			c1.3,0.6,0.9,2.4,0.2,3.6c-0.7,1.2-1.7,2.5-1.2,3.7c0.6,1.4,2.8,1.9,2.8,3.4c0,1.5-2.2,2.1-2.8,3.4c-0.7,1.4,0.5,3,0.5,4.6
			c0,1-0.6,2-1.4,2.7c-1.6,1.4-4.1,1.8-6.1,0.9c-2.4-1.1-3.7-3.8-6.1-4.9c-1.8-0.9-4.2-0.8-5.9,0.4c-1.5,1-2.4,2.6-3.9,3.5
			c-1.9,1.2-4.4,1.2-6.3,2.3c0.9-0.3,1.8-0.5,2.7-0.3c0.9,0.2,1.8,0.8,2,1.7c0.1,0.5,0,1,0,1.5c0,1.3,0.5,2.5,0.7,3.7
			c0.3,1.2,0.3,2.6-0.6,3.6c-0.7,0.8-1.9,1.2-2.2,2.2c-0.3,0.7,0,1.5,0.1,2.2c0.3,3.2-3.5,5.4-6.3,4.3c-1.4-0.5-2.9-1.6-4.1-2.5
			C733.8,326.3,733.8,325,733,323.3z"/>
		<g>
			<path class="st1" d="M744,335.8c0,0,10.5,3.8,14.2,6.1c-0.5,5.8-1.7,8.4-1.7,8.4S752.7,342.1,744,335.8z"/>
		</g>
		<path class="st11" d="M786,610.7c0,0,3.7-0.5,5.7,2.2c1.9,2.7,5.8-0.3,5.8-0.3s3.3,0.1,8.6,5.7c5.9,5.6,13.7,2.8,13.7,2.8
			s2.7,3,0.6,6c-2.1,3-30.2,0.1-37.4-2.5C783.1,620.1,786,610.7,786,610.7z"/>
		<g>
			<path class="st6" d="M729,369c0,0-2.6,142.4,0,151.3c15.3,8.4,70.2-1.9,70.2-1.9l-19.5-126.8L729,369z"/>
		</g>
	</g>
	<g>
		<path class="st13" d="M1021.9,568.9c1.5-0.9,42.9,1.8,42.9,1.8l5.2-60.3l-29.5-29.5l-13.8,9.4L1021.9,568.9z"/>
		<polygon class="st8" points="1077.6,607.4 1070.4,618.5 1073.6,640.2 1083.8,635.2 1082.3,619.1 		"/>
		<path class="st10" d="M1084.4,632.7c0,0-3.7-0.5-5.6,2.3c-1.9,2.7-7.3,0.2-7.3,0.2s-1.9-0.3-7.1,5.4c-5.8,5.7-13.6,3.1-13.6,3.1
			s-2.6,3-0.5,6c2.1,2.9,30.2-0.5,37.3-3.2C1087.4,642,1084.4,632.7,1084.4,632.7z"/>
		<polygon class="st8" points="1019.6,608.2 1010.1,617.4 1008.5,639.4 1020.2,638.3 1021.9,620.7 		"/>
		<path class="st11" d="M1020.6,634.3c0,0-3.6-1.1-5.9,1.3c-2.3,2.4-5.7-1.1-5.7-1.1s-3.3-0.4-9.4,4.3c-6.7,4.6-14,0.8-14,0.8
			s-3.1,2.6-1.6,5.8c1.6,3.2,29.8,4.5,37.3,3.1C1022,644,1020.6,634.3,1020.6,634.3z"/>
		<g>
			<path class="st14" d="M1025.7,466.6c6.9,12.4,40,7.6,42.7,22l-29.3,71.6l-26.5-5.8L1025.7,466.6z"/>
			<polygon class="st14" points="1039.2,560.2 1022.9,628.5 1007.9,629.1 1012.7,554.4 			"/>
			<path class="st15" d="M1080.3,468.8l4.4,159.8h-13.8c0,0-22.8-88.1-31.4-117.2c-0.8-22.6-12.6-42.2-12.6-42.2L1080.3,468.8z"/>
		</g>
		<g>
			<g>
				<path class="st14" d="M1022.5,384.1c10.5-7.9,26.8-15.4,38.7-13.9c12.2,12.6-0.4,22.3-0.4,22.3s-9.1,9.4-23.6,13.3
					C1031.9,400.5,1025.8,390.8,1022.5,384.1z"/>
				<path class="st16" d="M1011.3,395.8c3.1-0.8,5.7-7.6,11.2-11.8c3.2,6.7,9.4,16.4,14.7,21.7c-2.3,12.6-29.5,23.1-45.9,12.4
					l19.7-22.6C1011.1,395.7,1011.2,395.8,1011.3,395.8z"/>
				<path class="st16" d="M1008,369.6c-4.2,13,10.5,33.9,2.7,47.6l-19.4,1.2c0,0,0,0,0,0c-5.9-7-1.3-29.9,5.2-48.3
					C998.4,366.8,1008,369.6,1008,369.6z"/>
				<path class="st16" d="M1007.3,372.8c-0.1,0.3-0.2,0.5-0.4,0.7c-0.4,0.8-0.9,1.5-1.7,2c-2.4,1.7-5.8,1.2-7.6-1.1
					c-0.7-0.9-1-2-1-3c-0.1-0.4-0.1-0.8,0.1-1.2l0,0c-2-3.6-1.8-10.5-0.9-13.8c0.9-3.3,2-3.4,4.5-4.4c0.8-1.7,2-3.3,4.2-2.7
					c1.3-2.8,3.5-3.3,6.5-2.6c1.3-0.8,2.9-3.1,4.5-0.1c1.5,3.1-0.5,10.4-1.9,13.9c4.5-3.5,13.3-1.5,9.8,2c-4.1,0.1-6.4,3-8.2,5.9
					c-1.8,2.9-4.3,2.9-7.3,2.7C1007.6,371.8,1007.4,372.3,1007.3,372.8z"/>
			</g>
			<path class="st16" d="M1011.5,354.9c0,0,3.8,3,3.6,5.2c-0.2,2.3-3.6,0.9-3.6,0.9s2.9,2.3,0.8,4.3c-1,1-4-0.8-4-0.8s2.4,2,1.4,3.6
				c-1,1.5-3.3,0.2-3.3,0.2s0.9,3.1-0.7,3.4c-1.7,0.3-4-1.7-4-1.7s-5.9-2.6-5.5-6.3c0,0,1.1-6.9,1.2-7.1
				C998.7,354.1,1003.7,350.6,1011.5,354.9z"/>
		</g>
		<g>
			<path class="st10" d="M1049,325.3c0,0-1.6,15.6,1.7,22.2c10.1-4.4,5.9-17.7,5.9-17.7L1049,325.3z"/>
			<path class="st8" d="M1083.3,330.7l-2.4,20.2c0.1,2.3-2.5,4.5-3.4,6.4c-2.2,4.7-7,7.9-12.6,8c-8.2,0.1-14.7-6.5-14.4-14.5
				l0.9-21.2L1083.3,330.7z"/>
			<path class="st10" d="M1076.3,322.7c13,0.8,14.1,27.2,4.4,31.2c0,0-4.8,9.1-4.6,4c-0.1-0.8-0.1-1.5-0.2-2.2
				c4.4-0.4,5.7-11,4.2-11.6c-3.7-1.4-3.8,3.5-3.8,6.2c0.1-0.7-1.6-0.9-1.5-1.6c4.2-25.3-14.6-3.8-17.4-7.1
				C1052.4,337.5,1045.2,317.7,1076.3,322.7z"/>
			<path class="st8" d="M1062.7,380.2h4.4c2.3,0,4.1-1.8,4.1-4v-20h-12.6v20C1058.6,378.3,1060.4,380.2,1062.7,380.2z"/>
			<path class="st10" d="M1083.3,343.1c0.4-3.1-8.6-8.2-10.5-8.6c-2-0.4-8.6,7.8-14.3,7.6c-15.4-0.5-15-24.1-5.4-21.6
				c9.6,2.5,31.1-6,33.7,14.5c2.6,20.5-9.6,24.2-9.6,24.2S1082.3,351.5,1083.3,343.1z"/>
			<path class="st10" d="M1050.6,320.1c2-1.4,4.5-1.8,7-2c2.5-0.2,4.9-0.2,7.3-0.8c1.7-0.4,3.2-1.2,4.9-1.5c3.3-0.7,6.8,0.1,9.5,2.1
				c1.4,1,2.5,2.4,3.9,3.3c1.2,0.7,2.5,1.1,3.8,1.8c3.8,2.1,5.6,7,4.2,11.1c-0.3,0.9-0.8,1.7-1,2.7c-0.8,3.5,2.1,7,1.2,10.5
				c-0.5,2.1-2.4,3.6-3.4,5.5c-0.8,1.5-1.1,3.2-1.9,4.7c-0.8,1.6-2.2,2.9-3.9,3.7c-1,0.5-2.2,0.7-3.2,0.5c-1.1-0.3-2-1.2-2.1-2.3
				c-0.1-1.3,1.1-2.3,2-3.2c3.1-2.9,5.2-6.9,5.4-11.1c0.2-4.2-1.9-8.6-5.6-10.7c-1.5-0.8-3.2-1.4-4.1-2.8c-0.6-1-0.7-2.2-1.3-3.1
				c-1.1-1.7-3.5-1.8-5.5-1.6c-2.8,0.3-5.5,0.9-8.1,2c-1.6,0.6-3.2,1.4-5,1.8C1047.5,332,1045.2,323.8,1050.6,320.1z"/>
		</g>
		<path class="st14" d="M1072,368.5c0,0-7.7,8-14.4,6.2c-47,13.5-23.8,55.4-32.2,112l56.6-0.8C1071.2,411.7,1122.2,390.1,1072,368.5
			z"/>
		<path class="st15" d="M1075.4,370c0,0-15.3,2.7-15.3,38.2c-1.6,16.7,0.5,77.4,2.6,80.6c5.5,3.2,23.9-3.1,23.9-3.1s-7.5-45,3-71.3
			C1089.6,414.4,1105.7,378.9,1075.4,370z"/>
		<path class="st15" d="M1058.6,370c0,0-21.3,9.3-23.2,44.4c-1.3,25.1-2.4,74-2.4,74l-12.6,1.9c0,0,4.9-39.3,6.1-83.2
			C1030.8,393.4,1039.7,369.4,1058.6,370z"/>
		<path class="st6" d="M991.3,378.1c0,0,13.8-0.3,20.2,0c2.9,3.1-0.1,17.8-0.1,17.8s14.1-25.8,47.2-25.8
			c-28.6,11.7-24.7,212.7-24.7,212.7h-29.9l18.7-157.3c0,0-25.5,2.6-35.4-2.8C981.4,410.1,991.3,378.1,991.3,378.1z"/>
		<path class="st6" d="M1072,368.5c0,0-24.9,96.5-21.5,214.3c31.3,8,42.2-9.4,42.2-9.4s-10.2-141.8,1.8-160.1
			C1106.6,394.9,1095.4,368.5,1072,368.5z"/>
		<g>
			<path class="st14" d="M1091.8,418.5c-9.1-9.5-30.4-23.9-17.8-36.4c9.3-12.9,22.9,0.5,22.9,0.5s6.1,7.8,15.5,19.4
				C1107.5,407.8,1098.3,414.7,1091.8,418.5z"/>
			<path class="st8" d="M1095.7,467.6c0.2-0.2,0.4-0.4,0.6-0.6c0.6-0.6,1.3-1.1,2.2-1.4c2.8-1,5.9,0.5,6.9,3.2
				c0.4,1.1,0.4,2.2,0.1,3.2c0,0.4-0.2,0.8-0.4,1.1l0,0c0.9,4-1.3,10.5-3.2,13.4c-1.9,2.9-2.9,2.7-5.6,2.9c-1.3,1.4-2.9,2.6-4.9,1.4
				c-2.1,2.3-4.4,2.2-6.9,0.7c-1.5,0.4-4,2.2-4.6-1.2c-0.6-3.4,3.8-9.8,6.2-12.8c-5.4,2.1-13.2-2.3-8.8-4.7c3.9,1.1,7-1.1,9.6-3.4
				c2.6-2.3,5-1.5,7.8-0.6C1095.1,468.5,1095.4,468.1,1095.7,467.6z"/>
			<path class="st8" d="M1105.6,423.8c-12,10.8-3.7,35.3-11.6,46.6c0,0,8.3,5.3,11.1,2.8c11.6-15.8,22.8-36.4,19.2-44.8
				c0-0.1-0.2-1.2-0.2-1.3L1105.6,423.8C1105.6,423.8,1105.6,423.8,1105.6,423.8z"/>
			<path class="st8" d="M1091.9,418.4c4.7,4.9,11.8,6.8,13,9.7l19.2-1c-1-9.6-5.9-18.2-11.6-25.2
				C1107.6,407.7,1098.4,414.6,1091.9,418.4z"/>
		</g>
		<path class="st6" d="M1091.2,462.9c0,0,16.9,8.2,22.7,8.5c12.7-11.6,14.8-41.5,14.8-41.5s-20.8-53.8-47.5-56.7
			c-12.4,6.6-28.4,24.3,16.8,54.3C1095.4,448.7,1091.2,462.9,1091.2,462.9z"/>
	</g>
	<g>
		<path class="st13" d="M549.9,552.1c1.5-0.9,42.9,1.8,42.9,1.8l5.2-60.3l-29.5-29.5l-13.8,9.4L549.9,552.1z"/>
		<polygon class="st8" points="605.6,590.6 598.4,601.6 601.6,623.4 611.7,618.4 610.2,602.3 		"/>
		<path class="st10" d="M612.3,615.9c0,0-3.7-0.5-5.6,2.3c-1.9,2.7-7.3,0.2-7.3,0.2s-1.9-0.3-7.1,5.4c-5.8,5.7-13.6,3.1-13.6,3.1
			s-2.6,3-0.5,6c2.1,2.9,30.2-0.5,37.3-3.2C615.4,625.2,612.3,615.9,612.3,615.9z"/>
		<polygon class="st8" points="547.5,591.4 538.1,600.6 536.5,622.6 548.1,621.4 549.9,603.9 		"/>
		<path class="st11" d="M548.5,617.5c0,0-3.6-1.1-5.9,1.3c-2.3,2.4-5.7-1.1-5.7-1.1s-3.3-0.4-9.4,4.3c-6.7,4.6-14,0.8-14,0.8
			s-3.1,2.6-1.6,5.8c1.6,3.2,29.8,4.5,37.3,3.1C549.9,627.2,548.5,617.5,548.5,617.5z"/>
		<g>
			<path class="st14" d="M553.7,449.7c6.9,12.4,40,7.6,42.7,22l-29.3,71.6l-26.5-5.8L553.7,449.7z"/>
			<polygon class="st14" points="567.1,543.4 550.8,611.7 535.9,612.3 540.7,537.6 			"/>
			<path class="st15" d="M608.2,452l4.4,159.8h-13.8c0,0-22.8-88.1-31.4-117.2c-0.8-22.6-12.6-42.2-12.6-42.2L608.2,452z"/>
		</g>
		<path class="st14" d="M528.8,390.4c8.8-9.7,23.4-20,35.4-20.7c14.3,10.2,3.9,22,3.9,22s-7.1,10.8-20.7,17.3
			C541.1,404.8,533.3,396.4,528.8,390.4z"/>
		<path class="st16" d="M515.7,400.2c2.9-1.3,8.5-4.7,13.1-9.8c4.5,6,12.3,14.4,18.6,18.7c-20.5,14.8-20.5,14.8-42.8,20.5l0.3-22.8
			C505,406.8,515.5,400.2,515.7,400.2z"/>
		<path class="st16" d="M470.3,426.4c13.8-1.2,27.7-22.7,43.6-21l8.8,17c0,0,0,0,0,0c-4.2,8.1-27.6,12.9-47.4,14.2
			C471.5,436.1,470.3,426.4,470.3,426.4z"/>
		<path class="st16" d="M473.7,425.8c0.3,0,0.6,0,0.8,0.1c0.9,0,1.7,0.3,2.5,0.7c2.6,1.5,3.4,4.8,1.9,7.3c-0.6,1-1.5,1.7-2.4,2.1
			c-0.3,0.2-0.7,0.4-1.1,0.4l0,0c-2.6,3.3-9.1,5.7-12.6,6.2c-3.5,0.5-4-0.5-5.9-2.3c-1.9-0.1-3.9-0.5-4.2-2.7
			c-3.1-0.1-4.5-1.9-5-4.8c-1.3-0.9-4.1-1.4-1.8-4c2.3-2.6,9.9-3.6,13.9-3.7c-5.1-2.7-6.6-11.4-1.9-9.7c1.7,3.6,5.3,4.6,8.8,5.1
			c3.5,0.5,4.4,2.8,5.4,5.5C472.6,425.9,473.1,425.9,473.7,425.8z"/>
		<g>
			<path class="st10" d="M576.9,308.5c0,0-1.6,15.6,1.7,22.2c10.1-4.4,5.9-17.7,5.9-17.7L576.9,308.5z"/>
			<path class="st8" d="M611.3,313.9l-2.4,20.2c0.1,2.3-2.5,4.5-3.4,6.4c-2.2,4.7-7,7.9-12.6,8h0c-8.2,0.1-14.7-6.5-14.4-14.5
				l0.9-21.2L611.3,313.9z"/>
			<path class="st10" d="M604.3,305.9c13,0.8,14.1,27.2,4.4,31.2c0,0-4.8,9.1-4.6,4c-0.1-0.8-0.1-1.5-0.2-2.2
				c4.4-0.4,5.7-11,4.2-11.6c-3.7-1.4-3.8,3.4-3.8,6.2c0.1-0.7-1.6-0.9-1.5-1.6c4.2-25.3-14.6-3.8-17.4-7.1
				C580.4,320.7,573.1,300.9,604.3,305.9z"/>
			<path class="st8" d="M590.6,363.3h4.4c2.3,0,4.1-1.8,4.1-4v-20h-12.6v20C586.5,361.5,588.3,363.3,590.6,363.3z"/>
			<path class="st10" d="M611.3,326.3c0.4-3.1-8.6-8.2-10.5-8.6c-2-0.4-8.6,7.8-14.3,7.6c-15.4-0.5-15-24.1-5.4-21.6
				c9.6,2.5,31.1-6,33.7,14.5c2.6,20.5-9.6,24.2-9.6,24.2S610.3,334.7,611.3,326.3z"/>
		</g>
		<path class="st14" d="M599.9,351.6c0,0-6.7,3.5-13.4,1.6c-47,13.5-24.7,59.9-33.2,116.6L610,469
			C599.1,394.9,650.2,373.3,599.9,351.6z"/>
		<path class="st15" d="M586.5,353.2c0,0-21.3,9.3-23.2,44.4c-1.3,25.1-2.4,74-2.4,74l-12.6,1.9c0,0,4.9-39.3,6.1-83.2
			C558.8,376.6,567.6,352.5,586.5,353.2z"/>
		<path class="st6" d="M480.7,439.1c0,0-4.6-28,1.8-27.7c2.9,3.1,56.8-32.3,56.8-32.3s14.1-25.8,47.2-25.8
			c-28.6,11.7-24.7,212.7-24.7,212.7h-29.9l18.7-157.3c0,0-14.6,12.7-31,19.2C498.3,439.6,480.7,439.1,480.7,439.1z"/>
		<path class="st6" d="M599.9,351.6c0,0-24.9,96.5-21.5,214.3c31.3,8,42.2-9.4,42.2-9.4s-10.2-141.8,1.8-160.1
			C634.5,378.1,623.4,351.7,599.9,351.6z"/>
		<g>
			<g>
				<path class="st14" d="M589.9,398.1c3-12.7,3.3-38,20.9-34.8c16.1,0.4,12.4,18.9,12.4,18.9s-3.3,9.3-7.8,23.5
					C607.8,404.9,596.8,401.3,589.9,398.1z"/>
				<path class="st8" d="M550.5,428.6c0.3,0,0.6,0.1,0.8,0.1c0.9,0.1,1.7,0.4,2.4,1c2.4,1.8,2.9,5.1,1.1,7.4
					c-0.7,0.9-1.6,1.5-2.7,1.9c-0.4,0.2-0.7,0.3-1.2,0.3l0,0c-2.9,3-9.7,4.8-13.2,4.9c-3.5,0.1-3.9-0.9-5.6-2.9
					c-1.9-0.2-3.8-0.9-3.9-3.2c-3.1-0.4-4.2-2.3-4.4-5.3c-1.2-1-4.1-2.1-1.6-4.4c2.5-2.4,10.4-2.3,14.4-2.1c-4.8-3.2-5.4-12-0.9-9.8
					c1.3,3.8,4.8,5.1,8.2,6c3.4,0.9,4.1,3.2,4.8,6.1C549.4,428.6,550,428.6,550.5,428.6z"/>
				<path class="st8" d="M593.1,412.3c-15.8-3.7-32,16.7-46,16.5c0,0,0.2,9.7,3.8,10.6c19.9,0.7,43.6-1.7,48.6-9.4
					c0.1-0.1,0.9-0.8,1-0.9L593.1,412.3C593.2,412.3,593.1,412.3,593.1,412.3z"/>
				<path class="st8" d="M590.1,398.1c-1.6,6.6,0.8,13.4-1,16l11.5,15.1c7.6-6.1,12.1-14.9,14.9-23.5
					C607.9,404.9,596.9,401.3,590.1,398.1z"/>
			</g>
			<path class="st6" d="M552.1,422.4c0,0,2.4,18.3,5.4,23.2c16.9,3.9,43.4-11.1,43.4-11.1s34-46.9,21.6-70.2
				c-12.5-6.4-36.4-9.5-36.7,43.9C566.4,417.9,552.1,422.4,552.1,422.4z"/>
		</g>
	</g>
	<g>
		<path class="st10" d="M483.2,420.4l-5.9-38.4h3.2v-4h-11.1h-7.8v4h3.2l-5.9,38.4c-0.2,1-0.4,2-0.8,2.9l-17.6,41.1
			c-0.6,1.4-0.4,3,0.4,4.2l2.5,3.7c0.9,1.3,2.3,2,3.8,2h22.2h25.5c1.5,0,3-0.8,3.8-2l2.5-3.7c0.9-1.3,1-2.8,0.4-4.2L484,423.3
			C483.6,422.4,483.3,421.4,483.2,420.4z"/>
		<path class="st1" d="M487.5,435.6l-5-12.1c-0.5-1.2-0.8-2.5-1-3.8l-5.7-37.8h-9.5l-5.8,38.7c-0.2,1.3-0.5,2.6-1,3.8l-5.4,12.7
			C465,434.7,476.3,434.4,487.5,435.6z"/>
		<g>
			<path class="st0" d="M487.5,435.6c-11.2-1.3-22.5-0.9-33.4,1.5l-11.7,27.6c-1.3,3.3,2.5,7.8,4.7,7.5h22.3h25.3
				c1.8,0,6.2-4.1,4.7-7.5L487.5,435.6z"/>
		</g>
	</g>
	<g>
		<path class="st10" d="M992.5,433.8l-4.4-28.5h2.4v-3h-8.3h-5.8v3h2.4l-4.4,28.5c-0.1,0.7-0.3,1.5-0.6,2.1l-13.1,30.5
			c-0.4,1-0.3,2.2,0.3,3.1l1.9,2.7c0.6,0.9,1.7,1.5,2.8,1.5h16.5h18.9c1.1,0,2.2-0.6,2.8-1.5l1.9-2.7c0.6-0.9,0.7-2.1,0.3-3.1
			l-13.1-30.5C992.8,435.2,992.6,434.5,992.5,433.8z"/>
		<g>
			<path class="st2" d="M976.1,431.1l-0.4,2.8c-0.1,1-0.4,1.9-0.7,2.8l-12.7,30c-1,2.4,1.8,5.8,3.5,5.6h16.6h18.8
				c1.3,0,4.6-3.1,3.5-5.6L992,436.1c-0.4-0.9-0.6-1.8-0.7-2.8l-0.1-0.5c-0.1,0-0.2,0-0.3-0.1C986,430.3,981,429.8,976.1,431.1z"/>
		</g>
		<g>
			<path class="st1" d="M980,405.2l-3.9,26c4.9-1.3,9.9-0.8,14.8,1.6c0.1,0,0.2,0,0.3,0.1l-4.2-27.6H980z"/>
		</g>
	</g>
	<g>
		<g>
			<ellipse class="st10" cx="588.8" cy="443.3" rx="23" ry="22.6"/>
			<rect x="582.5" y="369.7" class="st10" width="12.5" height="65"/>
			<path class="st1" d="M608.7,435.1c-2.7-6.2-8.2-10.9-15-12.4v-52.9h-9.9v52.9c-5.8,1.3-10.8,5-13.7,9.9
				C583.1,434.6,596,436.1,608.7,435.1z"/>
			<g>
				<path class="st0" d="M570.1,432.6c-1.9,3.2-3,6.8-3,10.7c0,11.7,9.7,21.2,21.7,21.2c12,0,21.7-9.5,21.7-21.2
					c0-2.9-0.6-5.7-1.7-8.2C596,436.1,583.1,434.6,570.1,432.6z"/>
			</g>
			<rect x="580" y="369.7" class="st10" width="17.5" height="4.2"/>
		</g>
		<rect x="551.7" y="467.9" class="st10" width="68.4" height="6.4"/>
		<rect x="557.6" y="380.1" class="st10" width="3.5" height="91"/>
		<rect x="553.3" y="388.6" class="st10" width="48.4" height="3.1"/>
	</g>
	<g>
		<g>
			<ellipse class="st10" cx="892.7" cy="432.9" rx="30.6" ry="30"/>
			<rect x="884.4" y="335.2" class="st10" width="16.6" height="86.3"/>
			<g>
				<path class="st2" d="M887.6,421.8c-0.3-0.1-0.6-0.2-0.8-0.3c-3.5,0.8-6.9,1.5-10.3,1.8c3.4-0.3,6.8-1,10.3-1.8
					c-5.7-1.9-11.9-4.8-18-4.3c-3,4.5-4.8,9.8-4.8,15.6c0,15.6,12.9,28.2,28.8,28.2c15.9,0,28.8-12.6,28.8-28.2
					c0-2.2-0.3-4.4-0.8-6.4C909.5,426.9,897.8,424.4,887.6,421.8z"/>
			</g>
			<path class="st1" d="M899.3,405.5v-70.2h-13.1v70.2c-7.2,1.7-13.4,6-17.4,11.8c6.1-0.5,12.3,2.3,18,4.3
				c9.5-2.3,19.4-5.5,28.9-5.7C911.7,410.7,905.9,407,899.3,405.5z"/>
			<g>
				<path class="st17" d="M886.8,421.6c0.3,0.1,0.6,0.2,0.8,0.3c10.2,2.5,21.8,5,33.1,4.6c-0.9-3.9-2.7-7.5-5.1-10.6
					C906.1,416,896.3,419.3,886.8,421.6z"/>
			</g>
			<rect x="881.1" y="335.2" class="st10" width="23.3" height="5.6"/>
		</g>
		<rect x="851.1" y="465.6" class="st10" width="90.8" height="8.5"/>
		<rect x="929.4" y="349" class="st10" width="4.7" height="120.8"/>
		<rect x="875.6" y="360.3" class="st10" width="64.2" height="4.1"/>
	</g>
	<g>
		<g>
			<path class="st10" d="M669.5,462.9h-1.4c-2,0-3.7-1.6-3.7-3.6v-41.6c0-0.3,0.2-0.5,0.5-0.5h7.7c0.3,0,0.5,0.2,0.5,0.5v41.6
				C673.2,461.3,671.6,462.9,669.5,462.9z"/>
			<rect x="662.6" y="417.1" class="st10" width="12.4" height="3"/>
			<path class="st1" d="M669.4,461.8h-1.2c-1.6,0-3-1.3-3-2.9v-38.7h7.1v38.7C672.4,460.5,671,461.8,669.4,461.8z"/>
		</g>
		<g>
			<path class="st10" d="M690.9,462.9h-1.4c-2,0-3.7-1.6-3.7-3.6v-41.6c0-0.3,0.2-0.5,0.5-0.5h7.7c0.3,0,0.5,0.2,0.5,0.5v41.6
				C694.5,461.3,692.9,462.9,690.9,462.9z"/>
			<rect x="684" y="417.1" class="st10" width="12.4" height="3"/>
			<g>
				<path class="st4" d="M690.7,461.8h-1.2c-1.6,0-3-1.3-3-2.9v-38.7h7.1v38.7C693.7,460.5,692.4,461.8,690.7,461.8z"/>
			</g>
		</g>
		<g>
			<path class="st10" d="M712.2,462.9h-1.4c-2,0-3.7-1.6-3.7-3.6v-41.6c0-0.3,0.2-0.5,0.5-0.5h7.7c0.3,0,0.5,0.2,0.5,0.5v41.6
				C715.9,461.3,714.2,462.9,712.2,462.9z"/>
			<rect x="705.3" y="417.1" class="st10" width="12.4" height="3"/>
			<path class="st2" d="M712.1,461.8h-1.2c-1.6,0-3-1.3-3-2.9v-38.7h7.1v38.7C715,460.5,713.7,461.8,712.1,461.8z"/>
		</g>
		<g>
			<path class="st10" d="M733.5,462.9h-1.4c-2,0-3.7-1.6-3.7-3.6v-41.6c0-0.3,0.2-0.5,0.5-0.5h7.7c0.3,0,0.5,0.2,0.5,0.5v41.6
				C737.2,461.3,735.5,462.9,733.5,462.9z"/>
			<rect x="726.6" y="417.1" class="st10" width="12.4" height="3"/>
			<g>
				<path class="st3" d="M733.4,461.3h-1.2c-1.7,0-3-1.3-3-3v-37.6h7.2v37.6C736.4,460,735.1,461.3,733.4,461.3z"/>
			</g>
		</g>
		<g>
			<path class="st10" d="M754.8,462.9h-1.4c-2,0-3.7-1.6-3.7-3.6v-41.6c0-0.3,0.2-0.5,0.5-0.5h7.7c0.3,0,0.5,0.2,0.5,0.5v41.6
				C758.5,461.3,756.9,462.9,754.8,462.9z"/>
			<rect x="747.9" y="417.1" class="st10" width="12.4" height="3"/>
			<path class="st2" d="M754.7,461.8h-1.2c-1.6,0-3-1.3-3-2.9v-38.7h7.1v38.7C757.7,460.5,756.3,461.8,754.7,461.8z"/>
		</g>
		<rect x="649.2" y="468.4" class="st10" width="123" height="5.9"/>
		<rect x="654" y="421.8" class="st10" width="3.2" height="49.5"/>
		<rect x="764.5" y="421.8" class="st10" width="3.2" height="49.5"/>
		<rect x="655.6" y="428" class="st10" width="110.5" height="1.4"/>
	</g>
	<g>
		<g>
			<rect x="360.3" y="474.2" class="st18" width="830.9" height="33.9"/>
		</g>
		<rect x="383.3" y="508.1" class="st0" width="784.9" height="13.4"/>
		<g>
			<rect x="409.3" y="521.5" class="st0" width="38.2" height="125.2"/>
			<rect x="1104" y="521.5" class="st0" width="38.2" height="125.2"/>
		</g>
	</g>
</g>
</svg>
