<svg xmlns="http://www.w3.org/2000/svg" viewBox="470 51.3 754 362.7"><path fill="#C0C4E3" d="M845.4 112.8l-32.1-15.1c-.1-.1-.3-.1-.4.1l-5.3 10.7-70.2 143c-4.3 8.8-.5 19.5 8.5 23.7 9 4.3 19.9.5 24.2-8.3l70.1-143 5.3-10.7c.1-.2.1-.4-.1-.4zm-77.9 151.8c-3.5 7.2-12.3 10.2-19.6 6.7-7.3-3.4-10.4-12-6.9-19.2l69.5-141.6L837 123l-69.5 141.6z"/><path fill="#C0C4E3" d="M852.4 116l-45.9-21.6-5.5 11 45.9 21.6zM823 342.5c-9.2-3.9-13.4-14.4-9.4-23.4L883 162.7c.1-.2.2-.2.4-.2l32.7 13.9c.2.1.2.2.2.4l-69.5 156.4c-3.9 9.1-14.5 13.2-23.8 9.3z"/><path fill="#C0C4E3" d="M923.2 179.5l-46.7-20-5 11.3 46.7 19.9z"/><path fill="#F1C40F" d="M824.8 338.5c-7.4-3.1-10.8-11.7-7.6-18.9l63.9-144.1L908 187l-63.9 144.1c-3.2 7.3-11.8 10.6-19.3 7.4z"/><path fill="#C0C4E3" d="M900.5 347.1c-9.2 3.8-19.9-.4-23.8-9.4l-68.1-157c-.1-.2 0-.3.2-.4l32.8-13.7c.2-.1.3 0 .4.2l68.1 157c3.9 9-.3 19.5-9.6 23.3z"/><path fill="#C0C4E3" d="M849.2 164.4l-46.9 19.5 4.9 11.4 46.9-19.6z"/><path fill="#EFA9AF" d="M898.7 341.8l-.4.2c-7.5 3.1-16.1-.3-19.3-7.6l-61-140.7 27.4-11.4 61 140.7c3.2 7.2-.2 15.6-7.7 18.8z"/><path fill="#C0C4E3" d="M618.7 325.4c-9.4 3.5-19.8-1.1-23.4-10.2l-62.4-159.3c-.1-.2 0-.3.2-.4l33.3-12.5c.2-.1.3 0 .4.2l62.4 159.3c3.5 9.2-1.1 19.4-10.5 22.9z"/><path fill="#C0C4E3" d="M573.5 140.4L526 158.2l4.5 11.5 47.5-17.9z"/><path fill="#F39C12" d="M617.1 321.4c-7.6 2.8-16-.9-19-8.3l-57.4-146.7 27.4-10.3 57.4 146.7c2.9 7.5-.8 15.7-8.4 18.6z"/><path fill="#C0C4E3" d="M1081.5 339.9c-9.4-3.4-14.2-13.6-10.7-22.8l60.5-160c.1-.2.2-.2.4-.2l33.4 12.1c.2.1.2.2.2.4l-60.5 160c-3.5 9.2-13.9 14-23.3 10.5z"/><path fill="#C0C4E3" d="M1172.3 171.7l-47.8-17.4-4.4 11.6 47.8 17.3z"/><path fill="#9B59B6" d="M1083 335.9c-7.6-2.8-11.5-11.1-8.7-18.5l55.7-147.3 27.5 10-55.7 147.3c-2.7 7.4-11.2 11.2-18.8 8.5z"/><path fill="#FFF" d="M668.5 265.1c1.4-.3 2.7-.5 4-.8-1.3.2-2.6.5-4 .8 0 0-.1 0-.1.1H668.1c-10.3-1.6-20.5-2.8-30.7-3.2 10.2.4 20.5 1.6 30.8 3.2.2-.1.3-.1.3-.1zM735.1 255.2c-.8 0-1.6 0-2.4.1l-14.1-32.9c-1.4-3.1-2.3-6.4-2.8-9.9L696.5 86.2h10.7v-8.6h-56.4v8.6h10.7l-19.3 126.3c-.5 3.4-1.5 6.7-2.8 9.9l-17 39.6c-.8.1-1.6.1-2.5.2l17.4-40.6c1.2-3 2.2-6.1 2.7-9.3l19-123.7h-10.4v-13h61v13h-10.4L718 212.2c.5 3.2 1.4 6.3 2.7 9.3l14.4 33.7z"/><path fill="#465DC1" d="M744.4 276.9c-.9-.1-1.7-.1-2.5-.2-24-1.8-48.7-7.7-73.5-11.6h.1c1.4-.3 2.7-.5 4-.8.1 0 .2-.1.2-.1 19.9-4.2 39.9-8.4 59.9-8.9.8 0 1.6-.1 2.4-.1l9.4 21.7zM668.4 265.1c-.1 0-.1 0-.1.1-16.8 3.5-33.5 6.7-50.3 7.3-.8.1-1.6.1-2.5.1l4.5-10.4c.8-.1 1.6-.1 2.5-.2 5-.3 10.1-.3 15.1-.1 10.2.4 20.5 1.6 30.8 3.2z"/><path fill="#5E72EB" d="M772.1 373.4c-5.2 7.7-14.1 12.4-23.6 12.4h-139c-9.5 0-18.3-4.7-23.6-12.4-5.3-7.7-6.2-17.6-2.5-26.1l32.1-74.8c.8 0 1.7-.1 2.5-.1 16.8-.7 33.5-3.8 50.3-7.3.1 0 .1 0 .1-.1H668.7c24.7 3.8 49.4 9.8 73.3 11.5.9.1 1.7.1 2.5.2l30.2 70.5c3.6 8.7 2.7 18.5-2.6 26.2z"/><path fill="#E1E3F0" d="M776.8 346.4l-54-125.8c-1.2-2.8-2.1-5.8-2.5-8.8L701.8 90.7h10V73.3h-65.5v17.4h10l-18.5 121.2c-.4 3-1.3 6-2.5 8.8l-54 125.8c-4 9.3-3 19.8 2.7 28.2s15.2 13.4 25.5 13.4h139.1c10.2 0 19.8-5 25.5-13.4 5.6-8.4 6.6-19 2.7-28.3zm-191.4 1.7l32.5-75.8 4.5-10.5 17-39.6c1.4-3.2 2.3-6.5 2.8-9.9L661.5 86h-10.7v-8.6h56.4V86h-10.7l19.3 126.3c.5 3.4 1.5 6.7 2.8 9.9l14.1 32.9 9.2 21.4v.1l30.7 71.4c3.4 7.9 2.5 16.9-2.3 24-4.9 7.2-13 11.4-21.7 11.4h-139c-8.8 0-16.9-4.3-21.7-11.4-5-7-5.9-16-2.5-23.9z"/><g><path fill="#C0C4E3" d="M1046 314c0 40.2-33.2 72.7-74.2 72.7s-74.2-32.6-74.2-72.7c0-33.3 22.9-61.5 54.1-70 1.4-.4 2.8-.7 4.2-1v4.5c-1.4.3-2.8.7-4.2 1.1-17 5-31.2 16.2-40 30.8 13.3 2.1 26.7 4 40 5.5 4.6.5 9.2 1 13.8 1.4 23.7 2.2 47.3 3 70.6 1.2-8-18.6-24.2-33.1-44.2-39-1.4-.4-2.8-.8-4.2-1.1v-4.5c1.4.3 2.8.7 4.2 1 31.3 8.6 54.1 36.8 54.1 70.1z"/><g fill="#C0C4E3"><path d="M956 247.4c-1.4.3-2.8.7-4.2 1.1V77.1h4.2v170.3zM951.7 284.9c4.6.5 9.2 1 13.8 1.4h-13.8v-1.4zM992 77.1v171.4c-1.4-.4-2.8-.8-4.2-1.1V77.1h4.2z"/></g><path fill="#E74C3C" d="M911.7 279.4c-6.1 10.1-9.6 21.9-9.6 34.6 0 37.8 31.2 68.4 69.8 68.4 38.5 0 69.8-30.6 69.8-68.4 0-9.4-2-18.4-5.5-26.5-41 3.1-82.7-1.6-124.5-8.1z"/><path fill="#C0C4E3" d="M943.6 71.2h56.5v13.6h-56.5z"/></g><g><path fill="#3E3E5C" d="M681.4 289.3c-2.6.1-5.3-.4-7.5-1.8-3.6-2.2-5.5-6.3-6.7-10.3-.9-3.1-1.4-6.4-.6-9.6 1.1-4.7 4.7-8.3 7.6-12.2 2.9-3.9 2.9-6.9 1.2-11.4-4.1-11 11.8-15.9 13.5-15.7 5.9.9 7.2 2.2 9.5 4.2 3.8 3.2 5.3 8.6 5.9 13.4.3 2.4-.3 4.9.2 7.4.5 2.3 1.9 4.2 2.4 6.5.5 2.1.2 4.3-.4 6.4-1.7 6.1-5.4 10.4-9.6 15.1-4.1 4.4-9 7.8-15.5 8z"/><path fill="#CC8372" d="M728.2 256.9c0 .2 0 .3.1.4.1.4.2.9.4 1.3.8 1.3 2.5 1.7 3.9.9.5-.3.9-.8 1.1-1.2.1-.2.2-.4.2-.6 1.7-1.4 2.9-4.7 3.1-6.5s-.3-2.1-1.3-3c-.1-1-.3-2-1.5-2.1-.1-1.6-1.1-2.3-2.6-2.5-.5-.7-.8-2.1-2.2-.9-1.4 1.2-1.8 5.1-1.8 7.1-1.5-2.5-6.1-3.3-5.1-.9 2 .8 2.5 2.7 2.8 4.4.3 1.8 1.5 2.2 3 2.7-.1.4-.1.7-.1.9z"/><path d="M711.6 270.7c-4.9-.3-20.8-10.9-24.7-9.8-7.3 2.1-1.1 9.8-1.1 9.8s13.3 11.5 26.7 10.1l-.8-10.1h-.1z"/><path fill="#F7A01A" d="M728.1 256c-3.2 4.3-7 8.7-20.6 15.9l4.9 8.9 1.5-.9c7.7-5 12.8-10.1 18.1-19.2.6-1.9-3.9-4.7-3.9-4.7z"/><path fill="#CC8372" d="M663.6 366.9l.9 7-6.7 10-3.8-4.8 4.6-7.5z"/><path fill="#CC8372" d="M690 341.5l-10.5-5.1-.1.5-22.2 36.5 3.4 6.4z"/><path fill="#3D3E5C" d="M653.5 378.7s2-.3 3.1 1.1c1.1 1.5 4-.1 4-.1s1-.2 4 2.8c3.3 2.9 7.5 1.4 7.5 1.4s1.5 1.6.4 3.3c-1.1 1.6-16.3.4-20.3-.8-.1-2.6 1.3-7.7 1.3-7.7z"/><path fill="#CC8372" d="M699.7 370.7l4.3 5.7-.8 11.9-6.2-1.5.4-9.5z"/><path fill="#CC8372" d="M712.9 336.2l-9.3-2.7-3.1 6.5-3.2 39.8 6.3 2.6zM690.6 261.7h-2.3c-1.2 0-2.2-1-2.2-2.2v-10.7h6.8v10.7c-.1 1.3-1.1 2.2-2.3 2.2z"/><path fill="#CC8372" d="M679.4 234.7l1.3 10.8c-.1 1.2 1.4 2.4 1.8 3.4 1.2 2.5 3.8 4.3 6.8 4.3 4.4.1 7.9-3.5 7.7-7.8l-.5-11.4-17.1.7z"/><path fill="#F7A01A" d="M685.6 255.5s4.1 4.3 7.7 3.3c11.7 21.4 5.9 31.7 15.6 48.2l-28.7-.4c6.4-22.8-13.1-43 5.4-51.1z"/><path fill="#303152" d="M697.1 384.7s2-.3 3.1 1.1c1.1 1.5 3.1-.2 3.1-.2s1.8 0 4.7 3c3.3 3 7.4 1.5 7.4 1.5s1.5 1.6.4 3.3-16.4.2-20.3-1.1c.1-2.5 1.6-7.6 1.6-7.6z"/><path fill="#CC8372" d="M641.1 284.8c.2 0 .3.1.4.2.4.2.8.4 1.2.7 1.1 1.1 1 2.9-.1 3.9-.4.4-1 .7-1.5.8-.2.1-.4.1-.7.1-1.7 1.3-5.4 1.6-7.2 1.4-1.8-.2-2-.8-2.6-2-1-.3-1.8-.8-1.7-2-1.6-.5-2-1.6-1.8-3.1-.5-.7-1.8-1.2-.3-2.3 1.5-1 5.5-.4 7.5 0-2.2-2.1-1.7-6.6.4-5.1.3 2.1 2 3 3.7 3.7 1.7.7 1.8 2 2 3.5.1.1.3.1.7.2z"/><path fill="#F7A01A" d="M689.7 269.4s2.3-9.5-5.1-8.4c-4 .5-13.9 16.6-18.3 19-14.5 5.3-20.5 5.2-25.8 4.8 0 0-.8 5.1 1.1 6 10.5 2.1 17.7 1.7 26.6-.7 13.6-3.4 21.5-20.7 21.5-20.7z"/><path fill="#3E3E5C" d="M687.9 241.5s8.2-.5 11-.9c1.6-5.4-2.7-10.4-6.4-11.4-3.8-1-12.1 4.3-12.3 4.3-2.1 0-1.7 5.3-1.7 5.3s-.1 4.3 9.4 2.7z"/><path fill="#3E3E5C" d="M687.6 239.5s-6 4.2-1.7 25.5c-5.3 2.2-10.3 13.8-10.3 13.8s3.1-27.1 2.2-34.9c-.9-7.8 5.1-10.3 9.8-4.4z"/><path fill="#303152" d="M708.9 307.1s16.4 21 17.6 30.1c-3.4 8.4-39 14.4-49.1 7.6-10.1-6.7 1.9-19.7 2.8-38.2l28.7.5z"/><path fill="#E8ECF6" d="M724.4 257.5s6 5.3 7.6 9c-2.9 6-15.6 17.6-17.9 17.8-3.9-.3-10-1.1-10-1.1s.1 9.5 5.2 20.9c6.9 15.3 24 29.2 18.2 43.5-2.3 2.8-23.6 5.9-23.6 5.9l-10.5-94.7 19.1 9.5 11.9-10.8zM685.9 256.8l3.5 97.1s-19.6 1.1-26.9-1.3c-.9-14.1 10.2-45.7 10.4-60.6-7.2 3.4-19.4 4.8-26.8 3-3.5-5.4-.9-11.9-.9-11.9s22.2-4.5 24.2-8.5 6.2-18.1 16.5-17.8z"/></g><g><path fill="#CC8372" d="M900.9 362.3l3.9 5.9-1.7 11.8-5.5-2.7.8-8.7z"/><path fill="#3D3E5C" d="M919 329.8l4.6-32.4-14.3-23.6c-9 7.6-12.6 19.7-9 30.8l1.6 23.4 17.1 1.8z"/><path fill="#3D3E5C" d="M919.1 329l-17.2-.9.2.4-4.2 42.3 7.9 2.2zM897.3 375.9s2-.3 3 1.2 4 .1 4 .1 1-.2 3.8 2.9c3.1 3.1 7.4 1.7 7.4 1.7s1.4 1.6.3 3.3c-1.1 1.6-16.4-.3-20.2-1.7 0-2.4 1.7-7.5 1.7-7.5z"/><path fill="#CC8372" d="M929.7 360.6l4.3 5.8-1 11.9-6.1-1.6.5-9.5zM949.5 250.3c-.2.1-.3.1-.4.2-.4.2-.8.4-1.1.8-1 1.1-.9 2.9.3 3.9.4.4 1 .6 1.6.7.2.1.4.1.7 0 1.8 1.2 5.5 1.3 7.3 1 1.8-.3 1.9-.9 2.5-2.1.9-.3 1.8-.9 1.6-2.1 1.5-.6 1.9-1.7 1.6-3.2.5-.7 1.8-1.4.2-2.3-1.6-.9-5.5-.2-7.5.4 2.1-2.2 1.4-6.7-.7-5.1-.2 2.1-1.8 3.1-3.5 4s-1.7 2.1-1.7 3.6c-.3 0-.6.1-.9.2z"/><path fill="#303152" d="M943.3 326.3l-15.9-37.2-26.8-4.5c-3 11.3 1.2 23.2 10.6 30.3l17.1 19.5 15-8.1z"/><path fill="#303152" d="M943.3 326.3l-18.4-5.7 1.5 7.9.9 41.3 8.1.8z"/><path fill="#1ABC9C" d="M947.8 231.8h19.9v30.8h-19.9z"/><path fill="#E1E3F0" d="M900.1 237.7s-2.9-9.3 4.7-8.7c4.1.3 14.8 15.8 19.3 17.9 14.8 4.4 20.8 4 26.1 3.3 0 0 1.1 5.1-.7 6-10.3 2.7-17.6 2.7-26.6.8-14-2.5-22.8-19.3-22.8-19.3z"/><path fill="#CC8372" d="M909.2 231.8h-2.3c-1.2 0-2.2-1-2.2-2.2v-10.7h6.8v10.7c-.1 1.2-1.1 2.2-2.3 2.2z"/><path fill="#CC8372" d="M898 204.7l1.3 10.8c-.1 1.2 1.4 2.4 1.8 3.4 1.2 2.5 3.8 4.3 6.8 4.3 4.4.1 7.9-3.5 7.7-7.8l-.5-11.4-17.1.7z"/><path fill="#E1E3F0" d="M904.2 225.6s4.1 4.3 7.7 3.3c8.7 19.8 18.1 38.8 15.6 60.2l-28.7-.4c6.3-22.8-13.1-55 5.4-63.1z"/><path fill="#CC8372" d="M943.9 253.9l-.3.3c-.3.3-.5.7-.7 1.2-.4 1.5.6 3 2.1 3.3.6.2 1.2.1 1.7-.1.2-.1.4-.1.5-.3 2.2.2 5.5-1.3 6.9-2.4 1.4-1.1 1.2-1.6 1.2-3 .7-.7 1.2-1.6.5-2.5 1.1-1.2.9-2.3-.1-3.6.1-.8.9-2-.9-2.1-1.8-.1-5 2.3-6.4 3.7.8-2.8-2-6.6-3-4.2.8 2-.2 3.6-1.2 5.1-1.1 1.5-.5 2.6.2 4 0 .3-.2.5-.5.6z"/><path fill="#E1E3F0" d="M920.9 250.8c-3.9-2.9-11.1-20.4-15-21.5-7.3-2.2-6.4 7.5-6.4 7.5s4.6 16.9 16.4 22.9l5-8.9c.1 0 .1 0 0 0z"/><path fill="#E1E3F0" d="M944.6 253.2c-5.4.8-11.3 1.2-26-3.1l-2.9 9.7c.5.2 1.1.3 1.7.4 9 1.8 16.3 1.8 26.6-.9 1.7-1 .6-6.1.6-6.1z"/><path fill="#3D3E5C" d="M898.3 218.8c-.4-.9-1.8-1.1-2.2-2.1-.3-.7.2-1.5.1-2.3-.2-.9-1-1.5-1.2-2.4-.3-1.2.8-2.2 1-3.4.2-1-.3-2.1-.3-3.1-.1-1.2.5-2.5 1.7-3.1.3-.2.7-.3 1-.5.8-.5 1.1-1.8 2.1-1.7.3.1.5.2.8.3.9.3 1.8-.4 2.4-1 .7-.7 1.5-1.3 2.4-1.1.5.1.9.5 1.4.7.9.3 1.7-.2 2.5-.7s1.8-.8 2.5-.3c.8.5.8 1.7 1.6 2.2.3.2.8.3 1.1.2 1.4-.1 2.6-.8 3.9-1 .3-.1.7-.1.9 0 .7.3.5 1.3.1 2s-.9 1.4-.7 2c.3.8 1.5 1 1.5 1.8s-1.2 1.1-1.5 1.8c-.4.8.3 1.6.3 2.5 0 .5-.3 1.1-.8 1.5-.9.8-2.2 1-3.3.5-1.3-.6-2-2.1-3.3-2.7-1-.5-2.3-.4-3.2.2-.8.5-1.3 1.4-2.1 1.9-1 .7-2.4.7-3.4 1.2.5-.2 1-.3 1.5-.2.5.1 1 .4 1.1.9.1.3 0 .5 0 .8 0 .7.3 1.4.4 2 .2.7.2 1.4-.3 2-.4.4-1 .7-1.2 1.2-.2.4 0 .8.1 1.2.2 1.7-1.9 2.9-3.4 2.3-.8-.3-1.6-.9-2.2-1.4-.9-.5-.9-1.2-1.3-2.2z"/><path fill="#FFF" d="M904.2 225.6s5.7 2.1 7.7 3.3c-.3 3.1-.9 4.6-.9 4.6s-2.1-4.5-6.8-7.9z"/><path fill="#303152" d="M927 374.6s2-.3 3.1 1.2c1 1.5 3.1-.2 3.1-.2s1.8.1 4.7 3.1c3.2 3 7.4 1.5 7.4 1.5s1.5 1.6.3 3.3-16.4.1-20.3-1.4c.1-2.4 1.7-7.5 1.7-7.5z"/><g><path fill="#E1E3F0" d="M896.1 243.6s-1.4 77.2 0 82c8.3 4.6 38-1 38-1l-10.6-68.7-27.4-12.3z"/></g></g><g><path fill="#C1C5E3" d="M1054.8 351.9c.8-.5 23.2 1 23.2 1l2.8-32.7-16-16-7.5 5.1-2.5 42.6z"/><path fill="#CC8372" d="M1085 372.8l-3.9 6 1.7 11.8 5.6-2.7-.8-8.8z"/><path fill="#3D3E5C" d="M1088.7 386.5s-2-.3-3 1.2-4 .1-4 .1-1-.2-3.8 2.9c-3.1 3.1-7.4 1.7-7.4 1.7s-1.4 1.6-.3 3.3c1.1 1.6 16.4-.3 20.2-1.7-.1-2.5-1.7-7.5-1.7-7.5z"/><path fill="#CC8372" d="M1053.6 373.2l-5.2 5-.8 11.9 6.3-.6.9-9.5z"/><path fill="#303152" d="M1054.1 387.4s-2-.6-3.2.7c-1.2 1.3-3.1-.6-3.1-.6s-1.8-.2-5.1 2.3c-3.6 2.5-7.6.4-7.6.4s-1.7 1.4-.9 3.1c.9 1.7 16.1 2.4 20.2 1.7.5-2.4-.3-7.6-.3-7.6z"/><path fill="#1D1D46" d="M1056.9 296.5c3.7 6.7 21.7 4.1 23.1 11.9l-15.9 38.8-14.4-3.1 7.2-47.6z"/><path fill="#1D1D46" d="M1064.2 347.2l-8.8 37-8.2.3 2.6-40.4z"/><path fill="#29294F" d="M1086.5 297.7l2.4 86.6h-7.5s-12.4-47.7-17-63.5c-.4-12.2-6.8-22.9-6.8-22.9l28.9-.2z"/><path fill="#1D1D46" d="M1055.1 251.8c5.7-4.3 14.5-8.3 21-7.5 6.6 6.8-.2 12.1-.2 12.1s-4.9 5.1-12.8 7.2c-2.9-2.9-6.2-8.2-8-11.8z"/><path fill="#F6A988" d="M1049.1 258.1c1.7-.4 3.1-4.1 6.1-6.4 1.7 3.6 5.1 8.9 8 11.8-1.2 6.8-16 12.5-24.9 6.7L1049 258c0 .1 0 .1.1.1z"/><path fill="#F6A988" d="M1047.3 243.9c-2.3 7 5.7 18.4 1.5 25.8l-10.5.7c-3.2-3.8-.7-16.2 2.8-26.2 1-1.8 6.2-.3 6.2-.3z"/><path fill="#F6A988" d="M1046.9 245.7c-.1.2-.1.3-.2.4-.2.4-.5.8-.9 1.1-1.3.9-3.1.7-4.1-.6-.4-.5-.5-1.1-.5-1.6-.1-.2-.1-.4.1-.7-1.1-2-1-5.7-.5-7.5.5-1.8 1.1-1.8 2.4-2.4.4-.9 1.1-1.8 2.3-1.5.7-1.5 1.9-1.8 3.5-1.4.7-.4 1.6-1.7 2.4-.1.8 1.7-.3 5.6-1 7.5 2.4-1.9 7.2-.8 5.3 1.1-2.2.1-3.5 1.6-4.4 3.2-1 1.6-2.3 1.6-4 1.5-.2.4-.3.7-.4 1z"/><path fill="#F6A988" d="M1049.2 236s2.1 1.6 2 2.8c-.1 1.2-2 .5-2 .5s1.6 1.2.4 2.3c-.5.5-2.2-.4-2.2-.4s1.3 1.1.8 2c-.5.8-1.8.1-1.8.1s.5 1.7-.4 1.8c-.9.2-2.2-.9-2.2-.9s-3.2-1.4-3-3.4c0 0 .6-3.7.7-3.8.7-1.5 3.5-3.4 7.7-1z"/><path fill="#3D3E5C" d="M1069.5 219.9s-.9 8.5.9 12c5.5-2.4 3.2-9.6 3.2-9.6l-4.1-2.4z"/><path fill="#CC8372" d="M1088.1 222.8l-1.3 10.9c.1 1.2-1.4 2.4-1.8 3.5-1.2 2.5-3.8 4.3-6.8 4.3-4.4.1-8-3.5-7.8-7.9l.5-11.5 17.2.7z"/><path fill="#3D3E5C" d="M1084.3 218.5c7 .4 7.6 14.7 2.4 16.9 0 0-2.6 4.9-2.5 2.2-.1-.4-.1-.8-.1-1.2 2.4-.2 3.1-6 2.3-6.3-2-.8-2.1 1.9-2.1 3.4.1-.4-.9-.5-.8-.9 2.3-13.7-7.9-2.1-9.4-3.8-2.8-2.3-6.7-13 10.2-10.3z"/><path fill="#CC8372" d="M1076.9 249.7h2.4c1.2 0 2.2-1 2.2-2.2v-10.8h-6.8v10.8c0 1.1 1 2.2 2.2 2.2z"/><path fill="#3D3E5C" d="M1088.1 229.6c.2-1.7-4.7-4.4-5.7-4.7-1.1-.2-4.7 4.2-7.7 4.1-8.3-.3-8.1-13.1-2.9-11.7 5.2 1.4 16.9-3.3 18.3 7.9 1.4 11.1-5.2 13.1-5.2 13.1s2.7-4.2 3.2-8.7z"/><path fill="#3D3E5C" d="M1070.4 217.1c1.1-.8 2.4-1 3.8-1.1 1.4-.1 2.7-.1 4-.4.9-.2 1.7-.7 2.7-.8 1.8-.4 3.7.1 5.1 1.1.8.5 1.4 1.3 2.1 1.8.7.4 1.4.6 2.1 1 2.1 1.1 3 3.8 2.3 6-.2.5-.4.9-.5 1.5-.4 1.9 1.1 3.8.7 5.7-.3 1.1-1.3 2-1.8 3-.4.8-.6 1.7-1 2.5-.4.9-1.2 1.6-2.1 2-.5.3-1.2.4-1.7.3-.6-.2-1.1-.7-1.1-1.2-.1-.7.6-1.2 1.1-1.7 1.7-1.6 2.8-3.7 2.9-6 .1-2.3-1-4.7-3-5.8-.8-.4-1.7-.8-2.2-1.5-.3-.5-.4-1.2-.7-1.7-.6-.9-1.9-1-3-.9-1.5.2-3 .5-4.4 1.1-.9.3-1.7.8-2.7 1-4.3.5-5.6-3.9-2.6-5.9z"/><path fill="#1D1D46" d="M1082 243.3s-4.2 4.3-7.8 3.4c-25.5 7.3-12.9 30-17.4 60.7l30.7-.4c-6-40.3 21.7-52-5.5-63.7z"/><path fill="#29294F" d="M1083.8 244.1s-8.3 1.5-8.3 20.7c-.9 9 .3 41.9 1.4 43.7 3 1.7 13-1.7 13-1.7s-4.1-24.4 1.6-38.6c0 0 8.7-19.2-7.7-24.1zM1074.7 244.1s-11.5 5-12.6 24.1c-.7 13.6-1.3 40.1-1.3 40.1l-6.8 1s2.7-21.3 3.3-45.1c2.3-7.4 7.2-20.4 17.4-20.1z"/><path fill="#E1E3F0" d="M1038.2 248.5s7.5-.2 10.9 0c1.6 1.7-.1 9.6-.1 9.6s7.6-14 25.6-14c-15.5 6.3-13.4 115.3-13.4 115.3H1045l10.1-85.2s-13.8 1.4-19.2-1.5c-3-6.8 2.3-24.2 2.3-24.2zM1082 243.3s-13.5 52.3-11.7 116.1c17 4.3 22.9-5.1 22.9-5.1s-5.5-76.8 1-86.8c6.5-9.9.5-24.2-12.2-24.2z"/><g><path fill="#1D1D46" d="M1092.7 270.4c-4.9-5.1-16.5-13-9.6-19.7 5-7 12.4.3 12.4.3s3.3 4.2 8.4 10.5c-2.7 3.1-7.7 6.9-11.2 8.9z"/><path fill="#CC8372" d="M1094.8 297l.3-.3c.3-.3.7-.6 1.2-.8 1.5-.5 3.2.3 3.7 1.7.2.6.2 1.2.1 1.7 0 .2-.1.4-.2.6.5 2.2-.7 5.7-1.7 7.3-1 1.6-1.6 1.5-3 1.6-.7.8-1.6 1.4-2.7.8-1.1 1.2-2.4 1.2-3.7.4-.8.2-2.2 1.2-2.5-.7-.3-1.8 2.1-5.3 3.4-6.9-2.9 1.1-7.2-1.2-4.8-2.5 2.1.6 3.8-.6 5.2-1.8 1.4-1.2 2.7-.8 4.2-.3.2-.3.4-.5.5-.8z"/><path fill="#CC8372" d="M1100.2 273.3c-6.5 5.9-2 19.1-6.3 25.3 0 0 4.5 2.9 6 1.5 6.3-8.6 12.4-19.7 10.4-24.3 0-.1-.1-.7-.1-.7l-10-1.8z"/><path fill="#CC8372" d="M1092.8 270.4c2.5 2.7 6.4 3.7 7 5.3l10.4-.5c-.5-5.2-3.2-9.9-6.3-13.7-2.6 3.1-7.6 6.8-11.1 8.9z"/></g><path fill="#E1E3F0" d="M1092.4 294.5s9.2 4.4 12.3 4.6c6.9-6.3 8-22.5 8-22.5s-11.3-29.2-25.7-30.7c-6.7 3.6-15.4 13.2 9.1 29.4-1.4 11.5-3.7 19.2-3.7 19.2z"/></g><g><path fill="#C1C5E3" d="M799 342.8c.8-.5 23.2 1 23.2 1l2.8-32.7-16-16-7.5 5.1-2.5 42.6z"/><path fill="#CC8372" d="M829.2 363.7l-3.9 5.9 1.8 11.9 5.4-2.8-.8-8.7z"/><path fill="#3D3E5C" d="M832.9 377.4s-2-.3-3 1.2-4 .1-4 .1-1-.2-3.8 2.9c-3.1 3.1-7.4 1.7-7.4 1.7s-1.4 1.6-.3 3.3c1.1 1.6 16.4-.3 20.2-1.7-.1-2.5-1.7-7.5-1.7-7.5z"/><path fill="#CC8372" d="M797.7 364.1l-5.1 5-.8 11.9 6.3-.6.9-9.5z"/><path fill="#303152" d="M798.3 378.3s-2-.6-3.2.7c-1.2 1.3-3.1-.6-3.1-.6s-1.8-.2-5.1 2.3c-3.6 2.5-7.6.4-7.6.4s-1.7 1.4-.9 3.1c.9 1.7 16.1 2.4 20.2 1.7.4-2.4-.3-7.6-.3-7.6z"/><path fill="#1D1D46" d="M801.1 287.3c3.7 6.7 21.7 4.1 23.1 11.9L808.3 338l-14.4-3.1 7.2-47.6zM808.4 338.1l-8.9 37-8 .3 2.6-40.4z"/><path fill="#29294F" d="M830.6 288.6l2.4 86.6h-7.5s-12.4-47.7-17-63.5c-.4-12.2-6.8-22.9-6.8-22.9l28.9-.2z"/><path fill="#1D1D46" d="M787.6 255.2c4.8-5.3 12.7-10.8 19.2-11.2 7.7 5.5 2.1 11.9 2.1 11.9s-3.8 5.9-11.2 9.4c-3.4-2.3-7.7-6.9-10.1-10.1z"/><path fill="#F6A988" d="M780.5 260.5c1.6-.7 4.6-2.5 7.1-5.3 2.4 3.3 6.7 7.8 10.1 10.1-11.1 8-11.1 8-23.2 11.1l.2-12.4c0 .1 5.7-3.5 5.8-3.5z"/><path fill="#F6A988" d="M755.9 274.7c7.5-.7 15-12.3 23.6-11.4l4.8 9.2c-2.3 4.4-15 7-25.7 7.7-2-.2-2.7-5.5-2.7-5.5z"/><path fill="#F6A988" d="M757.7 274.4c.2 0 .3 0 .4.1.5 0 .9.2 1.4.4 1.4.8 1.8 2.6 1 4-.3.5-.8.9-1.3 1.1-.2.1-.4.2-.6.2-1.4 1.8-4.9 3.1-6.8 3.4-1.9.3-2.2-.3-3.2-1.2-1-.1-2.1-.3-2.3-1.5-1.7-.1-2.4-1-2.7-2.6-.7-.5-2.2-.8-1-2.2 1.2-1.4 5.4-2 7.5-2-2.8-1.5-3.6-6.2-1-5.3.9 2 2.9 2.5 4.8 2.8 1.9.3 2.4 1.5 2.9 3 .3-.2.6-.2.9-.2z"/><path fill="#3D3E5C" d="M813.7 210.8s-.9 8.5.9 12c5.5-2.4 3.2-9.6 3.2-9.6l-4.1-2.4z"/><path fill="#CC8372" d="M832.3 213.7l-1.3 10.9c.1 1.2-1.4 2.4-1.8 3.5-1.2 2.5-3.8 4.3-6.8 4.3-4.4.1-8-3.5-7.8-7.9l.5-11.5 17.2.7z"/><path fill="#3D3E5C" d="M828.5 209.4c7 .4 7.6 14.7 2.4 16.9 0 0-2.6 4.9-2.5 2.2-.1-.4-.1-.8-.1-1.2 2.4-.2 3.1-6 2.3-6.3-2-.8-2.1 1.8-2.1 3.4.1-.4-.9-.5-.8-.9 2.3-13.7-7.9-2.1-9.4-3.8-2.7-2.3-6.7-13 10.2-10.3z"/><path fill="#CC8372" d="M821.1 240.5h2.4c1.2 0 2.2-1 2.2-2.2v-10.8h-6.8v10.8c0 1.2.9 2.2 2.2 2.2z"/><path fill="#3D3E5C" d="M832.3 220.5c.2-1.7-4.7-4.4-5.7-4.7-1.1-.2-4.7 4.2-7.7 4.1-8.3-.3-8.1-13.1-2.9-11.7s16.9-3.3 18.3 7.9c1.4 11.1-5.2 13.1-5.2 13.1s2.7-4.2 3.2-8.7z"/><path fill="#1D1D46" d="M826.1 234.2s-3.6 1.9-7.3.9c-25.5 7.3-13.4 32.5-18 63.2l30.7-.4c-5.8-40.3 21.9-52-5.4-63.7z"/><path fill="#29294F" d="M818.9 235s-11.5 5-12.6 24.1c-.7 13.6-1.3 40.1-1.3 40.1l-6.8 1s2.7-21.3 3.3-45.1c2.4-7.4 7.1-20.4 17.4-20.1z"/><path fill="#E1E3F0" d="M761.5 281.6s-2.5-15.2 1-15c1.6 1.7 30.8-17.5 30.8-17.5s7.6-14 25.6-14c-15.5 6.3-13.4 115.3-13.4 115.3h-16.2l10.1-85.2s-7.9 6.9-16.8 10.4c-11.5 6.3-21.1 6-21.1 6zM826.1 234.2s-13.5 52.3-11.7 116.1c17 4.3 22.9-5.1 22.9-5.1s-5.5-76.8 1-86.8c6.6-9.9.6-24.2-12.2-24.2z"/><g><path fill="#1D1D46" d="M820.7 259.4c1.6-6.9 1.8-20.6 11.3-18.9 8.7.2 6.7 10.2 6.7 10.2s-1.8 5-4.2 12.7c-4.1-.4-10-2.3-13.8-4z"/><path fill="#CC8372" d="M799.4 275.9c.2 0 .3.1.4.1.5.1.9.2 1.3.5 1.3 1 1.6 2.8.6 4-.4.5-.9.8-1.5 1-.2.1-.4.2-.7.2-1.6 1.6-5.3 2.6-7.2 2.7-1.9.1-2.1-.5-3-1.6-1-.1-2.1-.5-2.1-1.7-1.7-.2-2.3-1.2-2.4-2.9-.7-.5-2.2-1.1-.9-2.4 1.4-1.3 5.6-1.2 7.8-1.1-2.6-1.7-2.9-6.5-.5-5.3.7 2.1 2.6 2.8 4.4 3.3 1.8.5 2.2 1.7 2.6 3.3.6-.1.9-.1 1.2-.1z"/><path fill="#CC8372" d="M822.4 267.1c-8.6-2-17.3 9-24.9 8.9 0 0 .1 5.3 2.1 5.7 10.8.4 23.6-.9 26.3-5.1.1-.1.5-.4.5-.5l-4-9c.1 0 0 0 0 0z"/><path fill="#CC8372" d="M820.8 259.4c-.9 3.6.4 7.3-.5 8.7l6.2 8.2c4.1-3.3 6.6-8.1 8.1-12.7-4.1-.6-10.1-2.5-13.8-4.2z"/><path fill="#E1E3F0" d="M800.2 272.5s1.3 9.9 2.9 12.6c9.2 2.1 23.5-6 23.5-6s18.4-25.4 11.7-38c-6.8-3.5-19.7-5.1-19.9 23.8-10.4 5.2-18.2 7.6-18.2 7.6z"/></g></g><g><path fill="#3D3E5C" d="M762.9 271.4l-3.2-20.8h1.7v-2.2h-10.2v2.2h1.7l-3.2 20.8c-.1.5-.2 1.1-.4 1.6l-9.5 22.3c-.3.8-.2 1.6.2 2.3l1.4 2c.5.7 1.2 1.1 2.1 1.1h25.8c.8 0 1.6-.4 2.1-1.1l1.4-2c.5-.7.5-1.5.2-2.3l-9.5-22.3c-.4-.5-.6-1-.6-1.6z"/><path fill="#FFF" d="M765.2 279.7l-2.7-6.6c-.3-.7-.4-1.4-.5-2.1l-3.1-20.5h-5.1l-3.1 21c-.1.7-.3 1.4-.5 2.1l-2.9 6.9c5.7-1.3 11.9-1.5 17.9-.8z"/><path fill="#34495E" d="M765.2 279.7c-6.1-.7-12.2-.5-18.1.8l-6.3 15c-.7 1.8 1.4 4.2 2.5 4.1H769.1c1 0 3.4-2.2 2.5-4.1l-6.4-15.8z"/></g><g><path fill="#3D3E5C" d="M1038.9 278.7l-2.4-15.4h1.3v-1.6h-7.6v1.6h1.3l-2.4 15.4c-.1.4-.2.8-.3 1.1l-7.1 16.5c-.2.5-.2 1.2.2 1.7l1 1.5c.3.5.9.8 1.5.8h19.1c.6 0 1.2-.3 1.5-.8l1-1.5c.3-.5.4-1.1.2-1.7l-7.1-16.5c0-.3-.2-.7-.2-1.1z"/><path fill="#F7A01A" d="M1030 277.2l-.2 1.5c-.1.5-.2 1-.4 1.5l-6.9 16.3c-.5 1.3 1 3.1 1.9 3h19.2c.7 0 2.5-1.7 1.9-3l-6.9-16.6c-.2-.5-.3-1-.4-1.5l-.1-.3c-.1 0-.1 0-.2-.1-2.5-1.2-5.2-1.5-7.9-.8z"/><path fill="#FFF" d="M1032.1 263.2l-2.1 14.1c2.7-.7 5.4-.4 8 .9.1 0 .1 0 .2.1l-2.3-15-3.8-.1z"/></g><g><ellipse fill="#3D3E5C" cx="820.1" cy="283.9" rx="12.5" ry="12.2"/><path fill="#3D3E5C" d="M816.7 244h6.8v35.2h-6.8z"/><path fill="#FFF" d="M830.9 279.4c-1.5-3.4-4.4-5.9-8.1-6.7V244h-5.4v28.7c-3.1.7-5.9 2.7-7.4 5.4 7 1 14 1.9 20.9 1.3z"/><path fill="#C0C4E3" d="M810 278.1c-1 1.7-1.6 3.7-1.6 5.8 0 6.3 5.3 11.5 11.8 11.5s11.8-5.1 11.8-11.5c0-1.6-.3-3.1-.9-4.4-7.1.5-14.1-.4-21.1-1.4z"/><path fill="#3D3E5C" d="M815.3 244h9.5v2.3h-9.5zM800 297.2h37.1v3.5H800z"/><path fill="#3D3E5C" d="M803.2 249.6h1.9v49.3h-1.9z"/><path fill="#3D3E5C" d="M800.9 254.2h26.2v1.7h-26.2z"/></g><g><ellipse fill="#3D3E5C" cx="984.8" cy="278.2" rx="16.6" ry="16.3"/><path fill="#3D3E5C" d="M980.3 225.3h9v46.8h-9z"/><path fill="#1ABC9C" d="M982 272.2c-.2-.1-.3-.1-.4-.2-1.9.4-3.7.8-5.6 1 1.8-.2 3.7-.5 5.6-1-3.1-1-6.4-2.6-9.8-2.3-1.6 2.4-2.6 5.3-2.6 8.5 0 8.5 7 15.3 15.6 15.3s15.6-6.8 15.6-15.3c0-1.2-.2-2.4-.4-3.5-6.1.3-12.4-1.1-18-2.5z"/><path fill="#FFF" d="M988.4 263.4v-38h-7.1v38c-3.9.9-7.3 3.3-9.4 6.4 3.3-.3 6.7 1.2 9.8 2.3 5.1-1.2 10.5-3 15.7-3.1-2.3-2.8-5.4-4.8-9-5.6z"/><path fill="#16A085" d="M981.6 272.1c.2.1.3.1.4.2 5.5 1.4 11.8 2.7 17.9 2.5-.5-2.1-1.5-4.1-2.8-5.7-5 0-10.3 1.8-15.5 3z"/><path fill="#3D3E5C" d="M978.5 225.3h12.6v3h-12.6zM962.3 295.9h49.2v4.6h-49.2z"/><path fill="#3D3E5C" d="M1004.7 232.8h2.5v65.5h-2.5z"/><path fill="#3D3E5C" d="M975.5 238.9h34.8v2.2h-34.8z"/></g><g><path fill="#3D3E5C" d="M863.9 294.5h-.8c-1.1 0-2-.9-2-2V270c0-.2.1-.3.3-.3h4.2c.2 0 .3.1.3.3v22.5c0 1.1-.9 2-2 2z"/><path fill="#3D3E5C" d="M860.1 269.7h6.7v1.6h-6.7z"/><path fill="#ECF0F1" d="M863.8 293.9h-.7c-.9 0-1.6-.7-1.6-1.6v-21h3.8v21c.1.9-.6 1.6-1.5 1.6z"/><path fill="#3D3E5C" d="M875.4 294.5h-.8c-1.1 0-2-.9-2-2V270c0-.2.1-.3.3-.3h4.2c.2 0 .3.1.3.3v22.5c0 1.1-.9 2-2 2z"/><path fill="#3D3E5C" d="M871.7 269.7h6.7v1.6h-6.7z"/><path fill="#5E72EB" d="M875.3 293.9h-.7c-.9 0-1.6-.7-1.6-1.6v-21h3.8v21c.2.9-.5 1.6-1.5 1.6z"/><path fill="#3D3E5C" d="M887 294.5h-.8c-1.1 0-2-.9-2-2V270c0-.2.1-.3.3-.3h4.2c.2 0 .3.1.3.3v22.5c0 1.1-.9 2-2 2z"/><path fill="#3D3E5C" d="M883.3 269.7h6.7v1.6h-6.7z"/><path fill="#F7A01A" d="M886.9 293.9h-.7c-.9 0-1.6-.7-1.6-1.6v-21h3.8v21c.1.9-.6 1.6-1.5 1.6z"/><g><path fill="#3D3E5C" d="M898.5 294.5h-.8c-1.1 0-2-.9-2-2V270c0-.2.1-.3.3-.3h4.2c.2 0 .3.1.3.3v22.5c0 1.1-.9 2-2 2z"/><path fill="#3D3E5C" d="M894.8 269.7h6.7v1.6h-6.7z"/><path fill="#8E44AD" d="M898.5 293.6h-.7c-.9 0-1.6-.7-1.6-1.6v-20.4h3.9V292c0 .9-.7 1.6-1.6 1.6z"/></g><g><path fill="#3D3E5C" d="M910.1 294.5h-.8c-1.1 0-2-.9-2-2V270c0-.2.1-.3.3-.3h4.2c.2 0 .3.1.3.3v22.5c0 1.1-.9 2-2 2z"/><path fill="#3D3E5C" d="M906.3 269.7h6.7v1.6h-6.7z"/><path fill="#2ECC71" d="M910 293.9h-.7c-.9 0-1.6-.7-1.6-1.6v-21h3.8v21c.1.9-.6 1.6-1.5 1.6z"/></g><path fill="#3D3E5C" d="M852.8 297.5h66.7v3.2h-66.7z"/><path fill="#3D3E5C" d="M855.5 272.2h1.7V299h-1.7zM915.3 272.2h1.7V299h-1.7z"/><path fill="#3D3E5C" d="M856.3 275.6h59.9v.8h-59.9z"/></g><g><path fill="#808BB4" d="M696.3 300.6h450.3V319H696.3z"/><path fill="#C0C4E3" d="M708.8 319h425.3v7.3H708.8z"/><g fill="#C0C4E3"><path d="M722.8 326.2h20.7V394h-20.7zM1099.3 326.2h20.7V394h-20.7z"/></g></g></svg>