<svg version="1.1" id="Layer_1" xmlns="http://www.w3.org/2000/svg" xmlns:xlink="http://www.w3.org/1999/xlink" x="0" y="0" viewBox="-162 -187 1254.1 934" xml:space="preserve"><style>.st11{fill:#f24995}.st12{fill:#db2a83}.st17{fill:none}.st21{fill:#fff}.st22{fill:#30213a}.st32{fill:#0ebde5}</style><linearGradient id="SVGID_1_" gradientUnits="userSpaceOnUse" x1="1107.976" y1="542.025" x2="1282.628" y2="-220.204" gradientTransform="matrix(-1 0 0 1 1695.736 0)"><stop offset="0" stop-color="#1d1b4e"/><stop offset=".999" stop-color="#61eafd"/></linearGradient><path d="M85.1 420c57.5-23.6 132.5-8.4 175.6-53.2 26.7-27.7 31.3-69.8 51.9-102.3 31.2-49.4 93.5-68.9 151.6-75.2 52.6-5.7 110.6-5.3 151.2-39.3 36.9-31 49.9-83.7 86.9-114.5C744.8 0 806.5 2.9 861.4 10.1c47.7 6.3 95.2 14.4 142.3 24.4 16.3 3.4 37.8 6.1 59.2 10.1V690h-968c-5.5-4.3-11-8.6-16.4-13.1-29.7-25-57.3-54.7-69.5-91.6-20.9-63.4 14.3-140 76.1-165.3z" fill="url(#SVGID_1_)"/><defs><path id="SVGID_2_" d="M909.8 4.9C854.9-2.3 793.2-5.2 750.7 30.2c-37 30.8-50.1 83.5-86.9 114.5-40.5 34.1-98.5 33.7-151.2 39.3-58.1 6.3-120.4 25.8-151.6 75.2-20.5 32.5-25.2 74.6-51.9 102.3-43.1 44.8-118.1 29.6-175.6 53.2-61.7 25.4-96.9 102-76 165.4 12.2 36.9 39.8 66.6 69.5 91.6 59 49.6 129.5 85.4 204.4 103.6 94.4 23 193 18.1 290.1 16.6 117.9-1.8 236.7 1.4 352.6-20.6 59.3-11.2 118.5-29.6 167.1-65.5 64.9-47.8 104.6-122 137.6-195.5 13.2-29.4 25.9-60.1 25.5-92.3-.7-58.1-42.7-106.1-70.3-157.2-20.2-37.5-33.2-78.8-38.1-121.1-2.9-24.3 4.4-60.2-17.6-76.9-29.4-22.4-90.4-26.1-126-33.6-47.3-9.9-94.8-18-142.5-24.3z"/></defs><clipPath id="SVGID_3_"><use xlink:href="#SVGID_2_" overflow="visible"/></clipPath><linearGradient id="SVGID_4_" gradientUnits="userSpaceOnUse" x1="1236.912" y1="489.188" x2="1467.078" y2="-433.347" gradientTransform="matrix(-1 0 0 1 1695.736 0)"><stop offset="0" stop-color="#0f71d8"/><stop offset="1" stop-color="#8deafd"/></linearGradient><path clip-path="url(#SVGID_3_)" fill="url(#SVGID_4_)" d="M-307.1-161h1418.4v845.8H-307.1z"/><linearGradient id="SVGID_5_" gradientUnits="userSpaceOnUse" x1="1046.736" y1="-42.8" x2="1100.506" y2="-42.8"><stop offset="0" stop-color="#1d1b4e"/><stop offset=".999" stop-color="#61eafd"/></linearGradient><circle cx="1073.6" cy="-42.8" r="26.9" fill="url(#SVGID_5_)"/><linearGradient id="SVGID_6_" gradientUnits="userSpaceOnUse" x1="127.839" y1="608.847" x2="195.122" y2="608.847"><stop offset="0" stop-color="#1d1b4e"/><stop offset=".999" stop-color="#61eafd"/></linearGradient><circle cx="161.5" cy="608.8" r="33.6" fill="url(#SVGID_6_)"/><path d="M-7.4 661.5c-7.2-69.2 43-131.1 112.1-138.3 8.8-.9 17.4-.9 25.9 0 5.6-24.4 26.2-43.7 52.5-46.4 21.8-2.3 42 7.3 54.4 23.6 24.1-.3 46.4 8.8 63.2 24.2 5.6-6.1 13.3-10.3 22.1-11.2 18.2-1.9 34.5 10.5 37.9 28.1 7.6-7.6 17.9-12.8 29.4-14 11.9-1.2 23.3 1.9 32.5 8.2 9.5-15.1 25.6-25.8 44.8-27.8 25.8-2.7 49.5 11.3 60.3 33.2 11.6-10 26.3-16.7 42.7-18.4 19.5-2 38.1 3.3 52.9 13.7 4.6-11.9 15.4-20.9 29-22.3 16.2-1.7 31 8 36.3 22.6 9.7-11.2 23.5-18.9 39.3-20.5 10.4-1.1 20.5.5 29.5 4.3 8.3-19.6 26.7-34.1 49.3-36.5 7.7-.8 15.2-.1 22.2 1.8 14.1-26.2 37.3-47 65.9-57.9-2.3-4.3-3.8-9.2-4.4-14.4-1.8-17.1 7.6-32.7 22.3-39.7-11.6-9.7-19.6-23.8-21.3-40-2.3-22 7.5-42.4 24.1-54.7-16.6-1.2-30.4-14.1-32.2-31.2-1.4-13.2 4.8-25.5 15-32.5-6.7-5.6-11.3-13.7-12.2-23.1-2-19.2 11.9-36.4 31.1-38.4 4-.4 7.9-.1 11.7.8-3.6-6.8-6.1-14.4-6.9-22.5-3-28.9 14.5-55.1 40.8-64.2-.6-2.2-1-4.5-1.2-6.8-2.8-26.8 16.7-50.8 43.5-53.6 26.8-2.8 50.8 16.7 53.6 43.5.6 5.7.2 11.2-1.1 16.5l148.5 42.1-64.7 604.1-1034.5 96.5 4.3-36.2C50.4 771-.9 724-7.4 661.5z" fill="#0682ce"/><linearGradient id="SVGID_7_" gradientUnits="userSpaceOnUse" x1="989.332" y1="533.613" x2="846.883" y2="615.856"><stop offset="0" stop-color="#1d1b4e"/><stop offset=".999" stop-color="#02eafd"/></linearGradient><path fill="url(#SVGID_7_)" d="M1112 813.5l25.5-23.2L724.2 336l-25.5 23.2z"/><linearGradient id="SVGID_8_" gradientUnits="userSpaceOnUse" x1="953.395" y1="563.631" x2="827.061" y2="636.569"><stop offset="0" stop-color="#1d1b4e"/><stop offset=".999" stop-color="#02eafd"/></linearGradient><path fill="url(#SVGID_8_)" d="M1091.2 832.4l11.4-10.3-413.3-454.3-11.5 10.3z"/><linearGradient id="SVGID_9_" gradientUnits="userSpaceOnUse" x1="1009.154" y1="512.9" x2="882.82" y2="585.839"><stop offset="0" stop-color="#1d1b4e"/><stop offset=".999" stop-color="#02eafd"/></linearGradient><path fill="url(#SVGID_9_)" d="M1147 781.7l11.4-10.4L745 317l-11.4 10.4z"/><path d="M-82.7 631c-1.1-29.9 22.3-54.9 52.1-56 12.2-.4 23.6 3.2 32.8 9.6 17.8-16.1 41.1-26.3 67-27.2 34.9-1.3 66.5 14.6 86.7 40.1 16.8-12.8 37.5-20.8 60.2-21.6 3.7-.1 7.4-.1 11.1.2 1.9-14.8 14.3-26.5 29.7-27 11-.4 20.8 4.9 26.6 13.3 9.4-9.8 22.5-16.2 37.2-16.7 12.8-.5 24.8 3.6 34.3 10.7 9-7.8 20.6-12.7 33.5-13.2 28.5-1 52.7 20.2 55.7 48.2 1.2-.6 2.3-1.2 3.6-1.7 13-5.4 26.8-5.5 39.1-1.1 1.9-18.3 17-33 35.9-33.6 10.3-.4 19.9 3.5 26.9 10 8.8-7.2 20-11.7 32.2-12.1 22.9-.8 42.9 12.7 51.5 32.4 7.7-4 16.4-6.4 25.7-6.7 7.2-.3 14.1.7 20.6 2.8 11-34.6 42.7-60.3 81.1-61.7 14-.5 27.4 2.3 39.3 7.7 1.2-14.8 13.3-26.7 28.5-27.2 1.6-.1 3.2 0 4.7.2 6.3-12.9 19.3-21.9 34.6-22.5 3.3-.1 6.5.2 9.6.8 2-18.7 13.6-34.6 29.8-42.7-6-16.3-3.6-33.8 5.2-47.5-4.1-3.8-6.7-9.1-6.9-15.1-.4-10.1 6.2-18.7 15.4-21.5-6.1-6.4-9.9-14.9-10.3-24.4-.5-13.8 6.6-26.2 17.5-33-7.8-9-12.7-20.6-13.2-33.5-.8-21.3 10.8-40.1 28.4-49.6-4.6-5.2-7.6-12-7.8-19.6-.6-17.2 12.8-31.6 30-32.2h2c-1.5-4.9-2.4-10.1-2.6-15.6-.9-25.9 14.5-48.7 37-58.2-1.3-6.1-2.2-12.4-2.4-18.9-2.1-58.3 43.4-107.2 101.7-109.3 58.3-2.1 107.2 43.4 109.3 101.7 2.1 58.3-43.4 107.2-101.7 109.3-5.6.2-11.2 0-16.6-.7l30.4 380.8-263.1 259-874.7-18.4-20.1-106.6c-26-3.1-46.6-24.8-47.5-51.7z" fill="#0095e0"/><path d="M166.6 715.1c-7.5-59.5 34.7-113.8 94.2-121.3 7.6-.9 15-1.1 22.3-.5 4.4-21.1 21.8-38.1 44.5-41 18.7-2.4 36.4 5.6 47.3 19.3 20.7-.7 40.2 6.8 54.9 19.7 4.7-5.3 11.3-9.1 18.9-10 15.6-2 30 8.4 33.2 23.6 6.5-6.7 15.2-11.4 25.1-12.6 10.3-1.3 20.1 1.2 28.2 6.5 8-13.2 21.6-22.7 38.1-24.8 22.2-2.8 42.8 8.8 52.6 27.5 9.9-8.8 22.4-14.8 36.5-16.6 16.8-2.1 32.9 2.2 45.9 10.9 3.7-10.3 12.9-18.3 24.6-19.7 13.9-1.8 26.8 6.3 31.8 18.9 8.1-9.8 19.9-16.7 33.5-18.4 9-1.1 17.7.1 25.5 3.2 6.8-17 22.4-29.9 41.9-32.4 6.6-.8 13.1-.4 19.1 1.2 11.7-22.8 31.3-41.2 55.7-51.1-2.1-3.7-3.5-7.8-4-12.3-1.8-14.7 6-28.3 18.5-34.6-10.2-8.2-17.4-20.1-19.1-34.1-2.4-18.9 5.7-36.7 19.8-47.6-14.3-.7-26.5-11.6-28.3-26.3-1.4-11.4 3.7-22 12.4-28.3-5.8-4.7-10-11.6-11-19.7-2.1-16.5 9.6-31.6 26.1-33.6 3.5-.4 6.9-.2 10.1.5-3.3-5.8-5.5-12.3-6.4-19.3-3.1-24.8 11.5-47.8 34-56.1a56 56 0 01-1.2-5.9c-2.9-23.1 13.5-44.1 36.5-47 23.1-2.9 44.1 13.5 47 36.5.6 4.9.4 9.7-.6 14.2l128.8 33.6-44.9 522.1-890.3 102 3-31.3c-52.4-1.8-97.4-41.5-104.2-95.2z" fill="#33a0e2"/><path d="M202.6 719.2c-3.3-24.7 14-47.5 38.7-50.8 10.1-1.4 19.8.7 28.1 5.3 13.5-14.8 32-25.2 53.4-28.1 28.9-3.9 56.4 6.7 75.3 26.2 12.9-12 29.4-20.3 48.2-22.9 3.1-.4 6.2-.7 9.2-.8.4-12.4 9.7-23.2 22.4-24.9 9.1-1.2 17.7 2.4 23.2 8.9 7-8.9 17.4-15.3 29.5-16.9 10.6-1.4 20.9.9 29.4 6.1 6.8-7.2 16.1-12.3 26.7-13.7 23.6-3.2 45.4 12.5 50.2 35.4.9-.6 1.9-1.2 2.8-1.7 10.3-5.6 21.8-6.7 32.4-4.1 0-15.4 11.4-28.8 27.1-30.9 8.6-1.2 16.8 1.3 23.1 6.1 6.7-6.7 15.6-11.4 25.8-12.7 18.9-2.6 36.7 7 45.5 22.7 6.1-3.9 13.1-6.6 20.8-7.7 6-.8 11.8-.5 17.4.6 6.3-29.7 30.6-53.6 62.3-57.9 11.6-1.6 22.9-.3 33.3 3.1-.2-12.4 8.8-23.3 21.4-25 1.3-.2 2.6-.2 4-.2 4.2-11.2 14.2-19.8 26.9-21.5 2.7-.4 5.4-.4 8-.1.1-15.7 8.4-29.9 21.3-37.9-6.3-13-5.7-27.8.4-39.9-3.7-2.8-6.3-7-7-11.9-1.1-8.3 3.6-16.1 11-19.1-5.6-4.8-9.5-11.6-10.5-19.4-1.6-11.4 3.3-22.3 11.8-28.9-7.2-6.8-12.3-16.1-13.7-26.7-2.4-17.6 5.7-34.2 19.5-43.5-4.3-4-7.3-9.4-8.1-15.6-1.9-14.2 8-27.3 22.2-29.2.6-.1 1.1-.1 1.7-.1-1.7-4-2.8-8.2-3.4-12.7-2.9-21.5 8.1-41.6 26-51.4-1.6-5-2.8-10.1-3.6-15.5-6.5-48.2 27.3-92.6 75.5-99.1s92.6 27.3 99.1 75.5-27.3 92.6-75.5 99.1c-4.7.6-9.3.9-13.8.8l56.5 313.8-197.2 236.7-728.1 56.5-25.5-86.9c-21.8-.5-40.7-16.8-43.7-39.1z" fill="#3288d6"/><path class="st11" d="M740 363.9c3.6-8 7.6-15.7 12.1-23.2 4.7-7.7 10-16 11-24.7l19 15.7c.2.1.4.3.6.5 5 5.5-11.8 29-37.6 52.4-2.4 2.2-4.7 4.2-7.1 6.2-1.3-2.9-2.3-5.8-2.5-9-.4-6.2 1.9-12.2 4.5-17.9z"/><path class="st12" d="M689.4 417.1c-.2-.2-.3-.4-.4-.7l-54-79.7 72.8-66.3 55.3 45.6c-.9 8.7-6.3 17-11 24.7-4.5 7.5-8.6 15.2-12.1 23.2-2.5 5.7-4.9 11.7-4.4 17.9.2 3.2 1.2 6.2 2.5 9-23.1 19.8-44.1 31.3-48.7 26.3z"/><linearGradient id="SVGID_10_" gradientUnits="userSpaceOnUse" x1="591.015" y1="211.355" x2="871.757" y2="211.355"><stop offset="0" stop-color="#1d1b4e"/><stop offset=".388" stop-color="#1d1d50" stop-opacity=".631"/><stop offset=".528" stop-color="#1c2455" stop-opacity=".498"/><stop offset=".628" stop-color="#1a2f5f" stop-opacity=".403"/><stop offset=".708" stop-color="#18406e" stop-opacity=".326"/><stop offset=".777" stop-color="#155680" stop-opacity=".261"/><stop offset=".838" stop-color="#127297" stop-opacity=".203"/><stop offset=".894" stop-color="#0d92b3" stop-opacity=".15"/><stop offset=".945" stop-color="#09b8d3" stop-opacity=".102"/><stop offset=".99" stop-color="#03e1f5" stop-opacity=".059"/><stop offset=".999" stop-color="#02eafd" stop-opacity=".05"/></linearGradient><path d="M638.1 115.7c32.8 40.3 67.4 79.4 109.5 109.4 16.9 12 35 22.6 54.9 28.6 13.8 4.2 28.5 6 42.8 4.5l26.5 31c-22.1 20.1-53.4 23.6-75.8 8.4L591 158.5l47.1-42.8z" fill="url(#SVGID_10_)"/><linearGradient id="SVGID_11_" gradientUnits="userSpaceOnUse" x1="638.055" y1="177.619" x2="845.299" y2="177.619"><stop offset="0" stop-color="#02eafd"/><stop offset=".001" stop-color="#02eafd"/><stop offset=".374" stop-color="#04e8fc" stop-opacity=".664"/><stop offset=".508" stop-color="#0be3f7" stop-opacity=".543"/><stop offset=".604" stop-color="#16d9ef" stop-opacity=".457"/><stop offset=".681" stop-color="#27cbe3" stop-opacity=".387"/><stop offset=".748" stop-color="#3db9d4" stop-opacity=".327"/><stop offset=".807" stop-color="#59a3c1" stop-opacity=".274"/><stop offset=".86" stop-color="#7989ab" stop-opacity=".226"/><stop offset=".908" stop-color="#9f6a91" stop-opacity=".182"/><stop offset=".954" stop-color="#ca4673" stop-opacity=".141"/><stop offset=".994" stop-color="#f82153" stop-opacity=".105"/><stop offset="1" stop-color="#ff1b4e" stop-opacity=".1"/></linearGradient><path d="M802.5 253.8c-19.8-6-38-16.6-54.9-28.6-42.2-30.1-76.7-69.1-109.5-109.4l3.5-3.1c24.6-22.4 61.2-21.2 81.3 2.4l122.4 143.3c-14.3 1.3-29-.5-42.8-4.6z" fill="url(#SVGID_11_)"/><linearGradient id="SVGID_12_" gradientUnits="userSpaceOnUse" x1="649.583" y1="314.696" x2="464.828" y2="314.696"><stop offset="0" stop-color="#ff1b4e" stop-opacity=".1"/><stop offset=".006" stop-color="#f82153" stop-opacity=".105"/><stop offset=".046" stop-color="#ca4673" stop-opacity=".141"/><stop offset=".092" stop-color="#9f6a91" stop-opacity=".182"/><stop offset=".14" stop-color="#7989ab" stop-opacity=".226"/><stop offset=".193" stop-color="#59a3c1" stop-opacity=".274"/><stop offset=".252" stop-color="#3db9d4" stop-opacity=".327"/><stop offset=".319" stop-color="#27cbe3" stop-opacity=".387"/><stop offset=".396" stop-color="#16d9ef" stop-opacity=".457"/><stop offset=".492" stop-color="#0be3f7" stop-opacity=".543"/><stop offset=".626" stop-color="#04e8fc" stop-opacity=".664"/><stop offset=".999" stop-color="#02eafd"/><stop offset="1" stop-color="#02eafd"/></linearGradient><path d="M528.4 350.3l-63.6-60c2.2-12.6 8.6-24.8 19.2-34.5l50.5-45.9 115 209.6c-18.1-.8-36.3-6.6-52.4-15.1-25.8-13.7-47.4-34-68.7-54.1z" fill="url(#SVGID_12_)"/><linearGradient id="SVGID_13_" gradientUnits="userSpaceOnUse" x1="463.976" y1="395.992" x2="660.375" y2="395.992"><stop offset="0" stop-color="#1d1b4e"/><stop offset=".388" stop-color="#1d1d50" stop-opacity=".631"/><stop offset=".528" stop-color="#1c2455" stop-opacity=".498"/><stop offset=".628" stop-color="#1a2f5f" stop-opacity=".403"/><stop offset=".708" stop-color="#18406e" stop-opacity=".326"/><stop offset=".777" stop-color="#155680" stop-opacity=".261"/><stop offset=".838" stop-color="#127297" stop-opacity=".203"/><stop offset=".894" stop-color="#0d92b3" stop-opacity=".15"/><stop offset=".945" stop-color="#09b8d3" stop-opacity=".102"/><stop offset=".99" stop-color="#03e1f5" stop-opacity=".059"/><stop offset=".999" stop-color="#02eafd" stop-opacity=".05"/></linearGradient><path d="M464.8 290.3l63.6 60c21.3 20.1 42.9 40.4 68.7 54.1 16.1 8.5 34.3 14.3 52.4 15.1l4.1 7.5c13 23.8 6.6 54.6-15.5 74.7L478.8 337c-12.3-12.7-16.9-30-14-46.7z" fill="url(#SVGID_13_)"/><path class="st17" d="M650.2 370.1c-4 1.8-7.7 3.2-11.1 4.2 3.4-1 7.1-2.4 11.1-4.2zM671.8 357.7zM662.8 363.5c-2.9 1.7-5.8 3.3-8.6 4.7 2.8-1.4 5.7-3 8.6-4.7z"/><path class="st11" d="M717.7 317.8c15.9-17.5 26.6-34.4 29-46l12 16c4.5 5.8-.1 18.7-11 34-4.8-1.8-9.7-3-14.8-3.5-5-.6-10.1-.5-15.2-.5z"/><path class="st12" d="M650.2 370.1c1.3-.6 2.7-1.3 4.1-2 2.8-1.4 5.6-3 8.6-4.7 2.9-1.7 5.9-3.6 9-5.7 9.2-6.2 18.9-13.8 28.4-22.5 6.3-5.8 12.2-11.6 17.5-17.4 5.1 0 10.2-.1 15.3.4 5.1.5 10 1.8 14.8 3.5-7.4 10.4-17.6 21.9-29.8 33-30.1 27.4-61.5 42.8-70.5 34.3l-14.8-13.5c2-.2 4.1-.7 6.4-1.3 3.3-.9 7-2.3 11-4.1z"/><path d="M697 316.4c-13.9-3.1-25.6-12.4-36.6-21.5-70.5-58.7-135.8-123.6-195-193.7 4.1-3.3 8.2-6.8 12.3-10.5 22.1-20.1 38.6-42.4 47.7-61.2 49.4 31.1 90.9 69 122.1 110.4l99.3 131.9c-2.5 11.6-13.1 28.5-29 46-7.1.1-14 .1-20.8-1.4z" fill="#f0f1f1"/><path d="M412.3 132.4c15.9-5.9 34.7-16.5 53.1-31.2 59.1 70.1 124.4 135.1 195 193.7 11 9.1 22.6 18.4 36.6 21.5 6.8 1.5 13.7 1.5 20.7 1.4-5.3 5.8-11.1 11.7-17.5 17.4-9.6 8.7-19.2 16.3-28.4 22.5-3.1 2.1-6.1 4-9 5.7-2.9 1.7-5.8 3.3-8.6 4.7-1.4.7-2.7 1.4-4.1 2-4 1.8-7.7 3.2-11.1 4.2-2.3.6-4.4 1.1-6.4 1.3l-122-111.3c-38.2-34.9-72-79.8-98.3-131.9z" fill="#d2d3d3"/><path class="st11" d="M465.4 101.2C427.8 56.6 392.7 9.8 360.3-38.7 421.2-24.7 477-.9 525.4 29.5c-9 18.8-25.5 41-47.7 61.2-4 3.7-8.1 7.2-12.3 10.5z"/><path class="st12" d="M412.3 132.4C386.5 81.3 368 23.3 359.9-38.8c.1 0 .3.1.4.1 32.4 48.5 67.5 95.2 105.1 139.8-18.4 14.7-37.1 25.4-53.1 31.3z"/><path d="M488.4 183.1c1.6-15.7 8.8-30.9 21.4-42.3 27.1-24.7 69.2-22.7 93.9 4.4 9.3 10.2 14.8 22.5 16.6 35.2 3 21.1-4.1 43.3-21 58.7-27.1 24.7-69.2 22.7-93.9-4.4-13.3-14.6-18.9-33.5-17-51.6z" opacity=".21"/><g><path class="st11" d="M544.5 199.8c-22.8-3.5-43.3-16.9-58.6-34.3 1.6-15.7 8.8-30.9 21.4-42.3 27.1-24.7 69.2-22.7 93.9 4.4 9.3 10.2 14.8 22.5 16.6 35.2-2.5 4.9-5.3 9.6-8.7 13.9-14.9 18.7-40.9 26.8-64.6 23.1z"/><path class="st12" d="M485.9 165.6c15.3 17.4 35.8 30.7 58.6 34.3 23.7 3.7 49.6-4.4 64.5-23.1 3.4-4.3 6.2-9 8.7-13.9 3 21.1-4.1 43.3-21 58.7-27.1 24.7-69.2 22.7-93.9-4.4-13.2-14.7-18.7-33.5-16.9-51.6z"/></g><g><path class="st21" d="M508.6 144l86.6-.3c2 3 3.6 6.1 4.9 9.4l-96.3.3c1.3-3.3 2.9-6.4 4.8-9.4z"/><path class="st22" d="M503.8 153.4l96.3-.3c1.8 4.4 2.9 9 3.4 13.7l-103 .3c.5-4.7 1.6-9.3 3.3-13.7zM517.1 134c21.2-19.3 53.9-17.7 73.2 3.5 1.8 2 3.4 4.1 4.9 6.3l-86.6.3c2.4-3.7 5.2-7 8.5-10.1z"/><path class="st21" d="M523.1 215.3l58.1-.2c-17.6 12.1-40.7 12-58.1.2z"/><path class="st22" d="M513.7 207.2c-3.9-4.3-7-9.1-9.2-14.1l95.1-.3c-2.8 6.6-7.1 12.7-12.7 17.9-1.8 1.6-3.7 3.1-5.7 4.5l-58.1.2c-3.4-2.3-6.6-5-9.4-8.2z"/><path class="st21" d="M500.5 167.1l103-.3c.9 8.8-.4 17.8-3.9 26l-95.1.3c-3.6-8.3-4.9-17.3-4-26z"/></g><linearGradient id="SVGID_14_" gradientUnits="userSpaceOnUse" x1="197.434" y1="500.725" x2="237.333" y2="500.725"><stop offset="0" stop-color="#1d1b4e"/><stop offset=".999" stop-color="#61eafd"/></linearGradient><circle cx="217.4" cy="500.7" r="19.9" fill="url(#SVGID_14_)"/><linearGradient id="SVGID_15_" gradientUnits="userSpaceOnUse" x1="263.497" y1="450.227" x2="277.9" y2="450.227"><stop offset="0" stop-color="#1d1b4e"/><stop offset=".999" stop-color="#61eafd"/></linearGradient><circle cx="270.7" cy="450.2" r="7.2" fill="url(#SVGID_15_)"/><linearGradient id="SVGID_16_" gradientUnits="userSpaceOnUse" x1="871.509" y1="108.876" x2="894.553" y2="108.876"><stop offset="0" stop-color="#1d1b4e"/><stop offset=".999" stop-color="#61eafd"/></linearGradient><circle cx="883" cy="108.9" r="11.5" fill="url(#SVGID_16_)"/><linearGradient id="SVGID_17_" gradientUnits="userSpaceOnUse" x1="974.438" y1="-43.926" x2="1010.813" y2="-43.926"><stop offset="0" stop-color="#1d1b4e"/><stop offset=".999" stop-color="#61eafd"/></linearGradient><circle cx="992.6" cy="-43.9" r="18.2" fill="url(#SVGID_17_)"/><linearGradient id="SVGID_18_" gradientUnits="userSpaceOnUse" x1="439.995" y1="470.387" x2="393.507" y2="497.227"><stop offset="0" stop-color="#1d1b4e"/><stop offset=".999" stop-color="#02eafd"/></linearGradient><circle cx="416.8" cy="483.8" r="26.8" fill="url(#SVGID_18_)"/><linearGradient id="SVGID_19_" gradientUnits="userSpaceOnUse" x1="128.862" y1="647.977" x2="91.153" y2="669.748"><stop offset="0" stop-color="#1d1b4e"/><stop offset=".999" stop-color="#02eafd"/></linearGradient><circle cx="110" cy="658.9" r="21.8" fill="url(#SVGID_19_)"/><linearGradient id="SVGID_20_" gradientUnits="userSpaceOnUse" x1="840.229" y1="397.228" x2="818.408" y2="409.826"><stop offset="0" stop-color="#1d1b4e"/><stop offset=".999" stop-color="#02eafd"/></linearGradient><circle cx="829.3" cy="403.5" r="12.6" fill="url(#SVGID_20_)"/><linearGradient id="SVGID_21_" gradientUnits="userSpaceOnUse" x1="653.333" y1="467.313" x2="641" y2="474.434"><stop offset="0" stop-color="#1d1b4e"/><stop offset=".999" stop-color="#02eafd"/></linearGradient><circle cx="647.2" cy="470.9" r="7.1" fill="url(#SVGID_21_)"/><linearGradient id="SVGID_22_" gradientUnits="userSpaceOnUse" x1="844.896" y1="335.752" x2="832.563" y2="342.873"><stop offset="0" stop-color="#1d1b4e"/><stop offset=".999" stop-color="#02eafd"/></linearGradient><circle cx="838.7" cy="339.3" r="7.1" fill="url(#SVGID_22_)"/><circle class="st32" cx="1004.1" cy="80.9" r="19.7"/><circle class="st32" cx="969.9" cy="268.5" r="8.2"/><circle class="st32" cx="299" cy="594.8" r="19.7"/><circle class="st32" cx="166.8" cy="532.4" r="7.1"/><circle class="st32" cx="264.8" cy="618.2" r="8.9"/><circle class="st32" cx="908.2" cy="458.7" r="27.4"/><circle class="st32" cx="798.3" cy="562.3" r="12"/><circle class="st32" cx="726.3" cy="548.4" r="9.3"/><path class="st17" d="M-236.5-158.4h1292.4v806.5H-236.5z"/></svg>