<?xml version="1.0" encoding="utf-8"?>
<!-- Generator: Adobe Illustrator 19.0.0, SVG Export Plug-In . SVG Version: 6.00 Build 0)  -->
<svg version="1.1" id="Layer_1" xmlns="http://www.w3.org/2000/svg" xmlns:xlink="http://www.w3.org/1999/xlink" x="0px" y="0px"
	 viewBox="-39 108.4 879.1 344.6" style="enable-background:new -39 108.4 879.1 344.6;" xml:space="preserve">
<style type="text/css">
	.st0{fill:#0C4B5C;}
	.st1{fill:#FFEECF;}
	.st2{fill:#08C7B6;}
	.st3{fill:#FF3755;}
	.st4{fill:#3696B1;}
	.st5{fill:#D0001F;}
	.st6{fill:#03554D;}
	.st7{fill:#03495C;}
	.st8{fill:#1DF6E2;}
	.st9{fill:#FF2646;}
	.st10{fill:#03443E;}
	.st11{fill:#09E8D3;}
	.st12{fill:#05867A;}
	.st13{fill:#07A698;}
	.st14{fill:#2DF7E4;}
	.st15{fill:#04655C;}
	.st16{fill:#7FFAEF;}
	.st17{fill:#4EF8E8;}
</style>
<g id="XMLID_270_">
	<g id="XMLID_596_">
		<path id="XMLID_597_" class="st0" d="M400.3,441.3c-9,0-54.5-0.9-66.2-17.8c-2.5-3.6-2.5-8.5-0.2-12.3
			c-8.6-5.8-10.4-12.2-10.4-16.7v-0.9l18.3-29.6v-12.8l-11-8.8v-17h-23.5v54.4h-338V229.7h338v56.5h23.5v-20.4v-3.2l15.4-12.3
			c-16.9-9.1-25.8-22.3-25.8-38.4c0-14.4,22-26.2,56.1-30.3l13.8-29.1v-32.3c0-4.1,4.3-7,10.4-7c6.1,0,10.4,2.9,10.4,7v32.7
			l13.6,28.7c34,4.1,55.9,15.9,55.9,30.2c0,16-8.9,29.3-25.7,38.4l15.5,12.4l-0.1,3.1v20.5h23.5v-56.5h338v150.2h-338v-54.4h-23.4
			v17l-11.5,9.2v12.4l18.3,29.4v0.9c0,6.4-3.5,12-10.5,16.7c2.4,3.8,2.3,8.7-0.2,12.4C455,440.4,409.4,441.3,400.3,441.3
			L400.3,441.3z M493.9,313.9v-16.2h-23.5v16.2H493.9z M330.8,313.9v-16.2h-23.5v16.2H330.8z M400.6,180.2c4,0,8,0.1,11.9,0.3
			l-11.4-24h-0.7l-11.4,24C392.8,180.4,396.7,180.2,400.6,180.2z"/>
	</g>
	<g id="XMLID_590_">
		<path id="XMLID_591_" class="st1" d="M719.9,231.9v33.3h-2.2V232H608.1v33.2h-2.2V232H496.2v56.5h-28.1v-23.8l0.6-0.5l-17.9-14.4
			c16.3-7.9,27.6-20.4,27.6-37.9c0-13.1-22.1-24.4-55.1-28.1l-14.4-30.3v-3.3v-2v-28c0-6.3-16.2-6.3-16.2,0v27.9v2v2.9l-14.6,30.7
			c-33.1,3.7-55.4,15-55.4,28.1c0,17.6,11.4,30.1,27.7,38l-17.9,14.4l0.6,0.5v23.8H305V232H195.3v33.2h-2.2V232H83.4v33.2h-2.2V232
			H-28.4v145.6H81.3v-33.2h2.2v33.2h109.7v-33.2h2.2v33.2h109.7v-54.4h28.1v18.2l11.1,8.9l0,0v14.4L326,394.3v0.3
			c0,6.1,3.9,11.6,11.3,16.1l-1,1.5c-2.1,3.1-2.2,7.2-0.1,10.2c8.5,12.4,40,16.8,64.3,16.8c0,0,0,0,0.1,0c24.4,0,55.8-4.4,64.4-16.8
			c2.1-3,2-7.1-0.1-10.2l-1-1.5c7.1-4.2,11.4-9.5,11.4-16v-0.3L457,365v-14.2l11.5-9.2v-18.4h28.1v54.4h109.7v-33.2h2.2v33.2h109.7
			v-33.2h2.2v33.2h109.7V231.9H719.9z M496.2,316.2h-28.1v-20.7h28.1V316.2z M398.9,154.2h3.6l13.7,28.9c-10.1-0.8-20.8-0.8-30.9,0
			L398.9,154.2z M305,295.4h28.1v20.8H305V295.4z"/>
	</g>
	<g id="XMLID_588_">
		<path id="XMLID_260_" class="st2" d="M421.7,185.1l15.4,32.5c0.2,0.3,0.2,0.7,0.1,0.9c-0.1,0.3-0.3,0.5-0.5,0.6
			c-0.3,0.1-0.5,0.1-0.8,0.1c-0.3-0.1-0.5-0.3-0.7-0.7l-16-33.7c-10.7-1.1-18.6-1.4-18.6-1.4c10.8,18.2,11.5,37.4,0,57.8
			c0,0,76.1-5.1,76.1-30.4C476.8,194.4,444.2,187.7,421.7,185.1z"/>
	</g>
	<g id="XMLID_586_">
		<path id="XMLID_259_" class="st3" d="M465.5,264.2l-32,25.6h-65.8l-32-25.6l16.8-13.4c5.3,2.4,11.2,4.3,17.2,5.8
			c0.3,5.9,3.7,10.8,9.8,14.2c5.6,3.2,13.1,4.9,21.1,4.9c14.5,0,30.1-6,30.9-19.2c6.1-1.5,11.9-3.4,17.2-5.8L465.5,264.2z"/>
	</g>
	<g id="XMLID_579_">
		<g id="XMLID_584_">
			<path id="XMLID_258_" class="st4" d="M400.6,272.2c-11.6,0-24.5-4.7-27.8-15c-0.3-0.1-0.7-0.2-1.1-0.3
				c1.1,11.5,15.5,16.7,28.8,16.7v-1.4H400.6z"/>
		</g>
		<g id="XMLID_582_">
			<path id="XMLID_257_" class="st4" d="M385.2,267.2c4.6,2.1,10.1,3,15.4,3V260c-8.5,0-17.2-0.8-25.5-2.4
				C376.8,262.1,380.6,265.1,385.2,267.2z"/>
		</g>
		<g id="XMLID_580_">
			<path id="XMLID_256_" class="st4" d="M386.2,240.7c-27.4-1.9-45.4-8.7-56.9-16.9c6.1,26.1,38.1,34.3,71.3,34.3
				C400.6,258.1,387.8,254.4,386.2,240.7z"/>
		</g>
	</g>
	<g id="XMLID_577_">
		<path id="XMLID_255_" class="st5" d="M400.6,274.6H347l-12.8-10.7l17.1-13.9c0,0,8,3,10.1,3.5c2.1,0.5,9.4,2.5,9.4,2.5l0.1,4.4
			c0,0,3,4.9,6.4,7.3c3.4,2.4,11.7,5.3,15,5.9C395.7,274.2,400.6,274.6,400.6,274.6z"/>
	</g>
	<g id="XMLID_575_">
		<rect id="XMLID_254_" x="394.1" y="149.1" class="st4" width="13.1" height="3.7"/>
	</g>
	<g id="XMLID_573_">
		<path id="XMLID_253_" class="st3" d="M406.9,121.3v26.8h-12.2v-26.8C394.7,116.1,406.9,116.1,406.9,121.3z"/>
	</g>
	<g id="XMLID_571_">
		<rect id="XMLID_252_" x="395.8" y="116.7" class="st5" width="5.9" height="32.8"/>
	</g>
	<g id="XMLID_564_">
		<g id="XMLID_569_">
			<polygon id="XMLID_251_" class="st4" points="454.6,352.3 454.6,352.1 454.4,352.3 			"/>
		</g>
		<g id="XMLID_567_">
			<path id="XMLID_250_" class="st4" d="M400.3,422.8c-19.4,0-37.2-2.7-50.7-7.1c-4-1.3-5-1.7-8.2-3l-1.1,1.7
				c-1.7,2.4-1.7,5.6-0.1,7.9c6.6,9.5,29.2,14.7,60.1,14.7l0,0L400.3,422.8L400.3,422.8z"/>
		</g>
		<g id="XMLID_565_">
			<path id="XMLID_249_" class="st4" d="M400.3,388.9v-20.4H367l-19.7-15.7v16.5C347.3,382.8,373.4,388.9,400.3,388.9z"/>
		</g>
	</g>
	<path id="XMLID_527_" class="st6" d="M7.8,344.9v27.5l-3.2,3.2h-28.2l-2.9-2.9v-28.1l3.2-3.2H4.2L7.8,344.9z M4.3,305.4h-27.5
		l-3.2,3.2v28.1l3.2,3.2H4.3l3.5-3.5v-27.5L4.3,305.4z M4.3,269.6h-27.5l-3.2,3.2V301l3.2,3.2H4.3l3.5-3.5v-27.5L4.3,269.6z
		 M4.6,233.9h-28.2l-2.9,2.9V265l3.2,3.2H4.2l3.5-3.5v-27.5L4.6,233.9z"/>
	<path id="XMLID_355_" class="st0" d="M496.2,293.4v-3h-28.1v3H496.2z M496.2,316.2v-20.8h-28.1v20.8H496.2z M496.2,321.2v-3h-28.1
		v3H496.2z M457.1,347.6v-10.3l-4.6,3.9v10L457.1,347.6z M466.1,266.2l-7.7,6.1v12.4l-6,5.1v17.5l7.9-6.7v20.6l-7.9,6.6v11.7l6-5.1
		v12.1l7.7-6.2v-17.2v-7v-20.8v-7V266.2z M451.1,289.2v-11l-4,3.2v11.3L451.1,289.2z M451.1,352.3v-10l-4,3.4v9.7L451.1,352.3z
		 M452,277.6h0.4v10.6l4.6-3.9v-10.7L452,277.6z M445.8,282.6l-11.4,9.1v74.1l11.4-9.1v-11.4l5.3-4.5v-13.5l7.9-6.6v-17l-7.9,6.7
		v-19.2l-5.3,4.5V282.6z M401.3,366.5h31.1v-74.7h-31.2v18.4h14.2v42.1h-14.1V366.5z M404.7,154.2l30.5,64.3
		c0.2,0.3,0.4,0.6,0.7,0.7c0.2,0.1,0.5,0,0.8-0.1s0.5-0.3,0.5-0.6c0.1-0.3,0.1-0.6-0.1-0.9l-30-63.4H404.7z M406.9,121.3
		c0-5.3-12.2-5.3-12.2,0v26.8h12.2V121.3z M394.7,152.2h12.2v-2.1h-12.2V152.2z M385.2,183.1c10.2-0.8,20.8-0.7,30.9,0l-13.6-28.8
		h-3.6L385.2,183.1z M385.2,267.2c4.6,2.1,10.1,3,15.4,3c10.4,0,22-3.9,25.5-12.6c-8.3,1.6-17,2.4-25.5,2.4s-17.2-0.8-25.5-2.4
		C376.8,262.1,380.6,265.1,385.2,267.2z M388,325.5v24.8h25.4v-24.8H388z M388,312.2v11.3h25.4v-11.3H388z M399.9,291.8h-31.6v74.7
		h31.6v-14.2H386v-42.1h13.9V291.8z M400.6,272.2c-11.6,0-24.5-4.7-27.8-15c-0.3-0.1-0.7-0.2-1.1-0.3c1.1,11.5,15.5,16.7,28.9,16.7
		c13.4,0,27.7-5.3,28.8-16.7c-0.3,0.1-0.7,0.2-1.1,0.3c-1.6,5.2-5.7,8.9-10.8,11.4C412.5,271.1,406.4,272.2,400.6,272.2z
		 M366.2,218.6l30.5-64.3h-2.4l-30,63.4c-0.2,0.3-0.2,0.7-0.1,0.9c0.1,0.3,0.3,0.5,0.5,0.6c0.3,0.1,0.5,0.1,0.8,0.1
		C365.8,219.1,366.1,218.9,366.2,218.6z M353.8,345.2l-4-3.4v10.3h-0.1l4,3.2v-10.1H353.8z M349.8,288.6l4,3.4v-10.8l-4-3.2V288.6z
		 M346.1,368.3c0,13.5,27.3,20.6,54.2,20.6c27,0,54.2-7.1,54.2-20.6v-16.1l-20.4,16.3h-67.2L346,351.8L346.1,368.3L346.1,368.3z
		 M349.8,309.6l-7.9-6.7v17l7.9,6.6V340l5.3,4.5v11.8l11.3,9v-74.1l-11.3-9v12.7l-5.3-4.5V309.6z M348.5,276.9l-4.6-3.7v10.3
		l4.6,3.9V276.9z M348.5,340.7l-4.6-4v10.7l4.6,3.7V340.7z M335.1,323.1v17.2l7.4,5.9v-12.5l6,5.1v-11.6l-7.9-6.6v-20.5l7.9,6.7
		v-17.6l-6-5.1v-12l-7.4-5.9v22.2v7v20.8V323.1z M341.4,372.7c1,14.3,30,21.8,58.8,21.8c29,0,58.4-7.6,58.8-22.2l-2.4-3.8
		c-0.3,15.4-29.3,22.4-56.2,22.4c-14.6,0-28.2-1.9-38.3-5.5c-11.7-4.1-17.9-10-17.9-17.1L341.4,372.7z M347.7,392.3
		c-6.1-3.5-9.7-7.7-10.6-12.4l-2.2,3.5c1.4,16.2,33.6,24.7,65.5,24.7c31.9,0,64.2-8.5,65.5-24.9l-2.3-3.7
		c-0.9,4.8-4.5,9.1-10.7,12.7c-12.1,6.9-32.3,10.4-52.6,10.4C380,402.7,359.7,399.2,347.7,392.3z M338.1,378.1
		c0.4,5,3.8,9.4,10.2,13c23.3,13.5,80.5,13.4,103.9,0c6.5-3.8,10-8.2,10.2-13.3l-2.3-3.7c-2.6,14.9-32.3,21.7-60,21.7
		c-15.6,0-30.2-2.1-41.1-5.8c-11-3.8-17.4-9.1-18.8-15.5L338.1,378.1z M338.9,411.4l-1.1,1.7c-1.7,2.4-1.7,5.6-0.1,7.9
		c6.6,9.5,31.7,15.9,62.6,15.9h0.1c31,0,56.2-6.4,62.7-15.9c1.6-2.3,1.5-5.5-0.1-8l-1.1-1.7c-14.4,7.7-38.5,11.4-61.5,11.4
		c-19.4,0-37.5-2.4-50.9-6.9C345.4,414.6,341.9,413.1,338.9,411.4z M333.1,318.2H305v3h28.1V318.2z M333.1,290.4H305v3h28.1V290.4z
		 M305,295.4v20.8h28.1v-20.8H305z M400.6,241.2c-36.1,0-65.8-8.9-74.9-21.3c6.1,26.1,41.6,38.1,74.9,38.1c33.2,0,68.7-12,74.9-38.1
		C466.3,232.4,436.7,241.2,400.6,241.2z M324.8,211.9c0,15.1,34,27.4,75.8,27.4s75.8-12.3,75.8-27.4c0-11.7-21.3-22.3-52.1-26
		l14.6,30.9c0.5,1.1,0.4,2,0.2,2.5c-0.3,0.7-0.8,1.3-1.6,1.6c-0.4,0.2-0.9,0.3-1.3,0.3c-0.3,0-0.6,0-0.9-0.1
		c-0.6-0.2-1.3-0.6-1.9-1.7l-16.2-34.2c-10.8-0.9-22.2-0.9-32.9,0l-16.2,34.2c-0.6,1.3-1.7,1.8-2.8,1.8c-0.5,0-0.9-0.1-1.3-0.3
		c-0.7-0.3-1.3-0.9-1.6-1.6c-0.2-0.5-0.4-1.4,0.1-2.5l14.7-30.9C346.2,189.6,324.8,200.1,324.8,211.9z M331.5,388.6
		c1.6,17.2,35.4,26.2,68.9,26.2c33.4,0,67.2-9,68.9-26.2l-2.3-3.7c-1.6,8.4-10.6,14.5-23,18.5s-28.3,5.9-43.6,5.9
		c-30.5,0-63.2-7.6-66.6-24.3L331.5,388.6z M335.7,264.2l32,25.6h65.8l32-25.6l-16.8-13.4c-5.3,2.4-11.1,4.3-17.2,5.8
		c-0.8,13.2-16.3,19.2-30.9,19.2c-8,0-15.5-1.8-21.1-4.9c-6.1-3.5-9.5-8.4-9.8-14.2c-6.1-1.5-11.9-3.4-17.2-5.8L335.7,264.2z
		 M352.3,409.1c-12.9-4.6-20.3-11-21.9-18.7l-2.6,4.2c0.4,17.2,36.7,26.1,72.6,26.1c35.9,0,72.2-9,72.6-26.1l-2.6-4.2
		c-3.7,17.7-38,25.8-70,25.8C382.1,416.2,365,413.7,352.3,409.1z M303,265.1v-28.2l-2.9-2.9h-28.2l-3.2,3.2v27.5l3.5,3.5h27.5
		L303,265.1z M303,300.9v-5.5v-7v-15.7l-3.2-3.2h-27.5l-3.5,3.5v27.5l3.5,3.5h27.5L303,300.9z M303,336.8v-13.6v-7v-7.6l-3.2-3.2
		h-27.5l-3.5,3.5v27.5l3.5,3.5h27.5L303,336.8z M303,372.7v-28.1l-3.2-3.2h-27.5l-3.5,3.5v27.5l3.2,3.2h28.2L303,372.7z
		 M267.4,344.9l-3.5-3.5h-27.5l-3.5,3.5v27.5l3.2,3.2h28.2l3.2-3.2v-27.5H267.4z M263.9,268.2l3.5-3.5v-27.5l-3.2-3.2H236l-3.2,3.2
		v27.5l3.5,3.5H263.9z M263.9,304.1l3.5-3.5v-27.5l-3.5-3.5h-27.5l-3.5,3.5v27.5l3.5,3.5H263.9z M263.9,340l3.5-3.5V309l-3.5-3.5
		h-27.5l-3.5,3.5v27.5l3.5,3.5H263.9z M199,265.2c1.8,0,3.3,1.3,3.6,3H228l3.5-3.5v-27.5l-3.2-3.2h-28.1l-2.9,2.9v28.2l0.2,0.2h1.5
		L199,265.2L199,265.2z M202.6,269.6c-0.3,1.7-1.8,2.9-3.6,2.9h-1.5l-0.3,0.3V301l0.2,0.2h1.5c1.8,0,3.3,1.3,3.6,3h25.4l3.5-3.5
		v-27.5l-3.5-3.5h-25.3L202.6,269.6L202.6,269.6z M202.6,341.3c-0.3,1.7-1.8,3-3.6,3h-1.5l-0.2,0.2v28.1l2.9,2.9h28.1l3.2-3.2v-27.5
		l-3.5-3.5H202.6z M202.6,305.4c-0.3,1.7-1.8,3-3.6,3h-1.5l-0.2,0.2v28.1l0.3,0.3h1.5c1.8,0,3.2,1.3,3.6,2.9h25.4l3.5-3.5v-27.5
		l-3.5-3.5H202.6z M195.3,301.1v-28.7h-2.1v28.7H195.3z M195.3,337.1v-28.7h-2.1v28.7H195.3z M188.3,375.6l2.9-2.9v-28.1l-0.2-0.2
		h-1.8c-1.8,0-3.3-1.3-3.6-3h-25.1l-3.6,3.5v27.5l3.2,3.2H188.3z M185.6,340c0.3-1.7,1.8-2.9,3.6-2.9h1.7l0.3-0.3v-28.1l-0.2-0.2
		h-1.7c-1.8,0-3.3-1.3-3.6-3h-25.1L157,309v27.5l3.6,3.5H185.6z M185.6,304.1c0.3-1.7,1.8-3,3.6-3h1.7l0.2-0.2v-28.2l-0.3-0.3h-1.7
		c-1.8,0-3.3-1.3-3.6-2.9h-25.1l-3.6,3.5v27.5l3.6,3.5h25.2L185.6,304.1L185.6,304.1z M185.6,268.2c0.3-1.7,1.8-3,3.6-3h1.8l0.2-0.2
		v-28.2l-2.9-2.9h-28.1l-3.2,3.2v27.5l3.6,3.5L185.6,268.2L185.6,268.2z M199,339h-9.9c-0.9,0-1.7,0.7-1.7,1.6s0.8,1.6,1.7,1.6h9.9
		c0.9,0,1.6-0.7,1.6-1.6C200.7,339.8,199.9,339,199,339z M199,303.1h-9.9c-0.9,0-1.7,0.7-1.7,1.6s0.8,1.6,1.7,1.6h9.9
		c0.9,0,1.6-0.7,1.6-1.6C200.7,303.8,199.9,303.1,199,303.1z M199,267.2h-9.9c-0.9,0-1.7,0.7-1.7,1.6s0.8,1.6,1.7,1.6h9.9
		c0.9,0,1.6-0.7,1.6-1.6C200.7,267.9,199.9,267.2,199,267.2z M155.6,264.6v-27.5l-3.2-3.2h-28.2l-3.2,3.2v27.5l3.5,3.5H152
		L155.6,264.6z M155.6,300.5V273l-3.5-3.5h-27.5l-3.5,3.5v27.5l3.5,3.5h27.5L155.6,300.5z M155.6,336.5V309l-3.5-3.5h-27.5l-3.5,3.5
		v27.5l3.5,3.5h27.5L155.6,336.5z M155.6,372.3v-27.5l-3.5-3.5h-27.5l-3.5,3.5v27.5l3.2,3.2h28.1L155.6,372.3z M116.5,233.9H88.4
		l-2.9,2.9V265l0.2,0.2h1.8c1.8,0,3.3,1.3,3.6,3h25.1l3.6-3.5v-27.5L116.5,233.9z M85.4,344.5v28.1l2.9,2.9h28.1l3.2-3.2v-27.5
		l-3.6-3.5H90.9c-0.3,1.7-1.8,3-3.6,3h-1.8L85.4,344.5z M85.4,308.6v28.1l0.3,0.3h1.8c1.8,0,3.2,1.3,3.6,2.9h25.1l3.6-3.5v-27.5
		l-3.6-3.5H91.1c-0.3,1.7-1.8,3-3.6,3h-1.8L85.4,308.6z M85.4,272.7v28.2l0.2,0.2h1.8c1.8,0,3.3,1.3,3.6,3h25.1l3.6-3.5v-27.5
		l-3.6-3.5H91c-0.3,1.7-1.8,2.9-3.6,2.9h-1.8L85.4,272.7z M81.3,308.4v28.7h2.1v-28.7H81.3z M81.3,272.6v28.7h2.1v-28.7H81.3z
		 M87.4,303.1h-9.9c-0.9,0-1.7,0.7-1.7,1.6s0.8,1.6,1.7,1.6h9.9c0.9,0,1.6-0.7,1.6-1.6C89.1,303.8,88.3,303.1,87.4,303.1z M87.4,339
		h-9.9c-0.9,0-1.7,0.7-1.7,1.6s0.8,1.6,1.7,1.6h9.9c0.9,0,1.6-0.7,1.6-1.6C89.1,339.8,88.3,339,87.4,339z M77.6,270.6h9.9
		c0.9,0,1.6-0.7,1.6-1.6s-0.8-1.6-1.6-1.6h-9.9c-0.9,0-1.7,0.7-1.7,1.6C75.9,269.7,76.7,270.6,77.6,270.6z M43.7,264.6v-27.5
		l-3.2-3.2H12.3l-3.2,3.2v27.5l3.5,3.5h27.5L43.7,264.6z M43.7,300.5V273l-3.5-3.5H12.7L9.2,273v27.5l3.5,3.5h27.5L43.7,300.5z
		 M43.7,336.5V309l-3.5-3.5H12.7L9.2,309v27.5l3.5,3.5h27.5L43.7,336.5z M43.7,372.3v-27.5l-3.5-3.5H12.7l-3.5,3.5v27.5l3.2,3.2
		h28.2L43.7,372.3z M76.4,233.9H48.3l-3.2,3.2v27.5l3.5,3.5H74c0.3-1.7,1.8-3,3.6-3h1.5l0.2-0.2v-28.2L76.4,233.9z M74,341.3H48.6
		l-3.5,3.5v27.5l3.2,3.2h28.1l2.9-2.9v-28.1l-0.2-0.2h-1.5C75.8,344.3,74.3,343,74,341.3z M74,305.4H48.6l-3.5,3.5v27.5l3.5,3.5H74
		c0.3-1.7,1.8-2.9,3.6-2.9H79l0.3-0.3v-28.1l-0.2-0.2h-1.5C75.8,308.4,74.3,307.1,74,305.4z M74,269.6H48.6l-3.5,3.5v27.5l3.5,3.5
		H74c0.3-1.7,1.8-3,3.6-3h1.5l0.2-0.2v-28.2l-0.3-0.3h-1.4C75.8,272.6,74.3,271.2,74,269.6z M4.3,304.1l3.5-3.5v-27.5l-3.5-3.5
		h-27.5l-3.2,3.2V301l3.2,3.2H4.3V304.1z M4.3,340l3.5-3.5V309l-3.5-3.5h-27.5l-3.2,3.2v28.1l3.2,3.2L4.3,340L4.3,340z M7.8,237.1
		l-3.2-3.2h-28.2l-2.9,2.9V265l3.2,3.2H4.2l3.5-3.5L7.8,237.1L7.8,237.1z M4.6,375.6l3.2-3.2v-27.5l-3.5-3.5h-27.5l-3.2,3.2v28.1
		l2.9,2.9H4.6z M532.4,264.6v-27.5l-3.2-3.2H501l-2.9,2.9V265l3.2,3.2h27.5L532.4,264.6z M532.4,300.5V273l-3.5-3.5h-27.5l-3.2,3.2
		v15.7v7v5.5l3.2,3.2h27.5L532.4,300.5z M532.4,336.5V309l-3.5-3.5h-27.5l-3.2,3.2v7.6v7v13.6l3.2,3.2h27.5L532.4,336.5z
		 M532.4,372.3v-27.5l-3.5-3.5h-27.5l-3.2,3.2v28.1l2.9,2.9h28.2L532.4,372.3z M568.3,344.9l-3.5-3.5h-27.5l-3.6,3.5v27.5l3.2,3.2
		H565l3.2-3.2L568.3,344.9L568.3,344.9z M564.8,268.2l3.5-3.5v-27.5l-3.2-3.2H537l-3.2,3.2v27.5l3.6,3.5H564.8z M564.8,304.1
		l3.5-3.5v-27.5l-3.5-3.5h-27.5l-3.6,3.5v27.5l3.6,3.5H564.8z M564.8,340l3.5-3.5V309l-3.5-3.5h-27.5l-3.6,3.5v27.5l3.6,3.5H564.8z
		 M644.3,264.6v-27.5l-3.2-3.2h-28.2l-2.9,2.9V265l0.2,0.2h1.8c1.8,0,3.3,1.3,3.6,3h25.1L644.3,264.6z M644.3,300.5V273l-3.5-3.5
		h-25.1c-0.3,1.7-1.8,2.9-3.6,2.9h-1.7l-0.3,0.3v28.2l0.3,0.2h1.7c1.8,0,3.3,1.3,3.6,3h25.1L644.3,300.5z M644.3,336.5V309l-3.5-3.5
		h-25.1c-0.3,1.7-1.8,3-3.6,3h-1.7l-0.3,0.2v28.1l0.3,0.3h1.7c1.8,0,3.3,1.3,3.6,2.9h25.1L644.3,336.5z M644.3,372.3v-27.5l-3.5-3.5
		h-25.1c-0.3,1.7-1.8,3-3.6,3h-1.8l-0.2,0.2v28.1l2.9,2.9h28.2L644.3,372.3z M649.2,341.3l-3.5,3.5v27.5l3.2,3.2h28.2l3.2-3.2v-27.5
		l-3.5-3.5H649.2z M645.6,273.1v27.5l3.5,3.5h27.5l3.5-3.5v-27.5l-3.5-3.5h-27.5L645.6,273.1z M649.2,305.4l-3.5,3.5v27.5l3.5,3.5
		h27.5l3.5-3.5v-27.5l-3.5-3.5H649.2z M645.6,237.1v27.5l3.5,3.5h27.5l3.5-3.5v-27.5l-3.2-3.2h-28.2L645.6,237.1z M792.1,264.6
		v-27.5l-3.2-3.2h-28.2l-3.2,3.2v27.5l3.5,3.5h27.5L792.1,264.6z M792.1,300.5V273l-3.5-3.5h-27.5l-3.5,3.5v27.5l3.5,3.5h27.5
		L792.1,300.5z M792.1,336.5V309l-3.5-3.5h-27.5l-3.5,3.5v27.5l3.5,3.5h27.5L792.1,336.5z M792.1,372.3v-27.5l-3.5-3.5h-27.5
		l-3.5,3.5v27.5l3.2,3.2H789L792.1,372.3z M603.9,265.1v-28.2L601,234h-28.1l-3.2,3.2v27.5l3.5,3.5h25.4c0.3-1.7,1.8-3,3.6-3h1.5
		L603.9,265.1z M603.9,300.9v-28.2l-0.3-0.3h-1.5c-1.8,0-3.2-1.3-3.6-2.9h-25.4l-3.5,3.5v27.5l3.5,3.5h25.4c0.3-1.7,1.8-3,3.6-3h1.5
		L603.9,300.9z M603.9,336.8v-28.1l-0.2-0.2h-1.5c-1.8,0-3.3-1.3-3.6-3h-25.4l-3.5,3.5v27.5l3.5,3.5h25.4c0.3-1.7,1.8-2.9,3.6-2.9
		h1.5L603.9,336.8z M827.6,265.1v-28.2l-2.9-2.9h-28.1l-3.2,3.2v27.5l3.6,3.5h27.4L827.6,265.1z M827.6,300.9v-28.2l-3.2-3.2h-27.5
		l-3.6,3.5v27.5l3.6,3.5h27.5L827.6,300.9z M827.6,336.8v-28.1l-3.2-3.2h-27.5l-3.6,3.5v27.5l3.6,3.5h27.5L827.6,336.8z
		 M827.6,372.7v-28.1l-3.2-3.2h-27.5l-3.6,3.5v27.5l3.2,3.2h28.1L827.6,372.7z M715.8,265.1v-28.2l-2.9-2.9h-28.1l-3.2,3.2v27.5
		l3.5,3.5h25.1c0.3-1.7,1.8-3,3.6-3h1.8L715.8,265.1z M715.8,300.9v-28.2l-0.3-0.3h-1.8c-1.8,0-3.2-1.3-3.6-2.9H685l-3.5,3.5v27.5
		l3.5,3.5h25.1c0.3-1.7,1.8-3,3.6-3h1.8L715.8,300.9z M715.8,336.8v-28.1l-0.2-0.2h-1.8c-1.8,0-3.3-1.3-3.6-3h-25.1l-3.5,3.5v27.5
		l3.5,3.5h25.1c0.3-1.7,1.8-2.9,3.6-2.9h1.8L715.8,336.8z M715.8,372.7v-28.1l-0.2-0.2h-1.8c-1.8,0-3.3-1.3-3.6-3h-25.1l-3.5,3.5
		v27.5l3.2,3.2h28.1L715.8,372.7z M717.8,272.6v28.7h2.1v-28.7H717.8z M719.9,308.4h-2.1v28.7h2.1V308.4z M723.6,306.4
		c0.9,0,1.7-0.7,1.7-1.6s-0.8-1.6-1.7-1.6h-9.9c-0.9,0-1.6,0.7-1.6,1.6s0.7,1.6,1.6,1.6H723.6z M725.3,268.8c0-0.9-0.8-1.6-1.7-1.6
		h-9.9c-0.9,0-1.6,0.7-1.6,1.6s0.7,1.6,1.6,1.6h9.9C724.5,270.6,725.3,269.7,725.3,268.8z M723.6,342.3c0.9,0,1.7-0.7,1.7-1.6
		s-0.8-1.6-1.7-1.6h-9.9c-0.9,0-1.6,0.7-1.6,1.6s0.7,1.6,1.6,1.6H723.6z M752.6,341.3h-25.4c-0.3,1.7-1.8,3-3.6,3h-1.5l-0.2,0.2
		v28.1l2.9,2.9h28.1l3.2-3.2v-27.5L752.6,341.3z M752.6,304.1l3.6-3.5v-27.5l-3.6-3.5h-25.4c-0.3,1.7-1.8,2.9-3.6,2.9h-1.4l-0.3,0.3
		V301l0.2,0.2h1.5c1.8,0,3.3,1.3,3.6,3h25.4V304.1z M752.6,340l3.6-3.5V309l-3.6-3.5h-25.4c-0.3,1.7-1.8,3-3.6,3h-1.5l-0.2,0.2v28.1
		l0.3,0.3h1.4c1.8,0,3.3,1.3,3.6,2.9H752.6z M756.2,237.1l-3.2-3.2h-28.1l-2.9,2.9V265l0.2,0.2h1.5c1.8,0,3.3,1.3,3.6,3h25.4
		l3.6-3.5L756.2,237.1L756.2,237.1z M603.9,372.7v-28.1l-0.2-0.2h-1.5c-1.8,0-3.3-1.3-3.6-3h-25.4l-3.5,3.5v27.5l3.2,3.2H601
		L603.9,372.7z M602.2,342.3h9.9c0.9,0,1.7-0.7,1.7-1.6s-0.8-1.6-1.7-1.6h-9.9c-0.9,0-1.6,0.7-1.6,1.6
		C600.5,341.6,601.3,342.3,602.2,342.3z M608.1,337.1v-28.7h-2.2v28.7H608.1z M602.2,306.4h9.9c0.9,0,1.7-0.7,1.7-1.6
		s-0.8-1.6-1.7-1.6h-9.9c-0.9,0-1.6,0.7-1.6,1.6C600.5,305.7,601.3,306.4,602.2,306.4z M608.1,301.1v-28.7h-2.2v28.7H608.1z
		 M602.2,270.6h9.9c0.9,0,1.7-0.7,1.7-1.6s-0.8-1.6-1.7-1.6h-9.9c-0.9,0-1.6,0.7-1.6,1.6C600.5,269.7,601.3,270.6,602.2,270.6z
		 M608.1,265.2V232h109.7v33.2h2.1V232h109.7v145.6H719.9v-33.2h-2.1v33.2H608.1v-33.2h-2.2v33.2H496.2v-54.3h-28.1v18.2l-11.5,9.2
		v14.2l18.4,29.4v0.3c0,6.5-4.3,11.8-11.4,16l1,1.5c2.1,3.1,2.2,7.2,0.1,10.2c-8.6,12.4-40,16.8-64.4,16.8c0,0,0,0-0.1,0
		c-24.3,0-55.8-4.4-64.3-16.8c-2.1-3-2-7.1,0.1-10.2l1-1.5c-7.5-4.5-11.3-9.9-11.3-16v-0.3l18.3-29.6v-14.4l0,0l-11-8.9v-18.2h-28.1
		v54.4H195.3v-33.3h-2.1v33.2H83.4v-33.2h-2.1v33.2H-28.4V231.9H81.3v33.3h2.1V232h109.7v33.2h2.1V232h109.7v56.5H333v-23.8
		l-0.6-0.5l17.9-14.4c-16.3-7.9-27.6-20.4-27.6-37.9c0-13.2,22.2-24.4,55.4-28.1l14.6-30.7v-2.9v-2v-28c0-6.3,16.2-6.3,16.2,0v27.9
		v2v3.3l14.4,30.3c33,3.7,55.1,15,55.1,28.1c0,17.6-11.4,30.1-27.6,37.9l17.9,14.4l-0.6,0.5v23.8h28.1v-56.5h109.7v33.3L608.1,265.2
		L608.1,265.2z"/>
	<g id="XMLID_352_">
		<path id="XMLID_44_" class="st7" d="M406,154.2l30,63.4c0.2,0.3,0.2,0.7,0.1,0.9c-0.1,0.3-0.3,0.5-0.5,0.6
			c-0.3,0.1-0.5,0.1-0.8,0.1c-0.3-0.1-0.5-0.3-0.7-0.7l-30.5-64.3H406z"/>
	</g>
	<g id="XMLID_350_">
		<path id="XMLID_43_" class="st7" d="M363.7,219.1c-0.3-0.1-0.5-0.3-0.5-0.6c-0.1-0.3-0.1-0.6,0.1-0.9l30-63.4h2.4l-30.5,64.3
			c-0.2,0.3-0.4,0.6-0.7,0.7C364.2,219.2,363.9,219.2,363.7,219.1z"/>
	</g>
	<g id="XMLID_343_">
		<path id="XMLID_344_" class="st8" d="M400.4,420.8c-35.9,0-72.2-9-72.6-26.1l2.6-4.2c1.6,7.6,9,14.1,21.9,18.7
			c12.7,4.6,29.8,7.1,48.1,7.1c32,0,66.4-8.1,69.9-25.8l2.6,4.2C472.6,411.8,436.2,420.8,400.4,420.8z M331.5,388.6
			c1.6,17.2,35.4,26.2,68.9,26.2c33.4,0,67.2-9,68.9-26.2l-2.3-3.7c-1.6,8.4-10.6,14.5-23,18.5s-28.3,5.9-43.6,5.9
			c-30.5,0-63.2-7.6-66.6-24.3L331.5,388.6z M334.8,383.3c1.4,16.2,33.6,24.7,65.5,24.7c31.9,0,64.2-8.5,65.5-24.9l-2.3-3.7
			c-0.9,4.8-4.5,9.1-10.7,12.7c-12.1,6.9-32.3,10.4-52.6,10.4s-40.5-3.5-52.6-10.4c-6.1-3.5-9.7-7.7-10.6-12.4L334.8,383.3z
			 M452.2,391.1c6.5-3.8,10-8.2,10.2-13.3l-2.3-3.7c-2.6,14.9-32.3,21.7-60,21.7c-15.6,0-30.2-2.1-41.1-5.8
			c-11-3.8-17.4-9.1-18.8-15.5l-2.2,3.6c0.4,5,3.8,9.4,10.2,13C371.6,404.6,428.9,404.5,452.2,391.1z M459,372.3l-2.4-3.8
			c-0.3,15.4-29.3,22.4-56.2,22.4c-14.6,0-28.2-1.9-38.3-5.5c-11.7-4.1-17.9-10-17.9-17.1l-2.7,4.4c1,14.3,30,21.8,58.8,21.8
			C429.2,394.5,458.6,386.8,459,372.3z"/>
	</g>
	<g id="XMLID_341_">
		<polygon id="XMLID_37_" class="st3" points="457.1,337.3 457.1,347.6 452.4,351.3 452.4,341.3 		"/>
	</g>
	<g id="XMLID_339_">
		<polygon id="XMLID_36_" class="st3" points="451.1,342.4 451.1,352.3 447.2,355.5 447.2,345.8 		"/>
	</g>
	<g id="XMLID_337_">
		<polygon id="XMLID_35_" class="st3" points="459,303.5 459,320.6 451.1,327.2 451.1,340.6 445.8,345.2 445.8,356.6 434.5,365.7 
			434.5,291.6 445.8,282.6 445.8,295.5 451.1,291 451.1,310.2 		"/>
	</g>
	<g id="XMLID_335_">
		<polygon id="XMLID_34_" class="st3" points="460.3,321.2 460.3,300.6 452.4,307.3 452.4,289.9 458.4,284.7 458.4,272.4 
			466.1,266.2 466.1,288.4 466.1,295.4 466.1,316.2 466.1,323.1 466.1,340.4 458.4,346.5 458.4,334.4 452.4,339.5 452.4,327.8 		"/>
	</g>
	<g id="XMLID_333_">
		<polygon id="XMLID_33_" class="st3" points="452,277.6 457.1,273.4 457.1,284.2 452.4,288.1 452.4,277.6 		"/>
	</g>
	<g id="XMLID_331_">
		<polygon id="XMLID_32_" class="st3" points="451.1,278.2 451.1,289.2 447.2,292.6 447.2,281.4 		"/>
	</g>
	<g id="XMLID_329_">
		<polygon id="XMLID_31_" class="st5" points="353.8,345.2 353.8,355.3 349.7,352.1 349.8,352.1 349.8,341.8 		"/>
	</g>
	<g id="XMLID_327_">
		<polygon id="XMLID_30_" class="st5" points="348.5,340.7 348.5,351 343.8,347.3 343.8,336.7 		"/>
	</g>
	<g id="XMLID_323_">
		<polygon id="XMLID_28_" class="st5" points="353.8,281.2 353.8,292 349.8,288.6 349.8,278.1 		"/>
	</g>
	<g id="XMLID_321_">
		<polygon id="XMLID_27_" class="st5" points="348.5,276.9 348.5,287.5 343.8,283.5 343.8,273.2 		"/>
	</g>
	<g id="XMLID_178_">
		<g id="XMLID_325_">
			<polygon id="XMLID_29_" class="st5" points="366.4,291.3 366.4,365.4 355.1,356.4 355.1,344.6 349.8,340 349.8,326.5 341.9,320 
				341.9,302.9 349.8,309.6 349.8,290.4 355.1,294.9 355.1,282.2 			"/>
		</g>
		<g id="XMLID_319_">
			<polygon id="XMLID_26_" class="st5" points="335.1,323.1 335.1,316.2 335.1,295.4 335.1,288.4 335.1,266.2 342.5,272.1 
				342.5,284.2 348.5,289.2 348.5,306.7 340.6,300 340.6,320.6 348.5,327.2 348.5,338.9 342.5,333.8 342.5,346.3 335.1,340.4 			"/>
		</g>
	</g>
	<g id="XMLID_317_">
		<rect id="XMLID_25_" x="388" y="325.5" class="st3" width="25.4" height="24.8"/>
	</g>
	<g id="XMLID_315_">
		<rect id="XMLID_24_" x="388" y="312.2" class="st3" width="25.4" height="11.3"/>
	</g>
	<g id="XMLID_313_">
		<polygon id="XMLID_23_" class="st3" points="432.4,291.8 432.4,366.5 401.3,366.5 401.3,352.3 415.4,352.3 415.4,310.2 
			401.3,310.2 401.3,291.8 		"/>
	</g>
	<g id="XMLID_311_">
		<polygon id="XMLID_22_" class="st9" points="399.9,352.3 399.9,366.5 368.3,366.5 368.3,291.8 399.9,291.8 399.9,310.2 386,310.2 
			386,352.3 		"/>
	</g>
	<g id="XMLID_300_">
		<g id="XMLID_309_">
			<path id="XMLID_21_" class="st10" d="M359.1,390c-11-3.8-17.4-9.1-18.8-15.5l-2.2,3.6c0.4,5,3.8,9.4,10.2,13
				c11.7,6.7,31.9,10.1,52,10.1v-5.4c-0.1,0-0.1,0-0.2,0C384.5,395.8,369.9,393.7,359.1,390z"/>
		</g>
		<g id="XMLID_307_">
			<path id="XMLID_20_" class="st10" d="M362.1,385.4c-11.7-4.1-17.9-10-17.9-17.1l-2.7,4.4c1,14.3,30,21.8,58.8,21.8
				c0.1,0,0.1,0,0.2,0v-3.6C385.8,390.9,372.2,388.9,362.1,385.4z"/>
		</g>
		<g id="XMLID_305_">
			<path id="XMLID_19_" class="st10" d="M400.4,416.2c-18.3,0-35.4-2.5-48.1-7.1c-12.9-4.6-20.3-11-21.9-18.7l-2.6,4.2
				c0.4,17.2,36.7,26.1,72.6,26.1V416.2z"/>
		</g>
		<g id="XMLID_303_">
			<path id="XMLID_18_" class="st10" d="M331.5,388.6c1.6,17.2,35.4,26.2,68.8,26.2v-5.5c0,0,0,0-0.1,0c-30.5,0-63.2-7.6-66.6-24.3
				L331.5,388.6z"/>
		</g>
		<g id="XMLID_301_">
			<path id="XMLID_17_" class="st10" d="M334.8,383.3c1.4,16.2,33.6,24.7,65.5,24.7c0,0,0,0,0.1,0v-5.4h-0.1
				c-20.3,0-40.5-3.5-52.6-10.4c-6.1-3.5-9.7-7.7-10.6-12.4L334.8,383.3z"/>
		</g>
	</g>
	<g id="XMLID_291_">
		<g id="XMLID_298_">
			<path id="XMLID_16_" class="st4" d="M333.7,385.1c3.4,16.7,36,24.3,66.6,24.3l0,0v-1.3l0,0c-31.9,0-64.1-8.5-65.5-24.7
				L333.7,385.1z"/>
		</g>
		<g id="XMLID_296_">
			<path id="XMLID_15_" class="st4" d="M340.3,374.5c1.3,6.3,7.7,11.7,18.8,15.5c10.8,3.8,25.5,5.8,41.1,5.8c0.1,0,0.1,0,0.2,0v-1.3
				c-0.1,0-0.1,0-0.2,0c-28.7,0-57.8-7.5-58.8-21.8L340.3,374.5z"/>
		</g>
		<g id="XMLID_294_">
			<path id="XMLID_14_" class="st4" d="M337,379.8c1,4.7,4.5,8.9,10.6,12.4c12,6.9,32.3,10.4,52.6,10.4h0.1v-1.5
				c-20.2,0-40.4-3.3-52-10.1c-6.4-3.7-9.8-8.1-10.2-13L337,379.8z"/>
		</g>
		<g id="XMLID_292_">
			<path id="XMLID_13_" class="st4" d="M352.3,409.1c12.7,4.6,29.8,7.1,48.1,7.1v-1.3c-33.4,0-67.2-9-68.8-26.2l-1.1,1.8
				C332,398.1,339.4,404.5,352.3,409.1z"/>
		</g>
	</g>
	<g id="XMLID_289_">
		<rect id="XMLID_12_" x="304.5" y="291.8" class="st0" width="30" height="1.2"/>
	</g>
	<g id="XMLID_287_">
		<rect id="XMLID_11_" x="304.5" y="319.3" class="st0" width="30" height="1.2"/>
	</g>
	<g id="XMLID_285_">
		<rect id="XMLID_10_" x="467" y="291.8" class="st0" width="30" height="1.2"/>
	</g>
	<g id="XMLID_283_">
		<rect id="XMLID_9_" x="467" y="319.3" class="st0" width="30" height="1.2"/>
	</g>
	<g id="XMLID_277_">
		<path id="XMLID_278_" class="st0" d="M84.6,302.1H80v-30.6h4.6V302.1z M196.6,271.6H192v30.6h4.6V271.6z M84.6,307.4H80V338h4.6
			V307.4z M196.6,307.4H192V338h4.6V307.4z"/>
	</g>
	<g id="XMLID_271_">
		<path id="XMLID_272_" class="st0" d="M609.2,302.1h-4.6v-30.6h4.6V302.1z M721.2,271.6h-4.6v30.6h4.6V271.6z M609.2,307.4h-4.6
			V338h4.6V307.4z M721.2,307.4h-4.6V338h4.6V307.4z"/>
	</g>
	<g id="XMLID_177_">
		<path id="XMLID_222_" class="st11" d="M190.9,344.4h-1.5c-1.8,0-3.3-1.3-3.6-3h-25.4l-3.5,3.5v27.5l3.2,3.2h28.1l2.9-2.9v-28.1
			L190.9,344.4z"/>
		<path id="XMLID_221_" class="st11" d="M190.9,337.1l0.3-0.3v-28.1l-0.2-0.2h-1.6c-1.8,0-3.3-1.3-3.6-3h-25.4l-3.5,3.5v27.5
			l3.5,3.5h25.4c0.3-1.7,1.8-2.9,3.6-2.9H190.9z"/>
		<path id="XMLID_220_" class="st11" d="M190.9,301.2l0.2-0.2v-28.2l-0.3-0.3h-1.4c-1.8,0-3.3-1.3-3.6-2.9h-25.4l-3.5,3.5v27.5
			l3.5,3.5h25.4c0.3-1.7,1.8-3,3.6-3h1.5L190.9,301.2L190.9,301.2z"/>
		<path id="XMLID_219_" class="st11" d="M190.9,265.3l0.2-0.2v-28.2l-2.9-2.9h-28.1l-3.2,3.2v27.5l3.5,3.5h25.4c0.3-1.7,1.8-3,3.6-3
			L190.9,265.3L190.9,265.3z"/>
	</g>
	<g id="XMLID_204_">
		<path id="XMLID_208_" class="st12" d="M79.1,344.4h-1.5c-1.8,0-3.3-1.3-3.6-3H48.6l-3.5,3.5v27.5l3.2,3.2h28.1l2.9-2.9v-28.1
			L79.1,344.4z"/>
		<path id="XMLID_207_" class="st12" d="M79,337.1l0.3-0.3v-28.1l-0.2-0.2h-1.5c-1.8,0-3.3-1.3-3.6-3H48.6l-3.5,3.5v27.5l3.5,3.5H74
			c0.3-1.7,1.8-2.9,3.6-2.9H79z"/>
		<path id="XMLID_206_" class="st12" d="M79,301.2l0.2-0.2v-28.2l-0.3-0.3h-1.4c-1.8,0-3.3-1.3-3.6-2.9H48.5l-3.5,3.5v27.5l3.5,3.5
			h25.4c0.3-1.7,1.8-3,3.6-3H79V301.2z"/>
		<path id="XMLID_205_" class="st12" d="M79.1,265.3l0.2-0.2v-28.2l-2.9-2.9H48.3l-3.2,3.2v27.5l3.5,3.5H74c0.3-1.7,1.8-3,3.6-3
			L79.1,265.3L79.1,265.3z"/>
	</g>
	<g id="XMLID_209_">
		<path id="XMLID_217_" class="st13" d="M85.4,344.6v28.1l2.9,2.9h28.1l3.2-3.2v-27.5l-3.5-3.5H90.7c-0.3,1.7-1.8,3-3.6,3h-1.5
			L85.4,344.6z"/>
		<path id="XMLID_212_" class="st13" d="M87.1,337.1c1.8,0,3.3,1.3,3.6,2.9h25.4l3.5-3.5V309l-3.5-3.5H90.7c-0.3,1.7-1.8,3-3.6,3
			h-1.5l-0.2,0.2v28.1l0.3,0.3H87.1z"/>
		<path id="XMLID_211_" class="st13" d="M87.1,301.2c1.8,0,3.3,1.3,3.6,3h25.4l3.5-3.5v-27.5l-3.5-3.5H90.7
			c-0.3,1.7-1.8,2.9-3.6,2.9h-1.4l-0.3,0.3v28.2l0.2,0.2h1.5V301.2z"/>
		<path id="XMLID_210_" class="st13" d="M87.1,265.3c1.8,0,3.3,1.3,3.6,3h25.4l3.5-3.5v-27.6l-3.2-3.2H88.3l-2.9,2.9v28.2l0.2,0.2
			H87.1L87.1,265.3z"/>
	</g>
	<g id="XMLID_179_">
		<path id="XMLID_183_" class="st14" d="M603.7,344.4h-1.5c-1.8,0-3.3-1.3-3.6-3h-25.4l-3.5,3.5v27.5l3.2,3.2H601l2.9-2.9v-28.1
			L603.7,344.4z"/>
		<path id="XMLID_182_" class="st14" d="M603.7,337.1l0.3-0.3v-28.1l-0.2-0.2h-1.5c-1.8,0-3.3-1.3-3.6-3h-25.4l-3.5,3.5v27.5
			l3.5,3.5h25.4c0.3-1.7,1.8-2.9,3.6-2.9H603.7z"/>
		<path id="XMLID_181_" class="st14" d="M603.7,301.2l0.2-0.2v-28.2l-0.3-0.3h-1.4c-1.8,0-3.3-1.3-3.6-2.9h-25.4l-3.5,3.5v27.5
			l3.5,3.5h25.4c0.3-1.7,1.8-3,3.6-3h1.5V301.2z"/>
		<path id="XMLID_180_" class="st14" d="M603.7,265.3l0.2-0.2v-28.2L601,234h-28.1l-3.2,3.2v27.5l3.5,3.5h25.4c0.3-1.7,1.8-3,3.6-3
			L603.7,265.3L603.7,265.3z"/>
	</g>
	<g id="XMLID_184_">
		<path id="XMLID_188_" class="st13" d="M715.6,344.4h-1.5c-1.8,0-3.3-1.3-3.6-3h-25.4l-3.5,3.5v27.5l3.2,3.2h28.1l2.9-2.9v-28.1
			L715.6,344.4z"/>
		<path id="XMLID_187_" class="st13" d="M715.5,337.1l0.3-0.3v-28.1l-0.2-0.2h-1.5c-1.8,0-3.3-1.3-3.6-3h-25.4l-3.5,3.5v27.5
			l3.5,3.5h25.4c0.3-1.7,1.8-2.9,3.6-2.9H715.5z"/>
		<path id="XMLID_186_" class="st13" d="M715.5,301.2l0.2-0.2v-28.2l-0.3-0.3H714c-1.8,0-3.3-1.3-3.6-2.9H685l-3.5,3.5v27.5l3.5,3.5
			h25.4c0.3-1.7,1.8-3,3.6-3h1.5V301.2z"/>
		<path id="XMLID_185_" class="st13" d="M715.6,265.3l0.2-0.2v-28.2l-2.9-2.9h-28.1l-3.2,3.2v27.5l3.5,3.5h25.4c0.3-1.7,1.8-3,3.6-3
			L715.6,265.3L715.6,265.3z"/>
	</g>
	<g id="XMLID_189_">
		<path id="XMLID_193_" class="st12" d="M721.9,344.5v28.1l2.9,2.9h28.1l3.2-3.2v-27.5l-3.5-3.5h-25.4c-0.3,1.7-1.8,3-3.6,3h-1.5
			L721.9,344.5z"/>
		<path id="XMLID_192_" class="st12" d="M723.6,337c1.8,0,3.3,1.3,3.6,2.9h25.4l3.5-3.5v-27.5l-3.5-3.5h-25.4c-0.3,1.7-1.8,3-3.6,3
			h-1.5l-0.2,0.2v28.1l0.3,0.3H723.6z"/>
		<path id="XMLID_191_" class="st12" d="M723.6,301c1.8,0,3.3,1.3,3.6,3h25.4l3.5-3.5V273l-3.5-3.5h-25.4c-0.3,1.7-1.8,2.9-3.6,2.9
			h-1.4l-0.3,0.3v28.2l0.2,0.2h1.5V301z"/>
		<path id="XMLID_190_" class="st12" d="M723.6,265.1c1.8,0,3.3,1.3,3.6,3h25.4l3.5-3.5v-27.5l-3.2-3.2h-28.1l-2.9,2.9V265l0.2,0.2
			h1.5V265.1z"/>
	</g>
	<g id="XMLID_194_">
		<path id="XMLID_198_" class="st11" d="M610,344.6v28.1l2.9,2.9H641l3.2-3.2v-27.5l-3.5-3.5h-25.4c-0.3,1.7-1.8,3-3.6,3h-1.5
			L610,344.6z"/>
		<path id="XMLID_197_" class="st11" d="M611.7,337.1c1.8,0,3.3,1.3,3.6,2.9h25.4l3.5-3.5V309l-3.5-3.5h-25.4c-0.3,1.7-1.8,3-3.6,3
			h-1.5l-0.2,0.2v28.1l0.3,0.3H611.7z"/>
		<path id="XMLID_196_" class="st11" d="M611.7,301.2c1.8,0,3.3,1.3,3.6,3h25.4l3.5-3.5v-27.5l-3.5-3.5h-25.4
			c-0.3,1.7-1.8,2.9-3.6,2.9h-1.4l-0.3,0.3v28.2l0.2,0.2h1.5V301.2z"/>
		<path id="XMLID_195_" class="st11" d="M611.7,265.3c1.8,0,3.3,1.3,3.6,3h25.4l3.5-3.5v-27.6L641,234h-28.1l-2.9,2.9v28.2l0.2,0.2
			H611.7L611.7,265.3z"/>
	</g>
	<g id="XMLID_199_">
		<path id="XMLID_203_" class="st14" d="M197.3,344.6v28.1l2.9,2.9h28.1l3.2-3.2v-27.5l-3.5-3.5h-25.4c-0.3,1.7-1.8,3-3.6,3h-1.5
			L197.3,344.6z"/>
		<path id="XMLID_202_" class="st14" d="M199,337.1c1.8,0,3.3,1.3,3.6,2.9H228l3.5-3.5V309l-3.5-3.5h-25.4c-0.3,1.7-1.8,3-3.6,3
			h-1.5l-0.2,0.2v28.1l0.3,0.3H199z"/>
		<path id="XMLID_201_" class="st14" d="M199,301.2c1.8,0,3.3,1.3,3.6,3H228l3.5-3.5v-27.5l-3.5-3.5h-25.4c-0.3,1.7-1.8,2.9-3.6,2.9
			h-1.4l-0.3,0.3v28.2l0.2,0.2h1.5L199,301.2L199,301.2z"/>
		<path id="XMLID_200_" class="st14" d="M199,265.3c1.8,0,3.3,1.3,3.6,3H228l3.5-3.5v-27.6l-3.2-3.2h-28.1l-2.9,2.9v28.2l0.2,0.2
			H199L199,265.3z"/>
	</g>
	<g id="XMLID_216_">
		<polygon id="XMLID_247_" class="st15" points="40.3,341.5 12.8,341.5 9.3,345 9.3,372.5 12.5,375.7 40.6,375.7 43.8,372.5 
			43.8,345 		"/>
		<polygon id="XMLID_232_" class="st15" points="40.3,305.6 12.8,305.6 9.3,309.1 9.3,336.6 12.8,340.2 40.3,340.2 43.8,336.6 
			43.8,309.1 		"/>
		<polygon id="XMLID_229_" class="st15" points="40.3,269.7 12.8,269.7 9.3,273.2 9.3,300.7 12.8,304.3 40.3,304.3 43.8,300.7 
			43.8,273.2 		"/>
		<polygon id="XMLID_214_" class="st15" points="40.6,234.1 12.5,234.1 9.3,237.4 9.3,264.8 12.8,268.3 40.3,268.3 43.8,264.8 
			43.8,237.4 		"/>
	</g>
	<g id="XMLID_218_">
		<polygon id="XMLID_226_" class="st2" points="152,341.5 124.5,341.5 121,345 121,372.5 124.2,375.7 152.4,375.7 155.6,372.5 
			155.6,345 		"/>
		<polygon id="XMLID_225_" class="st2" points="152,305.6 124.5,305.6 121,309.1 121,336.6 124.5,340.2 152,340.2 155.6,336.6 
			155.6,309.1 		"/>
		<polygon id="XMLID_224_" class="st2" points="152,269.7 124.5,269.7 121,273.2 121,300.7 124.5,304.3 152,304.3 155.6,300.7 
			155.6,273.2 		"/>
		<polygon id="XMLID_223_" class="st2" points="152.4,234.1 124.2,234.1 121,237.4 121,264.8 124.5,268.3 152,268.3 155.6,264.8 
			155.6,237.4 		"/>
	</g>
	<g id="XMLID_227_">
		<polygon id="XMLID_238_" class="st16" points="299.6,341.5 272.2,341.5 268.6,345 268.6,372.5 271.8,375.7 300,375.7 303.2,372.5 
			303.2,345 		"/>
		<polygon id="XMLID_237_" class="st16" points="299.6,305.6 272.2,305.6 268.6,309.1 268.6,336.6 272.2,340.2 299.6,340.2 
			303.2,336.6 303.2,309.1 		"/>
		<polygon id="XMLID_235_" class="st16" points="299.6,269.7 272.2,269.7 268.6,273.2 268.6,300.7 272.2,304.3 299.6,304.3 
			303.2,300.7 303.2,273.2 		"/>
		<polygon id="XMLID_234_" class="st16" points="300,234.1 271.8,234.1 268.6,237.4 268.6,264.8 272.2,268.3 299.6,268.3 
			303.2,264.8 303.2,237.4 		"/>
	</g>
	<g id="XMLID_239_">
		<polygon id="XMLID_243_" class="st17" points="263.9,341.5 236.4,341.5 232.9,345 232.9,372.5 236.1,375.7 264.2,375.7 
			267.4,372.5 267.4,345 		"/>
		<polygon id="XMLID_242_" class="st17" points="263.9,305.6 236.4,305.6 232.9,309.1 232.9,336.6 236.4,340.2 263.9,340.2 
			267.4,336.6 267.4,309.1 		"/>
		<polygon id="XMLID_241_" class="st17" points="263.9,269.7 236.4,269.7 232.9,273.2 232.9,300.7 236.4,304.3 263.9,304.3 
			267.4,300.7 267.4,273.2 		"/>
		<polygon id="XMLID_240_" class="st17" points="264.2,234.1 236.1,234.1 232.9,237.4 232.9,264.8 236.4,268.3 263.9,268.3 
			267.4,264.8 267.4,237.4 		"/>
	</g>
	<g id="XMLID_215_">
		<polygon id="XMLID_246_" class="st6" points="824.3,341.2 796.8,341.2 793.2,344.8 793.2,372.3 796.4,375.5 824.6,375.5 
			827.8,372.3 827.8,344.8 		"/>
		<polygon id="XMLID_236_" class="st6" points="824.3,305.3 796.8,305.3 793.2,308.9 793.2,336.4 796.8,339.9 824.3,339.9 
			827.8,336.4 827.8,308.9 		"/>
		<polygon id="XMLID_233_" class="st6" points="824.3,269.4 796.8,269.4 793.2,273.1 793.2,300.5 796.8,304 824.3,304 827.8,300.5 
			827.8,273.1 		"/>
		<polygon id="XMLID_228_" class="st6" points="824.6,233.9 796.4,233.9 793.2,237.1 793.2,264.6 796.8,268.1 824.3,268.1 
			827.8,264.6 827.8,237.1 		"/>
	</g>
	<g id="XMLID_244_">
		<polygon id="XMLID_274_" class="st16" points="528.9,341.2 501.4,341.2 497.8,344.8 497.8,372.3 501,375.5 529.2,375.5 
			532.4,372.3 532.4,344.8 		"/>
		<polygon id="XMLID_273_" class="st16" points="528.9,305.3 501.4,305.3 497.8,308.9 497.8,336.4 501.4,339.9 528.9,339.9 
			532.4,336.4 532.4,308.9 		"/>
		<polygon id="XMLID_269_" class="st16" points="528.9,269.4 501.4,269.4 497.8,273.1 497.8,300.5 501.4,304 528.9,304 532.4,300.5 
			532.4,273.1 		"/>
		<polygon id="XMLID_245_" class="st16" points="529.2,233.9 501,233.9 497.8,237.1 497.8,264.6 501.4,268.1 528.9,268.1 
			532.4,264.6 532.4,237.1 		"/>
	</g>
	<g id="XMLID_275_">
		<polygon id="XMLID_281_" class="st17" points="564.7,341.3 537.2,341.3 533.7,344.9 533.7,372.4 536.9,375.6 565,375.6 
			568.2,372.4 568.2,344.9 		"/>
		<polygon id="XMLID_280_" class="st17" points="564.7,305.4 537.2,305.4 533.7,309 533.7,336.5 537.2,340 564.7,340 568.2,336.5 
			568.2,309 		"/>
		<polygon id="XMLID_279_" class="st17" points="564.7,269.6 537.2,269.6 533.7,273.1 533.7,300.6 537.2,304.1 564.7,304.1 
			568.2,300.6 568.2,273.1 		"/>
		<polygon id="XMLID_276_" class="st17" points="565,233.9 536.9,233.9 533.7,237.2 533.7,264.6 537.2,268.2 564.7,268.2 
			568.2,264.6 568.2,237.2 		"/>
	</g>
	<g id="XMLID_282_">
		<polygon id="XMLID_290_" class="st2" points="676.7,341.3 649.2,341.3 645.6,344.9 645.6,372.4 648.8,375.6 677,375.6 
			680.2,372.4 680.2,344.9 		"/>
		<polygon id="XMLID_288_" class="st2" points="676.7,305.4 649.2,305.4 645.6,309 645.6,336.5 649.2,340 676.7,340 680.2,336.5 
			680.2,309 		"/>
		<polygon id="XMLID_286_" class="st2" points="676.7,269.6 649.2,269.6 645.6,273.1 645.6,300.6 649.2,304.1 676.7,304.1 
			680.2,300.6 680.2,273.1 		"/>
		<polygon id="XMLID_284_" class="st2" points="677,233.9 648.8,233.9 645.6,237.2 645.6,264.6 649.2,268.2 676.7,268.2 
			680.2,264.6 680.2,237.2 		"/>
	</g>
	<g id="XMLID_293_">
		<polygon id="XMLID_302_" class="st15" points="788.4,341.3 761,341.3 757.4,344.9 757.4,372.4 760.6,375.6 788.8,375.6 792,372.4 
			792,344.9 		"/>
		<polygon id="XMLID_299_" class="st15" points="788.4,305.4 761,305.4 757.4,309 757.4,336.5 761,340 788.4,340 792,336.5 792,309 
					"/>
		<polygon id="XMLID_297_" class="st15" points="788.4,269.6 761,269.6 757.4,273.1 757.4,300.6 761,304.1 788.4,304.1 792,300.6 
			792,273.1 		"/>
		<polygon id="XMLID_295_" class="st15" points="788.8,233.9 760.6,233.9 757.4,237.2 757.4,264.6 761,268.2 788.4,268.2 792,264.6 
			792,237.2 		"/>
	</g>
</g>
</svg>
