<svg xmlns="http://www.w3.org/2000/svg" xmlns:xlink="http://www.w3.org/1999/xlink" viewBox="44 -187 1048.1 934"><defs><path id="a" d="M-273.9-198.4V750.2H1244V-198.4z"/></defs><clipPath id="b"><use xlink:href="#a" overflow="visible"/></clipPath><g clip-path="url(#b)"><defs><path id="c" d="M1032.5-235.5c-86.7-26.9-177.5-54.1-266.9-38.7-89.5 15.4-176.1 88.2-174.6 179 .4 21.8 5.6 44.1-.4 65.1-13.8 47.8-73.5 60.5-117.7 83.3-60.2 31-100.4 92-121.1 156.5-20.7 64.4-24.2 133-27.5 200.6-4.8 98.2-7.9 203.4 44.5 286.5 33.4 52.9 85.9 90.6 138.7 124.3 209.5 133.8 445.3 226.1 690 270.1 97.2 17.5 201.1 26.6 291.5-13 107.9-47.2 177.8-157.9 204-272.8 26.2-114.8 14.7-234.7-.7-351.4-15.6-118.4-35.4-237.2-77-349.2s-106.5-217.7-199.8-292.2c-93.3-74.5-217.3-115.1-334.7-93.3-15.1 13.8-33.2 31.3-48.3 45.2z"/></defs><clipPath id="d"><use xlink:href="#c" overflow="visible"/></clipPath><linearGradient id="e" gradientUnits="userSpaceOnUse" x1="318.965" y1="-106.718" x2="548.022" y2="394.614"><stop offset="0" stop-color="#ff01a0"/><stop offset="1" stop-color="#e2a887"/></linearGradient><path clip-path="url(#d)" fill="url(#e)" d="M-338.4-206.9h1666.7v970.5H-338.4z"/></g><linearGradient id="f" gradientUnits="userSpaceOnUse" x1="712.211" y1="130.963" x2="904.89" y2="551.756"><stop offset=".005" stop-color="#3c3cf3"/><stop offset="1" stop-color="#6ff"/></linearGradient><path d="M1443.3.7c-39.8-53.8-124.7-54.1-181.5-18.8s-92.2 95.7-125.4 153.8c-40.4 70.7-80.7 141.4-121.1 212.1-18.9 33-42.1 69.4-79.4 76.9-45.9 9.2-87-30.2-111.2-70.2-23.2-38.4-39.7-80.5-62.5-119.2-22.8-38.6-53.6-74.9-95.2-91.7-55.1-22.4-120.3-6-168.6 28.8-48.3 34.7-82.6 85.4-112.7 136.7C300 455.3 240 616.8 209.3 783.7c54.8 68.7 134.8 110.4 219.3 134.5 219.4 62.4 455.6 64.9 676.3 7.2 57-14.9 114.3-34.5 160.1-71.5 57.7-46.7 91.4-116.5 118.2-185.8 71.3-184.4 106.7-382.7 103.5-580.5-.6-34-23.2-59.6-43.4-86.9z" clip-path="url(#b)" fill="url(#f)"/><linearGradient id="g" gradientUnits="userSpaceOnUse" x1="733.238" y1="12.121" x2="857.261" y2="707.538"><stop offset=".005" stop-color="#3c3cf3"/><stop offset="1" stop-color="#6ff"/></linearGradient><path d="M1488.7 128.6c-26.5 40.6-72.3 68-120.6 72.1-48.3 4.1-98.1-15.1-131.1-50.6-56.3-60.6-61.6-159.3-126-211.2-55.7-44.9-140.5-37.8-200.8.6C850-22 810.2 41.4 779.7 106c-30.6 64.6-54.2 132.9-92.4 193.4-17 26.9-37.3 52.5-64.2 69.4-26.9 16.9-61.4 24.1-91.1 12.8-65.7-25-79.7-122.7-145.5-147.3-32.4-12.1-69.8-2.2-98 17.9-28.1 20.1-48.5 49-66.9 78.3-81.3 129.2-134.5 276.1-155 427.4C181.3 894 345.2 988.2 518.7 1027.6c173.5 39.5 354.6 34.3 530.7 8.8 89.5-13 179.2-31.4 261.6-68.7 82.4-37.3 157.8-94.8 204-172.6 45.1-75.9 59.8-165.6 69.9-253.3 8.5-73.8 14.3-148.8 2.7-222.2-11.6-73.4-44.3-140.6-98.9-191z" clip-path="url(#b)" fill="url(#g)"/><linearGradient id="h" gradientUnits="userSpaceOnUse" x1="878.105" y1="256.726" x2="1050.852" y2="828.119"><stop offset=".005" stop-color="#3c3cf3"/><stop offset="1" stop-color="#6ff"/></linearGradient><path d="M1479 244c-37.4-18.2-83.2-5.5-118 17.3s-62.7 54.6-96 79.6-75.9 43.1-116.1 32.2c-30.8-8.4-54.5-32.1-77.5-54.2-35.5-34.1-73.4-66.6-117-89.4-43.7-22.8-94-35.4-142.6-27.8-88.8 13.9-153.7 89.8-202.6 165.2-83 128.2-142.8 268.7-178.2 411.6 50 24.1 98.7 54.6 150.8 73.7 222 81.2 477.9 64.2 687.2-45.7 29.7-15.6 58.9-33.3 81.4-58.2 21.7-24 36.1-53.6 49-83.3 56.3-130 74-279.5 79.6-421z" clip-path="url(#b)" fill="url(#h)"/><linearGradient id="i" gradientUnits="userSpaceOnUse" x1="1031.755" y1="435.705" x2="1210.134" y2="818.978"><stop offset=".005" stop-color="#3c3cf3"/><stop offset="1" stop-color="#6ff"/></linearGradient><path d="M1434.8 315.2c-25.6-42.3-83.6-56.8-131-42.7-47.4 14.1-84.8 51-112.6 91.9-27.7 40.9-47.6 86.6-73 129-17.8 29.8-43.5 60.9-78.2 61.9-50.5 1.4-83.4-61-133.8-65.2-32.3-2.6-61.1 19.8-83.2 43.6-55.4 59.7-92.2 136.6-103.8 217.3 13.7 23 39.7 39.8 65.1 48.3 25.4 8.5 52.4 10.6 79.2 11.8 141.6 6 284.2-14.3 418.5-59.4 17.2-5.8 61.2 2.3 74.3-10.3 17.2-16.7-2.6-55.8 3.2-79.1 29.1-115.9 46.3-231.3 75.3-347.1z" clip-path="url(#b)" fill="url(#i)"/></svg>