<svg version="1.1" id="Layer_1" xmlns="http://www.w3.org/2000/svg" x="0" y="0" viewBox="-39 108.4 879.1 344.6" xml:space="preserve"><style>.st0{fill:#0c4b5c}.st2{fill:#08c7b6}.st3{fill:#ff3755}.st4{fill:#3696b1}.st5{fill:#d0001f}.st6{fill:#03554d}.st7{fill:#03495c}.st10{fill:#03443e}.st11{fill:#09e8d3}.st12{fill:#05867a}.st13{fill:#07a698}.st14{fill:#2df7e4}.st15{fill:#04655c}.st16{fill:#7ffaef}.st17{fill:#4ef8e8}</style><g id="XMLID_270_"><g id="XMLID_596_"><path id="XMLID_597_" class="st0" d="M400.3 441.3c-9 0-54.5-.9-66.2-17.8-2.5-3.6-2.5-8.5-.2-12.3-8.6-5.8-10.4-12.2-10.4-16.7v-.9l18.3-29.6v-12.8l-11-8.8v-17h-23.5v54.4h-338V229.7h338v56.5h23.5V262.6l15.4-12.3c-16.9-9.1-25.8-22.3-25.8-38.4 0-14.4 22-26.2 56.1-30.3l13.8-29.1v-32.3c0-4.1 4.3-7 10.4-7 6.1 0 10.4 2.9 10.4 7v32.7l13.6 28.7c34 4.1 55.9 15.9 55.9 30.2 0 16-8.9 29.3-25.7 38.4l15.5 12.4-.1 3.1v20.5h23.5v-56.5h338v150.2h-338v-54.4h-23.4v17l-11.5 9.2v12.4l18.3 29.4v.9c0 6.4-3.5 12-10.5 16.7 2.4 3.8 2.3 8.7-.2 12.4-11.5 16.9-57.1 17.8-66.2 17.8zm93.6-127.4v-16.2h-23.5v16.2h23.5zm-163.1 0v-16.2h-23.5v16.2h23.5zm69.8-133.7c4 0 8 .1 11.9.3l-11.4-24h-.7l-11.4 24c3.8-.1 7.7-.3 11.6-.3z"/></g><g id="XMLID_590_"><path id="XMLID_591_" d="M719.9 231.9v33.3h-2.2V232H608.1v33.2h-2.2V232H496.2v56.5h-28.1v-23.8l.6-.5-17.9-14.4c16.3-7.9 27.6-20.4 27.6-37.9 0-13.1-22.1-24.4-55.1-28.1l-14.4-30.3v-33.3c0-6.3-16.2-6.3-16.2 0V153l-14.6 30.7c-33.1 3.7-55.4 15-55.4 28.1 0 17.6 11.4 30.1 27.7 38l-17.9 14.4.6.5v23.8H305V232H195.3v33.2h-2.2V232H83.4v33.2h-2.2V232H-28.4v145.6H81.3v-33.2h2.2v33.2h109.7v-33.2h2.2v33.2h109.7v-54.4h28.1v18.2l11.1 8.9v14.4L326 394.3v.3c0 6.1 3.9 11.6 11.3 16.1l-1 1.5c-2.1 3.1-2.2 7.2-.1 10.2 8.5 12.4 40 16.8 64.3 16.8h.1c24.4 0 55.8-4.4 64.4-16.8 2.1-3 2-7.1-.1-10.2l-1-1.5c7.1-4.2 11.4-9.5 11.4-16v-.3L457 365v-14.2l11.5-9.2v-18.4h28.1v54.4h109.7v-33.2h2.2v33.2h109.7v-33.2h2.2v33.2h109.7V231.9H719.9zm-223.7 84.3h-28.1v-20.7h28.1v20.7zm-97.3-162h3.6l13.7 28.9c-10.1-.8-20.8-.8-30.9 0l13.6-28.9zM305 295.4h28.1v20.8H305v-20.8z" fill="#ffeecf"/></g><g id="XMLID_588_"><path id="XMLID_260_" class="st2" d="M421.7 185.1l15.4 32.5c.2.3.2.7.1.9-.1.3-.3.5-.5.6-.3.1-.5.1-.8.1-.3-.1-.5-.3-.7-.7l-16-33.7c-10.7-1.1-18.6-1.4-18.6-1.4 10.8 18.2 11.5 37.4 0 57.8 0 0 76.1-5.1 76.1-30.4.1-16.4-32.5-23.1-55-25.7z"/></g><g id="XMLID_586_"><path id="XMLID_259_" class="st3" d="M465.5 264.2l-32 25.6h-65.8l-32-25.6 16.8-13.4c5.3 2.4 11.2 4.3 17.2 5.8.3 5.9 3.7 10.8 9.8 14.2 5.6 3.2 13.1 4.9 21.1 4.9 14.5 0 30.1-6 30.9-19.2 6.1-1.5 11.9-3.4 17.2-5.8l16.8 13.5z"/></g><g id="XMLID_579_"><g id="XMLID_584_"><path id="XMLID_258_" class="st4" d="M400.6 272.2c-11.6 0-24.5-4.7-27.8-15-.3-.1-.7-.2-1.1-.3 1.1 11.5 15.5 16.7 28.8 16.7v-1.4h.1z"/></g><g id="XMLID_582_"><path id="XMLID_257_" class="st4" d="M385.2 267.2c4.6 2.1 10.1 3 15.4 3V260c-8.5 0-17.2-.8-25.5-2.4 1.7 4.5 5.5 7.5 10.1 9.6z"/></g><g id="XMLID_580_"><path id="XMLID_256_" class="st4" d="M386.2 240.7c-27.4-1.9-45.4-8.7-56.9-16.9 6.1 26.1 38.1 34.3 71.3 34.3 0 0-12.8-3.7-14.4-17.4z"/></g></g><g id="XMLID_577_"><path id="XMLID_255_" class="st5" d="M400.6 274.6H347l-12.8-10.7 17.1-13.9s8 3 10.1 3.5c2.1.5 9.4 2.5 9.4 2.5l.1 4.4s3 4.9 6.4 7.3c3.4 2.4 11.7 5.3 15 5.9 3.4.6 8.3 1 8.3 1z"/></g><g id="XMLID_575_"><path id="XMLID_254_" class="st4" d="M394.1 149.1h13.1v3.7h-13.1z"/></g><g id="XMLID_573_"><path id="XMLID_253_" class="st3" d="M406.9 121.3v26.8h-12.2v-26.8c0-5.2 12.2-5.2 12.2 0z"/></g><g id="XMLID_571_"><path id="XMLID_252_" class="st5" d="M395.8 116.7h5.9v32.8h-5.9z"/></g><g id="XMLID_564_"><g id="XMLID_569_"><path id="XMLID_251_" class="st4" d="M454.6 352.3v-.2l-.2.2z"/></g><g id="XMLID_567_"><path id="XMLID_250_" class="st4" d="M400.3 422.8c-19.4 0-37.2-2.7-50.7-7.1-4-1.3-5-1.7-8.2-3l-1.1 1.7c-1.7 2.4-1.7 5.6-.1 7.9 6.6 9.5 29.2 14.7 60.1 14.7v-14.2z"/></g><g id="XMLID_565_"><path id="XMLID_249_" class="st4" d="M400.3 388.9v-20.4H367l-19.7-15.7v16.5c0 13.5 26.1 19.6 53 19.6z"/></g></g><path id="XMLID_527_" class="st6" d="M7.8 344.9v27.5l-3.2 3.2h-28.2l-2.9-2.9v-28.1l3.2-3.2H4.2l3.6 3.5zm-3.5-39.5h-27.5l-3.2 3.2v28.1l3.2 3.2H4.3l3.5-3.5v-27.5l-3.5-3.5zm0-35.8h-27.5l-3.2 3.2V301l3.2 3.2H4.3l3.5-3.5v-27.5l-3.5-3.6zm.3-35.7h-28.2l-2.9 2.9V265l3.2 3.2H4.2l3.5-3.5v-27.5l-3.1-3.3z"/><path id="XMLID_355_" class="st0" d="M496.2 293.4v-3h-28.1v3h28.1zm0 22.8v-20.8h-28.1v20.8h28.1zm0 5v-3h-28.1v3h28.1zm-39.1 26.4v-10.3l-4.6 3.9v10l4.6-3.6zm9-81.4l-7.7 6.1v12.4l-6 5.1v17.5l7.9-6.7v20.6l-7.9 6.6v11.7l6-5.1v12.1l7.7-6.2v-74.1zm-15 23v-11l-4 3.2v11.3l4-3.5zm0 63.1v-10l-4 3.4v9.7l4-3.1zm.9-74.7h.4v10.6l4.6-3.9v-10.7l-5 4zm-6.2 5l-11.4 9.1v74.1l11.4-9.1v-11.4l5.3-4.5v-13.5l7.9-6.6v-17l-7.9 6.7v-19.2l-5.3 4.5v-13.1zm-44.5 83.9h31.1v-74.7h-31.2v18.4h14.2v42.1h-14.1v14.2zm3.4-212.3l30.5 64.3c.2.3.4.6.7.7.2.1.5 0 .8-.1s.5-.3.5-.6c.1-.3.1-.6-.1-.9l-30-63.4h-2.4zm2.2-32.9c0-5.3-12.2-5.3-12.2 0v26.8h12.2v-26.8zm-12.2 30.9h12.2v-2.1h-12.2v2.1zm-9.5 30.9c10.2-.8 20.8-.7 30.9 0l-13.6-28.8h-3.6l-13.7 28.8zm0 84.1c4.6 2.1 10.1 3 15.4 3 10.4 0 22-3.9 25.5-12.6-8.3 1.6-17 2.4-25.5 2.4s-17.2-.8-25.5-2.4c1.7 4.5 5.5 7.5 10.1 9.6zm2.8 58.3v24.8h25.4v-24.8H388zm0-13.3v11.3h25.4v-11.3H388zm11.9-20.4h-31.6v74.7h31.6v-14.2H386v-42.1h13.9v-18.4zm.7-19.6c-11.6 0-24.5-4.7-27.8-15-.3-.1-.7-.2-1.1-.3 1.1 11.5 15.5 16.7 28.9 16.7 13.4 0 27.7-5.3 28.8-16.7-.3.1-.7.2-1.1.3-1.6 5.2-5.7 8.9-10.8 11.4-5 2.5-11.1 3.6-16.9 3.6zm-34.4-53.6l30.5-64.3h-2.4l-30 63.4c-.2.3-.2.7-.1.9.1.3.3.5.5.6.3.1.5.1.8.1.3-.2.6-.4.7-.7zm-12.4 126.6l-4-3.4v10.3h-.1l4 3.2v-10.1h.1zm-4-56.6l4 3.4v-10.8l-4-3.2v10.6zm-3.7 79.7c0 13.5 27.3 20.6 54.2 20.6 27 0 54.2-7.1 54.2-20.6v-16.1l-20.4 16.3h-67.2L346 351.8l.1 16.5zm3.7-58.7l-7.9-6.7v17l7.9 6.6V340l5.3 4.5v11.8l11.3 9v-74.1l-11.3-9v12.7l-5.3-4.5v19.2zm-1.3-32.7l-4.6-3.7v10.3l4.6 3.9v-10.5zm0 63.8l-4.6-4v10.7l4.6 3.7v-10.4zm-13.4-17.6v17.2l7.4 5.9v-12.5l6 5.1v-11.6l-7.9-6.6v-20.5l7.9 6.7v-17.6l-6-5.1v-12l-7.4-5.9v56.9zm6.3 49.6c1 14.3 30 21.8 58.8 21.8 29 0 58.4-7.6 58.8-22.2l-2.4-3.8c-.3 15.4-29.3 22.4-56.2 22.4-14.6 0-28.2-1.9-38.3-5.5-11.7-4.1-17.9-10-17.9-17.1l-2.8 4.4zm6.3 19.6c-6.1-3.5-9.7-7.7-10.6-12.4l-2.2 3.5c1.4 16.2 33.6 24.7 65.5 24.7s64.2-8.5 65.5-24.9l-2.3-3.7c-.9 4.8-4.5 9.1-10.7 12.7-12.1 6.9-32.3 10.4-52.6 10.4-20.3.1-40.6-3.4-52.6-10.3zm-9.6-14.2c.4 5 3.8 9.4 10.2 13 23.3 13.5 80.5 13.4 103.9 0 6.5-3.8 10-8.2 10.2-13.3l-2.3-3.7c-2.6 14.9-32.3 21.7-60 21.7-15.6 0-30.2-2.1-41.1-5.8-11-3.8-17.4-9.1-18.8-15.5l-2.1 3.6zm.8 33.3l-1.1 1.7c-1.7 2.4-1.7 5.6-.1 7.9 6.6 9.5 31.7 15.9 62.6 15.9h.1c31 0 56.2-6.4 62.7-15.9 1.6-2.3 1.5-5.5-.1-8l-1.1-1.7c-14.4 7.7-38.5 11.4-61.5 11.4-19.4 0-37.5-2.4-50.9-6.9-4.1-1.2-7.6-2.7-10.6-4.4zm-5.8-93.2H305v3h28.1v-3zm0-27.8H305v3h28.1v-3zm-28.1 5v20.8h28.1v-20.8H305zm95.6-54.2c-36.1 0-65.8-8.9-74.9-21.3 6.1 26.1 41.6 38.1 74.9 38.1 33.2 0 68.7-12 74.9-38.1-9.2 12.5-38.8 21.3-74.9 21.3zm-75.8-29.3c0 15.1 34 27.4 75.8 27.4s75.8-12.3 75.8-27.4c0-11.7-21.3-22.3-52.1-26l14.6 30.9c.5 1.1.4 2 .2 2.5-.3.7-.8 1.3-1.6 1.6-.4.2-.9.3-1.3.3-.3 0-.6 0-.9-.1-.6-.2-1.3-.6-1.9-1.7l-16.2-34.2c-10.8-.9-22.2-.9-32.9 0l-16.2 34.2c-.6 1.3-1.7 1.8-2.8 1.8-.5 0-.9-.1-1.3-.3-.7-.3-1.3-.9-1.6-1.6-.2-.5-.4-1.4.1-2.5l14.7-30.9c-31 3.7-52.4 14.2-52.4 26zm6.7 176.7c1.6 17.2 35.4 26.2 68.9 26.2 33.4 0 67.2-9 68.9-26.2l-2.3-3.7c-1.6 8.4-10.6 14.5-23 18.5s-28.3 5.9-43.6 5.9c-30.5 0-63.2-7.6-66.6-24.3l-2.3 3.6zm4.2-124.4l32 25.6h65.8l32-25.6-16.8-13.4c-5.3 2.4-11.1 4.3-17.2 5.8-.8 13.2-16.3 19.2-30.9 19.2-8 0-15.5-1.8-21.1-4.9-6.1-3.5-9.5-8.4-9.8-14.2-6.1-1.5-11.9-3.4-17.2-5.8l-16.8 13.3zm16.6 144.9c-12.9-4.6-20.3-11-21.9-18.7l-2.6 4.2c.4 17.2 36.7 26.1 72.6 26.1 35.9 0 72.2-9 72.6-26.1l-2.6-4.2c-3.7 17.7-38 25.8-70 25.8-18.3 0-35.4-2.5-48.1-7.1zm-49.3-144v-28.2l-2.9-2.9h-28.2l-3.2 3.2v27.5l3.5 3.5h27.5l3.3-3.1zm0 35.8v-28.2l-3.2-3.2h-27.5l-3.5 3.5v27.5l3.5 3.5h27.5l3.2-3.1zm0 35.9V308.6l-3.2-3.2h-27.5l-3.5 3.5v27.5l3.5 3.5h27.5l3.2-3.1zm0 35.9v-28.1l-3.2-3.2h-27.5l-3.5 3.5v27.5l3.2 3.2h28.2l2.8-2.9zm-35.6-27.8l-3.5-3.5h-27.5l-3.5 3.5v27.5l3.2 3.2h28.2l3.2-3.2v-27.5h-.1zm-3.5-76.7l3.5-3.5v-27.5l-3.2-3.2H236l-3.2 3.2v27.5l3.5 3.5h27.6zm0 35.9l3.5-3.5v-27.5l-3.5-3.5h-27.5l-3.5 3.5v27.5l3.5 3.5h27.5zm0 35.9l3.5-3.5V309l-3.5-3.5h-27.5l-3.5 3.5v27.5l3.5 3.5h27.5zM199 265.2c1.8 0 3.3 1.3 3.6 3H228l3.5-3.5v-27.5l-3.2-3.2h-28.1l-2.9 2.9v28.2l.2.2h1.5v-.1zm3.6 4.4c-.3 1.7-1.8 2.9-3.6 2.9h-1.5l-.3.3V301l.2.2h1.5c1.8 0 3.3 1.3 3.6 3h25.4l3.5-3.5v-27.5l-3.5-3.5h-25.3v-.1zm0 71.7c-.3 1.7-1.8 3-3.6 3h-1.5l-.2.2v28.1l2.9 2.9h28.1l3.2-3.2v-27.5l-3.5-3.5h-25.4zm0-35.9c-.3 1.7-1.8 3-3.6 3h-1.5l-.2.2v28.1l.3.3h1.5c1.8 0 3.2 1.3 3.6 2.9h25.4l3.5-3.5v-27.5l-3.5-3.5h-25.5zm-7.3-4.3v-28.7h-2.1v28.7h2.1zm0 36v-28.7h-2.1v28.7h2.1zm-7 38.5l2.9-2.9v-28.1l-.2-.2h-1.8c-1.8 0-3.3-1.3-3.6-3h-25.1l-3.6 3.5v27.5l3.2 3.2h28.2zm-2.7-35.6c.3-1.7 1.8-2.9 3.6-2.9h1.7l.3-.3v-28.1l-.2-.2h-1.7c-1.8 0-3.3-1.3-3.6-3h-25.1L157 309v27.5l3.6 3.5h25zm0-35.9c.3-1.7 1.8-3 3.6-3h1.7l.2-.2v-28.2l-.3-.3h-1.7c-1.8 0-3.3-1.3-3.6-2.9h-25.1l-3.6 3.5v27.5l3.6 3.5h25.2v.1zm0-35.9c.3-1.7 1.8-3 3.6-3h1.8l.2-.2v-28.2l-2.9-2.9h-28.1l-3.2 3.2v27.5l3.6 3.5 25 .1zM199 339h-9.9c-.9 0-1.7.7-1.7 1.6s.8 1.6 1.7 1.6h9.9c.9 0 1.6-.7 1.6-1.6.1-.8-.7-1.6-1.6-1.6zm0-35.9h-9.9c-.9 0-1.7.7-1.7 1.6s.8 1.6 1.7 1.6h9.9c.9 0 1.6-.7 1.6-1.6.1-.9-.7-1.6-1.6-1.6zm0-35.9h-9.9c-.9 0-1.7.7-1.7 1.6s.8 1.6 1.7 1.6h9.9c.9 0 1.6-.7 1.6-1.6.1-.9-.7-1.6-1.6-1.6zm-43.4-2.6v-27.5l-3.2-3.2h-28.2l-3.2 3.2v27.5l3.5 3.5H152l3.6-3.5zm0 35.9V273l-3.5-3.5h-27.5l-3.5 3.5v27.5l3.5 3.5h27.5l3.5-3.5zm0 36V309l-3.5-3.5h-27.5l-3.5 3.5v27.5l3.5 3.5h27.5l3.5-3.5zm0 35.8v-27.5l-3.5-3.5h-27.5l-3.5 3.5v27.5l3.2 3.2h28.1l3.2-3.2zm-39.1-138.4H88.4l-2.9 2.9V265l.2.2h1.8c1.8 0 3.3 1.3 3.6 3h25.1l3.6-3.5v-27.5l-3.3-3.3zM85.4 344.5v28.1l2.9 2.9h28.1l3.2-3.2v-27.5l-3.6-3.5H90.9c-.3 1.7-1.8 3-3.6 3h-1.8l-.1.2zm0-35.9v28.1l.3.3h1.8c1.8 0 3.2 1.3 3.6 2.9h25.1l3.6-3.5v-27.5l-3.6-3.5H91.1c-.3 1.7-1.8 3-3.6 3h-1.8l-.3.2zm0-35.9v28.2l.2.2h1.8c1.8 0 3.3 1.3 3.6 3h25.1l3.6-3.5v-27.5l-3.6-3.5H91c-.3 1.7-1.8 2.9-3.6 2.9h-1.8l-.2.2zm-4.1 35.7v28.7h2.1v-28.7h-2.1zm0-35.8v28.7h2.1v-28.7h-2.1zm6.1 30.5h-9.9c-.9 0-1.7.7-1.7 1.6s.8 1.6 1.7 1.6h9.9c.9 0 1.6-.7 1.6-1.6.1-.9-.7-1.6-1.6-1.6zm0 35.9h-9.9c-.9 0-1.7.7-1.7 1.6s.8 1.6 1.7 1.6h9.9c.9 0 1.6-.7 1.6-1.6.1-.8-.7-1.6-1.6-1.6zm-9.8-68.4h9.9c.9 0 1.6-.7 1.6-1.6s-.8-1.6-1.6-1.6h-9.9c-.9 0-1.7.7-1.7 1.6 0 .7.8 1.6 1.7 1.6zm-33.9-6v-27.5l-3.2-3.2H12.3l-3.2 3.2v27.5l3.5 3.5h27.5l3.6-3.5zm0 35.9V273l-3.5-3.5H12.7L9.2 273v27.5l3.5 3.5h27.5l3.5-3.5zm0 36V309l-3.5-3.5H12.7L9.2 309v27.5l3.5 3.5h27.5l3.5-3.5zm0 35.8v-27.5l-3.5-3.5H12.7l-3.5 3.5v27.5l3.2 3.2h28.2l3.1-3.2zm32.7-138.4H48.3l-3.2 3.2v27.5l3.5 3.5H74c.3-1.7 1.8-3 3.6-3h1.5l.2-.2v-28.2l-2.9-2.8zM74 341.3H48.6l-3.5 3.5v27.5l3.2 3.2h28.1l2.9-2.9v-28.1l-.2-.2h-1.5c-1.8 0-3.3-1.3-3.6-3zm0-35.9H48.6l-3.5 3.5v27.5l3.5 3.5H74c.3-1.7 1.8-2.9 3.6-2.9H79l.3-.3v-28.1l-.2-.2h-1.5c-1.8 0-3.3-1.3-3.6-3zm0-35.8H48.6l-3.5 3.5v27.5l3.5 3.5H74c.3-1.7 1.8-3 3.6-3h1.5l.2-.2v-28.2l-.3-.3h-1.4c-1.8.2-3.3-1.2-3.6-2.8zM4.3 304.1l3.5-3.5v-27.5l-3.5-3.5h-27.5l-3.2 3.2V301l3.2 3.2H4.3v-.1zm0 35.9l3.5-3.5V309l-3.5-3.5h-27.5l-3.2 3.2v28.1l3.2 3.2H4.3zm3.5-102.9l-3.2-3.2h-28.2l-2.9 2.9V265l3.2 3.2H4.2l3.5-3.5.1-27.6zM4.6 375.6l3.2-3.2v-27.5l-3.5-3.5h-27.5l-3.2 3.2v28.1l2.9 2.9H4.6zm527.8-111v-27.5l-3.2-3.2H501l-2.9 2.9V265l3.2 3.2h27.5l3.6-3.6zm0 35.9V273l-3.5-3.5h-27.5l-3.2 3.2v28.2l3.2 3.2h27.5l3.5-3.6zm0 36V309l-3.5-3.5h-27.5l-3.2 3.2v28.2l3.2 3.2h27.5l3.5-3.6zm0 35.8v-27.5l-3.5-3.5h-27.5l-3.2 3.2v28.1l2.9 2.9h28.2l3.1-3.2zm35.9-27.4l-3.5-3.5h-27.5l-3.6 3.5v27.5l3.2 3.2H565l3.2-3.2.1-27.5zm-3.5-76.7l3.5-3.5v-27.5l-3.2-3.2H537l-3.2 3.2v27.5l3.6 3.5h27.4zm0 35.9l3.5-3.5v-27.5l-3.5-3.5h-27.5l-3.6 3.5v27.5l3.6 3.5h27.5zm0 35.9l3.5-3.5V309l-3.5-3.5h-27.5l-3.6 3.5v27.5l3.6 3.5h27.5zm79.5-75.4v-27.5l-3.2-3.2h-28.2l-2.9 2.9V265l.2.2h1.8c1.8 0 3.3 1.3 3.6 3h25.1l3.6-3.6zm0 35.9V273l-3.5-3.5h-25.1c-.3 1.7-1.8 2.9-3.6 2.9h-1.7l-.3.3v28.2l.3.2h1.7c1.8 0 3.3 1.3 3.6 3h25.1l3.5-3.6zm0 36V309l-3.5-3.5h-25.1c-.3 1.7-1.8 3-3.6 3h-1.7l-.3.2v28.1l.3.3h1.7c1.8 0 3.3 1.3 3.6 2.9h25.1l3.5-3.5zm0 35.8v-27.5l-3.5-3.5h-25.1c-.3 1.7-1.8 3-3.6 3h-1.8l-.2.2v28.1l2.9 2.9h28.2l3.1-3.2zm4.9-31l-3.5 3.5v27.5l3.2 3.2h28.2l3.2-3.2v-27.5l-3.5-3.5h-27.6zm-3.6-68.2v27.5l3.5 3.5h27.5l3.5-3.5v-27.5l-3.5-3.5h-27.5l-3.5 3.5zm3.6 32.3l-3.5 3.5v27.5l3.5 3.5h27.5l3.5-3.5v-27.5l-3.5-3.5h-27.5zm-3.6-68.3v27.5l3.5 3.5h27.5l3.5-3.5v-27.5l-3.2-3.2h-28.2l-3.1 3.2zm146.5 27.5v-27.5l-3.2-3.2h-28.2l-3.2 3.2v27.5l3.5 3.5h27.5l3.6-3.5zm0 35.9V273l-3.5-3.5h-27.5l-3.5 3.5v27.5l3.5 3.5h27.5l3.5-3.5zm0 36V309l-3.5-3.5h-27.5l-3.5 3.5v27.5l3.5 3.5h27.5l3.5-3.5zm0 35.8v-27.5l-3.5-3.5h-27.5l-3.5 3.5v27.5l3.2 3.2H789l3.1-3.2zM603.9 265.1v-28.2L601 234h-28.1l-3.2 3.2v27.5l3.5 3.5h25.4c.3-1.7 1.8-3 3.6-3h1.5l.2-.1zm0 35.8v-28.2l-.3-.3h-1.5c-1.8 0-3.2-1.3-3.6-2.9h-25.4l-3.5 3.5v27.5l3.5 3.5h25.4c.3-1.7 1.8-3 3.6-3h1.5l.3-.1zm0 35.9v-28.1l-.2-.2h-1.5c-1.8 0-3.3-1.3-3.6-3h-25.4l-3.5 3.5v27.5l3.5 3.5h25.4c.3-1.7 1.8-2.9 3.6-2.9h1.5l.2-.3zm223.7-71.7v-28.2l-2.9-2.9h-28.1l-3.2 3.2v27.5l3.6 3.5h27.4l3.2-3.1zm0 35.8v-28.2l-3.2-3.2h-27.5l-3.6 3.5v27.5l3.6 3.5h27.5l3.2-3.1zm0 35.9v-28.1l-3.2-3.2h-27.5l-3.6 3.5v27.5l3.6 3.5h27.5l3.2-3.2zm0 35.9v-28.1l-3.2-3.2h-27.5l-3.6 3.5v27.5l3.2 3.2h28.1l3-2.9zM715.8 265.1v-28.2l-2.9-2.9h-28.1l-3.2 3.2v27.5l3.5 3.5h25.1c.3-1.7 1.8-3 3.6-3h1.8l.2-.1zm0 35.8v-28.2l-.3-.3h-1.8c-1.8 0-3.2-1.3-3.6-2.9H685l-3.5 3.5v27.5l3.5 3.5h25.1c.3-1.7 1.8-3 3.6-3h1.8l.3-.1zm0 35.9v-28.1l-.2-.2h-1.8c-1.8 0-3.3-1.3-3.6-3h-25.1l-3.5 3.5v27.5l3.5 3.5h25.1c.3-1.7 1.8-2.9 3.6-2.9h1.8l.2-.3zm0 35.9v-28.1l-.2-.2h-1.8c-1.8 0-3.3-1.3-3.6-3h-25.1l-3.5 3.5v27.5l3.2 3.2h28.1l2.9-2.9zm2-100.1v28.7h2.1v-28.7h-2.1zm2.1 35.8h-2.1v28.7h2.1v-28.7zm3.7-2c.9 0 1.7-.7 1.7-1.6s-.8-1.6-1.7-1.6h-9.9c-.9 0-1.6.7-1.6 1.6s.7 1.6 1.6 1.6h9.9zm1.7-37.6c0-.9-.8-1.6-1.7-1.6h-9.9c-.9 0-1.6.7-1.6 1.6s.7 1.6 1.6 1.6h9.9c.9.2 1.7-.7 1.7-1.6zm-1.7 73.5c.9 0 1.7-.7 1.7-1.6s-.8-1.6-1.7-1.6h-9.9c-.9 0-1.6.7-1.6 1.6s.7 1.6 1.6 1.6h9.9zm29-1h-25.4c-.3 1.7-1.8 3-3.6 3h-1.5l-.2.2v28.1l2.9 2.9h28.1l3.2-3.2v-27.5l-3.5-3.5zm0-37.2l3.6-3.5v-27.5l-3.6-3.5h-25.4c-.3 1.7-1.8 2.9-3.6 2.9h-1.4l-.3.3V301l.2.2h1.5c1.8 0 3.3 1.3 3.6 3h25.4v-.1zm0 35.9l3.6-3.5V309l-3.6-3.5h-25.4c-.3 1.7-1.8 3-3.6 3h-1.5l-.2.2v28.1l.3.3h1.4c1.8 0 3.3 1.3 3.6 2.9h25.4zm3.6-102.9l-3.2-3.2h-28.1l-2.9 2.9V265l.2.2h1.5c1.8 0 3.3 1.3 3.6 3h25.4l3.6-3.5-.1-27.6zM603.9 372.7v-28.1l-.2-.2h-1.5c-1.8 0-3.3-1.3-3.6-3h-25.4l-3.5 3.5v27.5l3.2 3.2H601l2.9-2.9zm-1.7-30.4h9.9c.9 0 1.7-.7 1.7-1.6s-.8-1.6-1.7-1.6h-9.9c-.9 0-1.6.7-1.6 1.6-.1.9.7 1.6 1.6 1.6zm5.9-5.2v-28.7h-2.2v28.7h2.2zm-5.9-30.7h9.9c.9 0 1.7-.7 1.7-1.6s-.8-1.6-1.7-1.6h-9.9c-.9 0-1.6.7-1.6 1.6-.1.9.7 1.6 1.6 1.6zm5.9-5.3v-28.7h-2.2v28.7h2.2zm-5.9-30.5h9.9c.9 0 1.7-.7 1.7-1.6s-.8-1.6-1.7-1.6h-9.9c-.9 0-1.6.7-1.6 1.6-.1.7.7 1.6 1.6 1.6zm5.9-5.4V232h109.7v33.2h2.1V232h109.7v145.6H719.9v-33.2h-2.1v33.2H608.1v-33.2h-2.2v33.2H496.2v-54.3h-28.1v18.2l-11.5 9.2v14.2l18.4 29.4v.3c0 6.5-4.3 11.8-11.4 16l1 1.5c2.1 3.1 2.2 7.2.1 10.2-8.6 12.4-40 16.8-64.4 16.8h-.1c-24.3 0-55.8-4.4-64.3-16.8-2.1-3-2-7.1.1-10.2l1-1.5c-7.5-4.5-11.3-9.9-11.3-16v-.3l18.3-29.6v-14.4l-11-8.9v-18.2h-28.1v54.4H195.3v-33.3h-2.1v33.2H83.4v-33.2h-2.1v33.2H-28.4V231.9H81.3v33.3h2.1V232h109.7v33.2h2.1V232h109.7v56.5H333v-23.8l-.6-.5 17.9-14.4c-16.3-7.9-27.6-20.4-27.6-37.9 0-13.2 22.2-24.4 55.4-28.1l14.6-30.7v-32.9c0-6.3 16.2-6.3 16.2 0V153.4l14.4 30.3c33 3.7 55.1 15 55.1 28.1 0 17.6-11.4 30.1-27.6 37.9l17.9 14.4-.6.5v23.8h28.1v-56.5h109.7v33.3h2.2z"/><g id="XMLID_352_"><path id="XMLID_44_" class="st7" d="M406 154.2l30 63.4c.2.3.2.7.1.9-.1.3-.3.5-.5.6-.3.1-.5.1-.8.1-.3-.1-.5-.3-.7-.7l-30.5-64.3h2.4z"/></g><g id="XMLID_350_"><path id="XMLID_43_" class="st7" d="M363.7 219.1c-.3-.1-.5-.3-.5-.6-.1-.3-.1-.6.1-.9l30-63.4h2.4l-30.5 64.3c-.2.3-.4.6-.7.7-.3 0-.6 0-.8-.1z"/></g><g id="XMLID_343_"><path id="XMLID_344_" d="M400.4 420.8c-35.9 0-72.2-9-72.6-26.1l2.6-4.2c1.6 7.6 9 14.1 21.9 18.7 12.7 4.6 29.8 7.1 48.1 7.1 32 0 66.4-8.1 69.9-25.8l2.6 4.2c-.3 17.1-36.7 26.1-72.5 26.1zm-68.9-32.2c1.6 17.2 35.4 26.2 68.9 26.2 33.4 0 67.2-9 68.9-26.2l-2.3-3.7c-1.6 8.4-10.6 14.5-23 18.5s-28.3 5.9-43.6 5.9c-30.5 0-63.2-7.6-66.6-24.3l-2.3 3.6zm3.3-5.3c1.4 16.2 33.6 24.7 65.5 24.7s64.2-8.5 65.5-24.9l-2.3-3.7c-.9 4.8-4.5 9.1-10.7 12.7-12.1 6.9-32.3 10.4-52.6 10.4s-40.5-3.5-52.6-10.4c-6.1-3.5-9.7-7.7-10.6-12.4l-2.2 3.6zm117.4 7.8c6.5-3.8 10-8.2 10.2-13.3l-2.3-3.7c-2.6 14.9-32.3 21.7-60 21.7-15.6 0-30.2-2.1-41.1-5.8-11-3.8-17.4-9.1-18.8-15.5l-2.2 3.6c.4 5 3.8 9.4 10.2 13 23.4 13.5 80.7 13.4 104 0zm6.8-18.8l-2.4-3.8c-.3 15.4-29.3 22.4-56.2 22.4-14.6 0-28.2-1.9-38.3-5.5-11.7-4.1-17.9-10-17.9-17.1l-2.7 4.4c1 14.3 30 21.8 58.8 21.8 28.9 0 58.3-7.7 58.7-22.2z" fill="#1df6e2"/></g><g id="XMLID_341_"><path id="XMLID_37_" class="st3" d="M457.1 337.3v10.3l-4.7 3.7v-10z"/></g><g id="XMLID_339_"><path id="XMLID_36_" class="st3" d="M451.1 342.4v9.9l-3.9 3.2v-9.7z"/></g><g id="XMLID_337_"><path id="XMLID_35_" class="st3" d="M459 303.5v17.1l-7.9 6.6v13.4l-5.3 4.6v11.4l-11.3 9.1v-74.1l11.3-9v12.9l5.3-4.5v19.2z"/></g><g id="XMLID_335_"><path id="XMLID_34_" class="st3" d="M460.3 321.2v-20.6l-7.9 6.7v-17.4l6-5.2v-12.3l7.7-6.2v74.2l-7.7 6.1v-12.1l-6 5.1v-11.7z"/></g><g id="XMLID_333_"><path id="XMLID_33_" class="st3" d="M452 277.6l5.1-4.2v10.8l-4.7 3.9v-10.5z"/></g><g id="XMLID_331_"><path id="XMLID_32_" class="st3" d="M451.1 278.2v11l-3.9 3.4v-11.2z"/></g><g id="XMLID_329_"><path id="XMLID_31_" class="st5" d="M353.8 345.2v10.1l-4.1-3.2h.1v-10.3z"/></g><g id="XMLID_327_"><path id="XMLID_30_" class="st5" d="M348.5 340.7V351l-4.7-3.7v-10.6z"/></g><g id="XMLID_323_"><path id="XMLID_28_" class="st5" d="M353.8 281.2V292l-4-3.4v-10.5z"/></g><g id="XMLID_321_"><path id="XMLID_27_" class="st5" d="M348.5 276.9v10.6l-4.7-4v-10.3z"/></g><g id="XMLID_178_"><g id="XMLID_325_"><path id="XMLID_29_" class="st5" d="M366.4 291.3v74.1l-11.3-9v-11.8l-5.3-4.6v-13.5l-7.9-6.5v-17.1l7.9 6.7v-19.2l5.3 4.5v-12.7z"/></g><g id="XMLID_319_"><path id="XMLID_26_" class="st5" d="M335.1 323.1V266.2l7.4 5.9v12.1l6 5v17.5l-7.9-6.7v20.6l7.9 6.6v11.7l-6-5.1v12.5l-7.4-5.9z"/></g></g><g id="XMLID_317_"><path id="XMLID_25_" class="st3" d="M388 325.5h25.4v24.8H388z"/></g><g id="XMLID_315_"><path id="XMLID_24_" class="st3" d="M388 312.2h25.4v11.3H388z"/></g><g id="XMLID_313_"><path id="XMLID_23_" class="st3" d="M432.4 291.8v74.7h-31.1v-14.2h14.1v-42.1h-14.1v-18.4z"/></g><g id="XMLID_311_"><path id="XMLID_22_" fill="#ff2646" d="M399.9 352.3v14.2h-31.6v-74.7h31.6v18.4H386v42.1z"/></g><g id="XMLID_300_"><g id="XMLID_309_"><path id="XMLID_21_" class="st10" d="M359.1 390c-11-3.8-17.4-9.1-18.8-15.5l-2.2 3.6c.4 5 3.8 9.4 10.2 13 11.7 6.7 31.9 10.1 52 10.1v-5.4h-.2c-15.6 0-30.2-2.1-41-5.8z"/></g><g id="XMLID_307_"><path id="XMLID_20_" class="st10" d="M362.1 385.4c-11.7-4.1-17.9-10-17.9-17.1l-2.7 4.4c1 14.3 30 21.8 58.8 21.8h.2v-3.6c-14.7 0-28.3-2-38.4-5.5z"/></g><g id="XMLID_305_"><path id="XMLID_19_" class="st10" d="M400.4 416.2c-18.3 0-35.4-2.5-48.1-7.1-12.9-4.6-20.3-11-21.9-18.7l-2.6 4.2c.4 17.2 36.7 26.1 72.6 26.1v-4.5z"/></g><g id="XMLID_303_"><path id="XMLID_18_" class="st10" d="M331.5 388.6c1.6 17.2 35.4 26.2 68.8 26.2v-5.5h-.1c-30.5 0-63.2-7.6-66.6-24.3l-2.1 3.6z"/></g><g id="XMLID_301_"><path id="XMLID_17_" class="st10" d="M334.8 383.3c1.4 16.2 33.6 24.7 65.5 24.7h.1v-5.4h-.1c-20.3 0-40.5-3.5-52.6-10.4-6.1-3.5-9.7-7.7-10.6-12.4l-2.3 3.5z"/></g></g><g id="XMLID_291_"><g id="XMLID_298_"><path id="XMLID_16_" class="st4" d="M333.7 385.1c3.4 16.7 36 24.3 66.6 24.3v-1.3c-31.9 0-64.1-8.5-65.5-24.7l-1.1 1.7z"/></g><g id="XMLID_296_"><path id="XMLID_15_" class="st4" d="M340.3 374.5c1.3 6.3 7.7 11.7 18.8 15.5 10.8 3.8 25.5 5.8 41.1 5.8h.2v-1.3h-.2c-28.7 0-57.8-7.5-58.8-21.8l-1.1 1.8z"/></g><g id="XMLID_294_"><path id="XMLID_14_" class="st4" d="M337 379.8c1 4.7 4.5 8.9 10.6 12.4 12 6.9 32.3 10.4 52.6 10.4h.1v-1.5c-20.2 0-40.4-3.3-52-10.1-6.4-3.7-9.8-8.1-10.2-13l-1.1 1.8z"/></g><g id="XMLID_292_"><path id="XMLID_13_" class="st4" d="M352.3 409.1c12.7 4.6 29.8 7.1 48.1 7.1v-1.3c-33.4 0-67.2-9-68.8-26.2l-1.1 1.8c1.5 7.6 8.9 14 21.8 18.6z"/></g></g><g id="XMLID_289_"><path id="XMLID_12_" class="st0" d="M304.5 291.8h30v1.2h-30z"/></g><g id="XMLID_287_"><path id="XMLID_11_" class="st0" d="M304.5 319.3h30v1.2h-30z"/></g><g id="XMLID_285_"><path id="XMLID_10_" class="st0" d="M467 291.8h30v1.2h-30z"/></g><g id="XMLID_283_"><path id="XMLID_9_" class="st0" d="M467 319.3h30v1.2h-30z"/></g><g id="XMLID_277_"><path id="XMLID_278_" class="st0" d="M84.6 302.1H80v-30.6h4.6v30.6zm112-30.5H192v30.6h4.6v-30.6zm-112 35.8H80V338h4.6v-30.6zm112 0H192V338h4.6v-30.6z"/></g><g id="XMLID_271_"><path id="XMLID_272_" class="st0" d="M609.2 302.1h-4.6v-30.6h4.6v30.6zm112-30.5h-4.6v30.6h4.6v-30.6zm-112 35.8h-4.6V338h4.6v-30.6zm112 0h-4.6V338h4.6v-30.6z"/></g><g id="XMLID_177_"><path id="XMLID_222_" class="st11" d="M190.9 344.4h-1.5c-1.8 0-3.3-1.3-3.6-3h-25.4l-3.5 3.5v27.5l3.2 3.2h28.1l2.9-2.9v-28.1l-.2-.2z"/><path id="XMLID_221_" class="st11" d="M190.9 337.1l.3-.3v-28.1l-.2-.2h-1.6c-1.8 0-3.3-1.3-3.6-3h-25.4l-3.5 3.5v27.5l3.5 3.5h25.4c.3-1.7 1.8-2.9 3.6-2.9h1.5z"/><path id="XMLID_220_" class="st11" d="M190.9 301.2l.2-.2v-28.2l-.3-.3h-1.4c-1.8 0-3.3-1.3-3.6-2.9h-25.4l-3.5 3.5v27.5l3.5 3.5h25.4c.3-1.7 1.8-3 3.6-3h1.5v.1z"/><path id="XMLID_219_" class="st11" d="M190.9 265.3l.2-.2v-28.2l-2.9-2.9h-28.1l-3.2 3.2v27.5l3.5 3.5h25.4c.3-1.7 1.8-3 3.6-3l1.5.1z"/></g><g id="XMLID_204_"><path id="XMLID_208_" class="st12" d="M79.1 344.4h-1.5c-1.8 0-3.3-1.3-3.6-3H48.6l-3.5 3.5v27.5l3.2 3.2h28.1l2.9-2.9v-28.1l-.2-.2z"/><path id="XMLID_207_" class="st12" d="M79 337.1l.3-.3v-28.1l-.2-.2h-1.5c-1.8 0-3.3-1.3-3.6-3H48.6l-3.5 3.5v27.5l3.5 3.5H74c.3-1.7 1.8-2.9 3.6-2.9H79z"/><path id="XMLID_206_" class="st12" d="M79 301.2l.2-.2v-28.2l-.3-.3h-1.4c-1.8 0-3.3-1.3-3.6-2.9H48.5l-3.5 3.5v27.5l3.5 3.5h25.4c.3-1.7 1.8-3 3.6-3H79v.1z"/><path id="XMLID_205_" class="st12" d="M79.1 265.3l.2-.2v-28.2l-2.9-2.9H48.3l-3.2 3.2v27.5l3.5 3.5H74c.3-1.7 1.8-3 3.6-3l1.5.1z"/></g><g id="XMLID_209_"><path id="XMLID_217_" class="st13" d="M85.4 344.6v28.1l2.9 2.9h28.1l3.2-3.2v-27.5l-3.5-3.5H90.7c-.3 1.7-1.8 3-3.6 3h-1.5l-.2.2z"/><path id="XMLID_212_" class="st13" d="M87.1 337.1c1.8 0 3.3 1.3 3.6 2.9h25.4l3.5-3.5V309l-3.5-3.5H90.7c-.3 1.7-1.8 3-3.6 3h-1.5l-.2.2v28.1l.3.3h1.4z"/><path id="XMLID_211_" class="st13" d="M87.1 301.2c1.8 0 3.3 1.3 3.6 3h25.4l3.5-3.5v-27.5l-3.5-3.5H90.7c-.3 1.7-1.8 2.9-3.6 2.9h-1.4l-.3.3v28.2l.2.2h1.5v-.1z"/><path id="XMLID_210_" class="st13" d="M87.1 265.3c1.8 0 3.3 1.3 3.6 3h25.4l3.5-3.5v-27.6l-3.2-3.2H88.3l-2.9 2.9v28.2l.2.2h1.5z"/></g><g id="XMLID_179_"><path id="XMLID_183_" class="st14" d="M603.7 344.4h-1.5c-1.8 0-3.3-1.3-3.6-3h-25.4l-3.5 3.5v27.5l3.2 3.2H601l2.9-2.9v-28.1l-.2-.2z"/><path id="XMLID_182_" class="st14" d="M603.7 337.1l.3-.3v-28.1l-.2-.2h-1.5c-1.8 0-3.3-1.3-3.6-3h-25.4l-3.5 3.5v27.5l3.5 3.5h25.4c.3-1.7 1.8-2.9 3.6-2.9h1.4z"/><path id="XMLID_181_" class="st14" d="M603.7 301.2l.2-.2v-28.2l-.3-.3h-1.4c-1.8 0-3.3-1.3-3.6-2.9h-25.4l-3.5 3.5v27.5l3.5 3.5h25.4c.3-1.7 1.8-3 3.6-3h1.5v.1z"/><path id="XMLID_180_" class="st14" d="M603.7 265.3l.2-.2v-28.2L601 234h-28.1l-3.2 3.2v27.5l3.5 3.5h25.4c.3-1.7 1.8-3 3.6-3l1.5.1z"/></g><g id="XMLID_184_"><path id="XMLID_188_" class="st13" d="M715.6 344.4h-1.5c-1.8 0-3.3-1.3-3.6-3h-25.4l-3.5 3.5v27.5l3.2 3.2h28.1l2.9-2.9v-28.1l-.2-.2z"/><path id="XMLID_187_" class="st13" d="M715.5 337.1l.3-.3v-28.1l-.2-.2h-1.5c-1.8 0-3.3-1.3-3.6-3h-25.4l-3.5 3.5v27.5l3.5 3.5h25.4c.3-1.7 1.8-2.9 3.6-2.9h1.4z"/><path id="XMLID_186_" class="st13" d="M715.5 301.2l.2-.2v-28.2l-.3-.3H714c-1.8 0-3.3-1.3-3.6-2.9H685l-3.5 3.5v27.5l3.5 3.5h25.4c.3-1.7 1.8-3 3.6-3h1.5v.1z"/><path id="XMLID_185_" class="st13" d="M715.6 265.3l.2-.2v-28.2l-2.9-2.9h-28.1l-3.2 3.2v27.5l3.5 3.5h25.4c.3-1.7 1.8-3 3.6-3l1.5.1z"/></g><g id="XMLID_189_"><path id="XMLID_193_" class="st12" d="M721.9 344.5v28.1l2.9 2.9h28.1l3.2-3.2v-27.5l-3.5-3.5h-25.4c-.3 1.7-1.8 3-3.6 3h-1.5l-.2.2z"/><path id="XMLID_192_" class="st12" d="M723.6 337c1.8 0 3.3 1.3 3.6 2.9h25.4l3.5-3.5v-27.5l-3.5-3.5h-25.4c-.3 1.7-1.8 3-3.6 3h-1.5l-.2.2v28.1l.3.3h1.4z"/><path id="XMLID_191_" class="st12" d="M723.6 301c1.8 0 3.3 1.3 3.6 3h25.4l3.5-3.5V273l-3.5-3.5h-25.4c-.3 1.7-1.8 2.9-3.6 2.9h-1.4l-.3.3v28.2l.2.2h1.5v-.1z"/><path id="XMLID_190_" class="st12" d="M723.6 265.1c1.8 0 3.3 1.3 3.6 3h25.4l3.5-3.5v-27.5l-3.2-3.2h-28.1l-2.9 2.9V265l.2.2h1.5v-.1z"/></g><g id="XMLID_194_"><path id="XMLID_198_" class="st11" d="M610 344.6v28.1l2.9 2.9H641l3.2-3.2v-27.5l-3.5-3.5h-25.4c-.3 1.7-1.8 3-3.6 3h-1.5l-.2.2z"/><path id="XMLID_197_" class="st11" d="M611.7 337.1c1.8 0 3.3 1.3 3.6 2.9h25.4l3.5-3.5V309l-3.5-3.5h-25.4c-.3 1.7-1.8 3-3.6 3h-1.5l-.2.2v28.1l.3.3h1.4z"/><path id="XMLID_196_" class="st11" d="M611.7 301.2c1.8 0 3.3 1.3 3.6 3h25.4l3.5-3.5v-27.5l-3.5-3.5h-25.4c-.3 1.7-1.8 2.9-3.6 2.9h-1.4l-.3.3v28.2l.2.2h1.5v-.1z"/><path id="XMLID_195_" class="st11" d="M611.7 265.3c1.8 0 3.3 1.3 3.6 3h25.4l3.5-3.5v-27.6L641 234h-28.1l-2.9 2.9v28.2l.2.2h1.5z"/></g><g id="XMLID_199_"><path id="XMLID_203_" class="st14" d="M197.3 344.6v28.1l2.9 2.9h28.1l3.2-3.2v-27.5l-3.5-3.5h-25.4c-.3 1.7-1.8 3-3.6 3h-1.5l-.2.2z"/><path id="XMLID_202_" class="st14" d="M199 337.1c1.8 0 3.3 1.3 3.6 2.9H228l3.5-3.5V309l-3.5-3.5h-25.4c-.3 1.7-1.8 3-3.6 3h-1.5l-.2.2v28.1l.3.3h1.4z"/><path id="XMLID_201_" class="st14" d="M199 301.2c1.8 0 3.3 1.3 3.6 3H228l3.5-3.5v-27.5l-3.5-3.5h-25.4c-.3 1.7-1.8 2.9-3.6 2.9h-1.4l-.3.3v28.2l.2.2h1.5v-.1z"/><path id="XMLID_200_" class="st14" d="M199 265.3c1.8 0 3.3 1.3 3.6 3H228l3.5-3.5v-27.6l-3.2-3.2h-28.1l-2.9 2.9v28.2l.2.2h1.5z"/></g><g id="XMLID_216_"><path id="XMLID_247_" class="st15" d="M40.3 341.5H12.8L9.3 345v27.5l3.2 3.2h28.1l3.2-3.2V345z"/><path id="XMLID_232_" class="st15" d="M40.3 305.6H12.8l-3.5 3.5v27.5l3.5 3.6h27.5l3.5-3.6v-27.5z"/><path id="XMLID_229_" class="st15" d="M40.3 269.7H12.8l-3.5 3.5v27.5l3.5 3.6h27.5l3.5-3.6v-27.5z"/><path id="XMLID_214_" class="st15" d="M40.6 234.1H12.5l-3.2 3.3v27.4l3.5 3.5h27.5l3.5-3.5v-27.4z"/></g><g id="XMLID_218_"><path id="XMLID_226_" class="st2" d="M152 341.5h-27.5L121 345v27.5l3.2 3.2h28.2l3.2-3.2V345z"/><path id="XMLID_225_" class="st2" d="M152 305.6h-27.5l-3.5 3.5v27.5l3.5 3.6H152l3.6-3.6v-27.5z"/><path id="XMLID_224_" class="st2" d="M152 269.7h-27.5l-3.5 3.5v27.5l3.5 3.6H152l3.6-3.6v-27.5z"/><path id="XMLID_223_" class="st2" d="M152.4 234.1h-28.2l-3.2 3.3v27.4l3.5 3.5H152l3.6-3.5v-27.4z"/></g><g id="XMLID_227_"><path id="XMLID_238_" class="st16" d="M299.6 341.5h-27.4l-3.6 3.5v27.5l3.2 3.2H300l3.2-3.2V345z"/><path id="XMLID_237_" class="st16" d="M299.6 305.6h-27.4l-3.6 3.5v27.5l3.6 3.6h27.4l3.6-3.6v-27.5z"/><path id="XMLID_235_" class="st16" d="M299.6 269.7h-27.4l-3.6 3.5v27.5l3.6 3.6h27.4l3.6-3.6v-27.5z"/><path id="XMLID_234_" class="st16" d="M300 234.1h-28.2l-3.2 3.3v27.4l3.6 3.5h27.4l3.6-3.5v-27.4z"/></g><g id="XMLID_239_"><path id="XMLID_243_" class="st17" d="M263.9 341.5h-27.5l-3.5 3.5v27.5l3.2 3.2h28.1l3.2-3.2V345z"/><path id="XMLID_242_" class="st17" d="M263.9 305.6h-27.5l-3.5 3.5v27.5l3.5 3.6h27.5l3.5-3.6v-27.5z"/><path id="XMLID_241_" class="st17" d="M263.9 269.7h-27.5l-3.5 3.5v27.5l3.5 3.6h27.5l3.5-3.6v-27.5z"/><path id="XMLID_240_" class="st17" d="M264.2 234.1h-28.1l-3.2 3.3v27.4l3.5 3.5h27.5l3.5-3.5v-27.4z"/></g><g id="XMLID_215_"><path id="XMLID_246_" class="st6" d="M824.3 341.2h-27.5l-3.6 3.6v27.5l3.2 3.2h28.2l3.2-3.2v-27.5z"/><path id="XMLID_236_" class="st6" d="M824.3 305.3h-27.5l-3.6 3.6v27.5l3.6 3.5h27.5l3.5-3.5v-27.5z"/><path id="XMLID_233_" class="st6" d="M824.3 269.4h-27.5l-3.6 3.7v27.4l3.6 3.5h27.5l3.5-3.5v-27.4z"/><path id="XMLID_228_" class="st6" d="M824.6 233.9h-28.2l-3.2 3.2v27.5l3.6 3.5h27.5l3.5-3.5v-27.5z"/></g><g id="XMLID_244_"><path id="XMLID_274_" class="st16" d="M528.9 341.2h-27.5l-3.6 3.6v27.5l3.2 3.2h28.2l3.2-3.2v-27.5z"/><path id="XMLID_273_" class="st16" d="M528.9 305.3h-27.5l-3.6 3.6v27.5l3.6 3.5h27.5l3.5-3.5v-27.5z"/><path id="XMLID_269_" class="st16" d="M528.9 269.4h-27.5l-3.6 3.7v27.4l3.6 3.5h27.5l3.5-3.5v-27.4z"/><path id="XMLID_245_" class="st16" d="M529.2 233.9H501l-3.2 3.2v27.5l3.6 3.5h27.5l3.5-3.5v-27.5z"/></g><g id="XMLID_275_"><path id="XMLID_281_" class="st17" d="M564.7 341.3h-27.5l-3.5 3.6v27.5l3.2 3.2H565l3.2-3.2v-27.5z"/><path id="XMLID_280_" class="st17" d="M564.7 305.4h-27.5l-3.5 3.6v27.5l3.5 3.5h27.5l3.5-3.5V309z"/><path id="XMLID_279_" class="st17" d="M564.7 269.6h-27.5l-3.5 3.5v27.5l3.5 3.5h27.5l3.5-3.5v-27.5z"/><path id="XMLID_276_" class="st17" d="M565 233.9h-28.1l-3.2 3.3v27.4l3.5 3.6h27.5l3.5-3.6v-27.4z"/></g><g id="XMLID_282_"><path id="XMLID_290_" class="st2" d="M676.7 341.3h-27.5l-3.6 3.6v27.5l3.2 3.2H677l3.2-3.2v-27.5z"/><path id="XMLID_288_" class="st2" d="M676.7 305.4h-27.5l-3.6 3.6v27.5l3.6 3.5h27.5l3.5-3.5V309z"/><path id="XMLID_286_" class="st2" d="M676.7 269.6h-27.5l-3.6 3.5v27.5l3.6 3.5h27.5l3.5-3.5v-27.5z"/><path id="XMLID_284_" class="st2" d="M677 233.9h-28.2l-3.2 3.3v27.4l3.6 3.6h27.5l3.5-3.6v-27.4z"/></g><g id="XMLID_293_"><path id="XMLID_302_" class="st15" d="M788.4 341.3H761l-3.6 3.6v27.5l3.2 3.2h28.2l3.2-3.2v-27.5z"/><path id="XMLID_299_" class="st15" d="M788.4 305.4H761l-3.6 3.6v27.5l3.6 3.5h27.4l3.6-3.5V309z"/><path id="XMLID_297_" class="st15" d="M788.4 269.6H761l-3.6 3.5v27.5l3.6 3.5h27.4l3.6-3.5v-27.5z"/><path id="XMLID_295_" class="st15" d="M788.8 233.9h-28.2l-3.2 3.3v27.4l3.6 3.6h27.4l3.6-3.6v-27.4z"/></g></g></svg>