<?xml version="1.0" encoding="utf-8"?>
<!-- Generator: Adobe Illustrator 19.0.0, SVG Export Plug-In . SVG Version: 6.00 Build 0)  -->
<svg version="1.1" id="Layer_1" xmlns="http://www.w3.org/2000/svg" xmlns:xlink="http://www.w3.org/1999/xlink" x="0px" y="0px"
	 viewBox="-162 -187 1254.1 934" style="enable-background:new -162 -187 1254.1 934;" xml:space="preserve">
<style type="text/css">
	.st0{fill:url(#SVGID_1_);}
	.st1{clip-path:url(#SVGID_3_);fill:url(#SVGID_4_);}
	.st2{fill:url(#SVGID_5_);}
	.st3{fill:url(#SVGID_6_);}
	.st4{fill:#0682CE;}
	.st5{fill:url(#SVGID_7_);}
	.st6{fill:url(#SVGID_8_);}
	.st7{fill:url(#SVGID_9_);}
	.st8{fill:#0095E0;}
	.st9{fill:#33A0E2;}
	.st10{fill:#3288D6;}
	.st11{fill:#F24995;}
	.st12{fill:#DB2A83;}
	.st13{fill:url(#SVGID_10_);}
	.st14{fill:url(#SVGID_11_);}
	.st15{fill:url(#SVGID_12_);}
	.st16{fill:url(#SVGID_13_);}
	.st17{fill:none;}
	.st18{fill:#F0F1F1;}
	.st19{fill:#D2D3D3;}
	.st20{opacity:0.21;}
	.st21{fill:#FFFFFF;}
	.st22{fill:#30213A;}
	.st23{fill:url(#SVGID_14_);}
	.st24{fill:url(#SVGID_15_);}
	.st25{fill:url(#SVGID_16_);}
	.st26{fill:url(#SVGID_17_);}
	.st27{fill:url(#SVGID_18_);}
	.st28{fill:url(#SVGID_19_);}
	.st29{fill:url(#SVGID_20_);}
	.st30{fill:url(#SVGID_21_);}
	.st31{fill:url(#SVGID_22_);}
	.st32{fill:#0EBDE5;}
</style>
<g>
	
		<linearGradient id="SVGID_1_" gradientUnits="userSpaceOnUse" x1="1107.9758" y1="542.0247" x2="1282.6279" y2="-220.2038" gradientTransform="matrix(-1 0 0 1 1695.7365 0)">
		<stop  offset="0" style="stop-color:#1D1B4E"/>
		<stop  offset="0.9987" style="stop-color:#61EAFD"/>
	</linearGradient>
	<path class="st0" d="M85.1,420c57.5-23.6,132.5-8.4,175.6-53.2c26.7-27.7,31.3-69.8,51.9-102.3c31.2-49.4,93.5-68.9,151.6-75.2
		c52.6-5.7,110.6-5.3,151.2-39.3c36.9-31,49.9-83.7,86.9-114.5C744.8,0,806.5,2.9,861.4,10.1c47.7,6.3,95.2,14.4,142.3,24.4
		c16.3,3.4,37.8,6.1,59.2,10.1V690h-968c-5.5-4.3-11-8.6-16.4-13.1c-29.7-25-57.3-54.7-69.5-91.6C-11.9,521.9,23.3,445.3,85.1,420z"
		/>
	<g>
		<defs>
			<path id="SVGID_2_" d="M909.8,4.9C854.9-2.3,793.2-5.2,750.7,30.2c-37,30.8-50.1,83.5-86.9,114.5
				c-40.5,34.1-98.5,33.7-151.2,39.3c-58.1,6.3-120.4,25.8-151.6,75.2c-20.5,32.5-25.2,74.6-51.9,102.3
				C266,406.3,191,391.1,133.5,414.7c-61.7,25.4-96.9,102-76,165.4c12.2,36.9,39.8,66.6,69.5,91.6c59,49.6,129.5,85.4,204.4,103.6
				c94.4,23,193,18.1,290.1,16.6c117.9-1.8,236.7,1.4,352.6-20.6c59.3-11.2,118.5-29.6,167.1-65.5c64.9-47.8,104.6-122,137.6-195.5
				c13.2-29.4,25.9-60.1,25.5-92.3c-0.7-58.1-42.7-106.1-70.3-157.2c-20.2-37.5-33.2-78.8-38.1-121.1c-2.9-24.3,4.4-60.2-17.6-76.9
				c-29.4-22.4-90.4-26.1-126-33.6C1005,19.3,957.5,11.2,909.8,4.9z"/>
		</defs>
		<clipPath id="SVGID_3_">
			<use xlink:href="#SVGID_2_"  style="overflow:visible;"/>
		</clipPath>
		
			<linearGradient id="SVGID_4_" gradientUnits="userSpaceOnUse" x1="1236.912" y1="489.1883" x2="1467.078" y2="-433.3466" gradientTransform="matrix(-1 0 0 1 1695.7365 0)">
			<stop  offset="0" style="stop-color:#0F71D8"/>
			<stop  offset="1" style="stop-color:#8DEAFD"/>
		</linearGradient>
		<rect x="-307.1" y="-161" class="st1" width="1418.4" height="845.8"/>
	</g>
	<linearGradient id="SVGID_5_" gradientUnits="userSpaceOnUse" x1="1046.7355" y1="-42.8003" x2="1100.506" y2="-42.8003">
		<stop  offset="0" style="stop-color:#1D1B4E"/>
		<stop  offset="0.9987" style="stop-color:#61EAFD"/>
	</linearGradient>
	<circle class="st2" cx="1073.6" cy="-42.8" r="26.9"/>
	<linearGradient id="SVGID_6_" gradientUnits="userSpaceOnUse" x1="127.8388" y1="608.8472" x2="195.1223" y2="608.8472">
		<stop  offset="0" style="stop-color:#1D1B4E"/>
		<stop  offset="0.9987" style="stop-color:#61EAFD"/>
	</linearGradient>
	<circle class="st3" cx="161.5" cy="608.8" r="33.6"/>
	<path class="st4" d="M-7.4,661.5c-7.2-69.2,43-131.1,112.1-138.3c8.8-0.9,17.4-0.9,25.9,0c5.6-24.4,26.2-43.7,52.5-46.4
		c21.8-2.3,42,7.3,54.4,23.6c24.1-0.3,46.4,8.8,63.2,24.2c5.6-6.1,13.3-10.3,22.1-11.2c18.2-1.9,34.5,10.5,37.9,28.1
		c7.6-7.6,17.9-12.8,29.4-14c11.9-1.2,23.3,1.9,32.5,8.2c9.5-15.1,25.6-25.8,44.8-27.8c25.8-2.7,49.5,11.3,60.3,33.2
		c11.6-10,26.3-16.7,42.7-18.4c19.5-2,38.1,3.3,52.9,13.7c4.6-11.9,15.4-20.9,29-22.3c16.2-1.7,31,8,36.3,22.6
		c9.7-11.2,23.5-18.9,39.3-20.5c10.4-1.1,20.5,0.5,29.5,4.3c8.3-19.6,26.7-34.1,49.3-36.5c7.7-0.8,15.2-0.1,22.2,1.8
		c14.1-26.2,37.3-47,65.9-57.9c-2.3-4.3-3.8-9.2-4.4-14.4c-1.8-17.1,7.6-32.7,22.3-39.7c-11.6-9.7-19.6-23.8-21.3-40
		c-2.3-22,7.5-42.4,24.1-54.7c-16.6-1.2-30.4-14.1-32.2-31.2c-1.4-13.2,4.8-25.5,15-32.5c-6.7-5.6-11.3-13.7-12.2-23.1
		c-2-19.2,11.9-36.4,31.1-38.4c4-0.4,7.9-0.1,11.7,0.8c-3.6-6.8-6.1-14.4-6.9-22.5c-3-28.9,14.5-55.1,40.8-64.2
		c-0.6-2.2-1-4.5-1.2-6.8c-2.8-26.8,16.7-50.8,43.5-53.6c26.8-2.8,50.8,16.7,53.6,43.5c0.6,5.7,0.2,11.2-1.1,16.5l148.5,42.1
		l-64.7,604.1L106.9,810.3l4.3-36.2C50.4,771-0.9,724-7.4,661.5z"/>
	<g>
		<linearGradient id="SVGID_7_" gradientUnits="userSpaceOnUse" x1="989.3322" y1="533.6132" x2="846.8831" y2="615.8561">
			<stop  offset="0" style="stop-color:#1D1B4E"/>
			<stop  offset="0.9987" style="stop-color:#02EAFD"/>
		</linearGradient>
		<polygon class="st5" points="1112,813.5 1137.5,790.3 724.2,336 698.7,359.2 		"/>
		<linearGradient id="SVGID_8_" gradientUnits="userSpaceOnUse" x1="953.3952" y1="563.6306" x2="827.0614" y2="636.5694">
			<stop  offset="0" style="stop-color:#1D1B4E"/>
			<stop  offset="0.9987" style="stop-color:#02EAFD"/>
		</linearGradient>
		<polygon class="st6" points="1091.2,832.4 1102.6,822.1 689.3,367.8 677.8,378.1 		"/>
		<linearGradient id="SVGID_9_" gradientUnits="userSpaceOnUse" x1="1009.1539" y1="512.9001" x2="882.8202" y2="585.8389">
			<stop  offset="0" style="stop-color:#1D1B4E"/>
			<stop  offset="0.9987" style="stop-color:#02EAFD"/>
		</linearGradient>
		<polygon class="st7" points="1147,781.7 1158.4,771.3 745,317 733.6,327.4 		"/>
	</g>
	<path class="st8" d="M-82.7,631c-1.1-29.9,22.3-54.9,52.1-56c12.2-0.4,23.6,3.2,32.8,9.6c17.8-16.1,41.1-26.3,67-27.2
		c34.9-1.3,66.5,14.6,86.7,40.1c16.8-12.8,37.5-20.8,60.2-21.6c3.7-0.1,7.4-0.1,11.1,0.2c1.9-14.8,14.3-26.5,29.7-27
		c11-0.4,20.8,4.9,26.6,13.3c9.4-9.8,22.5-16.2,37.2-16.7c12.8-0.5,24.8,3.6,34.3,10.7c9-7.8,20.6-12.7,33.5-13.2
		c28.5-1,52.7,20.2,55.7,48.2c1.2-0.6,2.3-1.2,3.6-1.7c13-5.4,26.8-5.5,39.1-1.1c1.9-18.3,17-33,35.9-33.6
		c10.3-0.4,19.9,3.5,26.9,10c8.8-7.2,20-11.7,32.2-12.1c22.9-0.8,42.9,12.7,51.5,32.4c7.7-4,16.4-6.4,25.7-6.7
		c7.2-0.3,14.1,0.7,20.6,2.8c11-34.6,42.7-60.3,81.1-61.7c14-0.5,27.4,2.3,39.3,7.7c1.2-14.8,13.3-26.7,28.5-27.2
		c1.6-0.1,3.2,0,4.7,0.2c6.3-12.9,19.3-21.9,34.6-22.5c3.3-0.1,6.5,0.2,9.6,0.8c2-18.7,13.6-34.6,29.8-42.7
		c-6-16.3-3.6-33.8,5.2-47.5c-4.1-3.8-6.7-9.1-6.9-15.1c-0.4-10.1,6.2-18.7,15.4-21.5c-6.1-6.4-9.9-14.9-10.3-24.4
		c-0.5-13.8,6.6-26.2,17.5-33c-7.8-9-12.7-20.6-13.2-33.5c-0.8-21.3,10.8-40.1,28.4-49.6c-4.6-5.2-7.6-12-7.8-19.6
		c-0.6-17.2,12.8-31.6,30-32.2c0.7,0,1.4,0,2,0c-1.5-4.9-2.4-10.1-2.6-15.6c-0.9-25.9,14.5-48.7,37-58.2c-1.3-6.1-2.2-12.4-2.4-18.9
		c-2.1-58.3,43.4-107.2,101.7-109.3c58.3-2.1,107.2,43.4,109.3,101.7c2.1,58.3-43.4,107.2-101.7,109.3c-5.6,0.2-11.2,0-16.6-0.7
		l30.4,380.8L859.6,807.7l-874.7-18.4l-20.1-106.6C-61.2,679.6-81.8,657.9-82.7,631z"/>
	<path class="st9" d="M166.6,715.1c-7.5-59.5,34.7-113.8,94.2-121.3c7.6-0.9,15-1.1,22.3-0.5c4.4-21.1,21.8-38.1,44.5-41
		c18.7-2.4,36.4,5.6,47.3,19.3c20.7-0.7,40.2,6.8,54.9,19.7c4.7-5.3,11.3-9.1,18.9-10c15.6-2,30,8.4,33.2,23.6
		c6.5-6.7,15.2-11.4,25.1-12.6c10.3-1.3,20.1,1.2,28.2,6.5c8-13.2,21.6-22.7,38.1-24.8c22.2-2.8,42.8,8.8,52.6,27.5
		c9.9-8.8,22.4-14.8,36.5-16.6c16.8-2.1,32.9,2.2,45.9,10.9c3.7-10.3,12.9-18.3,24.6-19.7c13.9-1.8,26.8,6.3,31.8,18.9
		c8.1-9.8,19.9-16.7,33.5-18.4c9-1.1,17.7,0.1,25.5,3.2c6.8-17,22.4-29.9,41.9-32.4c6.6-0.8,13.1-0.4,19.1,1.2
		c11.7-22.8,31.3-41.2,55.7-51.1c-2.1-3.7-3.5-7.8-4-12.3c-1.8-14.7,6-28.3,18.5-34.6c-10.2-8.2-17.4-20.1-19.1-34.1
		c-2.4-18.9,5.7-36.7,19.8-47.6c-14.3-0.7-26.5-11.6-28.3-26.3c-1.4-11.4,3.7-22,12.4-28.3c-5.8-4.7-10-11.6-11-19.7
		c-2.1-16.5,9.6-31.6,26.1-33.6c3.5-0.4,6.9-0.2,10.1,0.5c-3.3-5.8-5.5-12.3-6.4-19.3c-3.1-24.8,11.5-47.8,34-56.1
		c-0.5-1.9-0.9-3.9-1.2-5.9c-2.9-23.1,13.5-44.1,36.5-47c23.1-2.9,44.1,13.5,47,36.5c0.6,4.9,0.4,9.7-0.6,14.2l128.8,33.6
		l-44.9,522.1l-890.3,102l3-31.3C218.4,808.5,173.4,768.8,166.6,715.1z"/>
	<path class="st10" d="M202.6,719.2c-3.3-24.7,14-47.5,38.7-50.8c10.1-1.4,19.8,0.7,28.1,5.3c13.5-14.8,32-25.2,53.4-28.1
		c28.9-3.9,56.4,6.7,75.3,26.2c12.9-12,29.4-20.3,48.2-22.9c3.1-0.4,6.2-0.7,9.2-0.8c0.4-12.4,9.7-23.2,22.4-24.9
		c9.1-1.2,17.7,2.4,23.2,8.9c7-8.9,17.4-15.3,29.5-16.9c10.6-1.4,20.9,0.9,29.4,6.1c6.8-7.2,16.1-12.3,26.7-13.7
		c23.6-3.2,45.4,12.5,50.2,35.4c0.9-0.6,1.9-1.2,2.8-1.7c10.3-5.6,21.8-6.7,32.4-4.1c0-15.4,11.4-28.8,27.1-30.9
		c8.6-1.2,16.8,1.3,23.1,6.1c6.7-6.7,15.6-11.4,25.8-12.7c18.9-2.6,36.7,7,45.5,22.7c6.1-3.9,13.1-6.6,20.8-7.7
		c6-0.8,11.8-0.5,17.4,0.6c6.3-29.7,30.6-53.6,62.3-57.9c11.6-1.6,22.9-0.3,33.3,3.1c-0.2-12.4,8.8-23.3,21.4-25
		c1.3-0.2,2.6-0.2,4-0.2c4.2-11.2,14.2-19.8,26.9-21.5c2.7-0.4,5.4-0.4,8-0.1c0.1-15.7,8.4-29.9,21.3-37.9
		c-6.3-13-5.7-27.8,0.4-39.9c-3.7-2.8-6.3-7-7-11.9c-1.1-8.3,3.6-16.1,11-19.1c-5.6-4.8-9.5-11.6-10.5-19.4
		c-1.6-11.4,3.3-22.3,11.8-28.9c-7.2-6.8-12.3-16.1-13.7-26.7c-2.4-17.6,5.7-34.2,19.5-43.5c-4.3-4-7.3-9.4-8.1-15.6
		c-1.9-14.2,8-27.3,22.2-29.2c0.6-0.1,1.1-0.1,1.7-0.1c-1.7-4-2.8-8.2-3.4-12.7c-2.9-21.5,8.1-41.6,26-51.4
		c-1.6-5-2.8-10.1-3.6-15.5c-6.5-48.2,27.3-92.6,75.5-99.1c48.2-6.5,92.6,27.3,99.1,75.5c6.5,48.2-27.3,92.6-75.5,99.1
		c-4.7,0.6-9.3,0.9-13.8,0.8l56.5,313.8L999.9,788.7l-728.1,56.5l-25.5-86.9C224.5,757.8,205.6,741.5,202.6,719.2z"/>
	<g>
		<g>
			<path class="st11" d="M740,363.9c3.6-8,7.6-15.7,12.1-23.2c4.7-7.7,10-16,11-24.7l19,15.7c0.2,0.1,0.4,0.3,0.6,0.5
				c5,5.5-11.8,29-37.6,52.4c-2.4,2.2-4.7,4.2-7.1,6.2c-1.3-2.9-2.3-5.8-2.5-9C735.1,375.6,737.4,369.6,740,363.9z"/>
			<path class="st12" d="M689.4,417.1c-0.2-0.2-0.3-0.4-0.4-0.7l-54-79.7l72.8-66.3l55.3,45.6c-0.9,8.7-6.3,17-11,24.7
				c-4.5,7.5-8.6,15.2-12.1,23.2c-2.5,5.7-4.9,11.7-4.4,17.9c0.2,3.2,1.2,6.2,2.5,9C715,410.6,694,422.1,689.4,417.1z"/>
		</g>
		<g>
			<linearGradient id="SVGID_10_" gradientUnits="userSpaceOnUse" x1="591.0154" y1="211.3549" x2="871.7572" y2="211.3549">
				<stop  offset="0" style="stop-color:#1D1B4E"/>
				<stop  offset="0.3881" style="stop-color:#1D1D50;stop-opacity:0.6308"/>
				<stop  offset="0.5279" style="stop-color:#1C2455;stop-opacity:0.4979"/>
				<stop  offset="0.6276" style="stop-color:#1A2F5F;stop-opacity:0.403"/>
				<stop  offset="0.7081" style="stop-color:#18406E;stop-opacity:0.3264"/>
				<stop  offset="0.7771" style="stop-color:#155680;stop-opacity:0.2608"/>
				<stop  offset="0.8383" style="stop-color:#127297;stop-opacity:0.2026"/>
				<stop  offset="0.8936" style="stop-color:#0D92B3;stop-opacity:0.15"/>
				<stop  offset="0.9445" style="stop-color:#09B8D3;stop-opacity:0.1016"/>
				<stop  offset="0.9897" style="stop-color:#03E1F5;stop-opacity:5.852324e-002"/>
				<stop  offset="0.9987" style="stop-color:#02EAFD;stop-opacity:5.000000e-002"/>
			</linearGradient>
			<path class="st13" d="M638.1,115.7c32.8,40.3,67.4,79.4,109.5,109.4c16.9,12,35,22.6,54.9,28.6c13.8,4.2,28.5,6,42.8,4.5l26.5,31
				v0c-22.1,20.1-53.4,23.6-75.8,8.4L591,158.5L638.1,115.7z"/>
			<linearGradient id="SVGID_11_" gradientUnits="userSpaceOnUse" x1="638.0551" y1="177.6189" x2="845.299" y2="177.6189">
				<stop  offset="0" style="stop-color:#02EAFD"/>
				<stop  offset="1.302001e-003" style="stop-color:#02EAFD"/>
				<stop  offset="0.374" style="stop-color:#04E8FC;stop-opacity:0.6641"/>
				<stop  offset="0.5083" style="stop-color:#0BE3F7;stop-opacity:0.5431"/>
				<stop  offset="0.604" style="stop-color:#16D9EF;stop-opacity:0.4568"/>
				<stop  offset="0.6815" style="stop-color:#27CBE3;stop-opacity:0.387"/>
				<stop  offset="0.7478" style="stop-color:#3DB9D4;stop-opacity:0.3272"/>
				<stop  offset="0.8066" style="stop-color:#59A3C1;stop-opacity:0.2743"/>
				<stop  offset="0.8597" style="stop-color:#7989AB;stop-opacity:0.2264"/>
				<stop  offset="0.9085" style="stop-color:#9F6A91;stop-opacity:0.1825"/>
				<stop  offset="0.9539" style="stop-color:#CA4673;stop-opacity:0.1415"/>
				<stop  offset="0.9943" style="stop-color:#F82153;stop-opacity:0.1052"/>
				<stop  offset="1" style="stop-color:#FF1B4E;stop-opacity:0.1"/>
			</linearGradient>
			<path class="st14" d="M802.5,253.8c-19.8-6-38-16.6-54.9-28.6c-42.2-30.1-76.7-69.1-109.5-109.4l3.5-3.1
				c24.6-22.4,61.2-21.2,81.3,2.4l122.4,143.3C831,259.7,816.3,257.9,802.5,253.8z"/>
		</g>
		<g>
			<linearGradient id="SVGID_12_" gradientUnits="userSpaceOnUse" x1="649.5834" y1="314.696" x2="464.8281" y2="314.696">
				<stop  offset="0" style="stop-color:#FF1B4E;stop-opacity:0.1"/>
				<stop  offset="5.747633e-003" style="stop-color:#F82153;stop-opacity:0.1052"/>
				<stop  offset="4.608637e-002" style="stop-color:#CA4673;stop-opacity:0.1415"/>
				<stop  offset="9.151461e-002" style="stop-color:#9F6A91;stop-opacity:0.1825"/>
				<stop  offset="0.1403" style="stop-color:#7989AB;stop-opacity:0.2264"/>
				<stop  offset="0.1934" style="stop-color:#59A3C1;stop-opacity:0.2743"/>
				<stop  offset="0.2522" style="stop-color:#3DB9D4;stop-opacity:0.3272"/>
				<stop  offset="0.3185" style="stop-color:#27CBE3;stop-opacity:0.387"/>
				<stop  offset="0.396" style="stop-color:#16D9EF;stop-opacity:0.4568"/>
				<stop  offset="0.4917" style="stop-color:#0BE3F7;stop-opacity:0.5431"/>
				<stop  offset="0.626" style="stop-color:#04E8FC;stop-opacity:0.6641"/>
				<stop  offset="0.9987" style="stop-color:#02EAFD"/>
				<stop  offset="1" style="stop-color:#02EAFD"/>
			</linearGradient>
			<path class="st15" d="M528.4,350.3c-21.2-20-42.4-40-63.6-60c2.2-12.6,8.6-24.8,19.2-34.5l50.5-45.9l115,209.6
				c-18.1-0.8-36.3-6.6-52.4-15.1C571.3,390.7,549.7,370.4,528.4,350.3z"/>
			<linearGradient id="SVGID_13_" gradientUnits="userSpaceOnUse" x1="463.9765" y1="395.9923" x2="660.3751" y2="395.9923">
				<stop  offset="0" style="stop-color:#1D1B4E"/>
				<stop  offset="0.3881" style="stop-color:#1D1D50;stop-opacity:0.6308"/>
				<stop  offset="0.5279" style="stop-color:#1C2455;stop-opacity:0.4979"/>
				<stop  offset="0.6276" style="stop-color:#1A2F5F;stop-opacity:0.403"/>
				<stop  offset="0.7081" style="stop-color:#18406E;stop-opacity:0.3264"/>
				<stop  offset="0.7771" style="stop-color:#155680;stop-opacity:0.2608"/>
				<stop  offset="0.8383" style="stop-color:#127297;stop-opacity:0.2026"/>
				<stop  offset="0.8936" style="stop-color:#0D92B3;stop-opacity:0.15"/>
				<stop  offset="0.9445" style="stop-color:#09B8D3;stop-opacity:0.1016"/>
				<stop  offset="0.9897" style="stop-color:#03E1F5;stop-opacity:5.852324e-002"/>
				<stop  offset="0.9987" style="stop-color:#02EAFD;stop-opacity:5.000000e-002"/>
			</linearGradient>
			<path class="st16" d="M464.8,290.3c21.2,20,42.4,40,63.6,60c21.3,20.1,42.9,40.4,68.7,54.1c16.1,8.5,34.3,14.3,52.4,15.1l4.1,7.5
				c13,23.8,6.6,54.6-15.5,74.7L478.8,337C466.5,324.3,461.9,307,464.8,290.3z"/>
		</g>
		<path class="st17" d="M650.2,370.1c-4,1.8-7.7,3.2-11.1,4.2C642.5,373.3,646.2,371.9,650.2,370.1z"/>
		<path class="st17" d="M671.8,357.7c-3.1,2.1-6.1,4-9,5.7C665.7,361.7,668.7,359.8,671.8,357.7z"/>
		<path class="st17" d="M662.8,363.5c-2.9,1.7-5.8,3.3-8.6,4.7C657,366.8,659.9,365.2,662.8,363.5z"/>
		<path class="st11" d="M717.7,317.8c15.9-17.5,26.6-34.4,29-46l12,16c4.5,5.8-0.1,18.7-11,34c-4.8-1.8-9.7-3-14.8-3.5
			C727.9,317.7,722.8,317.8,717.7,317.8z"/>
		<path class="st12" d="M650.2,370.1c1.3-0.6,2.7-1.3,4.1-2c2.8-1.4,5.6-3,8.6-4.7c2.9-1.7,5.9-3.6,9-5.7
			c9.2-6.2,18.9-13.8,28.4-22.5c6.3-5.8,12.2-11.6,17.5-17.4c5.1,0,10.2-0.1,15.3,0.4c5.1,0.5,10,1.8,14.8,3.5
			c-7.4,10.4-17.6,21.9-29.8,33c-30.1,27.4-61.5,42.8-70.5,34.3l-14.8-13.5c2-0.2,4.1-0.7,6.4-1.3
			C642.5,373.3,646.2,371.9,650.2,370.1z"/>
		<path class="st18" d="M697,316.4c-13.9-3.1-25.6-12.4-36.6-21.5c-70.5-58.7-135.8-123.6-195-193.7c4.1-3.3,8.2-6.8,12.3-10.5
			c22.1-20.1,38.6-42.4,47.7-61.2c49.4,31.1,90.9,69,122.1,110.4l99.3,131.9c-2.5,11.6-13.1,28.5-29,46
			C710.7,317.9,703.8,317.9,697,316.4z"/>
		<path class="st19" d="M412.3,132.4c15.9-5.9,34.7-16.5,53.1-31.2c59.1,70.1,124.4,135.1,195,193.7c11,9.1,22.6,18.4,36.6,21.5
			c6.8,1.5,13.7,1.5,20.7,1.4c-5.3,5.8-11.1,11.7-17.5,17.4c-9.6,8.7-19.2,16.3-28.4,22.5c-3.1,2.1-6.1,4-9,5.7
			c-2.9,1.7-5.8,3.3-8.6,4.7c-1.4,0.7-2.7,1.4-4.1,2c-4,1.8-7.7,3.2-11.1,4.2c-2.3,0.6-4.4,1.1-6.4,1.3l-122-111.3
			C472.4,229.4,438.6,184.5,412.3,132.4z"/>
		<path class="st11" d="M465.4,101.2C427.8,56.6,392.7,9.8,360.3-38.7c60.9,14,116.7,37.8,165.1,68.2c-9,18.8-25.5,41-47.7,61.2
			C473.7,94.4,469.6,97.9,465.4,101.2z"/>
		<path class="st12" d="M412.3,132.4C386.5,81.3,368,23.3,359.9-38.8v0l0,0c0.1,0,0.3,0.1,0.4,0.1c32.4,48.5,67.5,95.2,105.1,139.8
			C447,115.8,428.3,126.5,412.3,132.4z"/>
		<path class="st20" d="M488.4,183.1c1.6-15.7,8.8-30.9,21.4-42.3c27.1-24.7,69.2-22.7,93.9,4.4c9.3,10.2,14.8,22.5,16.6,35.2
			c3,21.1-4.1,43.3-21,58.7c-27.1,24.7-69.2,22.7-93.9-4.4C492.1,220.1,486.5,201.2,488.4,183.1z"/>
		<g>
			<path class="st11" d="M544.5,199.8c-22.8-3.5-43.3-16.9-58.6-34.3c1.6-15.7,8.8-30.9,21.4-42.3c27.1-24.7,69.2-22.7,93.9,4.4
				c9.3,10.2,14.8,22.5,16.6,35.2c-2.5,4.9-5.3,9.6-8.7,13.9C594.2,195.4,568.2,203.5,544.5,199.8z"/>
			<path class="st12" d="M485.9,165.6c15.3,17.4,35.8,30.7,58.6,34.3c23.7,3.7,49.6-4.4,64.5-23.1c3.4-4.3,6.2-9,8.7-13.9
				c3,21.1-4.1,43.3-21,58.7c-27.1,24.7-69.2,22.7-93.9-4.4C489.6,202.5,484.1,183.7,485.9,165.6z"/>
		</g>
		<g>
			<path class="st21" d="M508.6,144l86.6-0.3c2,3,3.6,6.1,4.9,9.4l-96.3,0.3C505.1,150.1,506.7,147,508.6,144z"/>
			<path class="st22" d="M503.8,153.4l96.3-0.3c1.8,4.4,2.9,9,3.4,13.7l-103,0.3C501,162.4,502.1,157.8,503.8,153.4z"/>
			<path class="st22" d="M517.1,134c21.2-19.3,53.9-17.7,73.2,3.5c1.8,2,3.4,4.1,4.9,6.3l-86.6,0.3C511,140.4,513.8,137.1,517.1,134
				z"/>
			<path class="st21" d="M523.1,215.3l58.1-0.2C563.6,227.2,540.5,227.1,523.1,215.3z"/>
			<path class="st22" d="M513.7,207.2c-3.9-4.3-7-9.1-9.2-14.1l95.1-0.3c-2.8,6.6-7.1,12.7-12.7,17.9c-1.8,1.6-3.7,3.1-5.7,4.5
				l-58.1,0.2C519.7,213.1,516.5,210.4,513.7,207.2z"/>
			<path class="st21" d="M500.5,167.1l103-0.3c0.9,8.8-0.4,17.8-3.9,26l-95.1,0.3C500.9,184.8,499.6,175.8,500.5,167.1z"/>
		</g>
	</g>
	<linearGradient id="SVGID_14_" gradientUnits="userSpaceOnUse" x1="197.4344" y1="500.7254" x2="237.3333" y2="500.7254">
		<stop  offset="0" style="stop-color:#1D1B4E"/>
		<stop  offset="0.9987" style="stop-color:#61EAFD"/>
	</linearGradient>
	<circle class="st23" cx="217.4" cy="500.7" r="19.9"/>
	<linearGradient id="SVGID_15_" gradientUnits="userSpaceOnUse" x1="263.4972" y1="450.2271" x2="277.9001" y2="450.2271">
		<stop  offset="0" style="stop-color:#1D1B4E"/>
		<stop  offset="0.9987" style="stop-color:#61EAFD"/>
	</linearGradient>
	<circle class="st24" cx="270.7" cy="450.2" r="7.2"/>
	<linearGradient id="SVGID_16_" gradientUnits="userSpaceOnUse" x1="871.5088" y1="108.8757" x2="894.5533" y2="108.8757">
		<stop  offset="0" style="stop-color:#1D1B4E"/>
		<stop  offset="0.9987" style="stop-color:#61EAFD"/>
	</linearGradient>
	<circle class="st25" cx="883" cy="108.9" r="11.5"/>
	<linearGradient id="SVGID_17_" gradientUnits="userSpaceOnUse" x1="974.4381" y1="-43.9256" x2="1010.8131" y2="-43.9256">
		<stop  offset="0" style="stop-color:#1D1B4E"/>
		<stop  offset="0.9987" style="stop-color:#61EAFD"/>
	</linearGradient>
	<circle class="st26" cx="992.6" cy="-43.9" r="18.2"/>
	<linearGradient id="SVGID_18_" gradientUnits="userSpaceOnUse" x1="439.9955" y1="470.3872" x2="393.507" y2="497.2274">
		<stop  offset="0" style="stop-color:#1D1B4E"/>
		<stop  offset="0.9987" style="stop-color:#02EAFD"/>
	</linearGradient>
	<circle class="st27" cx="416.8" cy="483.8" r="26.8"/>
	<linearGradient id="SVGID_19_" gradientUnits="userSpaceOnUse" x1="128.8617" y1="647.9769" x2="91.1526" y2="669.7482">
		<stop  offset="0" style="stop-color:#1D1B4E"/>
		<stop  offset="0.9987" style="stop-color:#02EAFD"/>
	</linearGradient>
	<circle class="st28" cx="110" cy="658.9" r="21.8"/>
	<linearGradient id="SVGID_20_" gradientUnits="userSpaceOnUse" x1="840.2294" y1="397.2279" x2="818.4083" y2="409.8264">
		<stop  offset="0" style="stop-color:#1D1B4E"/>
		<stop  offset="0.9987" style="stop-color:#02EAFD"/>
	</linearGradient>
	<circle class="st29" cx="829.3" cy="403.5" r="12.6"/>
	<linearGradient id="SVGID_21_" gradientUnits="userSpaceOnUse" x1="653.3331" y1="467.3134" x2="640.9995" y2="474.4342">
		<stop  offset="0" style="stop-color:#1D1B4E"/>
		<stop  offset="0.9987" style="stop-color:#02EAFD"/>
	</linearGradient>
	<circle class="st30" cx="647.2" cy="470.9" r="7.1"/>
	<linearGradient id="SVGID_22_" gradientUnits="userSpaceOnUse" x1="844.8962" y1="335.7519" x2="832.5625" y2="342.8727">
		<stop  offset="0" style="stop-color:#1D1B4E"/>
		<stop  offset="0.9987" style="stop-color:#02EAFD"/>
	</linearGradient>
	<circle class="st31" cx="838.7" cy="339.3" r="7.1"/>
	<circle class="st32" cx="1004.1" cy="80.9" r="19.7"/>
	<circle class="st32" cx="969.9" cy="268.5" r="8.2"/>
	<circle class="st32" cx="299" cy="594.8" r="19.7"/>
	<circle class="st32" cx="166.8" cy="532.4" r="7.1"/>
	<circle class="st32" cx="264.8" cy="618.2" r="8.9"/>
	<circle class="st32" cx="908.2" cy="458.7" r="27.4"/>
	<circle class="st32" cx="798.3" cy="562.3" r="12"/>
	<circle class="st32" cx="726.3" cy="548.4" r="9.3"/>
	<rect x="-236.5" y="-158.4" class="st17" width="1292.4" height="806.5"/>
</g>
</svg>
