<?xml version="1.0" encoding="utf-8"?>
<!-- Generator: Adobe Illustrator 19.0.0, SVG Export Plug-In . SVG Version: 6.00 Build 0)  -->
<svg version="1.1" id="Layer_1" xmlns="http://www.w3.org/2000/svg" xmlns:xlink="http://www.w3.org/1999/xlink" x="0px" y="0px"
	 viewBox="470 51.3 754 362.7" enable-background="new 470 51.3 754 362.7" xml:space="preserve">
<g id="Master_blank_background">
</g>
<g id="Layer_1_1_">
	<g>
		<g>
			<path fill="#C0C4E3" d="M845.4,112.8l-32.1-15.1c-0.1-0.1-0.3-0.1-0.4,0.1l-5.3,10.7l-70.2,143c-4.3,8.8-0.5,19.5,8.5,23.7
				c9,4.3,19.9,0.5,24.2-8.3l70.1-143l5.3-10.7C845.6,113,845.6,112.8,845.4,112.8z M767.5,264.6c-3.5,7.2-12.3,10.2-19.6,6.7
				c-7.3-3.4-10.4-12-6.9-19.2l69.5-141.6L837,123L767.5,264.6z"/>
		</g>
		<g>
			<polygon fill="#C0C4E3" points="852.4,116 806.5,94.4 801,105.4 846.9,127 			"/>
		</g>
	</g>
	<g>
		<g>
			<path fill="#C0C4E3" d="M823,342.5L823,342.5c-9.2-3.9-13.4-14.4-9.4-23.4l69.4-156.4c0.1-0.2,0.2-0.2,0.4-0.2l32.7,13.9
				c0.2,0.1,0.2,0.2,0.2,0.4l-69.5,156.4C842.9,342.3,832.3,346.4,823,342.5z"/>
		</g>
		<g>
			<polygon fill="#C0C4E3" points="923.2,179.5 876.5,159.5 871.5,170.8 918.2,190.7 			"/>
		</g>
		<path fill="#F1C40F" d="M824.8,338.5L824.8,338.5c-7.4-3.1-10.8-11.7-7.6-18.9l63.9-144.1l26.9,11.5l-63.9,144.1
			C840.9,338.4,832.3,341.7,824.8,338.5z"/>
	</g>
	<g>
		<g>
			<path fill="#C0C4E3" d="M900.5,347.1c-9.2,3.8-19.9-0.4-23.8-9.4l-68.1-157c-0.1-0.2,0-0.3,0.2-0.4l32.8-13.7
				c0.2-0.1,0.3,0,0.4,0.2l68.1,157C914,332.8,909.8,343.3,900.5,347.1z"/>
		</g>
		<g>
			<polygon fill="#C0C4E3" points="849.2,164.4 802.3,183.9 807.2,195.3 854.1,175.7 			"/>
		</g>
		<g>
			<path fill="#EFA9AF" d="M898.7,341.8l-0.4,0.2c-7.5,3.1-16.1-0.3-19.3-7.6l-61-140.7l27.4-11.4l61,140.7
				C909.6,330.2,906.2,338.6,898.7,341.8z"/>
		</g>
	</g>
	<g>
		<g>
			<path fill="#C0C4E3" d="M618.7,325.4c-9.4,3.5-19.8-1.1-23.4-10.2l-62.4-159.3c-0.1-0.2,0-0.3,0.2-0.4l33.3-12.5
				c0.2-0.1,0.3,0,0.4,0.2l62.4,159.3C632.7,311.7,628.1,321.9,618.7,325.4z"/>
		</g>
		<g>
			<polygon fill="#C0C4E3" points="573.5,140.4 526,158.2 530.5,169.7 578,151.8 			"/>
		</g>
		<path fill="#F39C12" d="M617.1,321.4c-7.6,2.8-16-0.9-19-8.3l-57.4-146.7l27.4-10.3l57.4,146.7
			C628.4,310.3,624.7,318.5,617.1,321.4z"/>
	</g>
	<g>
		<g>
			<path fill="#C0C4E3" d="M1081.5,339.9c-9.4-3.4-14.2-13.6-10.7-22.8l60.5-160c0.1-0.2,0.2-0.2,0.4-0.2l33.4,12.1
				c0.2,0.1,0.2,0.2,0.2,0.4l-60.5,160C1101.3,338.6,1090.9,343.4,1081.5,339.9z"/>
		</g>
		<g>
			<polygon fill="#C0C4E3" points="1172.3,171.7 1124.5,154.3 1120.1,165.9 1167.9,183.2 			"/>
		</g>
		<g>
			<path fill="#9B59B6" d="M1083,335.9c-7.6-2.8-11.5-11.1-8.7-18.5l55.7-147.3l27.5,10l-55.7,147.3
				C1099.1,334.8,1090.6,338.6,1083,335.9z"/>
		</g>
	</g>
	<g>
		<path fill="#FFFFFF" d="M668.5,265.1c1.4-0.3,2.7-0.5,4-0.8C671.2,264.5,669.9,264.8,668.5,265.1c0,0-0.1,0-0.1,0.1c0,0,0,0-0.1,0
			c-0.1,0-0.1,0-0.2,0c-10.3-1.6-20.5-2.8-30.7-3.2c10.2,0.4,20.5,1.6,30.8,3.2C668.4,265.1,668.5,265.1,668.5,265.1z"/>
		<path fill="#FFFFFF" d="M735.1,255.2c-0.8,0-1.6,0-2.4,0.1l-14.1-32.9c-1.4-3.1-2.3-6.4-2.8-9.9L696.5,86.2h10.7v-8.6h-56.4v8.6
			h10.7l-19.3,126.3c-0.5,3.4-1.5,6.7-2.8,9.9l-17,39.6c-0.8,0.1-1.6,0.1-2.5,0.2l17.4-40.6c1.2-3,2.2-6.1,2.7-9.3l19-123.7h-10.4
			v-13h61v13h-10.4L718,212.2c0.5,3.2,1.4,6.3,2.7,9.3L735.1,255.2z"/>
		<g>
			<path fill="#465DC1" d="M744.4,276.9c-0.9-0.1-1.7-0.1-2.5-0.2c-24-1.8-48.7-7.7-73.5-11.6l0,0c0.1,0,0.1,0,0.1,0
				c1.4-0.3,2.7-0.5,4-0.8c0.1,0,0.2-0.1,0.2-0.1c19.9-4.2,39.9-8.4,59.9-8.9c0.8,0,1.6-0.1,2.4-0.1L744.4,276.9L744.4,276.9z"/>
		</g>
		<g>
			<path fill="#465DC1" d="M668.4,265.1c-0.1,0-0.1,0-0.1,0.1c-16.8,3.5-33.5,6.7-50.3,7.3c-0.8,0.1-1.6,0.1-2.5,0.1l4.5-10.4
				c0.8-0.1,1.6-0.1,2.5-0.2c5-0.3,10.1-0.3,15.1-0.1C647.8,262.3,658.1,263.5,668.4,265.1z"/>
		</g>
		<g>
			<path fill="#5E72EB" d="M772.1,373.4c-5.2,7.7-14.1,12.4-23.6,12.4H609.5c-9.5,0-18.3-4.7-23.6-12.4c-5.3-7.7-6.2-17.6-2.5-26.1
				l32.1-74.8c0.8,0,1.7-0.1,2.5-0.1c16.8-0.7,33.5-3.8,50.3-7.3c0.1,0,0.1,0,0.1-0.1c0.1,0,0.1,0,0.2,0c0,0,0,0,0.1,0
				c24.7,3.8,49.4,9.8,73.3,11.5c0.9,0.1,1.7,0.1,2.5,0.2l0,0l30.2,70.5C778.3,355.9,777.4,365.7,772.1,373.4z"/>
		</g>
		<path fill="#E1E3F0" d="M776.8,346.4l-54-125.8c-1.2-2.8-2.1-5.8-2.5-8.8L701.8,90.7h10V73.3h-65.5v17.4h10l-18.5,121.2
			c-0.4,3-1.3,6-2.5,8.8l-54,125.8c-4,9.3-3,19.8,2.7,28.2s15.2,13.4,25.5,13.4h139.1c10.2,0,19.8-5,25.5-13.4
			C779.7,366.3,780.7,355.7,776.8,346.4z M585.4,348.1l32.5-75.8l4.5-10.5l17-39.6c1.4-3.2,2.3-6.5,2.8-9.9l19.3-126.3h-10.7v-8.6
			h56.4v8.6h-10.7l19.3,126.3c0.5,3.4,1.5,6.7,2.8,9.9l14.1,32.9l0,0l9.2,21.4v0.1l30.7,71.4c3.4,7.9,2.5,16.9-2.3,24
			c-4.9,7.2-13,11.4-21.7,11.4h-139c-8.8,0-16.9-4.3-21.7-11.4C582.9,365,582,356,585.4,348.1z"/>
	</g>
	<g>
		<g>
			<path fill="#C0C4E3" d="M1046,314c0,40.2-33.2,72.7-74.2,72.7s-74.2-32.6-74.2-72.7c0-33.3,22.9-61.5,54.1-70
				c1.4-0.4,2.8-0.7,4.2-1v4.5c-1.4,0.3-2.8,0.7-4.2,1.1c-17,5-31.2,16.2-40,30.8c13.3,2.1,26.7,4,40,5.5c4.6,0.5,9.2,1,13.8,1.4
				c23.7,2.2,47.3,3,70.6,1.2c-8-18.6-24.2-33.1-44.2-39c-1.4-0.4-2.8-0.8-4.2-1.1v-4.5c1.4,0.3,2.8,0.7,4.2,1
				C1023.2,252.5,1046,280.7,1046,314z"/>
		</g>
		<g>
			<path fill="#C0C4E3" d="M956,247.4c-1.4,0.3-2.8,0.7-4.2,1.1V77.1h4.2V247.4z"/>
			<path fill="#C0C4E3" d="M951.7,284.9c4.6,0.5,9.2,1,13.8,1.4h-13.8V284.9z"/>
			<path fill="#C0C4E3" d="M992,77.1v171.4c-1.4-0.4-2.8-0.8-4.2-1.1V77.1H992z"/>
		</g>
		<g>
			<path fill="#E74C3C" d="M911.7,279.4c-6.1,10.1-9.6,21.9-9.6,34.6c0,37.8,31.2,68.4,69.8,68.4c38.5,0,69.8-30.6,69.8-68.4
				c0-9.4-2-18.4-5.5-26.5C995.2,290.6,953.5,285.9,911.7,279.4z"/>
		</g>
		<g>
			<rect x="943.6" y="71.2" fill="#C0C4E3" width="56.5" height="13.6"/>
		</g>
	</g>
	<g>
		<path fill="#3E3E5C" d="M681.4,289.3c-2.6,0.1-5.3-0.4-7.5-1.8c-3.6-2.2-5.5-6.3-6.7-10.3c-0.9-3.1-1.4-6.4-0.6-9.6
			c1.1-4.7,4.7-8.3,7.6-12.2c2.9-3.9,2.9-6.9,1.2-11.4c-4.1-11,11.8-15.9,13.5-15.7c5.9,0.9,7.2,2.2,9.5,4.2
			c3.8,3.2,5.3,8.6,5.9,13.4c0.3,2.4-0.3,4.9,0.2,7.4c0.5,2.3,1.9,4.2,2.4,6.5c0.5,2.1,0.2,4.3-0.4,6.4c-1.7,6.1-5.4,10.4-9.6,15.1
			C692.8,285.7,687.9,289.1,681.4,289.3z"/>
		<path fill="#CC8372" d="M728.2,256.9c0,0.2,0,0.3,0.1,0.4c0.1,0.4,0.2,0.9,0.4,1.3c0.8,1.3,2.5,1.7,3.9,0.9
			c0.5-0.3,0.9-0.8,1.1-1.2c0.1-0.2,0.2-0.4,0.2-0.6l0,0c1.7-1.4,2.9-4.7,3.1-6.5s-0.3-2.1-1.3-3c-0.1-1-0.3-2-1.5-2.1
			c-0.1-1.6-1.1-2.3-2.6-2.5c-0.5-0.7-0.8-2.1-2.2-0.9c-1.4,1.2-1.8,5.1-1.8,7.1c-1.5-2.5-6.1-3.3-5.1-0.9c2,0.8,2.5,2.7,2.8,4.4
			c0.3,1.8,1.5,2.2,3,2.7C728.2,256.4,728.2,256.7,728.2,256.9z"/>
		<g>
			<path d="M711.6,270.7c-4.9-0.3-20.8-10.9-24.7-9.8c-7.3,2.1-1.1,9.8-1.1,9.8s13.3,11.5,26.7,10.1l-0.8-10.1
				C711.6,270.7,711.6,270.7,711.6,270.7z"/>
		</g>
		<path fill="#F7A01A" d="M728.1,256c-3.2,4.3-7,8.7-20.6,15.9l4.9,8.9c0.5-0.3,1-0.6,1.5-0.9c7.7-5,12.8-10.1,18.1-19.2
			C732.6,258.8,728.1,256,728.1,256z"/>
		<polygon fill="#CC8372" points="663.6,366.9 664.5,373.9 657.8,383.9 654,379.1 658.6,371.6 		"/>
		<polygon fill="#CC8372" points="690,341.5 679.5,336.4 679.4,336.9 657.2,373.4 660.6,379.8 		"/>
		<path fill="#3D3E5C" d="M653.5,378.7c0,0,2-0.3,3.1,1.1c1.1,1.5,4-0.1,4-0.1s1-0.2,4,2.8c3.3,2.9,7.5,1.4,7.5,1.4s1.5,1.6,0.4,3.3
			c-1.1,1.6-16.3,0.4-20.3-0.8C652.1,383.8,653.5,378.7,653.5,378.7z"/>
		<polygon fill="#CC8372" points="699.7,370.7 704,376.4 703.2,388.3 697,386.8 697.4,377.3 		"/>
		<polygon fill="#CC8372" points="712.9,336.2 703.6,333.5 700.5,340 697.3,379.8 703.6,382.4 		"/>
		<path fill="#CC8372" d="M690.6,261.7h-2.3c-1.2,0-2.2-1-2.2-2.2v-10.7h6.8v10.7C692.8,260.8,691.8,261.7,690.6,261.7z"/>
		<path fill="#CC8372" d="M679.4,234.7l1.3,10.8c-0.1,1.2,1.4,2.4,1.8,3.4c1.2,2.5,3.8,4.3,6.8,4.3c4.4,0.1,7.9-3.5,7.7-7.8
			l-0.5-11.4L679.4,234.7z"/>
		<path fill="#F7A01A" d="M685.6,255.5c0,0,4.1,4.3,7.7,3.3c11.7,21.4,5.9,31.7,15.6,48.2l-28.7-0.4
			C686.6,283.8,667.1,263.6,685.6,255.5z"/>
		<path fill="#303152" d="M697.1,384.7c0,0,2-0.3,3.1,1.1c1.1,1.5,3.1-0.2,3.1-0.2s1.8,0,4.7,3c3.3,3,7.4,1.5,7.4,1.5
			s1.5,1.6,0.4,3.3s-16.4,0.2-20.3-1.1C695.6,389.8,697.1,384.7,697.1,384.7z"/>
		<path fill="#CC8372" d="M641.1,284.8c0.2,0,0.3,0.1,0.4,0.2c0.4,0.2,0.8,0.4,1.2,0.7c1.1,1.1,1,2.9-0.1,3.9
			c-0.4,0.4-1,0.7-1.5,0.8c-0.2,0.1-0.4,0.1-0.7,0.1l0,0c-1.7,1.3-5.4,1.6-7.2,1.4c-1.8-0.2-2-0.8-2.6-2c-1-0.3-1.8-0.8-1.7-2
			c-1.6-0.5-2-1.6-1.8-3.1c-0.5-0.7-1.8-1.2-0.3-2.3c1.5-1,5.5-0.4,7.5,0c-2.2-2.1-1.7-6.6,0.4-5.1c0.3,2.1,2,3,3.7,3.7
			c1.7,0.7,1.8,2,2,3.5C640.5,284.7,640.7,284.7,641.1,284.8z"/>
		<path fill="#F7A01A" d="M689.7,269.4c0,0,2.3-9.5-5.1-8.4c-4,0.5-13.9,16.6-18.3,19c-14.5,5.3-20.5,5.2-25.8,4.8
			c0,0-0.8,5.1,1.1,6c10.5,2.1,17.7,1.7,26.6-0.7C681.8,286.7,689.7,269.4,689.7,269.4z"/>
		<path fill="#3E3E5C" d="M687.9,241.5c0,0,8.2-0.5,11-0.9c1.6-5.4-2.7-10.4-6.4-11.4c-3.8-1-12.1,4.3-12.3,4.3
			c-2.1,0-1.7,5.3-1.7,5.3S678.4,243.1,687.9,241.5z"/>
		<path fill="#3E3E5C" d="M687.6,239.5c0,0-6,4.2-1.7,25.5c-5.3,2.2-10.3,13.8-10.3,13.8s3.1-27.1,2.2-34.9
			C676.9,236.1,682.9,233.6,687.6,239.5z"/>
		<path fill="#303152" d="M708.9,307.1c0,0,16.4,21,17.6,30.1c-3.4,8.4-39,14.4-49.1,7.6c-10.1-6.7,1.9-19.7,2.8-38.2L708.9,307.1z"
			/>
		<g>
			<path fill="#E8ECF6" d="M724.4,257.5c0,0,6,5.3,7.6,9c-2.9,6-15.6,17.6-17.9,17.8c-3.9-0.3-10-1.1-10-1.1s0.1,9.5,5.2,20.9
				c6.9,15.3,24,29.2,18.2,43.5c-2.3,2.8-23.6,5.9-23.6,5.9l-10.5-94.7l19.1,9.5L724.4,257.5z"/>
		</g>
		<g>
			<path fill="#E8ECF6" d="M685.9,256.8l3.5,97.1c0,0-19.6,1.1-26.9-1.3c-0.9-14.1,10.2-45.7,10.4-60.6c-7.2,3.4-19.4,4.8-26.8,3
				c-3.5-5.4-0.9-11.9-0.9-11.9s22.2-4.5,24.2-8.5C671.4,270.6,675.6,256.5,685.9,256.8z"/>
		</g>
	</g>
	<g>
		<polygon fill="#CC8372" points="900.9,362.3 904.8,368.2 903.1,380 897.6,377.3 898.4,368.6 		"/>
		<path fill="#3D3E5C" d="M919,329.8l4.6-32.4l-14.3-23.6c-9,7.6-12.6,19.7-9,30.8l1.6,23.4L919,329.8L919,329.8z"/>
		<polygon fill="#3D3E5C" points="919.1,329 901.9,328.1 902.1,328.5 897.9,370.8 905.8,373 		"/>
		<path fill="#3D3E5C" d="M897.3,375.9c0,0,2-0.3,3,1.2c1,1.5,4,0.1,4,0.1s1-0.2,3.8,2.9c3.1,3.1,7.4,1.7,7.4,1.7s1.4,1.6,0.3,3.3
			c-1.1,1.6-16.4-0.3-20.2-1.7C895.6,381,897.3,375.9,897.3,375.9z"/>
		<polygon fill="#CC8372" points="929.7,360.6 934,366.4 933,378.3 926.9,376.7 927.4,367.2 		"/>
		<path fill="#CC8372" d="M949.5,250.3c-0.2,0.1-0.3,0.1-0.4,0.2c-0.4,0.2-0.8,0.4-1.1,0.8c-1,1.1-0.9,2.9,0.3,3.9
			c0.4,0.4,1,0.6,1.6,0.7c0.2,0.1,0.4,0.1,0.7,0l0,0c1.8,1.2,5.5,1.3,7.3,1c1.8-0.3,1.9-0.9,2.5-2.1c0.9-0.3,1.8-0.9,1.6-2.1
			c1.5-0.6,1.9-1.7,1.6-3.2c0.5-0.7,1.8-1.4,0.2-2.3c-1.6-0.9-5.5-0.2-7.5,0.4c2.1-2.2,1.4-6.7-0.7-5.1c-0.2,2.1-1.8,3.1-3.5,4
			s-1.7,2.1-1.7,3.6C950.1,250.1,949.8,250.2,949.5,250.3z"/>
		<path fill="#303152" d="M943.3,326.3l-15.9-37.2l-26.8-4.5c-3,11.3,1.2,23.2,10.6,30.3l17.1,19.5L943.3,326.3L943.3,326.3z"/>
		<polygon fill="#303152" points="943.3,326.3 924.9,320.6 926.4,328.5 927.3,369.8 935.4,370.6 		"/>
		<rect x="947.8" y="231.8" fill="#1ABC9C" width="19.9" height="30.8"/>
		<g>
			<path fill="#E1E3F0" d="M900.1,237.7c0,0-2.9-9.3,4.7-8.7c4.1,0.3,14.8,15.8,19.3,17.9c14.8,4.4,20.8,4,26.1,3.3
				c0,0,1.1,5.1-0.7,6c-10.3,2.7-17.6,2.7-26.6,0.8C908.9,254.5,900.1,237.7,900.1,237.7z"/>
		</g>
		<path fill="#CC8372" d="M909.2,231.8h-2.3c-1.2,0-2.2-1-2.2-2.2v-10.7h6.8v10.7C911.4,230.8,910.4,231.8,909.2,231.8z"/>
		<path fill="#CC8372" d="M898,204.7l1.3,10.8c-0.1,1.2,1.4,2.4,1.8,3.4c1.2,2.5,3.8,4.3,6.8,4.3c4.4,0.1,7.9-3.5,7.7-7.8l-0.5-11.4
			L898,204.7z"/>
		<g>
			<path fill="#E1E3F0" d="M904.2,225.6c0,0,4.1,4.3,7.7,3.3c8.7,19.8,18.1,38.8,15.6,60.2l-28.7-0.4
				C905.1,265.9,885.7,233.7,904.2,225.6z"/>
		</g>
		<g>
			<path fill="#CC8372" d="M943.9,253.9c-0.1,0.1-0.2,0.2-0.3,0.3c-0.3,0.3-0.5,0.7-0.7,1.2c-0.4,1.5,0.6,3,2.1,3.3
				c0.6,0.2,1.2,0.1,1.7-0.1c0.2-0.1,0.4-0.1,0.5-0.3l0,0c2.2,0.2,5.5-1.3,6.9-2.4c1.4-1.1,1.2-1.6,1.2-3c0.7-0.7,1.2-1.6,0.5-2.5
				c1.1-1.2,0.9-2.3-0.1-3.6c0.1-0.8,0.9-2-0.9-2.1c-1.8-0.1-5,2.3-6.4,3.7c0.8-2.8-2-6.6-3-4.2c0.8,2-0.2,3.6-1.2,5.1
				c-1.1,1.5-0.5,2.6,0.2,4C944.4,253.6,944.2,253.8,943.9,253.9z"/>
			<g>
				<path fill="#E1E3F0" d="M920.9,250.8c-3.9-2.9-11.1-20.4-15-21.5c-7.3-2.2-6.4,7.5-6.4,7.5s4.6,16.9,16.4,22.9L920.9,250.8
					C921,250.8,921,250.8,920.9,250.8z"/>
			</g>
			<g>
				<path fill="#E1E3F0" d="M944.6,253.2c-5.4,0.8-11.3,1.2-26-3.1l-2.9,9.7c0.5,0.2,1.1,0.3,1.7,0.4c9,1.8,16.3,1.8,26.6-0.9
					C945.7,258.3,944.6,253.2,944.6,253.2z"/>
			</g>
		</g>
		<path fill="#3D3E5C" d="M898.3,218.8c-0.4-0.9-1.8-1.1-2.2-2.1c-0.3-0.7,0.2-1.5,0.1-2.3c-0.2-0.9-1-1.5-1.2-2.4
			c-0.3-1.2,0.8-2.2,1-3.4c0.2-1-0.3-2.1-0.3-3.1c-0.1-1.2,0.5-2.5,1.7-3.1c0.3-0.2,0.7-0.3,1-0.5c0.8-0.5,1.1-1.8,2.1-1.7
			c0.3,0.1,0.5,0.2,0.8,0.3c0.9,0.3,1.8-0.4,2.4-1c0.7-0.7,1.5-1.3,2.4-1.1c0.5,0.1,0.9,0.5,1.4,0.7c0.9,0.3,1.7-0.2,2.5-0.7
			s1.8-0.8,2.5-0.3c0.8,0.5,0.8,1.7,1.6,2.2c0.3,0.2,0.8,0.3,1.1,0.2c1.4-0.1,2.6-0.8,3.9-1c0.3-0.1,0.7-0.1,0.9,0
			c0.7,0.3,0.5,1.3,0.1,2c-0.4,0.7-0.9,1.4-0.7,2c0.3,0.8,1.5,1,1.5,1.8s-1.2,1.1-1.5,1.8c-0.4,0.8,0.3,1.6,0.3,2.5
			c0,0.5-0.3,1.1-0.8,1.5c-0.9,0.8-2.2,1-3.3,0.5c-1.3-0.6-2-2.1-3.3-2.7c-1-0.5-2.3-0.4-3.2,0.2c-0.8,0.5-1.3,1.4-2.1,1.9
			c-1,0.7-2.4,0.7-3.4,1.2c0.5-0.2,1-0.3,1.5-0.2c0.5,0.1,1,0.4,1.1,0.9c0.1,0.3,0,0.5,0,0.8c0,0.7,0.3,1.4,0.4,2
			c0.2,0.7,0.2,1.4-0.3,2c-0.4,0.4-1,0.7-1.2,1.2c-0.2,0.4,0,0.8,0.1,1.2c0.2,1.7-1.9,2.9-3.4,2.3c-0.8-0.3-1.6-0.9-2.2-1.4
			C898.7,220.5,898.7,219.8,898.3,218.8z"/>
		<g>
			<path fill="#FFFFFF" d="M904.2,225.6c0,0,5.7,2.1,7.7,3.3c-0.3,3.1-0.9,4.6-0.9,4.6S908.9,229,904.2,225.6z"/>
		</g>
		<path fill="#303152" d="M927,374.6c0,0,2-0.3,3.1,1.2c1,1.5,3.1-0.2,3.1-0.2s1.8,0.1,4.7,3.1c3.2,3,7.4,1.5,7.4,1.5
			s1.5,1.6,0.3,3.3s-16.4,0.1-20.3-1.4C925.4,379.7,927,374.6,927,374.6z"/>
		<g>
			<path fill="#E1E3F0" d="M896.1,243.6c0,0-1.4,77.2,0,82c8.3,4.6,38-1,38-1l-10.6-68.7L896.1,243.6z"/>
		</g>
	</g>
	<g>
		<path fill="#C1C5E3" d="M1054.8,351.9c0.8-0.5,23.2,1,23.2,1l2.8-32.7l-16-16l-7.5,5.1L1054.8,351.9z"/>
		<polygon fill="#CC8372" points="1085,372.8 1081.1,378.8 1082.8,390.6 1088.4,387.9 1087.6,379.1 		"/>
		<path fill="#3D3E5C" d="M1088.7,386.5c0,0-2-0.3-3,1.2c-1,1.5-4,0.1-4,0.1s-1-0.2-3.8,2.9c-3.1,3.1-7.4,1.7-7.4,1.7
			s-1.4,1.6-0.3,3.3c1.1,1.6,16.4-0.3,20.2-1.7C1090.3,391.5,1088.7,386.5,1088.7,386.5z"/>
		<polygon fill="#CC8372" points="1053.6,373.2 1048.4,378.2 1047.6,390.1 1053.9,389.5 1054.8,380 		"/>
		<path fill="#303152" d="M1054.1,387.4c0,0-2-0.6-3.2,0.7c-1.2,1.3-3.1-0.6-3.1-0.6s-1.8-0.2-5.1,2.3c-3.6,2.5-7.6,0.4-7.6,0.4
			s-1.7,1.4-0.9,3.1c0.9,1.7,16.1,2.4,20.2,1.7C1054.9,392.6,1054.1,387.4,1054.1,387.4z"/>
		<g>
			<path fill="#1D1D46" d="M1056.9,296.5c3.7,6.7,21.7,4.1,23.1,11.9l-15.9,38.8l-14.4-3.1L1056.9,296.5z"/>
			<polygon fill="#1D1D46" points="1064.2,347.2 1055.4,384.2 1047.2,384.5 1049.8,344.1 			"/>
			<path fill="#29294F" d="M1086.5,297.7l2.4,86.6h-7.5c0,0-12.4-47.7-17-63.5c-0.4-12.2-6.8-22.9-6.8-22.9L1086.5,297.7z"/>
		</g>
		<g>
			<g>
				<path fill="#1D1D46" d="M1055.1,251.8c5.7-4.3,14.5-8.3,21-7.5c6.6,6.8-0.2,12.1-0.2,12.1s-4.9,5.1-12.8,7.2
					C1060.2,260.7,1056.9,255.4,1055.1,251.8z"/>
				<path fill="#F6A988" d="M1049.1,258.1c1.7-0.4,3.1-4.1,6.1-6.4c1.7,3.6,5.1,8.9,8,11.8c-1.2,6.8-16,12.5-24.9,6.7l10.7-12.2
					C1049,258.1,1049,258.1,1049.1,258.1z"/>
				<path fill="#F6A988" d="M1047.3,243.9c-2.3,7,5.7,18.4,1.5,25.8l-10.5,0.7l0,0c-3.2-3.8-0.7-16.2,2.8-26.2
					C1042.1,242.4,1047.3,243.9,1047.3,243.9z"/>
				<path fill="#F6A988" d="M1046.9,245.7c-0.1,0.2-0.1,0.3-0.2,0.4c-0.2,0.4-0.5,0.8-0.9,1.1c-1.3,0.9-3.1,0.7-4.1-0.6
					c-0.4-0.5-0.5-1.1-0.5-1.6c-0.1-0.2-0.1-0.4,0.1-0.7l0,0c-1.1-2-1-5.7-0.5-7.5c0.5-1.8,1.1-1.8,2.4-2.4c0.4-0.9,1.1-1.8,2.3-1.5
					c0.7-1.5,1.9-1.8,3.5-1.4c0.7-0.4,1.6-1.7,2.4-0.1c0.8,1.7-0.3,5.6-1,7.5c2.4-1.9,7.2-0.8,5.3,1.1c-2.2,0.1-3.5,1.6-4.4,3.2
					c-1,1.6-2.3,1.6-4,1.5C1047.1,245.1,1047,245.4,1046.9,245.7z"/>
			</g>
			<path fill="#F6A988" d="M1049.2,236c0,0,2.1,1.6,2,2.8c-0.1,1.2-2,0.5-2,0.5s1.6,1.2,0.4,2.3c-0.5,0.5-2.2-0.4-2.2-0.4
				s1.3,1.1,0.8,2c-0.5,0.8-1.8,0.1-1.8,0.1s0.5,1.7-0.4,1.8c-0.9,0.2-2.2-0.9-2.2-0.9s-3.2-1.4-3-3.4c0,0,0.6-3.7,0.7-3.8
				C1042.2,235.5,1045,233.6,1049.2,236z"/>
		</g>
		<g>
			<path fill="#3D3E5C" d="M1069.5,219.9c0,0-0.9,8.5,0.9,12c5.5-2.4,3.2-9.6,3.2-9.6L1069.5,219.9z"/>
			<path fill="#CC8372" d="M1088.1,222.8l-1.3,10.9c0.1,1.2-1.4,2.4-1.8,3.5c-1.2,2.5-3.8,4.3-6.8,4.3c-4.4,0.1-8-3.5-7.8-7.9
				l0.5-11.5L1088.1,222.8z"/>
			<path fill="#3D3E5C" d="M1084.3,218.5c7,0.4,7.6,14.7,2.4,16.9c0,0-2.6,4.9-2.5,2.2c-0.1-0.4-0.1-0.8-0.1-1.2
				c2.4-0.2,3.1-6,2.3-6.3c-2-0.8-2.1,1.9-2.1,3.4c0.1-0.4-0.9-0.5-0.8-0.9c2.3-13.7-7.9-2.1-9.4-3.8
				C1071.3,226.5,1067.4,215.8,1084.3,218.5z"/>
			<path fill="#CC8372" d="M1076.9,249.7h2.4c1.2,0,2.2-1,2.2-2.2v-10.8h-6.8v10.8C1074.7,248.6,1075.7,249.7,1076.9,249.7z"/>
			<path fill="#3D3E5C" d="M1088.1,229.6c0.2-1.7-4.7-4.4-5.7-4.7c-1.1-0.2-4.7,4.2-7.7,4.1c-8.3-0.3-8.1-13.1-2.9-11.7
				c5.2,1.4,16.9-3.3,18.3,7.9c1.4,11.1-5.2,13.1-5.2,13.1S1087.6,234.1,1088.1,229.6z"/>
			<path fill="#3D3E5C" d="M1070.4,217.1c1.1-0.8,2.4-1,3.8-1.1c1.4-0.1,2.7-0.1,4-0.4c0.9-0.2,1.7-0.7,2.7-0.8
				c1.8-0.4,3.7,0.1,5.1,1.1c0.8,0.5,1.4,1.3,2.1,1.8c0.7,0.4,1.4,0.6,2.1,1c2.1,1.1,3,3.8,2.3,6c-0.2,0.5-0.4,0.9-0.5,1.5
				c-0.4,1.9,1.1,3.8,0.7,5.7c-0.3,1.1-1.3,2-1.8,3c-0.4,0.8-0.6,1.7-1,2.5c-0.4,0.9-1.2,1.6-2.1,2c-0.5,0.3-1.2,0.4-1.7,0.3
				c-0.6-0.2-1.1-0.7-1.1-1.2c-0.1-0.7,0.6-1.2,1.1-1.7c1.7-1.6,2.8-3.7,2.9-6c0.1-2.3-1-4.7-3-5.8c-0.8-0.4-1.7-0.8-2.2-1.5
				c-0.3-0.5-0.4-1.2-0.7-1.7c-0.6-0.9-1.9-1-3-0.9c-1.5,0.2-3,0.5-4.4,1.1c-0.9,0.3-1.7,0.8-2.7,1
				C1068.7,223.5,1067.4,219.1,1070.4,217.1z"/>
		</g>
		<path fill="#1D1D46" d="M1082,243.3c0,0-4.2,4.3-7.8,3.4c-25.5,7.3-12.9,30-17.4,60.7l30.7-0.4
			C1081.5,266.7,1109.2,255,1082,243.3z"/>
		<path fill="#29294F" d="M1083.8,244.1c0,0-8.3,1.5-8.3,20.7c-0.9,9,0.3,41.9,1.4,43.7c3,1.7,13-1.7,13-1.7s-4.1-24.4,1.6-38.6
			C1091.5,268.2,1100.2,249,1083.8,244.1z"/>
		<path fill="#29294F" d="M1074.7,244.1c0,0-11.5,5-12.6,24.1c-0.7,13.6-1.3,40.1-1.3,40.1l-6.8,1c0,0,2.7-21.3,3.3-45.1
			C1059.6,256.8,1064.5,243.8,1074.7,244.1z"/>
		<path fill="#E1E3F0" d="M1038.2,248.5c0,0,7.5-0.2,10.9,0c1.6,1.7-0.1,9.6-0.1,9.6s7.6-14,25.6-14
			c-15.5,6.3-13.4,115.3-13.4,115.3h-16.2l10.1-85.2c0,0-13.8,1.4-19.2-1.5C1032.9,265.9,1038.2,248.5,1038.2,248.5z"/>
		<path fill="#E1E3F0" d="M1082,243.3c0,0-13.5,52.3-11.7,116.1c17,4.3,22.9-5.1,22.9-5.1s-5.5-76.8,1-86.8
			C1100.7,257.6,1094.7,243.3,1082,243.3z"/>
		<g>
			<path fill="#1D1D46" d="M1092.7,270.4c-4.9-5.1-16.5-13-9.6-19.7c5-7,12.4,0.3,12.4,0.3s3.3,4.2,8.4,10.5
				C1101.2,264.6,1096.2,268.4,1092.7,270.4z"/>
			<path fill="#CC8372" d="M1094.8,297c0.1-0.1,0.2-0.2,0.3-0.3c0.3-0.3,0.7-0.6,1.2-0.8c1.5-0.5,3.2,0.3,3.7,1.7
				c0.2,0.6,0.2,1.2,0.1,1.7c0,0.2-0.1,0.4-0.2,0.6l0,0c0.5,2.2-0.7,5.7-1.7,7.3c-1,1.6-1.6,1.5-3,1.6c-0.7,0.8-1.6,1.4-2.7,0.8
				c-1.1,1.2-2.4,1.2-3.7,0.4c-0.8,0.2-2.2,1.2-2.5-0.7c-0.3-1.8,2.1-5.3,3.4-6.9c-2.9,1.1-7.2-1.2-4.8-2.5c2.1,0.6,3.8-0.6,5.2-1.8
				c1.4-1.2,2.7-0.8,4.2-0.3C1094.5,297.5,1094.7,297.3,1094.8,297z"/>
			<path fill="#CC8372" d="M1100.2,273.3c-6.5,5.9-2,19.1-6.3,25.3c0,0,4.5,2.9,6,1.5c6.3-8.6,12.4-19.7,10.4-24.3
				c0-0.1-0.1-0.7-0.1-0.7L1100.2,273.3L1100.2,273.3z"/>
			<path fill="#CC8372" d="M1092.8,270.4c2.5,2.7,6.4,3.7,7,5.3l10.4-0.5c-0.5-5.2-3.2-9.9-6.3-13.7
				C1101.3,264.6,1096.3,268.3,1092.8,270.4z"/>
		</g>
		<path fill="#E1E3F0" d="M1092.4,294.5c0,0,9.2,4.4,12.3,4.6c6.9-6.3,8-22.5,8-22.5s-11.3-29.2-25.7-30.7
			c-6.7,3.6-15.4,13.2,9.1,29.4C1094.7,286.8,1092.4,294.5,1092.4,294.5z"/>
	</g>
	<g>
		<path fill="#C1C5E3" d="M799,342.8c0.8-0.5,23.2,1,23.2,1l2.8-32.7l-16-16l-7.5,5.1L799,342.8z"/>
		<polygon fill="#CC8372" points="829.2,363.7 825.3,369.6 827.1,381.5 832.5,378.7 831.7,370 		"/>
		<path fill="#3D3E5C" d="M832.9,377.4c0,0-2-0.3-3,1.2c-1,1.5-4,0.1-4,0.1s-1-0.2-3.8,2.9c-3.1,3.1-7.4,1.7-7.4,1.7
			s-1.4,1.6-0.3,3.3c1.1,1.6,16.4-0.3,20.2-1.7C834.5,382.4,832.9,377.4,832.9,377.4z"/>
		<polygon fill="#CC8372" points="797.7,364.1 792.6,369.1 791.8,381 798.1,380.4 799,370.9 		"/>
		<path fill="#303152" d="M798.3,378.3c0,0-2-0.6-3.2,0.7c-1.2,1.3-3.1-0.6-3.1-0.6s-1.8-0.2-5.1,2.3c-3.6,2.5-7.6,0.4-7.6,0.4
			s-1.7,1.4-0.9,3.1c0.9,1.7,16.1,2.4,20.2,1.7C799,383.5,798.3,378.3,798.3,378.3z"/>
		<g>
			<path fill="#1D1D46" d="M801.1,287.3c3.7,6.7,21.7,4.1,23.1,11.9l-15.9,38.8l-14.4-3.1L801.1,287.3z"/>
			<polygon fill="#1D1D46" points="808.4,338.1 799.5,375.1 791.5,375.4 794.1,335 			"/>
			<path fill="#29294F" d="M830.6,288.6l2.4,86.6h-7.5c0,0-12.4-47.7-17-63.5c-0.4-12.2-6.8-22.9-6.8-22.9L830.6,288.6z"/>
		</g>
		<path fill="#1D1D46" d="M787.6,255.2c4.8-5.3,12.7-10.8,19.2-11.2c7.7,5.5,2.1,11.9,2.1,11.9s-3.8,5.9-11.2,9.4
			C794.3,263,790,258.4,787.6,255.2z"/>
		<path fill="#F6A988" d="M780.5,260.5c1.6-0.7,4.6-2.5,7.1-5.3c2.4,3.3,6.7,7.8,10.1,10.1c-11.1,8-11.1,8-23.2,11.1l0.2-12.4
			C774.7,264.1,780.4,260.5,780.5,260.5z"/>
		<path fill="#F6A988" d="M755.9,274.7c7.5-0.7,15-12.3,23.6-11.4l4.8,9.2l0,0c-2.3,4.4-15,7-25.7,7.7
			C756.6,280,755.9,274.7,755.9,274.7z"/>
		<path fill="#F6A988" d="M757.7,274.4c0.2,0,0.3,0,0.4,0.1c0.5,0,0.9,0.2,1.4,0.4c1.4,0.8,1.8,2.6,1,4c-0.3,0.5-0.8,0.9-1.3,1.1
			c-0.2,0.1-0.4,0.2-0.6,0.2l0,0c-1.4,1.8-4.9,3.1-6.8,3.4c-1.9,0.3-2.2-0.3-3.2-1.2c-1-0.1-2.1-0.3-2.3-1.5c-1.7-0.1-2.4-1-2.7-2.6
			c-0.7-0.5-2.2-0.8-1-2.2c1.2-1.4,5.4-2,7.5-2c-2.8-1.5-3.6-6.2-1-5.3c0.9,2,2.9,2.5,4.8,2.8c1.9,0.3,2.4,1.5,2.9,3
			C757.1,274.4,757.4,274.4,757.7,274.4z"/>
		<g>
			<path fill="#3D3E5C" d="M813.7,210.8c0,0-0.9,8.5,0.9,12c5.5-2.4,3.2-9.6,3.2-9.6L813.7,210.8z"/>
			<path fill="#CC8372" d="M832.3,213.7l-1.3,10.9c0.1,1.2-1.4,2.4-1.8,3.5c-1.2,2.5-3.8,4.3-6.8,4.3l0,0c-4.4,0.1-8-3.5-7.8-7.9
				l0.5-11.5L832.3,213.7z"/>
			<path fill="#3D3E5C" d="M828.5,209.4c7,0.4,7.6,14.7,2.4,16.9c0,0-2.6,4.9-2.5,2.2c-0.1-0.4-0.1-0.8-0.1-1.2
				c2.4-0.2,3.1-6,2.3-6.3c-2-0.8-2.1,1.8-2.1,3.4c0.1-0.4-0.9-0.5-0.8-0.9c2.3-13.7-7.9-2.1-9.4-3.8
				C815.6,217.4,811.6,206.7,828.5,209.4z"/>
			<path fill="#CC8372" d="M821.1,240.5h2.4c1.2,0,2.2-1,2.2-2.2v-10.8h-6.8v10.8C818.9,239.5,819.8,240.5,821.1,240.5z"/>
			<path fill="#3D3E5C" d="M832.3,220.5c0.2-1.7-4.7-4.4-5.7-4.7c-1.1-0.2-4.7,4.2-7.7,4.1c-8.3-0.3-8.1-13.1-2.9-11.7
				s16.9-3.3,18.3,7.9c1.4,11.1-5.2,13.1-5.2,13.1S831.8,225,832.3,220.5z"/>
		</g>
		<path fill="#1D1D46" d="M826.1,234.2c0,0-3.6,1.9-7.3,0.9c-25.5,7.3-13.4,32.5-18,63.2l30.7-0.4
			C825.7,257.6,853.4,245.9,826.1,234.2z"/>
		<path fill="#29294F" d="M818.9,235c0,0-11.5,5-12.6,24.1c-0.7,13.6-1.3,40.1-1.3,40.1l-6.8,1c0,0,2.7-21.3,3.3-45.1
			C803.9,247.7,808.6,234.7,818.9,235z"/>
		<path fill="#E1E3F0" d="M761.5,281.6c0,0-2.5-15.2,1-15c1.6,1.7,30.8-17.5,30.8-17.5s7.6-14,25.6-14
			c-15.5,6.3-13.4,115.3-13.4,115.3h-16.2l10.1-85.2c0,0-7.9,6.9-16.8,10.4C771.1,281.9,761.5,281.6,761.5,281.6z"/>
		<path fill="#E1E3F0" d="M826.1,234.2c0,0-13.5,52.3-11.7,116.1c17,4.3,22.9-5.1,22.9-5.1s-5.5-76.8,1-86.8
			C844.9,248.5,838.9,234.2,826.1,234.2z"/>
		<g>
			<g>
				<path fill="#1D1D46" d="M820.7,259.4c1.6-6.9,1.8-20.6,11.3-18.9c8.7,0.2,6.7,10.2,6.7,10.2s-1.8,5-4.2,12.7
					C830.4,263,824.5,261.1,820.7,259.4z"/>
				<path fill="#CC8372" d="M799.4,275.9c0.2,0,0.3,0.1,0.4,0.1c0.5,0.1,0.9,0.2,1.3,0.5c1.3,1,1.6,2.8,0.6,4
					c-0.4,0.5-0.9,0.8-1.5,1c-0.2,0.1-0.4,0.2-0.7,0.2l0,0c-1.6,1.6-5.3,2.6-7.2,2.7c-1.9,0.1-2.1-0.5-3-1.6c-1-0.1-2.1-0.5-2.1-1.7
					c-1.7-0.2-2.3-1.2-2.4-2.9c-0.7-0.5-2.2-1.1-0.9-2.4c1.4-1.3,5.6-1.2,7.8-1.1c-2.6-1.7-2.9-6.5-0.5-5.3c0.7,2.1,2.6,2.8,4.4,3.3
					c1.8,0.5,2.2,1.7,2.6,3.3C798.8,275.9,799.1,275.9,799.4,275.9z"/>
				<path fill="#CC8372" d="M822.4,267.1c-8.6-2-17.3,9-24.9,8.9c0,0,0.1,5.3,2.1,5.7c10.8,0.4,23.6-0.9,26.3-5.1
					c0.1-0.1,0.5-0.4,0.5-0.5L822.4,267.1C822.5,267.1,822.4,267.1,822.4,267.1z"/>
				<path fill="#CC8372" d="M820.8,259.4c-0.9,3.6,0.4,7.3-0.5,8.7l6.2,8.2c4.1-3.3,6.6-8.1,8.1-12.7
					C830.5,263,824.5,261.1,820.8,259.4z"/>
			</g>
			<path fill="#E1E3F0" d="M800.2,272.5c0,0,1.3,9.9,2.9,12.6c9.2,2.1,23.5-6,23.5-6s18.4-25.4,11.7-38c-6.8-3.5-19.7-5.1-19.9,23.8
				C808,270.1,800.2,272.5,800.2,272.5z"/>
		</g>
	</g>
	<g>
		<path fill="#3D3E5C" d="M762.9,271.4l-3.2-20.8h1.7v-2.2h-6h-4.2v2.2h1.7l-3.2,20.8c-0.1,0.5-0.2,1.1-0.4,1.6l-9.5,22.3
			c-0.3,0.8-0.2,1.6,0.2,2.3l1.4,2c0.5,0.7,1.2,1.1,2.1,1.1h12h13.8c0.8,0,1.6-0.4,2.1-1.1l1.4-2c0.5-0.7,0.5-1.5,0.2-2.3l-9.5-22.3
			C763.1,272.5,762.9,272,762.9,271.4z"/>
		<path fill="#FFFFFF" d="M765.2,279.7l-2.7-6.6c-0.3-0.7-0.4-1.4-0.5-2.1l-3.1-20.5h-5.1l-3.1,21c-0.1,0.7-0.3,1.4-0.5,2.1
			l-2.9,6.9C753,279.2,759.2,279,765.2,279.7z"/>
		<g>
			<path fill="#34495E" d="M765.2,279.7c-6.1-0.7-12.2-0.5-18.1,0.8l-6.3,15c-0.7,1.8,1.4,4.2,2.5,4.1h12.1h13.7
				c1,0,3.4-2.2,2.5-4.1L765.2,279.7z"/>
		</g>
	</g>
	<g>
		<path fill="#3D3E5C" d="M1038.9,278.7l-2.4-15.4h1.3v-1.6h-4.5h-3.1v1.6h1.3l-2.4,15.4c-0.1,0.4-0.2,0.8-0.3,1.1l-7.1,16.5
			c-0.2,0.5-0.2,1.2,0.2,1.7l1,1.5c0.3,0.5,0.9,0.8,1.5,0.8h8.9h10.2c0.6,0,1.2-0.3,1.5-0.8l1-1.5c0.3-0.5,0.4-1.1,0.2-1.7
			l-7.1-16.5C1039.1,279.5,1038.9,279.1,1038.9,278.7z"/>
		<g>
			<path fill="#F7A01A" d="M1030,277.2l-0.2,1.5c-0.1,0.5-0.2,1-0.4,1.5l-6.9,16.3c-0.5,1.3,1,3.1,1.9,3h9h10.2c0.7,0,2.5-1.7,1.9-3
				l-6.9-16.6c-0.2-0.5-0.3-1-0.4-1.5l-0.1-0.3c-0.1,0-0.1,0-0.2-0.1C1035.4,276.8,1032.7,276.5,1030,277.2z"/>
		</g>
		<g>
			<path fill="#FFFFFF" d="M1032.1,263.2l-2.1,14.1c2.7-0.7,5.4-0.4,8,0.9c0.1,0,0.1,0,0.2,0.1l-2.3-15L1032.1,263.2L1032.1,263.2
				L1032.1,263.2z"/>
		</g>
	</g>
	<g>
		<g>
			<ellipse fill="#3D3E5C" cx="820.1" cy="283.9" rx="12.5" ry="12.2"/>
			<rect x="816.7" y="244" fill="#3D3E5C" width="6.8" height="35.2"/>
			<path fill="#FFFFFF" d="M830.9,279.4c-1.5-3.4-4.4-5.9-8.1-6.7V244h-5.4v28.7c-3.1,0.7-5.9,2.7-7.4,5.4
				C817,279.1,824,280,830.9,279.4z"/>
			<g>
				<path fill="#C0C4E3" d="M810,278.1c-1,1.7-1.6,3.7-1.6,5.8c0,6.3,5.3,11.5,11.8,11.5s11.8-5.1,11.8-11.5c0-1.6-0.3-3.1-0.9-4.4
					C824,280,817,279.1,810,278.1z"/>
			</g>
			<rect x="815.3" y="244" fill="#3D3E5C" width="9.5" height="2.3"/>
		</g>
		<rect x="800" y="297.2" fill="#3D3E5C" width="37.1" height="3.5"/>
		<rect x="803.2" y="249.6" fill="#3D3E5C" width="1.9" height="49.3"/>
		<rect x="800.9" y="254.2" fill="#3D3E5C" width="26.2" height="1.7"/>
	</g>
	<g>
		<g>
			<ellipse fill="#3D3E5C" cx="984.8" cy="278.2" rx="16.6" ry="16.3"/>
			<rect x="980.3" y="225.3" fill="#3D3E5C" width="9" height="46.8"/>
			<g>
				<path fill="#1ABC9C" d="M982,272.2c-0.2-0.1-0.3-0.1-0.4-0.2c-1.9,0.4-3.7,0.8-5.6,1c1.8-0.2,3.7-0.5,5.6-1
					c-3.1-1-6.4-2.6-9.8-2.3c-1.6,2.4-2.6,5.3-2.6,8.5c0,8.5,7,15.3,15.6,15.3c8.6,0,15.6-6.8,15.6-15.3c0-1.2-0.2-2.4-0.4-3.5
					C993.9,275,987.6,273.6,982,272.2z"/>
			</g>
			<path fill="#FFFFFF" d="M988.4,263.4v-38h-7.1v38c-3.9,0.9-7.3,3.3-9.4,6.4c3.3-0.3,6.7,1.2,9.8,2.3c5.1-1.2,10.5-3,15.7-3.1
				C995.1,266.2,992,264.2,988.4,263.4z"/>
			<g>
				<path fill="#16A085" d="M981.6,272.1c0.2,0.1,0.3,0.1,0.4,0.2c5.5,1.4,11.8,2.7,17.9,2.5c-0.5-2.1-1.5-4.1-2.8-5.7
					C992.1,269.1,986.8,270.9,981.6,272.1z"/>
			</g>
			<rect x="978.5" y="225.3" fill="#3D3E5C" width="12.6" height="3"/>
		</g>
		<rect x="962.3" y="295.9" fill="#3D3E5C" width="49.2" height="4.6"/>
		<rect x="1004.7" y="232.8" fill="#3D3E5C" width="2.5" height="65.5"/>
		<rect x="975.5" y="238.9" fill="#3D3E5C" width="34.8" height="2.2"/>
	</g>
	<g>
		<g>
			<path fill="#3D3E5C" d="M863.9,294.5h-0.8c-1.1,0-2-0.9-2-2V270c0-0.2,0.1-0.3,0.3-0.3h4.2c0.2,0,0.3,0.1,0.3,0.3v22.5
				C865.9,293.6,865,294.5,863.9,294.5z"/>
			<rect x="860.1" y="269.7" fill="#3D3E5C" width="6.7" height="1.6"/>
			<path fill="#ECF0F1" d="M863.8,293.9h-0.7c-0.9,0-1.6-0.7-1.6-1.6v-21h3.8v21C865.4,293.2,864.7,293.9,863.8,293.9z"/>
		</g>
		<g>
			<path fill="#3D3E5C" d="M875.4,294.5h-0.8c-1.1,0-2-0.9-2-2V270c0-0.2,0.1-0.3,0.3-0.3h4.2c0.2,0,0.3,0.1,0.3,0.3v22.5
				C877.4,293.6,876.5,294.5,875.4,294.5z"/>
			<rect x="871.7" y="269.7" fill="#3D3E5C" width="6.7" height="1.6"/>
			<g>
				<path fill="#5E72EB" d="M875.3,293.9h-0.7c-0.9,0-1.6-0.7-1.6-1.6v-21h3.8v21C877,293.2,876.3,293.9,875.3,293.9z"/>
			</g>
		</g>
		<g>
			<path fill="#3D3E5C" d="M887,294.5h-0.8c-1.1,0-2-0.9-2-2V270c0-0.2,0.1-0.3,0.3-0.3h4.2c0.2,0,0.3,0.1,0.3,0.3v22.5
				C889,293.6,888.1,294.5,887,294.5z"/>
			<rect x="883.3" y="269.7" fill="#3D3E5C" width="6.7" height="1.6"/>
			<path fill="#F7A01A" d="M886.9,293.9h-0.7c-0.9,0-1.6-0.7-1.6-1.6v-21h3.8v21C888.5,293.2,887.8,293.9,886.9,293.9z"/>
		</g>
		<g>
			<path fill="#3D3E5C" d="M898.5,294.5h-0.8c-1.1,0-2-0.9-2-2V270c0-0.2,0.1-0.3,0.3-0.3h4.2c0.2,0,0.3,0.1,0.3,0.3v22.5
				C900.5,293.6,899.6,294.5,898.5,294.5z"/>
			<rect x="894.8" y="269.7" fill="#3D3E5C" width="6.7" height="1.6"/>
			<g>
				<path fill="#8E44AD" d="M898.5,293.6h-0.7c-0.9,0-1.6-0.7-1.6-1.6v-20.4h3.9V292C900.1,292.9,899.4,293.6,898.5,293.6z"/>
			</g>
		</g>
		<g>
			<path fill="#3D3E5C" d="M910.1,294.5h-0.8c-1.1,0-2-0.9-2-2V270c0-0.2,0.1-0.3,0.3-0.3h4.2c0.2,0,0.3,0.1,0.3,0.3v22.5
				C912.1,293.6,911.2,294.5,910.1,294.5z"/>
			<rect x="906.3" y="269.7" fill="#3D3E5C" width="6.7" height="1.6"/>
			<path fill="#2ECC71" d="M910,293.9h-0.7c-0.9,0-1.6-0.7-1.6-1.6v-21h3.8v21C911.6,293.2,910.9,293.9,910,293.9z"/>
		</g>
		<rect x="852.8" y="297.5" fill="#3D3E5C" width="66.7" height="3.2"/>
		<rect x="855.5" y="272.2" fill="#3D3E5C" width="1.7" height="26.8"/>
		<rect x="915.3" y="272.2" fill="#3D3E5C" width="1.7" height="26.8"/>
		<rect x="856.3" y="275.6" fill="#3D3E5C" width="59.9" height="0.8"/>
	</g>
	<g>
		<g>
			<rect x="696.3" y="300.6" fill="#808BB4" width="450.3" height="18.4"/>
		</g>
		<rect x="708.8" y="319" fill="#C0C4E3" width="425.3" height="7.3"/>
		<g>
			<rect x="722.8" y="326.2" fill="#C0C4E3" width="20.7" height="67.8"/>
			<rect x="1099.3" y="326.2" fill="#C0C4E3" width="20.7" height="67.8"/>
		</g>
	</g>
</g>
</svg>
