<?xml version="1.0" encoding="utf-8"?>
<!-- Generator: Adobe Illustrator 19.0.0, SVG Export Plug-In . SVG Version: 6.00 Build 0)  -->
<svg version="1.1" id="Layer_1" xmlns="http://www.w3.org/2000/svg" xmlns:xlink="http://www.w3.org/1999/xlink" x="0px" y="0px"
	 viewBox="32 98.8 879.1 344.6" style="enable-background:new 32 98.8 879.1 344.6;" xml:space="preserve">
<style type="text/css">
	.st0{fill:#0C4B5C;}
	.st1{fill:#FFEECF;}
	.st2{fill:#08C7B6;}
	.st3{fill:#FF3755;}
	.st4{fill:#3696B1;}
	.st5{fill:#D0001F;}
	.st6{fill:#03554D;}
	.st7{fill:#03495C;}
	.st8{fill:#1DF6E2;}
	.st9{fill:#FF2646;}
	.st10{fill:#03443E;}
	.st11{fill:#09E8D3;}
	.st12{fill:#05867A;}
	.st13{fill:#07A698;}
	.st14{fill:#2DF7E4;}
	.st15{fill:#04655C;}
	.st16{fill:#7FFAEF;}
	.st17{fill:#4EF8E8;}
</style>
<g id="XMLID_270_">
	<g id="XMLID_596_">
		<path id="XMLID_597_" class="st0" d="M472.1,440c-9,0-54.5-0.9-66.2-17.8c-2.5-3.6-2.5-8.5-0.2-12.3c-8.6-5.8-10.4-12.2-10.4-16.7
			v-0.9l18.3-29.6v-12.8l-11-8.8v-17h-23.5v54.4h-338V228.4h338v56.5h23.5v-20.4v-3.2l15.4-12.3c-16.9-9.1-25.8-22.3-25.8-38.4
			c0-14.4,22-26.2,56.1-30.3l13.8-29.1v-32.3c0-4.1,4.3-7,10.4-7s10.4,2.9,10.4,7v32.7l13.6,28.7c34,4.1,55.9,15.9,55.9,30.2
			c0,16-8.9,29.3-25.7,38.4l15.5,12.4l-0.1,3.1v20.5h23.5v-56.5h338v150.2h-338v-54.4h-23.4v17l-11.5,9.2v12.4l18.3,29.4v0.9
			c0,6.4-3.5,12-10.5,16.7c2.4,3.8,2.3,8.7-0.2,12.4C526.8,439.1,481.2,440,472.1,440L472.1,440z M565.7,312.6v-16.2h-23.5v16.2
			H565.7z M402.6,312.6v-16.2h-23.5v16.2H402.6z M472.4,178.9c4,0,8,0.1,11.9,0.3l-11.4-24h-0.7l-11.4,24
			C464.6,179.1,468.5,178.9,472.4,178.9z"/>
	</g>
	<g id="XMLID_590_">
		<path id="XMLID_591_" class="st1" d="M791.7,230.6v33.3h-2.2v-33.2H679.9v33.2h-2.2v-33.2H568v56.5h-28.1v-23.8l0.6-0.5
			l-17.9-14.4c16.3-7.9,27.6-20.4,27.6-37.9c0-13.1-22.1-24.4-55.1-28.1l-14.4-30.3v-3.3v-2v-28c0-6.3-16.2-6.3-16.2,0v27.9v2v2.9
			l-14.6,30.7c-33.1,3.7-55.4,15-55.4,28.1c0,17.6,11.4,30.1,27.7,38l-17.9,14.4l0.6,0.5v23.8h-28.1v-56.5H267.1v33.2h-2.2v-33.2
			H155.2v33.2H153v-33.2H43.4v145.6h109.7v-33.2h2.2v33.2H265v-33.2h2.2v33.2h109.7v-54.4H405v18.2l11.1,8.9l0,0v14.4L397.8,393v0.3
			c0,6.1,3.9,11.6,11.3,16.1l-1,1.5c-2.1,3.1-2.2,7.2-0.1,10.2c8.5,12.4,40,16.8,64.3,16.8c0,0,0,0,0.1,0c24.4,0,55.8-4.4,64.4-16.8
			c2.1-3,2-7.1-0.1-10.2l-1-1.5c7.1-4.2,11.4-9.5,11.4-16v-0.3l-18.3-29.4v-14.2l11.5-9.2v-18.4h28.1v54.4h109.7v-33.2h2.2v33.2H790
			v-33.2h2.2v33.2h109.7V230.6H791.7z M568,314.9h-28.1v-20.7H568V314.9z M470.7,152.9h3.6l13.7,28.9c-10.1-0.8-20.8-0.8-30.9,0
			L470.7,152.9z M376.8,294.1h28.1v20.8h-28.1V294.1z"/>
	</g>
	<g id="XMLID_588_">
		<path id="XMLID_260_" class="st2" d="M493.5,183.8l15.4,32.5c0.2,0.3,0.2,0.7,0.1,0.9c-0.1,0.3-0.3,0.5-0.5,0.6
			c-0.3,0.1-0.5,0.1-0.8,0.1c-0.3-0.1-0.5-0.3-0.7-0.7l-16-33.7c-10.7-1.1-18.6-1.4-18.6-1.4c10.8,18.2,11.5,37.4,0,57.8
			c0,0,76.1-5.1,76.1-30.4C548.6,193.1,516,186.4,493.5,183.8z"/>
	</g>
	<g id="XMLID_586_">
		<path id="XMLID_259_" class="st3" d="M537.3,262.9l-32,25.6h-65.8l-32-25.6l16.8-13.4c5.3,2.4,11.2,4.3,17.2,5.8
			c0.3,5.9,3.7,10.8,9.8,14.2c5.6,3.2,13.1,4.9,21.1,4.9c14.5,0,30.1-6,30.9-19.2c6.1-1.5,11.9-3.4,17.2-5.8L537.3,262.9z"/>
	</g>
	<g id="XMLID_579_">
		<g id="XMLID_584_">
			<path id="XMLID_258_" class="st4" d="M472.4,270.9c-11.6,0-24.5-4.7-27.8-15c-0.3-0.1-0.7-0.2-1.1-0.3
				c1.1,11.5,15.5,16.7,28.8,16.7v-1.4H472.4z"/>
		</g>
		<g id="XMLID_582_">
			<path id="XMLID_257_" class="st4" d="M457,265.9c4.6,2.1,10.1,3,15.4,3v-10.2c-8.5,0-17.2-0.8-25.5-2.4
				C448.6,260.8,452.4,263.8,457,265.9z"/>
		</g>
		<g id="XMLID_580_">
			<path id="XMLID_256_" class="st4" d="M458,239.4c-27.4-1.9-45.4-8.7-56.9-16.9c6.1,26.1,38.1,34.3,71.3,34.3
				C472.4,256.8,459.6,253.1,458,239.4z"/>
		</g>
	</g>
	<g id="XMLID_577_">
		<path id="XMLID_255_" class="st5" d="M472.4,273.3h-53.6L406,262.6l17.1-13.9c0,0,8,3,10.1,3.5s9.4,2.5,9.4,2.5l0.1,4.4
			c0,0,3,4.9,6.4,7.3s11.7,5.3,15,5.9C467.5,272.9,472.4,273.3,472.4,273.3z"/>
	</g>
	<g id="XMLID_575_">
		<rect id="XMLID_254_" x="465.9" y="147.8" class="st4" width="13.1" height="3.7"/>
	</g>
	<g id="XMLID_573_">
		<path id="XMLID_253_" class="st3" d="M478.7,120v26.8h-12.2V120C466.5,114.8,478.7,114.8,478.7,120z"/>
	</g>
	<g id="XMLID_571_">
		<rect id="XMLID_252_" x="467.6" y="115.4" class="st5" width="5.9" height="32.8"/>
	</g>
	<g id="XMLID_564_">
		<g id="XMLID_569_">
			<polygon id="XMLID_251_" class="st4" points="526.4,351 526.4,350.8 526.2,351 			"/>
		</g>
		<g id="XMLID_567_">
			<path id="XMLID_250_" class="st4" d="M472.1,421.5c-19.4,0-37.2-2.7-50.7-7.1c-4-1.3-5-1.7-8.2-3l-1.1,1.7
				c-1.7,2.4-1.7,5.6-0.1,7.9c6.6,9.5,29.2,14.7,60.1,14.7l0,0L472.1,421.5L472.1,421.5z"/>
		</g>
		<g id="XMLID_565_">
			<path id="XMLID_249_" class="st4" d="M472.1,387.6v-20.4h-33.3l-19.7-15.7V368C419.1,381.5,445.2,387.6,472.1,387.6z"/>
		</g>
	</g>
	<path id="XMLID_527_" class="st6" d="M79.6,343.6v27.5l-3.2,3.2H48.2l-2.9-2.9v-28.1l3.2-3.2H76L79.6,343.6z M76.1,304.1H48.6
		l-3.2,3.2v28.1l3.2,3.2h27.5l3.5-3.5v-27.5L76.1,304.1z M76.1,268.3H48.6l-3.2,3.2v28.2l3.2,3.2h27.5l3.5-3.5v-27.5L76.1,268.3z
		 M76.4,232.6H48.2l-2.9,2.9v28.2l3.2,3.2H76l3.5-3.5v-27.5L76.4,232.6z"/>
	<path id="XMLID_355_" class="st0" d="M568,292.1v-3h-28.1v3H568z M568,314.9v-20.8h-28.1v20.8H568z M568,319.9v-3h-28.1v3H568z
		 M528.9,346.3V336l-4.6,3.9v10L528.9,346.3z M537.9,264.9l-7.7,6.1v12.4l-6,5.1V306l7.9-6.7v20.6l-7.9,6.6v11.7l6-5.1v12.1l7.7-6.2
		v-17.2v-7V294v-7V264.9z M522.9,287.9v-11l-4,3.2v11.3L522.9,287.9z M522.9,351v-10l-4,3.4v9.7L522.9,351z M523.8,276.3h0.4v10.6
		l4.6-3.9v-10.7L523.8,276.3z M517.6,281.3l-11.4,9.1v74.1l11.4-9.1v-11.4l5.3-4.5v-13.5l7.9-6.6v-17l-7.9,6.7v-19.2l-5.3,4.5V281.3
		z M473.1,365.2h31.1v-74.7H473v18.4h14.2V351h-14.1V365.2z M476.5,152.9l30.5,64.3c0.2,0.3,0.4,0.6,0.7,0.7c0.2,0.1,0.5,0,0.8-0.1
		s0.5-0.3,0.5-0.6c0.1-0.3,0.1-0.6-0.1-0.9l-30-63.4C478.9,152.9,476.5,152.9,476.5,152.9z M478.7,120c0-5.3-12.2-5.3-12.2,0v26.8
		h12.2V120z M466.5,150.9h12.2v-2.1h-12.2V150.9z M457,181.8c10.2-0.8,20.8-0.7,30.9,0l-13.6-28.8h-3.6L457,181.8z M457,265.9
		c4.6,2.1,10.1,3,15.4,3c10.4,0,22-3.9,25.5-12.6c-8.3,1.6-17,2.4-25.5,2.4s-17.2-0.8-25.5-2.4C448.6,260.8,452.4,263.8,457,265.9z
		 M459.8,324.2V349h25.4v-24.8H459.8z M459.8,310.9v11.3h25.4v-11.3H459.8z M471.7,290.5h-31.6v74.7h31.6V351h-13.9v-42.1h13.9
		V290.5z M472.4,270.9c-11.6,0-24.5-4.7-27.8-15c-0.3-0.1-0.7-0.2-1.1-0.3c1.1,11.5,15.5,16.7,28.9,16.7s27.7-5.3,28.8-16.7
		c-0.3,0.1-0.7,0.2-1.1,0.3c-1.6,5.2-5.7,8.9-10.8,11.4C484.3,269.8,478.2,270.9,472.4,270.9z M438,217.3l30.5-64.3h-2.4l-30,63.4
		c-0.2,0.3-0.2,0.7-0.1,0.9c0.1,0.3,0.3,0.5,0.5,0.6c0.3,0.1,0.5,0.1,0.8,0.1C437.6,217.8,437.9,217.6,438,217.3z M425.6,343.9
		l-4-3.4v10.3h-0.1l4,3.2v-10.1H425.6z M421.6,287.3l4,3.4v-10.8l-4-3.2V287.3z M417.9,367c0,13.5,27.3,20.6,54.2,20.6
		c27,0,54.2-7.1,54.2-20.6v-16.1l-20.4,16.3h-67.2l-20.9-16.7L417.9,367L417.9,367z M421.6,308.3l-7.9-6.7v17l7.9,6.6v13.5l5.3,4.5
		V355l11.3,9v-74.1l-11.3-9v12.7l-5.3-4.5V308.3z M420.3,275.6l-4.6-3.7v10.3l4.6,3.9V275.6z M420.3,339.4l-4.6-4v10.7l4.6,3.7
		V339.4z M406.9,321.8V339l7.4,5.9v-12.5l6,5.1v-11.6l-7.9-6.6v-20.5l7.9,6.7v-17.6l-6-5.1v-12l-7.4-5.9v22.2v7v20.8V321.8z
		 M413.2,371.4c1,14.3,30,21.8,58.8,21.8c29,0,58.4-7.6,58.8-22.2l-2.4-3.8c-0.3,15.4-29.3,22.4-56.2,22.4
		c-14.6,0-28.2-1.9-38.3-5.5c-11.7-4.1-17.9-10-17.9-17.1L413.2,371.4z M419.5,391c-6.1-3.5-9.7-7.7-10.6-12.4l-2.2,3.5
		c1.4,16.2,33.6,24.7,65.5,24.7s64.2-8.5,65.5-24.9l-2.3-3.7c-0.9,4.8-4.5,9.1-10.7,12.7c-12.1,6.9-32.3,10.4-52.6,10.4
		C451.8,401.4,431.5,397.9,419.5,391z M409.9,376.8c0.4,5,3.8,9.4,10.2,13c23.3,13.5,80.5,13.4,103.9,0c6.5-3.8,10-8.2,10.2-13.3
		l-2.3-3.7c-2.6,14.9-32.3,21.7-60,21.7c-15.6,0-30.2-2.1-41.1-5.8c-11-3.8-17.4-9.1-18.8-15.5L409.9,376.8z M410.7,410.1l-1.1,1.7
		c-1.7,2.4-1.7,5.6-0.1,7.9c6.6,9.5,31.7,15.9,62.6,15.9h0.1c31,0,56.2-6.4,62.7-15.9c1.6-2.3,1.5-5.5-0.1-8l-1.1-1.7
		c-14.4,7.7-38.5,11.4-61.5,11.4c-19.4,0-37.5-2.4-50.9-6.9C417.2,413.3,413.7,411.8,410.7,410.1z M404.9,316.9h-28.1v3h28.1V316.9z
		 M404.9,289.1h-28.1v3h28.1V289.1z M376.8,294.1v20.8h28.1v-20.8H376.8z M472.4,239.9c-36.1,0-65.8-8.9-74.9-21.3
		c6.1,26.1,41.6,38.1,74.9,38.1c33.2,0,68.7-12,74.9-38.1C538.1,231.1,508.5,239.9,472.4,239.9z M396.6,210.6
		c0,15.1,34,27.4,75.8,27.4c41.8,0,75.8-12.3,75.8-27.4c0-11.7-21.3-22.3-52.1-26l14.6,30.9c0.5,1.1,0.4,2,0.2,2.5
		c-0.3,0.7-0.8,1.3-1.6,1.6c-0.4,0.2-0.9,0.3-1.3,0.3c-0.3,0-0.6,0-0.9-0.1c-0.6-0.2-1.3-0.6-1.9-1.7L489,183.9
		c-10.8-0.9-22.2-0.9-32.9,0l-16.2,34.2c-0.6,1.3-1.7,1.8-2.8,1.8c-0.5,0-0.9-0.1-1.3-0.3c-0.7-0.3-1.3-0.9-1.6-1.6
		c-0.2-0.5-0.4-1.4,0.1-2.5l14.7-30.9C418,188.3,396.6,198.8,396.6,210.6z M403.3,387.3c1.6,17.2,35.4,26.2,68.9,26.2
		c33.4,0,67.2-9,68.9-26.2l-2.3-3.7c-1.6,8.4-10.6,14.5-23,18.5s-28.3,5.9-43.6,5.9c-30.5,0-63.2-7.6-66.6-24.3L403.3,387.3z
		 M407.5,262.9l32,25.6h65.8l32-25.6l-16.8-13.4c-5.3,2.4-11.1,4.3-17.2,5.8c-0.8,13.2-16.3,19.2-30.9,19.2c-8,0-15.5-1.8-21.1-4.9
		c-6.1-3.5-9.5-8.4-9.8-14.2c-6.1-1.5-11.9-3.4-17.2-5.8L407.5,262.9z M424.1,407.8c-12.9-4.6-20.3-11-21.9-18.7l-2.6,4.2
		c0.4,17.2,36.7,26.1,72.6,26.1s72.2-9,72.6-26.1l-2.6-4.2c-3.7,17.7-38,25.8-70,25.8C453.9,414.9,436.8,412.4,424.1,407.8z
		 M374.8,263.8v-28.2l-2.9-2.9h-28.2l-3.2,3.2v27.5l3.5,3.5h27.5L374.8,263.8z M374.8,299.6v-5.5v-7v-15.7l-3.2-3.2h-27.5l-3.5,3.5
		v27.5l3.5,3.5h27.5L374.8,299.6z M374.8,335.5v-13.6v-7v-7.6l-3.2-3.2h-27.5l-3.5,3.5v27.5l3.5,3.5h27.5L374.8,335.5z M374.8,371.4
		v-28.1l-3.2-3.2h-27.5l-3.5,3.5v27.5l3.2,3.2H372L374.8,371.4z M339.2,343.6l-3.5-3.5h-27.5l-3.5,3.5v27.5l3.2,3.2h28.2l3.2-3.2
		v-27.5H339.2z M335.7,266.9l3.5-3.5v-27.5l-3.2-3.2h-28.2l-3.2,3.2v27.5l3.5,3.5H335.7z M335.7,302.8l3.5-3.5v-27.5l-3.5-3.5h-27.5
		l-3.5,3.5v27.5l3.5,3.5H335.7z M335.7,338.7l3.5-3.5v-27.5l-3.5-3.5h-27.5l-3.5,3.5v27.5l3.5,3.5H335.7z M270.8,263.9
		c1.8,0,3.3,1.3,3.6,3h25.4l3.5-3.5v-27.5l-3.2-3.2H272l-2.9,2.9v28.2l0.2,0.2h1.5V263.9z M274.4,268.3c-0.3,1.7-1.8,2.9-3.6,2.9
		h-1.5l-0.3,0.3v28.2l0.2,0.2h1.5c1.8,0,3.3,1.3,3.6,3h25.4l3.5-3.5v-27.5l-3.5-3.5h-25.3V268.3z M274.4,340c-0.3,1.7-1.8,3-3.6,3
		h-1.5l-0.2,0.2v28.1l2.9,2.9h28.1l3.2-3.2v-27.5l-3.5-3.5H274.4z M274.4,304.1c-0.3,1.7-1.8,3-3.6,3h-1.5l-0.2,0.2v28.1l0.3,0.3
		h1.5c1.8,0,3.2,1.3,3.6,2.9h25.4l3.5-3.5v-27.5l-3.5-3.5H274.4z M267.1,299.8v-28.7H265v28.7H267.1z M267.1,335.8v-28.7H265v28.7
		H267.1z M260.1,374.3l2.9-2.9v-28.1l-0.2-0.2H261c-1.8,0-3.3-1.3-3.6-3h-25.1l-3.6,3.5v27.5l3.2,3.2H260.1z M257.4,338.7
		c0.3-1.7,1.8-2.9,3.6-2.9h1.7l0.3-0.3v-28.1l-0.2-0.2h-1.7c-1.8,0-3.3-1.3-3.6-3h-25.1l-3.6,3.5v27.5l3.6,3.5H257.4z M257.4,302.8
		c0.3-1.7,1.8-3,3.6-3h1.7l0.2-0.2v-28.2l-0.3-0.3h-1.7c-1.8,0-3.3-1.3-3.6-2.9h-25.1l-3.6,3.5v27.5l3.6,3.5h25.2V302.8z
		 M257.4,266.9c0.3-1.7,1.8-3,3.6-3h1.8l0.2-0.2v-28.2l-2.9-2.9H232l-3.2,3.2v27.5l3.6,3.5L257.4,266.9L257.4,266.9z M270.8,337.7
		h-9.9c-0.9,0-1.7,0.7-1.7,1.6s0.8,1.6,1.7,1.6h9.9c0.9,0,1.6-0.7,1.6-1.6C272.5,338.5,271.7,337.7,270.8,337.7z M270.8,301.8h-9.9
		c-0.9,0-1.7,0.7-1.7,1.6s0.8,1.6,1.7,1.6h9.9c0.9,0,1.6-0.7,1.6-1.6C272.5,302.5,271.7,301.8,270.8,301.8z M270.8,265.9h-9.9
		c-0.9,0-1.7,0.7-1.7,1.6s0.8,1.6,1.7,1.6h9.9c0.9,0,1.6-0.7,1.6-1.6C272.5,266.6,271.7,265.9,270.8,265.9z M227.4,263.3v-27.5
		l-3.2-3.2H196l-3.2,3.2v27.5l3.5,3.5h27.5L227.4,263.3z M227.4,299.2v-27.5l-3.5-3.5h-27.5l-3.5,3.5v27.5l3.5,3.5h27.5L227.4,299.2
		z M227.4,335.2v-27.5l-3.5-3.5h-27.5l-3.5,3.5v27.5l3.5,3.5h27.5L227.4,335.2z M227.4,371v-27.5l-3.5-3.5h-27.5l-3.5,3.5V371
		l3.2,3.2h28.1L227.4,371z M188.3,232.6h-28.1l-2.9,2.9v28.2l0.2,0.2h1.8c1.8,0,3.3,1.3,3.6,3H188l3.6-3.5v-27.5L188.3,232.6z
		 M157.2,343.2v28.1l2.9,2.9h28.1l3.2-3.2v-27.5l-3.6-3.5h-25.1c-0.3,1.7-1.8,3-3.6,3h-1.8L157.2,343.2z M157.2,307.3v28.1l0.3,0.3
		h1.8c1.8,0,3.2,1.3,3.6,2.9H188l3.6-3.5v-27.5l-3.6-3.5h-25.1c-0.3,1.7-1.8,3-3.6,3h-1.8L157.2,307.3z M157.2,271.4v28.2l0.2,0.2
		h1.8c1.8,0,3.3,1.3,3.6,3h25.1l3.6-3.5v-27.5l-3.6-3.5h-25.1c-0.3,1.7-1.8,2.9-3.6,2.9h-1.8L157.2,271.4z M153.1,307.1v28.7h2.1
		v-28.7H153.1z M153.1,271.3v28.7h2.1v-28.7H153.1z M159.2,301.8h-9.9c-0.9,0-1.7,0.7-1.7,1.6s0.8,1.6,1.7,1.6h9.9
		c0.9,0,1.6-0.7,1.6-1.6C160.9,302.5,160.1,301.8,159.2,301.8z M159.2,337.7h-9.9c-0.9,0-1.7,0.7-1.7,1.6s0.8,1.6,1.7,1.6h9.9
		c0.9,0,1.6-0.7,1.6-1.6C160.9,338.5,160.1,337.7,159.2,337.7z M149.4,269.3h9.9c0.9,0,1.6-0.7,1.6-1.6s-0.8-1.6-1.6-1.6h-9.9
		c-0.9,0-1.7,0.7-1.7,1.6C147.7,268.4,148.5,269.3,149.4,269.3z M115.5,263.3v-27.5l-3.2-3.2H84.1l-3.2,3.2v27.5l3.5,3.5h27.5
		L115.5,263.3z M115.5,299.2v-27.5l-3.5-3.5H84.5l-3.5,3.5v27.5l3.5,3.5H112L115.5,299.2z M115.5,335.2v-27.5l-3.5-3.5H84.5
		l-3.5,3.5v27.5l3.5,3.5H112L115.5,335.2z M115.5,371v-27.5L112,340H84.5l-3.5,3.5V371l3.2,3.2h28.2L115.5,371z M148.2,232.6h-28.1
		l-3.2,3.2v27.5l3.5,3.5h25.4c0.3-1.7,1.8-3,3.6-3h1.5l0.2-0.2v-28.2L148.2,232.6z M145.8,340h-25.4l-3.5,3.5V371l3.2,3.2h28.1
		l2.9-2.9v-28.1l-0.2-0.2h-1.5C147.6,343,146.1,341.7,145.8,340z M145.8,304.1h-25.4l-3.5,3.5v27.5l3.5,3.5h25.4
		c0.3-1.7,1.8-2.9,3.6-2.9h1.4l0.3-0.3v-28.1l-0.2-0.2h-1.5C147.6,307.1,146.1,305.8,145.8,304.1z M145.8,268.3h-25.4l-3.5,3.5v27.5
		l3.5,3.5h25.4c0.3-1.7,1.8-3,3.6-3h1.5l0.2-0.2v-28.2l-0.3-0.3h-1.4C147.6,271.3,146.1,269.9,145.8,268.3z M76.1,302.8l3.5-3.5
		v-27.5l-3.5-3.5H48.6l-3.2,3.2v28.2l3.2,3.2h27.5V302.8z M76.1,338.7l3.5-3.5v-27.5l-3.5-3.5H48.6l-3.2,3.2v28.1l3.2,3.2
		L76.1,338.7L76.1,338.7z M79.6,235.8l-3.2-3.2H48.2l-2.9,2.9v28.2l3.2,3.2H76l3.5-3.5L79.6,235.8L79.6,235.8z M76.4,374.3l3.2-3.2
		v-27.5l-3.5-3.5H48.6l-3.2,3.2v28.1l2.9,2.9H76.4z M604.2,263.3v-27.5l-3.2-3.2h-28.2l-2.9,2.9v28.2l3.2,3.2h27.5L604.2,263.3z
		 M604.2,299.2v-27.5l-3.5-3.5h-27.5l-3.2,3.2v15.7v7v5.5l3.2,3.2h27.5L604.2,299.2z M604.2,335.2v-27.5l-3.5-3.5h-27.5l-3.2,3.2
		v7.6v7v13.6l3.2,3.2h27.5L604.2,335.2z M604.2,371v-27.5l-3.5-3.5h-27.5l-3.2,3.2v28.1l2.9,2.9h28.2L604.2,371z M640.1,343.6
		l-3.5-3.5h-27.5l-3.6,3.5v27.5l3.2,3.2h28.1l3.2-3.2L640.1,343.6L640.1,343.6z M636.6,266.9l3.5-3.5v-27.5l-3.2-3.2h-28.1l-3.2,3.2
		v27.5l3.6,3.5H636.6z M636.6,302.8l3.5-3.5v-27.5l-3.5-3.5h-27.5l-3.6,3.5v27.5l3.6,3.5H636.6z M636.6,338.7l3.5-3.5v-27.5
		l-3.5-3.5h-27.5l-3.6,3.5v27.5l3.6,3.5H636.6z M716.1,263.3v-27.5l-3.2-3.2h-28.2l-2.9,2.9v28.2l0.2,0.2h1.8c1.8,0,3.3,1.3,3.6,3
		h25.1L716.1,263.3z M716.1,299.2v-27.5l-3.5-3.5h-25.1c-0.3,1.7-1.8,2.9-3.6,2.9h-1.7l-0.3,0.3v28.2l0.3,0.2h1.7
		c1.8,0,3.3,1.3,3.6,3h25.1L716.1,299.2z M716.1,335.2v-27.5l-3.5-3.5h-25.1c-0.3,1.7-1.8,3-3.6,3h-1.7l-0.3,0.2v28.1l0.3,0.3h1.7
		c1.8,0,3.3,1.3,3.6,2.9h25.1L716.1,335.2z M716.1,371v-27.5l-3.5-3.5h-25.1c-0.3,1.7-1.8,3-3.6,3h-1.8l-0.2,0.2v28.1l2.9,2.9H713
		L716.1,371z M721,340l-3.5,3.5V371l3.2,3.2h28.2l3.2-3.2v-27.5l-3.5-3.5H721z M717.4,271.8v27.5l3.5,3.5h27.5l3.5-3.5v-27.5
		l-3.5-3.5h-27.5L717.4,271.8z M721,304.1l-3.5,3.5v27.5l3.5,3.5h27.5l3.5-3.5v-27.5l-3.5-3.5H721z M717.4,235.8v27.5l3.5,3.5h27.5
		l3.5-3.5v-27.5l-3.2-3.2h-28.2L717.4,235.8z M863.9,263.3v-27.5l-3.2-3.2h-28.2l-3.2,3.2v27.5l3.5,3.5h27.5L863.9,263.3z
		 M863.9,299.2v-27.5l-3.5-3.5h-27.5l-3.5,3.5v27.5l3.5,3.5h27.5L863.9,299.2z M863.9,335.2v-27.5l-3.5-3.5h-27.5l-3.5,3.5v27.5
		l3.5,3.5h27.5L863.9,335.2z M863.9,371v-27.5l-3.5-3.5h-27.5l-3.5,3.5V371l3.2,3.2h28.2L863.9,371z M675.7,263.8v-28.2l-2.9-2.9
		h-28.1l-3.2,3.2v27.5l3.5,3.5h25.4c0.3-1.7,1.8-3,3.6-3h1.5L675.7,263.8z M675.7,299.6v-28.2l-0.3-0.3h-1.5c-1.8,0-3.2-1.3-3.6-2.9
		h-25.4l-3.5,3.5v27.5l3.5,3.5h25.4c0.3-1.7,1.8-3,3.6-3h1.5L675.7,299.6z M675.7,335.5v-28.1l-0.2-0.2H674c-1.8,0-3.3-1.3-3.6-3
		H645l-3.5,3.5v27.5l3.5,3.5h25.4c0.3-1.7,1.8-2.9,3.6-2.9h1.5L675.7,335.5z M899.4,263.8v-28.2l-2.9-2.9h-28.1l-3.2,3.2v27.5
		l3.6,3.5h27.4L899.4,263.8z M899.4,299.6v-28.2l-3.2-3.2h-27.5l-3.6,3.5v27.5l3.6,3.5h27.5L899.4,299.6z M899.4,335.5v-28.1
		l-3.2-3.2h-27.5l-3.6,3.5v27.5l3.6,3.5h27.5L899.4,335.5z M899.4,371.4v-28.1l-3.2-3.2h-27.5l-3.6,3.5v27.5l3.2,3.2h28.1
		L899.4,371.4z M787.6,263.8v-28.2l-2.9-2.9h-28.1l-3.2,3.2v27.5l3.5,3.5H782c0.3-1.7,1.8-3,3.6-3h1.8L787.6,263.8z M787.6,299.6
		v-28.2l-0.3-0.3h-1.8c-1.8,0-3.2-1.3-3.6-2.9h-25.1l-3.5,3.5v27.5l3.5,3.5h25.1c0.3-1.7,1.8-3,3.6-3h1.8L787.6,299.6z M787.6,335.5
		v-28.1l-0.2-0.2h-1.8c-1.8,0-3.3-1.3-3.6-3h-25.1l-3.5,3.5v27.5l3.5,3.5H782c0.3-1.7,1.8-2.9,3.6-2.9h1.8L787.6,335.5z
		 M787.6,371.4v-28.1l-0.2-0.2h-1.8c-1.8,0-3.3-1.3-3.6-3h-25.1l-3.5,3.5v27.5l3.2,3.2h28.1L787.6,371.4z M789.6,271.3v28.7h2.1
		v-28.7H789.6z M791.7,307.1h-2.1v28.7h2.1V307.1z M795.4,305.1c0.9,0,1.7-0.7,1.7-1.6s-0.8-1.6-1.7-1.6h-9.9
		c-0.9,0-1.6,0.7-1.6,1.6s0.7,1.6,1.6,1.6H795.4z M797.1,267.5c0-0.9-0.8-1.6-1.7-1.6h-9.9c-0.9,0-1.6,0.7-1.6,1.6s0.7,1.6,1.6,1.6
		h9.9C796.3,269.3,797.1,268.4,797.1,267.5z M795.4,341c0.9,0,1.7-0.7,1.7-1.6s-0.8-1.6-1.7-1.6h-9.9c-0.9,0-1.6,0.7-1.6,1.6
		s0.7,1.6,1.6,1.6H795.4z M824.4,340H799c-0.3,1.7-1.8,3-3.6,3h-1.5l-0.2,0.2v28.1l2.9,2.9h28.1l3.2-3.2v-27.5L824.4,340z
		 M824.4,302.8l3.6-3.5v-27.5l-3.6-3.5H799c-0.3,1.7-1.8,2.9-3.6,2.9H794l-0.3,0.3v28.2l0.2,0.2h1.5c1.8,0,3.3,1.3,3.6,3h25.4V302.8
		z M824.4,338.7l3.6-3.5v-27.5l-3.6-3.5H799c-0.3,1.7-1.8,3-3.6,3h-1.5l-0.2,0.2v28.1l0.3,0.3h1.4c1.8,0,3.3,1.3,3.6,2.9H824.4z
		 M828,235.8l-3.2-3.2h-28.1l-2.9,2.9v28.2l0.2,0.2h1.5c1.8,0,3.3,1.3,3.6,3h25.4l3.6-3.5L828,235.8L828,235.8z M675.7,371.4v-28.1
		l-0.2-0.2H674c-1.8,0-3.3-1.3-3.6-3H645l-3.5,3.5v27.5l3.2,3.2h28.1L675.7,371.4z M674,341h9.9c0.9,0,1.7-0.7,1.7-1.6
		s-0.8-1.6-1.7-1.6H674c-0.9,0-1.6,0.7-1.6,1.6C672.3,340.3,673.1,341,674,341z M679.9,335.8v-28.7h-2.2v28.7H679.9z M674,305.1h9.9
		c0.9,0,1.7-0.7,1.7-1.6s-0.8-1.6-1.7-1.6H674c-0.9,0-1.6,0.7-1.6,1.6C672.3,304.4,673.1,305.1,674,305.1z M679.9,299.8v-28.7h-2.2
		v28.7H679.9z M674,269.3h9.9c0.9,0,1.7-0.7,1.7-1.6s-0.8-1.6-1.7-1.6H674c-0.9,0-1.6,0.7-1.6,1.6
		C672.3,268.4,673.1,269.3,674,269.3z M679.9,263.9v-33.2h109.7v33.2h2.1v-33.2h109.7v145.6H791.7v-33.2h-2.1v33.2H679.9v-33.2h-2.2
		v33.2H568V322h-28.1v18.2l-11.5,9.2v14.2l18.4,29.4v0.3c0,6.5-4.3,11.8-11.4,16l1,1.5c2.1,3.1,2.2,7.2,0.1,10.2
		c-8.6,12.4-40,16.8-64.4,16.8c0,0,0,0-0.1,0c-24.3,0-55.8-4.4-64.3-16.8c-2.1-3-2-7.1,0.1-10.2l1-1.5c-7.5-4.5-11.3-9.9-11.3-16
		V393l18.3-29.6v-14.4l0,0l-11-8.9v-18.2h-28.1v54.4H267.1V343H265v33.2H155.2V343h-2.1v33.2H43.4V230.6h109.7v33.3h2.1v-33.2h109.7
		v33.2h2.1v-33.2h109.7v56.5h28.1v-23.8l-0.6-0.5l17.9-14.4c-16.3-7.9-27.6-20.4-27.6-37.9c0-13.2,22.2-24.4,55.4-28.1l14.6-30.7
		v-2.9v-2v-28c0-6.3,16.2-6.3,16.2,0v27.9v2v3.3l14.4,30.3c33,3.7,55.1,15,55.1,28.1c0,17.6-11.4,30.1-27.6,37.9l17.9,14.4l-0.6,0.5
		v23.8H568v-56.5h109.7v33.3H679.9z"/>
	<g id="XMLID_352_">
		<path id="XMLID_44_" class="st7" d="M477.8,152.9l30,63.4c0.2,0.3,0.2,0.7,0.1,0.9c-0.1,0.3-0.3,0.5-0.5,0.6
			c-0.3,0.1-0.5,0.1-0.8,0.1c-0.3-0.1-0.5-0.3-0.7-0.7l-30.5-64.3H477.8z"/>
	</g>
	<g id="XMLID_350_">
		<path id="XMLID_43_" class="st7" d="M435.5,217.8c-0.3-0.1-0.5-0.3-0.5-0.6c-0.1-0.3-0.1-0.6,0.1-0.9l30-63.4h2.4L437,217.2
			c-0.2,0.3-0.4,0.6-0.7,0.7C436,217.9,435.7,217.9,435.5,217.8z"/>
	</g>
	<g id="XMLID_343_">
		<path id="XMLID_344_" class="st8" d="M472.2,419.5c-35.9,0-72.2-9-72.6-26.1l2.6-4.2c1.6,7.6,9,14.1,21.9,18.7
			c12.7,4.6,29.8,7.1,48.1,7.1c32,0,66.4-8.1,69.9-25.8l2.6,4.2C544.4,410.5,508,419.5,472.2,419.5z M403.3,387.3
			c1.6,17.2,35.4,26.2,68.9,26.2c33.4,0,67.2-9,68.9-26.2l-2.3-3.7c-1.6,8.4-10.6,14.5-23,18.5s-28.3,5.9-43.6,5.9
			c-30.5,0-63.2-7.6-66.6-24.3L403.3,387.3z M406.6,382c1.4,16.2,33.6,24.7,65.5,24.7s64.2-8.5,65.5-24.9l-2.3-3.7
			c-0.9,4.8-4.5,9.1-10.7,12.7c-12.1,6.9-32.3,10.4-52.6,10.4c-20.3,0-40.5-3.5-52.6-10.4c-6.1-3.5-9.7-7.7-10.6-12.4L406.6,382z
			 M524,389.8c6.5-3.8,10-8.2,10.2-13.3l-2.3-3.7c-2.6,14.9-32.3,21.7-60,21.7c-15.6,0-30.2-2.1-41.1-5.8
			c-11-3.8-17.4-9.1-18.8-15.5l-2.2,3.6c0.4,5,3.8,9.4,10.2,13C443.4,403.3,500.7,403.2,524,389.8z M530.8,371l-2.4-3.8
			c-0.3,15.4-29.3,22.4-56.2,22.4c-14.6,0-28.2-1.9-38.3-5.5c-11.7-4.1-17.9-10-17.9-17.1l-2.7,4.4c1,14.3,30,21.8,58.8,21.8
			C501,393.2,530.4,385.5,530.8,371z"/>
	</g>
	<g id="XMLID_341_">
		<polygon id="XMLID_37_" class="st3" points="528.9,336 528.9,346.3 524.2,350 524.2,340 		"/>
	</g>
	<g id="XMLID_339_">
		<polygon id="XMLID_36_" class="st3" points="522.9,341.1 522.9,351 519,354.2 519,344.5 		"/>
	</g>
	<g id="XMLID_337_">
		<polygon id="XMLID_35_" class="st3" points="530.8,302.2 530.8,319.3 522.9,325.9 522.9,339.3 517.6,343.9 517.6,355.3 
			506.3,364.4 506.3,290.3 517.6,281.3 517.6,294.2 522.9,289.7 522.9,308.9 		"/>
	</g>
	<g id="XMLID_335_">
		<polygon id="XMLID_34_" class="st3" points="532.1,319.9 532.1,299.3 524.2,306 524.2,288.6 530.2,283.4 530.2,271.1 537.9,264.9 
			537.9,287.1 537.9,294.1 537.9,314.9 537.9,321.8 537.9,339.1 530.2,345.2 530.2,333.1 524.2,338.2 524.2,326.5 		"/>
	</g>
	<g id="XMLID_333_">
		<polygon id="XMLID_33_" class="st3" points="523.8,276.3 528.9,272.1 528.9,282.9 524.2,286.8 524.2,276.3 		"/>
	</g>
	<g id="XMLID_331_">
		<polygon id="XMLID_32_" class="st3" points="522.9,276.9 522.9,287.9 519,291.3 519,280.1 		"/>
	</g>
	<g id="XMLID_329_">
		<polygon id="XMLID_31_" class="st5" points="425.6,343.9 425.6,354 421.5,350.8 421.6,350.8 421.6,340.5 		"/>
	</g>
	<g id="XMLID_327_">
		<polygon id="XMLID_30_" class="st5" points="420.3,339.4 420.3,349.7 415.6,346 415.6,335.4 		"/>
	</g>
	<g id="XMLID_323_">
		<polygon id="XMLID_28_" class="st5" points="425.6,279.9 425.6,290.7 421.6,287.3 421.6,276.8 		"/>
	</g>
	<g id="XMLID_321_">
		<polygon id="XMLID_27_" class="st5" points="420.3,275.6 420.3,286.2 415.6,282.2 415.6,271.9 		"/>
	</g>
	<g id="XMLID_178_">
		<g id="XMLID_325_">
			<polygon id="XMLID_29_" class="st5" points="438.2,290 438.2,364.1 426.9,355.1 426.9,343.3 421.6,338.7 421.6,325.2 
				413.7,318.7 413.7,301.6 421.6,308.3 421.6,289.1 426.9,293.6 426.9,280.9 			"/>
		</g>
		<g id="XMLID_319_">
			<polygon id="XMLID_26_" class="st5" points="406.9,321.8 406.9,314.9 406.9,294.1 406.9,287.1 406.9,264.9 414.3,270.8 
				414.3,282.9 420.3,287.9 420.3,305.4 412.4,298.7 412.4,319.3 420.3,325.9 420.3,337.6 414.3,332.5 414.3,345 406.9,339.1 			"/>
		</g>
	</g>
	<g id="XMLID_317_">
		<rect id="XMLID_25_" x="459.8" y="324.2" class="st3" width="25.4" height="24.8"/>
	</g>
	<g id="XMLID_315_">
		<rect id="XMLID_24_" x="459.8" y="310.9" class="st3" width="25.4" height="11.3"/>
	</g>
	<g id="XMLID_313_">
		<polygon id="XMLID_23_" class="st3" points="504.2,290.5 504.2,365.2 473.1,365.2 473.1,351 487.2,351 487.2,308.9 473.1,308.9 
			473.1,290.5 		"/>
	</g>
	<g id="XMLID_311_">
		<polygon id="XMLID_22_" class="st9" points="471.7,351 471.7,365.2 440.1,365.2 440.1,290.5 471.7,290.5 471.7,308.9 457.8,308.9 
			457.8,351 		"/>
	</g>
	<g id="XMLID_300_">
		<g id="XMLID_309_">
			<path id="XMLID_21_" class="st10" d="M430.9,388.7c-11-3.8-17.4-9.1-18.8-15.5l-2.2,3.6c0.4,5,3.8,9.4,10.2,13
				c11.7,6.7,31.9,10.1,52,10.1v-5.4c-0.1,0-0.1,0-0.2,0C456.3,394.5,441.7,392.4,430.9,388.7z"/>
		</g>
		<g id="XMLID_307_">
			<path id="XMLID_20_" class="st10" d="M433.9,384.1c-11.7-4.1-17.9-10-17.9-17.1l-2.7,4.4c1,14.3,30,21.8,58.8,21.8
				c0.1,0,0.1,0,0.2,0v-3.6C457.6,389.6,444,387.6,433.9,384.1z"/>
		</g>
		<g id="XMLID_305_">
			<path id="XMLID_19_" class="st10" d="M472.2,414.9c-18.3,0-35.4-2.5-48.1-7.1c-12.9-4.6-20.3-11-21.9-18.7l-2.6,4.2
				c0.4,17.2,36.7,26.1,72.6,26.1V414.9z"/>
		</g>
		<g id="XMLID_303_">
			<path id="XMLID_18_" class="st10" d="M403.3,387.3c1.6,17.2,35.4,26.2,68.8,26.2V408c0,0,0,0-0.1,0c-30.5,0-63.2-7.6-66.6-24.3
				L403.3,387.3z"/>
		</g>
		<g id="XMLID_301_">
			<path id="XMLID_17_" class="st10" d="M406.6,382c1.4,16.2,33.6,24.7,65.5,24.7c0,0,0,0,0.1,0v-5.4h-0.1
				c-20.3,0-40.5-3.5-52.6-10.4c-6.1-3.5-9.7-7.7-10.6-12.4L406.6,382z"/>
		</g>
	</g>
	<g id="XMLID_291_">
		<g id="XMLID_298_">
			<path id="XMLID_16_" class="st4" d="M405.5,383.8c3.4,16.7,36,24.3,66.6,24.3l0,0v-1.3l0,0c-31.9,0-64.1-8.5-65.5-24.7
				L405.5,383.8z"/>
		</g>
		<g id="XMLID_296_">
			<path id="XMLID_15_" class="st4" d="M412.1,373.2c1.3,6.3,7.7,11.7,18.8,15.5c10.8,3.8,25.5,5.8,41.1,5.8c0.1,0,0.1,0,0.2,0v-1.3
				c-0.1,0-0.1,0-0.2,0c-28.7,0-57.8-7.5-58.8-21.8L412.1,373.2z"/>
		</g>
		<g id="XMLID_294_">
			<path id="XMLID_14_" class="st4" d="M408.8,378.5c1,4.7,4.5,8.9,10.6,12.4c12,6.9,32.3,10.4,52.6,10.4h0.1v-1.5
				c-20.2,0-40.4-3.3-52-10.1c-6.4-3.7-9.8-8.1-10.2-13L408.8,378.5z"/>
		</g>
		<g id="XMLID_292_">
			<path id="XMLID_13_" class="st4" d="M424.1,407.8c12.7,4.6,29.8,7.1,48.1,7.1v-1.3c-33.4,0-67.2-9-68.8-26.2l-1.1,1.8
				C403.8,396.8,411.2,403.2,424.1,407.8z"/>
		</g>
	</g>
	<g id="XMLID_289_">
		<rect id="XMLID_12_" x="376.3" y="290.5" class="st0" width="30" height="1.2"/>
	</g>
	<g id="XMLID_287_">
		<rect id="XMLID_11_" x="376.3" y="318" class="st0" width="30" height="1.2"/>
	</g>
	<g id="XMLID_285_">
		<rect id="XMLID_10_" x="538.8" y="290.5" class="st0" width="30" height="1.2"/>
	</g>
	<g id="XMLID_283_">
		<rect id="XMLID_9_" x="538.8" y="318" class="st0" width="30" height="1.2"/>
	</g>
	<g id="XMLID_277_">
		<path id="XMLID_278_" class="st0" d="M156.4,300.8h-4.6v-30.6h4.6V300.8z M268.4,270.3h-4.6v30.6h4.6V270.3z M156.4,306.1h-4.6
			v30.6h4.6V306.1z M268.4,306.1h-4.6v30.6h4.6V306.1z"/>
	</g>
	<g id="XMLID_271_">
		<path id="XMLID_272_" class="st0" d="M681,300.8h-4.6v-30.6h4.6V300.8z M793,270.3h-4.6v30.6h4.6V270.3z M681,306.1h-4.6v30.6h4.6
			V306.1z M793,306.1h-4.6v30.6h4.6V306.1z"/>
	</g>
	<g id="XMLID_177_">
		<path id="XMLID_222_" class="st11" d="M262.7,343.1h-1.5c-1.8,0-3.3-1.3-3.6-3h-25.4l-3.5,3.5v27.5l3.2,3.2H260l2.9-2.9v-28.1
			L262.7,343.1z"/>
		<path id="XMLID_221_" class="st11" d="M262.7,335.8l0.3-0.3v-28.1l-0.2-0.2h-1.6c-1.8,0-3.3-1.3-3.6-3h-25.4l-3.5,3.5v27.5
			l3.5,3.5h25.4c0.3-1.7,1.8-2.9,3.6-2.9H262.7z"/>
		<path id="XMLID_220_" class="st11" d="M262.7,299.9l0.2-0.2v-28.2l-0.3-0.3h-1.4c-1.8,0-3.3-1.3-3.6-2.9h-25.4l-3.5,3.5v27.5
			l3.5,3.5h25.4c0.3-1.7,1.8-3,3.6-3h1.5V299.9z"/>
		<path id="XMLID_219_" class="st11" d="M262.7,264l0.2-0.2v-28.2l-2.9-2.9h-28.1l-3.2,3.2v27.5l3.5,3.5h25.4c0.3-1.7,1.8-3,3.6-3
			L262.7,264L262.7,264z"/>
	</g>
	<g id="XMLID_204_">
		<path id="XMLID_208_" class="st12" d="M150.9,343.1h-1.5c-1.8,0-3.3-1.3-3.6-3h-25.4l-3.5,3.5v27.5l3.2,3.2h28.1l2.9-2.9v-28.1
			L150.9,343.1z"/>
		<path id="XMLID_207_" class="st12" d="M150.8,335.8l0.3-0.3v-28.1l-0.2-0.2h-1.5c-1.8,0-3.3-1.3-3.6-3h-25.4l-3.5,3.5v27.5
			l3.5,3.5h25.4c0.3-1.7,1.8-2.9,3.6-2.9H150.8z"/>
		<path id="XMLID_206_" class="st12" d="M150.8,299.9l0.2-0.2v-28.2l-0.3-0.3h-1.4c-1.8,0-3.3-1.3-3.6-2.9h-25.4l-3.5,3.5v27.5
			l3.5,3.5h25.4c0.3-1.7,1.8-3,3.6-3h1.5V299.9z"/>
		<path id="XMLID_205_" class="st12" d="M150.9,264l0.2-0.2v-28.2l-2.9-2.9h-28.1l-3.2,3.2v27.5l3.5,3.5h25.4c0.3-1.7,1.8-3,3.6-3
			L150.9,264L150.9,264z"/>
	</g>
	<g id="XMLID_209_">
		<path id="XMLID_217_" class="st13" d="M157.2,343.3v28.1l2.9,2.9h28.1l3.2-3.2v-27.5l-3.5-3.5h-25.4c-0.3,1.7-1.8,3-3.6,3h-1.5
			L157.2,343.3z"/>
		<path id="XMLID_212_" class="st13" d="M158.9,335.8c1.8,0,3.3,1.3,3.6,2.9h25.4l3.5-3.5v-27.5l-3.5-3.5h-25.4
			c-0.3,1.7-1.8,3-3.6,3h-1.5l-0.2,0.2v28.1l0.3,0.3H158.9z"/>
		<path id="XMLID_211_" class="st13" d="M158.9,299.9c1.8,0,3.3,1.3,3.6,3h25.4l3.5-3.5v-27.5l-3.5-3.5h-25.4
			c-0.3,1.7-1.8,2.9-3.6,2.9h-1.4l-0.3,0.3v28.2l0.2,0.2h1.5V299.9z"/>
		<path id="XMLID_210_" class="st13" d="M158.9,264c1.8,0,3.3,1.3,3.6,3h25.4l3.5-3.5v-27.6l-3.2-3.2h-28.1l-2.9,2.9v28.2l0.2,0.2
			H158.9L158.9,264z"/>
	</g>
	<g id="XMLID_179_">
		<path id="XMLID_183_" class="st14" d="M675.5,343.1H674c-1.8,0-3.3-1.3-3.6-3H645l-3.5,3.5v27.5l3.2,3.2h28.1l2.9-2.9v-28.1
			L675.5,343.1z"/>
		<path id="XMLID_182_" class="st14" d="M675.5,335.8l0.3-0.3v-28.1l-0.2-0.2h-1.5c-1.8,0-3.3-1.3-3.6-3h-25.4l-3.5,3.5v27.5
			l3.5,3.5h25.4c0.3-1.7,1.8-2.9,3.6-2.9H675.5z"/>
		<path id="XMLID_181_" class="st14" d="M675.5,299.9l0.2-0.2v-28.2l-0.3-0.3H674c-1.8,0-3.3-1.3-3.6-2.9H645l-3.5,3.5v27.5l3.5,3.5
			h25.4c0.3-1.7,1.8-3,3.6-3h1.5V299.9z"/>
		<path id="XMLID_180_" class="st14" d="M675.5,264l0.2-0.2v-28.2l-2.9-2.9h-28.1l-3.2,3.2v27.5l3.5,3.5h25.4c0.3-1.7,1.8-3,3.6-3
			L675.5,264L675.5,264z"/>
	</g>
	<g id="XMLID_184_">
		<path id="XMLID_188_" class="st13" d="M787.4,343.1h-1.5c-1.8,0-3.3-1.3-3.6-3h-25.4l-3.5,3.5v27.5l3.2,3.2h28.1l2.9-2.9v-28.1
			L787.4,343.1z"/>
		<path id="XMLID_187_" class="st13" d="M787.3,335.8l0.3-0.3v-28.1l-0.2-0.2h-1.5c-1.8,0-3.3-1.3-3.6-3h-25.4l-3.5,3.5v27.5
			l3.5,3.5h25.4c0.3-1.7,1.8-2.9,3.6-2.9H787.3z"/>
		<path id="XMLID_186_" class="st13" d="M787.3,299.9l0.2-0.2v-28.2l-0.3-0.3h-1.4c-1.8,0-3.3-1.3-3.6-2.9h-25.4l-3.5,3.5v27.5
			l3.5,3.5h25.4c0.3-1.7,1.8-3,3.6-3h1.5V299.9z"/>
		<path id="XMLID_185_" class="st13" d="M787.4,264l0.2-0.2v-28.2l-2.9-2.9h-28.1l-3.2,3.2v27.5l3.5,3.5h25.4c0.3-1.7,1.8-3,3.6-3
			L787.4,264L787.4,264z"/>
	</g>
	<g id="XMLID_189_">
		<path id="XMLID_193_" class="st12" d="M793.7,343.2v28.1l2.9,2.9h28.1l3.2-3.2v-27.5l-3.5-3.5H799c-0.3,1.7-1.8,3-3.6,3h-1.5
			L793.7,343.2z"/>
		<path id="XMLID_192_" class="st12" d="M795.4,335.7c1.8,0,3.3,1.3,3.6,2.9h25.4l3.5-3.5v-27.5l-3.5-3.5H799c-0.3,1.7-1.8,3-3.6,3
			h-1.5l-0.2,0.2v28.1l0.3,0.3H795.4z"/>
		<path id="XMLID_191_" class="st12" d="M795.4,299.7c1.8,0,3.3,1.3,3.6,3h25.4l3.5-3.5v-27.5l-3.5-3.5H799
			c-0.3,1.7-1.8,2.9-3.6,2.9H794l-0.3,0.3v28.2l0.2,0.2h1.5V299.7z"/>
		<path id="XMLID_190_" class="st12" d="M795.4,263.8c1.8,0,3.3,1.3,3.6,3h25.4l3.5-3.5v-27.5l-3.2-3.2h-28.1l-2.9,2.9v28.2l0.2,0.2
			h1.5V263.8z"/>
	</g>
	<g id="XMLID_194_">
		<path id="XMLID_198_" class="st11" d="M681.8,343.3v28.1l2.9,2.9h28.1l3.2-3.2v-27.5l-3.5-3.5h-25.4c-0.3,1.7-1.8,3-3.6,3H682
			L681.8,343.3z"/>
		<path id="XMLID_197_" class="st11" d="M683.5,335.8c1.8,0,3.3,1.3,3.6,2.9h25.4l3.5-3.5v-27.5l-3.5-3.5h-25.4
			c-0.3,1.7-1.8,3-3.6,3H682l-0.2,0.2v28.1l0.3,0.3H683.5z"/>
		<path id="XMLID_196_" class="st11" d="M683.5,299.9c1.8,0,3.3,1.3,3.6,3h25.4l3.5-3.5v-27.5l-3.5-3.5h-25.4
			c-0.3,1.7-1.8,2.9-3.6,2.9h-1.4l-0.3,0.3v28.2l0.2,0.2h1.5V299.9z"/>
		<path id="XMLID_195_" class="st11" d="M683.5,264c1.8,0,3.3,1.3,3.6,3h25.4l3.5-3.5v-27.6l-3.2-3.2h-28.1l-2.9,2.9v28.2l0.2,0.2
			H683.5L683.5,264z"/>
	</g>
	<g id="XMLID_199_">
		<path id="XMLID_203_" class="st14" d="M269.1,343.3v28.1l2.9,2.9h28.1l3.2-3.2v-27.5l-3.5-3.5h-25.4c-0.3,1.7-1.8,3-3.6,3h-1.5
			L269.1,343.3z"/>
		<path id="XMLID_202_" class="st14" d="M270.8,335.8c1.8,0,3.3,1.3,3.6,2.9h25.4l3.5-3.5v-27.5l-3.5-3.5h-25.4
			c-0.3,1.7-1.8,3-3.6,3h-1.5l-0.2,0.2v28.1l0.3,0.3H270.8z"/>
		<path id="XMLID_201_" class="st14" d="M270.8,299.9c1.8,0,3.3,1.3,3.6,3h25.4l3.5-3.5v-27.5l-3.5-3.5h-25.4
			c-0.3,1.7-1.8,2.9-3.6,2.9h-1.4l-0.3,0.3v28.2l0.2,0.2h1.5V299.9z"/>
		<path id="XMLID_200_" class="st14" d="M270.8,264c1.8,0,3.3,1.3,3.6,3h25.4l3.5-3.5v-27.6l-3.2-3.2H272l-2.9,2.9v28.2l0.2,0.2
			H270.8L270.8,264z"/>
	</g>
	<g id="XMLID_216_">
		<polygon id="XMLID_247_" class="st15" points="112.1,340.2 84.6,340.2 81.1,343.7 81.1,371.2 84.3,374.4 112.4,374.4 115.6,371.2 
			115.6,343.7 		"/>
		<polygon id="XMLID_232_" class="st15" points="112.1,304.3 84.6,304.3 81.1,307.8 81.1,335.3 84.6,338.9 112.1,338.9 115.6,335.3 
			115.6,307.8 		"/>
		<polygon id="XMLID_229_" class="st15" points="112.1,268.4 84.6,268.4 81.1,271.9 81.1,299.4 84.6,303 112.1,303 115.6,299.4 
			115.6,271.9 		"/>
		<polygon id="XMLID_214_" class="st15" points="112.4,232.8 84.3,232.8 81.1,236.1 81.1,263.5 84.6,267 112.1,267 115.6,263.5 
			115.6,236.1 		"/>
	</g>
	<g id="XMLID_218_">
		<polygon id="XMLID_226_" class="st2" points="223.8,340.2 196.3,340.2 192.8,343.7 192.8,371.2 196,374.4 224.2,374.4 
			227.4,371.2 227.4,343.7 		"/>
		<polygon id="XMLID_225_" class="st2" points="223.8,304.3 196.3,304.3 192.8,307.8 192.8,335.3 196.3,338.9 223.8,338.9 
			227.4,335.3 227.4,307.8 		"/>
		<polygon id="XMLID_224_" class="st2" points="223.8,268.4 196.3,268.4 192.8,271.9 192.8,299.4 196.3,303 223.8,303 227.4,299.4 
			227.4,271.9 		"/>
		<polygon id="XMLID_223_" class="st2" points="224.2,232.8 196,232.8 192.8,236.1 192.8,263.5 196.3,267 223.8,267 227.4,263.5 
			227.4,236.1 		"/>
	</g>
	<g id="XMLID_227_">
		<polygon id="XMLID_238_" class="st16" points="371.4,340.2 344,340.2 340.4,343.7 340.4,371.2 343.6,374.4 371.8,374.4 375,371.2 
			375,343.7 		"/>
		<polygon id="XMLID_237_" class="st16" points="371.4,304.3 344,304.3 340.4,307.8 340.4,335.3 344,338.9 371.4,338.9 375,335.3 
			375,307.8 		"/>
		<polygon id="XMLID_235_" class="st16" points="371.4,268.4 344,268.4 340.4,271.9 340.4,299.4 344,303 371.4,303 375,299.4 
			375,271.9 		"/>
		<polygon id="XMLID_234_" class="st16" points="371.8,232.8 343.6,232.8 340.4,236.1 340.4,263.5 344,267 371.4,267 375,263.5 
			375,236.1 		"/>
	</g>
	<g id="XMLID_239_">
		<polygon id="XMLID_243_" class="st17" points="335.7,340.2 308.2,340.2 304.7,343.7 304.7,371.2 307.9,374.4 336,374.4 
			339.2,371.2 339.2,343.7 		"/>
		<polygon id="XMLID_242_" class="st17" points="335.7,304.3 308.2,304.3 304.7,307.8 304.7,335.3 308.2,338.9 335.7,338.9 
			339.2,335.3 339.2,307.8 		"/>
		<polygon id="XMLID_241_" class="st17" points="335.7,268.4 308.2,268.4 304.7,271.9 304.7,299.4 308.2,303 335.7,303 339.2,299.4 
			339.2,271.9 		"/>
		<polygon id="XMLID_240_" class="st17" points="336,232.8 307.9,232.8 304.7,236.1 304.7,263.5 308.2,267 335.7,267 339.2,263.5 
			339.2,236.1 		"/>
	</g>
	<g id="XMLID_215_">
		<polygon id="XMLID_246_" class="st6" points="896.1,339.9 868.6,339.9 865,343.5 865,371 868.2,374.2 896.4,374.2 899.6,371 
			899.6,343.5 		"/>
		<polygon id="XMLID_236_" class="st6" points="896.1,304 868.6,304 865,307.6 865,335.1 868.6,338.6 896.1,338.6 899.6,335.1 
			899.6,307.6 		"/>
		<polygon id="XMLID_233_" class="st6" points="896.1,268.1 868.6,268.1 865,271.8 865,299.2 868.6,302.7 896.1,302.7 899.6,299.2 
			899.6,271.8 		"/>
		<polygon id="XMLID_228_" class="st6" points="896.4,232.6 868.2,232.6 865,235.8 865,263.3 868.6,266.8 896.1,266.8 899.6,263.3 
			899.6,235.8 		"/>
	</g>
	<g id="XMLID_244_">
		<polygon id="XMLID_274_" class="st16" points="600.7,339.9 573.2,339.9 569.6,343.5 569.6,371 572.8,374.2 601,374.2 604.2,371 
			604.2,343.5 		"/>
		<polygon id="XMLID_273_" class="st16" points="600.7,304 573.2,304 569.6,307.6 569.6,335.1 573.2,338.6 600.7,338.6 604.2,335.1 
			604.2,307.6 		"/>
		<polygon id="XMLID_269_" class="st16" points="600.7,268.1 573.2,268.1 569.6,271.8 569.6,299.2 573.2,302.7 600.7,302.7 
			604.2,299.2 604.2,271.8 		"/>
		<polygon id="XMLID_245_" class="st16" points="601,232.6 572.8,232.6 569.6,235.8 569.6,263.3 573.2,266.8 600.7,266.8 
			604.2,263.3 604.2,235.8 		"/>
	</g>
	<g id="XMLID_275_">
		<polygon id="XMLID_281_" class="st17" points="636.5,340 609,340 605.5,343.6 605.5,371.1 608.7,374.3 636.8,374.3 640,371.1 
			640,343.6 		"/>
		<polygon id="XMLID_280_" class="st17" points="636.5,304.1 609,304.1 605.5,307.7 605.5,335.2 609,338.7 636.5,338.7 640,335.2 
			640,307.7 		"/>
		<polygon id="XMLID_279_" class="st17" points="636.5,268.3 609,268.3 605.5,271.8 605.5,299.3 609,302.8 636.5,302.8 640,299.3 
			640,271.8 		"/>
		<polygon id="XMLID_276_" class="st17" points="636.8,232.6 608.7,232.6 605.5,235.9 605.5,263.3 609,266.9 636.5,266.9 640,263.3 
			640,235.9 		"/>
	</g>
	<g id="XMLID_282_">
		<polygon id="XMLID_290_" class="st2" points="748.5,340 721,340 717.4,343.6 717.4,371.1 720.6,374.3 748.8,374.3 752,371.1 
			752,343.6 		"/>
		<polygon id="XMLID_288_" class="st2" points="748.5,304.1 721,304.1 717.4,307.7 717.4,335.2 721,338.7 748.5,338.7 752,335.2 
			752,307.7 		"/>
		<polygon id="XMLID_286_" class="st2" points="748.5,268.3 721,268.3 717.4,271.8 717.4,299.3 721,302.8 748.5,302.8 752,299.3 
			752,271.8 		"/>
		<polygon id="XMLID_284_" class="st2" points="748.8,232.6 720.6,232.6 717.4,235.9 717.4,263.3 721,266.9 748.5,266.9 752,263.3 
			752,235.9 		"/>
	</g>
	<g id="XMLID_293_">
		<polygon id="XMLID_302_" class="st15" points="860.2,340 832.8,340 829.2,343.6 829.2,371.1 832.4,374.3 860.6,374.3 863.8,371.1 
			863.8,343.6 		"/>
		<polygon id="XMLID_299_" class="st15" points="860.2,304.1 832.8,304.1 829.2,307.7 829.2,335.2 832.8,338.7 860.2,338.7 
			863.8,335.2 863.8,307.7 		"/>
		<polygon id="XMLID_297_" class="st15" points="860.2,268.3 832.8,268.3 829.2,271.8 829.2,299.3 832.8,302.8 860.2,302.8 
			863.8,299.3 863.8,271.8 		"/>
		<polygon id="XMLID_295_" class="st15" points="860.6,232.6 832.4,232.6 829.2,235.9 829.2,263.3 832.8,266.9 860.2,266.9 
			863.8,263.3 863.8,235.9 		"/>
	</g>
</g>
</svg>
