<?xml version="1.0" encoding="utf-8"?>
<!-- Generator: Adobe Illustrator 19.0.0, SVG Export Plug-In . SVG Version: 6.00 Build 0)  -->
<svg version="1.1" id="Layer_1" xmlns="http://www.w3.org/2000/svg" xmlns:xlink="http://www.w3.org/1999/xlink" x="0px" y="0px"
	 viewBox="-302 90 355 382" style="enable-background:new -302 90 355 382;" xml:space="preserve">
<style type="text/css">
	.st0{fill:#27305A;}
	.st1{fill:#1424C1;}
	.st2{fill:#00FFE6;}
	.st3{fill:#6CC4FF;}
	.st4{fill:#FF0099;}
	.st5{fill:#CC0066;}
	.st6{fill:#E1B37F;}
	.st7{fill:#F1C489;}
	.st8{fill:#EFA400;}
</style>
<g id="XMLID_107_">
	<path id="XMLID_100_" class="st0" d="M-11,246.5c2.7-2.5,4.5-6.3,3.4-9.8c-1.8-5.7-9.5-6.5-15.5-6.1c-1.8,0.1-3.6,0.3-5.4,0.5
		c4.2,6.2,7.4,13,9,20.2C-16.4,250.1-13.4,248.7-11,246.5z"/>
	<path id="XMLID_99_" class="st0" d="M-37.1,256.8c-3.5,1.1-7.1,2.2-10.6,3.2C-44.2,259-40.6,257.9-37.1,256.8z"/>
	<path id="XMLID_98_" class="st0" d="M-98.6,272.9c17-3.2,33.8-7.8,50.5-12.8c-14.6,4.3-29.2,8.4-44,11.5
		C-94.3,272.1-96.5,272.5-98.6,272.9z"/>
	<path id="XMLID_97_" class="st0" d="M-106.3,274.3c-0.8,0.1-1.6,0.3-2.4,0.4C-107.9,274.5-107.1,274.4-106.3,274.3z"/>
	<path id="XMLID_96_" class="st0" d="M-32.6,255.4c-0.8,0.3-1.6,0.5-2.5,0.8C-34.2,255.9-33.4,255.7-32.6,255.4z"/>
	<path id="XMLID_95_" class="st0" d="M-112.9,275.3c-0.5,0.1-1,0.1-1.5,0.2C-113.9,275.4-113.4,275.4-112.9,275.3z"/>
	<path id="XMLID_94_" class="st0" d="M-99.3,273c-1.6,0.3-3.3,0.6-4.9,0.9C-102.6,273.7-101,273.4-99.3,273z"/>
	<path id="XMLID_93_" class="st0" d="M-130.3,256.3c-3.1,1.3-6.2,2.5-9.3,3.9c-5.3,2.3-10.7,4.9-14,9.5c-1.1,1.5-1.9,3.4-1.3,5.1
		c0.9,2.4,4.1,2.9,6.7,2.9c6.5,0.1,13-0.2,19.5-0.7c-1.2-4.6-1.8-9.4-1.8-14.2C-130.5,260.7-130.5,258.5-130.3,256.3z"/>
	<path id="XMLID_166_" class="st1" d="M-49.5,306.2c-14.3,6.1-30.6,6-45.5,1.3c-2.1-0.7-4.2-1.4-6.2-2.3c-2.7-1.1-5.4-2.4-8-3.9
		c-19,4-38.2,7.1-57.6,7.1c-6.4,0-13-0.4-18.8-3.2s-10.6-8.5-10.5-14.9c0-4.6,2.5-8.8,5.3-12.5c5.9-7.8,13.6-13.9,22.1-18.8
		c2.3-1.3,4.6-2.5,7-3.7c10.2-4.9,20.9-7.9,31.8-10.9c0.5-0.2,1.1-0.3,1.6-0.5c2.1-8.1,5.7-15.8,11.2-22.2
		c15.1-17.9,46.3-20.1,66.9-10.6c2.2,1,4.2,2.2,6.2,3.6s3.8,2.9,5.6,4.6c3.9-0.6,7.8-1.2,11.6-1.8c12.2-1.9,24.5-3.7,36.8-3.8
		c1.9-5.1,2.9-10.3,2.4-15.8c-0.6-6.4-3.2-12.1-7.1-17.1c0,0.1,0,0.1,0,0.2c-0.9,4.3-3.7,8.2-7.3,10.7c-4.2,2.9-9.5,3.9-14.6,3.4
		c-4.4-0.5-8.9-2.4-11.4-6.1c-2-2.9-2.4-6.6-2.4-10.1c0-2.1,0.3-4.3,0.8-6.4c0.8-3.3,2.2-6.4,4.5-8.9c1.1-1.2,2.4-2.3,3.9-3.1
		c-0.1-0.1-0.3-0.1-0.4-0.2c-3.3-1.7-6.7-3.4-10.4-3.5c-2.8-0.1-5.4,0.8-8.2,1.2c-11.8,1.7-22.9-4.8-33.7-9.8
		c-23.1-10.8-49-14.9-74.1-12c-16.5,1.9-34.7,8.6-40.8,24.1c-1.7,4.2-2.3,8.8-3.7,13.1c1.3,0.8,2.5,1.7,3.6,2.8
		c5.5,5,9.1,11.9,11.3,19c1.7,5.3,2.6,10.9,2.2,16.4c-0.1,1.5-0.3,3-0.6,4.4c-2,9.4-8,17.8-15.9,23.2c-9.2,6.3-20.8,8.6-31.8,7.3
		c-9.7-1.1-19.5-5.2-24.9-13.3c-4.3-6.3-5.3-14.3-5.2-22c0.1-3.4,0.4-6.8,1-10.2c-13.8,6.2-26,20.7-21.8,35.2
		c1.6,5.4,5.2,9.9,7.7,14.9s3.9,11.3,1,16.1c-1,1.7-2.6,3.1-3.8,4.7c-6.3,7.9-5.1,19.7-0.1,28.5c1.6,2.9,3.6,5.5,5.7,8
		c0.5-0.8,1.1-1.5,1.7-2.2c3.2-3.6,8.2-5.8,13-5.2c1.6,0.2,3.2,0.4,4.8,0.6c-0.1-0.5,0-1.1,0.3-1.6c0.2-0.3,0.4-0.6,0.7-0.9
		c0.8-0.9,2.3-0.9,3.2-0.2c1,0.8,1.2,2,0.6,3.2c-0.1,0.2-0.3,0.4-0.4,0.6c1.5,0.6,2.9,1.4,4.2,2.6c2.7,2.5,4.5,5.8,5.6,9.3
		c0.8,2.6,1.3,5.4,1.1,8.1c-0.1,0.7-0.2,1.5-0.3,2.2c-1,4.5-3.7,8.5-7.4,11.2c2.2,3.3,4,6.9,5.1,10.8c0.5,2,0.8,4.3-0.2,6.1
		c-1.2,2.1-3.8,2.9-5.7,4.4c-5.7,4.6-3.4,14.4,2.3,19.1c5.6,4.7,13.2,6,20.1,8.7c0.5,0.2,1.1,0.4,1.6,0.7c0,0,0,0,0-0.1
		c0.9-3.8,2.2-7.6,3.9-11.1c2.5-5.2,5.9-10,10.5-13.5c4.2-3.3,25.7-11.3,18.3,0.3c-6.2,9.7-11.1,17.7-9.6,29.8
		c0.9,7.5,4.6,15.1,11.4,18.3c5.7,2.7,12.5,1.8,18.1-0.9c0.7-0.3,1.4-0.7,2-1c4.8-2.7,8.9-6.4,13-10.1c1.3,8.1-2.3,16.6-8.3,22.3
		c-5.9,5.7-13.9,9-22,10.6c-1.6,0.3-3.3,0.6-5,0.7c1.8,2.6,3.1,5.6,4.8,8.2c5.7,9.1,16.6,14.7,27.3,13.9c2.6-0.2,5.4-0.8,7.3-2.6
		c2.3-2.1,3.4-5.8,6.3-6.9c2.8-1.1,5.9,0.5,8.8,0.2c4.4-0.5,6.6-4.9,7.4-9.5c0.3-1.5,0.4-3.1,0.3-4.5c-0.1-5.9-0.5-12.9,4.3-16.3
		c2.7-2,6.5-2.2,9-4.5c4.5-4.3,2.4-13.8,9.8-15.7c1.4-0.3,2.8-0.4,4.2-0.1c6.1,0.9,12.9,5.7,19.3,4.9c1.9-0.2,3.7-0.8,5.4-1.7
		c3.8-2,6.9-5.4,7.9-9.2c0.8-3.2,3.4-5.6,6.6-6.2c3.4-0.6,6.7-1.8,9.2-4c2.2-1.9,3.7-4.5,5.5-6.9c6.6-8.3,17.2-12.4,25.3-19.3
		c1.8-1.5,3.4-3.4,4.8-5.4c-2-0.4-4-1.4-5.1-3.2c-1.1-1.6-1.3-3.6-1.3-5.6c0-1.2,0.2-2.4,0.5-3.5c0.4-1.8,1.2-3.5,2.5-4.9
		c1.6-1.8,4.1-2.9,6.5-2.7c-0.5-0.9-1.1-1.8-1.9-2.6c-3.1-3.2-7.8-4.7-10.2-8.6c-1.1-1.7-1.5-3.8-0.8-5.7c1.1-2.8,3.7-3.1,6-3.8
		c10.7-3,16.3-15.5,15.9-26.6c-0.1-3.1-0.6-6.2-1.3-9.2c-8,3.6-16.1,6.7-24.4,9.5C-26.9,290.9-37.2,301-49.5,306.2z M-21.6,196.1
		c2,0,2,3.1,0,3.1C-23.6,199.1-23.6,196.1-21.6,196.1z M-48.6,179.2c2,0,2,3.1,0,3.1C-50.7,182.3-50.7,179.2-48.6,179.2z
		 M-58.8,162.2c1.4,0,1.4,2.2,0,2.2S-60.2,162.2-58.8,162.2z M-74.5,186.6c1.8,0,1.8,2.8,0,2.8S-76.3,186.6-74.5,186.6z
		 M-137.7,216.5c-1,1.9-4.2,1.9-5.1,0c-0.3-0.6-0.5-1.1-0.5-1.8s0.2-1.2,0.5-1.8c0.4-0.9,1.6-1.5,2.6-1.5s2.2,0.6,2.6,1.5
		c0.3,0.6,0.5,1.1,0.5,1.8C-137.3,215.4-137.4,215.9-137.7,216.5z M-119.5,217c-1.9,0-1.9-2.9,0-2.9S-117.6,217-119.5,217z
		 M-87.1,163.3c0.2-0.2,0.4-0.3,0.6-0.5c0.6-0.5,1.2-0.8,2-0.8c0.7,0,1.4,0.3,2,0.8c0.5,0.5,0.8,1.3,0.8,2c0,0.8-0.3,1.4-0.8,2
		c-0.2,0.2-0.3,0.4-0.5,0.6c-0.5,0.6-1.3,0.8-2,0.8c-0.8,0-1.5-0.3-2-0.8s-0.8-1.3-0.8-2C-88,164.7-87.7,163.7-87.1,163.3z
		 M-145.2,170.9c0.1-2.7,0.4-5.4,1-8c1-4.1,2.8-7.9,5.6-11c3.7-4.1,9.4-6.7,15-6.1c5.4,0.6,11.2,1.2,15.4,5.1
		c3.1,2.9,5.2,6.8,6.4,10.8c0.9,3,1.5,6.2,1.3,9.3c-0.1,0.8-0.2,1.7-0.4,2.5c-1.1,5.3-4.5,10.2-9.1,13.2c-5.2,3.6-11.8,4.9-18.1,4.2
		c-5.5-0.6-11.1-3-14.2-7.6C-144.7,179.8-145.3,175.2-145.2,170.9z M-156.6,189.2c-1.5,0-1.5-2.4,0-2.4
		C-155.1,186.8-155.1,189.2-156.6,189.2z M-159.2,155.8c0.1-0.4,0.2-0.7,0.5-0.9c0.3-0.7,1.2-1.3,1.9-1c0.1,0,0.2,0.1,0.4,0.1
		c1.2,0.4,1.6,1.8,0.7,2.7c-0.7,0.7-1.6,0.9-2.5,0.7C-158.9,157.3-159.3,156.5-159.2,155.8z M-181.9,248c1.7,0,1.7,2.7,0,2.7
		C-183.6,250.7-183.6,248-181.9,248z M-264,233.4C-264,233.4-264,233.5-264,233.4c-0.5,0.4-1.2,0.4-1.7,0.3
		c-0.4-0.1-0.6-0.3-0.9-0.5c-1-0.6-1-2.4,0-2.9c0.2-0.2,0.5-0.4,0.8-0.5c0.4-0.1,1.2-0.1,1.6,0.2c0,0,0.1,0,0.1,0.1
		c0.6,0.4,1,0.9,1,1.7C-263,232.5-263.4,233-264,233.4z M-248.8,275.2c-1.5,0-1.5-2.3,0-2.3S-247.3,275.2-248.8,275.2z
		 M-225.1,367.2c-0.2,0-0.4-0.1-0.5-0.1c-0.6-0.1-1-0.8-1.1-1.4c0-0.6,0.5-1.3,1.1-1.4c0.2,0,0.4-0.1,0.5-0.1c1-0.2,2,0.4,2,1.5
		C-223.1,366.8-224.1,367.4-225.1,367.2z M-220.6,257.3c-0.5,0.7-1.4,1.1-2.3,0.9c-0.5-0.1-1-0.5-1.3-1c-0.3-0.5-0.3-1.1-0.2-1.7
		c0-0.2,0-0.3,0.1-0.5c0.1-0.7,0.9-1.4,1.5-1.5c0.3-0.1,0.7-0.1,1-0.1c1,0,1.8,0.7,2,1.6C-219.5,255.8-219.9,256.8-220.6,257.3z
		 M-214.5,277.1c1.9,0,1.9,3,0,3S-216.4,277.1-214.5,277.1z M-213.4,333.1c-1.4,0-1.4-2.2,0-2.2C-212,330.9-212,333.1-213.4,333.1z
		 M-198.2,306c-2,0-2-3.1,0-3.1S-196.2,306-198.2,306z M-191.5,319.4c-1.8,0-1.8-2.9,0-2.9C-189.6,316.5-189.6,319.4-191.5,319.4z
		 M-173.3,330.8c-0.5,0.6-1.1,1.1-1.9,1.1c-0.8,0-1.4-0.4-1.9-1.1c-0.3-0.4-0.4-1-0.4-1.5c0-0.7,0.3-1.3,0.7-1.8
		c0.8-0.8,2.3-0.8,3.1,0c0.4,0.5,0.7,1.1,0.7,1.8C-172.9,329.9-173,330.4-173.3,330.8z M-159.9,385.7c0,0-0.1,0-0.1,0.1
		c-0.9,0.5-2,0.4-2.8-0.4c-0.8-0.7-0.8-1.9-0.4-2.8l0.1-0.1c0.7-1.3,2.6-1.5,3.7-0.5C-158.4,383.1-158.6,385-159.9,385.7z
		 M-149.6,342.9c-0.1,0.1-0.1,0.2-0.2,0.2l0,0c-0.1,0.1-0.1,0.1-0.2,0.2c-0.1,0.1-0.1,0.1-0.2,0.2c-0.1,0.1-0.2,0.1-0.3,0.1
		s-0.1,0.1-0.2,0.1c-0.1,0-0.2,0-0.3,0.1c-0.1,0-0.2,0-0.3,0.1c-0.1,0-0.2,0-0.2,0c-0.1,0-0.2,0-0.3,0s-0.1,0-0.2,0
		c-0.1,0-0.2,0-0.4-0.1c-0.1,0-0.1-0.1-0.2-0.1c-0.1,0-0.2-0.1-0.3-0.2c-0.1,0-0.1-0.1-0.2-0.1c-0.1-0.1-0.2-0.1-0.2-0.2l0,0
		c-0.1-0.1-0.1-0.1-0.2-0.2c-0.6-0.7-0.8-1.6-0.7-2.5c0.1-0.7,0.3-1.3,0.8-1.9c0.5-0.5,1.2-0.7,1.9-0.8c0.7,0,1.4,0.3,1.9,0.8
		s0.7,1.2,0.8,1.9C-148.8,341.3-149,342.2-149.6,342.9z M-135.2,365.7c1.5,0,1.5,2.3,0,2.3S-136.7,365.7-135.2,365.7z M-135.2,394.1
		c-1.7,0-1.7-2.7,0-2.7S-133.5,394.1-135.2,394.1z M-100.4,331.5c2,0,2,3.1,0,3.1C-102.4,334.7-102.4,331.5-100.4,331.5z
		 M-127.9,320.7c1.6,0,1.5,2.4,0,2.4C-129.5,323.1-129.5,320.7-127.9,320.7z M-131.9,427.5c-2.1,0-2.1-3.2,0-3.2
		C-129.8,424.3-129.8,427.5-131.9,427.5z M-93.4,368.9c-0.1,0.7-0.2,1.5-0.3,2.2c-1,4.6-3.9,8.8-7.9,11.4
		c-4.5,3.1-10.2,4.2-15.7,3.6c-4.8-0.5-9.6-2.6-12.3-6.5c-2.1-3.1-2.6-7.1-2.5-10.8c0-2.3,0.3-4.6,0.9-6.9c0.9-3.5,2.4-6.9,4.8-9.6
		c3.2-3.6,8.2-5.8,13-5.2c0.3,0,0.7,0.1,1,0.1c0.2-0.2,0.5-0.3,0.8-0.3c0.5,0,0.8,0.2,1.1,0.5c3.8,0.5,7.6,1.4,10.5,4
		c2.7,2.5,4.5,5.8,5.6,9.3C-93.7,363.4-93.2,366.2-93.4,368.9z M-88.4,317.9c-0.3,1.3-2.2,1.9-3.2,0.8l0,0c-0.9-0.4-1.4-1.1-1.3-2.2
		c0.2-1.1,1.4-2.2,2.6-1.8c0.1,0.1,0.3,0.1,0.4,0.2c0.9,0.4,1.4,1,1.5,2C-88.3,317.2-88.3,317.6-88.4,317.9z M-62.8,367.1
		c-0.1,0.2-0.2,0.3-0.3,0.5c-0.5,0.7-1.4,1-2.1,0.4c-0.6-0.5-0.7-1.2-0.4-1.8c0.1-0.5,0.5-0.9,0.9-1.1c0.2-0.1,0.4-0.1,0.7-0.1
		c0.5,0.1,0.9,0.2,1.2,0.7C-62.6,366.1-62.5,366.7-62.8,367.1z M-59.8,328.1c-0.3,1.2-1.5,1.9-2.7,1.7c-1.2-0.2-2.1-1.2-2.1-2.4l0,0
		c0-0.3,0-0.6,0.1-0.9c0,0,0,0,0-0.1l0,0l0,0c0.4-1.1,1.4-1.9,2.6-1.7c1.2,0.2,2.1,1.2,2.1,2.4C-59.6,327.5-59.7,327.8-59.8,328.1z
		 M-38.8,328.6c-1.6,0-1.6-2.5,0-2.5C-37.2,326.1-37.2,328.6-38.8,328.6z M-35.1,351.3c-1.8,0-1.8-2.7,0-2.7
		C-33.4,348.6-33.4,351.3-35.1,351.3z"/>
	<path id="XMLID_58_" class="st2" d="M-94.9,307.5c0.1-0.1,0.1-0.1,0.2-0.2c4.9-5.2,15.3-4.7,17.4-11.6c0.2-0.6,0.3-1.2,0.3-1.8
		c-1.9,0.5-3.8,0.9-5.7,1.4c-8.7,2.1-17.5,4.1-26.3,6c2.6,1.5,5.2,2.8,8,3.9C-99.1,306.1-97,306.8-94.9,307.5z"/>
	<path id="XMLID_57_" class="st3" d="M-94.7,307.3c-0.1,0.1-0.1,0.1-0.2,0.2c14.8,4.7,31.2,4.7,45.5-1.3
		c12.2-5.2,22.6-15.3,27.7-27.4c-1.2,0.4-2.4,0.8-3.6,1.2c-0.4,0.1-0.8,0.3-1.2,0.4c-0.8,0.3-1.6,0.5-2.4,0.8
		c-0.5,0.2-1,0.3-1.5,0.5c-0.7,0.2-1.4,0.4-2.1,0.7c-0.5,0.2-1.1,0.3-1.6,0.5c-0.7,0.2-1.3,0.4-2,0.6c-0.6,0.2-1.1,0.3-1.7,0.5
		s-1.3,0.4-1.9,0.6c-0.6,0.2-1.2,0.3-1.8,0.5c-0.6,0.2-1.2,0.3-1.8,0.5c-0.6,0.2-1.2,0.3-1.8,0.5c-0.6,0.2-1.2,0.3-1.7,0.5
		c-0.7,0.2-1.3,0.4-2,0.5c-0.5,0.1-1,0.3-1.5,0.4c-0.7,0.2-1.5,0.4-2.2,0.6c-0.3,0.1-0.6,0.2-1,0.2c-7.8,2-15.7,3.9-23.5,5.8
		c0,0.6-0.1,1.2-0.3,1.8C-79.4,302.6-89.8,302.1-94.7,307.3z"/>
	<path id="XMLID_56_" class="st3" d="M-49.6,226.9c-3.6,2.3-8.1,2.6-12,4.1s-7.8,5.6-6.4,9.6c1.2,3.4,5.3,4.7,8.4,6.5
		c3.2,1.8,5.7,6.5,2.9,8.8c-0.8,0.6-1.8,0.9-2.8,1c-6.9,1.2-14.1,0.2-20.9,2c-6,1.6-11.8,6.9-11.8,12.8c14.8-3.1,29.5-7.1,44-11.5
		c0.1,0,0.3-0.1,0.4-0.1c3.5-1.1,7.1-2.1,10.6-3.2c0.7-0.2,1.4-0.4,2-0.6c0.8-0.3,1.6-0.5,2.5-0.8c1.5-0.5,3-0.9,4.5-1.4
		c0.1,0,0.2-0.1,0.3-0.1c1.4-0.4,2.7-0.8,4.1-1.3c1.4-0.4,2.8-0.9,4.2-1.4c-1.6-7.2-4.8-14-9-20.2c-2.3-3.3-4.8-6.5-7.6-9.4
		c-0.8-0.8-1.6-1.6-2.5-2.4c-1.8-1.6-3.6-3.2-5.6-4.6C-43.9,219.5-45.6,224.3-49.6,226.9z"/>
	<path id="XMLID_55_" class="st2" d="M-80.4,258.9c6.8-1.8,14-0.8,20.9-2c1-0.2,2-0.4,2.8-1c2.8-2.3,0.3-7-2.9-8.8s-7.3-3-8.4-6.5
		c-1.4-4,2.4-8.1,6.4-9.6s8.5-1.8,12-4.1c4-2.6,5.7-7.4,5.5-12.2c-2-1.4-4-2.6-6.2-3.6c-20.5-9.5-51.8-7.3-66.9,10.6
		c-5.4,6.4-9.1,14.1-11.2,22.2c-1,4.1-1.7,8.3-2,12.5c-0.2,2.2-0.2,4.4-0.2,6.6c0.1,4.8,0.6,9.6,1.8,14.2c1.4-0.1,2.8-0.2,4.2-0.4
		c0.3,0,0.7-0.1,1-0.1c1.2-0.1,2.5-0.3,3.7-0.4c0.1,0,0.3,0,0.4-0.1c1.6-0.2,3.3-0.4,4.9-0.6c0.5-0.1,1-0.1,1.5-0.2
		c1.4-0.2,2.8-0.4,4.2-0.6c0.8-0.1,1.6-0.3,2.4-0.4c0.7-0.1,1.4-0.2,2.1-0.4c1.6-0.3,3.3-0.6,4.9-0.9c0.2,0,0.5-0.1,0.7-0.1
		c2.2-0.4,4.3-0.8,6.5-1.3C-92.2,265.7-86.4,260.5-80.4,258.9z"/>
	<path id="XMLID_54_" class="st4" d="M45.9,224.3c-2.5-5.2-8.5-7.5-14.1-8.7c-7.2-1.5-14.5-2.1-21.9-2c-12.3,0.1-24.6,1.9-36.8,3.8
		c-3.8,0.6-7.7,1.2-11.6,1.8c0.8,0.8,1.7,1.6,2.5,2.4c2.8,2.9,5.4,6,7.6,9.4c1.8-0.2,3.6-0.3,5.4-0.5c6-0.4,13.6,0.4,15.5,6.1
		c1.1,3.5-0.7,7.3-3.4,9.8c-2.4,2.2-5.4,3.6-8.5,4.8c-1.4,0.5-2.8,1-4.2,1.4c-1.4,0.4-2.7,0.8-4.1,1.3c-0.1,0-0.2,0.1-0.3,0.1
		c-1.5,0.5-3,0.9-4.5,1.4c-0.8,0.3-1.6,0.5-2.5,0.8c-0.7,0.2-1.4,0.4-2,0.6c-3.5,1.1-7.1,2.2-10.6,3.2c-0.1,0-0.3,0.1-0.4,0.1
		c-16.7,5-33.5,9.5-50.5,12.8c-0.2,0-0.5,0.1-0.7,0.1c-1.6,0.3-3.3,0.6-4.9,0.9c-0.7,0.1-1.4,0.2-2.1,0.4c-0.8,0.1-1.6,0.3-2.4,0.4
		c-1.4,0.2-2.8,0.4-4.2,0.6c-0.5,0.1-1,0.1-1.5,0.2c-1.6,0.2-3.3,0.4-4.9,0.6c-0.1,0-0.3,0-0.4,0.1c-1.2,0.1-2.5,0.3-3.7,0.4
		c-0.3,0-0.7,0.1-1,0.1c-1.4,0.1-2.8,0.3-4.2,0.4c-6.5,0.5-13,0.8-19.5,0.7c-2.6,0-5.8-0.5-6.7-2.9c-0.7-1.7,0.2-3.6,1.3-5.1
		c3.3-4.6,8.8-7.2,14-9.5c3.1-1.3,6.2-2.6,9.3-3.9c0.3-4.2,0.9-8.4,2-12.5c-0.5,0.2-1.1,0.3-1.6,0.5c-10.8,3.1-21.6,6.1-31.8,10.9
		c-2.4,1.1-4.7,2.3-7,3.7c-2.9,4.8-4.6,10.3-4.6,15.9c0,4,0.8,8.2-0.3,12c-0.6,2.1-1.7,4.2-1.3,6.3c0.5,2,2.3,3.4,4.3,4
		c9.6,3,17.6-9.2,27.6-9.9c6-0.4,11.5,3.4,17.5,4.3c12.2,1.9,22.9-8.4,35.1-10.4c9.3-1.5,19,1.8,28.1-0.6
		c9.6-2.5,16.9-11.1,26.7-12.6c3.4-0.5,6.9-0.2,10.3-0.5c6.5-0.7,12.3-4.1,18.2-6.9c12.1-5.8,26.1-9.3,39.1-7.6
		c7.2-5.3,13.4-12,14.6-20.7C47.2,229.6,47,226.8,45.9,224.3z"/>
	<path id="XMLID_53_" class="st5" d="M-7,260.5c-5.9,2.8-11.7,6.2-18.2,6.9c-3.4,0.4-6.9,0-10.3,0.5c-9.8,1.5-17.1,10.1-26.7,12.6
		c-9.1,2.4-18.8-0.9-28.1,0.6c-12.2,2-22.9,12.3-35.1,10.4c-6-0.9-11.5-4.7-17.5-4.3c-10,0.7-18.1,12.9-27.6,9.9
		c-1.9-0.6-3.8-2-4.3-4c-0.5-2.1,0.7-4.2,1.3-6.3c1.1-3.9,0.3-8,0.3-12c0-5.6,1.7-11.1,4.6-15.9c-8.4,4.9-16.1,11-22.1,18.8
		c-2.8,3.7-5.3,7.9-5.3,12.5c-0.1,6.4,4.7,12.1,10.5,14.9c5.8,2.8,12.4,3.2,18.8,3.2c19.4,0,38.6-3,57.6-7.1
		c8.8-1.9,17.6-3.9,26.3-6c1.9-0.5,3.8-0.9,5.7-1.4c7.8-1.9,15.7-3.8,23.5-5.8c0.3-0.1,0.6-0.2,1-0.2c0.7-0.2,1.5-0.4,2.2-0.6
		c0.5-0.1,1-0.3,1.5-0.4c0.7-0.2,1.3-0.4,2-0.5c0.6-0.2,1.2-0.3,1.7-0.5c0.6-0.2,1.2-0.3,1.8-0.5c0.6-0.2,1.2-0.3,1.8-0.5
		c0.6-0.2,1.2-0.3,1.8-0.5c0.6-0.2,1.3-0.4,1.9-0.6c0.6-0.2,1.1-0.3,1.7-0.5c0.7-0.2,1.3-0.4,2-0.6c0.5-0.2,1.1-0.3,1.6-0.5
		c0.7-0.2,1.4-0.4,2.1-0.7c0.5-0.2,1-0.3,1.5-0.5c0.8-0.2,1.6-0.5,2.4-0.8c0.4-0.1,0.8-0.3,1.2-0.4c1.2-0.4,2.4-0.8,3.6-1.2
		c8.3-2.8,16.4-5.9,24.4-9.5c8-3.6,15.8-7.6,23.4-12.2c2.1-1.3,4.2-2.7,6.2-4.1C19.1,251.2,5.2,254.8-7,260.5z"/>
	<path id="XMLID_52_" class="st3" d="M-208.4,392.5c-0.1-1.8-1.7-3.3-1.7-5.1c0-1.9,1.5-3.3,2.3-5c0.9-1.9,0.6-4.4-0.6-6.1
		c-0.5-0.7-1.1-1.2-1.8-1.7c-1.7,3.6-3,7.3-3.9,11.1c0,0,0,0,0,0.1c-0.7,3.1-1.3,6.3-1.5,9.4c0.5,0.4,1,0.8,1.7,1
		C-211.5,397.2-208.2,395.2-208.4,392.5z"/>
	<path id="XMLID_51_" class="st3" d="M-154.8,419.9c5.9-5.7,9.6-14.2,8.3-22.3c-4.1,3.7-8.2,7.4-13,10.1c0,0.9,0.1,1.8,0.3,2.6
		c0.3,1.4,0.9,2.7,0.7,4.1c-0.3,1.5-1.4,2.7-2.7,3.7c-5.5,4.3-13.3,5.5-19.9,3.1c-1.5-0.6-3-1.3-4.7-1.4c-2.9-0.1-5.5,1.9-8.4,2.1
		c-5.2,0.5-9-4.6-13.9-6.4c-1.5-0.6-3.1-0.8-4.6-0.8c2.5,5.5,6.5,10.3,11.8,13.2c5.7,3.2,12.5,3.9,19,3.3c1.7-0.2,3.3-0.4,5-0.7
		C-168.7,428.9-160.7,425.7-154.8,419.9z"/>
	<path id="XMLID_50_" class="st2" d="M-194,421.9c2.9-0.3,5.5-2.3,8.4-2.1c1.6,0.1,3.1,0.8,4.7,1.4c6.6,2.4,14.3,1.2,19.9-3.1
		c1.2-0.9,2.4-2.1,2.7-3.7c0.2-1.4-0.4-2.8-0.7-4.1c-0.2-0.9-0.3-1.7-0.3-2.6c-0.7,0.4-1.3,0.7-2,1c-5.6,2.7-12.5,3.6-18.1,0.9
		c-6.8-3.2-10.5-10.9-11.4-18.3c-1.5-12.1,3.4-20.1,9.6-29.8c7.4-11.7-14.1-3.6-18.3-0.3c-4.5,3.6-8,8.3-10.5,13.5
		c0.7,0.4,1.3,1,1.8,1.7c1.2,1.7,1.5,4.1,0.6,6.1c-0.8,1.7-2.3,3.1-2.3,5c0,1.8,1.5,3.3,1.7,5.1c0.2,2.7-3.1,4.6-5.6,3.8
		c-0.6-0.2-1.2-0.5-1.7-1c-0.3,4.7-0.1,9.4,1.1,14c0.5,1.8,1.1,3.7,1.9,5.4c1.6-0.1,3.2,0.2,4.6,0.8
		C-203.1,417.4-199.2,422.4-194,421.9z"/>
	<path id="XMLID_49_" class="st5" d="M-248.7,233.3c5.4,8.1,15.3,12.2,24.9,13.3c11,1.2,22.6-1.1,31.8-7.3
		c8-5.4,13.9-13.9,15.9-23.2c-5.4,0.8-8.4,11.5-14.2,9.8l0,0c-0.2-3.8-4.5-5.9-7.6-3.7c-1.3,0.9-2.6,1.8-3.9,2.7
		c-0.9,0.6-1.8,1.2-3.1,0.5c-1.3-0.7-2-2.2-1.8-3.7c0.7-5.1,4.8-8.4,8.1-11.9c3-3.2,5.6-7.5,4.2-11.7c-5.6-0.5-11.1,2.1-15.5,5.7
		c-4.4,3.6-8,8-12,11.9c-1.6,1.5-3.9,3-5.7,1.5c-1-0.9-1.4-2.3-1-3.6c1.5-5.3,9.6-6.4,4.3-16.4c-6-1.2-8.8,11-14.7,9.2
		c0.8-4.9,2.9-9.6,5.9-13.5c1.7-2.2,3.9-4.6,3-7.5c-0.7-2.3-3-3.6-5.4-3.5c-4.5,0.2-7.3,3.7-9.8,6.9c-2.3,2.9-4.6,5.9-6.9,8.8
		c-0.3,1.3-0.6,2.5-0.8,3.8c-0.6,3.4-0.9,6.8-1,10.2C-254,219-252.9,226.9-248.7,233.3z"/>
	<path id="XMLID_48_" class="st4" d="M-235.4,181.6c2.4-0.1,4.7,1.2,5.4,3.5c0.9,2.9-1.3,5.3-3,7.5c-3.1,3.9-5.1,8.6-5.9,13.5
		c5.9,1.8,8.6-10.4,14.7-9.2c5.3,10-2.8,11-4.3,16.4c-0.4,1.3,0,2.7,1,3.6c1.8,1.5,4.2,0,5.7-1.5c4.1-3.9,7.6-8.4,12-11.9
		c4.4-3.6,9.9-6.2,15.5-5.7c1.3,4.1-1.3,8.5-4.2,11.7c-3.3,3.6-7.4,6.9-8.1,11.9c-0.2,1.5,0.5,3,1.8,3.7s2.2,0.1,3.1-0.5
		c1.3-0.9,2.6-1.8,3.9-2.7c3.1-2.1,7.4,0,7.6,3.7l0,0c5.8,1.7,8.7-9,14.2-9.8c0.3-1.4,0.5-2.9,0.6-4.4c0.4-5.5-0.5-11.1-2.2-16.4
		c-2.2-7.1-5.8-13.9-11.3-19c-1.1-1.1-2.4-2-3.6-2.8c-6.9-4.3-15.4-5.2-23.5-6.1c-9.8-1.2-19.9,3.4-26.3,10.6
		c-4.9,5.5-8,12.2-9.8,19.4c2.3-2.9,4.6-5.9,6.9-8.8C-242.6,185.3-239.8,181.8-235.4,181.6z"/>
	<path id="XMLID_47_" class="st3" d="M-85.1,168.3c0.7,0,1.6-0.3,2-0.8c0.2-0.2,0.3-0.4,0.5-0.6c0.5-0.6,0.8-1.2,0.8-2
		c0-0.7-0.3-1.5-0.8-2s-1.2-0.9-2-0.8c-0.8,0-1.4,0.3-2,0.8c-0.2,0.2-0.4,0.3-0.6,0.5c-0.5,0.4-0.8,1.4-0.8,2c0,0.7,0.3,1.6,0.8,2
		C-86.6,167.9-85.9,168.3-85.1,168.3z"/>
	<path id="XMLID_46_" class="st3" d="M-48.6,182.3c2,0,2-3.1,0-3.1C-50.7,179.2-50.7,182.3-48.6,182.3z"/>
	<path id="XMLID_45_" class="st3" d="M-21.6,199.1c2,0,2-3.1,0-3.1C-23.6,196.1-23.6,199.1-21.6,199.1z"/>
	<path id="XMLID_44_" class="st3" d="M-221.8,253.4c-0.4,0-0.7,0-1,0.1c-0.7,0.2-1.4,0.8-1.5,1.5c0,0.2,0,0.3-0.1,0.5
		c-0.1,0.6-0.1,1.1,0.2,1.7c0.3,0.4,0.8,0.9,1.3,1c0.9,0.2,1.8-0.1,2.3-0.9c0.7-0.5,1.1-1.5,0.9-2.3
		C-220.1,254.1-220.9,253.4-221.8,253.4z"/>
	<path id="XMLID_43_" class="st3" d="M-214.5,277.1c-1.9,0-1.9,3,0,3S-212.6,277.1-214.5,277.1z"/>
	<path id="XMLID_42_" class="st3" d="M-181.9,250.7c1.7,0,1.7-2.7,0-2.7C-183.6,248-183.6,250.7-181.9,250.7z"/>
	<path id="XMLID_41_" class="st3" d="M-149.7,338.5c-0.5-0.5-1.2-0.8-1.9-0.8s-1.4,0.3-1.9,0.8s-0.7,1.1-0.8,1.9
		c-0.1,0.9,0.1,1.8,0.7,2.5c0.1,0.1,0.1,0.1,0.2,0.2l0,0c0.1,0.1,0.2,0.1,0.2,0.2c0.1,0,0.1,0.1,0.2,0.1c0.1,0.1,0.2,0.1,0.3,0.2
		c0.1,0,0.1,0.1,0.2,0.1c0.1,0,0.2,0.1,0.4,0.1c0.1,0,0.1,0,0.2,0c0.1,0,0.2,0,0.3,0s0.2,0,0.2,0c0.1,0,0.2,0,0.3-0.1
		c0.1,0,0.2,0,0.3-0.1c0.1,0,0.2-0.1,0.2-0.1c0.1,0,0.2-0.1,0.3-0.1s0.1-0.1,0.2-0.2c0.1-0.1,0.2-0.1,0.2-0.2l0,0
		c0.1-0.1,0.1-0.2,0.2-0.2c0.6-0.7,0.8-1.6,0.7-2.4C-148.9,339.7-149.1,339.1-149.7,338.5z"/>
	<path id="XMLID_40_" class="st3" d="M-135.2,368c1.5,0,1.5-2.3,0-2.3S-136.7,368-135.2,368z"/>
	<path id="XMLID_39_" class="st3" d="M-135.2,391.4c-1.7,0-1.7,2.7,0,2.7S-133.5,391.4-135.2,391.4z"/>
	<path id="XMLID_38_" class="st3" d="M-100.4,334.7c2,0,2-3.1,0-3.1C-102.4,331.5-102.4,334.7-100.4,334.7z"/>
	<path id="XMLID_37_" class="st3" d="M-38.8,326.1c-1.6,0-1.6,2.5,0,2.5C-37.2,328.6-37.2,326.1-38.8,326.1z"/>
	<path id="XMLID_36_" class="st3" d="M-64,365c-0.2,0-0.5,0-0.7,0.1c-0.4,0.2-0.8,0.6-0.9,1.1c-0.3,0.6-0.2,1.3,0.4,1.8
		c0.7,0.5,1.6,0.3,2.1-0.4c0.1-0.2,0.2-0.3,0.3-0.5c0.3-0.4,0.2-1,0-1.4C-63.1,365.2-63.5,365-64,365z"/>
	<path id="XMLID_35_" class="st3" d="M-240,302.3c0.5-1.1,0.4-2.4-0.6-3.2c-0.9-0.7-2.4-0.7-3.2,0.2c-0.2,0.3-0.5,0.5-0.7,0.9
		c-0.3,0.5-0.3,1.1-0.3,1.6c1.5,0.3,3,0.6,4.4,1.2C-240.2,302.7-240.1,302.5-240,302.3z"/>
	<path id="XMLID_34_" class="st3" d="M-213.4,330.9c-1.4,0-1.4,2.2,0,2.2C-212,333.1-212,330.9-213.4,330.9z"/>
	<path id="XMLID_33_" class="st2" d="M-140.3,211.5c-1,0-2.2,0.6-2.6,1.5c-0.3,0.6-0.5,1.1-0.5,1.8s0.2,1.2,0.5,1.8
		c1,1.9,4.2,1.9,5.1,0c0.3-0.6,0.5-1.1,0.5-1.8s-0.2-1.2-0.5-1.8C-138.1,212-139.3,211.5-140.3,211.5z"/>
	<path id="XMLID_32_" class="st2" d="M-119.5,214.1c-1.9,0-1.9,2.9,0,2.9S-117.6,214.1-119.5,214.1z"/>
	<path id="XMLID_31_" class="st2" d="M-156.6,186.8c-1.5,0-1.5,2.4,0,2.4C-155.1,189.2-155.1,186.8-156.6,186.8z"/>
	<path id="XMLID_30_" class="st2" d="M-198.2,302.9c-2,0-2,3.1,0,3.1S-196.2,302.9-198.2,302.9z"/>
	<path id="XMLID_29_" class="st2" d="M-191.5,316.5c-1.8,0-1.8,2.9,0,2.9C-189.6,319.4-189.6,316.5-191.5,316.5z"/>
	<path id="XMLID_28_" class="st2" d="M-176.7,327.6c-0.4,0.5-0.7,1.1-0.7,1.8c0,0.5,0.1,1,0.4,1.5c0.5,0.6,1.1,1.1,1.9,1.1
		s1.4-0.4,1.9-1.1c0.3-0.4,0.4-1,0.4-1.5c0-0.7-0.3-1.3-0.7-1.8C-174.4,326.8-176,326.8-176.7,327.6z"/>
	<path id="XMLID_27_" class="st2" d="M-264,230L-264,230c-0.5-0.4-1.2-0.4-1.7-0.3c-0.3,0.1-0.6,0.3-0.8,0.5c-1,0.6-1.1,2.3,0,2.9
		c0.2,0.2,0.5,0.4,0.9,0.5c0.5,0.1,1.2,0.1,1.6-0.2c0,0,0.1,0,0.1-0.1c0.6-0.4,1-0.9,1-1.7C-263,230.9-263.4,230.4-264,230z"/>
	<path id="XMLID_26_" class="st2" d="M-248.8,272.9c-1.5,0-1.5,2.3,0,2.3S-247.3,272.9-248.8,272.9z"/>
	<path id="XMLID_25_" class="st2" d="M-89.8,314.9c-0.1-0.1-0.3-0.1-0.4-0.2c-1.2-0.5-2.5,0.6-2.6,1.8c-0.1,1,0.4,1.8,1.3,2.2l0,0
		c0.9,1.1,2.9,0.5,3.2-0.8c0.1-0.3,0.1-0.6,0.1-1C-88.4,315.9-88.9,315.3-89.8,314.9z"/>
	<path id="XMLID_24_" class="st2" d="M-127.9,323.1c1.5,0,1.6-2.4,0-2.4S-129.5,323.1-127.9,323.1z"/>
	<path id="XMLID_23_" class="st2" d="M-111.6,346.9c-0.4,0-0.6,0.1-0.8,0.3c0.6,0.1,1.3,0.2,1.9,0.2
		C-110.8,347.2-111.1,346.9-111.6,346.9z"/>
	<path id="XMLID_22_" class="st2" d="M-163.1,382.5l-0.1,0.1c-0.5,0.9-0.4,2.1,0.4,2.8c0.8,0.7,1.8,0.8,2.8,0.4c0,0,0.1,0,0.1-0.1
		c1.3-0.7,1.5-2.6,0.5-3.7C-160.5,381-162.4,381.2-163.1,382.5z"/>
	<path id="XMLID_21_" class="st2" d="M-131.9,424.3c-2.1,0-2.1,3.2,0,3.2C-129.8,427.5-129.8,424.3-131.9,424.3z"/>
	<path id="XMLID_20_" class="st2" d="M-225.1,364.2c-0.2,0-0.4,0.1-0.5,0.1c-0.6,0.1-1.1,0.8-1.1,1.4s0.4,1.3,1.1,1.4
		c0.2,0,0.4,0.1,0.5,0.1c1,0.2,2-0.4,2-1.5C-223.1,364.7-224.1,364.1-225.1,364.2z"/>
	<path id="XMLID_19_" class="st2" d="M-61.7,324.8c-1.2-0.2-2.2,0.6-2.6,1.7l0,0l0,0c0,0,0,0,0,0.1c-0.1,0.3-0.1,0.6-0.1,0.9l0,0
		c0,1.2,0.9,2.2,2.1,2.4c1.2,0.2,2.4-0.6,2.7-1.7c0.1-0.3,0.1-0.6,0.1-1C-59.7,325.9-60.5,324.9-61.7,324.8z"/>
	<path id="XMLID_18_" class="st2" d="M-35.1,348.6c-1.8,0-1.8,2.7,0,2.7C-33.4,351.3-33.4,348.6-35.1,348.6z"/>
	<path id="XMLID_17_" class="st2" d="M-58.8,164.4c1.4,0,1.4-2.2,0-2.2C-60.2,162.2-60.2,164.4-58.8,164.4z"/>
	<path id="XMLID_16_" class="st2" d="M-74.5,189.4c1.8,0,1.8-2.8,0-2.8S-76.3,189.4-74.5,189.4z"/>
	<path id="XMLID_15_" class="st2" d="M-158.1,157.4c0.9,0.2,1.8,0,2.5-0.7c0.9-0.9,0.5-2.3-0.7-2.7c-0.1,0-0.2-0.1-0.4-0.1
		c-0.8-0.3-1.7,0.3-1.9,1c-0.3,0.2-0.5,0.5-0.5,0.9C-159.3,156.5-158.9,157.3-158.1,157.4z"/>
	<path id="XMLID_14_" class="st5" d="M-100.7,375.9c-0.1-1.9-2.2-2.9-3.8-1.8c-0.6,0.4-1.3,0.9-1.9,1.3c-0.4,0.3-0.9,0.6-1.5,0.3
		c-0.6-0.3-1-1.1-0.9-1.8c0.3-2.5,2.3-4.1,4-5.9c1.5-1.6,2.8-3.7,2.1-5.8c-2.8-0.3-5.5,1-7.6,2.8c-2.2,1.8-3.9,3.9-5.9,5.9
		c-0.8,0.7-1.9,1.5-2.8,0.7c-0.5-0.4-0.7-1.1-0.5-1.8c0.7-2.6,4.7-3.1,2.1-8.1c-3-0.6-4.3,5.4-7.2,4.5c0.4-2.4,1.4-4.7,2.9-6.7
		c0.9-1.1,1.9-2.3,1.5-3.7c-0.4-1.1-1.5-1.8-2.6-1.7c-2.2,0.1-3.6,1.8-4.8,3.4c-1.1,1.4-2.3,2.9-3.4,4.3c-0.5,2.3-0.8,4.6-0.9,6.9
		c-0.1,3.8,0.4,7.7,2.5,10.8c2.7,4,7.5,6,12.3,6.5c5.4,0.6,11.1-0.5,15.7-3.6c3.9-2.7,6.9-6.8,7.9-11.4
		C-96.4,371.5-97.9,376.7-100.7,375.9z"/>
	<path id="XMLID_13_" class="st4" d="M-100.1,351.5c-2.9-2.7-6.7-3.5-10.5-4c-0.6-0.1-1.3-0.2-1.9-0.2c-0.3,0-0.7-0.1-1-0.1
		c-4.8-0.6-9.8,1.7-13,5.2c-2.4,2.7-4,6-4.8,9.6c1.1-1.4,2.3-2.9,3.4-4.3c1.2-1.6,2.6-3.3,4.8-3.4c1.2-0.1,2.3,0.6,2.6,1.7
		c0.5,1.4-0.6,2.6-1.5,3.7c-1.5,1.9-2.5,4.2-2.9,6.7c2.9,0.9,4.3-5.1,7.2-4.5c2.6,4.9-1.4,5.4-2.1,8.1c-0.2,0.6,0,1.4,0.5,1.8
		c0.9,0.7,2,0,2.8-0.7c2-1.9,3.8-4.1,5.9-5.9c2.2-1.8,4.9-3.1,7.6-2.8c0.7,2-0.6,4.2-2.1,5.8c-1.6,1.8-3.7,3.4-4,5.9
		c-0.1,0.7,0.3,1.5,0.9,1.8c0.6,0.3,1.1,0,1.5-0.3c0.6-0.4,1.3-0.9,1.9-1.3c1.5-1.1,3.7,0,3.8,1.8c2.8,0.8,4.3-4.4,7-4.8
		c0.2-0.7,0.3-1.4,0.3-2.2c0.2-2.7-0.3-5.5-1.1-8.1C-95.6,357.3-97.4,354-100.1,351.5z"/>
	<path id="XMLID_12_" class="st6" d="M1.7,340.6c-0.1-1-1.1-1.5-1.9-0.9c-0.3,0.2-0.7,0.4-1,0.7c-0.2,0.1-0.5,0.3-0.8,0.1
		c-0.3-0.2-0.5-0.6-0.5-0.9c0.2-1.3,1.2-2.1,2.1-3c0.8-0.8,1.4-1.9,1.1-3c-1.4-0.1-2.8,0.5-3.9,1.4c-1.1,0.9-2,2-3,3
		c-0.4,0.4-1,0.8-1.5,0.4c-0.3-0.2-0.3-0.6-0.3-0.9c0.4-1.4,2.4-1.6,1.1-4.1c-1.5-0.3-2.2,2.8-3.7,2.3c0.2-1.2,0.7-2.4,1.5-3.4
		c0.4-0.6,1-1.2,0.8-1.9c-0.2-0.6-0.8-0.9-1.4-0.9c-1.1,0.1-1.8,0.9-2.5,1.7c-0.6,0.7-1.2,1.5-1.7,2.2c-0.3,1.2-0.4,2.4-0.5,3.5
		c0,1.9,0.2,4,1.3,5.6c1.2,1.7,3.1,2.7,5.1,3.2c0.4,0.1,0.8,0.2,1.2,0.2c2.8,0.3,5.7-0.3,8.1-1.9c2-1.4,3.5-3.5,4-5.9
		C3.9,338.4,3.1,341.1,1.7,340.6z"/>
	<path id="XMLID_11_" class="st7" d="M-11.5,328.5c-1.2,1.4-2,3.1-2.5,4.9c0.6-0.7,1.2-1.5,1.7-2.2c0.6-0.8,1.4-1.7,2.5-1.7
		c0.6,0,1.2,0.3,1.4,0.9c0.2,0.7-0.3,1.3-0.8,1.9c-0.8,1-1.3,2.2-1.5,3.4c1.5,0.5,2.2-2.6,3.7-2.3c1.3,2.5-0.7,2.8-1.1,4.1
		c-0.1,0.3,0,0.7,0.3,0.9c0.5,0.4,1.1,0,1.5-0.4c1-1,1.9-2.1,3-3c1.1-0.9,2.5-1.6,3.9-1.4c0.3,1-0.3,2.2-1.1,3
		c-0.8,0.9-1.9,1.7-2.1,3c0,0.4,0.1,0.8,0.5,0.9c0.3,0.2,0.6,0,0.8-0.1c0.3-0.2,0.7-0.4,1-0.7c0.8-0.5,1.9,0,1.9,0.9
		c1.5,0.4,2.2-2.3,3.6-2.5c0.1-0.4,0.1-0.7,0.2-1.1c0.1-1.4-0.1-2.8-0.6-4.2c-0.6-1.8-1.5-3.5-2.9-4.8c-1.9-1.7-4.5-2-6.9-2.3h-0.1
		C-7.4,325.6-9.9,326.7-11.5,328.5z"/>
	<path id="XMLID_10_" class="st8" d="M-1.4,185.3L-1.4,185.3c-0.1-1.7-2.1-2.7-3.5-1.7c-0.6,0.4-1.2,0.8-1.8,1.2
		c-0.4,0.3-0.8,0.6-1.4,0.2c-0.6-0.3-0.9-1-0.8-1.7c0.3-2.3,2.2-3.8,3.7-5.5c1.4-1.5,2.6-3.5,1.9-5.4c-2.6-0.2-5.1,1-7.1,2.6
		s-3.6,3.7-5.5,5.5c-0.7,0.7-1.8,1.4-2.6,0.7c-0.5-0.4-0.6-1.1-0.5-1.7c0.7-2.5,4.4-2.9,2-7.5c-2.8-0.6-4,5-6.7,4.2
		c0.4-2.3,1.3-4.4,2.7-6.2c0.8-1,1.8-2.1,1.4-3.5c-0.3-1-1.4-1.7-2.5-1.6c-2,0.1-3.3,1.7-4.5,3.2c-1.1,1.3-2.1,2.7-3.2,4
		c-0.5,2.1-0.8,4.3-0.8,6.4c-0.1,3.5,0.4,7.2,2.4,10.1c2.5,3.7,7,5.6,11.4,6.1c5.1,0.6,10.4-0.5,14.6-3.4c3.7-2.5,6.4-6.4,7.3-10.7
		C2.6,181.2,1.3,186.1-1.4,185.3z"/>
	<path id="XMLID_9_" class="st7" d="M-25.3,163.4c-2.2,2.5-3.7,5.6-4.5,8.9c1.1-1.3,2.1-2.7,3.2-4c1.2-1.5,2.4-3.1,4.5-3.2
		c1.1-0.1,2.1,0.6,2.5,1.6c0.4,1.3-0.6,2.4-1.4,3.5c-1.4,1.8-2.3,4-2.7,6.2c2.7,0.8,4-4.8,6.7-4.2c2.4,4.6-1.3,5.1-2,7.5
		c-0.2,0.6,0,1.3,0.5,1.7c0.8,0.7,1.9,0,2.6-0.7c1.9-1.8,3.5-3.8,5.5-5.5c2-1.6,4.5-2.8,7.1-2.6c0.6,1.9-0.6,3.9-1.9,5.4
		c-1.5,1.6-3.4,3.1-3.7,5.5c-0.1,0.7,0.2,1.4,0.8,1.7c0.6,0.3,1,0,1.4-0.2c0.6-0.4,1.2-0.8,1.8-1.2c1.4-1,3.4,0,3.5,1.7l0,0
		c2.6,0.8,4-4.1,6.5-4.5c0-0.1,0-0.1,0-0.2c0.1-0.6,0.2-1.2,0.3-1.9c0.2-2.5-0.2-5.1-1-7.5c-1-3.3-2.7-6.4-5.2-8.7
		c-3.4-3.1-8.1-3.6-12.4-4.1c-2.8-0.3-5.7,0.4-8.2,1.8C-22.8,161.1-24.2,162.2-25.3,163.4z"/>
	<path id="XMLID_8_" class="st8" d="M-229.8,325.1c-2.7,0.4-4.1,5.6-7,4.8c-0.1-1.9-2.2-2.9-3.8-1.8c-0.6,0.4-1.3,0.9-1.9,1.3
		c-0.4,0.3-0.9,0.6-1.5,0.3c-0.6-0.3-1-1.1-0.9-1.8c0.3-2.5,2.3-4.1,4-5.9c1.5-1.6,2.8-3.7,2.1-5.8c-2.8-0.3-5.5,1-7.6,2.8
		c-2.2,1.8-3.9,3.9-5.9,5.9c-0.8,0.7-1.9,1.5-2.8,0.7c-0.5-0.4-0.7-1.1-0.5-1.8c0.7-2.6,4.7-3.1,2.1-8.1c-3-0.6-4.3,5.4-7.2,4.5
		c0.4-2.4,1.4-4.7,2.9-6.7c0.9-1.1,1.9-2.3,1.5-3.7c-0.4-1.1-1.5-1.8-2.6-1.7c-2.2,0.1-3.6,1.8-4.8,3.4c-1.1,1.4-2.3,2.9-3.4,4.3
		c-0.5,2.3-0.8,4.6-0.9,6.9c-0.1,3.8,0.4,7.7,2.5,10.8c2.7,4,7.5,6,12.3,6.5c5.4,0.6,11.1-0.5,15.7-3.6c0.1-0.1,0.3-0.2,0.4-0.3
		C-233.6,333.6-230.8,329.5-229.8,325.1z"/>
	<path id="XMLID_7_" class="st7" d="M-259.1,308.2c1.2-0.1,2.3,0.6,2.6,1.7c0.5,1.4-0.6,2.6-1.5,3.7c-1.5,1.9-2.5,4.2-2.9,6.7
		c2.9,0.9,4.3-5.1,7.2-4.5c2.6,4.9-1.4,5.4-2.1,8.1c-0.2,0.6,0,1.4,0.5,1.8c0.9,0.7,2,0,2.8-0.7c2-1.9,3.8-4.1,5.9-5.9
		c2.2-1.7,4.9-3.1,7.6-2.8c0.7,2-0.6,4.2-2.1,5.8c-1.6,1.8-3.7,3.4-4,5.9c-0.1,0.7,0.3,1.5,0.9,1.8c0.6,0.3,1.1,0,1.5-0.3
		c0.6-0.4,1.3-0.9,1.9-1.3c1.5-1.1,3.7,0,3.8,1.8c2.8,0.8,4.3-4.4,7-4.8c0.2-0.7,0.3-1.4,0.3-2.2c0.2-2.7-0.3-5.5-1.1-8.1
		c-1.1-3.5-2.9-6.9-5.6-9.3c-1.3-1.2-2.7-2-4.2-2.6c-1.4-0.5-2.9-0.9-4.4-1.2c-1.6-0.3-3.2-0.5-4.8-0.6c-4.8-0.6-9.8,1.7-13,5.2
		c-0.6,0.7-1.2,1.4-1.7,2.2c-1.5,2.2-2.5,4.8-3.1,7.4c1.1-1.4,2.3-2.9,3.4-4.3C-262.7,310-261.3,308.3-259.1,308.2z"/>
	<path id="XMLID_6_" class="st3" d="M-128.1,190.9c6.3,0.7,12.9-0.6,18.1-4.2c4.5-3.1,7.9-7.9,9.1-13.2c-3.1,0.5-4.8,6.5-8.1,5.6
		l0,0c-0.1-2.2-2.6-3.4-4.4-2.1c-0.7,0.5-1.5,1-2.2,1.5c-0.5,0.3-1,0.7-1.8,0.3c-0.8-0.4-1.2-1.2-1-2.1c0.4-2.9,2.7-4.8,4.6-6.8
		c1.7-1.8,3.2-4.3,2.4-6.7c-3.2-0.3-6.3,1.2-8.8,3.2s-4.5,4.6-6.9,6.8c-0.9,0.9-2.2,1.7-3.3,0.9c-0.6-0.5-0.8-1.3-0.6-2.1
		c0.9-3,5.5-3.6,2.4-9.3c-3.4-0.7-5,6.3-8.4,5.2c0.5-2.8,1.6-5.5,3.4-7.7c1-1.3,2.2-2.6,1.7-4.3c-0.4-1.3-1.7-2-3.1-2
		c-2.5,0.1-4.1,2.1-5.6,3.9c-1.3,1.7-2.6,3.3-3.9,5c-0.6,2.6-1,5.3-1,8c-0.1,4.4,0.5,8.9,2.9,12.5
		C-139.2,188-133.6,190.3-128.1,190.9z"/>
	<path id="XMLID_5_" class="st2" d="M-134.7,154c1.3-0.1,2.7,0.7,3.1,2c0.5,1.7-0.7,3-1.7,4.3c-1.7,2.2-2.9,4.9-3.4,7.7
		c3.3,1,4.9-5.9,8.4-5.2c3,5.7-1.6,6.3-2.4,9.3c-0.2,0.7,0,1.6,0.6,2.1c1,0.9,2.4,0,3.3-0.9c2.3-2.2,4.4-4.8,6.9-6.8
		s5.6-3.5,8.8-3.2c0.8,2.4-0.7,4.8-2.4,6.7c-1.9,2-4.2,3.9-4.6,6.8c-0.1,0.8,0.3,1.7,1,2.1c0.7,0.4,1.3,0,1.8-0.3
		c0.7-0.5,1.5-1,2.2-1.5c1.8-1.2,4.2,0,4.4,2.1l0,0c3.3,1,5-5.1,8.1-5.6c0.2-0.8,0.3-1.7,0.4-2.5c0.2-3.2-0.3-6.3-1.3-9.3
		c-1.3-4-3.3-7.9-6.4-10.8c-4.2-3.9-10-4.4-15.4-5.1c-5.6-0.7-11.3,2-15,6.1c-2.8,3.1-4.6,7-5.6,11c1.3-1.7,2.6-3.3,3.9-5
		C-138.8,156-137.2,154.1-134.7,154z"/>
</g>
</svg>
