<svg version="1.1" id="Layer_1" xmlns="http://www.w3.org/2000/svg" x="0" y="0" viewBox="-302 90 355 382" xml:space="preserve"><style>.st0{fill:#27305a}.st2{fill:#00ffe6}.st3{fill:#6cc4ff}.st4{fill:#f09}.st5{fill:#c06}.st7{fill:#f1c489}.st8{fill:#efa400}</style><g id="XMLID_107_"><path id="XMLID_100_" class="st0" d="M-11 246.5c2.7-2.5 4.5-6.3 3.4-9.8-1.8-5.7-9.5-6.5-15.5-6.1-1.8.1-3.6.3-5.4.5 4.2 6.2 7.4 13 9 20.2 3.1-1.2 6.1-2.6 8.5-4.8z"/><path id="XMLID_99_" class="st0" d="M-37.1 256.8z"/><path id="XMLID_98_" class="st0" d="M-98.6 272.9c17-3.2 33.8-7.8 50.5-12.8-14.6 4.3-29.2 8.4-44 11.5-2.2.5-4.4.9-6.5 1.3z"/><path id="XMLID_97_" class="st0" d="M-106.3 274.3c-.8.1-1.6.3-2.4.4.8-.2 1.6-.3 2.4-.4z"/><path id="XMLID_96_" class="st0" d="M-32.6 255.4c-.8.3-1.6.5-2.5.8.9-.3 1.7-.5 2.5-.8z"/><path id="XMLID_95_" class="st0" d="M-112.9 275.3c-.5.1-1 .1-1.5.2.5-.1 1-.1 1.5-.2z"/><path id="XMLID_94_" class="st0" d="M-99.3 273c-1.6.3-3.3.6-4.9.9 1.6-.2 3.2-.5 4.9-.9z"/><path id="XMLID_93_" class="st0" d="M-130.3 256.3c-3.1 1.3-6.2 2.5-9.3 3.9-5.3 2.3-10.7 4.9-14 9.5-1.1 1.5-1.9 3.4-1.3 5.1.9 2.4 4.1 2.9 6.7 2.9 6.5.1 13-.2 19.5-.7-1.2-4.6-1.8-9.4-1.8-14.2 0-2.1 0-4.3.2-6.5z"/><path id="XMLID_166_" d="M-49.5 306.2c-14.3 6.1-30.6 6-45.5 1.3-2.1-.7-4.2-1.4-6.2-2.3-2.7-1.1-5.4-2.4-8-3.9-19 4-38.2 7.1-57.6 7.1-6.4 0-13-.4-18.8-3.2s-10.6-8.5-10.5-14.9c0-4.6 2.5-8.8 5.3-12.5 5.9-7.8 13.6-13.9 22.1-18.8 2.3-1.3 4.6-2.5 7-3.7 10.2-4.9 20.9-7.9 31.8-10.9.5-.2 1.1-.3 1.6-.5 2.1-8.1 5.7-15.8 11.2-22.2 15.1-17.9 46.3-20.1 66.9-10.6 2.2 1 4.2 2.2 6.2 3.6s3.8 2.9 5.6 4.6c3.9-.6 7.8-1.2 11.6-1.8 12.2-1.9 24.5-3.7 36.8-3.8 1.9-5.1 2.9-10.3 2.4-15.8-.6-6.4-3.2-12.1-7.1-17.1v.2c-.9 4.3-3.7 8.2-7.3 10.7-4.2 2.9-9.5 3.9-14.6 3.4-4.4-.5-8.9-2.4-11.4-6.1-2-2.9-2.4-6.6-2.4-10.1 0-2.1.3-4.3.8-6.4.8-3.3 2.2-6.4 4.5-8.9 1.1-1.2 2.4-2.3 3.9-3.1-.1-.1-.3-.1-.4-.2-3.3-1.7-6.7-3.4-10.4-3.5-2.8-.1-5.4.8-8.2 1.2-11.8 1.7-22.9-4.8-33.7-9.8-23.1-10.8-49-14.9-74.1-12-16.5 1.9-34.7 8.6-40.8 24.1-1.7 4.2-2.3 8.8-3.7 13.1 1.3.8 2.5 1.7 3.6 2.8 5.5 5 9.1 11.9 11.3 19 1.7 5.3 2.6 10.9 2.2 16.4-.1 1.5-.3 3-.6 4.4-2 9.4-8 17.8-15.9 23.2-9.2 6.3-20.8 8.6-31.8 7.3-9.7-1.1-19.5-5.2-24.9-13.3-4.3-6.3-5.3-14.3-5.2-22 .1-3.4.4-6.8 1-10.2-13.8 6.2-26 20.7-21.8 35.2 1.6 5.4 5.2 9.9 7.7 14.9s3.9 11.3 1 16.1c-1 1.7-2.6 3.1-3.8 4.7-6.3 7.9-5.1 19.7-.1 28.5 1.6 2.9 3.6 5.5 5.7 8 .5-.8 1.1-1.5 1.7-2.2 3.2-3.6 8.2-5.8 13-5.2l4.8.6c-.1-.5 0-1.1.3-1.6.2-.3.4-.6.7-.9.8-.9 2.3-.9 3.2-.2 1 .8 1.2 2 .6 3.2-.1.2-.3.4-.4.6 1.5.6 2.9 1.4 4.2 2.6 2.7 2.5 4.5 5.8 5.6 9.3.8 2.6 1.3 5.4 1.1 8.1-.1.7-.2 1.5-.3 2.2-1 4.5-3.7 8.5-7.4 11.2 2.2 3.3 4 6.9 5.1 10.8.5 2 .8 4.3-.2 6.1-1.2 2.1-3.8 2.9-5.7 4.4-5.7 4.6-3.4 14.4 2.3 19.1 5.6 4.7 13.2 6 20.1 8.7.5.2 1.1.4 1.6.7v-.1c.9-3.8 2.2-7.6 3.9-11.1 2.5-5.2 5.9-10 10.5-13.5 4.2-3.3 25.7-11.3 18.3.3-6.2 9.7-11.1 17.7-9.6 29.8.9 7.5 4.6 15.1 11.4 18.3 5.7 2.7 12.5 1.8 18.1-.9.7-.3 1.4-.7 2-1 4.8-2.7 8.9-6.4 13-10.1 1.3 8.1-2.3 16.6-8.3 22.3-5.9 5.7-13.9 9-22 10.6-1.6.3-3.3.6-5 .7 1.8 2.6 3.1 5.6 4.8 8.2 5.7 9.1 16.6 14.7 27.3 13.9 2.6-.2 5.4-.8 7.3-2.6 2.3-2.1 3.4-5.8 6.3-6.9 2.8-1.1 5.9.5 8.8.2 4.4-.5 6.6-4.9 7.4-9.5.3-1.5.4-3.1.3-4.5-.1-5.9-.5-12.9 4.3-16.3 2.7-2 6.5-2.2 9-4.5 4.5-4.3 2.4-13.8 9.8-15.7 1.4-.3 2.8-.4 4.2-.1 6.1.9 12.9 5.7 19.3 4.9 1.9-.2 3.7-.8 5.4-1.7 3.8-2 6.9-5.4 7.9-9.2.8-3.2 3.4-5.6 6.6-6.2 3.4-.6 6.7-1.8 9.2-4 2.2-1.9 3.7-4.5 5.5-6.9 6.6-8.3 17.2-12.4 25.3-19.3 1.8-1.5 3.4-3.4 4.8-5.4-2-.4-4-1.4-5.1-3.2-1.1-1.6-1.3-3.6-1.3-5.6 0-1.2.2-2.4.5-3.5.4-1.8 1.2-3.5 2.5-4.9 1.6-1.8 4.1-2.9 6.5-2.7-.5-.9-1.1-1.8-1.9-2.6-3.1-3.2-7.8-4.7-10.2-8.6-1.1-1.7-1.5-3.8-.8-5.7 1.1-2.8 3.7-3.1 6-3.8 10.7-3 16.3-15.5 15.9-26.6-.1-3.1-.6-6.2-1.3-9.2-8 3.6-16.1 6.7-24.4 9.5-5.3 12.2-15.6 22.3-27.9 27.5zm27.9-110.1c2 0 2 3.1 0 3.1-2-.1-2-3.1 0-3.1zm-27-16.9c2 0 2 3.1 0 3.1-2.1 0-2.1-3.1 0-3.1zm-10.2-17c1.4 0 1.4 2.2 0 2.2s-1.4-2.2 0-2.2zm-15.7 24.4c1.8 0 1.8 2.8 0 2.8s-1.8-2.8 0-2.8zm-63.2 29.9c-1 1.9-4.2 1.9-5.1 0-.3-.6-.5-1.1-.5-1.8s.2-1.2.5-1.8c.4-.9 1.6-1.5 2.6-1.5s2.2.6 2.6 1.5c.3.6.5 1.1.5 1.8-.2.7-.3 1.2-.6 1.8zm18.2.5c-1.9 0-1.9-2.9 0-2.9s1.9 2.9 0 2.9zm32.4-53.7c.2-.2.4-.3.6-.5.6-.5 1.2-.8 2-.8.7 0 1.4.3 2 .8.5.5.8 1.3.8 2 0 .8-.3 1.4-.8 2-.2.2-.3.4-.5.6-.5.6-1.3.8-2 .8-.8 0-1.5-.3-2-.8s-.8-1.3-.8-2c-.2-.7.1-1.7.7-2.1zm-58.1 7.6c.1-2.7.4-5.4 1-8 1-4.1 2.8-7.9 5.6-11 3.7-4.1 9.4-6.7 15-6.1 5.4.6 11.2 1.2 15.4 5.1 3.1 2.9 5.2 6.8 6.4 10.8.9 3 1.5 6.2 1.3 9.3-.1.8-.2 1.7-.4 2.5-1.1 5.3-4.5 10.2-9.1 13.2-5.2 3.6-11.8 4.9-18.1 4.2-5.5-.6-11.1-3-14.2-7.6-2.4-3.5-3-8.1-2.9-12.4zm-11.4 18.3c-1.5 0-1.5-2.4 0-2.4s1.5 2.4 0 2.4zm-2.6-33.4c.1-.4.2-.7.5-.9.3-.7 1.2-1.3 1.9-1 .1 0 .2.1.4.1 1.2.4 1.6 1.8.7 2.7-.7.7-1.6.9-2.5.7-.7-.1-1.1-.9-1-1.6zm-22.7 92.2c1.7 0 1.7 2.7 0 2.7s-1.7-2.7 0-2.7zm-82.1-14.6s0 .1 0 0c-.5.4-1.2.4-1.7.3-.4-.1-.6-.3-.9-.5-1-.6-1-2.4 0-2.9.2-.2.5-.4.8-.5.4-.1 1.2-.1 1.6.2 0 0 .1 0 .1.1.6.4 1 .9 1 1.7.1.7-.3 1.2-.9 1.6zm15.2 41.8c-1.5 0-1.5-2.3 0-2.3s1.5 2.3 0 2.3zm23.7 92c-.2 0-.4-.1-.5-.1-.6-.1-1-.8-1.1-1.4 0-.6.5-1.3 1.1-1.4.2 0 .4-.1.5-.1 1-.2 2 .4 2 1.5s-1 1.7-2 1.5zm4.5-109.9c-.5.7-1.4 1.1-2.3.9-.5-.1-1-.5-1.3-1-.3-.5-.3-1.1-.2-1.7 0-.2 0-.3.1-.5.1-.7.9-1.4 1.5-1.5.3-.1.7-.1 1-.1 1 0 1.8.7 2 1.6.3.8-.1 1.8-.8 2.3zm6.1 19.8c1.9 0 1.9 3 0 3s-1.9-3 0-3zm1.1 56c-1.4 0-1.4-2.2 0-2.2s1.4 2.2 0 2.2zm15.2-27.1c-2 0-2-3.1 0-3.1s2 3.1 0 3.1zm6.7 13.4c-1.8 0-1.8-2.9 0-2.9 1.9 0 1.9 2.9 0 2.9zm18.2 11.4c-.5.6-1.1 1.1-1.9 1.1-.8 0-1.4-.4-1.9-1.1-.3-.4-.4-1-.4-1.5 0-.7.3-1.3.7-1.8.8-.8 2.3-.8 3.1 0 .4.5.7 1.1.7 1.8.1.6 0 1.1-.3 1.5zm13.4 54.9s-.1 0-.1.1c-.9.5-2 .4-2.8-.4-.8-.7-.8-1.9-.4-2.8l.1-.1c.7-1.3 2.6-1.5 3.7-.5 1 1.1.8 3-.5 3.7zm10.3-42.8c-.1.1-.1.2-.2.2l-.2.2-.2.2c-.1.1-.2.1-.3.1s-.1.1-.2.1-.2 0-.3.1c-.1 0-.2 0-.3.1h-.7c-.1 0-.2 0-.4-.1-.1 0-.1-.1-.2-.1s-.2-.1-.3-.2c-.1 0-.1-.1-.2-.1-.1-.1-.2-.1-.2-.2l-.2-.2c-.6-.7-.8-1.6-.7-2.5.1-.7.3-1.3.8-1.9.5-.5 1.2-.7 1.9-.8.7 0 1.4.3 1.9.8s.7 1.2.8 1.9c0 .8-.2 1.7-.8 2.4zm14.4 22.8c1.5 0 1.5 2.3 0 2.3s-1.5-2.3 0-2.3zm0 28.4c-1.7 0-1.7-2.7 0-2.7s1.7 2.7 0 2.7zm34.8-62.6c2 0 2 3.1 0 3.1-2 .1-2-3.1 0-3.1zm-27.5-10.8c1.6 0 1.5 2.4 0 2.4-1.6 0-1.6-2.4 0-2.4zm-4 106.8c-2.1 0-2.1-3.2 0-3.2s2.1 3.2 0 3.2zm38.5-58.6c-.1.7-.2 1.5-.3 2.2-1 4.6-3.9 8.8-7.9 11.4-4.5 3.1-10.2 4.2-15.7 3.6-4.8-.5-9.6-2.6-12.3-6.5-2.1-3.1-2.6-7.1-2.5-10.8 0-2.3.3-4.6.9-6.9.9-3.5 2.4-6.9 4.8-9.6 3.2-3.6 8.2-5.8 13-5.2.3 0 .7.1 1 .1.2-.2.5-.3.8-.3.5 0 .8.2 1.1.5 3.8.5 7.6 1.4 10.5 4 2.7 2.5 4.5 5.8 5.6 9.3.7 2.7 1.2 5.5 1 8.2zm5-51c-.3 1.3-2.2 1.9-3.2.8-.9-.4-1.4-1.1-1.3-2.2.2-1.1 1.4-2.2 2.6-1.8.1.1.3.1.4.2.9.4 1.4 1 1.5 2 .1.3.1.7 0 1zm25.6 49.2c-.1.2-.2.3-.3.5-.5.7-1.4 1-2.1.4-.6-.5-.7-1.2-.4-1.8.1-.5.5-.9.9-1.1.2-.1.4-.1.7-.1.5.1.9.2 1.2.7.2.4.3 1 0 1.4zm3-39c-.3 1.2-1.5 1.9-2.7 1.7-1.2-.2-2.1-1.2-2.1-2.4 0-.3 0-.6.1-.9v-.1c.4-1.1 1.4-1.9 2.6-1.7 1.2.2 2.1 1.2 2.1 2.4.2.4.1.7 0 1zm21 .5c-1.6 0-1.6-2.5 0-2.5s1.6 2.5 0 2.5zm3.7 22.7c-1.8 0-1.8-2.7 0-2.7 1.7 0 1.7 2.7 0 2.7z" fill="#1424c1"/><path id="XMLID_58_" class="st2" d="M-94.9 307.5l.2-.2c4.9-5.2 15.3-4.7 17.4-11.6.2-.6.3-1.2.3-1.8-1.9.5-3.8.9-5.7 1.4-8.7 2.1-17.5 4.1-26.3 6 2.6 1.5 5.2 2.8 8 3.9 1.9.9 4 1.6 6.1 2.3z"/><path id="XMLID_57_" class="st3" d="M-94.7 307.3l-.2.2c14.8 4.7 31.2 4.7 45.5-1.3 12.2-5.2 22.6-15.3 27.7-27.4l-3.6 1.2c-.4.1-.8.3-1.2.4-.8.3-1.6.5-2.4.8-.5.2-1 .3-1.5.5-.7.2-1.4.4-2.1.7-.5.2-1.1.3-1.6.5-.7.2-1.3.4-2 .6-.6.2-1.1.3-1.7.5s-1.3.4-1.9.6c-.6.2-1.2.3-1.8.5-.6.2-1.2.3-1.8.5-.6.2-1.2.3-1.8.5-.6.2-1.2.3-1.7.5-.7.2-1.3.4-2 .5-.5.1-1 .3-1.5.4-.7.2-1.5.4-2.2.6-.3.1-.6.2-1 .2-7.8 2-15.7 3.9-23.5 5.8 0 .6-.1 1.2-.3 1.8-2.1 6.7-12.5 6.2-17.4 11.4z"/><path id="XMLID_56_" class="st3" d="M-49.6 226.9c-3.6 2.3-8.1 2.6-12 4.1s-7.8 5.6-6.4 9.6c1.2 3.4 5.3 4.7 8.4 6.5 3.2 1.8 5.7 6.5 2.9 8.8-.8.6-1.8.9-2.8 1-6.9 1.2-14.1.2-20.9 2-6 1.6-11.8 6.9-11.8 12.8 14.8-3.1 29.5-7.1 44-11.5.1 0 .3-.1.4-.1 3.5-1.1 7.1-2.1 10.6-3.2.7-.2 1.4-.4 2-.6.8-.3 1.6-.5 2.5-.8 1.5-.5 3-.9 4.5-1.4.1 0 .2-.1.3-.1 1.4-.4 2.7-.8 4.1-1.3 1.4-.4 2.8-.9 4.2-1.4-1.6-7.2-4.8-14-9-20.2-2.3-3.3-4.8-6.5-7.6-9.4-.8-.8-1.6-1.6-2.5-2.4-1.8-1.6-3.6-3.2-5.6-4.6.4 4.8-1.3 9.6-5.3 12.2z"/><path id="XMLID_55_" class="st2" d="M-80.4 258.9c6.8-1.8 14-.8 20.9-2 1-.2 2-.4 2.8-1 2.8-2.3.3-7-2.9-8.8s-7.3-3-8.4-6.5c-1.4-4 2.4-8.1 6.4-9.6s8.5-1.8 12-4.1c4-2.6 5.7-7.4 5.5-12.2-2-1.4-4-2.6-6.2-3.6-20.5-9.5-51.8-7.3-66.9 10.6-5.4 6.4-9.1 14.1-11.2 22.2-1 4.1-1.7 8.3-2 12.5-.2 2.2-.2 4.4-.2 6.6.1 4.8.6 9.6 1.8 14.2 1.4-.1 2.8-.2 4.2-.4.3 0 .7-.1 1-.1 1.2-.1 2.5-.3 3.7-.4.1 0 .3 0 .4-.1 1.6-.2 3.3-.4 4.9-.6.5-.1 1-.1 1.5-.2l4.2-.6c.8-.1 1.6-.3 2.4-.4.7-.1 1.4-.2 2.1-.4 1.6-.3 3.3-.6 4.9-.9.2 0 .5-.1.7-.1 2.2-.4 4.3-.8 6.5-1.3.1-6 5.9-11.2 11.9-12.8z"/><path id="XMLID_54_" class="st4" d="M45.9 224.3c-2.5-5.2-8.5-7.5-14.1-8.7-7.2-1.5-14.5-2.1-21.9-2-12.3.1-24.6 1.9-36.8 3.8-3.8.6-7.7 1.2-11.6 1.8.8.8 1.7 1.6 2.5 2.4 2.8 2.9 5.4 6 7.6 9.4 1.8-.2 3.6-.3 5.4-.5 6-.4 13.6.4 15.5 6.1 1.1 3.5-.7 7.3-3.4 9.8-2.4 2.2-5.4 3.6-8.5 4.8-1.4.5-2.8 1-4.2 1.4-1.4.4-2.7.8-4.1 1.3-.1 0-.2.1-.3.1-1.5.5-3 .9-4.5 1.4-.8.3-1.6.5-2.5.8-.7.2-1.4.4-2 .6-3.5 1.1-7.1 2.2-10.6 3.2-.1 0-.3.1-.4.1-16.7 5-33.5 9.5-50.5 12.8-.2 0-.5.1-.7.1-1.6.3-3.3.6-4.9.9-.7.1-1.4.2-2.1.4-.8.1-1.6.3-2.4.4l-4.2.6c-.5.1-1 .1-1.5.2-1.6.2-3.3.4-4.9.6-.1 0-.3 0-.4.1-1.2.1-2.5.3-3.7.4-.3 0-.7.1-1 .1-1.4.1-2.8.3-4.2.4-6.5.5-13 .8-19.5.7-2.6 0-5.8-.5-6.7-2.9-.7-1.7.2-3.6 1.3-5.1 3.3-4.6 8.8-7.2 14-9.5l9.3-3.9c.3-4.2.9-8.4 2-12.5-.5.2-1.1.3-1.6.5-10.8 3.1-21.6 6.1-31.8 10.9-2.4 1.1-4.7 2.3-7 3.7-2.9 4.8-4.6 10.3-4.6 15.9 0 4 .8 8.2-.3 12-.6 2.1-1.7 4.2-1.3 6.3.5 2 2.3 3.4 4.3 4 9.6 3 17.6-9.2 27.6-9.9 6-.4 11.5 3.4 17.5 4.3 12.2 1.9 22.9-8.4 35.1-10.4 9.3-1.5 19 1.8 28.1-.6 9.6-2.5 16.9-11.1 26.7-12.6 3.4-.5 6.9-.2 10.3-.5 6.5-.7 12.3-4.1 18.2-6.9 12.1-5.8 26.1-9.3 39.1-7.6 7.2-5.3 13.4-12 14.6-20.7.4-2.7.2-5.5-.9-8z"/><path id="XMLID_53_" class="st5" d="M-7 260.5c-5.9 2.8-11.7 6.2-18.2 6.9-3.4.4-6.9 0-10.3.5-9.8 1.5-17.1 10.1-26.7 12.6-9.1 2.4-18.8-.9-28.1.6-12.2 2-22.9 12.3-35.1 10.4-6-.9-11.5-4.7-17.5-4.3-10 .7-18.1 12.9-27.6 9.9-1.9-.6-3.8-2-4.3-4-.5-2.1.7-4.2 1.3-6.3 1.1-3.9.3-8 .3-12 0-5.6 1.7-11.1 4.6-15.9-8.4 4.9-16.1 11-22.1 18.8-2.8 3.7-5.3 7.9-5.3 12.5-.1 6.4 4.7 12.1 10.5 14.9 5.8 2.8 12.4 3.2 18.8 3.2 19.4 0 38.6-3 57.6-7.1 8.8-1.9 17.6-3.9 26.3-6 1.9-.5 3.8-.9 5.7-1.4 7.8-1.9 15.7-3.8 23.5-5.8.3-.1.6-.2 1-.2.7-.2 1.5-.4 2.2-.6.5-.1 1-.3 1.5-.4.7-.2 1.3-.4 2-.5.6-.2 1.2-.3 1.7-.5.6-.2 1.2-.3 1.8-.5.6-.2 1.2-.3 1.8-.5.6-.2 1.2-.3 1.8-.5.6-.2 1.3-.4 1.9-.6.6-.2 1.1-.3 1.7-.5.7-.2 1.3-.4 2-.6.5-.2 1.1-.3 1.6-.5.7-.2 1.4-.4 2.1-.7.5-.2 1-.3 1.5-.5.8-.2 1.6-.5 2.4-.8.4-.1.8-.3 1.2-.4l3.6-1.2c8.3-2.8 16.4-5.9 24.4-9.5 8-3.6 15.8-7.6 23.4-12.2 2.1-1.3 4.2-2.7 6.2-4.1-13.1-1.5-27 2.1-39.2 7.8z"/><path id="XMLID_52_" class="st3" d="M-208.4 392.5c-.1-1.8-1.7-3.3-1.7-5.1 0-1.9 1.5-3.3 2.3-5 .9-1.9.6-4.4-.6-6.1-.5-.7-1.1-1.2-1.8-1.7-1.7 3.6-3 7.3-3.9 11.1v.1c-.7 3.1-1.3 6.3-1.5 9.4.5.4 1 .8 1.7 1 2.4 1 5.7-1 5.5-3.7z"/><path id="XMLID_51_" class="st3" d="M-154.8 419.9c5.9-5.7 9.6-14.2 8.3-22.3-4.1 3.7-8.2 7.4-13 10.1 0 .9.1 1.8.3 2.6.3 1.4.9 2.7.7 4.1-.3 1.5-1.4 2.7-2.7 3.7-5.5 4.3-13.3 5.5-19.9 3.1-1.5-.6-3-1.3-4.7-1.4-2.9-.1-5.5 1.9-8.4 2.1-5.2.5-9-4.6-13.9-6.4-1.5-.6-3.1-.8-4.6-.8 2.5 5.5 6.5 10.3 11.8 13.2 5.7 3.2 12.5 3.9 19 3.3 1.7-.2 3.3-.4 5-.7 8.2-1.6 16.2-4.8 22.1-10.6z"/><path id="XMLID_50_" class="st2" d="M-194 421.9c2.9-.3 5.5-2.3 8.4-2.1 1.6.1 3.1.8 4.7 1.4 6.6 2.4 14.3 1.2 19.9-3.1 1.2-.9 2.4-2.1 2.7-3.7.2-1.4-.4-2.8-.7-4.1-.2-.9-.3-1.7-.3-2.6-.7.4-1.3.7-2 1-5.6 2.7-12.5 3.6-18.1.9-6.8-3.2-10.5-10.9-11.4-18.3-1.5-12.1 3.4-20.1 9.6-29.8 7.4-11.7-14.1-3.6-18.3-.3-4.5 3.6-8 8.3-10.5 13.5.7.4 1.3 1 1.8 1.7 1.2 1.7 1.5 4.1.6 6.1-.8 1.7-2.3 3.1-2.3 5 0 1.8 1.5 3.3 1.7 5.1.2 2.7-3.1 4.6-5.6 3.8-.6-.2-1.2-.5-1.7-1-.3 4.7-.1 9.4 1.1 14 .5 1.8 1.1 3.7 1.9 5.4 1.6-.1 3.2.2 4.6.8 4.8 1.8 8.7 6.8 13.9 6.3z"/><path id="XMLID_49_" class="st5" d="M-248.7 233.3c5.4 8.1 15.3 12.2 24.9 13.3 11 1.2 22.6-1.1 31.8-7.3 8-5.4 13.9-13.9 15.9-23.2-5.4.8-8.4 11.5-14.2 9.8-.2-3.8-4.5-5.9-7.6-3.7l-3.9 2.7c-.9.6-1.8 1.2-3.1.5s-2-2.2-1.8-3.7c.7-5.1 4.8-8.4 8.1-11.9 3-3.2 5.6-7.5 4.2-11.7-5.6-.5-11.1 2.1-15.5 5.7s-8 8-12 11.9c-1.6 1.5-3.9 3-5.7 1.5-1-.9-1.4-2.3-1-3.6 1.5-5.3 9.6-6.4 4.3-16.4-6-1.2-8.8 11-14.7 9.2.8-4.9 2.9-9.6 5.9-13.5 1.7-2.2 3.9-4.6 3-7.5-.7-2.3-3-3.6-5.4-3.5-4.5.2-7.3 3.7-9.8 6.9-2.3 2.9-4.6 5.9-6.9 8.8-.3 1.3-.6 2.5-.8 3.8-.6 3.4-.9 6.8-1 10.2 0 7.4 1.1 15.3 5.3 21.7z"/><path id="XMLID_48_" class="st4" d="M-235.4 181.6c2.4-.1 4.7 1.2 5.4 3.5.9 2.9-1.3 5.3-3 7.5-3.1 3.9-5.1 8.6-5.9 13.5 5.9 1.8 8.6-10.4 14.7-9.2 5.3 10-2.8 11-4.3 16.4-.4 1.3 0 2.7 1 3.6 1.8 1.5 4.2 0 5.7-1.5 4.1-3.9 7.6-8.4 12-11.9 4.4-3.6 9.9-6.2 15.5-5.7 1.3 4.1-1.3 8.5-4.2 11.7-3.3 3.6-7.4 6.9-8.1 11.9-.2 1.5.5 3 1.8 3.7s2.2.1 3.1-.5l3.9-2.7c3.1-2.1 7.4 0 7.6 3.7 5.8 1.7 8.7-9 14.2-9.8.3-1.4.5-2.9.6-4.4.4-5.5-.5-11.1-2.2-16.4-2.2-7.1-5.8-13.9-11.3-19-1.1-1.1-2.4-2-3.6-2.8-6.9-4.3-15.4-5.2-23.5-6.1-9.8-1.2-19.9 3.4-26.3 10.6-4.9 5.5-8 12.2-9.8 19.4 2.3-2.9 4.6-5.9 6.9-8.8 2.6-3 5.4-6.5 9.8-6.7z"/><path id="XMLID_47_" class="st3" d="M-85.1 168.3c.7 0 1.6-.3 2-.8.2-.2.3-.4.5-.6.5-.6.8-1.2.8-2 0-.7-.3-1.5-.8-2s-1.2-.9-2-.8c-.8 0-1.4.3-2 .8-.2.2-.4.3-.6.5-.5.4-.8 1.4-.8 2 0 .7.3 1.6.8 2 .6.5 1.3.9 2.1.9z"/><path id="XMLID_46_" class="st3" d="M-48.6 182.3c2 0 2-3.1 0-3.1-2.1 0-2.1 3.1 0 3.1z"/><path id="XMLID_45_" class="st3" d="M-21.6 199.1c2 0 2-3.1 0-3.1-2 .1-2 3.1 0 3.1z"/><path id="XMLID_44_" class="st3" d="M-221.8 253.4c-.4 0-.7 0-1 .1-.7.2-1.4.8-1.5 1.5 0 .2 0 .3-.1.5-.1.6-.1 1.1.2 1.7.3.4.8.9 1.3 1 .9.2 1.8-.1 2.3-.9.7-.5 1.1-1.5.9-2.3-.4-.9-1.2-1.6-2.1-1.6z"/><path id="XMLID_43_" class="st3" d="M-214.5 277.1c-1.9 0-1.9 3 0 3s1.9-3 0-3z"/><path id="XMLID_42_" class="st3" d="M-181.9 250.7c1.7 0 1.7-2.7 0-2.7s-1.7 2.7 0 2.7z"/><path id="XMLID_41_" class="st3" d="M-149.7 338.5c-.5-.5-1.2-.8-1.9-.8s-1.4.3-1.9.8-.7 1.1-.8 1.9c-.1.9.1 1.8.7 2.5l.2.2c.1.1.2.1.2.2.1 0 .1.1.2.1.1.1.2.1.3.2.1 0 .1.1.2.1s.2.1.4.1h.7c.1 0 .2 0 .3-.1.1 0 .2 0 .3-.1.1 0 .2-.1.2-.1.1 0 .2-.1.3-.1s.1-.1.2-.2.2-.1.2-.2c.1-.1.1-.2.2-.2.6-.7.8-1.6.7-2.4.1-.7-.1-1.3-.7-1.9z"/><path id="XMLID_40_" class="st3" d="M-135.2 368c1.5 0 1.5-2.3 0-2.3s-1.5 2.3 0 2.3z"/><path id="XMLID_39_" class="st3" d="M-135.2 391.4c-1.7 0-1.7 2.7 0 2.7s1.7-2.7 0-2.7z"/><path id="XMLID_38_" class="st3" d="M-100.4 334.7c2 0 2-3.1 0-3.1-2-.1-2 3.1 0 3.1z"/><path id="XMLID_37_" class="st3" d="M-38.8 326.1c-1.6 0-1.6 2.5 0 2.5s1.6-2.5 0-2.5z"/><path id="XMLID_36_" class="st3" d="M-64 365c-.2 0-.5 0-.7.1-.4.2-.8.6-.9 1.1-.3.6-.2 1.3.4 1.8.7.5 1.6.3 2.1-.4.1-.2.2-.3.3-.5.3-.4.2-1 0-1.4-.3-.5-.7-.7-1.2-.7z"/><path id="XMLID_35_" class="st3" d="M-240 302.3c.5-1.1.4-2.4-.6-3.2-.9-.7-2.4-.7-3.2.2-.2.3-.5.5-.7.9-.3.5-.3 1.1-.3 1.6 1.5.3 3 .6 4.4 1.2.2-.3.3-.5.4-.7z"/><path id="XMLID_34_" class="st3" d="M-213.4 330.9c-1.4 0-1.4 2.2 0 2.2s1.4-2.2 0-2.2z"/><path id="XMLID_33_" class="st2" d="M-140.3 211.5c-1 0-2.2.6-2.6 1.5-.3.6-.5 1.1-.5 1.8s.2 1.2.5 1.8c1 1.9 4.2 1.9 5.1 0 .3-.6.5-1.1.5-1.8s-.2-1.2-.5-1.8c-.3-1-1.5-1.5-2.5-1.5z"/><path id="XMLID_32_" class="st2" d="M-119.5 214.1c-1.9 0-1.9 2.9 0 2.9s1.9-2.9 0-2.9z"/><path id="XMLID_31_" class="st2" d="M-156.6 186.8c-1.5 0-1.5 2.4 0 2.4s1.5-2.4 0-2.4z"/><path id="XMLID_30_" class="st2" d="M-198.2 302.9c-2 0-2 3.1 0 3.1s2-3.1 0-3.1z"/><path id="XMLID_29_" class="st2" d="M-191.5 316.5c-1.8 0-1.8 2.9 0 2.9 1.9 0 1.9-2.9 0-2.9z"/><path id="XMLID_28_" class="st2" d="M-176.7 327.6c-.4.5-.7 1.1-.7 1.8 0 .5.1 1 .4 1.5.5.6 1.1 1.1 1.9 1.1s1.4-.4 1.9-1.1c.3-.4.4-1 .4-1.5 0-.7-.3-1.3-.7-1.8-.9-.8-2.5-.8-3.2 0z"/><path id="XMLID_27_" class="st2" d="M-264 230c-.5-.4-1.2-.4-1.7-.3-.3.1-.6.3-.8.5-1 .6-1.1 2.3 0 2.9.2.2.5.4.9.5.5.1 1.2.1 1.6-.2 0 0 .1 0 .1-.1.6-.4 1-.9 1-1.7-.1-.7-.5-1.2-1.1-1.6z"/><path id="XMLID_26_" class="st2" d="M-248.8 272.9c-1.5 0-1.5 2.3 0 2.3s1.5-2.3 0-2.3z"/><path id="XMLID_25_" class="st2" d="M-89.8 314.9c-.1-.1-.3-.1-.4-.2-1.2-.5-2.5.6-2.6 1.8-.1 1 .4 1.8 1.3 2.2.9 1.1 2.9.5 3.2-.8.1-.3.1-.6.1-1-.2-1-.7-1.6-1.6-2z"/><path id="XMLID_24_" class="st2" d="M-127.9 323.1c1.5 0 1.6-2.4 0-2.4s-1.6 2.4 0 2.4z"/><path id="XMLID_23_" class="st2" d="M-111.6 346.9c-.4 0-.6.1-.8.3.6.1 1.3.2 1.9.2-.3-.2-.6-.5-1.1-.5z"/><path id="XMLID_22_" class="st2" d="M-163.1 382.5l-.1.1c-.5.9-.4 2.1.4 2.8.8.7 1.8.8 2.8.4 0 0 .1 0 .1-.1 1.3-.7 1.5-2.6.5-3.7-1.1-1-3-.8-3.7.5z"/><path id="XMLID_21_" class="st2" d="M-131.9 424.3c-2.1 0-2.1 3.2 0 3.2s2.1-3.2 0-3.2z"/><path id="XMLID_20_" class="st2" d="M-225.1 364.2c-.2 0-.4.1-.5.1-.6.1-1.1.8-1.1 1.4s.4 1.3 1.1 1.4c.2 0 .4.1.5.1 1 .2 2-.4 2-1.5 0-1-1-1.6-2-1.5z"/><path id="XMLID_19_" class="st2" d="M-61.7 324.8c-1.2-.2-2.2.6-2.6 1.7v.1c-.1.3-.1.6-.1.9 0 1.2.9 2.2 2.1 2.4 1.2.2 2.4-.6 2.7-1.7.1-.3.1-.6.1-1-.2-1.3-1-2.3-2.2-2.4z"/><path id="XMLID_18_" class="st2" d="M-35.1 348.6c-1.8 0-1.8 2.7 0 2.7 1.7 0 1.7-2.7 0-2.7z"/><path id="XMLID_17_" class="st2" d="M-58.8 164.4c1.4 0 1.4-2.2 0-2.2s-1.4 2.2 0 2.2z"/><path id="XMLID_16_" class="st2" d="M-74.5 189.4c1.8 0 1.8-2.8 0-2.8s-1.8 2.8 0 2.8z"/><path id="XMLID_15_" class="st2" d="M-158.1 157.4c.9.2 1.8 0 2.5-.7.9-.9.5-2.3-.7-2.7-.1 0-.2-.1-.4-.1-.8-.3-1.7.3-1.9 1-.3.2-.5.5-.5.9-.2.7.2 1.5 1 1.6z"/><path id="XMLID_14_" class="st5" d="M-100.7 375.9c-.1-1.9-2.2-2.9-3.8-1.8-.6.4-1.3.9-1.9 1.3-.4.3-.9.6-1.5.3s-1-1.1-.9-1.8c.3-2.5 2.3-4.1 4-5.9 1.5-1.6 2.8-3.7 2.1-5.8-2.8-.3-5.5 1-7.6 2.8-2.2 1.8-3.9 3.9-5.9 5.9-.8.7-1.9 1.5-2.8.7-.5-.4-.7-1.1-.5-1.8.7-2.6 4.7-3.1 2.1-8.1-3-.6-4.3 5.4-7.2 4.5.4-2.4 1.4-4.7 2.9-6.7.9-1.1 1.9-2.3 1.5-3.7-.4-1.1-1.5-1.8-2.6-1.7-2.2.1-3.6 1.8-4.8 3.4-1.1 1.4-2.3 2.9-3.4 4.3-.5 2.3-.8 4.6-.9 6.9-.1 3.8.4 7.7 2.5 10.8 2.7 4 7.5 6 12.3 6.5 5.4.6 11.1-.5 15.7-3.6 3.9-2.7 6.9-6.8 7.9-11.4-2.9.5-4.4 5.7-7.2 4.9z"/><path id="XMLID_13_" class="st4" d="M-100.1 351.5c-2.9-2.7-6.7-3.5-10.5-4-.6-.1-1.3-.2-1.9-.2-.3 0-.7-.1-1-.1-4.8-.6-9.8 1.7-13 5.2-2.4 2.7-4 6-4.8 9.6 1.1-1.4 2.3-2.9 3.4-4.3 1.2-1.6 2.6-3.3 4.8-3.4 1.2-.1 2.3.6 2.6 1.7.5 1.4-.6 2.6-1.5 3.7-1.5 1.9-2.5 4.2-2.9 6.7 2.9.9 4.3-5.1 7.2-4.5 2.6 4.9-1.4 5.4-2.1 8.1-.2.6 0 1.4.5 1.8.9.7 2 0 2.8-.7 2-1.9 3.8-4.1 5.9-5.9 2.2-1.8 4.9-3.1 7.6-2.8.7 2-.6 4.2-2.1 5.8-1.6 1.8-3.7 3.4-4 5.9-.1.7.3 1.5.9 1.8.6.3 1.1 0 1.5-.3.6-.4 1.3-.9 1.9-1.3 1.5-1.1 3.7 0 3.8 1.8 2.8.8 4.3-4.4 7-4.8.2-.7.3-1.4.3-2.2.2-2.7-.3-5.5-1.1-8.1-.8-3.7-2.6-7-5.3-9.5z"/><path id="XMLID_12_" d="M1.7 340.6c-.1-1-1.1-1.5-1.9-.9-.3.2-.7.4-1 .7-.2.1-.5.3-.8.1-.3-.2-.5-.6-.5-.9.2-1.3 1.2-2.1 2.1-3 .8-.8 1.4-1.9 1.1-3-1.4-.1-2.8.5-3.9 1.4-1.1.9-2 2-3 3-.4.4-1 .8-1.5.4-.3-.2-.3-.6-.3-.9.4-1.4 2.4-1.6 1.1-4.1-1.5-.3-2.2 2.8-3.7 2.3.2-1.2.7-2.4 1.5-3.4.4-.6 1-1.2.8-1.9-.2-.6-.8-.9-1.4-.9-1.1.1-1.8.9-2.5 1.7-.6.7-1.2 1.5-1.7 2.2-.3 1.2-.4 2.4-.5 3.5 0 1.9.2 4 1.3 5.6 1.2 1.7 3.1 2.7 5.1 3.2.4.1.8.2 1.2.2 2.8.3 5.7-.3 8.1-1.9 2-1.4 3.5-3.5 4-5.9-1.4.3-2.2 3-3.6 2.5z" fill="#e1b37f"/><path id="XMLID_11_" class="st7" d="M-11.5 328.5c-1.2 1.4-2 3.1-2.5 4.9.6-.7 1.2-1.5 1.7-2.2.6-.8 1.4-1.7 2.5-1.7.6 0 1.2.3 1.4.9.2.7-.3 1.3-.8 1.9-.8 1-1.3 2.2-1.5 3.4 1.5.5 2.2-2.6 3.7-2.3 1.3 2.5-.7 2.8-1.1 4.1-.1.3 0 .7.3.9.5.4 1.1 0 1.5-.4 1-1 1.9-2.1 3-3 1.1-.9 2.5-1.6 3.9-1.4.3 1-.3 2.2-1.1 3-.8.9-1.9 1.7-2.1 3 0 .4.1.8.5.9.3.2.6 0 .8-.1.3-.2.7-.4 1-.7.8-.5 1.9 0 1.9.9 1.5.4 2.2-2.3 3.6-2.5.1-.4.1-.7.2-1.1.1-1.4-.1-2.8-.6-4.2-.6-1.8-1.5-3.5-2.9-4.8-1.9-1.7-4.5-2-6.9-2.3h-.1c-2.3-.1-4.8 1-6.4 2.8z"/><path id="XMLID_10_" class="st8" d="M-1.4 185.3c-.1-1.7-2.1-2.7-3.5-1.7l-1.8 1.2c-.4.3-.8.6-1.4.2-.6-.3-.9-1-.8-1.7.3-2.3 2.2-3.8 3.7-5.5 1.4-1.5 2.6-3.5 1.9-5.4-2.6-.2-5.1 1-7.1 2.6s-3.6 3.7-5.5 5.5c-.7.7-1.8 1.4-2.6.7-.5-.4-.6-1.1-.5-1.7.7-2.5 4.4-2.9 2-7.5-2.8-.6-4 5-6.7 4.2.4-2.3 1.3-4.4 2.7-6.2.8-1 1.8-2.1 1.4-3.5-.3-1-1.4-1.7-2.5-1.6-2 .1-3.3 1.7-4.5 3.2-1.1 1.3-2.1 2.7-3.2 4-.5 2.1-.8 4.3-.8 6.4-.1 3.5.4 7.2 2.4 10.1 2.5 3.7 7 5.6 11.4 6.1 5.1.6 10.4-.5 14.6-3.4 3.7-2.5 6.4-6.4 7.3-10.7-2.5.6-3.8 5.5-6.5 4.7z"/><path id="XMLID_9_" class="st7" d="M-25.3 163.4c-2.2 2.5-3.7 5.6-4.5 8.9 1.1-1.3 2.1-2.7 3.2-4 1.2-1.5 2.4-3.1 4.5-3.2 1.1-.1 2.1.6 2.5 1.6.4 1.3-.6 2.4-1.4 3.5-1.4 1.8-2.3 4-2.7 6.2 2.7.8 4-4.8 6.7-4.2 2.4 4.6-1.3 5.1-2 7.5-.2.6 0 1.3.5 1.7.8.7 1.9 0 2.6-.7 1.9-1.8 3.5-3.8 5.5-5.5 2-1.6 4.5-2.8 7.1-2.6.6 1.9-.6 3.9-1.9 5.4-1.5 1.6-3.4 3.1-3.7 5.5-.1.7.2 1.4.8 1.7.6.3 1 0 1.4-.2l1.8-1.2c1.4-1 3.4 0 3.5 1.7 2.6.8 4-4.1 6.5-4.5v-.2c.1-.6.2-1.2.3-1.9.2-2.5-.2-5.1-1-7.5-1-3.3-2.7-6.4-5.2-8.7-3.4-3.1-8.1-3.6-12.4-4.1-2.8-.3-5.7.4-8.2 1.8-1.4.7-2.8 1.8-3.9 3z"/><path id="XMLID_8_" class="st8" d="M-229.8 325.1c-2.7.4-4.1 5.6-7 4.8-.1-1.9-2.2-2.9-3.8-1.8-.6.4-1.3.9-1.9 1.3-.4.3-.9.6-1.5.3s-1-1.1-.9-1.8c.3-2.5 2.3-4.1 4-5.9 1.5-1.6 2.8-3.7 2.1-5.8-2.8-.3-5.5 1-7.6 2.8-2.2 1.8-3.9 3.9-5.9 5.9-.8.7-1.9 1.5-2.8.7-.5-.4-.7-1.1-.5-1.8.7-2.6 4.7-3.1 2.1-8.1-3-.6-4.3 5.4-7.2 4.5.4-2.4 1.4-4.7 2.9-6.7.9-1.1 1.9-2.3 1.5-3.7-.4-1.1-1.5-1.8-2.6-1.7-2.2.1-3.6 1.8-4.8 3.4-1.1 1.4-2.3 2.9-3.4 4.3-.5 2.3-.8 4.6-.9 6.9-.1 3.8.4 7.7 2.5 10.8 2.7 4 7.5 6 12.3 6.5 5.4.6 11.1-.5 15.7-3.6.1-.1.3-.2.4-.3 3.5-2.5 6.3-6.6 7.3-11z"/><path id="XMLID_7_" class="st7" d="M-259.1 308.2c1.2-.1 2.3.6 2.6 1.7.5 1.4-.6 2.6-1.5 3.7-1.5 1.9-2.5 4.2-2.9 6.7 2.9.9 4.3-5.1 7.2-4.5 2.6 4.9-1.4 5.4-2.1 8.1-.2.6 0 1.4.5 1.8.9.7 2 0 2.8-.7 2-1.9 3.8-4.1 5.9-5.9 2.2-1.7 4.9-3.1 7.6-2.8.7 2-.6 4.2-2.1 5.8-1.6 1.8-3.7 3.4-4 5.9-.1.7.3 1.5.9 1.8.6.3 1.1 0 1.5-.3.6-.4 1.3-.9 1.9-1.3 1.5-1.1 3.7 0 3.8 1.8 2.8.8 4.3-4.4 7-4.8.2-.7.3-1.4.3-2.2.2-2.7-.3-5.5-1.1-8.1-1.1-3.5-2.9-6.9-5.6-9.3-1.3-1.2-2.7-2-4.2-2.6-1.4-.5-2.9-.9-4.4-1.2-1.6-.3-3.2-.5-4.8-.6-4.8-.6-9.8 1.7-13 5.2-.6.7-1.2 1.4-1.7 2.2-1.5 2.2-2.5 4.8-3.1 7.4 1.1-1.4 2.3-2.9 3.4-4.3 1.5-1.7 2.9-3.4 5.1-3.5z"/><path id="XMLID_6_" class="st3" d="M-128.1 190.9c6.3.7 12.9-.6 18.1-4.2 4.5-3.1 7.9-7.9 9.1-13.2-3.1.5-4.8 6.5-8.1 5.6-.1-2.2-2.6-3.4-4.4-2.1-.7.5-1.5 1-2.2 1.5-.5.3-1 .7-1.8.3-.8-.4-1.2-1.2-1-2.1.4-2.9 2.7-4.8 4.6-6.8 1.7-1.8 3.2-4.3 2.4-6.7-3.2-.3-6.3 1.2-8.8 3.2s-4.5 4.6-6.9 6.8c-.9.9-2.2 1.7-3.3.9-.6-.5-.8-1.3-.6-2.1.9-3 5.5-3.6 2.4-9.3-3.4-.7-5 6.3-8.4 5.2.5-2.8 1.6-5.5 3.4-7.7 1-1.3 2.2-2.6 1.7-4.3-.4-1.3-1.7-2-3.1-2-2.5.1-4.1 2.1-5.6 3.9-1.3 1.7-2.6 3.3-3.9 5-.6 2.6-1 5.3-1 8-.1 4.4.5 8.9 2.9 12.5 3.4 4.7 9 7 14.5 7.6z"/><path id="XMLID_5_" class="st2" d="M-134.7 154c1.3-.1 2.7.7 3.1 2 .5 1.7-.7 3-1.7 4.3-1.7 2.2-2.9 4.9-3.4 7.7 3.3 1 4.9-5.9 8.4-5.2 3 5.7-1.6 6.3-2.4 9.3-.2.7 0 1.6.6 2.1 1 .9 2.4 0 3.3-.9 2.3-2.2 4.4-4.8 6.9-6.8s5.6-3.5 8.8-3.2c.8 2.4-.7 4.8-2.4 6.7-1.9 2-4.2 3.9-4.6 6.8-.1.8.3 1.7 1 2.1.7.4 1.3 0 1.8-.3.7-.5 1.5-1 2.2-1.5 1.8-1.2 4.2 0 4.4 2.1 3.3 1 5-5.1 8.1-5.6.2-.8.3-1.7.4-2.5.2-3.2-.3-6.3-1.3-9.3-1.3-4-3.3-7.9-6.4-10.8-4.2-3.9-10-4.4-15.4-5.1-5.6-.7-11.3 2-15 6.1-2.8 3.1-4.6 7-5.6 11 1.3-1.7 2.6-3.3 3.9-5 1.2-2 2.8-3.9 5.3-4z"/></g></svg>