<svg version="1.1" id="Layer_1" xmlns="http://www.w3.org/2000/svg" x="0" y="0" viewBox="0 0 960 560" xml:space="preserve"><style>.st1{fill:#fff}</style><path id="XMLID_1_" d="M785.3 373.9H199.9c-20.3 0-36.8-16.5-36.8-36.8V248c0-20.3 16.5-36.8 36.8-36.8h585.4c20.3 0 36.8 16.5 36.8 36.8v89c0 20.4-16.5 36.9-36.8 36.9z" fill="#040404"/><g id="XMLID_2_"><g id="XMLID_81_"><g id="XMLID_31_"><path id="XMLID_44_" class="st1" d="M278.3 238.1H236c-16 0-28.9 13-28.9 28.9v42.4c0 16 13 28.9 28.9 28.9h42.4c16 0 28.9-13 28.9-28.9V267c0-15.9-13-28.9-29-28.9zm19.7 72.1c0 10.6-8.6 19.2-19.2 19.2h-43.4c-10.6 0-19.2-8.6-19.2-19.2v-43.4c0-10.6 8.6-19.2 19.2-19.2h43.4c10.6 0 19.2 8.6 19.2 19.2v43.4z"/><path id="XMLID_33_" class="st1" d="M257.2 262.5c-14.4 0-26 11.6-26 26s11.6 26 26 26 26-11.6 26-26-11.7-26-26-26zm0 42.9c-9.3 0-16.9-7.5-16.9-16.9 0-9.3 7.5-16.9 16.9-16.9 9.3 0 16.9 7.5 16.9 16.9-.1 9.3-7.6 16.9-16.9 16.9z"/><circle id="XMLID_32_" class="st1" cx="284" cy="261.5" r="6.1"/></g></g><g id="XMLID_29_"><path id="XMLID_56_" class="st1" d="M364 236.1c1.3-.3 2.6-.1 3.9.2 1.9.5 3.9 1 5.4 2.2.8.6 1.5 1.5 1.4 2.6v54.5c0 6 .3 12-.8 17.9-.8 4.8-2.7 9.6-6.1 13.1-1.1 1.3-2.4 2.4-3.9 3.2-1.3.7-2.7 1.3-4.1 1.2-.3-.4-.6-.8-.6-1.3.1-1.4.6-2.8 1.1-4.1 1.4-4.5 1.8-9.3 1.9-14l.3-66.4c0-.6 0-1.1-.1-1.7-.8 0-1.4.7-2 1.3-2.7 2.6-4.9 5.7-6.4 9.1-2.1 4.3-3.1 9-3.5 13.8-.4 3.1-.1 6.2.6 9.2.6 2.3 1.6 4.6 3.1 6.5.6.8.9 1.9.3 2.8-.8.8-2.1.4-3 .1-3.2-1.1-5.9-3.3-8-6-2.5-3.2-3.6-7.3-3.7-11.3.2-3.5 1.2-7 2.5-10.3 1.9-4.9 4.6-9.4 8.2-13.3 2.3-2.4 4.8-4.6 7.6-6.4 1.9-1.2 3.8-2.3 5.9-2.9zm120.1.9c1-.9 2.5-.8 3.8-.6 2.3.4 4.5.9 6.6 1.9.7.3 1.2.7 1.7 1.2-.2 5-.4 9.9-.7 14.9 5 .2 10 .5 15 .8.9 0 2 .3 2.2 1.3.2 1.5 0 3.2-.7 4.5-.4.7-1 1.6-2 1.5l-14.5.3c-.3 7-.5 13.9-.7 20.9-.1 6.3-.7 12.7 0 19.1.3 2.5.6 5 1.8 7.2.5 1 1.4 1.8 2.5 1.9 1.4.1 2.9-.5 3.9-1.4 1.7-1.5 2.9-3.4 3.9-5.4 1.2-2.3 2-4.7 2.8-7.2.3-1.1.1-2.2.2-3.3.1-5.8 1-11.7 3-17.1 1.5-4 3.6-7.9 7-10.6 3.7-3.1 9-4.1 13.5-2.2 2.9 1.1 5.2 3.4 6.6 6.1.2-1.3-.1-2.7.5-3.9.8-1.3 2.5-1.4 3.9-1.2 1.8.2 3.7.7 5.3 1.6 1 .6 2 1.5 2 2.7-.3 10.6-.8 21.3-.4 31.9.1 2.3.4 4.6.9 6.9.4 1.6.9 3.4 2.3 4.5 1.3 1 3.1.7 4.3-.3 1.9-1.5 3.1-3.8 4-6 .3-.6.6-1.3.5-2-.7-6.4-.9-12.9.2-19.2.7-4.3 2-8.5 4.2-12.2 2.2-3.8 5.5-7.2 9.5-9.1.8-.3 1.6-.7 2.4-.8 4 0 8.1 1.3 10.9 4.2.7.8 1.3 1.7 1.9 2.6.3-1.2 0-2.5.4-3.6.6-1.3 2.4-1.4 3.7-1.2 2.2.4 4.4.8 6.3 1.9 1.2.7 1.2 2.2 1.1 3.4-.1 12-.3 23.9-.4 35.9 2.7-3.8 5.2-7.8 7.3-12 2.6-5.1 4.8-10.4 5.9-16.1-1.5-1.3-2.9-3-3.3-5-.4-1.6 0-3.3.4-4.9.7-2.4 2.5-4.6 4.9-5.3 1.9-.5 4-.6 5.8.4 1.3.7 2.1 2.2 2.3 3.6.2 1.5 0 3-.3 4.4 3.2-.5 6.4-1 9.6-1.8 2.2-.5 4.5-.9 6.6-.2 1.5.5 2.7 1.9 3 3.4.4 1.6.5 3.4-.1 5-.8 2.1-1 4.4-1.5 6.6-1 5.9-2.3 11.9-1.4 17.8.4 2.7.9 5.3 2 7.8.6 1.3 1.5 2.8 3 3.2 1.5.4 3-.4 4.1-1.3 1.9-1.7 3.1-4 3.7-6.5-1.3-6.3-1.6-12.8-.6-19.1.7-4.7 2.1-9.4 4.4-13.7 1.8-3.2 4.3-6.1 7.7-7.8 3.7-1.8 8.3-1.8 12 .2 2.3 1.2 4 3.1 5.3 5.3.2-1.3-.1-2.7.6-3.9 1-1.3 2.9-1.2 4.4-1 2.2.4 4.5.9 6 2.6 1 1.1.5 2.6.5 3.9-.2 7-.5 14-.4 20.9 0 5.3-.2 10.8 1.3 16 .4 1.3.9 2.7 2.1 3.6 1.3.9 3.1.7 4.4-.2 1.7-1.3 2.8-3.1 3.8-5 .8-1.7 1.7-3.3 2.1-5.1 0-11.7.1-23.5.1-35.2-.1-1 .3-2.2 1.3-2.6.7-.4 1.6-.1 2.3 0 2.1.4 4.3.4 6.2 1.4.7.4 1.5 1 1.4 1.9v17.4c0 .7 0 1.3.1 2 1.7-5.3 3.5-10.6 5.6-15.7.8-1.9 1.6-3.8 2.7-5.6.8-1.4 2.6-1.7 4.1-1.6 3.2.2 6.5 1.6 8.2 4.4.6 1 .9 2.2.9 3.4-.1 6 .3 12.1.7 18.1.1 1.9.2 3.8.5 5.6.2-.1.3-.3.4-.6.6-4.5 1.7-8.8 3-13.1 1.4-4.8 3-9.5 5-14.1.5-1.1 1-2.4 2.2-3.1 1.7-.9 3.7-.6 5.5-.1 2 .7 4.1 1.4 5.7 2.8 1.2 1 2.1 2.4 2.2 4-.5 9.3-.9 18.7-.2 28.1.2 2.6.5 5.2 1.2 7.7.4 1.4.9 2.8 1.8 4 .8 1.1 2.4 1.7 3.8 1.2 1.2-.5 2-1.6 2.6-2.6 1.4-2.6 1.8-5.6 2.6-8.4.2-.8.6-1.8 1.5-2.1.6-.4 1.3.1 1.8.5.7.6.5 1.6.5 2.4-.2 4.5-.9 9.2-3.5 13-2.1 3.1-5.9 5.1-9.7 4.7-3.5-.2-6.7-2.2-8.6-5.1-2.4-3.6-3.3-7.9-4-12.1-1.1-8.4-.8-16.9-.6-25.3-.3.2-.6.6-.7.9-2.4 4.7-4 9.8-5.2 14.9-1.6 6.6-2.7 13.4-2.9 20.2 0 .9-.7 1.5-1.5 1.7-1.9.8-4.1.9-5.9 0-1.9-.9-3.3-2.6-4.1-4.5-.9-1.9-1.3-4-1.6-6.1-1.1-8.7-1.5-17.4-1.9-26.1.1-.6-.7-.2-1-.2-4.3 7.4-6.4 15.8-7.5 24.2-.7 4.9-.9 9.8-1 14.8 0 .9-.5 1.8-1.3 2.2-1.5.8-3.2.8-4.8.7-1.9-.2-4-.4-5.6-1.5-.7-.5-1.2-1.2-1.2-2.1-.1-1.6-.1-3.2-.3-4.8-.9 1.3-1.6 2.7-2.7 3.9-1.7 2-3.9 3.7-6.4 4.3-3.6.8-7.7-.4-10.2-3.1-2.1-2.2-3.2-5.2-3.7-8.1-1.8 4-4.8 7.5-8.7 9.6-1.9 1-4 1.6-6.2 1.8-2.4.3-4.8 0-7-1.1-3.1-1.6-5.5-4.5-6.9-7.6-1.7 3.7-4.5 7.3-8.6 8.4-4.1 1.1-8.4-.5-11.3-3.4-3.7-3.6-5.6-8.7-6.2-13.8-.3-2.5-.2-4.9 0-7.4.4-5.5 1-11 2.4-16.4v-.9c-3-.1-5.9 0-8.9 0-1.5 5-3.6 9.8-6.1 14.4-4.2 7.9-9.4 15.3-15.1 22.1.1 6.6.3 13.1 0 19.7-.3 5.2-1.1 10.5-3.3 15.2-1.7 3.6-4.2 6.8-7.8 8.7-2.6 1.4-5.6 2.2-8.6 2.4-3.7-.3-7.5-1.2-10.4-3.6-2-1.7-3.4-4.1-4-6.6-.4-2.2-.5-4.6.2-6.8 1.3-4.1 3.9-7.6 6.8-10.8 2.9-3.2 6.2-6 9.3-9 2.5-2.3 5-4.7 7.5-7 0-1.8-.2-3.6-.3-5.5-1.2 1.5-2.2 3.1-3.7 4.4-3.6 3.5-8.8 5.3-13.9 4.7-3.5-.6-6.3-3-8.4-5.8-.8-1-1.5-2.1-2.1-3.2-1.8 3.7-4.5 7.4-8.6 8.7-4.1 1.1-8.7-.5-11.3-3.7-1.8-2.2-2.9-4.8-3.3-7.6-1.7 3.7-4.3 7-7.8 9.1-2.2 1.4-4.8 2.2-7.5 2.4-2.9.3-5.8-.3-8.2-2-4.3-3-6.4-8.1-7.6-12.9-.7 2.2-1.7 4.2-2.8 6.2-1.1 1.8-2.3 3.5-3.8 5-1.8 1.7-4 3.1-6.5 3.5-2.9.4-5.9-.5-8.1-2.4-1.8-1.5-3.1-3.5-4.1-5.7-1.8-3.9-2.5-8.2-2.9-12.5-2.3 5-4.9 9.9-8.9 13.7-3 3.1-6.8 5.4-11.1 6.5-3.3.9-6.8.8-10.2.5-2.9-.3-5.9-.9-8.5-2.3-1.2-.7-2.5-1.8-2.9-3.2-.2-1.6.7-3.1 1.6-4.3.9-1.2 1.8-2.4 3.2-2.9 1.3-.4 2.4.6 3.5 1.3 1.6 1.4 3.4 2.6 5.5 3.1 2 .5 4.5-.1 5.7-1.9 1.1-1.7 1.4-3.7 1.5-5.7 0-3.7-2.4-6.9-4.9-9.4-2.4-2.3-4.8-4.4-7.2-6.6-3.5 5.9-7.2 11.6-10.7 17.5-2.1 3.8-4.6 7.3-7.8 10.2-2.3 2.1-5.1 3.8-8.2 4.3-2.1.3-4.2-.7-5.5-2.4-1.7-2.1-2.4-4.8-2.8-7.5-.6-4.7-.4-9.5-.3-14.3.1-6 .4-12.1.6-18.1 0-1.3.2-2.6.1-3.9-.4.1-.9.1-1.1.5-5.8 6.5-9.4 14.6-12.2 22.8-2.4 7.1-4.1 14.5-5.2 21.9-.9.8-2.2 1-3.3.8-1.4-.2-2.9 0-4.3-.3-1.2-.3-2.1-1.4-2.6-2.6-1-2.4-1.1-5-1.1-7.5l.3-42.9c0-.7.2-1.6.9-1.8 1.5-.5 3-.1 4.5.2 1.7.4 3.5.9 4.7 2.1.6.6.4 1.5.4 2.3 0 7.9-.1 15.9-.1 23.8 2.6-7 5.2-14.2 9.2-20.5.9-1.3 1.8-2.7 2.9-3.8 1.9-2.2 4.6-4.2 7.6-4.3 2.3-.1 4.4 1 6.4 2 1.9.9 3.7 2.3 4.4 4.3.5 1.2.3 2.5.3 3.7-.2 6.8-.4 13.6-.6 20.5 0 2.8-.3 5.6-.1 8.3.1 1.3.2 2.7.7 3.9.3.7.7 1.5 1.5 1.6.8.1 1.4-.5 2-.9 1.3-1.1 2.3-2.5 3.3-3.9 2.9-4 5.3-8.2 7.8-12.4 1.4-2.6 2.9-5.2 4.3-7.9-.5-.8-1.2-1.4-1.6-2.2-1.6-2.6-2-5.8-1.2-8.6s2.5-5.3 4.8-7.1c1.6-1.2 3.5-1.9 5.5-2.3 1.9-.5 4-.2 5.6.8 1.1.7 1.7 2 1.8 3.3.1 2.5-.8 4.8-2 7-1.1 2.1-2.6 4-4.1 5.8 4.9 3.6 10 7 14.2 11.3 2.2 2.3 4 5.2 4.4 8.5.3 1.7 0 3.4-.2 5 4.6-4 8.2-9.5 9.1-15.6.1-9.3.1-18.6.2-28-4.3-.1-8.5-.1-12.8-.2-.8-.5-1-1.6-1.1-2.5 0-2.1.6-4.4 2.1-6 .2-.3.7-.2 1-.3 3.8 0 7.6.1 11.4.2.2-4.3.3-8.6.4-12.9-.6-1.2-.7-2.6.2-3.6zm46.4 36c-2.5.5-4.4 2.5-5.5 4.7-1.6 2.9-2.3 6.2-2.8 9.4-.6 4.2-.8 8.5-.5 12.8.2 3.3.7 6.7 2.2 9.6.8 1.6 2.1 3.1 3.9 3.7 1.2.5 2.5.4 3.6-.2 2.3-1.2 3.8-3.3 4.9-5.5 2-4.1 2.9-8.6 3.3-13.1.4-4.7.5-9.4-.6-14-.6-2.2-1.5-4.4-3.2-5.9-1.3-1.3-3.4-2-5.3-1.5zm53.1.1c-3 .8-5.1 3.4-6.4 6.1-2 4.2-2.7 8.7-3.1 13.3-.2 5.1-.3 10.3 1.3 15.3.8 2.3 2.1 4.7 4.5 5.8 1.5.7 3.2.5 4.6-.3 1.2-.7 2.2-1.7 3-2.9 1.9-2.5 3-5.5 3.7-8.6 1.1-4.5 1.5-9.2 1.4-13.8 0-3.2-.3-6.4-1.3-9.4-.6-1.8-1.6-3.7-3.3-4.8-1.3-.9-3-1.1-4.4-.7zm92 .4c-2.6.4-4.6 2.4-5.8 4.7-2.1 4-2.8 8.6-3.2 13.1-.3 5-.5 10.2.7 15.1.6 2.4 1.6 4.9 3.6 6.5 1.3 1 3.1 1.6 4.7 1 2.1-.7 3.5-2.5 4.7-4.3 2.7-4.4 3.7-9.6 4.2-14.7.4-4.6.5-9.4-.7-13.9-.6-2.2-1.5-4.5-3.3-6-1.3-1.2-3.1-1.8-4.9-1.5zm-85.7 55.9c-4.6 4.6-8.9 9.7-11.5 15.7-.9 2.1-1.4 4.6-.8 6.9.4 1.8 1.9 3.3 3.7 3.8 2.2.6 4.8.6 6.8-.7 1.8-1.2 3-3.1 3.7-5.2 1.4-3.9 1.6-8 1.8-12.1.1-4 .2-8 .2-12-1.4 1-2.6 2.4-3.9 3.6z"/></g></g></svg>