<?xml version="1.0" encoding="utf-8"?>
<!-- Generator: Adobe Illustrator 19.0.0, SVG Export Plug-In . SVG Version: 6.00 Build 0)  -->
<svg version="1.1" id="Layer_1" xmlns="http://www.w3.org/2000/svg" xmlns:xlink="http://www.w3.org/1999/xlink" x="0px" y="0px"
	 viewBox="0 0 960 560" style="enable-background:new 0 0 960 560;" xml:space="preserve">
<style type="text/css">
	.st0{fill:#040404;}
	.st1{fill:#FFFFFF;}
</style>
<path id="XMLID_1_" class="st0" d="M785.3,373.9H199.9c-20.3,0-36.8-16.5-36.8-36.8V248c0-20.3,16.5-36.8,36.8-36.8h585.4
	c20.3,0,36.8,16.5,36.8,36.8V337C822.1,357.4,805.6,373.9,785.3,373.9z"/>
<g id="XMLID_2_">
	<g id="XMLID_81_">
		<g id="XMLID_31_">
			<path id="XMLID_44_" class="st1" d="M278.3,238.1H236c-16,0-28.9,13-28.9,28.9v42.4c0,16,13,28.9,28.9,28.9h42.4
				c16,0,28.9-13,28.9-28.9v-42.4C307.3,251.1,294.3,238.1,278.3,238.1z M298,310.2c0,10.6-8.6,19.2-19.2,19.2h-43.4
				c-10.6,0-19.2-8.6-19.2-19.2v-43.4c0-10.6,8.6-19.2,19.2-19.2h43.4c10.6,0,19.2,8.6,19.2,19.2V310.2z"/>
			<path id="XMLID_33_" class="st1" d="M257.2,262.5c-14.4,0-26,11.6-26,26s11.6,26,26,26c14.4,0,26-11.6,26-26
				S271.5,262.5,257.2,262.5z M257.2,305.4c-9.3,0-16.9-7.5-16.9-16.9c0-9.3,7.5-16.9,16.9-16.9c9.3,0,16.9,7.5,16.9,16.9
				C274,297.8,266.5,305.4,257.2,305.4z"/>
			<circle id="XMLID_32_" class="st1" cx="284" cy="261.5" r="6.1"/>
		</g>
	</g>
	<g id="XMLID_29_">
		<path id="XMLID_56_" class="st1" d="M364,236.1c1.3-0.3,2.6-0.1,3.9,0.2c1.9,0.5,3.9,1,5.4,2.2c0.8,0.6,1.5,1.5,1.4,2.6
			c0,18.2,0,36.3,0,54.5c0,6,0.3,12-0.8,17.9c-0.8,4.8-2.7,9.6-6.1,13.1c-1.1,1.3-2.4,2.4-3.9,3.2c-1.3,0.7-2.7,1.3-4.1,1.2
			c-0.3-0.4-0.6-0.8-0.6-1.3c0.1-1.4,0.6-2.8,1.1-4.1c1.4-4.5,1.8-9.3,1.9-14c0.1-22.1,0.2-44.3,0.3-66.4c0-0.6,0-1.1-0.1-1.7
			c-0.8,0-1.4,0.7-2,1.3c-2.7,2.6-4.9,5.7-6.4,9.1c-2.1,4.3-3.1,9-3.5,13.8c-0.4,3.1-0.1,6.2,0.6,9.2c0.6,2.3,1.6,4.6,3.1,6.5
			c0.6,0.8,0.9,1.9,0.3,2.8c-0.8,0.8-2.1,0.4-3,0.1c-3.2-1.1-5.9-3.3-8-6c-2.5-3.2-3.6-7.3-3.7-11.3c0.2-3.5,1.2-7,2.5-10.3
			c1.9-4.9,4.6-9.4,8.2-13.3c2.3-2.4,4.8-4.6,7.6-6.4C360,237.8,361.9,236.7,364,236.1L364,236.1z M484.1,237c1-0.9,2.5-0.8,3.8-0.6
			c2.3,0.4,4.5,0.9,6.6,1.9c0.7,0.3,1.2,0.7,1.7,1.2c-0.2,5-0.4,9.9-0.7,14.9c5,0.2,10,0.5,15,0.8c0.9,0,2,0.3,2.2,1.3
			c0.2,1.5,0,3.2-0.7,4.5c-0.4,0.7-1,1.6-2,1.5c-4.8,0.1-9.7,0.2-14.5,0.3c-0.3,7-0.5,13.9-0.7,20.9c-0.1,6.3-0.7,12.7,0,19.1
			c0.3,2.5,0.6,5,1.8,7.2c0.5,1,1.4,1.8,2.5,1.9c1.4,0.1,2.9-0.5,3.9-1.4c1.7-1.5,2.9-3.4,3.9-5.4c1.2-2.3,2-4.7,2.8-7.2
			c0.3-1.1,0.1-2.2,0.2-3.3c0.1-5.8,1-11.7,3-17.1c1.5-4,3.6-7.9,7-10.6c3.7-3.1,9-4.1,13.5-2.2c2.9,1.1,5.2,3.4,6.6,6.1
			c0.2-1.3-0.1-2.7,0.5-3.9c0.8-1.3,2.5-1.4,3.9-1.2c1.8,0.2,3.7,0.7,5.3,1.6c1,0.6,2,1.5,2,2.7c-0.3,10.6-0.8,21.3-0.4,31.9
			c0.1,2.3,0.4,4.6,0.9,6.9c0.4,1.6,0.9,3.4,2.3,4.5c1.3,1,3.1,0.7,4.3-0.3c1.9-1.5,3.1-3.8,4-6c0.3-0.6,0.6-1.3,0.5-2
			c-0.7-6.4-0.9-12.9,0.2-19.2c0.7-4.3,2-8.5,4.2-12.2c2.2-3.8,5.5-7.2,9.5-9.1c0.8-0.3,1.6-0.7,2.4-0.8c4,0,8.1,1.3,10.9,4.2
			c0.7,0.8,1.3,1.7,1.9,2.6c0.3-1.2,0-2.5,0.4-3.6c0.6-1.3,2.4-1.4,3.7-1.2c2.2,0.4,4.4,0.8,6.3,1.9c1.2,0.7,1.2,2.2,1.1,3.4
			c-0.1,12-0.3,23.9-0.4,35.9c2.7-3.8,5.2-7.8,7.3-12c2.6-5.1,4.8-10.4,5.9-16.1c-1.5-1.3-2.9-3-3.3-5c-0.4-1.6,0-3.3,0.4-4.9
			c0.7-2.4,2.5-4.6,4.9-5.3c1.9-0.5,4-0.6,5.8,0.4c1.3,0.7,2.1,2.2,2.3,3.6c0.2,1.5,0,3-0.3,4.4c3.2-0.5,6.4-1,9.6-1.8
			c2.2-0.5,4.5-0.9,6.6-0.2c1.5,0.5,2.7,1.9,3,3.4c0.4,1.6,0.5,3.4-0.1,5c-0.8,2.1-1,4.4-1.5,6.6c-1,5.9-2.3,11.9-1.4,17.8
			c0.4,2.7,0.9,5.3,2,7.8c0.6,1.3,1.5,2.8,3,3.2c1.5,0.4,3-0.4,4.1-1.3c1.9-1.7,3.1-4,3.7-6.5c-1.3-6.3-1.6-12.8-0.6-19.1
			c0.7-4.7,2.1-9.4,4.4-13.7c1.8-3.2,4.3-6.1,7.7-7.8c3.7-1.8,8.3-1.8,12,0.2c2.3,1.2,4,3.1,5.3,5.3c0.2-1.3-0.1-2.7,0.6-3.9
			c1-1.3,2.9-1.2,4.4-1c2.2,0.4,4.5,0.9,6,2.6c1,1.1,0.5,2.6,0.5,3.9c-0.2,7-0.5,14-0.4,20.9c0,5.3-0.2,10.8,1.3,16
			c0.4,1.3,0.9,2.7,2.1,3.6c1.3,0.9,3.1,0.7,4.4-0.2c1.7-1.3,2.8-3.1,3.8-5c0.8-1.7,1.7-3.3,2.1-5.1c0-11.7,0.1-23.5,0.1-35.2
			c-0.1-1,0.3-2.2,1.3-2.6c0.7-0.4,1.6-0.1,2.3,0c2.1,0.4,4.3,0.4,6.2,1.4c0.7,0.4,1.5,1,1.4,1.9c0,5.8,0,11.6,0,17.4
			c0,0.7,0,1.3,0.1,2c1.7-5.3,3.5-10.6,5.6-15.7c0.8-1.9,1.6-3.8,2.7-5.6c0.8-1.4,2.6-1.7,4.1-1.6c3.2,0.2,6.5,1.6,8.2,4.4
			c0.6,1,0.9,2.2,0.9,3.4c-0.1,6,0.3,12.1,0.7,18.1c0.1,1.9,0.2,3.8,0.5,5.6c0.2-0.1,0.3-0.3,0.4-0.6c0.6-4.5,1.7-8.8,3-13.1
			c1.4-4.8,3-9.5,5-14.1c0.5-1.1,1-2.4,2.2-3.1c1.7-0.9,3.7-0.6,5.5-0.1c2,0.7,4.1,1.4,5.7,2.8c1.2,1,2.1,2.4,2.2,4
			c-0.5,9.3-0.9,18.7-0.2,28.1c0.2,2.6,0.5,5.2,1.2,7.7c0.4,1.4,0.9,2.8,1.8,4c0.8,1.1,2.4,1.7,3.8,1.2c1.2-0.5,2-1.6,2.6-2.6
			c1.4-2.6,1.8-5.6,2.6-8.4c0.2-0.8,0.6-1.8,1.5-2.1c0.6-0.4,1.3,0.1,1.8,0.5c0.7,0.6,0.5,1.6,0.5,2.4c-0.2,4.5-0.9,9.2-3.5,13
			c-2.1,3.1-5.9,5.1-9.7,4.7c-3.5-0.2-6.7-2.2-8.6-5.1c-2.4-3.6-3.3-7.9-4-12.1c-1.1-8.4-0.8-16.9-0.6-25.3
			c-0.3,0.2-0.6,0.6-0.7,0.9c-2.4,4.7-4,9.8-5.2,14.9c-1.6,6.6-2.7,13.4-2.9,20.2c0,0.9-0.7,1.5-1.5,1.7c-1.9,0.8-4.1,0.9-5.9,0
			c-1.9-0.9-3.3-2.6-4.1-4.5c-0.9-1.9-1.3-4-1.6-6.1c-1.1-8.7-1.5-17.4-1.9-26.1c0.1-0.6-0.7-0.2-1-0.2c-4.3,7.4-6.4,15.8-7.5,24.2
			c-0.7,4.9-0.9,9.8-1,14.8c0,0.9-0.5,1.8-1.3,2.2c-1.5,0.8-3.2,0.8-4.8,0.7c-1.9-0.2-4-0.4-5.6-1.5c-0.7-0.5-1.2-1.2-1.2-2.1
			c-0.1-1.6-0.1-3.2-0.3-4.8c-0.9,1.3-1.6,2.7-2.7,3.9c-1.7,2-3.9,3.7-6.4,4.3c-3.6,0.8-7.7-0.4-10.2-3.1c-2.1-2.2-3.2-5.2-3.7-8.1
			c-1.8,4-4.8,7.5-8.7,9.6c-1.9,1-4,1.6-6.2,1.8c-2.4,0.3-4.8,0-7-1.1c-3.1-1.6-5.5-4.5-6.9-7.6c-1.7,3.7-4.5,7.3-8.6,8.4
			c-4.1,1.1-8.4-0.5-11.3-3.4c-3.7-3.6-5.6-8.7-6.2-13.8c-0.3-2.5-0.2-4.9,0-7.4c0.4-5.5,1-11,2.4-16.4c0-0.3,0-0.6,0-0.9
			c-3-0.1-5.9,0-8.9,0c-1.5,5-3.6,9.8-6.1,14.4c-4.2,7.9-9.4,15.3-15.1,22.1c0.1,6.6,0.3,13.1,0,19.7c-0.3,5.2-1.1,10.5-3.3,15.2
			c-1.7,3.6-4.2,6.8-7.8,8.7c-2.6,1.4-5.6,2.2-8.6,2.4c-3.7-0.3-7.5-1.2-10.4-3.6c-2-1.7-3.4-4.1-4-6.6c-0.4-2.2-0.5-4.6,0.2-6.8
			c1.3-4.1,3.9-7.6,6.8-10.8c2.9-3.2,6.2-6,9.3-9c2.5-2.3,5-4.7,7.5-7c0-1.8-0.2-3.6-0.3-5.5c-1.2,1.5-2.2,3.1-3.7,4.4
			c-3.6,3.5-8.8,5.3-13.9,4.7c-3.5-0.6-6.3-3-8.4-5.8c-0.8-1-1.5-2.1-2.1-3.2c-1.8,3.7-4.5,7.4-8.6,8.7c-4.1,1.1-8.7-0.5-11.3-3.7
			c-1.8-2.2-2.9-4.8-3.3-7.6c-1.7,3.7-4.3,7-7.8,9.1c-2.2,1.4-4.8,2.2-7.5,2.4c-2.9,0.3-5.8-0.3-8.2-2c-4.3-3-6.4-8.1-7.6-12.9
			c-0.7,2.2-1.7,4.2-2.8,6.2c-1.1,1.8-2.3,3.5-3.8,5c-1.8,1.7-4,3.1-6.5,3.5c-2.9,0.4-5.9-0.5-8.1-2.4c-1.8-1.5-3.1-3.5-4.1-5.7
			c-1.8-3.9-2.5-8.2-2.9-12.5c-2.3,5-4.9,9.9-8.9,13.7c-3,3.1-6.8,5.4-11.1,6.5c-3.3,0.9-6.8,0.8-10.2,0.5c-2.9-0.3-5.9-0.9-8.5-2.3
			c-1.2-0.7-2.5-1.8-2.9-3.2c-0.2-1.6,0.7-3.1,1.6-4.3c0.9-1.2,1.8-2.4,3.2-2.9c1.3-0.4,2.4,0.6,3.5,1.3c1.6,1.4,3.4,2.6,5.5,3.1
			c2,0.5,4.5-0.1,5.7-1.9c1.1-1.7,1.4-3.7,1.5-5.7c0-3.7-2.4-6.9-4.9-9.4c-2.4-2.3-4.8-4.4-7.2-6.6c-3.5,5.9-7.2,11.6-10.7,17.5
			c-2.1,3.8-4.6,7.3-7.8,10.2c-2.3,2.1-5.1,3.8-8.2,4.3c-2.1,0.3-4.2-0.7-5.5-2.4c-1.7-2.1-2.4-4.8-2.8-7.5
			c-0.6-4.7-0.4-9.5-0.3-14.3c0.1-6,0.4-12.1,0.6-18.1c0-1.3,0.2-2.6,0.1-3.9c-0.4,0.1-0.9,0.1-1.1,0.5c-5.8,6.5-9.4,14.6-12.2,22.8
			c-2.4,7.1-4.1,14.5-5.2,21.9c-0.9,0.8-2.2,1-3.3,0.8c-1.4-0.2-2.9,0-4.3-0.3c-1.2-0.3-2.1-1.4-2.6-2.6c-1-2.4-1.1-5-1.1-7.5
			c0.1-14.3,0.2-28.6,0.3-42.9c0-0.7,0.2-1.6,0.9-1.8c1.5-0.5,3-0.1,4.5,0.2c1.7,0.4,3.5,0.9,4.7,2.1c0.6,0.6,0.4,1.5,0.4,2.3
			c0,7.9-0.1,15.9-0.1,23.8c2.6-7,5.2-14.2,9.2-20.5c0.9-1.3,1.8-2.7,2.9-3.8c1.9-2.2,4.6-4.2,7.6-4.3c2.3-0.1,4.4,1,6.4,2
			c1.9,0.9,3.7,2.3,4.4,4.3c0.5,1.2,0.3,2.5,0.3,3.7c-0.2,6.8-0.4,13.6-0.6,20.5c0,2.8-0.3,5.6-0.1,8.3c0.1,1.3,0.2,2.7,0.7,3.9
			c0.3,0.7,0.7,1.5,1.5,1.6c0.8,0.1,1.4-0.5,2-0.9c1.3-1.1,2.3-2.5,3.3-3.9c2.9-4,5.3-8.2,7.8-12.4c1.4-2.6,2.9-5.2,4.3-7.9
			c-0.5-0.8-1.2-1.4-1.6-2.2c-1.6-2.6-2-5.8-1.2-8.6c0.8-2.8,2.5-5.3,4.8-7.1c1.6-1.2,3.5-1.9,5.5-2.3c1.9-0.5,4-0.2,5.6,0.8
			c1.1,0.7,1.7,2,1.8,3.3c0.1,2.5-0.8,4.8-2,7c-1.1,2.1-2.6,4-4.1,5.8c4.9,3.6,10,7,14.2,11.3c2.2,2.3,4,5.2,4.4,8.5
			c0.3,1.7,0,3.4-0.2,5c4.6-4,8.2-9.5,9.1-15.6c0.1-9.3,0.1-18.6,0.2-28c-4.3-0.1-8.5-0.1-12.8-0.2c-0.8-0.5-1-1.6-1.1-2.5
			c0-2.1,0.6-4.4,2.1-6c0.2-0.3,0.7-0.2,1-0.3c3.8,0,7.6,0.1,11.4,0.2c0.2-4.3,0.3-8.6,0.4-12.9C483.3,239.4,483.2,238,484.1,237
			L484.1,237z M530.5,273c-2.5,0.5-4.4,2.5-5.5,4.7c-1.6,2.9-2.3,6.2-2.8,9.4c-0.6,4.2-0.8,8.5-0.5,12.8c0.2,3.3,0.7,6.7,2.2,9.6
			c0.8,1.6,2.1,3.1,3.9,3.7c1.2,0.5,2.5,0.4,3.6-0.2c2.3-1.2,3.8-3.3,4.9-5.5c2-4.1,2.9-8.6,3.3-13.1c0.4-4.7,0.5-9.4-0.6-14
			c-0.6-2.2-1.5-4.4-3.2-5.9C534.5,273.2,532.4,272.5,530.5,273L530.5,273z M583.6,273.1c-3,0.8-5.1,3.4-6.4,6.1
			c-2,4.2-2.7,8.7-3.1,13.3c-0.2,5.1-0.3,10.3,1.3,15.3c0.8,2.3,2.1,4.7,4.5,5.8c1.5,0.7,3.2,0.5,4.6-0.3c1.2-0.7,2.2-1.7,3-2.9
			c1.9-2.5,3-5.5,3.7-8.6c1.1-4.5,1.5-9.2,1.4-13.8c0-3.2-0.3-6.4-1.3-9.4c-0.6-1.8-1.6-3.7-3.3-4.8
			C586.7,272.9,585,272.7,583.6,273.1L583.6,273.1z M675.6,273.5c-2.6,0.4-4.6,2.4-5.8,4.7c-2.1,4-2.8,8.6-3.2,13.1
			c-0.3,5-0.5,10.2,0.7,15.1c0.6,2.4,1.6,4.9,3.6,6.5c1.3,1,3.1,1.6,4.7,1c2.1-0.7,3.5-2.5,4.7-4.3c2.7-4.4,3.7-9.6,4.2-14.7
			c0.4-4.6,0.5-9.4-0.7-13.9c-0.6-2.2-1.5-4.5-3.3-6C679.2,273.8,677.4,273.2,675.6,273.5L675.6,273.5z M589.9,329.4
			c-4.6,4.6-8.9,9.7-11.5,15.7c-0.9,2.1-1.4,4.6-0.8,6.9c0.4,1.8,1.9,3.3,3.7,3.8c2.2,0.6,4.8,0.6,6.8-0.7c1.8-1.2,3-3.1,3.7-5.2
			c1.4-3.9,1.6-8,1.8-12.1c0.1-4,0.2-8,0.2-12C592.4,326.8,591.2,328.2,589.9,329.4L589.9,329.4z"/>
	</g>
</g>
</svg>
