<svg version="1.1" id="Layer_1" xmlns="http://www.w3.org/2000/svg" x="0" y="0" viewBox="28 150 901 223" xml:space="preserve"><style>.st1{fill:#1f254e}.st9{fill:#1a2142}</style><path class="st1" d="M717.7 714.7c-.2 0-.5 0-.7-.1-.5-.2-.8-.5-.9-.9-.1-.2-.1-.5-.1-.7s0-.5.1-.7V698c0-1.1.5-2.1 1.2-2.9.8-.8 1.8-1.2 2.9-1.2h4.7c1.1 0 2 .5 2.8 1.2.8.8 1.2 1.8 1.2 2.9h.1v4.7c0 1.1-.5 2.1-1.2 2.9-.8.8-1.8 1.2-2.9 1.2h-4.7v-1.1h4.7c.8 0 1.5-.3 2-.9.6-.6.9-1.2.9-2v-4.7h-.1c0-.8-.3-1.5-.9-2-.6-.6-1.2-.9-2-.9h-4.6c-.8 0-1.5.3-2 .9-.6.6-.9 1.2-.9 2v14.4c0 .1 0 .2-.1.3v.4c.1.1.1.2.3.3h.4l.3-.3c.1-.2.1-.3.1-.6s.1-.3.1-.6v-14.1c0-.5.2-.9.6-1.2.3-.3.8-.6 1.2-.6h4.7c.5 0 .9.2 1.2.6.3.4.6.8.6 1.2h.1v4.7c0 .5-.2.9-.6 1.2-.3.3-.8.6-1.2.6h-4.7v-1.1h4.7c.1 0 .3-.1.5-.2.1-.1.2-.2.2-.5v-4.7h-.1c0-.1-.1-.3-.2-.5-.1-.1-.2-.2-.5-.2h-4.6c-.1 0-.3.1-.5.2-.1.1-.2.2-.2.5V712c0 .2 0 .6-.1.8 0 .2-.1.6-.2.8-.2.5-.5.8-.9.9-.2 0-.5.2-.7.2zm4.9 1.4c-.5 0-.9-.2-1.2-.6-.3-.3-.6-.8-.6-1.2s.2-.9.6-1.2c.3-.3.8-.6 1.2-.6h2.4c.1 0 .3-.1.5-.2.1-.1.2-.2.2-.5v-4.7h1.1v4.7c0 .5-.2.9-.6 1.2-.3.3-.8.6-1.2.6h-2.4c-.1 0-.3.1-.5.2-.1.1-.2.2-.2.5 0 .1.1.3.2.5.1.1.2.2.5.2h2.4c.8 0 1.5-.3 2-.9.6-.6.9-1.2.9-2v-4.7-.3c.3-.2.7-.6 1-.9.1.2.1.3.1.6v5.3c0 1.1-.5 2.1-1.2 2.9-.8.8-1.8 1.2-2.9 1.2l-2.3-.1zM738.7 716.1c-.5 0-.9-.2-1.2-.6-.3-.3-.6-.8-.6-1.2v-7.1c0-.1-.1-.3-.2-.5-.1-.1-.2-.2-.5-.2-1.1 0-2.1-.5-2.9-1.2-.8-.8-1.2-1.8-1.2-2.9v-7.1c0-.5.2-.9.6-1.2.3-.3.8-.6 1.2-.6s.9.2 1.2.6c.3.3.6.8.6 1.2v7.1c0 .1.1.3.2.5.1.1.2.2.5.2 1.1 0 2.1.5 2.9 1.2.8.8 1.2 1.8 1.2 2.9v7.1c0 .5-.2.9-.6 1.2-.3.4-.7.6-1.2.6zm0-1.2c.1 0 .3-.1.5-.2.1-.1.2-.2.2-.5v-7.1c0-.8-.3-1.5-.9-2-.6-.6-1.2-.9-2-.9-.5 0-.9-.2-1.2-.6-.3-.3-.6-.8-.6-1.2v-7.1c0-.1-.1-.3-.2-.5-.1-.1-.2-.2-.5-.2-.1 0-.3.1-.5.2-.1.1-.2.2-.2.5v7.1c0 .8.3 1.5.9 2 .6.6 1.2.9 2 .9.5 0 .9.2 1.2.6.3.3.6.8.6 1.2v7.1c0 .1.1.3.2.5.2.2.4.2.5.2zm2.4-9.4c.8 0 1.5-.3 2-.9.6-.6.9-1.2.9-2v-7.1c0-.1-.1-.3-.2-.5-.1-.1-.2-.2-.5-.2-.1 0-.3.1-.5.2-.1.1-.2.2-.2.5v7.1c0 .5-.2.9-.6 1.2-.3.3-.8.6-1.2.6h-.3c-.2-.3-.6-.7-.9-1 .2-.1.3-.1.6-.1h.6c.1 0 .3-.1.5-.2.1-.1.2-.2.2-.5v-7.1c0-.5.2-.9.6-1.2s.8-.6 1.2-.6c.5 0 .9.2 1.2.6.3.3.6.8.6 1.2v7.1c0 1.1-.5 2.1-1.2 2.9-.8.8-1.8 1.2-2.9 1.2v-1.2h.1zM755.2 716.1c-.5 0-.9-.2-1.2-.6-.3-.3-.6-.8-.6-1.2v-16.5c0-1.1.5-2.1 1.2-2.9.8-.8 1.8-1.2 2.9-1.2h4.7c1.1 0 2.1.5 2.9 1.2.8.8 1.2 1.8 1.2 2.9v11.7c0 .5-.2.9-.6 1.2s-.8.6-1.2.6c-.5 0-.9-.2-1.2-.6-.3-.3-.6-.8-.6-1.2v-11.7c0-.1-.1-.3-.2-.5-.1-.1-.2-.2-.5-.2h-4.7c-.1 0-.3.1-.5.2-.1.1-.2.2-.2.5v16.5c0 .5-.2.9-.6 1.2-.1.4-.4.6-.8.6zm0-1.2c.1 0 .3-.1.5-.2.1-.1.2-.2.2-.5v-16.5c0-.5.2-.9.6-1.2.3-.3.8-.6 1.2-.6h4.7c.5 0 .9.2 1.2.6.3.3.6.8.6 1.2v11.7c0 .1.1.3.2.5.1.1.2.2.5.2.1 0 .3-.1.5-.2.1-.1.2-.2.2-.5v-11.7c0-.8-.3-1.5-.9-2-.6-.6-1.2-.9-2-.9H758c-.8 0-1.5.3-2 .9-.6.6-.9 1.2-.9 2v16.5c0 .1.1.3.2.5-.5.2-.2.2-.1.2zm18.8 1.2c-.5 0-.9-.2-1.2-.6-.3-.3-.6-.8-.6-1.2v-16.5h-.1c0-.1-.1-.3-.2-.5-.1-.1-.2-.2-.5-.2h-4.6V696h4.7c.5 0 .9.2 1.2.6.3.3.6.8.6 1.2h.1v16.5c0 .1.1.3.2.5.1.1.2.2.5.2.1 0 .3-.1.5-.2.1-.1.2-.2.2-.5v-16.5h-.1c0-.8-.3-1.5-.9-2-.6-.6-1.2-.9-2-.9H766.9c-.2-.3-.6-.7-.9-1 .2 0 .3-.1.6-.1h5.3c1.1 0 2 .5 2.8 1.2.8.8 1.2 1.8 1.2 2.9h.1v16.5c0 .5-.2.9-.6 1.2-.4.4-.9.5-1.4.5zM782.4 716.1c-.5 0-.9-.2-1.2-.6-.3-.3-.6-.8-.6-1.2v-18.8c0-.5.2-.9.6-1.2.3-.3.8-.6 1.2-.6.5 0 .9.2 1.2.6.3.3.6.8.6 1.2v18.8c0 .5-.2.9-.6 1.2-.3.4-.8.6-1.2.6zm0-1.2c.1 0 .3-.1.5-.2.1-.1.2-.2.2-.5v-18.8c0-.1-.1-.3-.2-.5-.1-.1-.2-.2-.5-.2-.1 0-.3.1-.5.2-.1.1-.2.2-.2.5v18.8c0 .1.1.3.2.5s.3.2.5.2zM789.5 716.1c-.5 0-.9-.2-1.2-.6-.3-.3-.6-.8-.6-1.2s.2-.9.6-1.2.8-.6 1.2-.6h7.1c.1 0 .3-.1.5-.2.1-.1.2-.2.2-.5v-4.7h-.1c0-.1-.1-.3-.2-.5-.1-.1-.2-.2-.5-.2h-4.6c-1.1 0-2.1-.5-2.9-1.2-.8-.8-1.2-1.8-1.2-2.9v-4.7c0-1.1.5-2.1 1.2-2.9.8-.8 1.8-1.2 2.9-1.2h4.7c.2 0 .6 0 .8.1.2 0 .6.1.8.2.5.2.8.5 1 .9.1.2.1.5.1.7s0 .5-.1.7c-.2.5-.6.8-1 .9-.2.1-.5.1-.7.1s-.5 0-.7-.1h-4.9c-.1 0-.3.1-.5.2-.1.1-.2.2-.2.5v4.7c0 .1.1.3.2.5.1.1.2.2.5.2h4.7c1.1 0 2 .5 2.8 1.2.8.8 1.2 1.8 1.2 2.9h.1v4.7c0 1.1-.5 2.1-1.2 2.9-.8.8-1.8 1.2-2.9 1.2l-7.1.1zm7.1-1.2c.8 0 1.5-.3 2-.9.6-.6.9-1.2.9-2v-4.7h-.1c0-.8-.3-1.5-.9-2-.6-.6-1.2-.9-2-.9h-4.6c-.5 0-.9-.2-1.2-.6-.3-.3-.6-.8-.6-1.2v-4.7c0-.5.2-.9.6-1.2s.8-.6 1.2-.6h5c.1 0 .2 0 .3.1h.4c.1-.1.2-.1.3-.3v-.2-.2c-.1-.1-.1-.2-.3-.3s-.3-.1-.6-.1-.3-.1-.6-.1h-4.7c-.8 0-1.5.3-2 .9-.6.6-.9 1.2-.9 2v4.7c0 .8.3 1.5.9 2 .6.6 1.2.9 2 .9h4.7c.5 0 .9.2 1.2.6.3.3.6.8.6 1.2h.1v4.7c0 .5-.2.9-.6 1.2-.4.3-.8.6-1.2.6h-7.1c-.1 0-.3.1-.5.2-.1.1-.2.2-.2.5 0 .1.1.3.2.5.1.1.2.2.5.2h7l.2-.3zM802.6 697.3c-.5 0-.9-.2-1.2-.6-.3-.3-.6-.8-.6-1.2s.2-.9.6-1.2c.3-.3.8-.6 1.2-.6h3.7c-.5.3-.8.7-1.1 1.1h-2.7c-.1 0-.3.1-.5.2-.1.1-.2.2-.2.5 0 .1.1.3.2.5.1.1.2.2.5.2h2.4v1.1h-2.3zm4.7 18.8c-.5 0-.9-.2-1.2-.6-.3-.3-.6-.8-.6-1.2v-16.5c0-1.1.5-2.1 1.2-2.9.8-.8 1.8-1.2 2.9-1.2h2.4c.5 0 .9.2 1.2.6.3.3.6.8.6 1.2s-.2.9-.6 1.2c-.3.3-.8.6-1.2.6h-2.4c-.1 0-.3.1-.5.2-.1.1-.2.2-.2.5v16.5c0 .5-.2.9-.6 1.2-.1.2-.5.4-1 .4zm0-1.2c.1 0 .3-.1.5-.2.1-.1.2-.2.2-.5v-16.5c0-.5.2-.9.6-1.2.3-.3.8-.6 1.2-.6h2.4c.1 0 .3-.1.5-.2.1-.1.2-.2.2-.5 0-.1-.1-.3-.2-.5-.1-.1-.2-.2-.5-.2h-2.4c-.8 0-1.5.3-2 .9-.6.6-.9 1.2-.9 2V714c0 .1.1.3.2.5-.1.4 0 .4.2.4zM819.1 716.1c-1.1 0-2.1-.5-2.9-1.2-.8-.8-1.2-1.8-1.2-2.9v-14.1c0-1.1.5-2.1 1.2-2.9.8-.8 1.8-1.2 2.9-1.2h4.9c.2-.1.5-.1.7-.1s.5 0 .7.1c.5.2.8.5 1 .9.1.2.1.5.1.7s0 .5-.1.7c-.2.5-.6.8-1 .9-.2.1-.5.2-.8.2-.2 0-.6.1-.8.1h-4.7c-.1 0-.3.1-.5.2-.1.1-.2.2-.2.5v14c0 .1.1.3.2.5.1.1.2.2.5.2h7.1c.5 0 .9.2 1.2.6.3.3.6.8.6 1.2s-.2.9-.6 1.2c-.4.3-.8.6-1.2.6h-7.1v-.2zm7.1-1.2c.1 0 .3-.1.5-.2.1-.1.2-.2.2-.5 0-.1-.1-.3-.2-.5-.1-.1-.2-.2-.5-.2h-7.1c-.5 0-.9-.2-1.2-.6-.3-.3-.6-.8-.6-1.2v-14.1c0-.5.2-.9.6-1.2.3-.3.8-.6 1.2-.6h5.3c.2 0 .3-.1.6-.1.1-.1.2-.1.3-.3v-.2-.2c-.1-.1-.1-.2-.3-.3h-.4c-.1 0-.2.1-.3.1h-5c-.8 0-1.5.3-2 .9-.6.6-.9 1.2-.9 2v14.1c0 .8.3 1.5.9 2 .6.6 1.2.9 2 .9h7.1v.2h-.2zm-7.1-8.3v-1.1h4.7c.1 0 .3-.1.5-.2.1-.1.2-.2.2-.5 0-.1-.1-.3-.2-.5-.1-.1-.2-.2-.5-.2h-4.7V703h4.7c.5 0 .9.2 1.2.6.3.3.6.8.6 1.2s-.2.9-.6 1.2c-.3.3-.8.6-1.2.6h-4.7zM831 716.1c-.5 0-.9-.2-1.2-.6-.3-.3-.6-.8-.6-1.2v-16.5c0-1.1.5-2.1 1.2-2.9.8-.8 1.8-1.2 2.9-1.2h4.7c1.1 0 2 .5 2.8 1.2.8.8 1.2 1.8 1.2 2.9h.1v4.7c0 1.1-.5 2.1-1.2 2.9-.8.8-1.8 1.2-2.9 1.2h-2.4c-.5 0-.9-.2-1.2-.6s-.6-.8-.6-1.2.2-.9.6-1.2c.3-.3.8-.6 1.2-.6h2.4c.1 0 .3-.1.5-.2.1-.1.2-.2.2-.5v-4.7h-.1c0-.1-.1-.3-.2-.5-.1-.1-.2-.2-.5-.2h-4.6c-.1 0-.3.1-.5.2-.1.1-.2.2-.2.5v16.5c0 .5-.2.9-.6 1.2-.2.5-.4.8-1 .8zm0-1.2c.1 0 .3-.1.5-.2.1-.1.2-.2.2-.5v-16.5c0-.5.2-.9.6-1.2.3-.3.8-.6 1.2-.6h4.7c.5 0 .9.2 1.2.6.3.3.6.8.6 1.2h.1v4.7c0 .5-.2.9-.6 1.2-.3.3-.8.6-1.2.6H836c-.1 0-.3.1-.5.2-.1.1-.2.2-.2.5 0 .1.1.3.2.5.1.1.2.2.5.2h2.4c.8 0 1.5-.3 2-.9.6-.6.9-1.2.9-2V698h-.1c0-.8-.3-1.5-.9-2-.6-.6-1.2-.9-2-.9h-4.6c-.8 0-1.5.3-2 .9-.6.6-.9 1.2-.9 2v16.5c-.1 0 0 .3.2.4-.2 0-.1 0 0 0zm9.5 1.2c-.5 0-.9-.2-1.2-.6-.3-.3-.6-.8-.6-1.2v-7.1h1.1v7.1c0 .1.1.3.2.5.1.1.2.2.5.2.1 0 .3-.1.5-.2.1-.1.2-.2.2-.5v-7.1-.3c.3-.2.7-.6 1-.9.1.2.1.3.1.6V714.3c0 .5-.2.9-.6 1.2-.3.4-.7.6-1.2.6zM852.2 716.1c-.5 0-.9-.2-1.2-.6-.3-.3-.6-.8-.6-1.2v-16.5c0-1.1.5-2.1 1.2-2.9.8-.8 1.8-1.2 2.9-1.2h4.7c1.1 0 2 .5 2.8 1.2.8.8 1.2 1.8 1.2 2.9h.1v9.4c0 1.1-.5 2.1-1.2 2.9-.8.8-1.8 1.2-2.9 1.2H857c-.5 0-.9-.2-1.2-.6-.3-.3-.6-.8-.6-1.2s.2-.9.6-1.2c.3-.3.8-.6 1.2-.6h2.4c.1 0 .3-.1.5-.2.1-.1.2-.2.2-.5v-9.4h-.1c0-.1-.1-.3-.2-.5-.1-.1-.2-.2-.5-.2h-4.6c-.1 0-.3.1-.5.2-.1.1-.2.2-.2.5v16.5c0 .5-.2.9-.6 1.2-.4.5-.7.8-1.2.8zm0-1.2c.1 0 .3-.1.5-.2.1-.1.2-.2.2-.5v-16.5c0-.5.2-.9.6-1.2.3-.3.8-.6 1.2-.6h4.7c.5 0 .9.2 1.2.6.3.3.6.8.6 1.2h.1v9.4c0 .5-.2.9-.6 1.2-.3.3-.8.6-1.2.6h-2.4c-.1 0-.3.1-.5.2-.1.1-.2.2-.2.5 0 .1.1.3.2.5.1.1.2.2.5.2h2.4c.8 0 1.5-.3 2-.9.6-.6.9-1.2.9-2V698h-.3c0-.8-.3-1.5-.9-2-.6-.6-1.2-.9-2-.9h-4.6c-.8 0-1.5.3-2 .9-.6.6-.9 1.2-.9 2v16.5c0 .1.1.3.2.5 0-.1.2-.1.3-.1zM878.5 716.1c-.5 0-.9-.2-1.2-.6-.3-.3-.6-.8-.6-1.2v-16.5h-.1c0-.1-.1-.3-.2-.5-.1-.1-.2-.2-.5-.2h-4.6c-.1 0-.3.1-.5.2-.1.1-.2.2-.2.5V712c0 .2 0 .6-.1.8 0 .2-.1.6-.2.8-.2.5-.5.8-.9.9-.2.1-.5.1-.7.1s-.5 0-.7-.1c-.5-.2-.8-.5-.9-.9-.1-.2-.1-.5-.1-.7s0-.5.1-.7V697.9c0-1.1.5-2.1 1.2-2.9.8-.8 1.8-1.2 2.9-1.2h4.7c1.1 0 2 .5 2.8 1.2.8.8 1.2 1.8 1.2 2.9h.1v16.5c0 .5-.2.9-.6 1.2 0 .3-.4.5-.9.5zm0-1.2c.1 0 .3-.1.5-.2.1-.1.2-.2.2-.5v-16.5h-.1c0-.8-.3-1.5-.9-2-.6-.6-1.2-.9-2-.9h-4.6c-.8 0-1.5.3-2 .9-.6.6-.9 1.2-.9 2v14.4c0 .1 0 .2-.1.3v.4c.1.1.1.2.3.3h.4l.3-.3c.1-.2.1-.3.1-.6s.1-.3.1-.6v-14.1c0-.5.2-.9.6-1.2.3-.3.8-.6 1.2-.6h4.7c.5 0 .9.2 1.2.6.3.3.6.8.6 1.2h.1V714c0 .1.1.3.2.5-.2.4-.1.4.1.4zm-7.1-10.6v-1.1h4.7v1.1h-4.7zm0 2.3v-1.1h4.7v1.1h-4.7zM886.8 716.1c-.5 0-.9-.2-1.2-.6-.3-.3-.6-.8-.6-1.2v-16.5c0-1.1.5-2.1 1.2-2.9.8-.8 1.8-1.2 2.9-1.2h4.7c1.1 0 2 .5 2.8 1.2.8.8 1.2 1.8 1.2 2.9h.1v9.4c0 1.1-.5 2.1-1.2 2.9-.8.8-1.8 1.2-2.9 1.2h-2.4c-.5 0-.9-.2-1.2-.6-.3-.3-.6-.8-.6-1.2s.2-.9.6-1.2c.3-.3.8-.6 1.2-.6h2.4c.1 0 .3-.1.5-.2.1-.1.2-.2.2-.5v-9.4h-.1c0-.1-.1-.3-.2-.5-.1-.1-.2-.2-.5-.2h-4.6c-.1 0-.3.1-.5.2-.1.1-.2.2-.2.5v16.5c0 .5-.2.9-.6 1.2-.2.5-.5.8-1 .8zm0-1.2c.1 0 .3-.1.5-.2.1-.1.2-.2.2-.5v-16.5c0-.5.2-.9.6-1.2.3-.3.8-.6 1.2-.6h4.7c.5 0 .9.2 1.2.6.3.3.6.8.6 1.2h.1v9.4c0 .5-.2.9-.6 1.2-.3.3-.8.6-1.2.6h-2.6c-.1 0-.3.1-.5.2-.1.1-.2.2-.2.5 0 .1.1.3.2.5.1.1.2.2.5.2h2.4c.8 0 1.5-.3 2-.9.6-.6.9-1.2.9-2V698h-.1c0-.8-.3-1.5-.9-2-.6-.6-1.2-.9-2-.9h-4.6c-.8 0-1.5.3-2 .9-.6.6-.9 1.2-.9 2v16.5c0 .1.1.3.2.5.1-.1.2-.1.3-.1zM902.8 716.1c-.5 0-.9-.2-1.2-.6-.3-.3-.6-.8-.6-1.2s.2-.9.6-1.2c.3-.3.8-.6 1.2-.6h7.1c.1 0 .3-.1.5-.2.1-.1.2-.2.2-.5v-4.7h-.1c0-.1-.1-.3-.2-.5-.1-.1-.2-.2-.5-.2h-4.7c-1.1 0-2.1-.5-2.9-1.2-.8-.8-1.2-1.8-1.2-2.9v-4.7c0-1.1.5-2.1 1.2-2.9.8-.8 1.8-1.2 2.9-1.2h4.7c.2 0 .6 0 .8.1.2 0 .6.1.8.2.5.2.8.5 1 .9.1.2.1.5.1.7s0 .5-.1.7c-.2.5-.6.8-1 .9-.2.1-.5.1-.7.1s-.5 0-.7-.1h-4.9c-.1 0-.3.1-.5.2-.1.1-.2.2-.2.5v4.7c0 .1.1.3.2.5.1.1.2.2.5.2h4.7c1.1 0 2 .5 2.8 1.2.8.8 1.2 1.8 1.2 2.9h.1v4.7c0 1.1-.5 2.1-1.2 2.9-.8.8-1.8 1.2-2.9 1.2l-7 .1zm7-1.2c.8 0 1.5-.3 2-.9s.9-1.2.9-2v-4.7h-.1c0-.8-.3-1.5-.9-2-.6-.6-1.2-.9-2-.9h-4.6c-.5 0-.9-.2-1.2-.6-.3-.3-.6-.8-.6-1.2v-4.7c0-.5.2-.9.6-1.2.3-.3.8-.6 1.2-.6h5c.1 0 .2 0 .3.1h.4c.1-.1.2-.1.3-.3v-.2-.2c-.1-.1-.1-.2-.3-.3s-.3-.1-.6-.1c-.2 0-.3-.1-.6-.1h-4.7c-.8 0-1.5.3-2 .9-.6.6-.9 1.2-.9 2v4.7c0 .8.3 1.5.9 2s1.2.9 2 .9h4.7c.5 0 .9.2 1.2.6.3.3.6.8.6 1.2h.1v4.7c0 .5-.2.9-.6 1.2-.4.3-.8.6-1.2.6h-7.1c-.1 0-.3.1-.5.2-.1.1-.2.2-.2.5 0 .1.1.3.2.5.1.1.2.2.5.2h7l.2-.3z"/><circle cx="275.6" cy="245.3" r="3.1" fill="#ed1b4c"/><circle cx="252.5" cy="268.3" r="3.1" fill="#00a1cc"/><circle cx="258.3" cy="251" r="3.1" fill="#46d3aa"/><circle cx="565.3" cy="256.4" r="28.1" fill="#f6d76b"/><circle cx="741" cy="255.4" r="28.1" fill="#e842a5"/><circle cx="116.8" cy="265.9" r="32.4" fill="#0cc"/><path d="M296.5 278.3l-1.2-.9c-2.6-2.7-12.2-14.5.5-33.7.1-.1 0-.3 0-.4 0-.3-.1-.6-.2-.7-3.1-6.1-12-11-23.4-10.9-19.1.2-34.5 15.7-34.3 34.8.1 7.1 2.3 13.7 6 19.2.5.8 1.1 1.7 1.9 2.6 11 13 26 12.7 30.5 12.3h.4c.6-.1.9-.1.9-.1 14-2.2 27.8-16.3 18.9-22.2zm-21-38.8c3.2 0 5.8 2.5 5.8 5.7s-2.5 5.8-5.7 5.8-5.8-2.5-5.8-5.7 2.5-5.8 5.7-5.8zm-17.2 5.8c3.2 0 5.8 2.5 5.8 5.7s-2.5 5.8-5.7 5.8-5.8-2.5-5.8-5.7c-.1-3.2 2.5-5.8 5.7-5.8zm-5.8 17.3c3.2 0 5.8 2.5 5.8 5.7s-2.5 5.8-5.7 5.8-5.8-2.5-5.8-5.7c-.1-3.2 2.5-5.8 5.7-5.8z" fill="#161c38"/><path class="st9" d="M463.6 309.9c-16.1-1.1-31.9-3.4-47.4-7.7-10.6-2.9-21-6.3-27.9-15.8-1.4-1.9-3.1-3.5-4.4-5.6-8.1-13.2-16.3-26.2-24.1-39.5-5.6-9.6-11.1-19.4-18.6-27.6-13-14.3-28.3-24.1-46.4-28.4-2.4-.6-4.9-1.1-7.5-1.4-2.5-.4-5-.6-7.6-.8-.5 0-1-.1-1.4-.1-2.5-.1-5-.2-7.5-.1-3.3.1-6.6.3-9.8.7-2.5.3-5 .7-7.5 1.3-3.1.7-6.1 1.5-9 2.5-2.5.9-5.1 1.9-7.5 3-10.9 5-20.7 12.5-29.6 22.4-7.7 8.7-12.5 18.9-18 29-11.1 20.5-24 39.9-42.2 55.1-10.5 8.8-22.3 12.8-36 10.9-24.5-3.4-41.6-28.1-36-52.3 7.6-32.3 46.8-44.9 71.7-23.1.5.4 1.2.9 1.6 1.3 10-10 19.8-19.9 29.6-29.9-.1-.2-.4-.5-.7-.9-22.1-20.4-48.3-28.2-77.8-21.9-45.2 9.7-73.9 52.9-66.6 98.3 8.3 51.8 62.9 84.1 112.6 66.8 12.9-4.6 24.5-11.4 33.6-22 4.5-5.2 9.4-10.1 14.2-15.1 1.2-1.2 2.1-2.5 3.2-3.6.3.2.4.2.4.3.6 1.1 1.2 2.1 1.8 3.1 16.2 25.6 39.3 40.3 69.6 41.7 32.4 1.4 57.8-12.4 76.3-39.1 1.2-1.7 1.2-2.9-.1-4.5-1.4-1.6-2.5-3.4-3.5-5.2-7.4-12.4-14.7-24.8-22-37.2-1-1.6-2-3.1-3.1-4.7-.2.1-.5.1-.7.2 0 3.6.5 7.4-.1 11-4.1 24.5-25 39.8-49.6 36.5-22.8-3.1-39.8-26.5-35.8-49.2 1.2-6.6 3.7-12.2 7.2-16.9.7-.9 1.5-1.8 2.3-2.7.4-.5.9-1 1.5-1.5l.2-.2c1.1-1.1 2.3-2.1 3.5-3 2.5-2 5.4-3.7 8.4-5.3.3-.2.7-.3 1-.5l5.3-2.1.9-.3.9-.3c3.1-.8 6.4-1.3 9.8-1.5h.7c.9 0 1.8-.1 2.8 0h1.2l2.3.2c.2 0 .3 0 .5.1 3 .3 6.1.9 9.1 1.8 2.5.8 5 1.8 7.5 3 5.1 2.6 10 6.2 14.3 11 6.1 6.8 10.6 14.9 15.2 22.7 7.8 13.2 15.4 26.5 23.9 39.3 11.9 18 27.6 31.2 48.8 37.6 16.8 4.9 33.9 8.5 51.4 10.4 5.8.6 11.6.9 17.3 1.3v-41.5c-1.2-.3-1.6-.3-2.2 0zM548.3 180.7c-35.4 8.3-59.8 39.3-59.9 76-.1 30.3 0 60.6 0 90.8 0 1 .1 1.9.1 2.9h42.3v-25.5c1.5.7 2.4 1.1 3.3 1.4 16.5 7.2 33.6 8.8 51 4.2 39.4-10.5 63.1-48.4 55.9-88.9-7.7-42.6-50.6-70.9-92.7-60.9zM565.4 291c-19.2 0-34.7-15.6-34.7-34.9 0-19.6 15.3-35 35-34.8 19 0 34.2 15.5 34.2 34.9-.1 19.2-15.6 34.8-34.5 34.8zM816.9 262.3v-5.6c-.1-36.7-24.5-67.6-59.9-76-42.2-10-85.1 18.3-92.7 60.9-3.9 21.7 1.1 42.6 12.6 59 10 14.2 24.9 25 43.2 29.9 3 .8 5.9 1.4 8.8 1.8l45.5-41.5-.3 34.4c.1-.1.2-.1.4-.2v25.5h42.3c0-1 .1-1.9.1-2.9 0-28.5.1-56.9 0-85.3zM739.8 291c-13.6 0-25.4-8-31-19.6-2.2-4.6-3.5-9.8-3.6-15.2 0-19.4 15.2-34.9 34.2-34.9 19.7-.2 35 15.2 35 34.8v34.6s-29.2.3-34.6.3zM909.3 308c-1.4 0-2.8-.1-4.1-.5-10.9-3.3-19.4-14.8-19.4-26.1V179.1h-42.3s0 78.4.1 103.7c0 3.5.2 7 .7 10.4 2.8 17.2 11.9 30.9 25 42.1 16.1 13.7 34.9 17.3 55.3 14.9v-42.1c-5.1-.1-10.2 0-15.3-.1z"/><path class="st9" d="M385.7 262.7c-.1 4.7-.7 13.3 11.1 23.9 8.5 7.6 17.2 10.7 21.6 12.1 5.8 1.8 12 2.8 18.7 2.8-.5-.5-.9-1.1-1.4-1.6-5.2-5.5-7.7-11.7-7.7-19.5.2-33.7.1-101.3.1-101.3h-42.3c-.5 42.2.1 73.8-.1 83.6z"/></svg>