<?xml version="1.0" encoding="utf-8"?>
<!-- Generator: Adobe Illustrator 19.0.0, SVG Export Plug-In . SVG Version: 6.00 Build 0)  -->
<svg version="1.1" id="Layer_1" xmlns="http://www.w3.org/2000/svg" xmlns:xlink="http://www.w3.org/1999/xlink" x="0px" y="0px"
	 viewBox="0 159 960 244" style="enable-background:new 0 159 960 244;" xml:space="preserve">
<style type="text/css">
	.st0{display:none;}
	.st1{display:inline;fill:url(#SVGID_1_);}
	.st2{display:inline;fill:url(#SVGID_2_);}
	.st3{display:inline;fill:url(#SVGID_3_);}
	.st4{display:inline;fill:url(#SVGID_4_);}
	.st5{display:inline;fill:url(#SVGID_5_);}
	.st6{display:inline;fill:url(#SVGID_6_);}
	.st7{display:inline;fill:url(#SVGID_7_);}
	.st8{display:inline;fill:url(#SVGID_8_);}
	.st9{display:inline;fill:url(#SVGID_9_);}
	.st10{display:inline;fill:url(#SVGID_10_);}
	.st11{fill:#25557C;stroke:#FFFFFF;stroke-miterlimit:10;}
	.st12{enable-background:new    ;}
	.st13{fill:#2F4861;}
</style>
<g class="st0">
	
		<linearGradient id="SVGID_1_" gradientUnits="userSpaceOnUse" x1="249.5267" y1="198.75" x2="249.5267" y2="352.6442" gradientTransform="matrix(1 0 0 -1 0 564)">
		<stop  offset="0" style="stop-color:#03BAFB"/>
		<stop  offset="9.500092e-002" style="stop-color:#21A9E6"/>
		<stop  offset="0.3478" style="stop-color:#6D7FB0"/>
		<stop  offset="0.5737" style="stop-color:#A95D85"/>
		<stop  offset="0.7644" style="stop-color:#D44467"/>
		<stop  offset="0.9125" style="stop-color:#EF3654"/>
		<stop  offset="1" style="stop-color:#F9304D"/>
	</linearGradient>
	<path class="st1" d="M442.6,328.4c0,12.4,0,24.5,0,36.9c-5.1-0.4-10.3-0.6-15.4-1.2c-15.5-1.7-30.8-4.8-45.8-9.3
		c-18.8-5.6-32.9-17.4-43.5-33.5c-7.5-11.4-14.3-23.2-21.2-35c-4.1-7-8.1-14.1-13.5-20.2c-14.5-16.4-36.7-17.2-50.1-10.2
		c-10.7,5.6-18.4,13.9-20.6,26.4c-3.5,20.2,11.6,41.1,32,43.9c21.9,3,40.6-10.7,44.2-32.5c0.5-3.2,0.1-6.6,0.1-9.9
		c0.2-0.1,0.5-0.1,0.7-0.2c0.9,1.4,1.9,2.7,2.7,4.2c6.5,11,13.1,22.1,19.6,33.1c1,1.6,1.9,3.2,3.1,4.7c1.2,1.4,1.2,2.5,0.1,4
		c-16.4,23.7-39,36-67.9,34.7c-27-1.2-47.5-14.4-61.9-37.2c-0.6-0.9-1.1-1.8-1.6-2.7c0-0.1-0.1-0.1-0.4-0.3
		c-0.9,1.1-1.8,2.2-2.8,3.2c-4.2,4.5-8.7,8.8-12.7,13.5c-8.1,9.4-18.4,15.6-30,19.6c-44.3,15.4-92.8-13.4-100.3-59.5
		c-6.6-40.5,19.1-78.9,59.3-87.6c26.3-5.6,49.5,1.3,69.3,19.6c0.3,0.3,0.5,0.6,0.6,0.7c-8.8,8.9-17.5,17.7-26.4,26.6
		c-0.4-0.3-0.9-0.7-1.4-1.1c-22.2-19.4-57.1-8.2-63.8,20.6c-5,21.5,10.2,43.5,32,46.6c12.2,1.7,22.6-1.9,32-9.7
		c16.2-13.5,27.6-30.8,37.5-49.1c4.9-8.9,9.2-18.1,16-25.8c17.1-19.4,38.6-28.1,64.4-26.5c22.1,1.4,40.1,11,54.8,27.2
		c6.7,7.4,11.6,16,16.6,24.6c7,11.8,14.2,23.5,21.4,35.1c1.1,1.8,2.7,3.3,3.9,5c6.2,8.4,15.5,11.5,24.9,14.1
		c13.8,3.8,27.9,5.9,42.2,6.8C441.2,328.3,441.7,328.4,442.6,328.4z"/>
	
		<linearGradient id="SVGID_2_" gradientUnits="userSpaceOnUse" x1="696.8365" y1="206.9404" x2="696.8365" y2="359.4961" gradientTransform="matrix(1 0 0 -1 0 564)">
		<stop  offset="0" style="stop-color:#03BAFB"/>
		<stop  offset="9.500092e-002" style="stop-color:#21A9E6"/>
		<stop  offset="0.3478" style="stop-color:#6D7FB0"/>
		<stop  offset="0.5737" style="stop-color:#A95D85"/>
		<stop  offset="0.7644" style="stop-color:#D44467"/>
		<stop  offset="0.9125" style="stop-color:#EF3654"/>
		<stop  offset="1" style="stop-color:#F9304D"/>
	</linearGradient>
	<path class="st2" d="M735.2,357.1c0-1.1,0-2,0-3c0-24.1,0-48.3,0-72.4c0-18.9-12.7-34.5-31.1-38.4c-21.6-4.6-43.5,11.5-45.6,33.5
		c-2.2,22.9,15.3,42.4,38.3,42.5c11.6,0.1,23.2,0,34.9,0c0.8,0,1.6,0,2.8,0c-0.7,0.8-1.1,1.2-1.5,1.7c-11.6,11.6-23.3,23.2-35,34.7
		c-0.9,0.8-2.4,1.5-3.5,1.4c-36.8-0.9-68.1-29-73.2-65.5c-5.7-40.7,21.4-78.5,62-85.8c43.6-7.8,81.5,22,88.6,61.9
		c0.8,4.3,1.1,8.7,1.1,13.1c0.1,24.5,0,48.9,0,73.4c0,0.9,0,1.8,0,2.8C760.3,357.1,748,357.1,735.2,357.1z"/>
	
		<linearGradient id="SVGID_3_" gradientUnits="userSpaceOnUse" x1="536.1037" y1="199.45" x2="536.1037" y2="352.3122" gradientTransform="matrix(1 0 0 -1 0 564)">
		<stop  offset="0" style="stop-color:#03BAFB"/>
		<stop  offset="9.500092e-002" style="stop-color:#21A9E6"/>
		<stop  offset="0.3478" style="stop-color:#6D7FB0"/>
		<stop  offset="0.5737" style="stop-color:#A95D85"/>
		<stop  offset="0.7644" style="stop-color:#D44467"/>
		<stop  offset="0.9125" style="stop-color:#EF3654"/>
		<stop  offset="1" style="stop-color:#F9304D"/>
	</linearGradient>
	<path class="st3" d="M505.3,341.9c0,7.8,0,15.1,0,22.7c-12.6,0-25,0-37.7,0c0-0.8-0.1-1.7-0.1-2.6c0-27-0.1-54,0-80.9
		c0.1-32.7,21.9-60.2,53.4-67.6c37.5-8.8,75.7,16.3,82.6,54.3c6.5,36.1-14.7,69.9-49.8,79.2c-15.5,4.1-30.7,2.7-45.5-3.7
		C507.4,342.8,506.6,342.5,505.3,341.9z M505.3,280.6c0,17.2,13.8,31.1,30.9,31.1c16.9,0,30.7-13.9,30.8-31
		c0-17.3-13.5-31.1-30.5-31.1C519,249.6,505.3,263.1,505.3,280.6z"/>
	
		<linearGradient id="SVGID_4_" gradientUnits="userSpaceOnUse" x1="833.4423" y1="199.0143" x2="833.4423" y2="367.25" gradientTransform="matrix(1 0 0 -1 0 564)">
		<stop  offset="0" style="stop-color:#03BAFB"/>
		<stop  offset="9.500092e-002" style="stop-color:#21A9E6"/>
		<stop  offset="0.3478" style="stop-color:#6D7FB0"/>
		<stop  offset="0.5737" style="stop-color:#A95D85"/>
		<stop  offset="0.7644" style="stop-color:#D44467"/>
		<stop  offset="0.9125" style="stop-color:#EF3654"/>
		<stop  offset="1" style="stop-color:#F9304D"/>
	</linearGradient>
	<path class="st4" d="M835,196.8c0,1.7,0,2.6,0,3.6c0,34.2,0,68.5,0,102.7c0,10.1,7.5,20.3,17.2,23.3c1.1,0.3,2.4,0.4,3.6,0.5
		c4.5,0.1,9.1,0,13.8,0c0,12.6,0,25.1,0,37.5c-18.2,2.2-34.9-1.1-49.3-13.2c-11.7-9.9-19.8-22.1-22.3-37.5c-0.5-3-0.7-6.1-0.7-9.2
		c-0.1-22.6,0-45.2-0.1-67.8c0-1.6,0.5-2.7,1.6-3.8c11.4-11.3,22.7-22.6,34-33.9C833.3,198.3,833.9,197.8,835,196.8z"/>
	
		<linearGradient id="SVGID_5_" gradientUnits="userSpaceOnUse" x1="394.2923" y1="243.15" x2="394.2923" y2="367.25" gradientTransform="matrix(1 0 0 -1 0 564)">
		<stop  offset="0" style="stop-color:#03BAFB"/>
		<stop  offset="9.500092e-002" style="stop-color:#21A9E6"/>
		<stop  offset="0.3478" style="stop-color:#6D7FB0"/>
		<stop  offset="0.5737" style="stop-color:#A95D85"/>
		<stop  offset="0.7644" style="stop-color:#D44467"/>
		<stop  offset="0.9125" style="stop-color:#EF3654"/>
		<stop  offset="1" style="stop-color:#F9304D"/>
	</linearGradient>
	<path class="st5" d="M417.1,320.9c-14,0-25.6-4.7-35.8-13.3c-10-8.3-9.9-8.3-9.9-21.3c0-16.6,0-33.2,0.1-49.8
		c0-1.2,0.5-2.6,1.2-3.4c11.5-11.6,23.1-23.2,34.6-34.7c0.4-0.4,0.9-0.8,1.9-1.6c0,1.4,0,2.3,0,3.3c0,34,0.1,68-0.1,101.9
		c0,6.9,2.2,12.5,6.9,17.3C416.2,319.8,416.5,320.1,417.1,320.9z"/>
</g>
<g class="st0">
	
		<linearGradient id="SVGID_6_" gradientUnits="userSpaceOnUse" x1="260.6941" y1="194.55" x2="260.6941" y2="355.8864" gradientTransform="matrix(1 0 0 -1 0 564)">
		<stop  offset="0" style="stop-color:#03BAFB"/>
		<stop  offset="3.153175e-002" style="stop-color:#05B4F7"/>
		<stop  offset="0.3648" style="stop-color:#1979CD"/>
		<stop  offset="0.6489" style="stop-color:#274DAF"/>
		<stop  offset="0.8696" style="stop-color:#30339D"/>
		<stop  offset="1" style="stop-color:#332996"/>
	</linearGradient>
	<path class="st6" d="M463.3,330.6c0,13,0,25.7,0,38.8c-5.4-0.4-10.8-0.6-16.2-1.2c-16.3-1.8-32.3-5.1-48-9.7
		c-19.8-5.9-34.5-18.3-45.6-35.1c-7.9-11.9-15-24.4-22.3-36.7c-4.3-7.3-8.5-14.8-14.2-21.2c-15.3-17.2-38.5-18-52.6-10.7
		c-11.3,5.9-19.3,14.5-21.6,27.7c-3.7,21.2,12.2,43.1,33.5,46c23,3.1,42.6-11.2,46.4-34.1c0.6-3.4,0.1-6.9,0.1-10.3
		c0.2-0.1,0.5-0.1,0.7-0.2c1,1.5,2,2.9,2.9,4.4c6.9,11.6,13.7,23.2,20.6,34.8c1,1.7,2,3.4,3.3,4.9c1.2,1.5,1.2,2.6,0.1,4.2
		c-17.3,24.9-41,37.8-71.3,36.5c-28.3-1.3-49.9-15.1-65-39c-0.6-0.9-1.1-1.9-1.7-2.9c0-0.1-0.1-0.1-0.4-0.3c-1,1.1-1.9,2.3-3,3.4
		c-4.5,4.7-9.1,9.2-13.3,14.1c-8.5,9.9-19.3,16.3-31.4,20.6c-46.4,16.2-97.4-14-105.2-62.4c-6.9-42.5,20-82.8,62.2-91.9
		c27.6-5.9,52,1.4,72.7,20.5c0.3,0.3,0.6,0.6,0.7,0.8c-9.2,9.3-18.4,18.6-27.7,27.9c-0.4-0.4-1-0.8-1.5-1.2
		c-23.3-20.4-59.9-8.6-67,21.6c-5.3,22.6,10.7,45.7,33.6,48.9c12.8,1.8,23.8-2,33.6-10.2c17-14.2,29-32.3,39.4-51.5
		c5.1-9.4,9.6-19,16.8-27.1c18-20.3,40.5-29.5,67.6-27.8c23.2,1.5,42.1,11.6,57.5,28.6c7,7.7,12.2,16.8,17.4,25.8
		c7.3,12.4,14.9,24.6,22.5,36.9c1.2,1.9,2.8,3.4,4.1,5.2c6.5,8.9,16.2,12.1,26.1,14.8c14.5,4,29.3,6.2,44.3,7.2
		C461.9,330.5,462.3,330.5,463.3,330.6z"/>
	
		<linearGradient id="SVGID_7_" gradientUnits="userSpaceOnUse" x1="729.9442" y1="203.15" x2="729.9442" y2="363.1611" gradientTransform="matrix(1 0 0 -1 0 564)">
		<stop  offset="0" style="stop-color:#03BAFB"/>
		<stop  offset="3.153175e-002" style="stop-color:#05B4F7"/>
		<stop  offset="0.3648" style="stop-color:#1979CD"/>
		<stop  offset="0.6489" style="stop-color:#274DAF"/>
		<stop  offset="0.8696" style="stop-color:#30339D"/>
		<stop  offset="1" style="stop-color:#332996"/>
	</linearGradient>
	<path class="st7" d="M770.4,360.7c0-1.1,0-2.1,0-3.1c0-25.3,0-50.7,0-76c0-19.8-13.3-36.1-32.7-40.2c-22.6-4.8-45.6,12.1-47.9,35.1
		c-2.3,24,16.1,44.5,40.2,44.6c12.2,0.1,24.4,0,36.6,0c0.8,0,1.7,0,2.9,0c-0.7,0.8-1.1,1.3-1.6,1.8c-12.2,12.2-24.4,24.3-36.7,36.4
		c-0.9,0.9-2.5,1.5-3.7,1.5c-38.6-1-71.5-30.4-76.8-68.7c-5.9-42.7,22.4-82.4,65-90c45.7-8.2,85.5,23.1,92.9,65
		c0.8,4.5,1.1,9.1,1.2,13.7c0.1,25.7,0.1,51.3,0.1,77c0,0.9,0,1.8,0,2.9C796.6,360.7,783.7,360.7,770.4,360.7z"/>
	
		<linearGradient id="SVGID_8_" gradientUnits="userSpaceOnUse" x1="561.4203" y1="195.35" x2="561.4203" y2="355.8196" gradientTransform="matrix(1 0 0 -1 0 564)">
		<stop  offset="0" style="stop-color:#03BAFB"/>
		<stop  offset="3.153175e-002" style="stop-color:#05B4F7"/>
		<stop  offset="0.3648" style="stop-color:#1979CD"/>
		<stop  offset="0.6489" style="stop-color:#274DAF"/>
		<stop  offset="0.8696" style="stop-color:#30339D"/>
		<stop  offset="1" style="stop-color:#332996"/>
	</linearGradient>
	<path class="st8" d="M529.1,344.8c0,8.2,0,15.9,0,23.8c-13.2,0-26.2,0-39.5,0c0-0.9-0.1-1.8-0.1-2.7c0-28.3-0.1-56.6,0-84.9
		c0.1-34.3,22.9-63.2,56-71c39.4-9.3,79.5,17.1,86.6,56.9c6.8,37.9-15.4,73.3-52.2,83.1c-16.3,4.3-32.3,2.8-47.7-3.9
		C531.3,345.7,530.5,345.4,529.1,344.8z M529.1,280.4c0,18,14.5,32.6,32.4,32.6c17.7,0,32.2-14.6,32.3-32.5
		c0-18.1-14.2-32.6-32-32.6C543.4,247.9,529.1,262.1,529.1,280.4z"/>
	
		<linearGradient id="SVGID_9_" gradientUnits="userSpaceOnUse" x1="873.4825" y1="195.0817" x2="873.4825" y2="371.45" gradientTransform="matrix(1 0 0 -1 0 564)">
		<stop  offset="0" style="stop-color:#03BAFB"/>
		<stop  offset="3.153175e-002" style="stop-color:#05B4F7"/>
		<stop  offset="0.3648" style="stop-color:#1979CD"/>
		<stop  offset="0.6489" style="stop-color:#274DAF"/>
		<stop  offset="0.8696" style="stop-color:#30339D"/>
		<stop  offset="1" style="stop-color:#332996"/>
	</linearGradient>
	<path class="st9" d="M875,192.6c0,1.8,0,2.8,0,3.8c0,35.9,0,71.8,0,107.7c0,10.6,7.9,21.3,18.1,24.4c1.2,0.4,2.5,0.5,3.8,0.5
		c4.8,0.1,9.5,0,14.5,0c0,13.3,0,26.4,0,39.3c-19.1,2.3-36.7-1.1-51.7-13.9c-12.3-10.4-20.8-23.2-23.4-39.3
		c-0.5-3.2-0.7-6.4-0.7-9.7c-0.1-23.7,0-47.4-0.1-71.1c0-1.7,0.5-2.8,1.7-4c11.9-11.8,23.8-23.7,35.7-35.6
		C873.3,194.1,873.9,193.6,875,192.6z"/>
	
		<linearGradient id="SVGID_10_" gradientUnits="userSpaceOnUse" x1="412.6325" y1="241.25" x2="412.6325" y2="371.35" gradientTransform="matrix(1 0 0 -1 0 564)">
		<stop  offset="0" style="stop-color:#03BAFB"/>
		<stop  offset="3.153175e-002" style="stop-color:#05B4F7"/>
		<stop  offset="0.3648" style="stop-color:#1979CD"/>
		<stop  offset="0.6489" style="stop-color:#274DAF"/>
		<stop  offset="0.8696" style="stop-color:#30339D"/>
		<stop  offset="1" style="stop-color:#332996"/>
	</linearGradient>
	<path class="st10" d="M436.6,322.7c-14.7,0-26.9-5-37.6-13.9c-10.4-8.7-10.4-8.8-10.4-22.3c0-17.4,0-34.8,0.1-52.2
		c0-1.2,0.5-2.7,1.3-3.6c12.1-12.2,24.2-24.3,36.3-36.4c0.5-0.5,1-0.9,1.9-1.7c0,1.5,0,2.5,0,3.4c0,35.7,0.1,71.3-0.1,107
		c0,7.3,2.3,13.1,7.2,18.2C435.6,321.6,435.9,321.9,436.6,322.7z"/>
</g>
<g>
	<path class="st11" d="M463.3,330.7c0,13,0,25.7,0,38.8c-5.4-0.4-10.8-0.6-16.2-1.2c-16.3-1.8-32.3-5.1-48-9.7
		c-19.8-5.9-34.5-18.3-45.6-35.1c-7.9-11.9-15-24.4-22.3-36.7c-4.3-7.3-8.5-14.8-14.2-21.2c-15.3-17.2-38.5-18-52.6-10.7
		c-11.3,5.9-19.3,14.5-21.6,27.7c-3.7,21.2,12.2,43.1,33.5,46c23,3.1,42.6-11.2,46.4-34.1c0.6-3.4,0.1-6.9,0.1-10.3
		c0.2-0.1,0.5-0.1,0.7-0.2c1,1.5,2,2.9,2.9,4.4c6.9,11.6,13.7,23.2,20.6,34.8c1,1.7,2,3.4,3.3,4.9c1.2,1.5,1.2,2.6,0.1,4.2
		c-17.3,24.9-41,37.8-71.3,36.5c-28.3-1.3-49.9-15.1-65-39c-0.6-0.9-1.1-1.9-1.7-2.9c0-0.1-0.1-0.1-0.4-0.3c-1,1.1-1.9,2.3-3,3.4
		c-4.5,4.7-9.1,9.2-13.3,14.1c-8.5,9.9-19.3,16.3-31.4,20.6c-46.4,16.2-97.4-14-105.2-62.4c-6.9-42.5,20-82.8,62.2-91.9
		c27.6-5.9,52,1.4,72.7,20.5c0.3,0.3,0.6,0.6,0.7,0.8c-9.2,9.3-18.4,18.6-27.7,27.9c-0.4-0.4-1-0.8-1.5-1.2
		c-23.3-20.4-59.9-8.6-67,21.6c-5.3,22.6,10.7,45.7,33.6,48.9c12.8,1.8,23.8-2,33.6-10.2c17-14.2,29-32.3,39.4-51.5
		c5.1-9.4,9.6-19,16.8-27.1c18-20.3,40.5-29.5,67.6-27.8c23.2,1.5,42.1,11.6,57.5,28.6c7,7.7,12.2,16.8,17.4,25.8
		c7.3,12.4,14.9,24.6,22.5,36.9c1.2,1.9,2.8,3.4,4.1,5.2c6.5,8.9,16.2,12.1,26.1,14.8c14.5,4,29.3,6.2,44.3,7.2
		C461.9,330.5,462.3,330.5,463.3,330.7z"/>
	<path class="st11" d="M770.4,360.8c0-1.1,0-2.1,0-3.1c0-25.3,0-50.7,0-76c0-19.8-13.3-36.1-32.7-40.2
		c-22.6-4.8-45.6,12.1-47.9,35.1c-2.3,24,16.1,44.5,40.2,44.6c12.2,0.1,24.4,0,36.6,0c0.8,0,1.7,0,2.9,0c-0.7,0.8-1.1,1.3-1.6,1.8
		c-12.2,12.2-24.4,24.3-36.7,36.4c-0.9,0.9-2.5,1.5-3.7,1.5c-38.6-1-71.5-30.4-76.8-68.7c-5.9-42.7,22.4-82.4,65-90
		c45.7-8.2,85.5,23.1,92.9,65c0.8,4.5,1.1,9.1,1.2,13.7c0.1,25.7,0.1,51.3,0.1,77c0,0.9,0,1.8,0,2.9
		C796.6,360.8,783.7,360.8,770.4,360.8z"/>
	<path class="st11" d="M529.1,344.8c0,8.2,0,15.9,0,23.8c-13.2,0-26.2,0-39.5,0c0-0.9-0.1-1.8-0.1-2.7c0-28.3-0.1-56.6,0-84.9
		c0.1-34.3,22.9-63.2,56-71c39.4-9.3,79.5,17.1,86.6,56.9c6.8,37.9-15.4,73.3-52.2,83.1c-16.3,4.3-32.3,2.8-47.7-3.9
		C531.3,345.8,530.5,345.5,529.1,344.8z M529.1,280.5c0,18,14.5,32.6,32.4,32.6c17.7,0,32.2-14.6,32.3-32.5
		c0-18.1-14.2-32.6-32-32.6C543.4,247.9,529.1,262.2,529.1,280.5z"/>
	<path class="st11" d="M875,192.6c0,1.8,0,2.8,0,3.8c0,35.9,0,71.8,0,107.7c0,10.6,7.9,21.3,18.1,24.4c1.2,0.4,2.5,0.5,3.8,0.5
		c4.8,0.1,9.5,0,14.5,0c0,13.3,0,26.4,0,39.3c-19.1,2.3-36.7-1.1-51.7-13.9c-12.3-10.4-20.8-23.2-23.4-39.3
		c-0.5-3.2-0.7-6.4-0.7-9.7c-0.1-23.7,0-47.4-0.1-71.1c0-1.7,0.5-2.8,1.7-4c11.9-11.8,23.8-23.7,35.7-35.6
		C873.3,194.1,873.9,193.6,875,192.6z"/>
	<path class="st11" d="M436.6,322.8c-14.7,0-26.9-5-37.6-13.9c-10.4-8.7-10.4-8.8-10.4-22.3c0-17.4,0-34.8,0.1-52.2
		c0-1.2,0.5-2.7,1.3-3.6c12.1-12.2,24.2-24.3,36.3-36.4c0.5-0.5,1-0.9,1.9-1.7c0,1.5,0,2.5,0,3.4c0,35.7,0.1,71.3-0.1,107
		c0,7.3,2.3,13.1,7.2,18.2C435.6,321.7,435.9,322,436.6,322.8z"/>
</g>
<g class="st12">
	<path class="st13" d="M731.4,394.7c-0.2,0-0.4,0-0.6-0.1c-0.4-0.2-0.7-0.4-0.8-0.8c-0.1-0.2-0.1-0.4-0.1-0.6s0-0.4,0.1-0.6
		c0-0.1,0-0.1,0-0.2v-12.5c0-1,0.4-1.9,1.1-2.6c0.7-0.7,1.6-1.1,2.6-1.1h4.2c1,0,1.8,0.4,2.5,1.1s1.1,1.6,1.1,2.6h0.1v4.2
		c0,1-0.4,1.9-1.1,2.6c-0.7,0.7-1.6,1.1-2.6,1.1h-4.2v-1h4.2c0.7,0,1.3-0.3,1.8-0.8s0.8-1.1,0.8-1.8V380h-0.1c0-0.7-0.3-1.3-0.8-1.8
		s-1.1-0.8-1.8-0.8h-4.1c-0.7,0-1.3,0.3-1.8,0.8s-0.8,1.1-0.8,1.8v12.5c0,0.1,0,0.2,0,0.3c0,0.1,0,0.2-0.1,0.3c0,0.1,0,0.1,0,0.2
		s0,0.1,0,0.2c0.1,0.1,0.1,0.2,0.3,0.3c0.1,0,0.1,0,0.2,0c0.1,0,0.1,0,0.2,0c0.1-0.1,0.2-0.2,0.3-0.3c0.1-0.2,0.1-0.3,0.1-0.5
		s0.1-0.3,0.1-0.5V380c0-0.4,0.2-0.8,0.5-1.1c0.3-0.3,0.7-0.5,1.1-0.5h4.2l0,0c0.4,0,0.8,0.2,1.1,0.5s0.5,0.7,0.5,1.1h0.1v4.2
		c0,0.4-0.2,0.8-0.5,1.1s-0.7,0.5-1.1,0.5h-4.2v-1h4.2c0.1,0,0.3-0.1,0.4-0.2c0.1-0.1,0.2-0.2,0.2-0.4V380h-0.1
		c0-0.1-0.1-0.3-0.2-0.4c-0.1-0.1-0.2-0.2-0.4-0.2h-4.1c-0.1,0-0.3,0.1-0.4,0.2c-0.1,0.1-0.2,0.2-0.2,0.4v12.5c0,0.2,0,0.5-0.1,0.7
		c0,0.2-0.1,0.5-0.2,0.7c-0.2,0.4-0.4,0.7-0.8,0.8C731.8,394.6,731.6,394.7,731.4,394.7z M735.7,396c-0.4,0-0.8-0.2-1.1-0.5
		s-0.5-0.7-0.5-1.1s0.2-0.8,0.5-1.1c0.3-0.3,0.7-0.5,1.1-0.5h2.1c0.1,0,0.3-0.1,0.4-0.2c0.1-0.1,0.2-0.2,0.2-0.4V388h1v4.2
		c0,0.4-0.2,0.8-0.5,1.1s-0.7,0.5-1.1,0.5h-2.1c-0.1,0-0.3,0.1-0.4,0.2c-0.1,0.1-0.2,0.2-0.2,0.4c0,0.1,0.1,0.3,0.2,0.4
		c0.1,0.1,0.2,0.2,0.4,0.2h2.1c0.7,0,1.3-0.3,1.8-0.8s0.8-1.1,0.8-1.8v-4.2c0-0.1,0-0.2,0-0.3c0.3-0.2,0.6-0.5,0.9-0.8
		c0.1,0.2,0.1,0.3,0.1,0.5s0,0.4,0,0.5v4.2c0,1-0.4,1.9-1.1,2.6c-0.7,0.7-1.6,1.1-2.6,1.1L735.7,396L735.7,396z"/>
	<path class="st13" d="M750,396c-0.4,0-0.8-0.2-1.1-0.5s-0.5-0.7-0.5-1.1v-6.3c0-0.1-0.1-0.3-0.2-0.4c-0.1-0.1-0.2-0.2-0.4-0.2
		c-1,0-1.9-0.4-2.6-1.1c-0.7-0.7-1.1-1.6-1.1-2.6v-6.3c0-0.4,0.2-0.8,0.5-1.1s0.7-0.5,1.1-0.5s0.8,0.2,1.1,0.5s0.5,0.7,0.5,1.1v6.3
		c0,0.1,0.1,0.3,0.2,0.4c0.1,0.1,0.2,0.2,0.4,0.2c1,0,1.9,0.4,2.6,1.1c0.7,0.7,1.1,1.6,1.1,2.6v6.3c0,0.4-0.2,0.8-0.5,1.1
		C750.8,395.8,750.4,396,750,396z M750,394.9c0.1,0,0.3-0.1,0.4-0.2c0.1-0.1,0.2-0.2,0.2-0.4V388c0-0.7-0.3-1.3-0.8-1.8
		s-1.1-0.8-1.8-0.8c-0.4,0-0.8-0.2-1.1-0.5s-0.5-0.7-0.5-1.1v-6.3c0-0.1-0.1-0.3-0.2-0.4c-0.1-0.1-0.2-0.2-0.4-0.2
		c-0.1,0-0.3,0.1-0.4,0.2c-0.1,0.1-0.2,0.2-0.2,0.4v6.3c0,0.7,0.3,1.3,0.8,1.8s1.1,0.8,1.8,0.8c0.4,0,0.8,0.2,1.1,0.5
		s0.5,0.7,0.5,1.1v6.3c0,0.1,0.1,0.3,0.2,0.4C749.7,394.9,749.9,394.9,750,394.9z M752.1,386.6c0.7,0,1.3-0.3,1.8-0.8
		s0.8-1.1,0.8-1.8v-6.3c0-0.1-0.1-0.3-0.2-0.4c-0.1-0.1-0.2-0.2-0.4-0.2c-0.1,0-0.3,0.1-0.4,0.2c-0.1,0.1-0.2,0.2-0.2,0.4v6.3
		c0,0.4-0.2,0.8-0.5,1.1s-0.7,0.5-1.1,0.5c-0.1,0-0.2,0-0.3,0c-0.2-0.3-0.5-0.6-0.8-0.9c0.2-0.1,0.3-0.1,0.5-0.1s0.4,0,0.5,0
		s0.3-0.1,0.4-0.2s0.2-0.2,0.2-0.4v-6.3c0-0.4,0.2-0.8,0.5-1.1c0.3-0.3,0.7-0.5,1.1-0.5c0.4,0,0.8,0.2,1.1,0.5s0.5,0.7,0.5,1.1v6.3
		c0,1-0.4,1.9-1.1,2.6c-0.7,0.7-1.6,1.1-2.6,1.1v-1.1L752.1,386.6L752.1,386.6z"/>
	<path class="st13" d="M764.6,396c-0.4,0-0.8-0.2-1.1-0.5s-0.5-0.7-0.5-1.1v-14.6c0-1,0.4-1.9,1.1-2.6s1.6-1.1,2.6-1.1h4.2
		c1,0,1.9,0.4,2.6,1.1c0.7,0.7,1.1,1.6,1.1,2.6v10.4c0,0.4-0.2,0.8-0.5,1.1c-0.3,0.3-0.7,0.5-1.1,0.5c-0.4,0-0.8-0.2-1.1-0.5
		s-0.5-0.7-0.5-1.1v-10.4c0-0.1-0.1-0.3-0.2-0.4c-0.1-0.1-0.2-0.2-0.4-0.2h-4.2c-0.1,0-0.3,0.1-0.4,0.2c-0.1,0.1-0.2,0.2-0.2,0.4
		v14.6c0,0.4-0.2,0.8-0.5,1.1S765,396,764.6,396z M764.6,394.9c0.1,0,0.3-0.1,0.4-0.2c0.1-0.1,0.2-0.2,0.2-0.4v-14.6
		c0-0.4,0.2-0.8,0.5-1.1c0.3-0.3,0.7-0.5,1.1-0.5h4.2c0.4,0,0.8,0.2,1.1,0.5s0.5,0.7,0.5,1.1v10.4c0,0.1,0.1,0.3,0.2,0.4
		c0.1,0.1,0.2,0.2,0.4,0.2c0.1,0,0.3-0.1,0.4-0.2c0.1-0.1,0.2-0.2,0.2-0.4v-10.4c0-0.7-0.3-1.3-0.8-1.8s-1.1-0.8-1.8-0.8H767
		c-0.7,0-1.3,0.3-1.8,0.8s-0.8,1.1-0.8,1.8v14.6c0,0.1,0.1,0.3,0.2,0.4C764.3,394.9,764.5,394.9,764.6,394.9z M781.3,396
		c-0.4,0-0.8-0.2-1.1-0.5s-0.5-0.7-0.5-1.1v-14.6h-0.1c0-0.1-0.1-0.3-0.2-0.4c-0.1-0.1-0.2-0.2-0.4-0.2h-4.1v-1h4.2l0,0
		c0.4,0,0.8,0.2,1.1,0.5s0.5,0.7,0.5,1.1h0.1v14.6c0,0.1,0.1,0.3,0.2,0.4c0.1,0.1,0.2,0.2,0.4,0.2c0.1,0,0.3-0.1,0.4-0.2
		c0.1-0.1,0.2-0.2,0.2-0.4v-14.6h-0.1c0-0.7-0.3-1.3-0.8-1.8s-1.1-0.8-1.8-0.8h-4.1c-0.1,0-0.2,0-0.3,0c-0.2-0.3-0.5-0.6-0.8-0.9
		c0.2,0,0.3-0.1,0.5-0.1s0.4,0,0.5,0h4.2c1,0,1.8,0.4,2.5,1.1s1.1,1.6,1.1,2.6h0.1v14.6c0,0.4-0.2,0.8-0.5,1.1S781.7,396,781.3,396z
		"/>
	<path class="st13" d="M788.7,396c-0.4,0-0.8-0.2-1.1-0.5s-0.5-0.7-0.5-1.1v-16.7c0-0.4,0.2-0.8,0.5-1.1s0.7-0.5,1.1-0.5
		c0.4,0,0.8,0.2,1.1,0.5s0.5,0.7,0.5,1.1v16.7c0,0.4-0.2,0.8-0.5,1.1S789.1,396,788.7,396z M788.7,394.9c0.1,0,0.3-0.1,0.4-0.2
		c0.1-0.1,0.2-0.2,0.2-0.4v-16.7c0-0.1-0.1-0.3-0.2-0.4c-0.1-0.1-0.2-0.2-0.4-0.2c-0.1,0-0.3,0.1-0.4,0.2c-0.1,0.1-0.2,0.2-0.2,0.4
		v16.7c0,0.1,0.1,0.3,0.2,0.4C788.4,394.9,788.5,394.9,788.7,394.9z"/>
	<path class="st13" d="M795,396c-0.4,0-0.8-0.2-1.1-0.5s-0.5-0.7-0.5-1.1s0.2-0.8,0.5-1.1s0.7-0.5,1.1-0.5h6.3
		c0.1,0,0.3-0.1,0.4-0.2c0.1-0.1,0.2-0.2,0.2-0.4V388h-0.1c0-0.1-0.1-0.3-0.2-0.4c-0.1-0.1-0.2-0.2-0.4-0.2h-4.1
		c-1,0-1.9-0.4-2.6-1.1c-0.7-0.7-1.1-1.6-1.1-2.6v-4.2c0-1,0.4-1.9,1.1-2.6c0.7-0.7,1.6-1.1,2.6-1.1h4.2c0.2,0,0.5,0,0.7,0.1
		c0.2,0,0.5,0.1,0.7,0.2c0.4,0.2,0.7,0.4,0.9,0.8c0.1,0.2,0.1,0.4,0.1,0.6s0,0.4-0.1,0.6c-0.2,0.4-0.5,0.7-0.9,0.8
		c-0.2,0.1-0.4,0.1-0.6,0.1c-0.2,0-0.4,0-0.6-0.1c-0.1,0-0.1,0-0.2,0h-4.2c-0.1,0-0.3,0.1-0.4,0.2c-0.1,0.1-0.2,0.2-0.2,0.4v4.2
		c0,0.1,0.1,0.3,0.2,0.4c0.1,0.1,0.2,0.2,0.4,0.2h4.2c1,0,1.8,0.4,2.5,1.1s1.1,1.6,1.1,2.6h0.1v4.2c0,1-0.4,1.9-1.1,2.6
		c-0.7,0.7-1.6,1.1-2.6,1.1L795,396L795,396L795,396z M801.3,394.9c0.7,0,1.3-0.3,1.8-0.8s0.8-1.1,0.8-1.8v-4.2h-0.1
		c0-0.7-0.3-1.3-0.8-1.8s-1.1-0.8-1.8-0.8h-4.1c-0.4,0-0.8-0.2-1.1-0.5s-0.5-0.7-0.5-1.1v-4.2c0-0.4,0.2-0.8,0.5-1.1
		c0.3-0.3,0.7-0.5,1.1-0.5h4.2c0.1,0,0.2,0,0.3,0s0.2,0,0.3,0.1c0.1,0,0.1,0,0.2,0s0.1,0,0.2,0c0.1-0.1,0.2-0.1,0.3-0.3
		c0-0.1,0-0.1,0-0.2s0-0.1,0-0.2c-0.1-0.1-0.1-0.2-0.3-0.3c-0.2-0.1-0.3-0.1-0.5-0.1s-0.3-0.1-0.5-0.1h-4.2c-0.7,0-1.3,0.3-1.8,0.8
		s-0.8,1.1-0.8,1.8v4.2c0,0.7,0.3,1.3,0.8,1.8s1.1,0.8,1.8,0.8h4.2c0.4,0,0.8,0.2,1.1,0.5s0.5,0.7,0.5,1.1h0.1v4.2
		c0,0.4-0.2,0.8-0.5,1.1s-0.7,0.5-1.1,0.5h-6.3c-0.1,0-0.3,0.1-0.4,0.2c-0.1,0.1-0.2,0.2-0.2,0.4c0,0.1,0.1,0.3,0.2,0.4
		c0.1,0.1,0.2,0.2,0.4,0.2h6.2L801.3,394.9L801.3,394.9z"/>
	<path class="st13" d="M806.6,379.3c-0.4,0-0.8-0.2-1.1-0.5s-0.5-0.7-0.5-1.1s0.2-0.8,0.5-1.1s0.7-0.5,1.1-0.5h3.3
		c-0.4,0.3-0.7,0.6-1,1h-2.4c-0.1,0-0.3,0.1-0.4,0.2c-0.1,0.1-0.2,0.2-0.2,0.4c0,0.1,0.1,0.3,0.2,0.4c0.1,0.1,0.2,0.2,0.4,0.2h2.1v1
		H806.6z M810.8,396c-0.4,0-0.8-0.2-1.1-0.5s-0.5-0.7-0.5-1.1v-14.6c0-1,0.4-1.9,1.1-2.6c0.7-0.7,1.6-1.1,2.6-1.1h2.1
		c0.4,0,0.8,0.2,1.1,0.5s0.5,0.7,0.5,1.1s-0.2,0.8-0.5,1.1c-0.3,0.3-0.7,0.5-1.1,0.5h-2.1c-0.1,0-0.3,0.1-0.4,0.2
		c-0.1,0.1-0.2,0.2-0.2,0.4v14.6c0,0.4-0.2,0.8-0.5,1.1C811.6,395.8,811.2,396,810.8,396z M810.8,394.9c0.1,0,0.3-0.1,0.4-0.2
		c0.1-0.1,0.2-0.2,0.2-0.4v-14.6c0-0.4,0.2-0.8,0.5-1.1c0.3-0.3,0.7-0.5,1.1-0.5h2.1c0.1,0,0.3-0.1,0.4-0.2c0.1-0.1,0.2-0.2,0.2-0.4
		c0-0.1-0.1-0.3-0.2-0.4c-0.1-0.1-0.2-0.2-0.4-0.2H813c-0.7,0-1.3,0.3-1.8,0.8s-0.8,1.1-0.8,1.8v14.6c0,0.1,0.1,0.3,0.2,0.4
		C810.5,394.9,810.6,394.9,810.8,394.9z"/>
	<path class="st13" d="M821.2,396c-1,0-1.9-0.4-2.6-1.1c-0.7-0.7-1.1-1.6-1.1-2.6v-12.5c0-1,0.4-1.9,1.1-2.6s1.6-1.1,2.6-1.1h4.2
		c0.1,0,0.1,0,0.2,0c0.2-0.1,0.4-0.1,0.6-0.1c0.2,0,0.4,0,0.6,0.1c0.4,0.2,0.7,0.4,0.9,0.8c0.1,0.2,0.1,0.4,0.1,0.6s0,0.4-0.1,0.6
		c-0.2,0.4-0.5,0.7-0.9,0.8c-0.2,0.1-0.4,0.2-0.7,0.2c-0.2,0-0.5,0.1-0.7,0.1h-4.2c-0.1,0-0.3,0.1-0.4,0.2c-0.1,0.1-0.2,0.2-0.2,0.4
		v12.5c0,0.1,0.1,0.3,0.2,0.4c0.1,0.1,0.2,0.2,0.4,0.2h6.3c0.4,0,0.8,0.2,1.1,0.5s0.5,0.7,0.5,1.1s-0.2,0.8-0.5,1.1
		c-0.3,0.3-0.7,0.5-1.1,0.5h-6.3L821.2,396L821.2,396z M827.5,394.9c0.1,0,0.3-0.1,0.4-0.2c0.1-0.1,0.2-0.2,0.2-0.4
		c0-0.1-0.1-0.3-0.2-0.4c-0.1-0.1-0.2-0.2-0.4-0.2h-6.3c-0.4,0-0.8-0.2-1.1-0.5s-0.5-0.7-0.5-1.1v-12.5c0-0.4,0.2-0.8,0.5-1.1
		c0.3-0.3,0.7-0.5,1.1-0.5h4.2c0.2,0,0.3,0,0.5,0s0.3-0.1,0.5-0.1c0.1-0.1,0.2-0.1,0.3-0.3c0-0.1,0-0.1,0-0.2s0-0.1,0-0.2
		c-0.1-0.1-0.1-0.2-0.3-0.3c-0.1,0-0.1,0-0.2,0s-0.1,0-0.2,0c-0.1,0-0.2,0.1-0.3,0.1s-0.2,0-0.3,0h-4.2c-0.7,0-1.3,0.3-1.8,0.8
		s-0.8,1.1-0.8,1.8v12.5c0,0.7,0.3,1.3,0.8,1.8s1.1,0.8,1.8,0.8h6.3V394.9z M821.2,387.6v-1h4.2c0.1,0,0.3-0.1,0.4-0.2
		c0.1-0.1,0.2-0.2,0.2-0.4c0-0.1-0.1-0.3-0.2-0.4c-0.1-0.1-0.2-0.2-0.4-0.2h-4.2v-1h4.2c0.4,0,0.8,0.2,1.1,0.5s0.5,0.7,0.5,1.1
		s-0.2,0.8-0.5,1.1c-0.3,0.3-0.7,0.5-1.1,0.5H821.2z"/>
	<path class="st13" d="M831.8,396c-0.4,0-0.8-0.2-1.1-0.5s-0.5-0.7-0.5-1.1v-14.6c0-1,0.4-1.9,1.1-2.6c0.7-0.7,1.6-1.1,2.6-1.1h4.2
		c1,0,1.8,0.4,2.5,1.1s1.1,1.6,1.1,2.6h0.1v4.2c0,1-0.4,1.9-1.1,2.6c-0.7,0.7-1.6,1.1-2.6,1.1H836c-0.4,0-0.8-0.2-1.1-0.5
		s-0.5-0.7-0.5-1.1s0.2-0.8,0.5-1.1c0.3-0.3,0.7-0.5,1.1-0.5h2.1c0.1,0,0.3-0.1,0.4-0.2c0.1-0.1,0.2-0.2,0.2-0.4v-4.2h-0.1
		c0-0.1-0.1-0.3-0.2-0.4c-0.1-0.1-0.2-0.2-0.4-0.2h-4.1c-0.1,0-0.3,0.1-0.4,0.2c-0.1,0.1-0.2,0.2-0.2,0.4v14.6
		c0,0.4-0.2,0.8-0.5,1.1S832.3,396,831.8,396z M831.8,394.9c0.1,0,0.3-0.1,0.4-0.2c0.1-0.1,0.2-0.2,0.2-0.4v-14.6
		c0-0.4,0.2-0.8,0.5-1.1c0.3-0.3,0.7-0.5,1.1-0.5h4.2l0,0c0.4,0,0.8,0.2,1.1,0.5s0.5,0.7,0.5,1.1h0.1v4.2c0,0.4-0.2,0.8-0.5,1.1
		s-0.7,0.5-1.1,0.5h-2.1c-0.1,0-0.3,0.1-0.4,0.2c-0.1,0.1-0.2,0.2-0.2,0.4c0,0.1,0.1,0.3,0.2,0.4c0.1,0.1,0.2,0.2,0.4,0.2h2.1
		c0.7,0,1.3-0.3,1.8-0.8s0.8-1.1,0.8-1.8v-4.2h-0.1c0-0.7-0.3-1.3-0.8-1.8s-1.1-0.8-1.8-0.8h-4.1c-0.7,0-1.3,0.3-1.8,0.8
		s-0.8,1.1-0.8,1.8v14.6C831.5,394.6,831.6,394.8,831.8,394.9C831.6,394.9,831.7,394.9,831.8,394.9z M840.2,396
		c-0.4,0-0.8-0.2-1.1-0.5s-0.5-0.7-0.5-1.1v-6.3h1v6.3c0,0.1,0.1,0.3,0.2,0.4c0.1,0.1,0.2,0.2,0.4,0.2c0.1,0,0.3-0.1,0.4-0.2
		c0.1-0.1,0.2-0.2,0.2-0.4v-6.3c0-0.1,0-0.2,0-0.3c0.3-0.2,0.6-0.5,0.9-0.8c0.1,0.2,0.1,0.3,0.1,0.5s0,0.4,0,0.5v6.3
		c0,0.4-0.2,0.8-0.5,1.1C841,395.8,840.6,396,840.2,396z"/>
	<path class="st13" d="M850.6,396c-0.4,0-0.8-0.2-1.1-0.5s-0.5-0.7-0.5-1.1v-14.6c0-1,0.4-1.9,1.1-2.6s1.6-1.1,2.6-1.1h4.2
		c1,0,1.8,0.4,2.5,1.1s1.1,1.6,1.1,2.6h0.1v8.3c0,1-0.4,1.9-1.1,2.6c-0.7,0.7-1.6,1.1-2.6,1.1h-2.1c-0.4,0-0.8-0.2-1.1-0.5
		s-0.5-0.7-0.5-1.1s0.2-0.8,0.5-1.1c0.3-0.3,0.7-0.5,1.1-0.5h2.1c0.1,0,0.3-0.1,0.4-0.2c0.1-0.1,0.2-0.2,0.2-0.4v-8.3h-0.1
		c0-0.1-0.1-0.3-0.2-0.4c-0.1-0.1-0.2-0.2-0.4-0.2h-4.1c-0.1,0-0.3,0.1-0.4,0.2c-0.1,0.1-0.2,0.2-0.2,0.4v14.6
		c0,0.4-0.2,0.8-0.5,1.1S851,396,850.6,396z M850.6,394.9c0.1,0,0.3-0.1,0.4-0.2c0.1-0.1,0.2-0.2,0.2-0.4v-14.6
		c0-0.4,0.2-0.8,0.5-1.1c0.3-0.3,0.7-0.5,1.1-0.5h4.2l0,0c0.4,0,0.8,0.2,1.1,0.5s0.5,0.7,0.5,1.1h0.1v8.3c0,0.4-0.2,0.8-0.5,1.1
		s-0.7,0.5-1.1,0.5H855c-0.1,0-0.3,0.1-0.4,0.2c-0.1,0.1-0.2,0.2-0.2,0.4c0,0.1,0.1,0.3,0.2,0.4c0.1,0.1,0.2,0.2,0.4,0.2h2.1
		c0.7,0,1.3-0.3,1.8-0.8s0.8-1.1,0.8-1.8v-8.3h-0.3c0-0.7-0.3-1.3-0.8-1.8s-1.1-0.8-1.8-0.8h-4.1c-0.7,0-1.3,0.3-1.8,0.8
		s-0.8,1.1-0.8,1.8v14.6c0,0.1,0.1,0.3,0.2,0.4C850.3,394.9,850.5,394.9,850.6,394.9z"/>
	<path class="st13" d="M873.9,396c-0.4,0-0.8-0.2-1.1-0.5s-0.5-0.7-0.5-1.1v-14.6h-0.1c0-0.1-0.1-0.3-0.2-0.4
		c-0.1-0.1-0.2-0.2-0.4-0.2h-4.1c-0.1,0-0.3,0.1-0.4,0.2c-0.1,0.1-0.2,0.2-0.2,0.4v12.5c0,0.2,0,0.5-0.1,0.7c0,0.2-0.1,0.5-0.2,0.7
		c-0.2,0.4-0.4,0.7-0.8,0.8c-0.2,0.1-0.4,0.1-0.6,0.1s-0.4,0-0.6-0.1c-0.4-0.2-0.7-0.4-0.8-0.8c-0.1-0.2-0.1-0.4-0.1-0.6
		s0-0.4,0.1-0.6c0-0.1,0-0.1,0-0.2v-12.5c0-1,0.4-1.9,1.1-2.6c0.7-0.7,1.6-1.1,2.6-1.1h4.2c1,0,1.8,0.4,2.5,1.1s1.1,1.6,1.1,2.6h0.1
		v14.6c0,0.4-0.2,0.8-0.5,1.1C874.7,395.8,874.3,396,873.9,396z M873.9,394.9c0.1,0,0.3-0.1,0.4-0.2c0.1-0.1,0.2-0.2,0.2-0.4v-14.6
		h-0.1c0-0.7-0.3-1.3-0.8-1.8s-1.1-0.8-1.8-0.8h-4.1c-0.7,0-1.3,0.3-1.8,0.8s-0.8,1.1-0.8,1.8v12.5c0,0.1,0,0.2,0,0.3
		c0,0.1,0,0.2-0.1,0.3c0,0.1,0,0.1,0,0.2s0,0.1,0,0.2c0.1,0.1,0.1,0.2,0.3,0.3c0.1,0,0.1,0,0.2,0c0.1,0,0.1,0,0.2,0
		c0.1-0.1,0.2-0.2,0.3-0.3c0.1-0.2,0.1-0.3,0.1-0.5s0.1-0.3,0.1-0.5v-12.5c0-0.4,0.2-0.8,0.5-1.1c0.3-0.3,0.7-0.5,1.1-0.5h4.2l0,0
		c0.4,0,0.8,0.2,1.1,0.5s0.5,0.7,0.5,1.1h0.1v14.6c0,0.1,0.1,0.3,0.2,0.4C873.6,394.9,873.7,394.9,873.9,394.9z M867.6,385.5v-1h4.2
		v1H867.6z M867.6,387.6v-1h4.2v1H867.6z"/>
	<path class="st13" d="M881.2,396c-0.4,0-0.8-0.2-1.1-0.5s-0.5-0.7-0.5-1.1v-14.6c0-1,0.4-1.9,1.1-2.6s1.6-1.1,2.6-1.1h4.2
		c1,0,1.8,0.4,2.5,1.1s1.1,1.6,1.1,2.6h0.1v8.3c0,1-0.4,1.9-1.1,2.6c-0.7,0.7-1.6,1.1-2.6,1.1h-2.1c-0.4,0-0.8-0.2-1.1-0.5
		s-0.5-0.7-0.5-1.1s0.2-0.8,0.5-1.1c0.3-0.3,0.7-0.5,1.1-0.5h2.1c0.1,0,0.3-0.1,0.4-0.2c0.1-0.1,0.2-0.2,0.2-0.4v-8.3H888
		c0-0.1-0.1-0.3-0.2-0.4c-0.1-0.1-0.2-0.2-0.4-0.2h-4.1c-0.1,0-0.3,0.1-0.4,0.2c-0.1,0.1-0.2,0.2-0.2,0.4v14.6
		c0,0.4-0.2,0.8-0.5,1.1S881.7,396,881.2,396z M881.2,394.9c0.1,0,0.3-0.1,0.4-0.2c0.1-0.1,0.2-0.2,0.2-0.4v-14.6
		c0-0.4,0.2-0.8,0.5-1.1c0.3-0.3,0.7-0.5,1.1-0.5h4.2l0,0c0.4,0,0.8,0.2,1.1,0.5s0.5,0.7,0.5,1.1h0.1v8.3c0,0.4-0.2,0.8-0.5,1.1
		s-0.7,0.5-1.1,0.5h-2.3c-0.1,0-0.3,0.1-0.4,0.2c-0.1,0.1-0.2,0.2-0.2,0.4c0,0.1,0.1,0.3,0.2,0.4c0.1,0.1,0.2,0.2,0.4,0.2h2.1
		c0.7,0,1.3-0.3,1.8-0.8s0.8-1.1,0.8-1.8v-8.3H890c0-0.7-0.3-1.3-0.8-1.8s-1.1-0.8-1.8-0.8h-4.1c-0.7,0-1.3,0.3-1.8,0.8
		s-0.8,1.1-0.8,1.8v14.6c0,0.1,0.1,0.3,0.2,0.4C881,394.9,881.1,394.9,881.2,394.9z"/>
	<path class="st13" d="M895.4,396c-0.4,0-0.8-0.2-1.1-0.5s-0.5-0.7-0.5-1.1s0.2-0.8,0.5-1.1s0.7-0.5,1.1-0.5h6.3
		c0.1,0,0.3-0.1,0.4-0.2c0.1-0.1,0.2-0.2,0.2-0.4V388h-0.1c0-0.1-0.1-0.3-0.2-0.4c-0.1-0.1-0.2-0.2-0.4-0.2h-4.2
		c-1,0-1.9-0.4-2.6-1.1c-0.7-0.7-1.1-1.6-1.1-2.6v-4.2c0-1,0.4-1.9,1.1-2.6c0.7-0.7,1.6-1.1,2.6-1.1h4.2c0.2,0,0.5,0,0.7,0.1
		c0.2,0,0.5,0.1,0.7,0.2c0.4,0.2,0.7,0.4,0.9,0.8c0.1,0.2,0.1,0.4,0.1,0.6s0,0.4-0.1,0.6c-0.2,0.4-0.5,0.7-0.9,0.8
		c-0.2,0.1-0.4,0.1-0.6,0.1c-0.2,0-0.4,0-0.6-0.1c-0.1,0-0.1,0-0.2,0h-4.2c-0.1,0-0.3,0.1-0.4,0.2c-0.1,0.1-0.2,0.2-0.2,0.4v4.2
		c0,0.1,0.1,0.3,0.2,0.4c0.1,0.1,0.2,0.2,0.4,0.2h4.2c1,0,1.8,0.4,2.5,1.1s1.1,1.6,1.1,2.6h0.1v4.2c0,1-0.4,1.9-1.1,2.6
		c-0.7,0.7-1.6,1.1-2.6,1.1L895.4,396L895.4,396z M901.6,394.9c0.7,0,1.3-0.3,1.8-0.8s0.8-1.1,0.8-1.8v-4.2h-0.1
		c0-0.7-0.3-1.3-0.8-1.8s-1.1-0.8-1.8-0.8h-4.1c-0.4,0-0.8-0.2-1.1-0.5s-0.5-0.7-0.5-1.1v-4.2c0-0.4,0.2-0.8,0.5-1.1
		c0.3-0.3,0.7-0.5,1.1-0.5h4.2c0.1,0,0.2,0,0.3,0s0.2,0,0.3,0.1c0.1,0,0.1,0,0.2,0s0.1,0,0.2,0c0.1-0.1,0.2-0.1,0.3-0.3
		c0-0.1,0-0.1,0-0.2s0-0.1,0-0.2c-0.1-0.1-0.1-0.2-0.3-0.3c-0.2-0.1-0.3-0.1-0.5-0.1s-0.3-0.1-0.5-0.1h-4.2c-0.7,0-1.3,0.3-1.8,0.8
		s-0.8,1.1-0.8,1.8v4.2c0,0.7,0.3,1.3,0.8,1.8s1.1,0.8,1.8,0.8h4.2c0.4,0,0.8,0.2,1.1,0.5s0.5,0.7,0.5,1.1h0.1v4.2
		c0,0.4-0.2,0.8-0.5,1.1s-0.7,0.5-1.1,0.5h-6.3c-0.1,0-0.3,0.1-0.4,0.2c-0.1,0.1-0.2,0.2-0.2,0.4c0,0.1,0.1,0.3,0.2,0.4
		c0.1,0.1,0.2,0.2,0.4,0.2h6.2V394.9z"/>
</g>
</svg>
