<?xml version="1.0" encoding="utf-8"?>
<!-- Generator: Adobe Illustrator 19.0.0, SVG Export Plug-In . SVG Version: 6.00 Build 0)  -->
<svg version="1.1" id="Layer_1" xmlns="http://www.w3.org/2000/svg" xmlns:xlink="http://www.w3.org/1999/xlink" x="0px" y="0px"
	 viewBox="0 159 960 244" style="enable-background:new 0 159 960 244;" xml:space="preserve">
<style type="text/css">
	.st0{display:none;}
	.st1{display:inline;fill:url(#SVGID_1_);}
	.st2{display:inline;fill:url(#SVGID_2_);}
	.st3{display:inline;fill:url(#SVGID_3_);}
	.st4{display:inline;fill:url(#SVGID_4_);}
	.st5{display:inline;fill:url(#SVGID_5_);}
	.st6{fill:url(#SVGID_6_);}
	.st7{fill:url(#SVGID_7_);}
	.st8{fill:url(#SVGID_8_);}
	.st9{fill:url(#SVGID_9_);}
	.st10{fill:url(#SVGID_10_);}
	.st11{fill:#1F254E;stroke:#FFFFFF;stroke-miterlimit:10;}
	.st12{enable-background:new    ;}
	.st13{fill:#1F254E;}
</style>
<g class="st0">
	
		<linearGradient id="SVGID_1_" gradientUnits="userSpaceOnUse" x1="249.4844" y1="520.3" x2="249.4844" y2="366.4059" gradientTransform="matrix(1 0 0 1 0 4)">
		<stop  offset="0" style="stop-color:#03BAFB"/>
		<stop  offset="9.500092e-002" style="stop-color:#21A9E6"/>
		<stop  offset="0.3478" style="stop-color:#6D7FB0"/>
		<stop  offset="0.5737" style="stop-color:#A95D85"/>
		<stop  offset="0.7644" style="stop-color:#D44467"/>
		<stop  offset="0.9125" style="stop-color:#EF3654"/>
		<stop  offset="1" style="stop-color:#F9304D"/>
	</linearGradient>
	<path class="st1" d="M442.6,487.4c0,12.4,0,24.5,0,36.9c-5.1-0.4-10.3-0.6-15.4-1.2c-15.5-1.7-30.8-4.8-45.8-9.3
		c-18.8-5.6-32.9-17.4-43.5-33.5c-7.5-11.4-14.3-23.2-21.2-35c-4.1-7-8.1-14.1-13.5-20.2c-14.5-16.4-36.7-17.2-50.1-10.2
		c-10.7,5.6-18.4,13.9-20.6,26.4c-3.5,20.2,11.6,41.1,32,43.9c21.9,3,40.6-10.7,44.2-32.5c0.5-3.2,0.1-6.6,0.1-9.9
		c0.2-0.1,0.5-0.1,0.7-0.2c0.9,1.4,1.9,2.7,2.7,4.2c6.5,11,13.1,22.1,19.6,33.1c1,1.6,1.9,3.2,3.1,4.7c1.2,1.4,1.2,2.5,0.1,4
		c-16.4,23.7-39,36-67.9,34.7c-27-1.2-47.5-14.4-61.9-37.2c-0.6-0.9-1.1-1.8-1.6-2.7c0-0.1-0.1-0.1-0.4-0.3
		c-0.9,1.1-1.8,2.2-2.8,3.2c-4.2,4.5-8.7,8.8-12.7,13.5c-8.1,9.4-18.4,15.6-30,19.6c-44.3,15.4-92.8-13.4-100.3-59.5
		c-6.6-40.5,19.1-78.9,59.3-87.6c26.3-5.6,49.5,1.3,69.3,19.6c0.3,0.3,0.5,0.6,0.6,0.7c-8.8,8.9-17.5,17.7-26.4,26.6
		c-0.4-0.3-0.9-0.7-1.4-1.1c-22.2-19.4-57.1-8.2-63.8,20.6c-5,21.5,10.2,43.5,32,46.6c12.2,1.7,22.6-1.9,32-9.7
		c16.2-13.5,27.6-30.8,37.5-49.1c4.9-8.9,9.2-18.1,16-25.8c17.1-19.4,38.6-28.1,64.4-26.5c22.1,1.4,40.1,11,54.8,27.2
		c6.7,7.4,11.6,16,16.6,24.6c7,11.8,14.2,23.5,21.4,35.1c1.1,1.8,2.7,3.3,3.9,5c6.2,8.4,15.5,11.5,24.9,14.1
		c13.8,3.8,27.9,5.9,42.2,6.8C441.2,487.3,441.7,487.4,442.6,487.4z"/>
	
		<linearGradient id="SVGID_2_" gradientUnits="userSpaceOnUse" x1="696.7942" y1="512.1096" x2="696.7942" y2="359.5539" gradientTransform="matrix(1 0 0 1 0 4)">
		<stop  offset="0" style="stop-color:#03BAFB"/>
		<stop  offset="9.500092e-002" style="stop-color:#21A9E6"/>
		<stop  offset="0.3478" style="stop-color:#6D7FB0"/>
		<stop  offset="0.5737" style="stop-color:#A95D85"/>
		<stop  offset="0.7644" style="stop-color:#D44467"/>
		<stop  offset="0.9125" style="stop-color:#EF3654"/>
		<stop  offset="1" style="stop-color:#F9304D"/>
	</linearGradient>
	<path class="st2" d="M735.2,516.1c0-1.1,0-2,0-3c0-24.1,0-48.3,0-72.4c0-18.9-12.7-34.5-31.1-38.4c-21.6-4.6-43.5,11.5-45.6,33.5
		c-2.2,22.9,15.3,42.4,38.3,42.5c11.6,0.1,23.2,0,34.9,0c0.8,0,1.6,0,2.8,0c-0.7,0.8-1.1,1.2-1.5,1.7c-11.6,11.6-23.3,23.2-35,34.7
		c-0.9,0.8-2.4,1.5-3.5,1.4c-36.8-0.9-68.1-29-73.2-65.5c-5.7-40.7,21.4-78.5,62-85.8c43.6-7.8,81.5,22,88.6,61.9
		c0.8,4.3,1.1,8.7,1.1,13.1c0.1,24.5,0,48.9,0,73.4c0,0.9,0,1.8,0,2.8C760.3,516.1,748,516.1,735.2,516.1z"/>
	
		<linearGradient id="SVGID_3_" gradientUnits="userSpaceOnUse" x1="536.0613" y1="519.6" x2="536.0613" y2="366.7378" gradientTransform="matrix(1 0 0 1 0 4)">
		<stop  offset="0" style="stop-color:#03BAFB"/>
		<stop  offset="9.500092e-002" style="stop-color:#21A9E6"/>
		<stop  offset="0.3478" style="stop-color:#6D7FB0"/>
		<stop  offset="0.5737" style="stop-color:#A95D85"/>
		<stop  offset="0.7644" style="stop-color:#D44467"/>
		<stop  offset="0.9125" style="stop-color:#EF3654"/>
		<stop  offset="1" style="stop-color:#F9304D"/>
	</linearGradient>
	<path class="st3" d="M505.3,500.9c0,7.8,0,15.1,0,22.7c-12.6,0-25,0-37.7,0c0-0.8-0.1-1.7-0.1-2.6c0-27-0.1-54,0-80.9
		c0.1-32.7,21.9-60.2,53.4-67.6c37.5-8.8,75.7,16.3,82.6,54.3c6.5,36.1-14.7,69.9-49.8,79.2c-15.5,4.1-30.7,2.7-45.5-3.7
		C507.4,501.8,506.6,501.5,505.3,500.9z M505.3,439.6c0,17.2,13.8,31.1,30.9,31.1c16.9,0,30.7-13.9,30.8-31
		c0-17.3-13.5-31.1-30.5-31.1C519,408.6,505.3,422.1,505.3,439.6z"/>
	
		<linearGradient id="SVGID_4_" gradientUnits="userSpaceOnUse" x1="833.4" y1="520.0357" x2="833.4" y2="351.8" gradientTransform="matrix(1 0 0 1 0 4)">
		<stop  offset="0" style="stop-color:#03BAFB"/>
		<stop  offset="9.500092e-002" style="stop-color:#21A9E6"/>
		<stop  offset="0.3478" style="stop-color:#6D7FB0"/>
		<stop  offset="0.5737" style="stop-color:#A95D85"/>
		<stop  offset="0.7644" style="stop-color:#D44467"/>
		<stop  offset="0.9125" style="stop-color:#EF3654"/>
		<stop  offset="1" style="stop-color:#F9304D"/>
	</linearGradient>
	<path class="st4" d="M835,355.8c0,1.7,0,2.6,0,3.6c0,34.2,0,68.5,0,102.7c0,10.1,7.5,20.3,17.2,23.3c1.1,0.3,2.4,0.4,3.6,0.5
		c4.5,0.1,9.1,0,13.8,0c0,12.6,0,25.1,0,37.5c-18.2,2.2-34.9-1.1-49.3-13.2c-11.7-9.9-19.8-22.1-22.3-37.5c-0.5-3-0.7-6.1-0.7-9.2
		c-0.1-22.6,0-45.2-0.1-67.8c0-1.6,0.5-2.7,1.6-3.8c11.4-11.3,22.7-22.6,34-33.9C833.3,357.3,833.9,356.8,835,355.8z"/>
	
		<linearGradient id="SVGID_5_" gradientUnits="userSpaceOnUse" x1="394.25" y1="475.9" x2="394.25" y2="351.8" gradientTransform="matrix(1 0 0 1 0 4)">
		<stop  offset="0" style="stop-color:#03BAFB"/>
		<stop  offset="9.500092e-002" style="stop-color:#21A9E6"/>
		<stop  offset="0.3478" style="stop-color:#6D7FB0"/>
		<stop  offset="0.5737" style="stop-color:#A95D85"/>
		<stop  offset="0.7644" style="stop-color:#D44467"/>
		<stop  offset="0.9125" style="stop-color:#EF3654"/>
		<stop  offset="1" style="stop-color:#F9304D"/>
	</linearGradient>
	<path class="st5" d="M417.1,479.9c-14,0-25.6-4.7-35.8-13.3c-10-8.3-9.9-8.3-9.9-21.3c0-16.6,0-33.2,0.1-49.8
		c0-1.2,0.5-2.6,1.2-3.4c11.5-11.6,23.1-23.2,34.6-34.7c0.4-0.4,0.9-0.8,1.9-1.6c0,1.4,0,2.3,0,3.3c0,34,0.1,68-0.1,101.9
		c0,6.9,2.2,12.5,6.9,17.3C416.2,478.8,416.5,479.1,417.1,479.9z"/>
</g>
<g>
	
		<linearGradient id="SVGID_6_" gradientUnits="userSpaceOnUse" x1="260.6615" y1="364.8997" x2="260.6615" y2="203.5633" gradientTransform="matrix(1 0 0 1 0 4)">
		<stop  offset="0" style="stop-color:#03BAFB"/>
		<stop  offset="3.153175e-002" style="stop-color:#05B4F7"/>
		<stop  offset="0.3648" style="stop-color:#1979CD"/>
		<stop  offset="0.6489" style="stop-color:#274DAF"/>
		<stop  offset="0.8696" style="stop-color:#30339D"/>
		<stop  offset="1" style="stop-color:#332996"/>
	</linearGradient>
	<path class="st6" d="M463.3,330.1c0,13,0,25.7,0,38.8c-5.4-0.4-10.8-0.6-16.2-1.2c-16.3-1.8-32.3-5.1-48-9.7
		c-19.8-5.9-34.5-18.3-45.6-35.1c-7.9-11.9-15-24.4-22.3-36.7c-4.3-7.3-8.5-14.8-14.2-21.2c-15.3-17.2-38.5-18-52.6-10.7
		c-11.3,5.9-19.3,14.5-21.6,27.7c-3.7,21.2,12.2,43.1,33.5,46c23,3.1,42.6-11.2,46.4-34.1c0.6-3.4,0.1-6.9,0.1-10.3
		c0.2-0.1,0.5-0.1,0.7-0.2c1,1.5,2,2.9,2.9,4.4c6.9,11.6,13.7,23.2,20.6,34.8c1,1.7,2,3.4,3.3,4.9c1.2,1.5,1.2,2.6,0.1,4.2
		c-17.3,24.9-41,37.8-71.3,36.5c-28.3-1.3-49.9-15.1-65-39c-0.6-0.9-1.1-1.9-1.7-2.9c0-0.1-0.1-0.1-0.4-0.3c-1,1.1-1.9,2.3-3,3.4
		c-4.5,4.7-9.1,9.2-13.3,14.1c-8.5,9.9-19.3,16.3-31.4,20.6c-46.4,16.2-97.4-14-105.2-62.4c-6.9-42.5,20-82.8,62.2-91.9
		c27.6-5.9,52,1.4,72.7,20.5c0.3,0.3,0.6,0.6,0.7,0.8c-9.2,9.3-18.4,18.6-27.7,27.9c-0.4-0.4-1-0.8-1.5-1.2
		c-23.3-20.4-59.9-8.6-67,21.6c-5.3,22.6,10.7,45.7,33.6,48.9c12.8,1.8,23.8-2,33.6-10.2c17-14.2,29-32.3,39.4-51.5
		c5.1-9.4,9.6-19,16.8-27.1c18-20.3,40.5-29.5,67.6-27.8c23.2,1.5,42.1,11.6,57.5,28.6c7,7.7,12.2,16.8,17.4,25.8
		c7.3,12.4,14.9,24.6,22.5,36.9c1.2,1.9,2.8,3.4,4.1,5.2c6.5,8.9,16.2,12.1,26.1,14.8c14.5,4,29.3,6.2,44.3,7.2
		C461.9,330,462.3,330,463.3,330.1z"/>
	
		<linearGradient id="SVGID_7_" gradientUnits="userSpaceOnUse" x1="729.9117" y1="356.2997" x2="729.9117" y2="196.2887" gradientTransform="matrix(1 0 0 1 0 4)">
		<stop  offset="0" style="stop-color:#03BAFB"/>
		<stop  offset="3.153175e-002" style="stop-color:#05B4F7"/>
		<stop  offset="0.3648" style="stop-color:#1979CD"/>
		<stop  offset="0.6489" style="stop-color:#274DAF"/>
		<stop  offset="0.8696" style="stop-color:#30339D"/>
		<stop  offset="1" style="stop-color:#332996"/>
	</linearGradient>
	<path class="st7" d="M770.4,360.2c0-1.1,0-2.1,0-3.1c0-25.3,0-50.7,0-76c0-19.8-13.3-36.1-32.7-40.2c-22.6-4.8-45.6,12.1-47.9,35.1
		c-2.3,24,16.1,44.5,40.2,44.6c12.2,0.1,24.4,0,36.6,0c0.8,0,1.7,0,2.9,0c-0.7,0.8-1.1,1.3-1.6,1.8c-12.2,12.2-24.4,24.3-36.7,36.4
		c-0.9,0.9-2.5,1.5-3.7,1.5c-38.6-1-71.5-30.4-76.8-68.7c-5.9-42.7,22.4-82.4,65-90c45.7-8.2,85.5,23.1,92.9,65
		c0.8,4.5,1.1,9.1,1.2,13.7c0.1,25.7,0.1,51.3,0.1,77c0,0.9,0,1.8,0,2.9C796.6,360.2,783.7,360.2,770.4,360.2z"/>
	
		<linearGradient id="SVGID_8_" gradientUnits="userSpaceOnUse" x1="561.3878" y1="364.0997" x2="561.3878" y2="203.6301" gradientTransform="matrix(1 0 0 1 0 4)">
		<stop  offset="0" style="stop-color:#03BAFB"/>
		<stop  offset="3.153175e-002" style="stop-color:#05B4F7"/>
		<stop  offset="0.3648" style="stop-color:#1979CD"/>
		<stop  offset="0.6489" style="stop-color:#274DAF"/>
		<stop  offset="0.8696" style="stop-color:#30339D"/>
		<stop  offset="1" style="stop-color:#332996"/>
	</linearGradient>
	<path class="st8" d="M529.1,344.3c0,8.2,0,15.9,0,23.8c-13.2,0-26.2,0-39.5,0c0-0.9-0.1-1.8-0.1-2.7c0-28.3-0.1-56.6,0-84.9
		c0.1-34.3,22.9-63.2,56-71c39.4-9.3,79.5,17.1,86.6,56.9c6.8,37.9-15.4,73.3-52.2,83.1c-16.3,4.3-32.3,2.8-47.7-3.9
		C531.3,345.2,530.5,344.9,529.1,344.3z M529.1,279.9c0,18,14.5,32.6,32.4,32.6c17.7,0,32.2-14.6,32.3-32.5
		c0-18.1-14.2-32.6-32-32.6C543.4,247.4,529.1,261.6,529.1,279.9z"/>
	
		<linearGradient id="SVGID_9_" gradientUnits="userSpaceOnUse" x1="873.45" y1="364.468" x2="873.45" y2="188.0997" gradientTransform="matrix(1 0 0 1 0 4)">
		<stop  offset="0" style="stop-color:#03BAFB"/>
		<stop  offset="3.153175e-002" style="stop-color:#05B4F7"/>
		<stop  offset="0.3648" style="stop-color:#1979CD"/>
		<stop  offset="0.6489" style="stop-color:#274DAF"/>
		<stop  offset="0.8696" style="stop-color:#30339D"/>
		<stop  offset="1" style="stop-color:#332996"/>
	</linearGradient>
	<path class="st9" d="M875,192.1c0,1.8,0,2.8,0,3.8c0,35.9,0,71.8,0,107.7c0,10.6,7.9,21.3,18.1,24.4c1.2,0.4,2.5,0.5,3.8,0.5
		c4.8,0.1,9.5,0,14.5,0c0,13.3,0,26.4,0,39.3c-19.1,2.3-36.7-1.1-51.7-13.9c-12.3-10.4-20.8-23.2-23.4-39.3
		c-0.5-3.2-0.7-6.4-0.7-9.7c-0.1-23.7,0-47.4-0.1-71.1c0-1.7,0.5-2.8,1.7-4c11.9-11.8,23.8-23.7,35.7-35.6
		C873.3,193.6,873.9,193.1,875,192.1z"/>
	
		<linearGradient id="SVGID_10_" gradientUnits="userSpaceOnUse" x1="412.6" y1="318.1997" x2="412.6" y2="188.0998" gradientTransform="matrix(1 0 0 1 0 4)">
		<stop  offset="0" style="stop-color:#03BAFB"/>
		<stop  offset="3.153175e-002" style="stop-color:#05B4F7"/>
		<stop  offset="0.3648" style="stop-color:#1979CD"/>
		<stop  offset="0.6489" style="stop-color:#274DAF"/>
		<stop  offset="0.8696" style="stop-color:#30339D"/>
		<stop  offset="1" style="stop-color:#332996"/>
	</linearGradient>
	<path class="st10" d="M436.6,322.2c-14.7,0-26.9-5-37.6-13.9c-10.4-8.7-10.4-8.8-10.4-22.3c0-17.4,0-34.8,0.1-52.2
		c0-1.2,0.5-2.7,1.3-3.6c12.1-12.2,24.2-24.3,36.3-36.4c0.5-0.5,1-0.9,1.9-1.7c0,1.5,0,2.5,0,3.4c0,35.7,0.1,71.3-0.1,107
		c0,7.3,2.3,13.1,7.2,18.2C435.6,321.1,435.9,321.4,436.6,322.2z"/>
</g>
<g>
	<path class="st11" d="M463.3,330.7c0,13,0,25.7,0,38.8c-5.4-0.4-10.8-0.6-16.2-1.2c-16.3-1.8-32.3-5.1-48-9.7
		c-19.8-5.9-34.5-18.3-45.6-35.1c-7.9-11.9-15-24.4-22.3-36.7c-4.3-7.3-8.5-14.8-14.2-21.2c-15.3-17.2-38.5-18-52.6-10.7
		c-11.3,5.9-19.3,14.5-21.6,27.7c-3.7,21.2,12.2,43.1,33.5,46c23,3.1,42.6-11.2,46.4-34.1c0.6-3.4,0.1-6.9,0.1-10.3
		c0.2-0.1,0.5-0.1,0.7-0.2c1,1.5,2,2.9,2.9,4.4c6.9,11.6,13.7,23.2,20.6,34.8c1,1.7,2,3.4,3.3,4.9c1.2,1.5,1.2,2.6,0.1,4.2
		c-17.3,24.9-41,37.8-71.3,36.5c-28.3-1.3-49.9-15.1-65-39c-0.6-0.9-1.1-1.9-1.7-2.9c0-0.1-0.1-0.1-0.4-0.3c-1,1.1-1.9,2.3-3,3.4
		c-4.5,4.7-9.1,9.2-13.3,14.1c-8.5,9.9-19.3,16.3-31.4,20.6c-46.4,16.2-97.4-14-105.2-62.4c-6.9-42.5,20-82.8,62.2-91.9
		c27.6-5.9,52,1.4,72.7,20.5c0.3,0.3,0.6,0.6,0.7,0.8c-9.2,9.3-18.4,18.6-27.7,27.9c-0.4-0.4-1-0.8-1.5-1.2
		c-23.3-20.4-59.9-8.6-67,21.6c-5.3,22.6,10.7,45.7,33.6,48.9c12.8,1.8,23.8-2,33.6-10.2c17-14.2,29-32.3,39.4-51.5
		c5.1-9.4,9.6-19,16.8-27.1c18-20.3,40.5-29.5,67.6-27.8c23.2,1.5,42.1,11.6,57.5,28.6c7,7.7,12.2,16.8,17.4,25.8
		c7.3,12.4,14.9,24.6,22.5,36.9c1.2,1.9,2.8,3.4,4.1,5.2c6.5,8.9,16.2,12.1,26.1,14.8c14.5,4,29.3,6.2,44.3,7.2
		C461.9,330.5,462.3,330.5,463.3,330.7z"/>
	<path class="st11" d="M770.4,360.8c0-1.1,0-2.1,0-3.1c0-25.3,0-50.7,0-76c0-19.8-13.3-36.1-32.7-40.2
		c-22.6-4.8-45.6,12.1-47.9,35.1c-2.3,24,16.1,44.5,40.2,44.6c12.2,0.1,24.4,0,36.6,0c0.8,0,1.7,0,2.9,0c-0.7,0.8-1.1,1.3-1.6,1.8
		c-12.2,12.2-24.4,24.3-36.7,36.4c-0.9,0.9-2.5,1.5-3.7,1.5c-38.6-1-71.5-30.4-76.8-68.7c-5.9-42.7,22.4-82.4,65-90
		c45.7-8.2,85.5,23.1,92.9,65c0.8,4.5,1.1,9.1,1.2,13.7c0.1,25.7,0.1,51.3,0.1,77c0,0.9,0,1.8,0,2.9
		C796.6,360.8,783.7,360.8,770.4,360.8z"/>
	<path class="st11" d="M529.1,344.8c0,8.2,0,15.9,0,23.8c-13.2,0-26.2,0-39.5,0c0-0.9-0.1-1.8-0.1-2.7c0-28.3-0.1-56.6,0-84.9
		c0.1-34.3,22.9-63.2,56-71c39.4-9.3,79.5,17.1,86.6,56.9c6.8,37.9-15.4,73.3-52.2,83.1c-16.3,4.3-32.3,2.8-47.7-3.9
		C531.3,345.8,530.5,345.5,529.1,344.8z M529.1,280.5c0,18,14.5,32.6,32.4,32.6c17.7,0,32.2-14.6,32.3-32.5
		c0-18.1-14.2-32.6-32-32.6C543.4,247.8,529.1,262.2,529.1,280.5z"/>
	<path class="st11" d="M875,192.6c0,1.8,0,2.8,0,3.8c0,35.9,0,71.8,0,107.7c0,10.6,7.9,21.3,18.1,24.4c1.2,0.4,2.5,0.5,3.8,0.5
		c4.8,0.1,9.5,0,14.5,0c0,13.3,0,26.4,0,39.3c-19.1,2.3-36.7-1.1-51.7-13.9c-12.3-10.4-20.8-23.2-23.4-39.3
		c-0.5-3.2-0.7-6.4-0.7-9.7c-0.1-23.7,0-47.4-0.1-71.1c0-1.7,0.5-2.8,1.7-4c11.9-11.8,23.8-23.7,35.7-35.6
		C873.3,194.1,873.9,193.6,875,192.6z"/>
	<path class="st11" d="M436.6,322.8c-14.7,0-26.9-5-37.6-13.9c-10.4-8.7-10.4-8.8-10.4-22.3c0-17.4,0-34.8,0.1-52.2
		c0-1.2,0.5-2.7,1.3-3.6c12.1-12.2,24.2-24.3,36.3-36.4c0.5-0.5,1-0.9,1.9-1.7c0,1.5,0,2.5,0,3.4c0,35.7,0.1,71.3-0.1,107
		c0,7.3,2.3,13.1,7.2,18.2C435.6,321.7,435.9,322,436.6,322.8z"/>
</g>
<g class="st12">
	<path class="st13" d="M717.7,396.7c-0.2,0-0.5,0-0.7-0.1c-0.5-0.2-0.8-0.5-0.9-0.9c-0.1-0.2-0.1-0.5-0.1-0.7s0-0.5,0.1-0.7
		c0-0.1,0-0.1,0-0.2V380c0-1.1,0.5-2.1,1.2-2.9c0.8-0.8,1.8-1.2,2.9-1.2h4.7c1.1,0,2,0.5,2.8,1.2c0.8,0.8,1.2,1.8,1.2,2.9h0.1v4.7
		c0,1.1-0.5,2.1-1.2,2.9c-0.8,0.8-1.8,1.2-2.9,1.2h-4.7v-1.1h4.7c0.8,0,1.5-0.3,2-0.9c0.6-0.6,0.9-1.2,0.9-2v-4.7h-0.1
		c0-0.8-0.3-1.5-0.9-2c-0.6-0.6-1.2-0.9-2-0.9h-4.6c-0.8,0-1.5,0.3-2,0.9c-0.6,0.6-0.9,1.2-0.9,2v14.1c0,0.1,0,0.2,0,0.3
		s0,0.2-0.1,0.3c0,0.1,0,0.1,0,0.2s0,0.1,0,0.2c0.1,0.1,0.1,0.2,0.3,0.3c0.1,0,0.1,0,0.2,0s0.1,0,0.2,0c0.1-0.1,0.2-0.2,0.3-0.3
		c0.1-0.2,0.1-0.3,0.1-0.6s0.1-0.3,0.1-0.6v-14.1c0-0.5,0.2-0.9,0.6-1.2c0.3-0.3,0.8-0.6,1.2-0.6h4.7l0,0c0.5,0,0.9,0.2,1.2,0.6
		s0.6,0.8,0.6,1.2h0.1v4.7c0,0.5-0.2,0.9-0.6,1.2c-0.3,0.3-0.8,0.6-1.2,0.6h-4.7v-1.1h4.7c0.1,0,0.3-0.1,0.5-0.2
		c0.1-0.1,0.2-0.2,0.2-0.5v-4.7h-0.1c0-0.1-0.1-0.3-0.2-0.5c-0.1-0.1-0.2-0.2-0.5-0.2h-4.6c-0.1,0-0.3,0.1-0.5,0.2
		c-0.1,0.1-0.2,0.2-0.2,0.5v14.1c0,0.2,0,0.6-0.1,0.8c0,0.2-0.1,0.6-0.2,0.8c-0.2,0.5-0.5,0.8-0.9,0.9
		C718.2,396.5,717.9,396.7,717.7,396.7z M722.6,398.1c-0.5,0-0.9-0.2-1.2-0.6c-0.3-0.3-0.6-0.8-0.6-1.2s0.2-0.9,0.6-1.2
		c0.3-0.3,0.8-0.6,1.2-0.6h2.4c0.1,0,0.3-0.1,0.5-0.2c0.1-0.1,0.2-0.2,0.2-0.5v-4.7h1.1v4.7c0,0.5-0.2,0.9-0.6,1.2
		c-0.3,0.3-0.8,0.6-1.2,0.6h-2.4c-0.1,0-0.3,0.1-0.5,0.2c-0.1,0.1-0.2,0.2-0.2,0.5c0,0.1,0.1,0.3,0.2,0.5c0.1,0.1,0.2,0.2,0.5,0.2
		h2.4c0.8,0,1.5-0.3,2-0.9c0.6-0.6,0.9-1.2,0.9-2v-4.7c0-0.1,0-0.2,0-0.3c0.3-0.2,0.7-0.6,1-0.9c0.1,0.2,0.1,0.3,0.1,0.6
		s0,0.5,0,0.6v4.7c0,1.1-0.5,2.1-1.2,2.9c-0.8,0.8-1.8,1.2-2.9,1.2L722.6,398.1L722.6,398.1z"/>
	<path class="st13" d="M738.7,398.1c-0.5,0-0.9-0.2-1.2-0.6c-0.3-0.3-0.6-0.8-0.6-1.2v-7.1c0-0.1-0.1-0.3-0.2-0.5
		c-0.1-0.1-0.2-0.2-0.5-0.2c-1.1,0-2.1-0.5-2.9-1.2c-0.8-0.8-1.2-1.8-1.2-2.9v-7.1c0-0.5,0.2-0.9,0.6-1.2c0.3-0.3,0.8-0.6,1.2-0.6
		s0.9,0.2,1.2,0.6c0.3,0.3,0.6,0.8,0.6,1.2v7.1c0,0.1,0.1,0.3,0.2,0.5c0.1,0.1,0.2,0.2,0.5,0.2c1.1,0,2.1,0.5,2.9,1.2
		c0.8,0.8,1.2,1.8,1.2,2.9v7.1c0,0.5-0.2,0.9-0.6,1.2C739.6,397.9,739.2,398.1,738.7,398.1z M738.7,396.9c0.1,0,0.3-0.1,0.5-0.2
		c0.1-0.1,0.2-0.2,0.2-0.5v-7.1c0-0.8-0.3-1.5-0.9-2c-0.6-0.6-1.2-0.9-2-0.9c-0.5,0-0.9-0.2-1.2-0.6c-0.3-0.3-0.6-0.8-0.6-1.2v-7.1
		c0-0.1-0.1-0.3-0.2-0.5c-0.1-0.1-0.2-0.2-0.5-0.2c-0.1,0-0.3,0.1-0.5,0.2c-0.1,0.1-0.2,0.2-0.2,0.5v7.1c0,0.8,0.3,1.5,0.9,2
		c0.6,0.6,1.2,0.9,2,0.9c0.5,0,0.9,0.2,1.2,0.6c0.3,0.3,0.6,0.8,0.6,1.2v7.1c0,0.1,0.1,0.3,0.2,0.5
		C738.4,396.9,738.6,396.9,738.7,396.9z M741.1,387.5c0.8,0,1.5-0.3,2-0.9c0.6-0.6,0.9-1.2,0.9-2v-7.1c0-0.1-0.1-0.3-0.2-0.5
		c-0.1-0.1-0.2-0.2-0.5-0.2c-0.1,0-0.3,0.1-0.5,0.2c-0.1,0.1-0.2,0.2-0.2,0.5v7.1c0,0.5-0.2,0.9-0.6,1.2c-0.3,0.3-0.8,0.6-1.2,0.6
		c-0.1,0-0.2,0-0.3,0c-0.2-0.3-0.6-0.7-0.9-1c0.2-0.1,0.3-0.1,0.6-0.1c0.2,0,0.5,0,0.6,0c0.1,0,0.3-0.1,0.5-0.2
		c0.1-0.1,0.2-0.2,0.2-0.5v-7.1c0-0.5,0.2-0.9,0.6-1.2s0.8-0.6,1.2-0.6c0.5,0,0.9,0.2,1.2,0.6c0.3,0.3,0.6,0.8,0.6,1.2v7.1
		c0,1.1-0.5,2.1-1.2,2.9c-0.8,0.8-1.8,1.2-2.9,1.2v-1.2L741.1,387.5L741.1,387.5z"/>
	<path class="st13" d="M755.2,398.1c-0.5,0-0.9-0.2-1.2-0.6c-0.3-0.3-0.6-0.8-0.6-1.2v-16.5c0-1.1,0.5-2.1,1.2-2.9
		c0.8-0.8,1.8-1.2,2.9-1.2h4.7c1.1,0,2.1,0.5,2.9,1.2c0.8,0.8,1.2,1.8,1.2,2.9v11.7c0,0.5-0.2,0.9-0.6,1.2s-0.8,0.6-1.2,0.6
		c-0.5,0-0.9-0.2-1.2-0.6c-0.3-0.3-0.6-0.8-0.6-1.2v-11.7c0-0.1-0.1-0.3-0.2-0.5c-0.1-0.1-0.2-0.2-0.5-0.2h-4.7
		c-0.1,0-0.3,0.1-0.5,0.2c-0.1,0.1-0.2,0.2-0.2,0.5v16.5c0,0.5-0.2,0.9-0.6,1.2C755.9,397.9,755.6,398.1,755.2,398.1z M755.2,396.9
		c0.1,0,0.3-0.1,0.5-0.2c0.1-0.1,0.2-0.2,0.2-0.5v-16.5c0-0.5,0.2-0.9,0.6-1.2c0.3-0.3,0.8-0.6,1.2-0.6h4.7c0.5,0,0.9,0.2,1.2,0.6
		c0.3,0.3,0.6,0.8,0.6,1.2v11.7c0,0.1,0.1,0.3,0.2,0.5c0.1,0.1,0.2,0.2,0.5,0.2c0.1,0,0.3-0.1,0.5-0.2c0.1-0.1,0.2-0.2,0.2-0.5
		v-11.7c0-0.8-0.3-1.5-0.9-2c-0.6-0.6-1.2-0.9-2-0.9h-4.7c-0.8,0-1.5,0.3-2,0.9c-0.6,0.6-0.9,1.2-0.9,2v16.5c0,0.1,0.1,0.3,0.2,0.5
		C754.8,396.9,755.1,396.9,755.2,396.9z M774,398.1c-0.5,0-0.9-0.2-1.2-0.6c-0.3-0.3-0.6-0.8-0.6-1.2v-16.5h-0.1
		c0-0.1-0.1-0.3-0.2-0.5c-0.1-0.1-0.2-0.2-0.5-0.2h-4.6V378h4.7l0,0c0.5,0,0.9,0.2,1.2,0.6c0.3,0.3,0.6,0.8,0.6,1.2h0.1v16.5
		c0,0.1,0.1,0.3,0.2,0.5c0.1,0.1,0.2,0.2,0.5,0.2c0.1,0,0.3-0.1,0.5-0.2c0.1-0.1,0.2-0.2,0.2-0.5v-16.5h-0.1c0-0.8-0.3-1.5-0.9-2
		c-0.6-0.6-1.2-0.9-2-0.9h-4.6c-0.1,0-0.2,0-0.3,0c-0.2-0.3-0.6-0.7-0.9-1c0.2,0,0.3-0.1,0.6-0.1c0.2,0,0.5,0,0.6,0h4.7
		c1.1,0,2,0.5,2.8,1.2c0.8,0.8,1.2,1.8,1.2,2.9h0.1v16.5c0,0.5-0.2,0.9-0.6,1.2C775,398,774.5,398.1,774,398.1z"/>
	<path class="st13" d="M782.4,398.1c-0.5,0-0.9-0.2-1.2-0.6c-0.3-0.3-0.6-0.8-0.6-1.2v-18.8c0-0.5,0.2-0.9,0.6-1.2
		c0.3-0.3,0.8-0.6,1.2-0.6c0.5,0,0.9,0.2,1.2,0.6c0.3,0.3,0.6,0.8,0.6,1.2v18.8c0,0.5-0.2,0.9-0.6,1.2
		C783.3,397.9,782.8,398.1,782.4,398.1z M782.4,396.9c0.1,0,0.3-0.1,0.5-0.2c0.1-0.1,0.2-0.2,0.2-0.5v-18.8c0-0.1-0.1-0.3-0.2-0.5
		c-0.1-0.1-0.2-0.2-0.5-0.2c-0.1,0-0.3,0.1-0.5,0.2c-0.1,0.1-0.2,0.2-0.2,0.5v18.8c0,0.1,0.1,0.3,0.2,0.5
		C782,396.9,782.2,396.9,782.4,396.9z"/>
	<path class="st13" d="M789.5,398.1c-0.5,0-0.9-0.2-1.2-0.6c-0.3-0.3-0.6-0.8-0.6-1.2s0.2-0.9,0.6-1.2s0.8-0.6,1.2-0.6h7.1
		c0.1,0,0.3-0.1,0.5-0.2c0.1-0.1,0.2-0.2,0.2-0.5v-4.7h-0.1c0-0.1-0.1-0.3-0.2-0.5c-0.1-0.1-0.2-0.2-0.5-0.2h-4.6
		c-1.1,0-2.1-0.5-2.9-1.2c-0.8-0.8-1.2-1.8-1.2-2.9v-4.7c0-1.1,0.5-2.1,1.2-2.9c0.8-0.8,1.8-1.2,2.9-1.2h4.7c0.2,0,0.6,0,0.8,0.1
		c0.2,0,0.6,0.1,0.8,0.2c0.5,0.2,0.8,0.5,1,0.9c0.1,0.2,0.1,0.5,0.1,0.7s0,0.5-0.1,0.7c-0.2,0.5-0.6,0.8-1,0.9
		c-0.2,0.1-0.5,0.1-0.7,0.1s-0.5,0-0.7-0.1c-0.1,0-0.1,0-0.2,0h-4.7c-0.1,0-0.3,0.1-0.5,0.2c-0.1,0.1-0.2,0.2-0.2,0.5v4.7
		c0,0.1,0.1,0.3,0.2,0.5c0.1,0.1,0.2,0.2,0.5,0.2h4.7c1.1,0,2,0.5,2.8,1.2c0.8,0.8,1.2,1.8,1.2,2.9h0.1v4.7c0,1.1-0.5,2.1-1.2,2.9
		c-0.8,0.8-1.8,1.2-2.9,1.2L789.5,398.1L789.5,398.1L789.5,398.1z M796.6,396.9c0.8,0,1.5-0.3,2-0.9c0.6-0.6,0.9-1.2,0.9-2v-4.7
		h-0.1c0-0.8-0.3-1.5-0.9-2c-0.6-0.6-1.2-0.9-2-0.9h-4.6c-0.5,0-0.9-0.2-1.2-0.6c-0.3-0.3-0.6-0.8-0.6-1.2v-4.7
		c0-0.5,0.2-0.9,0.6-1.2s0.8-0.6,1.2-0.6h4.7c0.1,0,0.2,0,0.3,0c0.1,0,0.2,0,0.3,0.1c0.1,0,0.1,0,0.2,0s0.1,0,0.2,0
		c0.1-0.1,0.2-0.1,0.3-0.3c0-0.1,0-0.1,0-0.2c0-0.1,0-0.1,0-0.2c-0.1-0.1-0.1-0.2-0.3-0.3c-0.2-0.1-0.3-0.1-0.6-0.1
		s-0.3-0.1-0.6-0.1h-4.7c-0.8,0-1.5,0.3-2,0.9c-0.6,0.6-0.9,1.2-0.9,2v4.7c0,0.8,0.3,1.5,0.9,2c0.6,0.6,1.2,0.9,2,0.9h4.7
		c0.5,0,0.9,0.2,1.2,0.6c0.3,0.3,0.6,0.8,0.6,1.2h0.1v4.7c0,0.5-0.2,0.9-0.6,1.2s-0.8,0.6-1.2,0.6h-7.1c-0.1,0-0.3,0.1-0.5,0.2
		c-0.1,0.1-0.2,0.2-0.2,0.5c0,0.1,0.1,0.3,0.2,0.5c0.1,0.1,0.2,0.2,0.5,0.2h7L796.6,396.9L796.6,396.9z"/>
	<path class="st13" d="M802.6,379.3c-0.5,0-0.9-0.2-1.2-0.6c-0.3-0.3-0.6-0.8-0.6-1.2s0.2-0.9,0.6-1.2c0.3-0.3,0.8-0.6,1.2-0.6h3.7
		c-0.5,0.3-0.8,0.7-1.1,1.1h-2.7c-0.1,0-0.3,0.1-0.5,0.2c-0.1,0.1-0.2,0.2-0.2,0.5c0,0.1,0.1,0.3,0.2,0.5c0.1,0.1,0.2,0.2,0.5,0.2
		h2.4v1.1H802.6z M807.3,398.1c-0.5,0-0.9-0.2-1.2-0.6c-0.3-0.3-0.6-0.8-0.6-1.2v-16.5c0-1.1,0.5-2.1,1.2-2.9
		c0.8-0.8,1.8-1.2,2.9-1.2h2.4c0.5,0,0.9,0.2,1.2,0.6c0.3,0.3,0.6,0.8,0.6,1.2s-0.2,0.9-0.6,1.2c-0.3,0.3-0.8,0.6-1.2,0.6h-2.4
		c-0.1,0-0.3,0.1-0.5,0.2c-0.1,0.1-0.2,0.2-0.2,0.5v16.5c0,0.5-0.2,0.9-0.6,1.2C808.2,397.9,807.8,398.1,807.3,398.1z M807.3,396.9
		c0.1,0,0.3-0.1,0.5-0.2c0.1-0.1,0.2-0.2,0.2-0.5v-16.5c0-0.5,0.2-0.9,0.6-1.2c0.3-0.3,0.8-0.6,1.2-0.6h2.4c0.1,0,0.3-0.1,0.5-0.2
		c0.1-0.1,0.2-0.2,0.2-0.5c0-0.1-0.1-0.3-0.2-0.5c-0.1-0.1-0.2-0.2-0.5-0.2h-2.4c-0.8,0-1.5,0.3-2,0.9c-0.6,0.6-0.9,1.2-0.9,2V396
		c0,0.1,0.1,0.3,0.2,0.5C807,396.9,807.1,396.9,807.3,396.9z"/>
	<path class="st13" d="M819.1,398.1c-1.1,0-2.1-0.5-2.9-1.2c-0.8-0.8-1.2-1.8-1.2-2.9v-14.1c0-1.1,0.5-2.1,1.2-2.9
		c0.8-0.8,1.8-1.2,2.9-1.2h4.7c0.1,0,0.1,0,0.2,0c0.2-0.1,0.5-0.1,0.7-0.1c0.2,0,0.5,0,0.7,0.1c0.5,0.2,0.8,0.5,1,0.9
		c0.1,0.2,0.1,0.5,0.1,0.7s0,0.5-0.1,0.7c-0.2,0.5-0.6,0.8-1,0.9c-0.2,0.1-0.5,0.2-0.8,0.2c-0.2,0-0.6,0.1-0.8,0.1h-4.7
		c-0.1,0-0.3,0.1-0.5,0.2c-0.1,0.1-0.2,0.2-0.2,0.5V394c0,0.1,0.1,0.3,0.2,0.5c0.1,0.1,0.2,0.2,0.5,0.2h7.1c0.5,0,0.9,0.2,1.2,0.6
		c0.3,0.3,0.6,0.8,0.6,1.2s-0.2,0.9-0.6,1.2s-0.8,0.6-1.2,0.6h-7.1L819.1,398.1L819.1,398.1z M826.2,396.9c0.1,0,0.3-0.1,0.5-0.2
		c0.1-0.1,0.2-0.2,0.2-0.5c0-0.1-0.1-0.3-0.2-0.5c-0.1-0.1-0.2-0.2-0.5-0.2h-7.1c-0.5,0-0.9-0.2-1.2-0.6c-0.3-0.3-0.6-0.8-0.6-1.2
		v-14.1c0-0.5,0.2-0.9,0.6-1.2c0.3-0.3,0.8-0.6,1.2-0.6h4.7c0.2,0,0.3,0,0.6,0c0.2,0,0.3-0.1,0.6-0.1c0.1-0.1,0.2-0.1,0.3-0.3
		c0-0.1,0-0.1,0-0.2c0-0.1,0-0.1,0-0.2c-0.1-0.1-0.1-0.2-0.3-0.3c-0.1,0-0.1,0-0.2,0s-0.1,0-0.2,0s-0.2,0.1-0.3,0.1
		c-0.1,0-0.2,0-0.3,0h-4.7c-0.8,0-1.5,0.3-2,0.9c-0.6,0.6-0.9,1.2-0.9,2v14.1c0,0.8,0.3,1.5,0.9,2c0.6,0.6,1.2,0.9,2,0.9h7.1V396.9z
		 M819.1,388.6v-1.1h4.7c0.1,0,0.3-0.1,0.5-0.2c0.1-0.1,0.2-0.2,0.2-0.5c0-0.1-0.1-0.3-0.2-0.5c-0.1-0.1-0.2-0.2-0.5-0.2h-4.7V385
		h4.7c0.5,0,0.9,0.2,1.2,0.6c0.3,0.3,0.6,0.8,0.6,1.2s-0.2,0.9-0.6,1.2c-0.3,0.3-0.8,0.6-1.2,0.6H819.1z"/>
	<path class="st13" d="M831,398.1c-0.5,0-0.9-0.2-1.2-0.6c-0.3-0.3-0.6-0.8-0.6-1.2v-16.5c0-1.1,0.5-2.1,1.2-2.9
		c0.8-0.8,1.8-1.2,2.9-1.2h4.7c1.1,0,2,0.5,2.8,1.2c0.8,0.8,1.2,1.8,1.2,2.9h0.1v4.7c0,1.1-0.5,2.1-1.2,2.9
		c-0.8,0.8-1.8,1.2-2.9,1.2h-2.4c-0.5,0-0.9-0.2-1.2-0.6s-0.6-0.8-0.6-1.2s0.2-0.9,0.6-1.2c0.3-0.3,0.8-0.6,1.2-0.6h2.4
		c0.1,0,0.3-0.1,0.5-0.2c0.1-0.1,0.2-0.2,0.2-0.5v-4.7h-0.1c0-0.1-0.1-0.3-0.2-0.5c-0.1-0.1-0.2-0.2-0.5-0.2h-4.6
		c-0.1,0-0.3,0.1-0.5,0.2c-0.1,0.1-0.2,0.2-0.2,0.5v16.5c0,0.5-0.2,0.9-0.6,1.2C831.8,397.8,831.6,398.1,831,398.1z M831,396.9
		c0.1,0,0.3-0.1,0.5-0.2c0.1-0.1,0.2-0.2,0.2-0.5v-16.5c0-0.5,0.2-0.9,0.6-1.2c0.3-0.3,0.8-0.6,1.2-0.6h4.7l0,0
		c0.5,0,0.9,0.2,1.2,0.6c0.3,0.3,0.6,0.8,0.6,1.2h0.1v4.7c0,0.5-0.2,0.9-0.6,1.2c-0.3,0.3-0.8,0.6-1.2,0.6H836
		c-0.1,0-0.3,0.1-0.5,0.2c-0.1,0.1-0.2,0.2-0.2,0.5c0,0.1,0.1,0.3,0.2,0.5c0.1,0.1,0.2,0.2,0.5,0.2h2.4c0.8,0,1.5-0.3,2-0.9
		c0.6-0.6,0.9-1.2,0.9-2V380h-0.1c0-0.8-0.3-1.5-0.9-2c-0.6-0.6-1.2-0.9-2-0.9h-4.6c-0.8,0-1.5,0.3-2,0.9c-0.6,0.6-0.9,1.2-0.9,2
		v16.5C830.7,396.5,830.8,396.8,831,396.9C830.8,396.9,830.9,396.9,831,396.9z M840.5,398.1c-0.5,0-0.9-0.2-1.2-0.6
		c-0.3-0.3-0.6-0.8-0.6-1.2v-7.1h1.1v7.1c0,0.1,0.1,0.3,0.2,0.5c0.1,0.1,0.2,0.2,0.5,0.2c0.1,0,0.3-0.1,0.5-0.2
		c0.1-0.1,0.2-0.2,0.2-0.5v-7.1c0-0.1,0-0.2,0-0.3c0.3-0.2,0.7-0.6,1-0.9c0.1,0.2,0.1,0.3,0.1,0.6s0,0.5,0,0.6v7.1
		c0,0.5-0.2,0.9-0.6,1.2C841.4,397.9,841,398.1,840.5,398.1z"/>
	<path class="st13" d="M852.2,398.1c-0.5,0-0.9-0.2-1.2-0.6c-0.3-0.3-0.6-0.8-0.6-1.2v-16.5c0-1.1,0.5-2.1,1.2-2.9
		c0.8-0.8,1.8-1.2,2.9-1.2h4.7c1.1,0,2,0.5,2.8,1.2c0.8,0.8,1.2,1.8,1.2,2.9h0.1v9.4c0,1.1-0.5,2.1-1.2,2.9
		c-0.8,0.8-1.8,1.2-2.9,1.2H857c-0.5,0-0.9-0.2-1.2-0.6c-0.3-0.3-0.6-0.8-0.6-1.2s0.2-0.9,0.6-1.2c0.3-0.3,0.8-0.6,1.2-0.6h2.4
		c0.1,0,0.3-0.1,0.5-0.2c0.1-0.1,0.2-0.2,0.2-0.5v-9.4h-0.1c0-0.1-0.1-0.3-0.2-0.5c-0.1-0.1-0.2-0.2-0.5-0.2h-4.6
		c-0.1,0-0.3,0.1-0.5,0.2c-0.1,0.1-0.2,0.2-0.2,0.5v16.5c0,0.5-0.2,0.9-0.6,1.2C853,397.8,852.7,398.1,852.2,398.1z M852.2,396.9
		c0.1,0,0.3-0.1,0.5-0.2c0.1-0.1,0.2-0.2,0.2-0.5v-16.5c0-0.5,0.2-0.9,0.6-1.2c0.3-0.3,0.8-0.6,1.2-0.6h4.7l0,0
		c0.5,0,0.9,0.2,1.2,0.6c0.3,0.3,0.6,0.8,0.6,1.2h0.1v9.4c0,0.5-0.2,0.9-0.6,1.2c-0.3,0.3-0.8,0.6-1.2,0.6h-2.4
		c-0.1,0-0.3,0.1-0.5,0.2c-0.1,0.1-0.2,0.2-0.2,0.5c0,0.1,0.1,0.3,0.2,0.5c0.1,0.1,0.2,0.2,0.5,0.2h2.4c0.8,0,1.5-0.3,2-0.9
		c0.6-0.6,0.9-1.2,0.9-2V380h-0.3c0-0.8-0.3-1.5-0.9-2c-0.6-0.6-1.2-0.9-2-0.9h-4.6c-0.8,0-1.5,0.3-2,0.9c-0.6,0.6-0.9,1.2-0.9,2
		v16.5c0,0.1,0.1,0.3,0.2,0.5C851.9,396.9,852.1,396.9,852.2,396.9z"/>
	<path class="st13" d="M878.5,398.1c-0.5,0-0.9-0.2-1.2-0.6c-0.3-0.3-0.6-0.8-0.6-1.2v-16.5h-0.1c0-0.1-0.1-0.3-0.2-0.5
		c-0.1-0.1-0.2-0.2-0.5-0.2h-4.6c-0.1,0-0.3,0.1-0.5,0.2c-0.1,0.1-0.2,0.2-0.2,0.5V394c0,0.2,0,0.6-0.1,0.8c0,0.2-0.1,0.6-0.2,0.8
		c-0.2,0.5-0.5,0.8-0.9,0.9c-0.2,0.1-0.5,0.1-0.7,0.1c-0.2,0-0.5,0-0.7-0.1c-0.5-0.2-0.8-0.5-0.9-0.9c-0.1-0.2-0.1-0.5-0.1-0.7
		s0-0.5,0.1-0.7c0-0.1,0-0.1,0-0.2v-14.1c0-1.1,0.5-2.1,1.2-2.9c0.8-0.8,1.8-1.2,2.9-1.2h4.7c1.1,0,2,0.5,2.8,1.2
		c0.8,0.8,1.2,1.8,1.2,2.9h0.1v16.5c0,0.5-0.2,0.9-0.6,1.2C879.4,397.9,879,398.1,878.5,398.1z M878.5,396.9c0.1,0,0.3-0.1,0.5-0.2
		c0.1-0.1,0.2-0.2,0.2-0.5v-16.5h-0.1c0-0.8-0.3-1.5-0.9-2c-0.6-0.6-1.2-0.9-2-0.9h-4.6c-0.8,0-1.5,0.3-2,0.9
		c-0.6,0.6-0.9,1.2-0.9,2v14.1c0,0.1,0,0.2,0,0.3c0,0.1,0,0.2-0.1,0.3c0,0.1,0,0.1,0,0.2c0,0.1,0,0.1,0,0.2c0.1,0.1,0.1,0.2,0.3,0.3
		c0.1,0,0.1,0,0.2,0c0.1,0,0.1,0,0.2,0c0.1-0.1,0.2-0.2,0.3-0.3c0.1-0.2,0.1-0.3,0.1-0.6s0.1-0.3,0.1-0.6v-14.1
		c0-0.5,0.2-0.9,0.6-1.2c0.3-0.3,0.8-0.6,1.2-0.6h4.7l0,0c0.5,0,0.9,0.2,1.2,0.6c0.3,0.3,0.6,0.8,0.6,1.2h0.1v16.5
		c0,0.1,0.1,0.3,0.2,0.5C878.2,396.9,878.3,396.9,878.5,396.9z M871.4,386.3v-1.1h4.7v1.1H871.4z M871.4,388.6v-1.1h4.7v1.1H871.4z"
		/>
	<path class="st13" d="M886.8,398.1c-0.5,0-0.9-0.2-1.2-0.6c-0.3-0.3-0.6-0.8-0.6-1.2v-16.5c0-1.1,0.5-2.1,1.2-2.9
		c0.8-0.8,1.8-1.2,2.9-1.2h4.7c1.1,0,2,0.5,2.8,1.2c0.8,0.8,1.2,1.8,1.2,2.9h0.1v9.4c0,1.1-0.5,2.1-1.2,2.9
		c-0.8,0.8-1.8,1.2-2.9,1.2h-2.4c-0.5,0-0.9-0.2-1.2-0.6c-0.3-0.3-0.6-0.8-0.6-1.2s0.2-0.9,0.6-1.2c0.3-0.3,0.8-0.6,1.2-0.6h2.4
		c0.1,0,0.3-0.1,0.5-0.2c0.1-0.1,0.2-0.2,0.2-0.5v-9.4h-0.1c0-0.1-0.1-0.3-0.2-0.5c-0.1-0.1-0.2-0.2-0.5-0.2h-4.6
		c-0.1,0-0.3,0.1-0.5,0.2c-0.1,0.1-0.2,0.2-0.2,0.5v16.5c0,0.5-0.2,0.9-0.6,1.2C887.6,397.8,887.3,398.1,886.8,398.1z M886.8,396.9
		c0.1,0,0.3-0.1,0.5-0.2c0.1-0.1,0.2-0.2,0.2-0.5v-16.5c0-0.5,0.2-0.9,0.6-1.2c0.3-0.3,0.8-0.6,1.2-0.6h4.7l0,0
		c0.5,0,0.9,0.2,1.2,0.6c0.3,0.3,0.6,0.8,0.6,1.2h0.1v9.4c0,0.5-0.2,0.9-0.6,1.2c-0.3,0.3-0.8,0.6-1.2,0.6h-2.6
		c-0.1,0-0.3,0.1-0.5,0.2c-0.1,0.1-0.2,0.2-0.2,0.5c0,0.1,0.1,0.3,0.2,0.5c0.1,0.1,0.2,0.2,0.5,0.2h2.4c0.8,0,1.5-0.3,2-0.9
		c0.6-0.6,0.9-1.2,0.9-2V380h-0.1c0-0.8-0.3-1.5-0.9-2c-0.6-0.6-1.2-0.9-2-0.9h-4.6c-0.8,0-1.5,0.3-2,0.9c-0.6,0.6-0.9,1.2-0.9,2
		v16.5c0,0.1,0.1,0.3,0.2,0.5C886.6,396.9,886.7,396.9,886.8,396.9z"/>
	<path class="st13" d="M902.8,398.1c-0.5,0-0.9-0.2-1.2-0.6c-0.3-0.3-0.6-0.8-0.6-1.2s0.2-0.9,0.6-1.2c0.3-0.3,0.8-0.6,1.2-0.6h7.1
		c0.1,0,0.3-0.1,0.5-0.2c0.1-0.1,0.2-0.2,0.2-0.5v-4.7h-0.1c0-0.1-0.1-0.3-0.2-0.5c-0.1-0.1-0.2-0.2-0.5-0.2h-4.7
		c-1.1,0-2.1-0.5-2.9-1.2c-0.8-0.8-1.2-1.8-1.2-2.9v-4.7c0-1.1,0.5-2.1,1.2-2.9c0.8-0.8,1.8-1.2,2.9-1.2h4.7c0.2,0,0.6,0,0.8,0.1
		c0.2,0,0.6,0.1,0.8,0.2c0.5,0.2,0.8,0.5,1,0.9c0.1,0.2,0.1,0.5,0.1,0.7s0,0.5-0.1,0.7c-0.2,0.5-0.6,0.8-1,0.9
		c-0.2,0.1-0.5,0.1-0.7,0.1c-0.2,0-0.5,0-0.7-0.1c-0.1,0-0.1,0-0.2,0h-4.7c-0.1,0-0.3,0.1-0.5,0.2c-0.1,0.1-0.2,0.2-0.2,0.5v4.7
		c0,0.1,0.1,0.3,0.2,0.5c0.1,0.1,0.2,0.2,0.5,0.2h4.7c1.1,0,2,0.5,2.8,1.2c0.8,0.8,1.2,1.8,1.2,2.9h0.1v4.7c0,1.1-0.5,2.1-1.2,2.9
		c-0.8,0.8-1.8,1.2-2.9,1.2L902.8,398.1L902.8,398.1z M909.8,396.9c0.8,0,1.5-0.3,2-0.9s0.9-1.2,0.9-2v-4.7h-0.1
		c0-0.8-0.3-1.5-0.9-2c-0.6-0.6-1.2-0.9-2-0.9h-4.6c-0.5,0-0.9-0.2-1.2-0.6c-0.3-0.3-0.6-0.8-0.6-1.2v-4.7c0-0.5,0.2-0.9,0.6-1.2
		c0.3-0.3,0.8-0.6,1.2-0.6h4.7c0.1,0,0.2,0,0.3,0s0.2,0,0.3,0.1c0.1,0,0.1,0,0.2,0s0.1,0,0.2,0c0.1-0.1,0.2-0.1,0.3-0.3
		c0-0.1,0-0.1,0-0.2c0-0.1,0-0.1,0-0.2c-0.1-0.1-0.1-0.2-0.3-0.3c-0.2-0.1-0.3-0.1-0.6-0.1c-0.2,0-0.3-0.1-0.6-0.1h-4.7
		c-0.8,0-1.5,0.3-2,0.9c-0.6,0.6-0.9,1.2-0.9,2v4.7c0,0.8,0.3,1.5,0.9,2s1.2,0.9,2,0.9h4.7c0.5,0,0.9,0.2,1.2,0.6
		c0.3,0.3,0.6,0.8,0.6,1.2h0.1v4.7c0,0.5-0.2,0.9-0.6,1.2s-0.8,0.6-1.2,0.6h-7.1c-0.1,0-0.3,0.1-0.5,0.2c-0.1,0.1-0.2,0.2-0.2,0.5
		c0,0.1,0.1,0.3,0.2,0.5c0.1,0.1,0.2,0.2,0.5,0.2h7L909.8,396.9L909.8,396.9z"/>
</g>
</svg>
