<?xml version="1.0" encoding="utf-8"?>
<!-- Generator: Adobe Illustrator 19.0.0, SVG Export Plug-In . SVG Version: 6.00 Build 0)  -->
<svg version="1.1" id="Layer_1" xmlns="http://www.w3.org/2000/svg" xmlns:xlink="http://www.w3.org/1999/xlink" x="0px" y="0px"
	 viewBox="28 150 901 223" style="enable-background:new 28 150 901 223;" xml:space="preserve">
<style type="text/css">
	.st0{enable-background:new    ;}
	.st1{fill:#1F254E;}
	.st2{fill:#ED1B4C;}
	.st3{fill:#00A1CC;}
	.st4{fill:#46D3AA;}
	.st5{fill:#F6D76B;}
	.st6{fill:#E842A5;}
	.st7{fill:#00CCCC;}
	.st8{fill:#161C38;}
	.st9{fill:#1A2142;}
</style>
<g class="st0">
	<path class="st1" d="M717.7,714.7c-0.2,0-0.5,0-0.7-0.1c-0.5-0.2-0.8-0.5-0.9-0.9c-0.1-0.2-0.1-0.5-0.1-0.7s0-0.5,0.1-0.7
		c0-0.1,0-0.1,0-0.2V698c0-1.1,0.5-2.1,1.2-2.9c0.8-0.8,1.8-1.2,2.9-1.2h4.7c1.1,0,2,0.5,2.8,1.2c0.8,0.8,1.2,1.8,1.2,2.9h0.1v4.7
		c0,1.1-0.5,2.1-1.2,2.9c-0.8,0.8-1.8,1.2-2.9,1.2h-4.7v-1.1h4.7c0.8,0,1.5-0.3,2-0.9c0.6-0.6,0.9-1.2,0.9-2v-4.7h-0.1
		c0-0.8-0.3-1.5-0.9-2c-0.6-0.6-1.2-0.9-2-0.9h-4.6c-0.8,0-1.5,0.3-2,0.9c-0.6,0.6-0.9,1.2-0.9,2v14.1c0,0.1,0,0.2,0,0.3
		s0,0.2-0.1,0.3c0,0.1,0,0.1,0,0.2s0,0.1,0,0.2c0.1,0.1,0.1,0.2,0.3,0.3c0.1,0,0.1,0,0.2,0s0.1,0,0.2,0c0.1-0.1,0.2-0.2,0.3-0.3
		c0.1-0.2,0.1-0.3,0.1-0.6s0.1-0.3,0.1-0.6v-14.1c0-0.5,0.2-0.9,0.6-1.2c0.3-0.3,0.8-0.6,1.2-0.6h4.7l0,0c0.5,0,0.9,0.2,1.2,0.6
		c0.3,0.4,0.6,0.8,0.6,1.2h0.1v4.7c0,0.5-0.2,0.9-0.6,1.2c-0.3,0.3-0.8,0.6-1.2,0.6h-4.7v-1.1h4.7c0.1,0,0.3-0.1,0.5-0.2
		c0.1-0.1,0.2-0.2,0.2-0.5v-4.7h-0.1c0-0.1-0.1-0.3-0.2-0.5c-0.1-0.1-0.2-0.2-0.5-0.2h-4.6c-0.1,0-0.3,0.1-0.5,0.2
		c-0.1,0.1-0.2,0.2-0.2,0.5V712c0,0.2,0,0.6-0.1,0.8c0,0.2-0.1,0.6-0.2,0.8c-0.2,0.5-0.5,0.8-0.9,0.9
		C718.2,714.5,717.9,714.7,717.7,714.7z M722.6,716.1c-0.5,0-0.9-0.2-1.2-0.6c-0.3-0.3-0.6-0.8-0.6-1.2s0.2-0.9,0.6-1.2
		c0.3-0.3,0.8-0.6,1.2-0.6h2.4c0.1,0,0.3-0.1,0.5-0.2c0.1-0.1,0.2-0.2,0.2-0.5v-4.7h1.1v4.7c0,0.5-0.2,0.9-0.6,1.2
		c-0.3,0.3-0.8,0.6-1.2,0.6h-2.4c-0.1,0-0.3,0.1-0.5,0.2c-0.1,0.1-0.2,0.2-0.2,0.5c0,0.1,0.1,0.3,0.2,0.5c0.1,0.1,0.2,0.2,0.5,0.2
		h2.4c0.8,0,1.5-0.3,2-0.9c0.6-0.6,0.9-1.2,0.9-2v-4.7c0-0.1,0-0.2,0-0.3c0.3-0.2,0.7-0.6,1-0.9c0.1,0.2,0.1,0.3,0.1,0.6
		s0,0.5,0,0.6v4.7c0,1.1-0.5,2.1-1.2,2.9c-0.8,0.8-1.8,1.2-2.9,1.2L722.6,716.1L722.6,716.1z"/>
	<path class="st1" d="M738.7,716.1c-0.5,0-0.9-0.2-1.2-0.6c-0.3-0.3-0.6-0.8-0.6-1.2v-7.1c0-0.1-0.1-0.3-0.2-0.5
		c-0.1-0.1-0.2-0.2-0.5-0.2c-1.1,0-2.1-0.5-2.9-1.2c-0.8-0.8-1.2-1.8-1.2-2.9v-7.1c0-0.5,0.2-0.9,0.6-1.2c0.3-0.3,0.8-0.6,1.2-0.6
		s0.9,0.2,1.2,0.6c0.3,0.3,0.6,0.8,0.6,1.2v7.1c0,0.1,0.1,0.3,0.2,0.5c0.1,0.1,0.2,0.2,0.5,0.2c1.1,0,2.1,0.5,2.9,1.2
		c0.8,0.8,1.2,1.8,1.2,2.9v7.1c0,0.5-0.2,0.9-0.6,1.2C739.6,715.9,739.2,716.1,738.7,716.1z M738.7,714.9c0.1,0,0.3-0.1,0.5-0.2
		c0.1-0.1,0.2-0.2,0.2-0.5v-7.1c0-0.8-0.3-1.5-0.9-2c-0.6-0.6-1.2-0.9-2-0.9c-0.5,0-0.9-0.2-1.2-0.6c-0.3-0.3-0.6-0.8-0.6-1.2v-7.1
		c0-0.1-0.1-0.3-0.2-0.5c-0.1-0.1-0.2-0.2-0.5-0.2c-0.1,0-0.3,0.1-0.5,0.2c-0.1,0.1-0.2,0.2-0.2,0.5v7.1c0,0.8,0.3,1.5,0.9,2
		c0.6,0.6,1.2,0.9,2,0.9c0.5,0,0.9,0.2,1.2,0.6c0.3,0.3,0.6,0.8,0.6,1.2v7.1c0,0.1,0.1,0.3,0.2,0.5
		C738.4,714.9,738.6,714.9,738.7,714.9z M741.1,705.5c0.8,0,1.5-0.3,2-0.9c0.6-0.6,0.9-1.2,0.9-2v-7.1c0-0.1-0.1-0.3-0.2-0.5
		c-0.1-0.1-0.2-0.2-0.5-0.2c-0.1,0-0.3,0.1-0.5,0.2c-0.1,0.1-0.2,0.2-0.2,0.5v7.1c0,0.5-0.2,0.9-0.6,1.2c-0.3,0.3-0.8,0.6-1.2,0.6
		c-0.1,0-0.2,0-0.3,0c-0.2-0.3-0.6-0.7-0.9-1c0.2-0.1,0.3-0.1,0.6-0.1c0.2,0,0.5,0,0.6,0s0.3-0.1,0.5-0.2c0.1-0.1,0.2-0.2,0.2-0.5
		v-7.1c0-0.5,0.2-0.9,0.6-1.2s0.8-0.6,1.2-0.6c0.5,0,0.9,0.2,1.2,0.6c0.3,0.3,0.6,0.8,0.6,1.2v7.1c0,1.1-0.5,2.1-1.2,2.9
		c-0.8,0.8-1.8,1.2-2.9,1.2v-1.2H741.1L741.1,705.5z"/>
	<path class="st1" d="M755.2,716.1c-0.5,0-0.9-0.2-1.2-0.6c-0.3-0.3-0.6-0.8-0.6-1.2v-16.5c0-1.1,0.5-2.1,1.2-2.9
		c0.8-0.8,1.8-1.2,2.9-1.2h4.7c1.1,0,2.1,0.5,2.9,1.2c0.8,0.8,1.2,1.8,1.2,2.9v11.7c0,0.5-0.2,0.9-0.6,1.2s-0.8,0.6-1.2,0.6
		c-0.5,0-0.9-0.2-1.2-0.6c-0.3-0.3-0.6-0.8-0.6-1.2v-11.7c0-0.1-0.1-0.3-0.2-0.5c-0.1-0.1-0.2-0.2-0.5-0.2h-4.7
		c-0.1,0-0.3,0.1-0.5,0.2c-0.1,0.1-0.2,0.2-0.2,0.5v16.5c0,0.5-0.2,0.9-0.6,1.2C755.9,715.9,755.6,716.1,755.2,716.1z M755.2,714.9
		c0.1,0,0.3-0.1,0.5-0.2c0.1-0.1,0.2-0.2,0.2-0.5v-16.5c0-0.5,0.2-0.9,0.6-1.2c0.3-0.3,0.8-0.6,1.2-0.6h4.7c0.5,0,0.9,0.2,1.2,0.6
		c0.3,0.3,0.6,0.8,0.6,1.2v11.7c0,0.1,0.1,0.3,0.2,0.5c0.1,0.1,0.2,0.2,0.5,0.2c0.1,0,0.3-0.1,0.5-0.2c0.1-0.1,0.2-0.2,0.2-0.5
		v-11.7c0-0.8-0.3-1.5-0.9-2c-0.6-0.6-1.2-0.9-2-0.9H758c-0.8,0-1.5,0.3-2,0.9c-0.6,0.6-0.9,1.2-0.9,2v16.5c0,0.1,0.1,0.3,0.2,0.5
		C754.8,714.9,755.1,714.9,755.2,714.9z M774,716.1c-0.5,0-0.9-0.2-1.2-0.6c-0.3-0.3-0.6-0.8-0.6-1.2v-16.5h-0.1
		c0-0.1-0.1-0.3-0.2-0.5c-0.1-0.1-0.2-0.2-0.5-0.2h-4.6V696h4.7l0,0c0.5,0,0.9,0.2,1.2,0.6c0.3,0.3,0.6,0.8,0.6,1.2h0.1v16.5
		c0,0.1,0.1,0.3,0.2,0.5c0.1,0.1,0.2,0.2,0.5,0.2c0.1,0,0.3-0.1,0.5-0.2c0.1-0.1,0.2-0.2,0.2-0.5v-16.5h-0.1c0-0.8-0.3-1.5-0.9-2
		c-0.6-0.6-1.2-0.9-2-0.9h-4.6c-0.1,0-0.2,0-0.3,0c-0.2-0.3-0.6-0.7-0.9-1c0.2,0,0.3-0.1,0.6-0.1c0.2,0,0.5,0,0.6,0h4.7
		c1.1,0,2,0.5,2.8,1.2c0.8,0.8,1.2,1.8,1.2,2.9h0.1v16.5c0,0.5-0.2,0.9-0.6,1.2C775,716,774.5,716.1,774,716.1z"/>
	<path class="st1" d="M782.4,716.1c-0.5,0-0.9-0.2-1.2-0.6c-0.3-0.3-0.6-0.8-0.6-1.2v-18.8c0-0.5,0.2-0.9,0.6-1.2
		c0.3-0.3,0.8-0.6,1.2-0.6c0.5,0,0.9,0.2,1.2,0.6c0.3,0.3,0.6,0.8,0.6,1.2v18.8c0,0.5-0.2,0.9-0.6,1.2
		C783.3,715.9,782.8,716.1,782.4,716.1z M782.4,714.9c0.1,0,0.3-0.1,0.5-0.2c0.1-0.1,0.2-0.2,0.2-0.5v-18.8c0-0.1-0.1-0.3-0.2-0.5
		c-0.1-0.1-0.2-0.2-0.5-0.2c-0.1,0-0.3,0.1-0.5,0.2c-0.1,0.1-0.2,0.2-0.2,0.5v18.8c0,0.1,0.1,0.3,0.2,0.5
		C782,714.9,782.2,714.9,782.4,714.9z"/>
	<path class="st1" d="M789.5,716.1c-0.5,0-0.9-0.2-1.2-0.6c-0.3-0.3-0.6-0.8-0.6-1.2s0.2-0.9,0.6-1.2s0.8-0.6,1.2-0.6h7.1
		c0.1,0,0.3-0.1,0.5-0.2c0.1-0.1,0.2-0.2,0.2-0.5v-4.7h-0.1c0-0.1-0.1-0.3-0.2-0.5c-0.1-0.1-0.2-0.2-0.5-0.2h-4.6
		c-1.1,0-2.1-0.5-2.9-1.2c-0.8-0.8-1.2-1.8-1.2-2.9v-4.7c0-1.1,0.5-2.1,1.2-2.9c0.8-0.8,1.8-1.2,2.9-1.2h4.7c0.2,0,0.6,0,0.8,0.1
		c0.2,0,0.6,0.1,0.8,0.2c0.5,0.2,0.8,0.5,1,0.9c0.1,0.2,0.1,0.5,0.1,0.7s0,0.5-0.1,0.7c-0.2,0.5-0.6,0.8-1,0.9
		c-0.2,0.1-0.5,0.1-0.7,0.1s-0.5,0-0.7-0.1c-0.1,0-0.1,0-0.2,0h-4.7c-0.1,0-0.3,0.1-0.5,0.2c-0.1,0.1-0.2,0.2-0.2,0.5v4.7
		c0,0.1,0.1,0.3,0.2,0.5c0.1,0.1,0.2,0.2,0.5,0.2h4.7c1.1,0,2,0.5,2.8,1.2c0.8,0.8,1.2,1.8,1.2,2.9h0.1v4.7c0,1.1-0.5,2.1-1.2,2.9
		c-0.8,0.8-1.8,1.2-2.9,1.2L789.5,716.1L789.5,716.1L789.5,716.1z M796.6,714.9c0.8,0,1.5-0.3,2-0.9c0.6-0.6,0.9-1.2,0.9-2v-4.7
		h-0.1c0-0.8-0.3-1.5-0.9-2c-0.6-0.6-1.2-0.9-2-0.9h-4.6c-0.5,0-0.9-0.2-1.2-0.6c-0.3-0.3-0.6-0.8-0.6-1.2v-4.7
		c0-0.5,0.2-0.9,0.6-1.2s0.8-0.6,1.2-0.6h4.7c0.1,0,0.2,0,0.3,0s0.2,0,0.3,0.1c0.1,0,0.1,0,0.2,0s0.1,0,0.2,0
		c0.1-0.1,0.2-0.1,0.3-0.3c0-0.1,0-0.1,0-0.2s0-0.1,0-0.2c-0.1-0.1-0.1-0.2-0.3-0.3s-0.3-0.1-0.6-0.1s-0.3-0.1-0.6-0.1h-4.7
		c-0.8,0-1.5,0.3-2,0.9c-0.6,0.6-0.9,1.2-0.9,2v4.7c0,0.8,0.3,1.5,0.9,2c0.6,0.6,1.2,0.9,2,0.9h4.7c0.5,0,0.9,0.2,1.2,0.6
		c0.3,0.3,0.6,0.8,0.6,1.2h0.1v4.7c0,0.5-0.2,0.9-0.6,1.2c-0.4,0.3-0.8,0.6-1.2,0.6h-7.1c-0.1,0-0.3,0.1-0.5,0.2
		c-0.1,0.1-0.2,0.2-0.2,0.5c0,0.1,0.1,0.3,0.2,0.5c0.1,0.1,0.2,0.2,0.5,0.2h7L796.6,714.9L796.6,714.9z"/>
	<path class="st1" d="M802.6,697.3c-0.5,0-0.9-0.2-1.2-0.6c-0.3-0.3-0.6-0.8-0.6-1.2s0.2-0.9,0.6-1.2c0.3-0.3,0.8-0.6,1.2-0.6h3.7
		c-0.5,0.3-0.8,0.7-1.1,1.1h-2.7c-0.1,0-0.3,0.1-0.5,0.2c-0.1,0.1-0.2,0.2-0.2,0.5c0,0.1,0.1,0.3,0.2,0.5c0.1,0.1,0.2,0.2,0.5,0.2
		h2.4v1.1H802.6z M807.3,716.1c-0.5,0-0.9-0.2-1.2-0.6c-0.3-0.3-0.6-0.8-0.6-1.2v-16.5c0-1.1,0.5-2.1,1.2-2.9
		c0.8-0.8,1.8-1.2,2.9-1.2h2.4c0.5,0,0.9,0.2,1.2,0.6c0.3,0.3,0.6,0.8,0.6,1.2s-0.2,0.9-0.6,1.2c-0.3,0.3-0.8,0.6-1.2,0.6h-2.4
		c-0.1,0-0.3,0.1-0.5,0.2c-0.1,0.1-0.2,0.2-0.2,0.5v16.5c0,0.5-0.2,0.9-0.6,1.2C808.2,715.9,807.8,716.1,807.3,716.1z M807.3,714.9
		c0.1,0,0.3-0.1,0.5-0.2c0.1-0.1,0.2-0.2,0.2-0.5v-16.5c0-0.5,0.2-0.9,0.6-1.2c0.3-0.3,0.8-0.6,1.2-0.6h2.4c0.1,0,0.3-0.1,0.5-0.2
		c0.1-0.1,0.2-0.2,0.2-0.5c0-0.1-0.1-0.3-0.2-0.5c-0.1-0.1-0.2-0.2-0.5-0.2h-2.4c-0.8,0-1.5,0.3-2,0.9c-0.6,0.6-0.9,1.2-0.9,2V714
		c0,0.1,0.1,0.3,0.2,0.5C807,714.9,807.1,714.9,807.3,714.9z"/>
	<path class="st1" d="M819.1,716.1c-1.1,0-2.1-0.5-2.9-1.2c-0.8-0.8-1.2-1.8-1.2-2.9v-14.1c0-1.1,0.5-2.1,1.2-2.9
		c0.8-0.8,1.8-1.2,2.9-1.2h4.7c0.1,0,0.1,0,0.2,0c0.2-0.1,0.5-0.1,0.7-0.1s0.5,0,0.7,0.1c0.5,0.2,0.8,0.5,1,0.9
		c0.1,0.2,0.1,0.5,0.1,0.7s0,0.5-0.1,0.7c-0.2,0.5-0.6,0.8-1,0.9c-0.2,0.1-0.5,0.2-0.8,0.2c-0.2,0-0.6,0.1-0.8,0.1h-4.7
		c-0.1,0-0.3,0.1-0.5,0.2c-0.1,0.1-0.2,0.2-0.2,0.5v14c0,0.1,0.1,0.3,0.2,0.5c0.1,0.1,0.2,0.2,0.5,0.2h7.1c0.5,0,0.9,0.2,1.2,0.6
		c0.3,0.3,0.6,0.8,0.6,1.2s-0.2,0.9-0.6,1.2c-0.4,0.3-0.8,0.6-1.2,0.6h-7.1L819.1,716.1L819.1,716.1z M826.2,714.9
		c0.1,0,0.3-0.1,0.5-0.2c0.1-0.1,0.2-0.2,0.2-0.5c0-0.1-0.1-0.3-0.2-0.5c-0.1-0.1-0.2-0.2-0.5-0.2h-7.1c-0.5,0-0.9-0.2-1.2-0.6
		c-0.3-0.3-0.6-0.8-0.6-1.2v-14.1c0-0.5,0.2-0.9,0.6-1.2c0.3-0.3,0.8-0.6,1.2-0.6h4.7c0.2,0,0.3,0,0.6,0c0.2,0,0.3-0.1,0.6-0.1
		c0.1-0.1,0.2-0.1,0.3-0.3c0-0.1,0-0.1,0-0.2c0-0.1,0-0.1,0-0.2c-0.1-0.1-0.1-0.2-0.3-0.3c-0.1,0-0.1,0-0.2,0s-0.1,0-0.2,0
		s-0.2,0.1-0.3,0.1s-0.2,0-0.3,0h-4.7c-0.8,0-1.5,0.3-2,0.9c-0.6,0.6-0.9,1.2-0.9,2v14.1c0,0.8,0.3,1.5,0.9,2c0.6,0.6,1.2,0.9,2,0.9
		h7.1v0.2L826.2,714.9L826.2,714.9z M819.1,706.6v-1.1h4.7c0.1,0,0.3-0.1,0.5-0.2c0.1-0.1,0.2-0.2,0.2-0.5c0-0.1-0.1-0.3-0.2-0.5
		c-0.1-0.1-0.2-0.2-0.5-0.2h-4.7V703h4.7c0.5,0,0.9,0.2,1.2,0.6c0.3,0.3,0.6,0.8,0.6,1.2s-0.2,0.9-0.6,1.2c-0.3,0.3-0.8,0.6-1.2,0.6
		H819.1L819.1,706.6z"/>
	<path class="st1" d="M831,716.1c-0.5,0-0.9-0.2-1.2-0.6c-0.3-0.3-0.6-0.8-0.6-1.2v-16.5c0-1.1,0.5-2.1,1.2-2.9
		c0.8-0.8,1.8-1.2,2.9-1.2h4.7c1.1,0,2,0.5,2.8,1.2c0.8,0.8,1.2,1.8,1.2,2.9h0.1v4.7c0,1.1-0.5,2.1-1.2,2.9
		c-0.8,0.8-1.8,1.2-2.9,1.2h-2.4c-0.5,0-0.9-0.2-1.2-0.6s-0.6-0.8-0.6-1.2s0.2-0.9,0.6-1.2c0.3-0.3,0.8-0.6,1.2-0.6h2.4
		c0.1,0,0.3-0.1,0.5-0.2c0.1-0.1,0.2-0.2,0.2-0.5v-4.7h-0.1c0-0.1-0.1-0.3-0.2-0.5c-0.1-0.1-0.2-0.2-0.5-0.2h-4.6
		c-0.1,0-0.3,0.1-0.5,0.2c-0.1,0.1-0.2,0.2-0.2,0.5v16.5c0,0.5-0.2,0.9-0.6,1.2C831.8,715.8,831.6,716.1,831,716.1z M831,714.9
		c0.1,0,0.3-0.1,0.5-0.2c0.1-0.1,0.2-0.2,0.2-0.5v-16.5c0-0.5,0.2-0.9,0.6-1.2c0.3-0.3,0.8-0.6,1.2-0.6h4.7l0,0
		c0.5,0,0.9,0.2,1.2,0.6c0.3,0.3,0.6,0.8,0.6,1.2h0.1v4.7c0,0.5-0.2,0.9-0.6,1.2c-0.3,0.3-0.8,0.6-1.2,0.6H836
		c-0.1,0-0.3,0.1-0.5,0.2c-0.1,0.1-0.2,0.2-0.2,0.5c0,0.1,0.1,0.3,0.2,0.5c0.1,0.1,0.2,0.2,0.5,0.2h2.4c0.8,0,1.5-0.3,2-0.9
		c0.6-0.6,0.9-1.2,0.9-2V698h-0.1c0-0.8-0.3-1.5-0.9-2c-0.6-0.6-1.2-0.9-2-0.9h-4.6c-0.8,0-1.5,0.3-2,0.9c-0.6,0.6-0.9,1.2-0.9,2
		v16.5C830.7,714.5,830.8,714.8,831,714.9C830.8,714.9,830.9,714.9,831,714.9z M840.5,716.1c-0.5,0-0.9-0.2-1.2-0.6
		c-0.3-0.3-0.6-0.8-0.6-1.2v-7.1h1.1v7.1c0,0.1,0.1,0.3,0.2,0.5c0.1,0.1,0.2,0.2,0.5,0.2c0.1,0,0.3-0.1,0.5-0.2
		c0.1-0.1,0.2-0.2,0.2-0.5v-7.1c0-0.1,0-0.2,0-0.3c0.3-0.2,0.7-0.6,1-0.9c0.1,0.2,0.1,0.3,0.1,0.6s0,0.5,0,0.6v7.1
		c0,0.5-0.2,0.9-0.6,1.2C841.4,715.9,841,716.1,840.5,716.1z"/>
	<path class="st1" d="M852.2,716.1c-0.5,0-0.9-0.2-1.2-0.6c-0.3-0.3-0.6-0.8-0.6-1.2v-16.5c0-1.1,0.5-2.1,1.2-2.9
		c0.8-0.8,1.8-1.2,2.9-1.2h4.7c1.1,0,2,0.5,2.8,1.2c0.8,0.8,1.2,1.8,1.2,2.9h0.1v9.4c0,1.1-0.5,2.1-1.2,2.9
		c-0.8,0.8-1.8,1.2-2.9,1.2H857c-0.5,0-0.9-0.2-1.2-0.6c-0.3-0.3-0.6-0.8-0.6-1.2s0.2-0.9,0.6-1.2c0.3-0.3,0.8-0.6,1.2-0.6h2.4
		c0.1,0,0.3-0.1,0.5-0.2c0.1-0.1,0.2-0.2,0.2-0.5v-9.4H860c0-0.1-0.1-0.3-0.2-0.5c-0.1-0.1-0.2-0.2-0.5-0.2h-4.6
		c-0.1,0-0.3,0.1-0.5,0.2c-0.1,0.1-0.2,0.2-0.2,0.5v16.5c0,0.5-0.2,0.9-0.6,1.2C853,715.8,852.7,716.1,852.2,716.1z M852.2,714.9
		c0.1,0,0.3-0.1,0.5-0.2c0.1-0.1,0.2-0.2,0.2-0.5v-16.5c0-0.5,0.2-0.9,0.6-1.2c0.3-0.3,0.8-0.6,1.2-0.6h4.7l0,0
		c0.5,0,0.9,0.2,1.2,0.6c0.3,0.3,0.6,0.8,0.6,1.2h0.1v9.4c0,0.5-0.2,0.9-0.6,1.2c-0.3,0.3-0.8,0.6-1.2,0.6h-2.4
		c-0.1,0-0.3,0.1-0.5,0.2c-0.1,0.1-0.2,0.2-0.2,0.5c0,0.1,0.1,0.3,0.2,0.5c0.1,0.1,0.2,0.2,0.5,0.2h2.4c0.8,0,1.5-0.3,2-0.9
		c0.6-0.6,0.9-1.2,0.9-2V698h-0.3c0-0.8-0.3-1.5-0.9-2c-0.6-0.6-1.2-0.9-2-0.9h-4.6c-0.8,0-1.5,0.3-2,0.9c-0.6,0.6-0.9,1.2-0.9,2
		v16.5c0,0.1,0.1,0.3,0.2,0.5C851.9,714.9,852.1,714.9,852.2,714.9z"/>
	<path class="st1" d="M878.5,716.1c-0.5,0-0.9-0.2-1.2-0.6c-0.3-0.3-0.6-0.8-0.6-1.2v-16.5h-0.1c0-0.1-0.1-0.3-0.2-0.5
		c-0.1-0.1-0.2-0.2-0.5-0.2h-4.6c-0.1,0-0.3,0.1-0.5,0.2c-0.1,0.1-0.2,0.2-0.2,0.5V712c0,0.2,0,0.6-0.1,0.8c0,0.2-0.1,0.6-0.2,0.8
		c-0.2,0.5-0.5,0.8-0.9,0.9c-0.2,0.1-0.5,0.1-0.7,0.1s-0.5,0-0.7-0.1c-0.5-0.2-0.8-0.5-0.9-0.9c-0.1-0.2-0.1-0.5-0.1-0.7
		s0-0.5,0.1-0.7c0-0.1,0-0.1,0-0.2v-14.1c0-1.1,0.5-2.1,1.2-2.9c0.8-0.8,1.8-1.2,2.9-1.2h4.7c1.1,0,2,0.5,2.8,1.2
		c0.8,0.8,1.2,1.8,1.2,2.9h0.1v16.5c0,0.5-0.2,0.9-0.6,1.2C879.4,715.9,879,716.1,878.5,716.1z M878.5,714.9c0.1,0,0.3-0.1,0.5-0.2
		c0.1-0.1,0.2-0.2,0.2-0.5v-16.5h-0.1c0-0.8-0.3-1.5-0.9-2c-0.6-0.6-1.2-0.9-2-0.9h-4.6c-0.8,0-1.5,0.3-2,0.9
		c-0.6,0.6-0.9,1.2-0.9,2v14.1c0,0.1,0,0.2,0,0.3s0,0.2-0.1,0.3c0,0.1,0,0.1,0,0.2s0,0.1,0,0.2c0.1,0.1,0.1,0.2,0.3,0.3
		c0.1,0,0.1,0,0.2,0c0.1,0,0.1,0,0.2,0c0.1-0.1,0.2-0.2,0.3-0.3c0.1-0.2,0.1-0.3,0.1-0.6s0.1-0.3,0.1-0.6v-14.1
		c0-0.5,0.2-0.9,0.6-1.2c0.3-0.3,0.8-0.6,1.2-0.6h4.7l0,0c0.5,0,0.9,0.2,1.2,0.6c0.3,0.3,0.6,0.8,0.6,1.2h0.1V714
		c0,0.1,0.1,0.3,0.2,0.5C878.2,714.9,878.3,714.9,878.5,714.9z M871.4,704.3v-1.1h4.7v1.1H871.4z M871.4,706.6v-1.1h4.7v1.1H871.4z"
		/>
	<path class="st1" d="M886.8,716.1c-0.5,0-0.9-0.2-1.2-0.6c-0.3-0.3-0.6-0.8-0.6-1.2v-16.5c0-1.1,0.5-2.1,1.2-2.9
		c0.8-0.8,1.8-1.2,2.9-1.2h4.7c1.1,0,2,0.5,2.8,1.2c0.8,0.8,1.2,1.8,1.2,2.9h0.1v9.4c0,1.1-0.5,2.1-1.2,2.9
		c-0.8,0.8-1.8,1.2-2.9,1.2h-2.4c-0.5,0-0.9-0.2-1.2-0.6c-0.3-0.3-0.6-0.8-0.6-1.2s0.2-0.9,0.6-1.2c0.3-0.3,0.8-0.6,1.2-0.6h2.4
		c0.1,0,0.3-0.1,0.5-0.2c0.1-0.1,0.2-0.2,0.2-0.5v-9.4h-0.1c0-0.1-0.1-0.3-0.2-0.5c-0.1-0.1-0.2-0.2-0.5-0.2h-4.6
		c-0.1,0-0.3,0.1-0.5,0.2c-0.1,0.1-0.2,0.2-0.2,0.5v16.5c0,0.5-0.2,0.9-0.6,1.2C887.6,715.8,887.3,716.1,886.8,716.1z M886.8,714.9
		c0.1,0,0.3-0.1,0.5-0.2c0.1-0.1,0.2-0.2,0.2-0.5v-16.5c0-0.5,0.2-0.9,0.6-1.2c0.3-0.3,0.8-0.6,1.2-0.6h4.7l0,0
		c0.5,0,0.9,0.2,1.2,0.6c0.3,0.3,0.6,0.8,0.6,1.2h0.1v9.4c0,0.5-0.2,0.9-0.6,1.2c-0.3,0.3-0.8,0.6-1.2,0.6h-2.6
		c-0.1,0-0.3,0.1-0.5,0.2c-0.1,0.1-0.2,0.2-0.2,0.5c0,0.1,0.1,0.3,0.2,0.5c0.1,0.1,0.2,0.2,0.5,0.2h2.4c0.8,0,1.5-0.3,2-0.9
		c0.6-0.6,0.9-1.2,0.9-2V698h-0.1c0-0.8-0.3-1.5-0.9-2c-0.6-0.6-1.2-0.9-2-0.9h-4.6c-0.8,0-1.5,0.3-2,0.9c-0.6,0.6-0.9,1.2-0.9,2
		v16.5c0,0.1,0.1,0.3,0.2,0.5C886.6,714.9,886.7,714.9,886.8,714.9z"/>
	<path class="st1" d="M902.8,716.1c-0.5,0-0.9-0.2-1.2-0.6c-0.3-0.3-0.6-0.8-0.6-1.2s0.2-0.9,0.6-1.2c0.3-0.3,0.8-0.6,1.2-0.6h7.1
		c0.1,0,0.3-0.1,0.5-0.2c0.1-0.1,0.2-0.2,0.2-0.5v-4.7h-0.1c0-0.1-0.1-0.3-0.2-0.5c-0.1-0.1-0.2-0.2-0.5-0.2h-4.7
		c-1.1,0-2.1-0.5-2.9-1.2c-0.8-0.8-1.2-1.8-1.2-2.9v-4.7c0-1.1,0.5-2.1,1.2-2.9c0.8-0.8,1.8-1.2,2.9-1.2h4.7c0.2,0,0.6,0,0.8,0.1
		c0.2,0,0.6,0.1,0.8,0.2c0.5,0.2,0.8,0.5,1,0.9c0.1,0.2,0.1,0.5,0.1,0.7s0,0.5-0.1,0.7c-0.2,0.5-0.6,0.8-1,0.9
		c-0.2,0.1-0.5,0.1-0.7,0.1s-0.5,0-0.7-0.1c-0.1,0-0.1,0-0.2,0h-4.7c-0.1,0-0.3,0.1-0.5,0.2c-0.1,0.1-0.2,0.2-0.2,0.5v4.7
		c0,0.1,0.1,0.3,0.2,0.5c0.1,0.1,0.2,0.2,0.5,0.2h4.7c1.1,0,2,0.5,2.8,1.2c0.8,0.8,1.2,1.8,1.2,2.9h0.1v4.7c0,1.1-0.5,2.1-1.2,2.9
		c-0.8,0.8-1.8,1.2-2.9,1.2L902.8,716.1L902.8,716.1z M909.8,714.9c0.8,0,1.5-0.3,2-0.9s0.9-1.2,0.9-2v-4.7h-0.1
		c0-0.8-0.3-1.5-0.9-2c-0.6-0.6-1.2-0.9-2-0.9h-4.6c-0.5,0-0.9-0.2-1.2-0.6c-0.3-0.3-0.6-0.8-0.6-1.2v-4.7c0-0.5,0.2-0.9,0.6-1.2
		c0.3-0.3,0.8-0.6,1.2-0.6h4.7c0.1,0,0.2,0,0.3,0s0.2,0,0.3,0.1c0.1,0,0.1,0,0.2,0s0.1,0,0.2,0c0.1-0.1,0.2-0.1,0.3-0.3
		c0-0.1,0-0.1,0-0.2s0-0.1,0-0.2c-0.1-0.1-0.1-0.2-0.3-0.3s-0.3-0.1-0.6-0.1c-0.2,0-0.3-0.1-0.6-0.1h-4.7c-0.8,0-1.5,0.3-2,0.9
		c-0.6,0.6-0.9,1.2-0.9,2v4.7c0,0.8,0.3,1.5,0.9,2s1.2,0.9,2,0.9h4.7c0.5,0,0.9,0.2,1.2,0.6c0.3,0.3,0.6,0.8,0.6,1.2h0.1v4.7
		c0,0.5-0.2,0.9-0.6,1.2c-0.4,0.3-0.8,0.6-1.2,0.6h-7.1c-0.1,0-0.3,0.1-0.5,0.2c-0.1,0.1-0.2,0.2-0.2,0.5c0,0.1,0.1,0.3,0.2,0.5
		c0.1,0.1,0.2,0.2,0.5,0.2h7L909.8,714.9L909.8,714.9z"/>
</g>
<circle class="st2" cx="275.6" cy="245.3" r="3.1"/>
<circle class="st3" cx="252.5" cy="268.3" r="3.1"/>
<circle class="st4" cx="258.3" cy="251" r="3.1"/>
<circle class="st5" cx="565.3" cy="256.4" r="28.1"/>
<circle class="st6" cx="741" cy="255.4" r="28.1"/>
<circle class="st7" cx="116.8" cy="265.9" r="32.4"/>
<path class="st8" d="M296.5,278.3c-0.4-0.3-0.8-0.6-1.2-0.9c-2.6-2.7-12.2-14.5,0.5-33.7c0.1-0.1,0-0.3,0-0.4c0-0.3-0.1-0.6-0.2-0.7
	c-3.1-6.1-12-11-23.4-10.9c-19.1,0.2-34.5,15.7-34.3,34.8c0.1,7.1,2.3,13.7,6,19.2c0.5,0.8,1.1,1.7,1.9,2.6c11,13,26,12.7,30.5,12.3
	l0,0c0.1,0,0.3,0,0.4,0c0.6-0.1,0.9-0.1,0.9-0.1s0,0,0,0C291.6,298.3,305.4,284.2,296.5,278.3z M275.5,239.5c3.2,0,5.8,2.5,5.8,5.7
	c0,3.2-2.5,5.8-5.7,5.8c-3.2,0-5.8-2.5-5.8-5.7C269.8,242.1,272.3,239.5,275.5,239.5z M258.3,245.3c3.2,0,5.8,2.5,5.8,5.7
	c0,3.2-2.5,5.8-5.7,5.8c-3.2,0-5.8-2.5-5.8-5.7C252.5,247.9,255.1,245.3,258.3,245.3z M252.5,262.6c3.2,0,5.8,2.5,5.8,5.7
	c0,3.2-2.5,5.8-5.7,5.8c-3.2,0-5.8-2.5-5.8-5.7C246.7,265.2,249.3,262.6,252.5,262.6z"/>
<path class="st9" d="M463.6,309.9c-16.1-1.1-31.9-3.4-47.4-7.7c-10.6-2.9-21-6.3-27.9-15.8c-1.4-1.9-3.1-3.5-4.4-5.6
	c-8.1-13.2-16.3-26.2-24.1-39.5c-5.6-9.6-11.1-19.4-18.6-27.6c-13-14.3-28.3-24.1-46.4-28.4c-2.4-0.6-4.9-1.1-7.5-1.4
	c-2.5-0.4-5-0.6-7.6-0.8c-0.5,0-1-0.1-1.4-0.1c-2.5-0.1-5-0.2-7.5-0.1c-3.3,0.1-6.6,0.3-9.8,0.7c-2.5,0.3-5,0.7-7.5,1.3
	c-3.1,0.7-6.1,1.5-9,2.5c-2.5,0.9-5.1,1.9-7.5,3c-10.9,5-20.7,12.5-29.6,22.4c-7.7,8.7-12.5,18.9-18,29
	c-11.1,20.5-24,39.9-42.2,55.1c-10.5,8.8-22.3,12.8-36,10.9c-24.5-3.4-41.6-28.1-36-52.3c7.6-32.3,46.8-44.9,71.7-23.1
	c0.5,0.4,1.2,0.9,1.6,1.3c10-10,19.8-19.9,29.6-29.9c-0.1-0.2-0.4-0.5-0.7-0.9c-22.1-20.4-48.3-28.2-77.8-21.9
	c-45.2,9.7-73.9,52.9-66.6,98.3c8.3,51.8,62.9,84.1,112.6,66.8c12.9-4.6,24.5-11.4,33.6-22c4.5-5.2,9.4-10.1,14.2-15.1
	c1.2-1.2,2.1-2.5,3.2-3.6c0.3,0.2,0.4,0.2,0.4,0.3c0.6,1.1,1.2,2.1,1.8,3.1c16.2,25.6,39.3,40.3,69.6,41.7
	c32.4,1.4,57.8-12.4,76.3-39.1c1.2-1.7,1.2-2.9-0.1-4.5c-1.4-1.6-2.5-3.4-3.5-5.2c-7.4-12.4-14.7-24.8-22-37.2c-1-1.6-2-3.1-3.1-4.7
	c-0.2,0.1-0.5,0.1-0.7,0.2c0,3.6,0.5,7.4-0.1,11c-4.1,24.5-25,39.8-49.6,36.5c-22.8-3.1-39.8-26.5-35.8-49.2
	c1.2-6.6,3.7-12.2,7.2-16.9c0.7-0.9,1.5-1.8,2.3-2.7c0.4-0.5,0.9-1,1.5-1.5c0.1-0.1,0.1-0.1,0.2-0.2c1.1-1.1,2.3-2.1,3.5-3
	c2.5-2,5.4-3.7,8.4-5.3c0.3-0.2,0.7-0.3,1-0.5l5.3-2.1c0.3-0.1,0.6-0.2,0.9-0.3c0.3-0.1,0.6-0.2,0.9-0.3c3.1-0.8,6.4-1.3,9.8-1.5
	c0.2,0,0.5,0,0.7,0c0.9,0,1.8-0.1,2.8,0c0.4,0,0.8,0,1.2,0l2.3,0.2c0.2,0,0.3,0,0.5,0.1c3,0.3,6.1,0.9,9.1,1.8c2.5,0.8,5,1.8,7.5,3
	c5.1,2.6,10,6.2,14.3,11c6.1,6.8,10.6,14.9,15.2,22.7c7.8,13.2,15.4,26.5,23.9,39.3c11.9,18,27.6,31.2,48.8,37.6
	c16.8,4.9,33.9,8.5,51.4,10.4c5.8,0.6,11.6,0.9,17.3,1.3v-41.5C464.6,309.6,464.2,309.6,463.6,309.9z"/>
<path class="st9" d="M548.3,180.7c-35.4,8.3-59.8,39.3-59.9,76c-0.1,30.3,0,60.6,0,90.8c0,1,0.1,1.9,0.1,2.9h42.3v-25.5
	c1.5,0.7,2.4,1.1,3.3,1.4c16.5,7.2,33.6,8.8,51,4.2c39.4-10.5,63.1-48.4,55.9-88.9C633.3,199,590.4,170.7,548.3,180.7z M565.4,291
	c-19.2,0-34.7-15.6-34.7-34.9c0-19.6,15.3-35,35-34.8c19,0,34.2,15.5,34.2,34.9C599.8,275.4,584.3,291,565.4,291z"/>
<path class="st9" d="M816.9,262.3c0-1.9,0-3.8,0-5.6c-0.1-36.7-24.5-67.6-59.9-76c-42.2-10-85.1,18.3-92.7,60.9
	c-3.9,21.7,1.1,42.6,12.6,59c10,14.2,24.9,25,43.2,29.9c3,0.8,5.9,1.4,8.8,1.8l45.5-41.5l-0.3,34.4c0.1-0.1,0.2-0.1,0.4-0.2v25.5
	h42.3c0-1,0.1-1.9,0.1-2.9C816.9,319.1,817,290.7,816.9,262.3z M739.8,291c-13.6,0-25.4-8-31-19.6c-2.2-4.6-3.5-9.8-3.6-15.2
	c0-19.4,15.2-34.9,34.2-34.9c19.7-0.2,35,15.2,35,34.8c0,16.2,0,34.6,0,34.6S745.2,291,739.8,291z"/>
<path class="st9" d="M909.3,308c-1.4,0-2.8-0.1-4.1-0.5c-10.9-3.3-19.4-14.8-19.4-26.1c0-38.4,0-102.3,0-102.3h-42.3
	c0,0,0,78.4,0.1,103.7c0,3.5,0.2,7,0.7,10.4c2.8,17.2,11.9,30.9,25,42.1c16.1,13.7,34.9,17.3,55.3,14.9c0-13.8,0-27.8,0-42.1
	C919.5,308,914.4,308.1,909.3,308z"/>
<path class="st9" d="M385.7,262.7c-0.1,4.7-0.7,13.3,11.1,23.9c8.5,7.6,17.2,10.7,21.6,12.1c5.8,1.8,12,2.8,18.7,2.8
	c-0.5-0.5-0.9-1.1-1.4-1.6c-5.2-5.5-7.7-11.7-7.7-19.5c0.2-33.7,0.1-101.3,0.1-101.3s-40.3,0-42.3,0
	C385.3,221.3,385.9,252.9,385.7,262.7z"/>
</svg>
