<?xml version="1.0" encoding="utf-8"?>
<!-- Generator: Adobe Illustrator 19.0.0, SVG Export Plug-In . SVG Version: 6.00 Build 0)  -->
<svg version="1.1" id="Layer_1" xmlns="http://www.w3.org/2000/svg" xmlns:xlink="http://www.w3.org/1999/xlink" x="0px" y="0px"
	 viewBox="0 171 960 244" style="enable-background:new 0 171 960 244;" xml:space="preserve">
<style type="text/css">
	.st0{display:none;}
	.st1{display:inline;fill:url(#SVGID_1_);}
	.st2{display:inline;fill:url(#SVGID_2_);}
	.st3{display:inline;fill:url(#SVGID_3_);}
	.st4{display:inline;fill:url(#SVGID_4_);}
	.st5{display:inline;fill:url(#SVGID_5_);}
	.st6{fill:url(#SVGID_6_);}
	.st7{fill:url(#SVGID_7_);}
	.st8{fill:url(#SVGID_8_);}
	.st9{fill:url(#SVGID_9_);}
	.st10{fill:url(#SVGID_10_);}
	.st11{enable-background:new    ;}
	.st12{fill:#03BAFB;}
</style>
<g class="st0">
	<linearGradient id="SVGID_1_" gradientUnits="userSpaceOnUse" x1="272.8844" y1="369.9" x2="272.8844" y2="216.0058">
		<stop  offset="0" style="stop-color:#03BAFB"/>
		<stop  offset="9.500092e-002" style="stop-color:#21A9E6"/>
		<stop  offset="0.3478" style="stop-color:#6D7FB0"/>
		<stop  offset="0.5737" style="stop-color:#A95D85"/>
		<stop  offset="0.7644" style="stop-color:#D44467"/>
		<stop  offset="0.9125" style="stop-color:#EF3654"/>
		<stop  offset="1" style="stop-color:#F9304D"/>
	</linearGradient>
	<path class="st1" d="M466,333c0,12.4,0,24.5,0,36.9c-5.1-0.4-10.3-0.6-15.4-1.2c-15.5-1.7-30.8-4.8-45.8-9.3
		c-18.8-5.6-32.9-17.4-43.5-33.5c-7.5-11.4-14.3-23.2-21.2-35c-4.1-7-8.1-14.1-13.5-20.2c-14.5-16.4-36.7-17.2-50.1-10.2
		c-10.7,5.6-18.4,13.9-20.6,26.4c-3.5,20.2,11.6,41.1,32,43.9c21.9,3,40.6-10.7,44.2-32.5c0.5-3.2,0.1-6.6,0.1-9.9
		c0.2-0.1,0.5-0.1,0.7-0.2c0.9,1.4,1.9,2.7,2.7,4.2c6.5,11,13.1,22.1,19.6,33.1c1,1.6,1.9,3.2,3.1,4.7c1.2,1.4,1.2,2.5,0.1,4
		c-16.4,23.7-39,36-67.9,34.7c-27-1.2-47.5-14.4-61.9-37.2c-0.6-0.9-1.1-1.8-1.6-2.7c0-0.1-0.1-0.1-0.4-0.3
		c-0.9,1.1-1.8,2.2-2.8,3.2c-4.2,4.5-8.7,8.8-12.7,13.5c-8.1,9.4-18.4,15.6-30,19.6c-44.3,15.4-92.8-13.4-100.3-59.5
		c-6.6-40.5,19.1-78.9,59.3-87.6c26.3-5.6,49.5,1.3,69.3,19.6c0.3,0.3,0.5,0.6,0.6,0.7c-8.8,8.9-17.5,17.7-26.4,26.6
		c-0.4-0.3-0.9-0.7-1.4-1.1c-22.2-19.4-57.1-8.2-63.8,20.6c-5,21.5,10.2,43.5,32,46.6c12.2,1.7,22.6-1.9,32-9.7
		c16.2-13.5,27.6-30.8,37.5-49.1c4.9-8.9,9.2-18.1,16-25.8c17.1-19.4,38.6-28.1,64.4-26.5c22.1,1.4,40.1,11,54.8,27.2
		c6.7,7.4,11.6,16,16.6,24.6c7,11.8,14.2,23.5,21.4,35.1c1.1,1.8,2.7,3.3,3.9,5c6.2,8.4,15.5,11.5,24.9,14.1
		c13.8,3.8,27.9,5.9,42.2,6.8C464.6,332.9,465.1,333,466,333z"/>
	<linearGradient id="SVGID_2_" gradientUnits="userSpaceOnUse" x1="720.1942" y1="361.7096" x2="720.1942" y2="209.1539">
		<stop  offset="0" style="stop-color:#03BAFB"/>
		<stop  offset="9.500092e-002" style="stop-color:#21A9E6"/>
		<stop  offset="0.3478" style="stop-color:#6D7FB0"/>
		<stop  offset="0.5737" style="stop-color:#A95D85"/>
		<stop  offset="0.7644" style="stop-color:#D44467"/>
		<stop  offset="0.9125" style="stop-color:#EF3654"/>
		<stop  offset="1" style="stop-color:#F9304D"/>
	</linearGradient>
	<path class="st2" d="M758.6,361.7c0-1.1,0-2,0-3c0-24.1,0-48.3,0-72.4c0-18.9-12.7-34.5-31.1-38.4c-21.6-4.6-43.5,11.5-45.6,33.5
		c-2.2,22.9,15.3,42.4,38.3,42.5c11.6,0.1,23.2,0,34.9,0c0.8,0,1.6,0,2.8,0c-0.7,0.8-1.1,1.2-1.5,1.7c-11.6,11.6-23.3,23.2-35,34.7
		c-0.9,0.8-2.4,1.5-3.5,1.4c-36.8-0.9-68.1-29-73.2-65.5c-5.7-40.7,21.4-78.5,62-85.8c43.6-7.8,81.5,22,88.6,61.9
		c0.8,4.3,1.1,8.7,1.1,13.1c0.1,24.5,0,48.9,0,73.4c0,0.9,0,1.8,0,2.8C783.7,361.7,771.4,361.7,758.6,361.7z"/>
	<linearGradient id="SVGID_3_" gradientUnits="userSpaceOnUse" x1="559.4614" y1="369.2" x2="559.4614" y2="216.3378">
		<stop  offset="0" style="stop-color:#03BAFB"/>
		<stop  offset="9.500092e-002" style="stop-color:#21A9E6"/>
		<stop  offset="0.3478" style="stop-color:#6D7FB0"/>
		<stop  offset="0.5737" style="stop-color:#A95D85"/>
		<stop  offset="0.7644" style="stop-color:#D44467"/>
		<stop  offset="0.9125" style="stop-color:#EF3654"/>
		<stop  offset="1" style="stop-color:#F9304D"/>
	</linearGradient>
	<path class="st3" d="M528.7,346.5c0,7.8,0,15.1,0,22.7c-12.6,0-25,0-37.7,0c0-0.8-0.1-1.7-0.1-2.6c0-27-0.1-54,0-80.9
		c0.1-32.7,21.9-60.2,53.4-67.6c37.5-8.8,75.7,16.3,82.6,54.3c6.5,36.1-14.7,69.9-49.8,79.2c-15.5,4.1-30.7,2.7-45.5-3.7
		C530.8,347.4,530,347.1,528.7,346.5z M528.7,285.2c0,17.2,13.8,31.1,30.9,31.1c16.9,0,30.7-13.9,30.8-31
		c0-17.3-13.5-31.1-30.5-31.1C542.4,254.2,528.7,267.8,528.7,285.2z"/>
	<linearGradient id="SVGID_4_" gradientUnits="userSpaceOnUse" x1="856.8" y1="369.6357" x2="856.8" y2="201.4">
		<stop  offset="0" style="stop-color:#03BAFB"/>
		<stop  offset="9.500092e-002" style="stop-color:#21A9E6"/>
		<stop  offset="0.3478" style="stop-color:#6D7FB0"/>
		<stop  offset="0.5737" style="stop-color:#A95D85"/>
		<stop  offset="0.7644" style="stop-color:#D44467"/>
		<stop  offset="0.9125" style="stop-color:#EF3654"/>
		<stop  offset="1" style="stop-color:#F9304D"/>
	</linearGradient>
	<path class="st4" d="M858.4,201.4c0,1.7,0,2.6,0,3.6c0,34.2,0,68.5,0,102.7c0,10.1,7.5,20.3,17.2,23.3c1.1,0.3,2.4,0.4,3.6,0.5
		c4.5,0.1,9.1,0,13.8,0c0,12.6,0,25.1,0,37.5c-18.2,2.2-34.9-1.1-49.3-13.2c-11.7-9.9-19.8-22.1-22.3-37.5c-0.5-3-0.7-6.1-0.7-9.2
		c-0.1-22.6,0-45.2-0.1-67.8c0-1.6,0.5-2.7,1.6-3.8c11.4-11.3,22.7-22.6,34-33.9C856.7,202.9,857.3,202.4,858.4,201.4z"/>
	<linearGradient id="SVGID_5_" gradientUnits="userSpaceOnUse" x1="417.65" y1="325.5" x2="417.65" y2="201.4">
		<stop  offset="0" style="stop-color:#03BAFB"/>
		<stop  offset="9.500092e-002" style="stop-color:#21A9E6"/>
		<stop  offset="0.3478" style="stop-color:#6D7FB0"/>
		<stop  offset="0.5737" style="stop-color:#A95D85"/>
		<stop  offset="0.7644" style="stop-color:#D44467"/>
		<stop  offset="0.9125" style="stop-color:#EF3654"/>
		<stop  offset="1" style="stop-color:#F9304D"/>
	</linearGradient>
	<path class="st5" d="M440.5,325.5c-14,0-25.6-4.7-35.8-13.3c-10-8.3-9.9-8.3-9.9-21.3c0-16.6,0-33.2,0.1-49.8
		c0-1.2,0.5-2.6,1.2-3.4c11.5-11.6,23.1-23.2,34.6-34.7c0.4-0.4,0.9-0.8,1.9-1.6c0,1.4,0,2.3,0,3.3c0,34,0.1,68-0.1,101.9
		c0,6.9,2.2,12.5,6.9,17.3C439.6,324.4,439.9,324.8,440.5,325.5z"/>
</g>
<g>
	<linearGradient id="SVGID_6_" gradientUnits="userSpaceOnUse" x1="265.8615" y1="371" x2="265.8615" y2="209.6636">
		<stop  offset="0" style="stop-color:#03BAFB"/>
		<stop  offset="3.153175e-002" style="stop-color:#05B4F7"/>
		<stop  offset="0.3648" style="stop-color:#1979CD"/>
		<stop  offset="0.6489" style="stop-color:#274DAF"/>
		<stop  offset="0.8696" style="stop-color:#30339D"/>
		<stop  offset="1" style="stop-color:#332996"/>
	</linearGradient>
	<path class="st6" d="M468.5,332.2c0,13,0,25.7,0,38.8c-5.4-0.4-10.8-0.6-16.2-1.2c-16.3-1.8-32.3-5.1-48-9.7
		c-19.8-5.9-34.5-18.3-45.6-35.1c-7.9-11.9-15-24.4-22.3-36.7c-4.3-7.3-8.5-14.8-14.2-21.2c-15.3-17.2-38.5-18-52.6-10.7
		c-11.3,5.9-19.3,14.5-21.6,27.7c-3.7,21.2,12.2,43.1,33.5,46c23,3.1,42.6-11.2,46.4-34.1c0.6-3.4,0.1-6.9,0.1-10.3
		c0.2-0.1,0.5-0.1,0.7-0.2c1,1.5,2,2.9,2.9,4.4c6.9,11.6,13.7,23.2,20.6,34.8c1,1.7,2,3.4,3.3,4.9c1.2,1.5,1.2,2.6,0.1,4.2
		c-17.3,24.9-41,37.8-71.3,36.5c-28.3-1.3-49.9-15.1-65-39c-0.6-0.9-1.1-1.9-1.7-2.9c0-0.1-0.1-0.1-0.4-0.3c-1,1.1-1.9,2.3-3,3.4
		c-4.5,4.7-9.1,9.2-13.3,14.1c-8.5,9.9-19.3,16.3-31.4,20.6c-46.4,16.2-97.4-14-105.2-62.4c-6.9-42.5,20-82.8,62.2-91.9
		c27.6-5.9,52,1.4,72.7,20.5c0.3,0.3,0.6,0.6,0.7,0.8c-9.2,9.3-18.4,18.6-27.7,27.9c-0.4-0.4-1-0.8-1.5-1.2
		c-23.3-20.4-59.9-8.6-67,21.6c-5.3,22.6,10.7,45.7,33.6,48.9c12.8,1.8,23.8-2,33.6-10.2c17-14.2,29-32.3,39.4-51.5
		c5.1-9.4,9.6-19,16.8-27.1c18-20.3,40.5-29.5,67.6-27.8c23.2,1.5,42.1,11.6,57.5,28.6c7,7.7,12.2,16.8,17.4,25.8
		c7.3,12.4,14.9,24.6,22.5,36.9c1.2,1.9,2.8,3.4,4.1,5.2c6.5,8.9,16.2,12.1,26.1,14.8c14.5,4,29.3,6.2,44.3,7.2
		C467.1,332.1,467.5,332.1,468.5,332.2z"/>
	<linearGradient id="SVGID_7_" gradientUnits="userSpaceOnUse" x1="735.1116" y1="362.4" x2="735.1116" y2="202.3889">
		<stop  offset="0" style="stop-color:#03BAFB"/>
		<stop  offset="3.153175e-002" style="stop-color:#05B4F7"/>
		<stop  offset="0.3648" style="stop-color:#1979CD"/>
		<stop  offset="0.6489" style="stop-color:#274DAF"/>
		<stop  offset="0.8696" style="stop-color:#30339D"/>
		<stop  offset="1" style="stop-color:#332996"/>
	</linearGradient>
	<path class="st7" d="M775.6,362.3c0-1.1,0-2.1,0-3.1c0-25.3,0-50.7,0-76c0-19.8-13.3-36.1-32.7-40.2c-22.6-4.8-45.6,12.1-47.9,35.1
		c-2.3,24,16.1,44.5,40.2,44.6c12.2,0.1,24.4,0,36.6,0c0.8,0,1.7,0,2.9,0c-0.7,0.8-1.1,1.3-1.6,1.8c-12.2,12.2-24.4,24.3-36.7,36.4
		c-0.9,0.9-2.5,1.5-3.7,1.5c-38.6-1-71.5-30.4-76.8-68.7c-5.9-42.7,22.4-82.4,65-90c45.7-8.2,85.5,23.1,92.9,65
		c0.8,4.5,1.1,9.1,1.2,13.7c0.1,25.7,0.1,51.3,0.1,77c0,0.9,0,1.8,0,2.9C801.8,362.3,788.9,362.3,775.6,362.3z"/>
	<linearGradient id="SVGID_8_" gradientUnits="userSpaceOnUse" x1="566.5878" y1="370.2" x2="566.5878" y2="209.7304">
		<stop  offset="0" style="stop-color:#03BAFB"/>
		<stop  offset="3.153175e-002" style="stop-color:#05B4F7"/>
		<stop  offset="0.3648" style="stop-color:#1979CD"/>
		<stop  offset="0.6489" style="stop-color:#274DAF"/>
		<stop  offset="0.8696" style="stop-color:#30339D"/>
		<stop  offset="1" style="stop-color:#332996"/>
	</linearGradient>
	<path class="st8" d="M534.3,346.4c0,8.2,0,15.9,0,23.8c-13.2,0-26.2,0-39.5,0c0-0.9-0.1-1.8-0.1-2.7c0-28.3-0.1-56.6,0-84.9
		c0.1-34.3,22.9-63.2,56-71c39.4-9.3,79.5,17.1,86.6,56.9c6.8,37.9-15.4,73.3-52.2,83.1c-16.3,4.3-32.3,2.8-47.7-3.9
		C536.5,347.3,535.7,347,534.3,346.4z M534.3,282c0,18,14.5,32.6,32.4,32.6c17.7,0,32.2-14.6,32.3-32.5c0-18.1-14.2-32.6-32-32.6
		C548.6,249.5,534.3,263.7,534.3,282z"/>
	<linearGradient id="SVGID_9_" gradientUnits="userSpaceOnUse" x1="878.65" y1="370.4683" x2="878.65" y2="194.1">
		<stop  offset="0" style="stop-color:#03BAFB"/>
		<stop  offset="3.153175e-002" style="stop-color:#05B4F7"/>
		<stop  offset="0.3648" style="stop-color:#1979CD"/>
		<stop  offset="0.6489" style="stop-color:#274DAF"/>
		<stop  offset="0.8696" style="stop-color:#30339D"/>
		<stop  offset="1" style="stop-color:#332996"/>
	</linearGradient>
	<path class="st9" d="M880.2,194.1c0,1.8,0,2.8,0,3.8c0,35.9,0,71.8,0,107.7c0,10.6,7.9,21.3,18.1,24.4c1.2,0.4,2.5,0.5,3.8,0.5
		c4.8,0.1,9.5,0,14.5,0c0,13.3,0,26.4,0,39.3c-19.1,2.3-36.7-1.1-51.7-13.9c-12.3-10.4-20.8-23.2-23.4-39.3
		c-0.5-3.2-0.7-6.4-0.7-9.7c-0.1-23.7,0-47.4-0.1-71.1c0-1.7,0.5-2.8,1.7-4c11.9-11.8,23.8-23.7,35.7-35.6
		C878.5,195.7,879.1,195.2,880.2,194.1z"/>
	<linearGradient id="SVGID_10_" gradientUnits="userSpaceOnUse" x1="417.8" y1="324.3" x2="417.8" y2="194.2">
		<stop  offset="0" style="stop-color:#03BAFB"/>
		<stop  offset="3.153175e-002" style="stop-color:#05B4F7"/>
		<stop  offset="0.3648" style="stop-color:#1979CD"/>
		<stop  offset="0.6489" style="stop-color:#274DAF"/>
		<stop  offset="0.8696" style="stop-color:#30339D"/>
		<stop  offset="1" style="stop-color:#332996"/>
	</linearGradient>
	<path class="st10" d="M441.8,324.3c-14.7,0-26.9-5-37.6-13.9c-10.4-8.7-10.4-8.8-10.4-22.3c0-17.4,0-34.8,0.1-52.2
		c0-1.2,0.5-2.7,1.3-3.6c12.1-12.2,24.2-24.3,36.3-36.4c0.5-0.5,1-0.9,1.9-1.7c0,1.5,0,2.5,0,3.4c0,35.7,0.1,71.3-0.1,107
		c0,7.3,2.3,13.1,7.2,18.2C440.8,323.2,441.1,323.5,441.8,324.3z"/>
</g>
<g class="st11">
	<path class="st12" d="M745,398.7c-0.2,0-0.4,0-0.6-0.1c-0.4-0.2-0.7-0.4-0.8-0.8c-0.1-0.2-0.1-0.4-0.1-0.6s0-0.4,0.1-0.6
		c0-0.1,0-0.1,0-0.2v-12.5c0-1,0.4-1.9,1.1-2.6c0.7-0.7,1.6-1.1,2.6-1.1h4.2c1,0,1.8,0.4,2.5,1.1s1.1,1.6,1.1,2.6h0.1v4.2
		c0,1-0.4,1.9-1.1,2.6c-0.7,0.7-1.6,1.1-2.6,1.1h-4.2v-1h4.2c0.7,0,1.3-0.3,1.8-0.8s0.8-1.1,0.8-1.8V384H754c0-0.7-0.3-1.3-0.8-1.8
		s-1.1-0.8-1.8-0.8h-4.1c-0.7,0-1.3,0.3-1.8,0.8s-0.8,1.1-0.8,1.8v12.5c0,0.1,0,0.2,0,0.3c0,0.1,0,0.2-0.1,0.3c0,0.1,0,0.1,0,0.2
		s0,0.1,0,0.2c0.1,0.1,0.1,0.2,0.3,0.3c0.1,0,0.1,0,0.2,0c0.1,0,0.1,0,0.2,0c0.1-0.1,0.2-0.2,0.3-0.3c0.1-0.2,0.1-0.3,0.1-0.5
		s0.1-0.3,0.1-0.5V384c0-0.4,0.2-0.8,0.5-1.1c0.3-0.3,0.7-0.5,1.1-0.5h4.2l0,0c0.4,0,0.8,0.2,1.1,0.5s0.5,0.7,0.5,1.1h0.1v4.2
		c0,0.4-0.2,0.8-0.5,1.1s-0.7,0.5-1.1,0.5h-4.2v-1h4.2c0.1,0,0.3-0.1,0.4-0.2c0.1-0.1,0.2-0.2,0.2-0.4V384h-0.1
		c0-0.1-0.1-0.3-0.2-0.4c-0.1-0.1-0.2-0.2-0.4-0.2h-4.1c-0.1,0-0.3,0.1-0.4,0.2c-0.1,0.1-0.2,0.2-0.2,0.4v12.5c0,0.2,0,0.5-0.1,0.7
		c0,0.2-0.1,0.5-0.2,0.7c-0.2,0.4-0.4,0.7-0.8,0.8C745.4,398.6,745.2,398.7,745,398.7z M749.3,400c-0.4,0-0.8-0.2-1.1-0.5
		s-0.5-0.7-0.5-1.1s0.2-0.8,0.5-1.1c0.3-0.3,0.7-0.5,1.1-0.5h2.1c0.1,0,0.3-0.1,0.4-0.2c0.1-0.1,0.2-0.2,0.2-0.4V392h1v4.2
		c0,0.4-0.2,0.8-0.5,1.1s-0.7,0.5-1.1,0.5h-2.1c-0.1,0-0.3,0.1-0.4,0.2c-0.1,0.1-0.2,0.2-0.2,0.4c0,0.1,0.1,0.3,0.2,0.4
		c0.1,0.1,0.2,0.2,0.4,0.2h2.1c0.7,0,1.3-0.3,1.8-0.8s0.8-1.1,0.8-1.8v-4.2c0-0.1,0-0.2,0-0.3c0.3-0.2,0.6-0.5,0.9-0.8
		c0.1,0.2,0.1,0.3,0.1,0.5s0,0.4,0,0.5v4.2c0,1-0.4,1.9-1.1,2.6c-0.7,0.7-1.6,1.1-2.6,1.1L749.3,400L749.3,400z"/>
	<path class="st12" d="M763.6,400c-0.4,0-0.8-0.2-1.1-0.5s-0.5-0.7-0.5-1.1v-6.3c0-0.1-0.1-0.3-0.2-0.4c-0.1-0.1-0.2-0.2-0.4-0.2
		c-1,0-1.9-0.4-2.6-1.1c-0.7-0.7-1.1-1.6-1.1-2.6v-6.3c0-0.4,0.2-0.8,0.5-1.1s0.7-0.5,1.1-0.5s0.8,0.2,1.1,0.5s0.5,0.7,0.5,1.1v6.3
		c0,0.1,0.1,0.3,0.2,0.4c0.1,0.1,0.2,0.2,0.4,0.2c1,0,1.9,0.4,2.6,1.1c0.7,0.7,1.1,1.6,1.1,2.6v6.3c0,0.4-0.2,0.8-0.5,1.1
		C764.4,399.8,764,400,763.6,400z M763.6,398.9c0.1,0,0.3-0.1,0.4-0.2c0.1-0.1,0.2-0.2,0.2-0.4V392c0-0.7-0.3-1.3-0.8-1.8
		s-1.1-0.8-1.8-0.8c-0.4,0-0.8-0.2-1.1-0.5s-0.5-0.7-0.5-1.1v-6.3c0-0.1-0.1-0.3-0.2-0.4c-0.1-0.1-0.2-0.2-0.4-0.2
		c-0.1,0-0.3,0.1-0.4,0.2c-0.1,0.1-0.2,0.2-0.2,0.4v6.3c0,0.7,0.3,1.3,0.8,1.8s1.1,0.8,1.8,0.8c0.4,0,0.8,0.2,1.1,0.5
		s0.5,0.7,0.5,1.1v6.3c0,0.1,0.1,0.3,0.2,0.4C763.3,398.9,763.5,398.9,763.6,398.9z M765.7,390.6c0.7,0,1.3-0.3,1.8-0.8
		s0.8-1.1,0.8-1.8v-6.3c0-0.1-0.1-0.3-0.2-0.4c-0.1-0.1-0.2-0.2-0.4-0.2c-0.1,0-0.3,0.1-0.4,0.2c-0.1,0.1-0.2,0.2-0.2,0.4v6.3
		c0,0.4-0.2,0.8-0.5,1.1s-0.7,0.5-1.1,0.5c-0.1,0-0.2,0-0.3,0c-0.2-0.3-0.5-0.6-0.8-0.9c0.2-0.1,0.3-0.1,0.5-0.1s0.4,0,0.5,0
		s0.3-0.1,0.4-0.2s0.2-0.2,0.2-0.4v-6.3c0-0.4,0.2-0.8,0.5-1.1c0.3-0.3,0.7-0.5,1.1-0.5c0.4,0,0.8,0.2,1.1,0.5s0.5,0.7,0.5,1.1v6.3
		c0,1-0.4,1.9-1.1,2.6c-0.7,0.7-1.6,1.1-2.6,1.1v-1.1H765.7z"/>
	<path class="st12" d="M778.2,400c-0.4,0-0.8-0.2-1.1-0.5s-0.5-0.7-0.5-1.1v-14.6c0-1,0.4-1.9,1.1-2.6s1.6-1.1,2.6-1.1h4.2
		c1,0,1.9,0.4,2.6,1.1c0.7,0.7,1.1,1.6,1.1,2.6v10.4c0,0.4-0.2,0.8-0.5,1.1c-0.3,0.3-0.7,0.5-1.1,0.5c-0.4,0-0.8-0.2-1.1-0.5
		s-0.5-0.7-0.5-1.1v-10.4c0-0.1-0.1-0.3-0.2-0.4c-0.1-0.1-0.2-0.2-0.4-0.2h-4.2c-0.1,0-0.3,0.1-0.4,0.2c-0.1,0.1-0.2,0.2-0.2,0.4
		v14.6c0,0.4-0.2,0.8-0.5,1.1S778.6,400,778.2,400z M778.2,398.9c0.1,0,0.3-0.1,0.4-0.2c0.1-0.1,0.2-0.2,0.2-0.4v-14.6
		c0-0.4,0.2-0.8,0.5-1.1c0.3-0.3,0.7-0.5,1.1-0.5h4.2c0.4,0,0.8,0.2,1.1,0.5s0.5,0.7,0.5,1.1v10.4c0,0.1,0.1,0.3,0.2,0.4
		c0.1,0.1,0.2,0.2,0.4,0.2c0.1,0,0.3-0.1,0.4-0.2c0.1-0.1,0.2-0.2,0.2-0.4v-10.4c0-0.7-0.3-1.3-0.8-1.8s-1.1-0.8-1.8-0.8h-4.2
		c-0.7,0-1.3,0.3-1.8,0.8s-0.8,1.1-0.8,1.8v14.6c0,0.1,0.1,0.3,0.2,0.4C777.9,398.9,778.1,398.9,778.2,398.9z M794.9,400
		c-0.4,0-0.8-0.2-1.1-0.5s-0.5-0.7-0.5-1.1v-14.6h-0.1c0-0.1-0.1-0.3-0.2-0.4c-0.1-0.1-0.2-0.2-0.4-0.2h-4.1v-1h4.2l0,0
		c0.4,0,0.8,0.2,1.1,0.5s0.5,0.7,0.5,1.1h0.1v14.6c0,0.1,0.1,0.3,0.2,0.4c0.1,0.1,0.2,0.2,0.4,0.2c0.1,0,0.3-0.1,0.4-0.2
		c0.1-0.1,0.2-0.2,0.2-0.4v-14.6h-0.1c0-0.7-0.3-1.3-0.8-1.8s-1.1-0.8-1.8-0.8h-4.1c-0.1,0-0.2,0-0.3,0c-0.2-0.3-0.5-0.6-0.8-0.9
		c0.2,0,0.3-0.1,0.5-0.1s0.4,0,0.5,0h4.2c1,0,1.8,0.4,2.5,1.1s1.1,1.6,1.1,2.6h0.1v14.6c0,0.4-0.2,0.8-0.5,1.1S795.3,400,794.9,400z
		"/>
	<path class="st12" d="M802.3,400c-0.4,0-0.8-0.2-1.1-0.5s-0.5-0.7-0.5-1.1v-16.7c0-0.4,0.2-0.8,0.5-1.1s0.7-0.5,1.1-0.5
		c0.4,0,0.8,0.2,1.1,0.5s0.5,0.7,0.5,1.1v16.7c0,0.4-0.2,0.8-0.5,1.1S802.7,400,802.3,400z M802.3,398.9c0.1,0,0.3-0.1,0.4-0.2
		c0.1-0.1,0.2-0.2,0.2-0.4v-16.7c0-0.1-0.1-0.3-0.2-0.4c-0.1-0.1-0.2-0.2-0.4-0.2c-0.1,0-0.3,0.1-0.4,0.2c-0.1,0.1-0.2,0.2-0.2,0.4
		v16.7c0,0.1,0.1,0.3,0.2,0.4C802,398.9,802.1,398.9,802.3,398.9z"/>
	<path class="st12" d="M808.6,400c-0.4,0-0.8-0.2-1.1-0.5s-0.5-0.7-0.5-1.1s0.2-0.8,0.5-1.1s0.7-0.5,1.1-0.5h6.3
		c0.1,0,0.3-0.1,0.4-0.2c0.1-0.1,0.2-0.2,0.2-0.4V392h-0.1c0-0.1-0.1-0.3-0.2-0.4c-0.1-0.1-0.2-0.2-0.4-0.2h-4.1
		c-1,0-1.9-0.4-2.6-1.1c-0.7-0.7-1.1-1.6-1.1-2.6v-4.2c0-1,0.4-1.9,1.1-2.6c0.7-0.7,1.6-1.1,2.6-1.1h4.2c0.2,0,0.5,0,0.7,0.1
		c0.2,0,0.5,0.1,0.7,0.2c0.4,0.2,0.7,0.4,0.9,0.8c0.1,0.2,0.1,0.4,0.1,0.6s0,0.4-0.1,0.6c-0.2,0.4-0.5,0.7-0.9,0.8
		c-0.2,0.1-0.4,0.1-0.6,0.1c-0.2,0-0.4,0-0.6-0.1c-0.1,0-0.1,0-0.2,0h-4.2c-0.1,0-0.3,0.1-0.4,0.2c-0.1,0.1-0.2,0.2-0.2,0.4v4.2
		c0,0.1,0.1,0.3,0.2,0.4c0.1,0.1,0.2,0.2,0.4,0.2h4.2c1,0,1.8,0.4,2.5,1.1s1.1,1.6,1.1,2.6h0.1v4.2c0,1-0.4,1.9-1.1,2.6
		c-0.7,0.7-1.6,1.1-2.6,1.1h-6.3V400z M814.9,398.9c0.7,0,1.3-0.3,1.8-0.8s0.8-1.1,0.8-1.8v-4.2h-0.1c0-0.7-0.3-1.3-0.8-1.8
		s-1.1-0.8-1.8-0.8h-4.1c-0.4,0-0.8-0.2-1.1-0.5s-0.5-0.7-0.5-1.1v-4.2c0-0.4,0.2-0.8,0.5-1.1c0.3-0.3,0.7-0.5,1.1-0.5h4.2
		c0.1,0,0.2,0,0.3,0s0.2,0,0.3,0.1c0.1,0,0.1,0,0.2,0s0.1,0,0.2,0c0.1-0.1,0.2-0.1,0.3-0.3c0-0.1,0-0.1,0-0.2s0-0.1,0-0.2
		c-0.1-0.1-0.1-0.2-0.3-0.3c-0.2-0.1-0.3-0.1-0.5-0.1s-0.3-0.1-0.5-0.1h-4.2c-0.7,0-1.3,0.3-1.8,0.8s-0.8,1.1-0.8,1.8v4.2
		c0,0.7,0.3,1.3,0.8,1.8s1.1,0.8,1.8,0.8h4.2c0.4,0,0.8,0.2,1.1,0.5s0.5,0.7,0.5,1.1h0.1v4.2c0,0.4-0.2,0.8-0.5,1.1
		s-0.7,0.5-1.1,0.5h-6.3c-0.1,0-0.3,0.1-0.4,0.2c-0.1,0.1-0.2,0.2-0.2,0.4c0,0.1,0.1,0.3,0.2,0.4c0.1,0.1,0.2,0.2,0.4,0.2h6.2V398.9
		z"/>
	<path class="st12" d="M820.2,383.3c-0.4,0-0.8-0.2-1.1-0.5s-0.5-0.7-0.5-1.1s0.2-0.8,0.5-1.1s0.7-0.5,1.1-0.5h3.3
		c-0.4,0.3-0.7,0.6-1,1h-2.4c-0.1,0-0.3,0.1-0.4,0.2c-0.1,0.1-0.2,0.2-0.2,0.4c0,0.1,0.1,0.3,0.2,0.4c0.1,0.1,0.2,0.2,0.4,0.2h2.1v1
		H820.2z M824.4,400c-0.4,0-0.8-0.2-1.1-0.5s-0.5-0.7-0.5-1.1v-14.6c0-1,0.4-1.9,1.1-2.6c0.7-0.7,1.6-1.1,2.6-1.1h2.1
		c0.4,0,0.8,0.2,1.1,0.5s0.5,0.7,0.5,1.1s-0.2,0.8-0.5,1.1c-0.3,0.3-0.7,0.5-1.1,0.5h-2.1c-0.1,0-0.3,0.1-0.4,0.2
		c-0.1,0.1-0.2,0.2-0.2,0.4v14.6c0,0.4-0.2,0.8-0.5,1.1C825.2,399.8,824.8,400,824.4,400z M824.4,398.9c0.1,0,0.3-0.1,0.4-0.2
		c0.1-0.1,0.2-0.2,0.2-0.4v-14.6c0-0.4,0.2-0.8,0.5-1.1c0.3-0.3,0.7-0.5,1.1-0.5h2.1c0.1,0,0.3-0.1,0.4-0.2c0.1-0.1,0.2-0.2,0.2-0.4
		c0-0.1-0.1-0.3-0.2-0.4c-0.1-0.1-0.2-0.2-0.4-0.2h-2.1c-0.7,0-1.3,0.3-1.8,0.8s-0.8,1.1-0.8,1.8v14.6c0,0.1,0.1,0.3,0.2,0.4
		C824.1,398.9,824.2,398.9,824.4,398.9z"/>
	<path class="st12" d="M834.8,400c-1,0-1.9-0.4-2.6-1.1c-0.7-0.7-1.1-1.6-1.1-2.6v-12.5c0-1,0.4-1.9,1.1-2.6s1.6-1.1,2.6-1.1h4.2
		c0.1,0,0.1,0,0.2,0c0.2-0.1,0.4-0.1,0.6-0.1c0.2,0,0.4,0,0.6,0.1c0.4,0.2,0.7,0.4,0.9,0.8c0.1,0.2,0.1,0.4,0.1,0.6s0,0.4-0.1,0.6
		c-0.2,0.4-0.5,0.7-0.9,0.8c-0.2,0.1-0.4,0.2-0.7,0.2c-0.2,0-0.5,0.1-0.7,0.1h-4.2c-0.1,0-0.3,0.1-0.4,0.2c-0.1,0.1-0.2,0.2-0.2,0.4
		v12.5c0,0.1,0.1,0.3,0.2,0.4c0.1,0.1,0.2,0.2,0.4,0.2h6.3c0.4,0,0.8,0.2,1.1,0.5s0.5,0.7,0.5,1.1s-0.2,0.8-0.5,1.1
		c-0.3,0.3-0.7,0.5-1.1,0.5h-6.3V400z M841.1,398.9c0.1,0,0.3-0.1,0.4-0.2c0.1-0.1,0.2-0.2,0.2-0.4c0-0.1-0.1-0.3-0.2-0.4
		c-0.1-0.1-0.2-0.2-0.4-0.2h-6.3c-0.4,0-0.8-0.2-1.1-0.5s-0.5-0.7-0.5-1.1v-12.5c0-0.4,0.2-0.8,0.5-1.1c0.3-0.3,0.7-0.5,1.1-0.5h4.2
		c0.2,0,0.3,0,0.5,0s0.3-0.1,0.5-0.1c0.1-0.1,0.2-0.1,0.3-0.3c0-0.1,0-0.1,0-0.2s0-0.1,0-0.2c-0.1-0.1-0.1-0.2-0.3-0.3
		c-0.1,0-0.1,0-0.2,0s-0.1,0-0.2,0c-0.1,0-0.2,0.1-0.3,0.1s-0.2,0-0.3,0h-4.2c-0.7,0-1.3,0.3-1.8,0.8s-0.8,1.1-0.8,1.8v12.5
		c0,0.7,0.3,1.3,0.8,1.8s1.1,0.8,1.8,0.8h6.3V398.9z M834.8,391.6v-1h4.2c0.1,0,0.3-0.1,0.4-0.2c0.1-0.1,0.2-0.2,0.2-0.4
		c0-0.1-0.1-0.3-0.2-0.4c-0.1-0.1-0.2-0.2-0.4-0.2h-4.2v-1h4.2c0.4,0,0.8,0.2,1.1,0.5s0.5,0.7,0.5,1.1s-0.2,0.8-0.5,1.1
		c-0.3,0.3-0.7,0.5-1.1,0.5H834.8z"/>
	<path class="st12" d="M845.4,400c-0.4,0-0.8-0.2-1.1-0.5s-0.5-0.7-0.5-1.1v-14.6c0-1,0.4-1.9,1.1-2.6c0.7-0.7,1.6-1.1,2.6-1.1h4.2
		c1,0,1.8,0.4,2.5,1.1s1.1,1.6,1.1,2.6h0.1v4.2c0,1-0.4,1.9-1.1,2.6c-0.7,0.7-1.6,1.1-2.6,1.1h-2.1c-0.4,0-0.8-0.2-1.1-0.5
		s-0.5-0.7-0.5-1.1s0.2-0.8,0.5-1.1c0.3-0.3,0.7-0.5,1.1-0.5h2.1c0.1,0,0.3-0.1,0.4-0.2c0.1-0.1,0.2-0.2,0.2-0.4v-4.2h-0.1
		c0-0.1-0.1-0.3-0.2-0.4c-0.1-0.1-0.2-0.2-0.4-0.2h-4.1c-0.1,0-0.3,0.1-0.4,0.2c-0.1,0.1-0.2,0.2-0.2,0.4v14.6
		c0,0.4-0.2,0.8-0.5,1.1S845.9,400,845.4,400z M845.4,398.9c0.1,0,0.3-0.1,0.4-0.2c0.1-0.1,0.2-0.2,0.2-0.4v-14.6
		c0-0.4,0.2-0.8,0.5-1.1c0.3-0.3,0.7-0.5,1.1-0.5h4.2l0,0c0.4,0,0.8,0.2,1.1,0.5s0.5,0.7,0.5,1.1h0.1v4.2c0,0.4-0.2,0.8-0.5,1.1
		s-0.7,0.5-1.1,0.5h-2.1c-0.1,0-0.3,0.1-0.4,0.2c-0.1,0.1-0.2,0.2-0.2,0.4c0,0.1,0.1,0.3,0.2,0.4c0.1,0.1,0.2,0.2,0.4,0.2h2.1
		c0.7,0,1.3-0.3,1.8-0.8s0.8-1.1,0.8-1.8v-4.2h-0.1c0-0.7-0.3-1.3-0.8-1.8s-1.1-0.8-1.8-0.8h-4.1c-0.7,0-1.3,0.3-1.8,0.8
		s-0.8,1.1-0.8,1.8v14.6C845.1,398.6,845.2,398.8,845.4,398.9C845.2,398.9,845.3,398.9,845.4,398.9z M853.8,400
		c-0.4,0-0.8-0.2-1.1-0.5s-0.5-0.7-0.5-1.1v-6.3h1v6.3c0,0.1,0.1,0.3,0.2,0.4c0.1,0.1,0.2,0.2,0.4,0.2c0.1,0,0.3-0.1,0.4-0.2
		c0.1-0.1,0.2-0.2,0.2-0.4v-6.3c0-0.1,0-0.2,0-0.3c0.3-0.2,0.6-0.5,0.9-0.8c0.1,0.2,0.1,0.3,0.1,0.5s0,0.4,0,0.5v6.3
		c0,0.4-0.2,0.8-0.5,1.1C854.6,399.8,854.2,400,853.8,400z"/>
	<path class="st12" d="M864.2,400c-0.4,0-0.8-0.2-1.1-0.5s-0.5-0.7-0.5-1.1v-14.6c0-1,0.4-1.9,1.1-2.6s1.6-1.1,2.6-1.1h4.2
		c1,0,1.8,0.4,2.5,1.1s1.1,1.6,1.1,2.6h0.1v8.3c0,1-0.4,1.9-1.1,2.6c-0.7,0.7-1.6,1.1-2.6,1.1h-2.1c-0.4,0-0.8-0.2-1.1-0.5
		s-0.5-0.7-0.5-1.1s0.2-0.8,0.5-1.1c0.3-0.3,0.7-0.5,1.1-0.5h2.1c0.1,0,0.3-0.1,0.4-0.2c0.1-0.1,0.2-0.2,0.2-0.4v-8.3H871
		c0-0.1-0.1-0.3-0.2-0.4c-0.1-0.1-0.2-0.2-0.4-0.2h-4.1c-0.1,0-0.3,0.1-0.4,0.2c-0.1,0.1-0.2,0.2-0.2,0.4v14.6
		c0,0.4-0.2,0.8-0.5,1.1S864.6,400,864.2,400z M864.2,398.9c0.1,0,0.3-0.1,0.4-0.2c0.1-0.1,0.2-0.2,0.2-0.4v-14.6
		c0-0.4,0.2-0.8,0.5-1.1c0.3-0.3,0.7-0.5,1.1-0.5h4.2l0,0c0.4,0,0.8,0.2,1.1,0.5s0.5,0.7,0.5,1.1h0.1v8.3c0,0.4-0.2,0.8-0.5,1.1
		s-0.7,0.5-1.1,0.5h-2.1c-0.1,0-0.3,0.1-0.4,0.2c-0.1,0.1-0.2,0.2-0.2,0.4c0,0.1,0.1,0.3,0.2,0.4c0.1,0.1,0.2,0.2,0.4,0.2h2.1
		c0.7,0,1.3-0.3,1.8-0.8s0.8-1.1,0.8-1.8v-8.3H873c0-0.7-0.3-1.3-0.8-1.8s-1.1-0.8-1.8-0.8h-4.1c-0.7,0-1.3,0.3-1.8,0.8
		s-0.8,1.1-0.8,1.8v14.6c0,0.1,0.1,0.3,0.2,0.4C863.9,398.9,864.1,398.9,864.2,398.9z"/>
	<path class="st12" d="M887.5,400c-0.4,0-0.8-0.2-1.1-0.5s-0.5-0.7-0.5-1.1v-14.6h-0.1c0-0.1-0.1-0.3-0.2-0.4
		c-0.1-0.1-0.2-0.2-0.4-0.2h-4.1c-0.1,0-0.3,0.1-0.4,0.2c-0.1,0.1-0.2,0.2-0.2,0.4v12.5c0,0.2,0,0.5-0.1,0.7c0,0.2-0.1,0.5-0.2,0.7
		c-0.2,0.4-0.4,0.7-0.8,0.8c-0.2,0.1-0.4,0.1-0.6,0.1s-0.4,0-0.6-0.1c-0.4-0.2-0.7-0.4-0.8-0.8c-0.1-0.2-0.1-0.4-0.1-0.6
		s0-0.4,0.1-0.6c0-0.1,0-0.1,0-0.2v-12.5c0-1,0.4-1.9,1.1-2.6c0.7-0.7,1.6-1.1,2.6-1.1h4.2c1,0,1.8,0.4,2.5,1.1s1.1,1.6,1.1,2.6h0.1
		v14.6c0,0.4-0.2,0.8-0.5,1.1C888.3,399.8,887.9,400,887.5,400z M887.5,398.9c0.1,0,0.3-0.1,0.4-0.2c0.1-0.1,0.2-0.2,0.2-0.4v-14.6
		H888c0-0.7-0.3-1.3-0.8-1.8s-1.1-0.8-1.8-0.8h-4.1c-0.7,0-1.3,0.3-1.8,0.8s-0.8,1.1-0.8,1.8v12.5c0,0.1,0,0.2,0,0.3
		c0,0.1,0,0.2-0.1,0.3c0,0.1,0,0.1,0,0.2s0,0.1,0,0.2c0.1,0.1,0.1,0.2,0.3,0.3c0.1,0,0.1,0,0.2,0c0.1,0,0.1,0,0.2,0
		c0.1-0.1,0.2-0.2,0.3-0.3c0.1-0.2,0.1-0.3,0.1-0.5s0.1-0.3,0.1-0.5v-12.5c0-0.4,0.2-0.8,0.5-1.1c0.3-0.3,0.7-0.5,1.1-0.5h4.2l0,0
		c0.4,0,0.8,0.2,1.1,0.5s0.5,0.7,0.5,1.1h0.1v14.6c0,0.1,0.1,0.3,0.2,0.4C887.2,398.9,887.3,398.9,887.5,398.9z M881.2,389.5v-1h4.2
		v1H881.2z M881.2,391.6v-1h4.2v1H881.2z"/>
	<path class="st12" d="M894.8,400c-0.4,0-0.8-0.2-1.1-0.5s-0.5-0.7-0.5-1.1v-14.6c0-1,0.4-1.9,1.1-2.6s1.6-1.1,2.6-1.1h4.2
		c1,0,1.8,0.4,2.5,1.1s1.1,1.6,1.1,2.6h0.1v8.3c0,1-0.4,1.9-1.1,2.6c-0.7,0.7-1.6,1.1-2.6,1.1H899c-0.4,0-0.8-0.2-1.1-0.5
		s-0.5-0.7-0.5-1.1s0.2-0.8,0.5-1.1c0.3-0.3,0.7-0.5,1.1-0.5h2.1c0.1,0,0.3-0.1,0.4-0.2c0.1-0.1,0.2-0.2,0.2-0.4v-8.3h-0.1
		c0-0.1-0.1-0.3-0.2-0.4c-0.1-0.1-0.2-0.2-0.4-0.2h-4.1c-0.1,0-0.3,0.1-0.4,0.2c-0.1,0.1-0.2,0.2-0.2,0.4v14.6
		c0,0.4-0.2,0.8-0.5,1.1S895.3,400,894.8,400z M894.8,398.9c0.1,0,0.3-0.1,0.4-0.2c0.1-0.1,0.2-0.2,0.2-0.4v-14.6
		c0-0.4,0.2-0.8,0.5-1.1c0.3-0.3,0.7-0.5,1.1-0.5h4.2l0,0c0.4,0,0.8,0.2,1.1,0.5s0.5,0.7,0.5,1.1h0.1v8.3c0,0.4-0.2,0.8-0.5,1.1
		s-0.7,0.5-1.1,0.5H899c-0.1,0-0.3,0.1-0.4,0.2c-0.1,0.1-0.2,0.2-0.2,0.4c0,0.1,0.1,0.3,0.2,0.4c0.1,0.1,0.2,0.2,0.4,0.2h2.1
		c0.7,0,1.3-0.3,1.8-0.8s0.8-1.1,0.8-1.8v-8.3h-0.1c0-0.7-0.3-1.3-0.8-1.8s-1.1-0.8-1.8-0.8h-4.1c-0.7,0-1.3,0.3-1.8,0.8
		s-0.8,1.1-0.8,1.8v14.6c0,0.1,0.1,0.3,0.2,0.4C894.6,398.9,894.7,398.9,894.8,398.9z"/>
	<path class="st12" d="M909,400c-0.4,0-0.8-0.2-1.1-0.5s-0.5-0.7-0.5-1.1s0.2-0.8,0.5-1.1s0.7-0.5,1.1-0.5h6.3
		c0.1,0,0.3-0.1,0.4-0.2c0.1-0.1,0.2-0.2,0.2-0.4V392h-0.1c0-0.1-0.1-0.3-0.2-0.4c-0.1-0.1-0.2-0.2-0.4-0.2H911
		c-1,0-1.9-0.4-2.6-1.1c-0.7-0.7-1.1-1.6-1.1-2.6v-4.2c0-1,0.4-1.9,1.1-2.6c0.7-0.7,1.6-1.1,2.6-1.1h4.2c0.2,0,0.5,0,0.7,0.1
		c0.2,0,0.5,0.1,0.7,0.2c0.4,0.2,0.7,0.4,0.9,0.8c0.1,0.2,0.1,0.4,0.1,0.6s0,0.4-0.1,0.6c-0.2,0.4-0.5,0.7-0.9,0.8
		c-0.2,0.1-0.4,0.1-0.6,0.1c-0.2,0-0.4,0-0.6-0.1c-0.1,0-0.1,0-0.2,0H911c-0.1,0-0.3,0.1-0.4,0.2c-0.1,0.1-0.2,0.2-0.2,0.4v4.2
		c0,0.1,0.1,0.3,0.2,0.4c0.1,0.1,0.2,0.2,0.4,0.2h4.2c1,0,1.8,0.4,2.5,1.1s1.1,1.6,1.1,2.6h0.1v4.2c0,1-0.4,1.9-1.1,2.6
		c-0.7,0.7-1.6,1.1-2.6,1.1H909V400z M915.2,398.9c0.7,0,1.3-0.3,1.8-0.8s0.8-1.1,0.8-1.8v-4.2h-0.1c0-0.7-0.3-1.3-0.8-1.8
		s-1.1-0.8-1.8-0.8H911c-0.4,0-0.8-0.2-1.1-0.5s-0.5-0.7-0.5-1.1v-4.2c0-0.4,0.2-0.8,0.5-1.1c0.3-0.3,0.7-0.5,1.1-0.5h4.2
		c0.1,0,0.2,0,0.3,0s0.2,0,0.3,0.1c0.1,0,0.1,0,0.2,0s0.1,0,0.2,0c0.1-0.1,0.2-0.1,0.3-0.3c0-0.1,0-0.1,0-0.2s0-0.1,0-0.2
		c-0.1-0.1-0.1-0.2-0.3-0.3c-0.2-0.1-0.3-0.1-0.5-0.1s-0.3-0.1-0.5-0.1H911c-0.7,0-1.3,0.3-1.8,0.8s-0.8,1.1-0.8,1.8v4.2
		c0,0.7,0.3,1.3,0.8,1.8s1.1,0.8,1.8,0.8h4.2c0.4,0,0.8,0.2,1.1,0.5s0.5,0.7,0.5,1.1h0.1v4.2c0,0.4-0.2,0.8-0.5,1.1
		s-0.7,0.5-1.1,0.5H909c-0.1,0-0.3,0.1-0.4,0.2c-0.1,0.1-0.2,0.2-0.2,0.4c0,0.1,0.1,0.3,0.2,0.4c0.1,0.1,0.2,0.2,0.4,0.2h6.2V398.9z
		"/>
</g>
</svg>
