<?xml version="1.0" encoding="utf-8"?>
<!-- Generator: Adobe Illustrator 19.0.0, SVG Export Plug-In . SVG Version: 6.00 Build 0)  -->
<svg version="1.1" id="Layer_1" xmlns="http://www.w3.org/2000/svg" xmlns:xlink="http://www.w3.org/1999/xlink" x="0px" y="0px"
	 viewBox="-178.4 25.4 758.4 511.2" style="enable-background:new -178.4 25.4 758.4 511.2;" xml:space="preserve">
<style type="text/css">
	.st0{fill:url(#SVGID_1_);}
	.st1{fill:#2F3774;}
	.st2{fill:url(#SVGID_2_);}
</style>
<linearGradient id="SVGID_1_" gradientUnits="userSpaceOnUse" x1="-103.54" y1="254.54" x2="331" y2="254.54">
	<stop  offset="0" style="stop-color:#96EBBA"/>
	<stop  offset="0.2742" style="stop-color:#BAECAB"/>
	<stop  offset="0.5791" style="stop-color:#DCED9D"/>
	<stop  offset="0.8321" style="stop-color:#F1EE95"/>
	<stop  offset="1" style="stop-color:#F8EE92"/>
</linearGradient>
<path class="st0" d="M302.8,52.1l-85,0.3L6.5,53l-32.7,0.1c-14.7,7-64.1,26.5-76.6,38.8c-0.3,0.3-0.5,0.5-0.7,0.8V457H331V52
	L302.8,52.1z M-67.6,181.7v-1c0.3-32,26.5-57.7,58.5-57.4c31.9,0,57.7,26.3,57.5,58.9c-0.1,31.9-26.5,58.3-58.1,58.2
	C-41.7,240.2-67.6,213.9-67.6,181.7L-67.6,181.7z"/>
<path class="st1" d="M540.3,206.7c0-12-1.4-23.9-4.3-35.6c-6.4-26.1-19.3-49.4-36.8-68.3C487,89.5,472.5,78.4,456.4,70
	c-21.7-11.4-46.3-17.8-72.1-17.8c-17.8,0-35.6,0-53.3,0h-28.2c-18.8,0-37.7,0-56.5,0c-9.5,0-19-0.4-28.5,0.2
	c-3.9,0.3-7.7,0.7-11.6,1.4c-9,2.4-17.7,5.6-25.6,10.3c-2.7,1.5-5.2,3.3-7.7,5.2c-0.4,0.3-0.7,0.6-1.1,0.8
	c-26.3,20.3-38.6,47.1-36.1,80.6c0.2,2.4,0.4,4.9,0.6,7.3c3.9,18.2,11.7,34.3,24.9,47.5c17.4,17.3,38.4,26.4,63,26.6
	c21.6,0.2,43.2,0.1,64.9,0c4.8-0.1,9.5,1.6,13.1,4.8c1.6,1.4,2.8,3,2.9,5.2c3.8,3.2,3.4,7.4,2.8,11.6c-0.9,6.8-9.2,14.3-17.3,14.2
	c-42.8-0.4-85.5-0.1-128.3-0.3c-15.2-0.2-30.3,2.6-44.5,8.2c-4.3,1.8-8.4,3.8-12.4,6.1c-7.3,4.1-14.1,9.1-20.2,14.9
	c-0.7,0.6-1.4,1.1-2.1,1.7C74,307.5,66.5,318,61,329.6c-5.4,11.4-10.3,23.1-8.9,36.2c0,0.6-0.1,1.3-0.3,1.9
	c0.6,10.6,0.2,21.2,0.2,31.7c1,12.5,4.3,24.4,8.8,36c0.7,1.7,1.1,2.8-1.5,2.8c-27.4-0.1-54.9,0.5-82.3-1c-19.5-1-39.3-19.1-42.2-37
	C-68,392.6-67,384.8-67,377c-0.2-1.1-0.3-2.3-0.4-3.4v-71.8c0-4.2,0-4.3,3.9-2.5c28.3,12.6,57.5,14.9,87.5,7.3
	c9.8-2.5,19.1-6.4,28.2-10.9c9.3-5.7,18.5-11.7,26.5-19.1c10.8-10.2,19.8-22,26.7-35c0,0,0-0.1,0.1-0.1
	c10.6-20.6,15.5-43.7,14.1-66.9c-0.3-5.2-1-10.5-1.5-15.7c-2.4-10.9-5.5-21.7-10.4-31.8c-0.7-1.5-1.5-2.9-2.2-4.4
	C91.2,95.5,70.8,76,44.4,64c-8.8-4-18.3-7.1-28.4-9.5c-0.9-0.2-1.7-0.5-2.5-0.8c-2.3-0.3-4.7-0.6-7-0.8c-10.9-1.1-21.8-1.3-32.7,0.1
	c-13.3,1.7-26,5.5-37.7,10.9c-14.7,6.8-27.9,16.3-38.9,27.8c-0.3,0.3-0.5,0.5-0.7,0.8c-21.4,22.7-34.7,52.9-35.4,85.8
	c-0.2,11.1,0.1,22.2,0.1,33.3V376c0,7.1,0.1,14.1,0.6,21.2c1.3,18.4,6.9,36.2,16.5,52c20,32.9,49,52.4,87,58.6
	c15.6,2.5,31.4,1.9,47,1.9c123.9,0.4,247.7,0.1,371.6,0.3c26.1,0,50.8-5.4,73.4-18.2c15.8-8.9,29.4-19.2,40.8-30.8
	c0.4-0.4,0.8-0.9,1.2-1.3c26.2-27.3,40.2-62.1,40.9-104.6C540.9,305.7,540.2,256.2,540.3,206.7z M-9.1,123.4
	c31.9,0,57.7,26.3,57.5,58.9c-0.1,31.9-26.5,58.3-58.1,58.2c-32-0.2-58-26.5-57.9-58.7l0,0v-1C-67.3,148.7-41.1,123-9.1,123.4z
	 M462.9,382.4c-10.5,28.8-31.4,46.3-60.9,53.7c-5.8,1.4-11.7,2.1-17.6,2c-17.8,0-35.6-0.1-53.4-0.1c-5.5,0-11,0-16.5,0
	c-24.1,0.1-48.3,0.1-72.4,0.1c-8.9,0-17.7-0.1-26.6-0.1l-48.7,0.1c-1.9-0.1-3.8-0.6-5.5-1.5c-11.5-2.6-21.5-9.5-28-19.4
	c-4.9-6.3-8-13.8-8.9-21.7c-1.5-9.1-1.5-18.3,0-27.3c2.7-14.7,17.2-27.2,32.4-27.5c24.7-0.4,49.4,0,74.1,0h49.5
	c10.7-0.2,21.4,0,31.8-2.9c6.7-1.8,13-4.3,18.8-7.3c13.2-6.8,24.4-16.6,33.3-29.6c0.7-1.1,1.5-2.1,2.3-3.1
	c6.4-11.2,10.7-23.5,12.7-36.3c1-15.6,0.1-30.9-6.4-45.4c-1.9-4.3-4.1-8.6-6.1-12.8c-5.1-6.4-9.9-13.1-16-18.7
	c-6-5.5-12.7-10.2-19.8-13.9c-6-3.1-12.4-5.6-19-7.4c-0.7-0.2-1.4-0.5-2.1-0.8c-24.8-3.9-49.9-1.2-74.8-2c-3.6-0.1-7.2,0.1-10.8,0
	c-9.9-0.3-17.7-8.5-17.5-18.4v-0.3c0-9.7,7.8-17.6,17.5-17.6h155.3c0.3,0,0.5,0.1,0.8,0.1c10.5-0.5,21,1.1,30.9,4.7
	c9.7,3.4,18.6,7.8,26.3,14.5c5.2,4.6,9.9,9.6,14.2,15c7.1,8.3,10.6,18.2,13.7,28.4c3.4,10.8,3.5,21.9,3.1,33v90.5
	c0.1,16.5,0.6,33-0.3,49.5C468.3,367.8,465.5,375.2,462.9,382.4z"/>
<linearGradient id="SVGID_2_" gradientUnits="userSpaceOnUse" x1="468.5463" y1="281.1674" x2="123.3337" y2="281.1674">
	<stop  offset="0" style="stop-color:#FC8376"/>
	<stop  offset="1" style="stop-color:#F8EE92"/>
</linearGradient>
<path class="st2" d="M468.1,359.9c0.3,8-2.5,15.4-5.1,22.5c-10.5,28.8-31.4,46.3-60.9,53.7c-5.8,1.4-11.7,2.1-17.6,2
	c-23.3,0-46.6-0.1-69.9-0.2c-24.1,0.1-48.3,0.1-72.4,0.1c-8.9,0-17.7-0.1-26.6-0.1l-48.7,0.1c-1.9-0.1-3.8-0.6-5.5-1.5
	c-11.5-2.6-21.5-9.5-28-19.4c-4.9-6.3-8-13.8-8.9-21.7c-1.5-9.1-1.5-18.3,0-27.3c2.7-14.7,17.2-27.2,32.4-27.5
	c24.7-0.4,49.4,0,74.1,0h49.5c10.7-0.2,21.4,0,31.8-2.9c21.8-6,39.3-18.2,52.1-36.8c0.7-1.1,1.5-2.1,2.3-3.1
	c6.4-11.2,10.7-23.5,12.7-36.3c1-15.6,0.1-30.9-6.4-45.4c-1.9-4.3-4.1-8.6-6.1-12.8c-5.1-6.4-9.9-13.1-16-18.7
	c-11-10.2-24.4-17.5-38.9-21.3c-0.7-0.2-1.4-0.5-2.1-0.8c-24.8-3.9-49.9-1.2-74.8-2c-3.6-0.1-7.2,0.1-10.8,0
	c-9.9-0.3-17.7-8.5-17.5-18.4v-0.3c0-9.7,7.8-17.6,17.5-17.6h155.3c0.3,0,0.5,0.1,0.8,0.1c10.5-0.5,21,1.1,30.9,4.7
	c9.7,3.4,18.6,7.8,26.3,14.5c5.2,4.6,9.9,9.6,14.2,15c7.1,8.3,10.6,18.2,13.7,28.4c3.4,10.8,3.5,21.9,3.1,33v90.5
	C468.4,326.9,468.9,343.4,468.1,359.9z"/>
</svg>
