<svg xmlns="http://www.w3.org/2000/svg" viewBox="-178.4 25.4 758.4 511.2"><linearGradient id="a" gradientUnits="userSpaceOnUse" x1="-103.54" y1="254.54" x2="331" y2="254.54"><stop offset="0" stop-color="#96ebba"/><stop offset=".274" stop-color="#baecab"/><stop offset=".579" stop-color="#dced9d"/><stop offset=".832" stop-color="#f1ee95"/><stop offset="1" stop-color="#f8ee92"/></linearGradient><path d="M302.8 52.1l-85 .3L6.5 53l-32.7.1c-14.7 7-64.1 26.5-76.6 38.8-.3.3-.5.5-.7.8V457H331V52l-28.2.1zM-67.6 181.7v-1c.3-32 26.5-57.7 58.5-57.4 31.9 0 57.7 26.3 57.5 58.9-.1 31.9-26.5 58.3-58.1 58.2-32-.2-57.9-26.5-57.9-58.7z" fill="url(#a)"/><path d="M540.3 206.7c0-12-1.4-23.9-4.3-35.6-6.4-26.1-19.3-49.4-36.8-68.3C487 89.5 472.5 78.4 456.4 70c-21.7-11.4-46.3-17.8-72.1-17.8h-138c-9.5 0-19-.4-28.5.2-3.9.3-7.7.7-11.6 1.4-9 2.4-17.7 5.6-25.6 10.3-2.7 1.5-5.2 3.3-7.7 5.2-.4.3-.7.6-1.1.8-26.3 20.3-38.6 47.1-36.1 80.6.2 2.4.4 4.9.6 7.3 3.9 18.2 11.7 34.3 24.9 47.5 17.4 17.3 38.4 26.4 63 26.6 21.6.2 43.2.1 64.9 0 4.8-.1 9.5 1.6 13.1 4.8 1.6 1.4 2.8 3 2.9 5.2 3.8 3.2 3.4 7.4 2.8 11.6-.9 6.8-9.2 14.3-17.3 14.2-42.8-.4-85.5-.1-128.3-.3-15.2-.2-30.3 2.6-44.5 8.2-4.3 1.8-8.4 3.8-12.4 6.1-7.3 4.1-14.1 9.1-20.2 14.9-.7.6-1.4 1.1-2.1 1.7-9.1 9-16.6 19.5-22.1 31.1-5.4 11.4-10.3 23.1-8.9 36.2 0 .6-.1 1.3-.3 1.9.6 10.6.2 21.2.2 31.7 1 12.5 4.3 24.4 8.8 36 .7 1.7 1.1 2.8-1.5 2.8-27.4-.1-54.9.5-82.3-1-19.5-1-39.3-19.1-42.2-37-2.8-7.6-1.8-15.4-1.8-23.2-.2-1.1-.3-2.3-.4-3.4v-71.8c0-4.2 0-4.3 3.9-2.5 28.3 12.6 57.5 14.9 87.5 7.3 9.8-2.5 19.1-6.4 28.2-10.9 9.3-5.7 18.5-11.7 26.5-19.1 10.8-10.2 19.8-22 26.7-35 0 0 0-.1.1-.1 10.6-20.6 15.5-43.7 14.1-66.9-.3-5.2-1-10.5-1.5-15.7-2.4-10.9-5.5-21.7-10.4-31.8-.7-1.5-1.5-2.9-2.2-4.4C91.2 95.5 70.8 76 44.4 64c-8.8-4-18.3-7.1-28.4-9.5-.9-.2-1.7-.5-2.5-.8-2.3-.3-4.7-.6-7-.8-10.9-1.1-21.8-1.3-32.7.1-13.3 1.7-26 5.5-37.7 10.9-14.7 6.8-27.9 16.3-38.9 27.8-.3.3-.5.5-.7.8-21.4 22.7-34.7 52.9-35.4 85.8-.2 11.1.1 22.2.1 33.3V376c0 7.1.1 14.1.6 21.2 1.3 18.4 6.9 36.2 16.5 52 20 32.9 49 52.4 87 58.6 15.6 2.5 31.4 1.9 47 1.9 123.9.4 247.7.1 371.6.3 26.1 0 50.8-5.4 73.4-18.2 15.8-8.9 29.4-19.2 40.8-30.8.4-.4.8-.9 1.2-1.3 26.2-27.3 40.2-62.1 40.9-104.6.7-49.4 0-98.9.1-148.4zM-9.1 123.4c31.9 0 57.7 26.3 57.5 58.9-.1 31.9-26.5 58.3-58.1 58.2-32-.2-58-26.5-57.9-58.7v-1c.3-32.1 26.5-57.8 58.5-57.4zm472 259c-10.5 28.8-31.4 46.3-60.9 53.7-5.8 1.4-11.7 2.1-17.6 2-17.8 0-35.6-.1-53.4-.1h-16.5c-24.1.1-48.3.1-72.4.1-8.9 0-17.7-.1-26.6-.1l-48.7.1c-1.9-.1-3.8-.6-5.5-1.5-11.5-2.6-21.5-9.5-28-19.4-4.9-6.3-8-13.8-8.9-21.7-1.5-9.1-1.5-18.3 0-27.3 2.7-14.7 17.2-27.2 32.4-27.5 24.7-.4 49.4 0 74.1 0h49.5c10.7-.2 21.4 0 31.8-2.9 6.7-1.8 13-4.3 18.8-7.3 13.2-6.8 24.4-16.6 33.3-29.6.7-1.1 1.5-2.1 2.3-3.1 6.4-11.2 10.7-23.5 12.7-36.3 1-15.6.1-30.9-6.4-45.4-1.9-4.3-4.1-8.6-6.1-12.8-5.1-6.4-9.9-13.1-16-18.7-6-5.5-12.7-10.2-19.8-13.9-6-3.1-12.4-5.6-19-7.4-.7-.2-1.4-.5-2.1-.8-24.8-3.9-49.9-1.2-74.8-2-3.6-.1-7.2.1-10.8 0-9.9-.3-17.7-8.5-17.5-18.4v-.3c0-9.7 7.8-17.6 17.5-17.6h155.3c.3 0 .5.1.8.1 10.5-.5 21 1.1 30.9 4.7 9.7 3.4 18.6 7.8 26.3 14.5 5.2 4.6 9.9 9.6 14.2 15 7.1 8.3 10.6 18.2 13.7 28.4 3.4 10.8 3.5 21.9 3.1 33v90.5c.1 16.5.6 33-.3 49.5 0 7.9-2.8 15.3-5.4 22.5z" fill="#2f3774"/><linearGradient id="b" gradientUnits="userSpaceOnUse" x1="468.546" y1="281.167" x2="123.334" y2="281.167"><stop offset="0" stop-color="#fc8376"/><stop offset="1" stop-color="#f8ee92"/></linearGradient><path d="M468.1 359.9c.3 8-2.5 15.4-5.1 22.5-10.5 28.8-31.4 46.3-60.9 53.7-5.8 1.4-11.7 2.1-17.6 2-23.3 0-46.6-.1-69.9-.2-24.1.1-48.3.1-72.4.1-8.9 0-17.7-.1-26.6-.1l-48.7.1c-1.9-.1-3.8-.6-5.5-1.5-11.5-2.6-21.5-9.5-28-19.4-4.9-6.3-8-13.8-8.9-21.7-1.5-9.1-1.5-18.3 0-27.3 2.7-14.7 17.2-27.2 32.4-27.5 24.7-.4 49.4 0 74.1 0h49.5c10.7-.2 21.4 0 31.8-2.9 21.8-6 39.3-18.2 52.1-36.8.7-1.1 1.5-2.1 2.3-3.1 6.4-11.2 10.7-23.5 12.7-36.3 1-15.6.1-30.9-6.4-45.4-1.9-4.3-4.1-8.6-6.1-12.8-5.1-6.4-9.9-13.1-16-18.7-11-10.2-24.4-17.5-38.9-21.3-.7-.2-1.4-.5-2.1-.8-24.8-3.9-49.9-1.2-74.8-2-3.6-.1-7.2.1-10.8 0-9.9-.3-17.7-8.5-17.5-18.4v-.3c0-9.7 7.8-17.6 17.5-17.6h155.3c.3 0 .5.1.8.1 10.5-.5 21 1.1 30.9 4.7 9.7 3.4 18.6 7.8 26.3 14.5 5.2 4.6 9.9 9.6 14.2 15 7.1 8.3 10.6 18.2 13.7 28.4 3.4 10.8 3.5 21.9 3.1 33v90.5c-.2 16.5.3 33-.5 49.5z" fill="url(#b)"/></svg>