<?xml version="1.0" encoding="utf-8"?>
<!-- Generator: Adobe Illustrator 19.0.0, SVG Export Plug-In . SVG Version: 6.00 Build 0)  -->
<svg version="1.1" id="Logo" xmlns="http://www.w3.org/2000/svg" xmlns:xlink="http://www.w3.org/1999/xlink" x="0px" y="0px"
	 viewBox="0 0 943.8 253.8" style="enable-background:new 0 0 943.8 253.8;" xml:space="preserve">
<style type="text/css">
	.st0{fill:#EE3134;}
	.st1{fill:#FFFFFF;}
</style>
<path class="st0" d="M899.3,253.8H44.4C19.9,253.8,0,233.9,0,209.4V44.4C0,19.9,19.9,0,44.4,0h854.9c24.5,0,44.4,19.9,44.4,44.4
	v164.9C943.8,233.9,923.9,253.8,899.3,253.8z"/>
<g>
	<g>
		<path class="st1" d="M80,74.7v105.8c0,0,1.2,24.1,26,24.1h104.6c0,0,23.2-2.3,23.2-24.9v-105c0,0,2.4-25.4-25-25.4h-104
			C104.7,49.2,80,50.6,80,74.7z"/>
		<g>
			<path class="st1" d="M401.3,104.5c6.5,0,12.8-5.4,13.9-12.1c1.3-6.5-3.1-11.9-9.6-11.9c-6.5,0-12.8,5.4-13.9,11.9
				C390.4,99.1,394.6,104.5,401.3,104.5z"/>
			<path class="st1" d="M843.4,123.9c0,0,14.3,0,14.6,0c2,0,3.2-0.8,3.6-2.7c0.6-2.7,1.8-7.4,2.2-8.6c0.4-1.7-0.5-2.9-2.4-2.9
				c-0.4,0-7.3,0-14.4,0c1-4.1,5.1-17.5,5.1-26.2c0-17.4-14.8-32.2-35.8-32.2c-23.7,0-39.1,15.9-39.1,38.3c0,6.5,2.4,14.1,5.5,18.9
				c-1.3-0.1-2.6-0.1-3.9-0.1c-18,0-29.4,9.8-29.4,24c0,13.3,10.5,18.5,20.4,22c8.8,3.1,16.9,4.5,16.9,11.4c0,4.6-4.5,7.4-13.2,7.4
				c-10.3,0-16-4.9-17.5-6.7c1-0.8,2.4-2.6,2.4-5.7c0-4.3-3-7.8-8.6-7.8c-4.7,0-8.7,3.8-9.7,8.9c-7.6,6.2-15.9,10.2-27.6,10.2
				c-11.6,0-17.5-6-17.5-18.8c2.7,0.8,9.8,1.8,14.4,1.8c19.6,0,32.9-8.9,32.9-26.7c0-9.6-8.4-19.6-25-19.6h0
				c-21.9,0-34.1,13.8-39.5,29.1c-1.5-0.4-3-0.7-4.5-1.1c1.2-3.4,2.1-7.3,2.1-11.6c0-7.5-4.7-16.4-17.1-16.4
				c-8.7,0-16.9,5.7-22.6,14.2c1.4-5.6,2.4-9.3,2.4-9.5c0.4-1.5-0.2-3.1-2.5-3.1c-2.9,0-12.8,0-12.8,0c-1.8,0-3.1,0.6-3.6,2.7
				c-0.3,1.4-4.7,18.6-9,35.4c-2.7,10.5-16.6,23.5-34.2,23.5c-11.6,0-17.5-6.4-17.5-19.2c3,1.2,9.8,2.2,14.4,2.2
				c20.4,0,32.9-8.9,32.9-26.7c0-9.6-8.4-19.6-25-19.6h0c-24.6,0-39.7,19.1-42.3,40.8c-1.1,9-8.7,21.4-16.9,21.4
				c-4,0-6.3-2.5-6.3-6.8c0-3.7,2.6-12.7,5.5-24.1c1-3.8,2.4-9.6,4-16c7.3,0,13.1,0,13.4,0c2,0,3.2-0.8,3.6-2.7
				c0.6-2.7,1.8-7.4,2.1-8.6c0.4-1.7-0.5-2.9-2.4-2.9c-0.4,0-13.2,0-13.2,0s6.1-24.2,6.2-24.8c0.6-2.5-1.5-3.9-3.6-3.4
				c0,0-10.2,2-12.1,2.4c-1.9,0.4-3.4,1.4-4.1,4.2c-0.1,0.3-5.4,21.7-5.4,21.7s-10.3,0-10.6,0c-2,0-3.2,0.8-3.6,2.7
				c-0.6,2.7-1.8,7.4-2.1,8.6c-0.4,1.7,0.5,2.9,2.4,2.9c0.4,0,4.7,0,10.4,0c-0.1,0.3-3.7,14.3-6.7,26.8c-1.4,6-6.1,20.1-13.7,20.1
				c-4.6,0-6.5-2.3-6.5-7.3c0-7.8,7.7-27.3,7.7-36.2c0-11.8-6.3-18.7-19.4-18.7c-8.2,0-16.7,5.3-20.3,9.9c0,0,1.1-3.8,1.5-5.3
				c0.4-1.5-0.4-3.1-2.5-3.1c-2.9,0-10,0-12.7,0c-2.7,0-3.5,1.4-3.9,3c-0.2,0.6-4.7,18.6-9.1,35.9c-3,11.8-10.3,21.7-18.1,21.7
				c-4,0-5.8-2.5-5.8-6.8c0-3.7,2.4-12.8,5.2-24.2c3.5-13.8,6.5-25.2,6.9-26.5c0.4-1.7-0.3-3.2-2.5-3.2c-2.7,0-9.9,0-12.8,0
				c-2.3,0-3.1,1.2-3.6,2.9c0,0-3.6,13.6-7.4,28.8c-2.8,11-5.8,22.2-5.8,27.5c0,9.4,4.2,16.5,15.8,16.5c9,0,16.1-4.5,21.5-10.3
				c-0.8,3.1-1.3,5.1-1.4,5.3c-0.5,1.8,0.1,3.4,2.2,3.4c2.9,0,10.2,0,13.1,0c2.3,0,3.2-0.9,3.6-2.9c0.5-1.9,10.2-40.4,10.2-40.4
				c2.6-10.3,9-17.2,18-17.2c4.3,0,8,2.8,7.5,8.3c-0.5,6-7.8,27.7-7.8,37.2c0,7.2,2.7,16.5,16.2,16.5c9.2,0,16-4.4,21-10.2
				c1.8,6.1,6.6,10.2,15.4,10.2c14.6,0,23.5-8.7,28.6-17.4c4.3,10.1,14.4,17.4,29.1,17.4c15.1,0,26.7-6.3,35-15
				c-1.5,5.8-2.5,9.8-2.6,10.1c-0.5,1.8,0.3,3.2,2.5,3.2c2.9,0,11.7,0,13,0c1.8,0,3-0.9,3.5-2.8c0.2-0.9,2.1-8.2,4.7-18.4
				c5.1-19.7,13.2-40.1,25.4-40.1c4.3,0,6.1,2.4,6.1,6.2c0,1.8-0.5,3.3-1,4.2c-5.9-1.2-10.7,1.7-10.7,8.1c0,4.1,4.3,7.9,10.2,7.9
				c4.5,0,8.2-1.1,11.1-3.1c2.8,0.6,5.7,1.2,8.7,1.9c-0.5,3-0.7,5.9-0.7,8.6c0,15.8,11.3,29.2,31.5,29.2c15.8,0,26.7-5.8,36.1-13.2
				c4.5,7.4,15.9,13.3,30.8,13.3c20.5,0,32.1-10.6,32.1-24.7c0-12.7-10.5-17.4-21.2-21.3c-8.8-3.2-16.1-4.9-16.1-11.1
				c0-5.1,4-7.4,10.8-7.4c4.4,0,7.8,1,9.6,1.5c1.8,4.4,5.4,9.3,11.7,9.3c5.3,0,7.7-4.2,7.7-8c0-11-18.2-12.1-18.2-35.6
				c0-14.6,8.3-26.7,25.4-26.7c11.9,0,19.7,7.5,19.7,19.7c0,10-6.1,27.9-6.1,27.9s-10.1,0-10.3,0c-2,0-3.2,0.8-3.6,2.7
				c-0.6,2.7-1.8,7.4-2.2,8.6c-0.4,1.7,0.5,2.9,2.4,2.9c0.4,0,10.1,0,10.1,0S814,162.4,814,169.4c0,9.4,5.3,16.5,16.9,16.5
				c16.4,0,26.7-10.7,31.2-26.2c0.3-1.2-0.3-2.2-1.5-2.2c-2.1,0-5.3,0-6.3,0c-1.3,0-2,0.7-2.3,1.9c-1.4,5.5-4.9,11.3-11.8,11.3
				c-4,0-6.3-2.5-6.3-6.8c0-3.7,2.4-12.4,5.5-24.1C840.8,134.3,843.4,123.9,843.4,123.9z M713.8,123.2c5.8,0,8.6,3.9,8.6,8.5
				c0,7.8-6,12.5-15.5,12.5c-3.4,0-8.1-0.8-10.9-1.7C697.2,135.3,702.4,123.2,713.8,123.2z M577.2,123.2c6.4,0,8.6,3.9,8.6,8.5
				c0,7.8-6,12.5-15.5,12.5c-3.4,0-8.1-0.8-10.9-1.7C560.5,135.3,565.1,123.2,577.2,123.2z"/>
			<path class="st1" d="M325.8,51c-41.5,0-62.4,29.7-62.4,54.5c0,15,5.7,28.4,17.9,33.3c2,0.8,3.8,0,4.4-2.2c0.4-1.5,1.4-5.4,1.8-7
				c0.6-2.2,0.4-3-1.3-4.9c-3.5-4.1-5.8-9.5-5.8-17.1c0-22,16.5-41.8,43-41.8c23.4,0,36.3,14.3,36.3,33.4
				c0,25.2-11.1,46.4-27.7,46.4c-9.1,0-16-7.5-13.8-16.8c2.6-11.1,7.7-23,7.7-31c0-7.1-3.8-13.1-11.8-13.1
				c-9.3,0-16.8,9.7-16.8,22.6c0,8.2,2.8,13.8,2.8,13.8s-9.5,40.5-11.2,47.5c-3.3,14.1-0.5,31.4-0.3,33.2c0.1,1,1.5,1.3,2.1,0.5
				c0.9-1.1,12-14.8,15.8-28.5c1.1-3.9,6.1-24,6.1-24c3,5.8,11.9,10.9,21.3,10.9c28,0,47.1-25.6,47.1-59.8
				C381,75.1,359.1,51,325.8,51z"/>
		</g>
	</g>
	<path class="st0" d="M160.3,74.1c-32.8,0-49.3,23.5-49.3,43.1c0,11.9,4.5,22.4,14.1,26.4c1.6,0.6,3,0,3.5-1.7
		c0.3-1.2,1.1-4.3,1.4-5.5c0.5-1.7,0.3-2.3-1-3.8c-2.8-3.3-4.6-7.5-4.6-13.5c0-17.4,13.1-33.1,34-33.1c18.5,0,28.7,11.3,28.7,26.5
		c0,19.9-8.8,36.7-21.9,36.7c-7.2,0-12.6-6-10.9-13.3c2.1-8.7,6.1-18.2,6.1-24.5c0-5.7-3-10.4-9.3-10.4c-7.4,0-13.3,7.6-13.3,17.9
		c0,6.5,2.2,10.9,2.2,10.9s-7.6,32-8.9,37.6c-2.6,11.2-0.4,24.9-0.2,26.2c0.1,0.8,1.2,1,1.6,0.4c0.7-0.9,9.5-11.7,12.5-22.6
		c0.8-3.1,4.9-19,4.9-19c2.4,4.6,9.4,8.6,16.9,8.6c22.2,0,37.3-20.2,37.3-47.3C204,93.1,186.7,74.1,160.3,74.1z"/>
</g>
</svg>
