<svg version="1.1" id="Logo" xmlns="http://www.w3.org/2000/svg" x="0" y="0" viewBox="0 0 943.8 253.8" xml:space="preserve"><style>.st0{fill:#ee3134}.st1{fill:#fff}</style><path class="st0" d="M899.3 253.8H44.4C19.9 253.8 0 233.9 0 209.4v-165C0 19.9 19.9 0 44.4 0h854.9c24.5 0 44.4 19.9 44.4 44.4v164.9c.1 24.6-19.8 44.5-44.4 44.5z"/><path class="st1" d="M80 74.7v105.8s1.2 24.1 26 24.1h104.6s23.2-2.3 23.2-24.9v-105s2.4-25.4-25-25.4h-104c-.1-.1-24.8 1.3-24.8 25.4zM401.3 104.5c6.5 0 12.8-5.4 13.9-12.1 1.3-6.5-3.1-11.9-9.6-11.9s-12.8 5.4-13.9 11.9c-1.3 6.7 2.9 12.1 9.6 12.1zM843.4 123.9H858c2 0 3.2-.8 3.6-2.7.6-2.7 1.8-7.4 2.2-8.6.4-1.7-.5-2.9-2.4-2.9H847c1-4.1 5.1-17.5 5.1-26.2 0-17.4-14.8-32.2-35.8-32.2-23.7 0-39.1 15.9-39.1 38.3 0 6.5 2.4 14.1 5.5 18.9-1.3-.1-2.6-.1-3.9-.1-18 0-29.4 9.8-29.4 24 0 13.3 10.5 18.5 20.4 22 8.8 3.1 16.9 4.5 16.9 11.4 0 4.6-4.5 7.4-13.2 7.4-10.3 0-16-4.9-17.5-6.7 1-.8 2.4-2.6 2.4-5.7 0-4.3-3-7.8-8.6-7.8-4.7 0-8.7 3.8-9.7 8.9-7.6 6.2-15.9 10.2-27.6 10.2-11.6 0-17.5-6-17.5-18.8 2.7.8 9.8 1.8 14.4 1.8 19.6 0 32.9-8.9 32.9-26.7 0-9.6-8.4-19.6-25-19.6-21.9 0-34.1 13.8-39.5 29.1-1.5-.4-3-.7-4.5-1.1 1.2-3.4 2.1-7.3 2.1-11.6 0-7.5-4.7-16.4-17.1-16.4-8.7 0-16.9 5.7-22.6 14.2 1.4-5.6 2.4-9.3 2.4-9.5.4-1.5-.2-3.1-2.5-3.1h-12.8c-1.8 0-3.1.6-3.6 2.7-.3 1.4-4.7 18.6-9 35.4C607.5 159 593.6 172 576 172c-11.6 0-17.5-6.4-17.5-19.2 3 1.2 9.8 2.2 14.4 2.2 20.4 0 32.9-8.9 32.9-26.7 0-9.6-8.4-19.6-25-19.6-24.6 0-39.7 19.1-42.3 40.8-1.1 9-8.7 21.4-16.9 21.4-4 0-6.3-2.5-6.3-6.8 0-3.7 2.6-12.7 5.5-24.1 1-3.8 2.4-9.6 4-16h13.4c2 0 3.2-.8 3.6-2.7.6-2.7 1.8-7.4 2.1-8.6.4-1.7-.5-2.9-2.4-2.9h-13.2s6.1-24.2 6.2-24.8c.6-2.5-1.5-3.9-3.6-3.4 0 0-10.2 2-12.1 2.4-1.9.4-3.4 1.4-4.1 4.2-.1.3-5.4 21.7-5.4 21.7h-10.6c-2 0-3.2.8-3.6 2.7-.6 2.7-1.8 7.4-2.1 8.6-.4 1.7.5 2.9 2.4 2.9h10.4c-.1.3-3.7 14.3-6.7 26.8-1.4 6-6.1 20.1-13.7 20.1-4.6 0-6.5-2.3-6.5-7.3 0-7.8 7.7-27.3 7.7-36.2 0-11.8-6.3-18.7-19.4-18.7-8.2 0-16.7 5.3-20.3 9.9 0 0 1.1-3.8 1.5-5.3.4-1.5-.4-3.1-2.5-3.1h-12.7c-2.7 0-3.5 1.4-3.9 3-.2.6-4.7 18.6-9.1 35.9-3 11.8-10.3 21.7-18.1 21.7-4 0-5.8-2.5-5.8-6.8 0-3.7 2.4-12.8 5.2-24.2 3.5-13.8 6.5-25.2 6.9-26.5.4-1.7-.3-3.2-2.5-3.2h-12.8c-2.3 0-3.1 1.2-3.6 2.9 0 0-3.6 13.6-7.4 28.8-2.8 11-5.8 22.2-5.8 27.5 0 9.4 4.2 16.5 15.8 16.5 9 0 16.1-4.5 21.5-10.3-.8 3.1-1.3 5.1-1.4 5.3-.5 1.8.1 3.4 2.2 3.4h13.1c2.3 0 3.2-.9 3.6-2.9.5-1.9 10.2-40.4 10.2-40.4 2.6-10.3 9-17.2 18-17.2 4.3 0 8 2.8 7.5 8.3-.5 6-7.8 27.7-7.8 37.2 0 7.2 2.7 16.5 16.2 16.5 9.2 0 16-4.4 21-10.2 1.8 6.1 6.6 10.2 15.4 10.2 14.6 0 23.5-8.7 28.6-17.4 4.3 10.1 14.4 17.4 29.1 17.4 15.1 0 26.7-6.3 35-15-1.5 5.8-2.5 9.8-2.6 10.1-.5 1.8.3 3.2 2.5 3.2h13c1.8 0 3-.9 3.5-2.8.2-.9 2.1-8.2 4.7-18.4 5.1-19.7 13.2-40.1 25.4-40.1 4.3 0 6.1 2.4 6.1 6.2 0 1.8-.5 3.3-1 4.2-5.9-1.2-10.7 1.7-10.7 8.1 0 4.1 4.3 7.9 10.2 7.9 4.5 0 8.2-1.1 11.1-3.1 2.8.6 5.7 1.2 8.7 1.9-.5 3-.7 5.9-.7 8.6 0 15.8 11.3 29.2 31.5 29.2 15.8 0 26.7-5.8 36.1-13.2 4.5 7.4 15.9 13.3 30.8 13.3 20.5 0 32.1-10.6 32.1-24.7 0-12.7-10.5-17.4-21.2-21.3-8.8-3.2-16.1-4.9-16.1-11.1 0-5.1 4-7.4 10.8-7.4 4.4 0 7.8 1 9.6 1.5 1.8 4.4 5.4 9.3 11.7 9.3 5.3 0 7.7-4.2 7.7-8 0-11-18.2-12.1-18.2-35.6 0-14.6 8.3-26.7 25.4-26.7 11.9 0 19.7 7.5 19.7 19.7 0 10-6.1 27.9-6.1 27.9H818c-2 0-3.2.8-3.6 2.7-.6 2.7-1.8 7.4-2.2 8.6-.4 1.7.5 2.9 2.4 2.9h10.1S814 162.4 814 169.4c0 9.4 5.3 16.5 16.9 16.5 16.4 0 26.7-10.7 31.2-26.2.3-1.2-.3-2.2-1.5-2.2h-6.3c-1.3 0-2 .7-2.3 1.9-1.4 5.5-4.9 11.3-11.8 11.3-4 0-6.3-2.5-6.3-6.8 0-3.7 2.4-12.4 5.5-24.1 1.4-5.5 4-15.9 4-15.9zm-129.6-.7c5.8 0 8.6 3.9 8.6 8.5 0 7.8-6 12.5-15.5 12.5-3.4 0-8.1-.8-10.9-1.7 1.2-7.2 6.4-19.3 17.8-19.3zm-136.6 0c6.4 0 8.6 3.9 8.6 8.5 0 7.8-6 12.5-15.5 12.5-3.4 0-8.1-.8-10.9-1.7 1.1-7.2 5.7-19.3 17.8-19.3zM325.8 51c-41.5 0-62.4 29.7-62.4 54.5 0 15 5.7 28.4 17.9 33.3 2 .8 3.8 0 4.4-2.2.4-1.5 1.4-5.4 1.8-7 .6-2.2.4-3-1.3-4.9-3.5-4.1-5.8-9.5-5.8-17.1 0-22 16.5-41.8 43-41.8 23.4 0 36.3 14.3 36.3 33.4 0 25.2-11.1 46.4-27.7 46.4-9.1 0-16-7.5-13.8-16.8 2.6-11.1 7.7-23 7.7-31 0-7.1-3.8-13.1-11.8-13.1-9.3 0-16.8 9.7-16.8 22.6 0 8.2 2.8 13.8 2.8 13.8s-9.5 40.5-11.2 47.5c-3.3 14.1-.5 31.4-.3 33.2.1 1 1.5 1.3 2.1.5.9-1.1 12-14.8 15.8-28.5 1.1-3.9 6.1-24 6.1-24 3 5.8 11.9 10.9 21.3 10.9 28 0 47.1-25.6 47.1-59.8 0-25.8-21.9-49.9-55.2-49.9z"/><path class="st0" d="M160.3 74.1c-32.8 0-49.3 23.5-49.3 43.1 0 11.9 4.5 22.4 14.1 26.4 1.6.6 3 0 3.5-1.7.3-1.2 1.1-4.3 1.4-5.5.5-1.7.3-2.3-1-3.8-2.8-3.3-4.6-7.5-4.6-13.5 0-17.4 13.1-33.1 34-33.1 18.5 0 28.7 11.3 28.7 26.5 0 19.9-8.8 36.7-21.9 36.7-7.2 0-12.6-6-10.9-13.3 2.1-8.7 6.1-18.2 6.1-24.5 0-5.7-3-10.4-9.3-10.4-7.4 0-13.3 7.6-13.3 17.9 0 6.5 2.2 10.9 2.2 10.9s-7.6 32-8.9 37.6c-2.6 11.2-.4 24.9-.2 26.2.1.8 1.2 1 1.6.4.7-.9 9.5-11.7 12.5-22.6l4.9-19c2.4 4.6 9.4 8.6 16.9 8.6 22.2 0 37.3-20.2 37.3-47.3-.1-20.6-17.4-39.6-43.8-39.6z"/></svg>