<?xml version="1.0" encoding="utf-8"?>
<!-- Generator: Adobe Illustrator 19.0.0, SVG Export Plug-In . SVG Version: 6.00 Build 0)  -->
<svg version="1.1" id="Layer_1" xmlns="http://www.w3.org/2000/svg" xmlns:xlink="http://www.w3.org/1999/xlink" x="0px" y="0px"
	 viewBox="0 0 175.7 27.3" style="enable-background:new 0 0 175.7 27.3;" xml:space="preserve">
<style type="text/css">
	.st0{fill:#FFFFFF;}
</style>
<g id="XMLID_3_">
	<path id="XMLID_21_" class="st0" d="M32.3,1.8H17.6c-0.8,0-1.6,0-1.6,0.9v21.4c0,0.8,0.8,0.7,1.6,0.7h5.1c0.8,0,1.3,0.1,1.3-0.7
		v-6.3h5.7c0.8,0,1.3-0.6,1.3-1.4v-4c0-0.8-0.5-1.6-1.3-1.6H24v-3h8.3c0.8,0,1.7-0.4,1.7-1.2V2.7C34,1.8,33.2,1.8,32.3,1.8z"/>
	<path id="XMLID_24_" class="st0" d="M56.8,12.8h-4.8c-0.8,0-1.1,0-1.1,0.9v5.1h-5V2.7c0-0.8,0-0.9-0.8-0.9H40c-0.8,0-1,0-1,0.9
		v21.4c0,0.8,0.2,0.7,1,0.7h16.8c0.8,0,1.2,0.1,1.2-0.7V13.7C58,12.8,57.7,12.8,56.8,12.8z"/>
	<path id="XMLID_26_" class="st0" d="M65,20.8v3.3c0,0.8,0.7,0.7,1.5,0.7h4.9c0.8,0,1.7,0.1,1.7-0.7v-3.3H65z M81.7,2.6
		c-0.3-0.8-0.8-0.8-1.7-0.8h-8.9c-0.9,0-1.4,0-1.7,0.8l-1.7,4.2h15.7L81.7,2.6z M78,20.8v3.3c0,0.8,0.8,0.7,1.7,0.7h5
		c0.8,0,1.3,0.1,1.3-0.7v-3.3H78z"/>
	<path id="XMLID_30_" class="st0" d="M98,20.8v3.3c0,0.8,0.6,0.7,1.5,0.7h5.4c0.8,0,1.2,0.1,1.2-0.7v-3.3H98z M111,6.7v-4
		c0-0.8-0.3-0.9-1.1-0.9H92.4c-0.8,0-1.4,0-1.4,0.9v4c0,0.2,0.2,0.1,0.3,0.1H111C111,6.8,111,6.8,111,6.7z"/>
	<path id="XMLID_32_" class="st0" d="M138.4,1.8h-5c-0.9,0-1.4,0-1.4,0.9v15.1c0,0.9-0.2,1.5-2.5,1.5c-2.3,0-2.5-0.7-2.5-1.5V2.7
		c0-0.8-0.6-0.9-1.4-0.9h-5.2c-0.8,0-1.4,0-1.4,0.9V19c0,4,2.3,6.7,10.5,6.7c8.2,0,10.5-2.7,10.5-6.7V2.7
		C140,1.8,139.2,1.8,138.4,1.8z"/>
	<path id="XMLID_35_" class="st0" d="M160.7,7.8c0.8,0,1.3-0.3,1.3-1.1v-4c0-0.8-0.5-0.9-1.3-0.9h-14.1c-0.8,0-1.7,0-1.7,0.9v4
		c0,0.8,0.8,1.1,1.7,1.1h3.3v11h-3.3c-0.8,0-1.7,0.5-1.7,1.3v3.9c0,0.8,0.8,0.7,1.7,0.7h14.1c0.8,0,1.3,0.1,1.3-0.7v-3.9
		c0-0.8-0.5-1.3-1.3-1.3H158v-11H160.7z"/>
</g>
<g id="XMLID_4_">
	<path id="XMLID_5_" class="st0" d="M65.4,18.3c-2.1,0-3.1-0.8-3.1-2.6v-4c0-1.8,1-2.6,3.1-2.6h3.1c0.3,0,0.5,0.1,0.5,0.5v1.5
		c0,0.3-0.1,0.5-0.5,0.5H66c-0.5,0-0.8,0.2-0.8,0.6v3c0,0.4,0.2,0.6,0.8,0.6h2.6c0.3,0,0.5,0.1,0.5,0.5v1.5c0,0.3-0.1,0.5-0.5,0.5
		H65.4z"/>
	<path id="XMLID_7_" class="st0" d="M74.2,18.5c-3.2,0-4-1-4-2.6v-4.3c0-1.6,0.8-2.6,4-2.6c3.2,0,4,1.1,4,2.6v4.3
		C78.1,17.5,77.4,18.5,74.2,18.5z M74.2,16.1c0.9,0,1.1-0.3,1.1-0.6V12c0-0.3-0.1-0.6-1.1-0.6c-0.9,0-1.1,0.3-1.1,0.6v3.4
		C73.1,15.8,73.3,16.1,74.2,16.1z"/>
	<path id="XMLID_10_" class="st0" d="M80.2,18.3c-0.3,0-0.5-0.1-0.5-0.5V9.6c0-0.3,0.1-0.5,0.5-0.5h2c0.3,0,0.5,0.1,0.5,0.5v6.3h1.7
		v-2.1c0-0.3,0.1-0.5,0.5-0.5h1.8c0.3,0,0.5,0.1,0.5,0.5v4c0,0.3-0.1,0.5-0.5,0.5H80.2z"/>
	<path id="XMLID_13_" class="st0" d="M92.4,18.5c-3.2,0-4-1-4-2.6v-4.3c0-1.6,0.8-2.6,4-2.6s4,1.1,4,2.6v4.3
		C96.4,17.5,95.6,18.5,92.4,18.5z M92.4,16.1c0.9,0,1.1-0.3,1.1-0.6V12c0-0.3-0.1-0.6-1.1-0.6c-0.9,0-1.1,0.3-1.1,0.6v3.4
		C91.4,15.8,91.5,16.1,92.4,16.1z"/>
	<path id="XMLID_16_" class="st0" d="M98.5,18.3c-0.3,0-0.5-0.1-0.5-0.5V9.6c0-0.3,0.1-0.5,0.5-0.5h4.2c1.9,0,2.5,0.9,2.5,2.1v0.6
		c0,0.7-0.2,1.2-0.7,1.5c0.9,0.1,1.5,0.8,1.5,1.8v2.7c0,0.3-0.1,0.5-0.5,0.5h-2c-0.3,0-0.5-0.1-0.5-0.5v-2c0-0.4-0.1-0.5-0.5-0.5
		h-1.8v2.5c0,0.3-0.1,0.5-0.5,0.5H98.5z M100.9,13.1h1c0.4,0,0.6-0.3,0.6-0.6V12c0-0.3-0.1-0.6-0.6-0.6h-1V13.1z"/>
	<path id="XMLID_19_" class="st0" d="M107.7,18.3c-0.3,0-0.5-0.1-0.5-0.5v-1.5c0-0.3,0.1-0.5,0.5-0.5h3.4c0.2,0,0.3-0.2,0.3-0.4
		c0-0.3-0.1-0.4-0.3-0.4l-1.9-0.3c-1.2-0.2-2-0.7-2-2.1v-1.3c0-1.5,1-2.2,2.6-2.2h3.6c0.3,0,0.5,0.1,0.5,0.5v1.5
		c0,0.3-0.1,0.5-0.5,0.5h-3c-0.2,0-0.3,0.2-0.3,0.4c0,0.2,0.1,0.4,0.3,0.4l1.9,0.3c1.2,0.2,2,0.7,2,2.1v1.3c0,1.5-1,2.2-2.6,2.2
		H107.7z"/>
</g>
</svg>
