<?xml version="1.0" encoding="utf-8"?>
<!-- Generator: Adobe Illustrator 19.0.0, SVG Export Plug-In . SVG Version: 6.00 Build 0)  -->
<svg version="1.1" id="Layer_1" xmlns="http://www.w3.org/2000/svg" xmlns:xlink="http://www.w3.org/1999/xlink" x="0px" y="0px"
	 viewBox="0 0 175.7 27.3" style="enable-background:new 0 0 175.7 27.3;" xml:space="preserve">
<style type="text/css">
	.st0{fill:#FFFFFF;}
</style>
<g id="XMLID_2_">
	<path id="XMLID_10_" class="st0" d="M19.4,12.8h-4.9c-0.8,0-1.6,0.7-1.6,1.5v4.5h-2.6c-1,0-1.4-0.1-1.4-1.1v-7.5
		c0-1.1,0.5-1.4,1.9-1.4h6.5c0.8,0,1.6-0.6,1.6-1.3V3.7c0-0.8-0.8-0.9-1.6-0.9H9.5C4.3,2.8,2,4.6,2,8.9v9.8c0,4.4,2.3,6.1,7.5,6.1
		h9.9c0.8,0,1.6,0,1.6-0.8v-9.7C21,13.5,20.2,12.8,19.4,12.8z"/>
	<path id="XMLID_14_" class="st0" d="M40.2,12.8C41.5,12.2,42,11,42,9.2V7.8c0-3.1-1.3-5-6-5H25.5c-0.8,0-1.5,0.1-1.5,0.9V24
		c0,0.8,0.8,0.8,1.5,0.8h4.8c0.8,0,0.6,0,0.6-0.8v-6.2h4.9c0.9,0,1.1,0.5,1.1,1.4V24c0,0.8,0.4,0.8,1.2,0.8h4.9c0.8,0,0.9,0,0.9-0.8
		v-6.7C44,14.7,42.5,13,40.2,12.8z M35,10.7c0,0.8,0,1.1-1.1,1.1H31v-4h2.9c1.1,0,1.1,1,1.1,1.9V10.7z"/>
	<path id="XMLID_17_" class="st0" d="M65.7,10.7l-2.8-7c-0.3-0.7-0.8-0.9-1.6-0.9h-8.5c-0.9,0-1.4,0.2-1.6,0.9l-2.9,7.1
		c-0.8,2.2-1.4,3.7-1.4,5V24c0,0.8,0.6,0.8,1.4,0.8H53c0.8,0,1,0,1-0.8v-4.2h6V24c0,0.8,0.1,0.8,0.9,0.8h4.7c0.8,0,1.3,0,1.3-0.8
		v-8.3C67,14.5,66.5,12.9,65.7,10.7z M54.5,13.8l1.5-4.6c0.2-0.4,0.3-0.4,0.6-0.4h0.8c0.3,0,0.4,0,0.6,0.4l1.5,4.6H54.5z"/>
	<path id="XMLID_20_" class="st0" d="M78,18.8v-10h12c0,0,0,0,0,0c0-0.1,0-0.2,0-0.3c-0.2-3.9-2.6-5.7-7.6-5.7H71.8
		C71,2.8,71,2.9,71,3.7V24c0,0.8,0,0.8,0.8,0.8h10.6c5.1,0,7.5-2,7.7-6H78z"/>
	<path id="XMLID_24_" class="st0" d="M108.5,19c-0.2,0-0.2-0.3-0.4-0.3H94.7c-0.2,0-0.2,0.2-0.3,0.3C94,19.2,94,19.7,94,20.3V24
		c0,0.8,0,0.8,0.7,0.8h13.4c0.8,0,0.9,0,0.9-0.8v-3.7C109,19.7,108.9,19.2,108.5,19z M108.1,2.8H94.7C94,2.8,94,2.9,94,3.7v3.8
		c0,0.5,0,0.9,0.2,1c0.1,0,0.1,0.1,0.2,0.1c0,0,0.1,0,0.1,0l13.7,0.1c0.2,0,0.3-0.1,0.4-0.2c0.1,0,0.1-0.1,0.2-0.1
		c0.2-0.2,0.3-0.6,0.3-1V3.7C109,2.9,108.9,2.8,108.1,2.8z"/>
	<path id="XMLID_26_" class="st0" d="M128.8,18.8H113V24c0,0.8,0.5,0.8,1.2,0.8h14.6c0.8,0,1.2,0,1.2-0.8v-3.7
		C130,19.5,129.6,18.8,128.8,18.8z M128.8,2.8h-14.6c-0.8,0-1.2,0.1-1.2,0.9v5.1h15.8c0.8,0,1.2-0.7,1.2-1.5V3.7
		C130,2.9,129.6,2.8,128.8,2.8z M126.3,10.8H122v0.3l0.1,5.4l0,0.2h4.1c0.8,0,0.7-0.6,0.7-1.4V12C127,11.2,127,10.8,126.3,10.8z"/>
	<path id="XMLID_30_" class="st0" d="M151.8,2.8h-4.7c-0.8,0-1.1,0.1-1.1,0.9v6.7l-6.1-6.8c-0.5-0.6-1-0.7-1.9-0.7h-3.3
		c-0.8,0-0.8,0.1-0.8,0.9V24c0,0.8,0,0.8,0.8,0.8h4.7c0.8,0,1.5,0,1.5-0.8V13.6l5,6.5V24c0,0.8,0.3,0.8,1.1,0.8h4.7
		c0.8,0,1.2,0,1.2-0.8V3.7C153,2.9,152.6,2.8,151.8,2.8z"/>
	<path id="XMLID_32_" class="st0" d="M173.7,2.8h-16.6c-0.8,0-1.1,0.1-1.1,0.9v3.8c0,0.8,0.4,1.3,1.1,1.3h4.9V24
		c0,0.8,0.1,0.8,0.9,0.8h5.1c0.8,0,1,0,1-0.8V8.8h4.7c0.8,0,1.3-0.6,1.3-1.3V3.7C175,2.9,174.5,2.8,173.7,2.8z"/>
</g>
<path id="XMLID_143_" class="st0" d="M90,18.8L90,18.8C90.1,18.8,90,18.9,90,18.8z"/>
<path id="XMLID_144_" class="st0" d="M90.1,8.5c0,0.1,0,0.2,0,0.3H90C90,8.7,90,8.6,90.1,8.5L90.1,8.5z"/>
<path id="XMLID_138_" class="st0" d="M94.4,8.6C94.4,8.6,94.5,8.6,94.4,8.6l-0.1,0C94.3,8.6,94.3,8.6,94.4,8.6z"/>
<g id="XMLID_1_">
	<path id="XMLID_12_" class="st0" d="M82.9,17.3c-1.6,0-2.4-0.6-2.4-2v-3c0-1.4,0.8-2,2.4-2h2.4c0.2,0,0.3,0.1,0.3,0.3v1.2
		c0,0.2-0.1,0.3-0.3,0.3h-1.9c-0.4,0-0.6,0.2-0.6,0.5V15c0,0.3,0.2,0.5,0.6,0.5h1.9c0.2,0,0.3,0.1,0.3,0.3v1.1
		c0,0.2-0.1,0.3-0.3,0.3H82.9z"/>
	<path id="XMLID_15_" class="st0" d="M89.6,17.4c-2.4,0-3-0.8-3-2v-3.3c0-1.2,0.6-2,3-2c2.4,0,3,0.8,3,2v3.3
		C92.6,16.6,92,17.4,89.6,17.4z M89.6,15.6c0.7,0,0.8-0.2,0.8-0.5v-2.6c0-0.3-0.1-0.4-0.8-0.4c-0.7,0-0.8,0.2-0.8,0.4v2.6
		C88.8,15.4,88.9,15.6,89.6,15.6z"/>
	<path id="XMLID_33_" class="st0" d="M94.1,17.3c-0.2,0-0.3-0.1-0.3-0.3v-6.2c0-0.2,0.1-0.3,0.3-0.3h1.5c0.2,0,0.3,0.1,0.3,0.3v4.8
		h1.3v-1.6c0-0.2,0.1-0.3,0.3-0.3H99c0.2,0,0.3,0.1,0.3,0.3v3c0,0.2-0.1,0.3-0.3,0.3H94.1z"/>
	<path id="XMLID_38_" class="st0" d="M103.4,17.4c-2.4,0-3-0.8-3-2v-3.3c0-1.2,0.6-2,3-2s3,0.8,3,2v3.3
		C106.4,16.6,105.8,17.4,103.4,17.4z M103.4,15.6c0.7,0,0.8-0.2,0.8-0.5v-2.6c0-0.3-0.1-0.4-0.8-0.4c-0.7,0-0.8,0.2-0.8,0.4v2.6
		C102.6,15.4,102.7,15.6,103.4,15.6z"/>
	<path id="XMLID_137_" class="st0" d="M107.9,17.3c-0.2,0-0.3-0.1-0.3-0.3v-6.2c0-0.2,0.1-0.3,0.3-0.3h3.2c1.4,0,1.9,0.7,1.9,1.6
		v0.4c0,0.5-0.1,0.9-0.5,1.1c0.7,0.1,1.2,0.6,1.2,1.4v2c0,0.2-0.1,0.3-0.3,0.3h-1.5c-0.2,0-0.3-0.1-0.3-0.3v-1.5
		c0-0.3-0.1-0.4-0.4-0.4h-1.4v1.9c0,0.2-0.1,0.3-0.3,0.3H107.9z M109.8,13.3h0.7c0.3,0,0.4-0.2,0.4-0.5v-0.3c0-0.3-0.1-0.5-0.4-0.5
		h-0.7V13.3z"/>
	<path id="XMLID_146_" class="st0" d="M114.9,17.3c-0.2,0-0.3-0.1-0.3-0.3v-1.1c0-0.2,0.1-0.3,0.3-0.3h2.6c0.2,0,0.3-0.1,0.3-0.3
		c0-0.2-0.1-0.3-0.3-0.3l-1.4-0.2c-0.9-0.1-1.5-0.5-1.5-1.6v-1c0-1.1,0.7-1.7,2-1.7h2.7c0.2,0,0.3,0.1,0.3,0.3v1.1
		c0,0.2-0.1,0.3-0.3,0.3H117c-0.2,0-0.3,0.1-0.3,0.3c0,0.2,0.1,0.3,0.3,0.3l1.4,0.2c0.9,0.1,1.5,0.5,1.5,1.6v1c0,1.1-0.8,1.7-2,1.7
		H114.9z"/>
</g>
</svg>
