<svg version="1.1" id="Layer_1" xmlns="http://www.w3.org/2000/svg" x="0" y="0" viewBox="0 0 175.7 27.3" xml:space="preserve"><style>.st0{fill:#fff}</style><g id="XMLID_2_"><path id="XMLID_10_" class="st0" d="M19.4 12.8h-4.9c-.8 0-1.6.7-1.6 1.5v4.5h-2.6c-1 0-1.4-.1-1.4-1.1v-7.5c0-1.1.5-1.4 1.9-1.4h6.5c.8 0 1.6-.6 1.6-1.3V3.7c0-.8-.8-.9-1.6-.9H9.5C4.3 2.8 2 4.6 2 8.9v9.8c0 4.4 2.3 6.1 7.5 6.1h9.9c.8 0 1.6 0 1.6-.8v-9.7c0-.8-.8-1.5-1.6-1.5z"/><path id="XMLID_14_" class="st0" d="M40.2 12.8c1.3-.6 1.8-1.8 1.8-3.6V7.8c0-3.1-1.3-5-6-5H25.5c-.8 0-1.5.1-1.5.9V24c0 .8.8.8 1.5.8h4.8c.8 0 .6 0 .6-.8v-6.2h4.9c.9 0 1.1.5 1.1 1.4V24c0 .8.4.8 1.2.8H43c.8 0 .9 0 .9-.8v-6.7c.1-2.6-1.4-4.3-3.7-4.5zM35 10.7c0 .8 0 1.1-1.1 1.1H31v-4h2.9c1.1 0 1.1 1 1.1 1.9v1z"/><path id="XMLID_17_" class="st0" d="M65.7 10.7l-2.8-7c-.3-.7-.8-.9-1.6-.9h-8.5c-.9 0-1.4.2-1.6.9l-2.9 7.1c-.8 2.2-1.4 3.7-1.4 5V24c0 .8.6.8 1.4.8H53c.8 0 1 0 1-.8v-4.2h6V24c0 .8.1.8.9.8h4.7c.8 0 1.3 0 1.3-.8v-8.3c.1-1.2-.4-2.8-1.2-5zm-11.2 3.1L56 9.2c.2-.4.3-.4.6-.4h.8c.3 0 .4 0 .6.4l1.5 4.6h-5z"/><path id="XMLID_20_" class="st0" d="M78 18.8v-10h12v-.3c-.2-3.9-2.6-5.7-7.6-5.7H71.8c-.8 0-.8.1-.8.9V24c0 .8 0 .8.8.8h10.6c5.1 0 7.5-2 7.7-6H78z"/><path id="XMLID_24_" class="st0" d="M108.5 19c-.2 0-.2-.3-.4-.3H94.7c-.2 0-.2.2-.3.3-.4.2-.4.7-.4 1.3V24c0 .8 0 .8.7.8h13.4c.8 0 .9 0 .9-.8v-3.7c0-.6-.1-1.1-.5-1.3zm-.4-16.2H94.7c-.7 0-.7.1-.7.9v3.8c0 .5 0 .9.2 1 .1 0 .1.1.2.1h.1l13.7.1c.2 0 .3-.1.4-.2.1 0 .1-.1.2-.1.2-.2.3-.6.3-1V3.7c-.1-.8-.2-.9-1-.9z"/><path id="XMLID_26_" class="st0" d="M128.8 18.8H113V24c0 .8.5.8 1.2.8h14.6c.8 0 1.2 0 1.2-.8v-3.7c0-.8-.4-1.5-1.2-1.5zm0-16h-14.6c-.8 0-1.2.1-1.2.9v5.1h15.8c.8 0 1.2-.7 1.2-1.5V3.7c0-.8-.4-.9-1.2-.9zm-2.5 8H122v.3l.1 5.4v.2h4.1c.8 0 .7-.6.7-1.4V12c.1-.8.1-1.2-.6-1.2z"/><path id="XMLID_30_" class="st0" d="M151.8 2.8h-4.7c-.8 0-1.1.1-1.1.9v6.7l-6.1-6.8c-.5-.6-1-.7-1.9-.7h-3.3c-.8 0-.8.1-.8.9V24c0 .8 0 .8.8.8h4.7c.8 0 1.5 0 1.5-.8V13.6l5 6.5V24c0 .8.3.8 1.1.8h4.7c.8 0 1.2 0 1.2-.8V3.7c.1-.8-.3-.9-1.1-.9z"/><path id="XMLID_32_" class="st0" d="M173.7 2.8h-16.6c-.8 0-1.1.1-1.1.9v3.8c0 .8.4 1.3 1.1 1.3h4.9V24c0 .8.1.8.9.8h5.1c.8 0 1 0 1-.8V8.8h4.7c.8 0 1.3-.6 1.3-1.3V3.7c0-.8-.5-.9-1.3-.9z"/></g><path id="XMLID_143_" class="st0" d="M90 18.8c.1 0 0 .1 0 0z"/><path id="XMLID_144_" class="st0" d="M90.1 8.5v.3H90c0-.1 0-.2.1-.3z"/><path id="XMLID_138_" class="st0" d="M94.4 8.6s.1 0 0 0h-.1.1z"/><g id="XMLID_1_"><path id="XMLID_12_" class="st0" d="M82.9 17.3c-1.6 0-2.4-.6-2.4-2v-3c0-1.4.8-2 2.4-2h2.4c.2 0 .3.1.3.3v1.2c0 .2-.1.3-.3.3h-1.9c-.4 0-.6.2-.6.5V15c0 .3.2.5.6.5h1.9c.2 0 .3.1.3.3v1.1c0 .2-.1.3-.3.3h-2.4z"/><path id="XMLID_15_" class="st0" d="M89.6 17.4c-2.4 0-3-.8-3-2v-3.3c0-1.2.6-2 3-2s3 .8 3 2v3.3c0 1.2-.6 2-3 2zm0-1.8c.7 0 .8-.2.8-.5v-2.6c0-.3-.1-.4-.8-.4-.7 0-.8.2-.8.4v2.6c0 .3.1.5.8.5z"/><path id="XMLID_33_" class="st0" d="M94.1 17.3c-.2 0-.3-.1-.3-.3v-6.2c0-.2.1-.3.3-.3h1.5c.2 0 .3.1.3.3v4.8h1.3V14c0-.2.1-.3.3-.3H99c.2 0 .3.1.3.3v3c0 .2-.1.3-.3.3h-4.9z"/><path id="XMLID_38_" class="st0" d="M103.4 17.4c-2.4 0-3-.8-3-2v-3.3c0-1.2.6-2 3-2s3 .8 3 2v3.3c0 1.2-.6 2-3 2zm0-1.8c.7 0 .8-.2.8-.5v-2.6c0-.3-.1-.4-.8-.4-.7 0-.8.2-.8.4v2.6c0 .3.1.5.8.5z"/><path id="XMLID_137_" class="st0" d="M107.9 17.3c-.2 0-.3-.1-.3-.3v-6.2c0-.2.1-.3.3-.3h3.2c1.4 0 1.9.7 1.9 1.6v.4c0 .5-.1.9-.5 1.1.7.1 1.2.6 1.2 1.4v2c0 .2-.1.3-.3.3h-1.5c-.2 0-.3-.1-.3-.3v-1.5c0-.3-.1-.4-.4-.4h-1.4V17c0 .2-.1.3-.3.3h-1.6zm1.9-4h.7c.3 0 .4-.2.4-.5v-.3c0-.3-.1-.5-.4-.5h-.7v1.3z"/><path id="XMLID_146_" class="st0" d="M114.9 17.3c-.2 0-.3-.1-.3-.3v-1.1c0-.2.1-.3.3-.3h2.6c.2 0 .3-.1.3-.3 0-.2-.1-.3-.3-.3l-1.4-.2c-.9-.1-1.5-.5-1.5-1.6v-1c0-1.1.7-1.7 2-1.7h2.7c.2 0 .3.1.3.3v1.1c0 .2-.1.3-.3.3H117c-.2 0-.3.1-.3.3 0 .2.1.3.3.3l1.4.2c.9.1 1.5.5 1.5 1.6v1c0 1.1-.8 1.7-2 1.7h-3z"/></g></svg>