<?xml version="1.0" encoding="utf-8"?>
<!-- Generator: Adobe Illustrator 19.0.0, SVG Export Plug-In . SVG Version: 6.00 Build 0)  -->
<svg version="1.1" id="Layer_1" xmlns="http://www.w3.org/2000/svg" xmlns:xlink="http://www.w3.org/1999/xlink" x="0px" y="0px"
	 viewBox="0 0 175.7 27.3" style="enable-background:new 0 0 175.7 27.3;" xml:space="preserve">
<style type="text/css">
	.st0{fill:#FFFFFF;}
	.st1{fill:#FFFFFF;stroke:#FFFFFF;stroke-width:0.3;stroke-miterlimit:10;}
</style>
<g id="XMLID_62_">
	<path id="XMLID_63_" class="st0" d="M34.3,12.8c-0.4,0-0.5-0.2-0.5-0.5V2.8c0-0.4,0.2-0.5,0.5-0.5h2.4c0.3,0,0.5,0.1,0.7,0.4
		l1.3,2.4c0.1,0.2,0.1,0.2,0.3,0.2h0.1c0.1,0,0.2-0.1,0.3-0.2l1.3-2.4c0.2-0.3,0.4-0.4,0.7-0.4h2.4c0.4,0,0.5,0.2,0.5,0.5v9.5
		c0,0.4-0.2,0.5-0.5,0.5h-2.2c-0.4,0-0.5-0.2-0.5-0.5V7.1L40,8.7c-0.2,0.3-0.4,0.5-0.8,0.5h-0.6c-0.4,0-0.6-0.1-0.8-0.5L37,7.1v5.1
		c0,0.4-0.2,0.5-0.5,0.5H34.3z"/>
	<path id="XMLID_65_" class="st0" d="M50.6,13c-3.7,0-4.5-1.2-4.5-3V5c0-1.8,0.9-3,4.5-3c3.7,0,4.5,1.2,4.5,3v5
		C55.1,11.8,54.2,13,50.6,13z M50.6,10.2c1.1,0,1.2-0.3,1.2-0.7V5.5c0-0.4-0.2-0.7-1.2-0.7c-1.1,0-1.2,0.3-1.2,0.7v3.9
		C49.4,9.9,49.5,10.2,50.6,10.2z"/>
	<path id="XMLID_68_" class="st0" d="M57.5,12.8c-0.4,0-0.5-0.2-0.5-0.5V2.8c0-0.4,0.2-0.5,0.5-0.5H59c0.4,0,0.6,0.1,0.9,0.4
		l2.8,3.2V2.8c0-0.4,0.2-0.5,0.5-0.5h2.2c0.4,0,0.5,0.2,0.5,0.5v9.5c0,0.4-0.2,0.5-0.5,0.5h-2.2c-0.4,0-0.5-0.2-0.5-0.5v-1.8l-2.5-3
		v4.8c0,0.4-0.2,0.5-0.5,0.5H57.5z"/>
	<path id="XMLID_70_" class="st0" d="M72.3,13c-3.7,0-4.5-1.2-4.5-3V5c0-1.8,0.9-3,4.5-3c3.7,0,4.5,1.2,4.5,3v5
		C76.9,11.8,76,13,72.3,13z M72.3,10.2c1.1,0,1.2-0.3,1.2-0.7V5.5c0-0.4-0.2-0.7-1.2-0.7c-1.1,0-1.2,0.3-1.2,0.7v3.9
		C71.1,9.9,71.3,10.2,72.3,10.2z"/>
</g>
<g id="XMLID_40_">
	<path id="XMLID_41_" class="st0" d="M37.5,25.8c-2.4,0-3.6-0.9-3.6-3v-4.5c0-2,1.1-3,3.6-3h3.5c0.4,0,0.5,0.2,0.5,0.5v1.8
		c0,0.4-0.2,0.5-0.5,0.5h-2.9c-0.6,0-0.9,0.2-0.9,0.7v3.5c0,0.5,0.3,0.7,0.9,0.7h2.9c0.4,0,0.5,0.2,0.5,0.5v1.7
		c0,0.4-0.2,0.5-0.5,0.5H37.5z"/>
	<path id="XMLID_43_" class="st0" d="M44.4,25.8c-0.4,0-0.5-0.2-0.5-0.5v-9.4c0-0.4,0.2-0.5,0.5-0.5h2.2c0.4,0,0.5,0.2,0.5,0.5V19
		h2.4v-3.1c0-0.4,0.2-0.5,0.5-0.5h2.2c0.4,0,0.5,0.2,0.5,0.5v9.4c0,0.4-0.2,0.5-0.5,0.5h-2.2c-0.4,0-0.5-0.2-0.5-0.5V22h-2.4v3.2
		c0,0.4-0.2,0.5-0.5,0.5H44.4z"/>
	<path id="XMLID_45_" class="st0" d="M56.1,25.8c-0.4,0-0.5-0.2-0.5-0.5v-9.4c0-0.4,0.2-0.5,0.5-0.5H61c2.2,0,2.9,1,2.9,2.4v0.7
		c0,0.8-0.2,1.4-0.8,1.7c1.1,0.1,1.8,0.9,1.8,2.1v3.1c0,0.4-0.2,0.5-0.5,0.5H62c-0.4,0-0.5-0.2-0.5-0.5V23c0-0.4-0.1-0.6-0.6-0.6h-2
		v2.8c0,0.4-0.2,0.5-0.5,0.5H56.1z M58.9,19.8H60c0.5,0,0.6-0.3,0.6-0.7v-0.5c0-0.4-0.1-0.7-0.6-0.7h-1.1V19.8z"/>
	<path id="XMLID_48_" class="st0" d="M71.4,26c-3.6,0-4.5-1.2-4.5-3v-4.9c0-1.8,0.9-3,4.5-3s4.5,1.2,4.5,3V23
		C75.9,24.8,75,26,71.4,26z M71.4,23.2c1.1,0,1.2-0.3,1.2-0.7v-3.9c0-0.4-0.2-0.7-1.2-0.7c-1,0-1.2,0.3-1.2,0.7v3.9
		C70.2,22.9,70.3,23.2,71.4,23.2z"/>
	<path id="XMLID_51_" class="st0" d="M78.9,25.8c-0.4,0-0.5-0.2-0.5-0.5v-9.4c0-0.4,0.2-0.5,0.5-0.5h2.3c0.3,0,0.5,0.1,0.7,0.4
		l1.3,2.4c0.1,0.2,0.1,0.2,0.3,0.2h0.1c0.1,0,0.2-0.1,0.3-0.2l1.3-2.4c0.2-0.3,0.4-0.4,0.7-0.4h2.3c0.4,0,0.5,0.2,0.5,0.5v9.4
		c0,0.4-0.2,0.5-0.5,0.5H86c-0.4,0-0.5-0.2-0.5-0.5v-5.1l-0.9,1.6c-0.2,0.3-0.4,0.5-0.8,0.5h-0.6c-0.4,0-0.6-0.1-0.8-0.5l-0.9-1.6
		v5.1c0,0.4-0.2,0.5-0.5,0.5H78.9z"/>
	<path id="XMLID_53_" class="st0" d="M93.8,25.8h-2.1c-0.4,0-0.5-0.2-0.5-0.5v-3.8c0-0.6,0.2-1.3,0.6-2.3l1.3-3.3
		c0.1-0.3,0.3-0.5,0.7-0.5h3.9c0.4,0,0.6,0.1,0.7,0.5l1.3,3.3c0.4,1,0.6,1.7,0.6,2.3v3.8c0,0.4-0.2,0.5-0.5,0.5h-2.2
		c-0.4,0-0.6-0.2-0.6-0.5v-2h-2.6v2C94.4,25.6,94.2,25.8,93.8,25.8z M94.5,20.6h2.3l-0.7-2.2c-0.1-0.2-0.2-0.2-0.3-0.2h-0.4
		c-0.1,0-0.2,0.1-0.3,0.2L94.5,20.6z"/>
	<path id="XMLID_56_" class="st0" d="M104.7,25.8c-0.4,0-0.5-0.2-0.5-0.5v-7.1H102c-0.4,0-0.5-0.2-0.5-0.5v-1.8
		c0-0.4,0.2-0.5,0.5-0.5h7.7c0.4,0,0.5,0.2,0.5,0.5v1.8c0,0.4-0.2,0.5-0.5,0.5h-2.1v7.1c0,0.4-0.2,0.5-0.5,0.5H104.7z"/>
	<path id="XMLID_58_" class="st0" d="M112.1,25.2v-1.7c0-0.4,0.2-0.5,0.5-0.5h1.4v-4.9h-1.4c-0.4,0-0.5-0.2-0.5-0.5v-1.8
		c0-0.4,0.2-0.5,0.5-0.5h6.2c0.4,0,0.5,0.2,0.5,0.5v1.8c0,0.4-0.2,0.5-0.5,0.5h-1.4V23h1.4c0.4,0,0.5,0.2,0.5,0.5v1.7
		c0,0.4-0.2,0.5-0.5,0.5h-6.2C112.2,25.8,112.1,25.6,112.1,25.2z"/>
	<path id="XMLID_60_" class="st0" d="M125.2,25.8c-2.4,0-3.6-0.9-3.6-3v-4.5c0-2,1.1-3,3.6-3h3.5c0.4,0,0.5,0.2,0.5,0.5v1.8
		c0,0.4-0.2,0.5-0.5,0.5h-2.9c-0.6,0-0.9,0.2-0.9,0.7v3.5c0,0.5,0.3,0.7,0.9,0.7h2.9c0.4,0,0.5,0.2,0.5,0.5v1.7
		c0,0.4-0.2,0.5-0.5,0.5H125.2z"/>
</g>
<g id="XMLID_4_">
	<path id="XMLID_5_" class="st1" d="M84.5,12h-3.1c-2.2,0-3.2-0.9-3.2-2.7V5.4c0-1.8,1-2.7,3.2-2.7h3.1c0.4,0,0.6,0.2,0.6,0.6v1.5
		c0,0.4-0.2,0.6-0.6,0.6H82c-0.4,0-0.6,0.2-0.6,0.5v3c0,0.4,0.2,0.5,0.6,0.5h2.5c0.4,0,0.6,0.2,0.6,0.6v1.5
		C85.1,11.8,84.9,12,84.5,12z M85,11.4V9.9c0-0.3-0.1-0.5-0.5-0.5H82c-0.5,0-0.8-0.2-0.8-0.6v-3c0-0.4,0.2-0.6,0.8-0.6h2.5
		c0.3,0,0.5-0.1,0.5-0.5V3.3c0-0.3-0.1-0.5-0.5-0.5h-3.1c-2.1,0-3.1,0.8-3.1,2.6v3.9c0,1.8,1,2.6,3.1,2.6h3.1
		C84.9,11.9,85,11.8,85,11.4z M83.8,10.8h-2.1c-1.6,0-2-0.5-2-1.6V5.6c0-1.2,0.4-1.7,2-1.7h2.1v0.1h-2.1c-1.5,0-1.9,0.4-1.9,1.5v3.5
		c0,1.1,0.4,1.5,1.9,1.5h2.1V10.8z"/>
	<path id="XMLID_9_" class="st1" d="M94.2,9.5c0,1.6-0.7,2.7-4,2.7c-3.3,0-4.1-1.1-4.1-2.7V5.2c0-1.6,0.7-2.7,4.1-2.7
		c3.3,0,4,1.1,4,2.7V9.5z M94.1,5.2c0-1.5-0.8-2.6-3.9-2.6c-3.2,0-3.9,1-3.9,2.6v4.3c0,1.5,0.8,2.6,3.9,2.6c3.2,0,3.9-1,3.9-2.6V5.2
		z M90.1,10.9c-2,0-2.5-0.7-2.5-1.7V5.5c0-1,0.6-1.7,2.5-1.7s2.6,0.7,2.6,1.7v3.7C92.7,10.2,92.1,10.9,90.1,10.9z M90.1,10.8
		c1.9,0,2.4-0.6,2.4-1.6V5.5c0-0.9-0.6-1.6-2.4-1.6c-1.9,0-2.4,0.6-2.4,1.6v3.7C87.7,10.2,88.2,10.8,90.1,10.8z M89.1,5.7
		c0-0.3,0.2-0.6,1.1-0.6c0.9,0,1.1,0.3,1.1,0.6v3.4c0,0.3-0.1,0.6-1.1,0.6c-0.9,0-1.1-0.3-1.1-0.6V5.7z M89.2,9.1
		c0,0.3,0.2,0.5,0.9,0.5s0.9-0.2,0.9-0.5V5.7c0-0.3-0.2-0.5-0.9-0.5c-0.7,0-0.9,0.2-0.9,0.5V9.1z"/>
	<path id="XMLID_16_" class="st1" d="M95.5,11.4V3.3c0-0.4,0.2-0.6,0.6-0.6h2c0.4,0,0.6,0.2,0.6,0.6v6.1h1.5V7.5
		c0-0.4,0.2-0.6,0.6-0.6h1.8c0.4,0,0.6,0.2,0.6,0.6v4c0,0.4-0.2,0.6-0.6,0.6h-6.4C95.7,12,95.5,11.8,95.5,11.4z M103,11.4v-4
		c0-0.3-0.1-0.5-0.5-0.5h-1.8c-0.3,0-0.5,0.1-0.5,0.5v2h-1.7V3.3c0-0.3-0.1-0.5-0.5-0.5h-2c-0.3,0-0.5,0.1-0.5,0.5v8.2
		c0,0.3,0.1,0.5,0.5,0.5h6.4C102.9,11.9,103,11.8,103,11.4z M97,3.9h0.1v6.7h4.4V8.1h0.1v2.6H97V3.9z"/>
	<path id="XMLID_20_" class="st1" d="M112.3,9.5c0,1.6-0.7,2.7-4,2.7s-4.1-1.1-4.1-2.7V5.2c0-1.6,0.7-2.7,4.1-2.7s4,1.1,4,2.7V9.5z
		 M112.1,5.2c0-1.5-0.8-2.6-3.9-2.6s-3.9,1-3.9,2.6v4.3c0,1.5,0.8,2.6,3.9,2.6s3.9-1,3.9-2.6V5.2z M108.2,10.9c-2,0-2.5-0.7-2.5-1.7
		V5.5c0-1,0.6-1.7,2.5-1.7s2.6,0.7,2.6,1.7v3.7C110.8,10.2,110.2,10.9,108.2,10.9z M108.2,10.8c1.9,0,2.4-0.6,2.4-1.6V5.5
		c0-0.9-0.6-1.6-2.4-1.6s-2.4,0.6-2.4,1.6v3.7C105.8,10.2,106.3,10.8,108.2,10.8z M107.2,5.7c0-0.3,0.2-0.6,1.1-0.6
		c0.9,0,1.1,0.3,1.1,0.6v3.4c0,0.3-0.1,0.6-1.1,0.6c-0.9,0-1.1-0.3-1.1-0.6V5.7z M107.3,9.1c0,0.3,0.2,0.5,0.9,0.5s0.9-0.2,0.9-0.5
		V5.7c0-0.3-0.2-0.5-0.9-0.5c-0.7,0-0.9,0.2-0.9,0.5V9.1z"/>
	<path id="XMLID_28_" class="st1" d="M114.2,12c-0.4,0-0.6-0.2-0.6-0.6V3.3c0-0.4,0.2-0.6,0.6-0.6h4.2c2,0,2.6,0.9,2.6,2.2v0.6
		c0,0.6-0.1,1.1-0.5,1.4c0.8,0.2,1.3,0.9,1.3,1.9v2.7c0,0.4-0.2,0.6-0.6,0.6h-2c-0.4,0-0.6-0.2-0.6-0.6V9.5c0-0.3-0.1-0.4-0.4-0.4
		h-1.6v2.3c0,0.4-0.2,0.6-0.6,0.6H114.2z M116.6,11.4V9h1.8c0.4,0,0.5,0.2,0.5,0.5v1.9c0,0.3,0.1,0.5,0.5,0.5h2
		c0.3,0,0.5-0.1,0.5-0.5V8.8c0-1.1-0.6-1.7-1.5-1.8c0.5-0.2,0.7-0.7,0.7-1.4V4.9c0-1.3-0.6-2.1-2.5-2.1h-4.2c-0.3,0-0.5,0.1-0.5,0.5
		v8.2c0,0.3,0.1,0.5,0.5,0.5h1.9C116.5,11.9,116.6,11.8,116.6,11.4z M115.1,10.8V3.9h2.9c1,0,1.4,0.6,1.4,1.4v0.9
		c0,0.8-0.2,1.3-0.8,1.5h0.1c1,0,1.5,0.5,1.5,1.4v1.7h-0.1V9.1c0-0.8-0.4-1.2-1.4-1.2h-3.6v2.9H115.1z M115.2,4.1v3.7h2.8
		c1,0,1.3-0.5,1.3-1.5V5.4c0-0.8-0.4-1.3-1.3-1.3H115.2z M117.5,5.1c0.4,0,0.6,0.3,0.6,0.6v0.4c0,0.3-0.1,0.6-0.6,0.6h-0.9V5.1
		H117.5z M116.7,5.2v1.4h0.8c0.4,0,0.4-0.2,0.4-0.5V5.7c0-0.3-0.1-0.5-0.4-0.5H116.7z"/>
	<path id="XMLID_36_" class="st1" d="M127.3,12h-4c-0.4,0-0.6-0.2-0.6-0.6V10c0-0.4,0.2-0.6,0.6-0.6h3.4c0.1,0,0.2-0.1,0.2-0.2
		c0-0.2-0.1-0.3-0.2-0.3l-1.9-0.3c-1.3-0.2-2.1-0.7-2.1-2.2V5c0-1.5,1-2.4,2.7-2.4h3.5c0.4,0,0.6,0.2,0.6,0.6v1.5
		c0,0.4-0.2,0.6-0.6,0.6h-2.9c-0.1,0-0.2,0.1-0.2,0.3c0,0.2,0.1,0.3,0.2,0.3l1.9,0.3c1.3,0.2,2.1,0.7,2.1,2.2v1.3
		C130.1,11.2,129.1,12,127.3,12z M130,9.7V8.3c0-1.4-0.8-1.9-2-2.1L126.1,6c-0.2,0-0.3-0.2-0.3-0.4c0-0.2,0.1-0.4,0.3-0.4h2.9
		c0.3,0,0.5-0.1,0.5-0.5V3.3c0-0.3-0.1-0.5-0.5-0.5h-3.5c-1.6,0-2.6,0.8-2.6,2.2v1.3c0,1.4,0.8,1.9,2,2.1l1.9,0.3
		c0.2,0,0.3,0.1,0.3,0.4c0,0.2-0.1,0.4-0.3,0.4h-3.4c-0.3,0-0.5,0.1-0.5,0.5v1.5c0,0.3,0.1,0.5,0.5,0.5h4C129,11.9,130,11.1,130,9.7
		z M128.4,4.1h-2.8c-0.7,0-1.2,0.4-1.2,1v1c0,0.6,0.3,0.8,0.6,0.8l2.7,0.5c0.5,0.1,0.9,0.4,0.9,1.2v0.7c0,0.7-0.5,1.3-1.4,1.3H124
		v-0.1h3.1c0.8,0,1.3-0.5,1.3-1.1V8.8c0-0.8-0.3-1-0.8-1.1L125,7.1c-0.4-0.1-0.7-0.3-0.7-1v-1c0-0.7,0.5-1.1,1.3-1.1h2.8V4.1z"/>
</g>
</svg>
