<svg version="1.1" id="Layer_1" xmlns="http://www.w3.org/2000/svg" x="0" y="0" viewBox="0 0 175.7 27.3" xml:space="preserve"><style>.st0{fill:#fff}</style><g id="XMLID_3_"><path id="XMLID_21_" class="st0" d="M32.3 1.8H17.6c-.8 0-1.6 0-1.6.9v21.4c0 .8.8.7 1.6.7h5.1c.8 0 1.3.1 1.3-.7v-6.3h5.7c.8 0 1.3-.6 1.3-1.4v-4c0-.8-.5-1.6-1.3-1.6H24v-3h8.3c.8 0 1.7-.4 1.7-1.2V2.7c0-.9-.8-.9-1.7-.9z"/><path id="XMLID_24_" class="st0" d="M56.8 12.8H52c-.8 0-1.1 0-1.1.9v5.1h-5V2.7c0-.8 0-.9-.8-.9H40c-.8 0-1 0-1 .9v21.4c0 .8.2.7 1 .7h16.8c.8 0 1.2.1 1.2-.7V13.7c0-.9-.3-.9-1.2-.9z"/><path id="XMLID_26_" class="st0" d="M65 20.8v3.3c0 .8.7.7 1.5.7h4.9c.8 0 1.7.1 1.7-.7v-3.3H65zM81.7 2.6c-.3-.8-.8-.8-1.7-.8h-8.9c-.9 0-1.4 0-1.7.8l-1.7 4.2h15.7l-1.7-4.2zM78 20.8v3.3c0 .8.8.7 1.7.7h5c.8 0 1.3.1 1.3-.7v-3.3h-8z"/><path id="XMLID_30_" class="st0" d="M98 20.8v3.3c0 .8.6.7 1.5.7h5.4c.8 0 1.2.1 1.2-.7v-3.3H98zm13-14.1v-4c0-.8-.3-.9-1.1-.9H92.4c-.8 0-1.4 0-1.4.9v4c0 .2.2.1.3.1H111v-.1z"/><path id="XMLID_32_" class="st0" d="M138.4 1.8h-5c-.9 0-1.4 0-1.4.9v15.1c0 .9-.2 1.5-2.5 1.5s-2.5-.7-2.5-1.5V2.7c0-.8-.6-.9-1.4-.9h-5.2c-.8 0-1.4 0-1.4.9V19c0 4 2.3 6.7 10.5 6.7S140 23 140 19V2.7c0-.9-.8-.9-1.6-.9z"/><path id="XMLID_35_" class="st0" d="M160.7 7.8c.8 0 1.3-.3 1.3-1.1v-4c0-.8-.5-.9-1.3-.9h-14.1c-.8 0-1.7 0-1.7.9v4c0 .8.8 1.1 1.7 1.1h3.3v11h-3.3c-.8 0-1.7.5-1.7 1.3V24c0 .8.8.7 1.7.7h14.1c.8 0 1.3.1 1.3-.7v-3.9c0-.8-.5-1.3-1.3-1.3H158v-11h2.7z"/></g><g id="XMLID_4_"><path id="XMLID_5_" class="st0" d="M65.4 18.3c-2.1 0-3.1-.8-3.1-2.6v-4c0-1.8 1-2.6 3.1-2.6h3.1c.3 0 .5.1.5.5v1.5c0 .3-.1.5-.5.5H66c-.5 0-.8.2-.8.6v3c0 .4.2.6.8.6h2.6c.3 0 .5.1.5.5v1.5c0 .3-.1.5-.5.5h-3.2z"/><path id="XMLID_7_" class="st0" d="M74.2 18.5c-3.2 0-4-1-4-2.6v-4.3c0-1.6.8-2.6 4-2.6s4 1.1 4 2.6v4.3c-.1 1.6-.8 2.6-4 2.6zm0-2.4c.9 0 1.1-.3 1.1-.6V12c0-.3-.1-.6-1.1-.6-.9 0-1.1.3-1.1.6v3.4c0 .4.2.7 1.1.7z"/><path id="XMLID_10_" class="st0" d="M80.2 18.3c-.3 0-.5-.1-.5-.5V9.6c0-.3.1-.5.5-.5h2c.3 0 .5.1.5.5v6.3h1.7v-2.1c0-.3.1-.5.5-.5h1.8c.3 0 .5.1.5.5v4c0 .3-.1.5-.5.5h-6.5z"/><path id="XMLID_13_" class="st0" d="M92.4 18.5c-3.2 0-4-1-4-2.6v-4.3c0-1.6.8-2.6 4-2.6s4 1.1 4 2.6v4.3c0 1.6-.8 2.6-4 2.6zm0-2.4c.9 0 1.1-.3 1.1-.6V12c0-.3-.1-.6-1.1-.6-.9 0-1.1.3-1.1.6v3.4c.1.4.2.7 1.1.7z"/><path id="XMLID_16_" class="st0" d="M98.5 18.3c-.3 0-.5-.1-.5-.5V9.6c0-.3.1-.5.5-.5h4.2c1.9 0 2.5.9 2.5 2.1v.6c0 .7-.2 1.2-.7 1.5.9.1 1.5.8 1.5 1.8v2.7c0 .3-.1.5-.5.5h-2c-.3 0-.5-.1-.5-.5v-2c0-.4-.1-.5-.5-.5h-1.8v2.5c0 .3-.1.5-.5.5h-1.7zm2.4-5.2h1c.4 0 .6-.3.6-.6V12c0-.3-.1-.6-.6-.6h-1v1.7z"/><path id="XMLID_19_" class="st0" d="M107.7 18.3c-.3 0-.5-.1-.5-.5v-1.5c0-.3.1-.5.5-.5h3.4c.2 0 .3-.2.3-.4 0-.3-.1-.4-.3-.4l-1.9-.3c-1.2-.2-2-.7-2-2.1v-1.3c0-1.5 1-2.2 2.6-2.2h3.6c.3 0 .5.1.5.5v1.5c0 .3-.1.5-.5.5h-3c-.2 0-.3.2-.3.4s.1.4.3.4l1.9.3c1.2.2 2 .7 2 2.1v1.3c0 1.5-1 2.2-2.6 2.2h-4z"/></g></svg>