<svg version="1.1" id="Layer_1" xmlns="http://www.w3.org/2000/svg" x="0" y="0" viewBox="0 0 175.7 27.3" xml:space="preserve"><style>.st0,.st1{fill:#fff}.st1{stroke:#fff;stroke-width:.3;stroke-miterlimit:10}</style><g id="XMLID_62_"><path id="XMLID_63_" class="st0" d="M34.3 12.8c-.4 0-.5-.2-.5-.5V2.8c0-.4.2-.5.5-.5h2.4c.3 0 .5.1.7.4l1.3 2.4c.1.2.1.2.3.2h.1c.1 0 .2-.1.3-.2l1.3-2.4c.2-.3.4-.4.7-.4h2.4c.4 0 .5.2.5.5v9.5c0 .4-.2.5-.5.5h-2.2c-.4 0-.5-.2-.5-.5V7.1L40 8.7c-.2.3-.4.5-.8.5h-.6c-.4 0-.6-.1-.8-.5L37 7.1v5.1c0 .4-.2.5-.5.5h-2.2z"/><path id="XMLID_65_" class="st0" d="M50.6 13c-3.7 0-4.5-1.2-4.5-3V5c0-1.8.9-3 4.5-3 3.7 0 4.5 1.2 4.5 3v5c0 1.8-.9 3-4.5 3zm0-2.8c1.1 0 1.2-.3 1.2-.7v-4c0-.4-.2-.7-1.2-.7-1.1 0-1.2.3-1.2.7v3.9c0 .5.1.8 1.2.8z"/><path id="XMLID_68_" class="st0" d="M57.5 12.8c-.4 0-.5-.2-.5-.5V2.8c0-.4.2-.5.5-.5H59c.4 0 .6.1.9.4l2.8 3.2V2.8c0-.4.2-.5.5-.5h2.2c.4 0 .5.2.5.5v9.5c0 .4-.2.5-.5.5h-2.2c-.4 0-.5-.2-.5-.5v-1.8l-2.5-3v4.8c0 .4-.2.5-.5.5h-2.2z"/><path id="XMLID_70_" class="st0" d="M72.3 13c-3.7 0-4.5-1.2-4.5-3V5c0-1.8.9-3 4.5-3 3.7 0 4.5 1.2 4.5 3v5c.1 1.8-.8 3-4.5 3zm0-2.8c1.1 0 1.2-.3 1.2-.7v-4c0-.4-.2-.7-1.2-.7-1.1 0-1.2.3-1.2.7v3.9c0 .5.2.8 1.2.8z"/></g><g id="XMLID_40_"><path id="XMLID_41_" class="st0" d="M37.5 25.8c-2.4 0-3.6-.9-3.6-3v-4.5c0-2 1.1-3 3.6-3H41c.4 0 .5.2.5.5v1.8c0 .4-.2.5-.5.5h-2.9c-.6 0-.9.2-.9.7v3.5c0 .5.3.7.9.7H41c.4 0 .5.2.5.5v1.7c0 .4-.2.5-.5.5h-3.5z"/><path id="XMLID_43_" class="st0" d="M44.4 25.8c-.4 0-.5-.2-.5-.5v-9.4c0-.4.2-.5.5-.5h2.2c.4 0 .5.2.5.5V19h2.4v-3.1c0-.4.2-.5.5-.5h2.2c.4 0 .5.2.5.5v9.4c0 .4-.2.5-.5.5H50c-.4 0-.5-.2-.5-.5V22h-2.4v3.2c0 .4-.2.5-.5.5h-2.2z"/><path id="XMLID_45_" class="st0" d="M56.1 25.8c-.4 0-.5-.2-.5-.5v-9.4c0-.4.2-.5.5-.5H61c2.2 0 2.9 1 2.9 2.4v.7c0 .8-.2 1.4-.8 1.7 1.1.1 1.8.9 1.8 2.1v3.1c0 .4-.2.5-.5.5H62c-.4 0-.5-.2-.5-.5V23c0-.4-.1-.6-.6-.6h-2v2.8c0 .4-.2.5-.5.5h-2.3zm2.8-6H60c.5 0 .6-.3.6-.7v-.5c0-.4-.1-.7-.6-.7h-1.1v1.9z"/><path id="XMLID_48_" class="st0" d="M71.4 26c-3.6 0-4.5-1.2-4.5-3v-4.9c0-1.8.9-3 4.5-3s4.5 1.2 4.5 3V23c0 1.8-.9 3-4.5 3zm0-2.8c1.1 0 1.2-.3 1.2-.7v-3.9c0-.4-.2-.7-1.2-.7s-1.2.3-1.2.7v3.9c0 .4.1.7 1.2.7z"/><path id="XMLID_51_" class="st0" d="M78.9 25.8c-.4 0-.5-.2-.5-.5v-9.4c0-.4.2-.5.5-.5h2.3c.3 0 .5.1.7.4l1.3 2.4c.1.2.1.2.3.2h.1c.1 0 .2-.1.3-.2l1.3-2.4c.2-.3.4-.4.7-.4h2.3c.4 0 .5.2.5.5v9.4c0 .4-.2.5-.5.5H86c-.4 0-.5-.2-.5-.5v-5.1l-.9 1.6c-.2.3-.4.5-.8.5h-.6c-.4 0-.6-.1-.8-.5l-.9-1.6v5.1c0 .4-.2.5-.5.5h-2.1z"/><path id="XMLID_53_" class="st0" d="M93.8 25.8h-2.1c-.4 0-.5-.2-.5-.5v-3.8c0-.6.2-1.3.6-2.3l1.3-3.3c.1-.3.3-.5.7-.5h3.9c.4 0 .6.1.7.5l1.3 3.3c.4 1 .6 1.7.6 2.3v3.8c0 .4-.2.5-.5.5h-2.2c-.4 0-.6-.2-.6-.5v-2h-2.6v2c0 .3-.2.5-.6.5zm.7-5.2h2.3l-.7-2.2c-.1-.2-.2-.2-.3-.2h-.4c-.1 0-.2.1-.3.2l-.6 2.2z"/><path id="XMLID_56_" class="st0" d="M104.7 25.8c-.4 0-.5-.2-.5-.5v-7.1H102c-.4 0-.5-.2-.5-.5v-1.8c0-.4.2-.5.5-.5h7.7c.4 0 .5.2.5.5v1.8c0 .4-.2.5-.5.5h-2.1v7.1c0 .4-.2.5-.5.5h-2.4z"/><path id="XMLID_58_" class="st0" d="M112.1 25.2v-1.7c0-.4.2-.5.5-.5h1.4v-4.9h-1.4c-.4 0-.5-.2-.5-.5v-1.8c0-.4.2-.5.5-.5h6.2c.4 0 .5.2.5.5v1.8c0 .4-.2.5-.5.5h-1.4V23h1.4c.4 0 .5.2.5.5v1.7c0 .4-.2.5-.5.5h-6.2c-.4.1-.5-.1-.5-.5z"/><path id="XMLID_60_" class="st0" d="M125.2 25.8c-2.4 0-3.6-.9-3.6-3v-4.5c0-2 1.1-3 3.6-3h3.5c.4 0 .5.2.5.5v1.8c0 .4-.2.5-.5.5h-2.9c-.6 0-.9.2-.9.7v3.5c0 .5.3.7.9.7h2.9c.4 0 .5.2.5.5v1.7c0 .4-.2.5-.5.5h-3.5z"/></g><g id="XMLID_4_"><path id="XMLID_5_" class="st1" d="M84.5 12h-3.1c-2.2 0-3.2-.9-3.2-2.7V5.4c0-1.8 1-2.7 3.2-2.7h3.1c.4 0 .6.2.6.6v1.5c0 .4-.2.6-.6.6H82c-.4 0-.6.2-.6.5v3c0 .4.2.5.6.5h2.5c.4 0 .6.2.6.6v1.5c0 .3-.2.5-.6.5zm.5-.6V9.9c0-.3-.1-.5-.5-.5H82c-.5 0-.8-.2-.8-.6v-3c0-.4.2-.6.8-.6h2.5c.3 0 .5-.1.5-.5V3.3c0-.3-.1-.5-.5-.5h-3.1c-2.1 0-3.1.8-3.1 2.6v3.9c0 1.8 1 2.6 3.1 2.6h3.1c.4 0 .5-.1.5-.5zm-1.2-.6h-2.1c-1.6 0-2-.5-2-1.6V5.6c0-1.2.4-1.7 2-1.7h2.1V4h-2.1c-1.5 0-1.9.4-1.9 1.5V9c0 1.1.4 1.5 1.9 1.5h2.1v.3z"/><path id="XMLID_9_" class="st1" d="M94.2 9.5c0 1.6-.7 2.7-4 2.7s-4.1-1.1-4.1-2.7V5.2c0-1.6.7-2.7 4.1-2.7 3.3 0 4 1.1 4 2.7v4.3zm-.1-4.3c0-1.5-.8-2.6-3.9-2.6-3.2 0-3.9 1-3.9 2.6v4.3c0 1.5.8 2.6 3.9 2.6 3.2 0 3.9-1 3.9-2.6V5.2zm-4 5.7c-2 0-2.5-.7-2.5-1.7V5.5c0-1 .6-1.7 2.5-1.7s2.6.7 2.6 1.7v3.7c0 1-.6 1.7-2.6 1.7zm0-.1c1.9 0 2.4-.6 2.4-1.6V5.5c0-.9-.6-1.6-2.4-1.6-1.9 0-2.4.6-2.4 1.6v3.7c0 1 .5 1.6 2.4 1.6zm-1-5.1c0-.3.2-.6 1.1-.6.9 0 1.1.3 1.1.6v3.4c0 .3-.1.6-1.1.6-.9 0-1.1-.3-1.1-.6V5.7zm.1 3.4c0 .3.2.5.9.5s.9-.2.9-.5V5.7c0-.3-.2-.5-.9-.5s-.9.2-.9.5v3.4z"/><path id="XMLID_16_" class="st1" d="M95.5 11.4V3.3c0-.4.2-.6.6-.6h2c.4 0 .6.2.6.6v6.1h1.5V7.5c0-.4.2-.6.6-.6h1.8c.4 0 .6.2.6.6v4c0 .4-.2.6-.6.6h-6.4c-.5-.1-.7-.3-.7-.7zm7.5 0v-4c0-.3-.1-.5-.5-.5h-1.8c-.3 0-.5.1-.5.5v2h-1.7V3.3c0-.3-.1-.5-.5-.5h-2c-.3 0-.5.1-.5.5v8.2c0 .3.1.5.5.5h6.4c.5-.1.6-.2.6-.6zm-6-7.5h.1v6.7h4.4V8.1h.1v2.6H97V3.9z"/><path id="XMLID_20_" class="st1" d="M112.3 9.5c0 1.6-.7 2.7-4 2.7s-4.1-1.1-4.1-2.7V5.2c0-1.6.7-2.7 4.1-2.7s4 1.1 4 2.7v4.3zm-.2-4.3c0-1.5-.8-2.6-3.9-2.6s-3.9 1-3.9 2.6v4.3c0 1.5.8 2.6 3.9 2.6s3.9-1 3.9-2.6V5.2zm-3.9 5.7c-2 0-2.5-.7-2.5-1.7V5.5c0-1 .6-1.7 2.5-1.7s2.6.7 2.6 1.7v3.7c0 1-.6 1.7-2.6 1.7zm0-.1c1.9 0 2.4-.6 2.4-1.6V5.5c0-.9-.6-1.6-2.4-1.6s-2.4.6-2.4 1.6v3.7c0 1 .5 1.6 2.4 1.6zm-1-5.1c0-.3.2-.6 1.1-.6.9 0 1.1.3 1.1.6v3.4c0 .3-.1.6-1.1.6-.9 0-1.1-.3-1.1-.6V5.7zm.1 3.4c0 .3.2.5.9.5s.9-.2.9-.5V5.7c0-.3-.2-.5-.9-.5s-.9.2-.9.5v3.4z"/><path id="XMLID_28_" class="st1" d="M114.2 12c-.4 0-.6-.2-.6-.6V3.3c0-.4.2-.6.6-.6h4.2c2 0 2.6.9 2.6 2.2v.6c0 .6-.1 1.1-.5 1.4.8.2 1.3.9 1.3 1.9v2.7c0 .4-.2.6-.6.6h-2c-.4 0-.6-.2-.6-.6v-2c0-.3-.1-.4-.4-.4h-1.6v2.3c0 .4-.2.6-.6.6h-1.8zm2.4-.6V9h1.8c.4 0 .5.2.5.5v1.9c0 .3.1.5.5.5h2c.3 0 .5-.1.5-.5V8.8c0-1.1-.6-1.7-1.5-1.8.5-.2.7-.7.7-1.4v-.7c0-1.3-.6-2.1-2.5-2.1h-4.2c-.3 0-.5.1-.5.5v8.2c0 .3.1.5.5.5h1.9c.2-.1.3-.2.3-.6zm-1.5-.6V3.9h2.9c1 0 1.4.6 1.4 1.4v.9c0 .8-.2 1.3-.8 1.5h.1c1 0 1.5.5 1.5 1.4v1.7h-.1V9.1c0-.8-.4-1.2-1.4-1.2h-3.6v2.9zm.1-6.7v3.7h2.8c1 0 1.3-.5 1.3-1.5v-.9c0-.8-.4-1.3-1.3-1.3h-2.8zm2.3 1c.4 0 .6.3.6.6v.4c0 .3-.1.6-.6.6h-.9V5.1h.9zm-.8.1v1.4h.8c.4 0 .4-.2.4-.5v-.4c0-.3-.1-.5-.4-.5h-.8z"/><path id="XMLID_36_" class="st1" d="M127.3 12h-4c-.4 0-.6-.2-.6-.6V10c0-.4.2-.6.6-.6h3.4c.1 0 .2-.1.2-.2 0-.2-.1-.3-.2-.3l-1.9-.3c-1.3-.2-2.1-.7-2.1-2.2V5c0-1.5 1-2.4 2.7-2.4h3.5c.4 0 .6.2.6.6v1.5c0 .4-.2.6-.6.6H126c-.1 0-.2.1-.2.3 0 .2.1.3.2.3l1.9.3c1.3.2 2.1.7 2.1 2.2v1.3c.1 1.5-.9 2.3-2.7 2.3zm2.7-2.3V8.3c0-1.4-.8-1.9-2-2.1l-1.9-.2c-.2 0-.3-.2-.3-.4s.1-.4.3-.4h2.9c.3 0 .5-.1.5-.5V3.3c0-.3-.1-.5-.5-.5h-3.5c-1.6 0-2.6.8-2.6 2.2v1.3c0 1.4.8 1.9 2 2.1l1.9.3c.2 0 .3.1.3.4 0 .2-.1.4-.3.4h-3.4c-.3 0-.5.1-.5.5v1.5c0 .3.1.5.5.5h4c1.6-.1 2.6-.9 2.6-2.3zm-1.6-5.6h-2.8c-.7 0-1.2.4-1.2 1v1c0 .6.3.8.6.8l2.7.5c.5.1.9.4.9 1.2v.7c0 .7-.5 1.3-1.4 1.3H124v-.1h3.1c.8 0 1.3-.5 1.3-1.1v-.6c0-.8-.3-1-.8-1.1l-2.6-.6c-.4-.1-.7-.3-.7-1v-1c0-.7.5-1.1 1.3-1.1h2.8v.1z"/></g></svg>