<svg version="1" xmlns="http://www.w3.org/2000/svg" width="558.667" height="558.667" viewBox="0 0 419.000000 419.000000"><path d="M345.2 129.3l-18.3 18.3.3 31.8.3 31.8 6.6 6.2c3.8 3.5 9.6 7.6 13.4 9.5 6.2 3 17.2 6 21.9 6.1 1.7 0 1.8-.2.4-1.8-.9-.9-2.4-3.3-3.4-5.2-1.8-3.3-1.9-7.3-2.4-59.3l-.5-55.7-18.3 18.3z"/><path d="M76 138.4c-25.1 5.3-45.9 22.9-54.8 46.5-4.3 11-5.6 19.6-4.9 32 .9 18.2 7.1 33 19.6 46.3 14.6 15.7 33.9 24.1 55.1 24.1 13.1.1 21.5-1.9 34-7.9 8.7-4.3 10.6-5.7 22.7-17.9l13.3-13.3 2.2 3.7c4.2 6.7 13.8 17 20.2 21.6 13.2 9.4 26.8 13.6 44.1 13.6 18.2 0 32.6-4.8 46.2-15.5 7.3-5.7 17.3-17.3 17.3-20 0-.9-1.1-3.3-2.4-5.4-1.3-2-7-11.6-12.7-21.2l-10.4-17.5-.6 6.5c-1.1 13-6.7 23.1-16.3 29.7-6.9 4.7-14.1 6.6-23.9 6.1-10.5-.4-17.6-3.8-25.2-12-7.1-7.7-9.9-14.7-9.9-25.3-.1-7.2.3-8.9 3.2-14.7 7.1-14.5 23.9-23.1 40.2-20.8 17.5 2.5 25.8 10 42.4 38 15.3 25.9 22.5 36.6 29.3 43.4 7.1 7.2 17.1 13.9 25.7 17.1 13.7 5.1 39.8 10.6 57.9 12l8.7.7v-35.8l-11.2-1.2c-19.2-2.1-39.3-7-47.5-11.8-6.7-3.9-12.7-12-29.3-39.8-17.4-29.1-24.6-37.9-37.8-46.6-18-11.8-41.4-15.7-63.1-10.3-12.4 3-22.6 8.8-32.9 18.7-7.9 7.5-10.6 11.4-19.9 28.4-25.1 45.8-47.6 64.9-70.9 60.2-12.2-2.5-22.4-10.5-27.7-21.8-2.9-6-3.2-7.7-3.2-15.7 0-12 3.1-19 12.1-27.4 7.9-7.5 14.9-10.3 25.4-10.5 8.9-.1 15.6 2 22.6 6.9l4.9 3.5 13-13 12.9-12.9-2.4-2.7c-5.5-5.8-17.3-12.8-28-16.4-8.3-2.8-28.2-3.6-38-1.6z"/></svg>